<?xml version="1.0" encoding="utf-8"?>
<!-- Generator: Adobe Illustrator 23.0.3, SVG Export Plug-In . SVG Version: 6.00 Build 0)  -->
<svg version="1.1" xmlns="http://www.w3.org/2000/svg" xmlns:xlink="http://www.w3.org/1999/xlink" x="0px" y="0px"
	 viewBox="0 0 1920 1080" style="enable-background:new 0 0 1920 1080;" xml:space="preserve">
<style type="text/css">
	.st0{fill:#F2F2F2;}
	.st1{fill:#666666;}
	.st2{fill:#97B4BB;}
	.st3{fill:#999999;}
	.st4{fill:#808080;}
	.st5{fill:#B3B3B3;}
</style>
<g id="Layer_1">
</g>
<g id="Layer_3">
</g>
<g id="transport">
	<path class="st0" d="M87.1,776c0,2.7-3.7,4.9-8.2,4.9c-1.9,0-3.6-0.4-4.9-1v-3.1c1.5-1.5,2.7-3.7,4.4-5.7c0.2,0,0.3,0,0.5,0
		C83.5,771.1,87.1,773.3,87.1,776z"/>
</g>
<g id="buildings">
	<path class="st1" d="M1479-558h0.7c-0.4,2.6-0.7,5.3-0.7,8V-558z"/>
	<path class="st2" d="M1607-558v8c0-2.7-0.2-5.4-0.7-8H1607z"/>
	<path class="st2" d="M1645-558h0.7c-0.4,2.6-0.7,5.3-0.7,8V-558z"/>
	<path class="st2" d="M1773-558v8c0-2.7-0.2-5.4-0.7-8H1773z"/>
	<path class="st2" d="M1813.7-527.5c-0.3,1.6-0.6,3.3-0.6,5c0,0.4,0,0.8,0,1.1v-6.1H1813.7z"/>
	<path class="st2" d="M1941-527.5v6.1c0-2.1-0.2-4.1-0.7-6.1H1941z"/>
	<path class="st2" d="M1773-550c0-2.7-0.2-5.4-0.7-8h0.7V-550z"/>
</g>
<g id="bridge">
	<g>
		<path d="M1515.2,427v0.3h-3.1C1513.2,427.3,1514.2,427.2,1515.2,427z"/>
		<g>
			<path class="st3" d="M1499.3,485.7V815h-64V672.4c0-3.2-0.3-6.4-1-9.5c-6.9-32.2-48.5-57-98.9-57c-50.3,0-92,24.8-98.9,57
				c-0.7,3.1-1,6.3-1,9.5V815h-64V672.4c0-3.2-0.3-6.4-1-9.5c-6.8-31.9-47.7-56.5-97.3-57v0H811v0c-0.5,0-1,0-1.6,0
				c-50.3,0-92,24.8-98.9,57c-0.7,3.1-1,6.3-1,9.5V815h-59.3V672.4c0-3.2-0.3-6.4-1-9.5c-6.9-32.2-48.5-57-98.9-57
				c-50.3,0-92,24.8-98.9,57c-0.7,3.1-1,6.3-1,9.5V815h-67.1V485.7H1499.3z"/>
			<path class="st3" d="M1073.2,605.9L1073.2,605.9c-0.5,0-1,0-1.6,0H1073.2z"/>
			<rect x="452" y="527.8" class="st4" width="198.2" height="57.7"/>
			<rect x="711.1" y="527.8" class="st4" width="198.2" height="57.7"/>
			<rect x="709.6" y="527.8" class="st4" width="465.1" height="57.7"/>
			<rect x="1234" y="527.8" class="st4" width="202.9" height="57.7"/>
			<rect x="650.3" y="485.7" class="st5" width="59.3" height="329.3"/>
			<rect x="1174.7" y="485.7" class="st5" width="59.3" height="329.3"/>
			<rect x="1436.9" y="485.7" class="st5" width="59.3" height="329.3"/>
			<rect x="399" y="509.1" class="st5" width="1097.2" height="18.7"/>
			<rect x="399" y="576.2" class="st5" width="1097.2" height="18.7"/>
			<path class="st2" d="M954.6,245c-44.7,0-96.8,0-160.8,22.2c-23.8,8.3-88.8,31.6-146.7,87.4c-21.9,21.1-32.8,37.3-76.5,79.6
				c-23.2,22.5-43,40.1-56.2,51.5c44.2,0.4,88.5,0.9,132.7,1.3c1.3-105.2,138.7-190.2,307.9-190.2c21.2,0,42,1.3,62,3.9V293h1
				c-0.5,2.5-0.9,5.1-1,7.7c139.5,17.8,244.7,94.3,245.8,186.3c44.5-0.4,88.9-0.9,133.4-1.3c-23.8-26.5-58.8-63.1-104.6-103
				c-65.7-57.3-99.5-86.8-154.5-109.2C1067.8,245,1006.7,245,954.6,245z M953,257.8c0-4.2-0.3-8.4-1-12.5h1V257.8z"/>
			<rect x="748.6" y="315.6" class="st2" width="15.6" height="170.1"/>
			<rect x="811" y="315.6" class="st2" width="15.6" height="170.1"/>
			<rect x="873.4" y="293.7" class="st2" width="15.6" height="192"/>
			<rect x="935.9" y="293.7" class="st2" width="15.6" height="192"/>
			<rect x="998.3" y="293.7" class="st2" width="15.6" height="192"/>
			<rect x="1060.7" y="293.7" class="st2" width="15.6" height="192"/>
			<rect x="1123.1" y="293.7" class="st2" width="15.6" height="192"/>
			<rect x="1185.6" y="349.9" class="st2" width="15.6" height="135.8"/>
			<rect x="692.4" y="365.5" class="st2" width="17.2" height="120.2"/>
			<rect x="383.4" y="487.3" class="st5" width="65.5" height="329.3"/>
		</g>
		<path class="st3" d="M1659.6,814.3V711.7c0-2.4-0.3-4.7-0.7-7c-5.1-23.7-35.7-41.9-72.7-41.9s-67.6,18.2-72.7,41.9
			c-0.5,2.3-0.8,4.6-0.8,7v102.6h-13.4V486.2L1857,814.3H1659.6z"/>
		<polygon class="st5" points="1498.8,485.7 1499.3,486.2 1499.3,814.3 1496.6,814.3 1496.6,483.7 		"/>
		<path class="st3" d="M383.4,488.3v328.2h-11.5V711.7c0-2.4-0.3-4.7-0.7-7c-5.1-23.7-35.7-41.9-72.7-41.9s-67.6,18.2-72.7,41.9
			c-0.5,2.3-0.8,4.6-0.8,7v104.9H23L383.4,488.3z"/>
	</g>
</g>
</svg>
