<?xml version="1.0" encoding="utf-8"?>
<!-- Generator: Adobe Illustrator 23.0.3, SVG Export Plug-In . SVG Version: 6.00 Build 0)  -->
<svg version="1.1" xmlns="http://www.w3.org/2000/svg" xmlns:xlink="http://www.w3.org/1999/xlink" x="0px" y="0px"
	 viewBox="0 0 1920 1080" style="enable-background:new 0 0 1920 1080;" xml:space="preserve">
<style type="text/css">
	.st0{fill:#2E3192;}
	.st1{fill:#72B8A1;}
	.st2{fill:#808080;}
	.st3{fill:#F2F2F2;}
	.st4{fill:#1B1464;}
	.st5{fill:#666666;}
	.st6{fill:#97B4BB;}
</style>
<g id="Layer_1">
</g>
<g id="Layer_3">
</g>
<g id="transport">
	<path class="st0" d="M1568,531.1v145.2h-121.2c-17.4-23.2-42.9-40-72.5-46c-7.7-1.6-16-2.4-24.2-2.4c-39.5,0-74.7,19-96.5,48.4
		H547.1c-20.3-29.4-54.2-48.4-92.6-48.4s-72.3,19-92.6,48.4H170c-3.9-12.7-6-26.3-6-40.3v-1.6c13.4,6,30.2,9.7,48.4,9.7
		c44.5,0,80.7-21.6,80.7-48.4c0-26.8-36.1-48.4-80.7-48.4c-1.6,0-3.4,0-5,0.2c10.2-12.3,21.9-23.7,37.3-32.4
		c82.3-47.3,160.9-70.5,209.8-74.6c11-4.2,66.5-11,126.4-16.1c17.6-64.7,59.5-155.4,164.1-215.9c95.7-55.4,182.7-54.3,250.1-51.6
		c47.4,1.9,196.6-7.7,282.4,35.4c125.6,62.9,172.8,170.1,193.8,242.1c26.6,0,50.7,11,68.3,28.4C1557,480.2,1568,504.4,1568,531.1z"
		/>
	<path d="M551.3,740.9c0,9.7-1.4,19-4,27.7c-11.9,40-48.8,69.2-92.8,69.2s-80.9-29.2-92.8-69.2c-2.6-8.7-4-18-4-27.7
		c0-53.5,43.3-96.8,96.8-96.8S551.3,687.3,551.3,740.9z"/>
	<path d="M1455,740.9c0,9.7-1.5,19-4.3,27.7c-12.9,40-52.9,69.2-100.6,69.2s-87.7-29.2-100.6-69.2c-2.8-8.7-4.3-18-4.3-27.7
		c0-53.5,46.9-96.8,104.9-96.8C1408.1,644,1455,687.3,1455,740.9z"/>
	<path d="M208.8,823.6v0.1h-1.6C207.7,823.7,208.2,823.7,208.8,823.6z"/>
	<path class="st1" d="M955.9,240.6v193.7H648.1v-29.2c0-90.5,82.3-164.5,183-164.5H955.9z"/>
	<path class="st1" d="M1309.8,411.4v22.8h-292.4V240.6h102.3C1224.2,240.6,1309.8,317.5,1309.8,411.4z"/>
	<path class="st2" d="M519,740.9c0,6.5-0.9,12.6-2.7,18.4c-7.9,26.7-32.6,46.1-61.9,46.1c-29.3,0-53.9-19.5-61.9-46.1
		c-1.8-5.8-2.7-12-2.7-18.4c0-35.7,28.9-64.6,64.6-64.6S519,705.2,519,740.9z"/>
	<path class="st2" d="M1422.8,740.9c0,6.5-1,12.6-3,18.4c-8.9,26.7-36.6,46.1-69.6,46.1s-60.7-19.5-69.6-46.1c-2-5.8-3-12-3-18.4
		c0-35.7,32.5-64.6,72.6-64.6C1390.3,676.3,1422.8,705.2,1422.8,740.9z"/>
	<path class="st3" d="M293.1,595.6c0,26.8-36.1,48.4-80.7,48.4c-18.2,0-35-3.7-48.4-9.7v-30.7c15-14.4,26.8-36.3,43.4-56.3
		c1.6-0.2,3.4-0.2,5-0.2C257,547.2,293.1,568.8,293.1,595.6z"/>
	<path class="st4" d="M341.5,740.9c0,11.3,1.6,22.1,4.7,32.3h-45c-61.5,0-113.8-40.8-131.2-96.8h191.9
		C348.9,694.5,341.5,716.8,341.5,740.9z"/>
	<path class="st4" d="M1229.1,748.9c0,8.2,0.8,16.5,2.4,24.2H567.4v-32.3c0-24-7.4-46.3-20.3-64.6h706.5
		C1238.1,696.5,1229.1,721.7,1229.1,748.9z"/>
	<path class="st4" d="M1568,676.3c0,47.8-35,87.8-80.7,95.4c-5.3,1-10.6,1.5-16.1,1.5c-0.8,0-1.6,0-2.4-0.2c1.6-7.7,2.4-15.8,2.4-24
		c0-27.4-9-52.6-24.4-72.6H1568z"/>
	<rect x="857.9" y="482.7" width="80.7" height="32.3"/>
	<rect x="1229.1" y="482.7" width="80.7" height="32.3"/>
</g>
<g id="buildings">
	<path class="st5" d="M1479-558h0.7c-0.4,2.6-0.7,5.3-0.7,8V-558z"/>
	<path class="st6" d="M1607-558v8c0-2.7-0.2-5.4-0.7-8H1607z"/>
	<path class="st6" d="M1645-558h0.7c-0.4,2.6-0.7,5.3-0.7,8V-558z"/>
	<path class="st6" d="M1773-558v8c0-2.7-0.2-5.4-0.7-8H1773z"/>
	<path class="st6" d="M1813.7-527.5c-0.3,1.6-0.6,3.3-0.6,5c0,0.4,0,0.8,0,1.1v-6.1H1813.7z"/>
	<path class="st6" d="M1941-527.5v6.1c0-2.1-0.2-4.1-0.7-6.1H1941z"/>
	<path class="st6" d="M1773-550c0-2.7-0.2-5.4-0.7-8h0.7V-550z"/>
</g>
<g id="bridge">
</g>
</svg>
