<?xml version="1.0" encoding="utf-8"?>
<!-- Generator: Adobe Illustrator 23.0.3, SVG Export Plug-In . SVG Version: 6.00 Build 0)  -->
<svg version="1.1" xmlns="http://www.w3.org/2000/svg" xmlns:xlink="http://www.w3.org/1999/xlink" x="0px" y="0px"
	 viewBox="0 0 1920 1080" style="enable-background:new 0 0 1920 1080;" xml:space="preserve">
<style type="text/css">
	.st0{fill:#BDCCD4;}
	.st1{fill:#2E3192;}
	.st2{fill:#F14929;}
	.st3{fill:#FF931E;}
	.st4{fill:#343363;}
	.st5{fill:#E6E6E6;}
	.st6{fill:#E86110;}
	.st7{fill:none;}
	.st8{fill:none;stroke:#FF931E;stroke-width:5;stroke-miterlimit:10;}
	.st9{fill:#DBDBDB;}
	.st10{fill:#F6F6D6;}
	.st11{fill:#8B7648;}
	.st12{fill:#F2F2F2;}
	.st13{fill:#666666;}
	.st14{fill:#DBDB53;}
	.st15{fill:#999999;}
	.st16{fill:#FCFCF0;}
	.st17{fill:#88B535;}
	.st18{fill:#97B4BB;}
</style>
<g id="Layer_1">
	<path class="st0" d="M552.9,224.9"/>
</g>
<g id="Layer_3">
</g>
<g id="transport">
</g>
<g id="buildings">
	<path class="st0" d="M705.7,671.2h97.8c0-124.9,0-249.9,0-374.8c-32.6,0-65.2,0-97.8,0V671.2z"/>
	<path class="st1" d="M676.4,674.4h42.4V296.4c-14.1,6.5-28.2,13-42.4,19.6C676.4,435.4,676.4,554.9,676.4,674.4z"/>
	
		<rect x="718.8" y="234.5" transform="matrix(-1 -4.490509e-11 4.490509e-11 -1 1512.4896 543.897)" class="st0" width="75" height="75"/>
	<polygon class="st1" points="718.8,244.2 707.9,250.8 686.2,263.8 686.2,313.3 718.8,296.4 	"/>
	<path class="st0" d="M793.7,244.2"/>
	
		<rect x="728.5" y="159.5" transform="matrix(-1 -4.490154e-11 4.490154e-11 -1 1489.676 410.2743)" class="st0" width="32.6" height="91.3"/>
	<path class="st1" d="M709,221.4"/>
	<path class="st1" d="M686.2,263.8l32.6-19.6v-84.7c-5.4,2.2-10.9,4.3-16.3,6.5c0,21.7,0,43.5,0,65.2l-16.3,13V263.8z"/>
	<path class="st1" d="M741.6,33.1l-6.5,26.1v19.6l-6.5,13v48.9c-3.3,2.2-6.5,4.3-9.8,6.5c0,9.8,0,19.6,0,29.3h22.8V33.1"/>
	
		<rect x="718.8" y="159.5" transform="matrix(-1 -4.492951e-11 4.492951e-11 -1 1447.3079 393.9789)" class="st1" width="9.8" height="75"/>
	<path class="st0" d="M770.3,143.9c1.3,14.1,2.6,28.2,3.9,42.4c-6.5-16.3-13-32.6-19.6-48.9L770.3,143.9z"/>
	<path class="st0" d="M647.1,140.7"/>
	
		<rect x="728.5" y="159.5" transform="matrix(-1 -4.489443e-11 4.489443e-11 -1 1509.2306 397.238)" class="st0" width="52.1" height="78.2"/>
	<path class="st2" d="M579.8,784.3h79.9V284.6c-26.6,17.5-53.3,35-79.9,52.5C579.8,486.1,579.8,635.2,579.8,784.3z"/>
	<path class="st3" d="M736.4,784.7h-76.6V284.9c23.3,17.5,50,35,76.6,52.5C736.4,486.5,736.4,635.6,736.4,784.7z"/>
	
		<rect x="857.3" y="432.9" transform="matrix(-1 -4.489843e-11 4.489843e-11 -1 1810.9871 1402.9446)" class="st0" width="96.4" height="537.2"/>
	
		<rect x="723.6" y="432.9" transform="matrix(-1 -4.487756e-11 4.487756e-11 -1 1580.8889 1402.9446)" class="st4" width="133.7" height="537.2"/>
	<polygon class="st1" points="825.4,407.5 825.4,432.9 905.5,432.9 905.5,394.1 878.8,394.1 878.8,382 862.1,382 862.1,394.1 
		852.1,394.1 852.1,407.5 	"/>
	
		<rect x="820" y="685.7" transform="matrix(-1 -4.480339e-11 4.480339e-11 -1 1657.1899 1412.7841)" class="st1" width="17.1" height="41.4"/>
	
		<rect x="820" y="734.8" transform="matrix(-1 -4.480339e-11 4.480339e-11 -1 1657.1899 1510.973)" class="st1" width="17.1" height="41.4"/>
	
		<rect x="823.4" y="783.9" transform="matrix(-1 -4.480339e-11 4.480339e-11 -1 1663.9962 1609.162)" class="st1" width="17.1" height="41.4"/>
	
		<rect x="797" y="687.4" transform="matrix(-1 -4.480339e-11 4.480339e-11 -1 1611.1703 1416.2908)" class="st1" width="17.1" height="41.4"/>
	
		<rect x="774" y="687.4" transform="matrix(-1 -4.501611e-11 4.501611e-11 -1 1565.1508 1416.2908)" class="st1" width="17.1" height="41.4"/>
	
		<rect x="751" y="687.4" transform="matrix(-1 -4.501611e-11 4.501611e-11 -1 1519.1311 1416.2908)" class="st1" width="17.1" height="41.4"/>
	
		<rect x="728" y="687.4" transform="matrix(-1 -4.501611e-11 4.501611e-11 -1 1473.1115 1416.2908)" class="st1" width="17.1" height="41.4"/>
	
		<rect x="751" y="736.5" transform="matrix(-1 -4.480339e-11 4.480339e-11 -1 1519.1311 1514.4797)" class="st1" width="17.1" height="41.4"/>
	
		<rect x="728" y="736.5" transform="matrix(-1 -4.480339e-11 4.480339e-11 -1 1473.1115 1514.4797)" class="st1" width="17.1" height="41.4"/>
	
		<rect x="754.4" y="785.6" transform="matrix(-1 -4.501611e-11 4.501611e-11 -1 1525.9373 1612.6688)" class="st1" width="17.1" height="41.4"/>
	
		<rect x="731.4" y="785.6" transform="matrix(-1 -4.501611e-11 4.501611e-11 -1 1479.9177 1612.6688)" class="st1" width="17.1" height="41.4"/>
	
		<rect x="1353.2" y="664.6" transform="matrix(-1 -4.484603e-11 4.484603e-11 -1 2731.3462 1366.8641)" class="st1" width="25" height="37.7"/>
	
		<rect x="1319.6" y="664.6" transform="matrix(-1 -4.484603e-11 4.484603e-11 -1 2664.2344 1366.8641)" class="st1" width="25" height="37.7"/>
	
		<rect x="797" y="736.5" transform="matrix(-1 -4.480339e-11 4.480339e-11 -1 1611.1703 1514.4797)" class="st1" width="17.1" height="41.4"/>
	
		<rect x="774" y="736.5" transform="matrix(-1 -4.480339e-11 4.480339e-11 -1 1565.1508 1514.4797)" class="st1" width="17.1" height="41.4"/>
	
		<rect x="800.4" y="785.6" transform="matrix(-1 -4.480339e-11 4.480339e-11 -1 1617.9766 1612.6688)" class="st1" width="17.1" height="41.4"/>
	
		<rect x="777.4" y="785.6" transform="matrix(-1 -4.501611e-11 4.501611e-11 -1 1571.9569 1612.6688)" class="st1" width="17.1" height="41.4"/>
	
		<rect x="1353.2" y="709.3" transform="matrix(-1 -4.499169e-11 4.499169e-11 -1 2731.3462 1456.3468)" class="st1" width="25" height="37.7"/>
	
		<rect x="1319.6" y="709.3" transform="matrix(-1 -4.484603e-11 4.484603e-11 -1 2664.2344 1456.3468)" class="st1" width="25" height="37.7"/>
	
		<rect x="1385.1" y="709.3" transform="matrix(-1 -4.484603e-11 4.484603e-11 -1 2795.2625 1456.3468)" class="st1" width="25" height="37.7"/>
	
		<rect x="1385.1" y="664.6" transform="matrix(-1 -4.484603e-11 4.484603e-11 -1 2795.2625 1366.8641)" class="st1" width="25" height="37.7"/>
	
		<rect x="752.1" y="440.2" transform="matrix(-1 -4.485668e-11 4.485668e-11 -1 1521.3225 921.8391)" class="st1" width="17.1" height="41.4"/>
	
		<rect x="729.1" y="440.2" transform="matrix(-1 -4.485668e-11 4.485668e-11 -1 1475.3029 921.8391)" class="st1" width="17.1" height="41.4"/>
	
		<rect x="752.1" y="489.3" transform="matrix(-1 -4.485668e-11 4.485668e-11 -1 1521.3225 1020.028)" class="st1" width="17.1" height="41.4"/>
	
		<rect x="729.1" y="489.3" transform="matrix(-1 -4.485668e-11 4.485668e-11 -1 1475.3029 1020.028)" class="st1" width="17.1" height="41.4"/>
	
		<rect x="752.1" y="538.4" transform="matrix(-1 -4.480339e-11 4.480339e-11 -1 1521.3225 1118.217)" class="st1" width="17.1" height="41.4"/>
	
		<rect x="729.1" y="538.4" transform="matrix(-1 -4.480339e-11 4.480339e-11 -1 1475.3029 1118.217)" class="st1" width="17.1" height="41.4"/>
	
		<rect x="798.1" y="440.2" transform="matrix(-1 -4.490953e-11 4.490953e-11 -1 1613.3617 921.8391)" class="st1" width="17.1" height="41.4"/>
	
		<rect x="775.1" y="440.2" transform="matrix(-1 -4.490953e-11 4.490953e-11 -1 1567.3422 921.8391)" class="st1" width="17.1" height="41.4"/>
	
		<rect x="798.1" y="489.3" transform="matrix(-1 -4.490953e-11 4.490953e-11 -1 1613.3617 1020.028)" class="st1" width="17.1" height="41.4"/>
	
		<rect x="775.1" y="489.3" transform="matrix(-1 -4.490953e-11 4.490953e-11 -1 1567.3422 1020.028)" class="st1" width="17.1" height="41.4"/>
	
		<rect x="752.1" y="587.5" transform="matrix(-1 -4.501611e-11 4.501611e-11 -1 1521.3225 1216.406)" class="st1" width="17.1" height="41.4"/>
	
		<rect x="729.1" y="587.5" transform="matrix(-1 -4.501611e-11 4.501611e-11 -1 1475.3029 1216.406)" class="st1" width="17.1" height="41.4"/>
	
		<rect x="752.1" y="636.6" transform="matrix(-1 -4.480339e-11 4.480339e-11 -1 1521.3225 1314.5951)" class="st1" width="17.1" height="41.4"/>
	
		<rect x="729.1" y="636.6" transform="matrix(-1 -4.480339e-11 4.480339e-11 -1 1475.3029 1314.5951)" class="st1" width="17.1" height="41.4"/>
	
		<rect x="797" y="587.5" transform="matrix(-1 -4.480339e-11 4.480339e-11 -1 1611.1703 1216.406)" class="st1" width="17.1" height="41.4"/>
	
		<rect x="774" y="587.5" transform="matrix(-1 -4.480339e-11 4.480339e-11 -1 1565.1508 1216.406)" class="st1" width="17.1" height="41.4"/>
	
		<rect x="797" y="636.6" transform="matrix(-1 -4.480339e-11 4.480339e-11 -1 1611.1703 1314.5951)" class="st1" width="17.1" height="41.4"/>
	
		<rect x="774" y="636.6" transform="matrix(-1 -4.501611e-11 4.501611e-11 -1 1565.1508 1314.5951)" class="st1" width="17.1" height="41.4"/>
	
		<rect x="797" y="538.4" transform="matrix(-1 -4.480339e-11 4.480339e-11 -1 1611.1703 1118.217)" class="st1" width="17.1" height="41.4"/>
	
		<rect x="774" y="538.4" transform="matrix(-1 -4.501611e-11 4.501611e-11 -1 1565.1508 1118.217)" class="st1" width="17.1" height="41.4"/>
	
		<rect x="797" y="587.5" transform="matrix(-1 -4.480339e-11 4.480339e-11 -1 1611.1703 1216.406)" class="st1" width="17.1" height="41.4"/>
	
		<rect x="774" y="587.5" transform="matrix(-1 -4.480339e-11 4.480339e-11 -1 1565.1508 1216.406)" class="st1" width="17.1" height="41.4"/>
	
		<rect x="931.8" y="442.1" transform="matrix(-1 -4.490953e-11 4.490953e-11 -1 1880.7137 921.7899)" class="st5" width="17.1" height="37.5"/>
	
		<rect x="908.8" y="442.1" transform="matrix(-1 -4.490953e-11 4.490953e-11 -1 1834.6942 921.7899)" class="st5" width="17.1" height="37.5"/>
	
		<rect x="885.8" y="442.1" transform="matrix(-1 -4.490953e-11 4.490953e-11 -1 1788.6746 921.7899)" class="st5" width="17.1" height="37.5"/>
	
		<rect x="862.8" y="442.1" transform="matrix(-1 -4.485668e-11 4.485668e-11 -1 1742.6549 921.7899)" class="st5" width="17.1" height="37.5"/>
	
		<rect x="885.8" y="436.7" transform="matrix(-1 -4.490953e-11 4.490953e-11 -1 1788.6746 914.8256)" class="st5" width="17.1" height="41.4"/>
	
		<rect x="862.8" y="436.7" transform="matrix(-1 -4.485668e-11 4.485668e-11 -1 1742.6549 914.8256)" class="st5" width="17.1" height="41.4"/>
	
		<rect x="885.8" y="485.8" transform="matrix(-1 -4.490953e-11 4.490953e-11 -1 1788.6746 1013.0145)" class="st5" width="17.1" height="41.4"/>
	
		<rect x="862.8" y="485.8" transform="matrix(-1 -4.485668e-11 4.485668e-11 -1 1742.6549 1013.0145)" class="st5" width="17.1" height="41.4"/>
	
		<rect x="885.8" y="534.9" transform="matrix(-1 -4.480339e-11 4.480339e-11 -1 1788.6746 1111.2035)" class="st5" width="17.1" height="41.4"/>
	
		<rect x="862.8" y="534.9" transform="matrix(-1 -4.480339e-11 4.480339e-11 -1 1742.6549 1111.2035)" class="st5" width="17.1" height="41.4"/>
	
		<rect x="931.8" y="436.7" transform="matrix(-1 -4.490953e-11 4.490953e-11 -1 1880.7137 914.8256)" class="st5" width="17.1" height="41.4"/>
	
		<rect x="908.8" y="436.7" transform="matrix(-1 -4.490953e-11 4.490953e-11 -1 1834.6942 914.8256)" class="st5" width="17.1" height="41.4"/>
	
		<rect x="931.8" y="485.8" transform="matrix(-1 -4.490953e-11 4.490953e-11 -1 1880.7137 1013.0145)" class="st5" width="17.1" height="41.4"/>
	
		<rect x="908.8" y="485.8" transform="matrix(-1 -4.490953e-11 4.490953e-11 -1 1834.6942 1013.0145)" class="st5" width="17.1" height="41.4"/>
	
		<rect x="885.8" y="584" transform="matrix(-1 -4.480339e-11 4.480339e-11 -1 1788.6746 1209.3926)" class="st5" width="17.1" height="41.4"/>
	
		<rect x="862.8" y="584" transform="matrix(-1 -4.480339e-11 4.480339e-11 -1 1742.6549 1209.3926)" class="st5" width="17.1" height="41.4"/>
	
		<rect x="885.8" y="633.1" transform="matrix(-1 -4.501611e-11 4.501611e-11 -1 1788.6746 1307.5815)" class="st5" width="17.1" height="41.4"/>
	
		<rect x="862.8" y="633.1" transform="matrix(-1 -4.501611e-11 4.501611e-11 -1 1742.6549 1307.5815)" class="st5" width="17.1" height="41.4"/>
	
		<rect x="930.7" y="584" transform="matrix(-1 -4.501611e-11 4.501611e-11 -1 1878.5223 1209.3926)" class="st5" width="17.1" height="41.4"/>
	
		<rect x="907.7" y="584" transform="matrix(-1 -4.501611e-11 4.501611e-11 -1 1832.5028 1209.3926)" class="st5" width="17.1" height="41.4"/>
	
		<rect x="930.7" y="633.1" transform="matrix(-1 -4.480339e-11 4.480339e-11 -1 1878.5223 1307.5815)" class="st5" width="17.1" height="41.4"/>
	
		<rect x="907.7" y="633.1" transform="matrix(-1 -4.480339e-11 4.480339e-11 -1 1832.5028 1307.5815)" class="st5" width="17.1" height="41.4"/>
	
		<rect x="930.7" y="534.9" transform="matrix(-1 -4.501611e-11 4.501611e-11 -1 1878.5223 1111.2035)" class="st5" width="17.1" height="41.4"/>
	
		<rect x="907.7" y="534.9" transform="matrix(-1 -4.501611e-11 4.501611e-11 -1 1832.5028 1111.2035)" class="st5" width="17.1" height="41.4"/>
	
		<rect x="930.7" y="584" transform="matrix(-1 -4.501611e-11 4.501611e-11 -1 1878.5223 1209.3926)" class="st5" width="17.1" height="41.4"/>
	
		<rect x="907.7" y="584" transform="matrix(-1 -4.501611e-11 4.501611e-11 -1 1832.5028 1209.3926)" class="st5" width="17.1" height="41.4"/>
	
		<rect x="930.7" y="680.4" transform="matrix(-1 -4.480339e-11 4.480339e-11 -1 1878.5223 1402.2638)" class="st5" width="17.1" height="41.4"/>
	
		<rect x="907.7" y="680.4" transform="matrix(-1 -4.480339e-11 4.480339e-11 -1 1832.5028 1402.2638)" class="st5" width="17.1" height="41.4"/>
	
		<rect x="884.7" y="680.4" transform="matrix(-1 -4.480339e-11 4.480339e-11 -1 1786.4832 1402.2638)" class="st5" width="17.1" height="41.4"/>
	
		<rect x="861.7" y="680.4" transform="matrix(-1 -4.480339e-11 4.480339e-11 -1 1740.4635 1402.2638)" class="st5" width="17.1" height="41.4"/>
	
		<rect x="884.7" y="729.5" transform="matrix(-1 -4.480339e-11 4.480339e-11 -1 1786.4832 1500.4528)" class="st5" width="17.1" height="41.4"/>
	
		<rect x="861.7" y="729.5" transform="matrix(-1 -4.480339e-11 4.480339e-11 -1 1740.4635 1500.4528)" class="st5" width="17.1" height="41.4"/>
	
		<rect x="884.8" y="778.6" transform="matrix(-1 -4.480339e-11 4.480339e-11 -1 1786.6823 1598.6417)" class="st5" width="17.1" height="41.4"/>
	
		<rect x="861.8" y="778.6" transform="matrix(-1 -4.501611e-11 4.501611e-11 -1 1740.6626 1598.6417)" class="st5" width="17.1" height="41.4"/>
	
		<rect x="930.7" y="729.5" transform="matrix(-1 -4.480339e-11 4.480339e-11 -1 1878.5223 1500.4528)" class="st5" width="17.1" height="41.4"/>
	
		<rect x="907.7" y="729.5" transform="matrix(-1 -4.480339e-11 4.480339e-11 -1 1832.5028 1500.4528)" class="st5" width="17.1" height="41.4"/>
	
		<rect x="934.1" y="778.6" transform="matrix(-1 -4.480339e-11 4.480339e-11 -1 1885.3286 1598.6417)" class="st5" width="17.1" height="41.4"/>
	
		<rect x="911.1" y="778.6" transform="matrix(-1 -4.480339e-11 4.480339e-11 -1 1839.309 1598.6417)" class="st5" width="17.1" height="41.4"/>
	
		<rect x="820" y="443.7" transform="matrix(-1 -4.490953e-11 4.490953e-11 -1 1657.1899 924.9684)" class="st1" width="17.1" height="37.5"/>
	
		<rect x="820" y="438.5" transform="matrix(-1 -4.490953e-11 4.490953e-11 -1 1657.1899 918.3323)" class="st1" width="17.1" height="41.4"/>
	
		<rect x="820" y="487.6" transform="matrix(-1 -4.490953e-11 4.490953e-11 -1 1657.1899 1016.5213)" class="st1" width="17.1" height="41.4"/>
	
		<rect x="820" y="536.6" transform="matrix(-1 -4.480339e-11 4.480339e-11 -1 1657.1899 1114.7103)" class="st1" width="17.1" height="41.4"/>
	
		<rect x="820" y="585.7" transform="matrix(-1 -4.480339e-11 4.480339e-11 -1 1657.1899 1212.8993)" class="st1" width="17.1" height="41.4"/>
	
		<rect x="820" y="634.8" transform="matrix(-1 -4.480339e-11 4.480339e-11 -1 1657.1899 1311.0883)" class="st1" width="17.1" height="41.4"/>
	<path class="st2" d="M1334,961.6h79.9V382c-26.6,20.3-53.3,40.6-79.9,60.9C1334,615.8,1334,788.7,1334,961.6z"/>
	<path class="st3" d="M1493.8,960.4h-79.9V380.8c26.6,20.3,53.3,40.6,79.9,60.9C1493.8,614.6,1493.8,787.5,1493.8,960.4z"/>
	<g>
		
			<rect x="526.9" y="438" transform="matrix(-1 -4.489221e-11 4.489221e-11 -1 1165.8406 1416.0042)" class="st0" width="112" height="540.1"/>
		
			<rect x="613.5" y="447.2" transform="matrix(-1 -4.488067e-11 4.488067e-11 -1 1246.8285 932.2345)" class="st5" width="19.9" height="37.7"/>
		
			<rect x="586.7" y="447.2" transform="matrix(-1 -4.488067e-11 4.488067e-11 -1 1193.3765 932.2345)" class="st5" width="19.9" height="37.7"/>
		
			<rect x="613.5" y="492" transform="matrix(-1 -4.488067e-11 4.488067e-11 -1 1246.8285 1021.717)" class="st5" width="19.9" height="37.7"/>
		
			<rect x="586.7" y="492" transform="matrix(-1 -4.488067e-11 4.488067e-11 -1 1193.3765 1021.717)" class="st5" width="19.9" height="37.7"/>
		
			<rect x="613.5" y="536.7" transform="matrix(-1 -4.478963e-11 4.478963e-11 -1 1246.8285 1111.1997)" class="st5" width="19.9" height="37.7"/>
		
			<rect x="586.7" y="536.7" transform="matrix(-1 -4.497215e-11 4.497215e-11 -1 1193.3765 1111.1997)" class="st5" width="19.9" height="37.7"/>
		
			<rect x="612.2" y="626.2" transform="matrix(-1 -4.497215e-11 4.497215e-11 -1 1244.2832 1290.1648)" class="st5" width="19.9" height="37.7"/>
		
			<rect x="585.5" y="626.2" transform="matrix(-1 -4.497215e-11 4.497215e-11 -1 1190.8312 1290.1648)" class="st5" width="19.9" height="37.7"/>
		
			<rect x="612.2" y="671" transform="matrix(-1 -4.497215e-11 4.497215e-11 -1 1244.2832 1379.6475)" class="st5" width="19.9" height="37.7"/>
		
			<rect x="585.5" y="671" transform="matrix(-1 -4.497215e-11 4.497215e-11 -1 1190.8312 1379.6475)" class="st5" width="19.9" height="37.7"/>
		
			<rect x="612.2" y="581.5" transform="matrix(-1 -4.497215e-11 4.497215e-11 -1 1244.2832 1200.6823)" class="st5" width="19.9" height="37.7"/>
		
			<rect x="585.5" y="581.5" transform="matrix(-1 -4.497215e-11 4.497215e-11 -1 1190.8312 1200.6823)" class="st5" width="19.9" height="37.7"/>
		
			<rect x="612.2" y="626.2" transform="matrix(-1 -4.497215e-11 4.497215e-11 -1 1244.2832 1290.1648)" class="st5" width="19.9" height="37.7"/>
		
			<rect x="585.5" y="626.2" transform="matrix(-1 -4.497215e-11 4.497215e-11 -1 1190.8312 1290.1648)" class="st5" width="19.9" height="37.7"/>
		
			<rect x="612.2" y="714.1" transform="matrix(-1 -4.478963e-11 4.478963e-11 -1 1244.2832 1465.9342)" class="st5" width="19.9" height="37.7"/>
		
			<rect x="585.5" y="714.1" transform="matrix(-1 -4.478963e-11 4.478963e-11 -1 1190.8312 1465.9342)" class="st5" width="19.9" height="37.7"/>
		
			<rect x="612.2" y="758.8" transform="matrix(-1 -4.478963e-11 4.478963e-11 -1 1244.2832 1555.4167)" class="st5" width="19.9" height="37.7"/>
		
			<rect x="585.5" y="758.8" transform="matrix(-1 -4.478963e-11 4.478963e-11 -1 1190.8312 1555.4167)" class="st5" width="19.9" height="37.7"/>
		
			<rect x="612.2" y="803.6" transform="matrix(-1 -4.497215e-11 4.497215e-11 -1 1244.2832 1644.8993)" class="st5" width="19.9" height="37.7"/>
		
			<rect x="585.5" y="803.6" transform="matrix(-1 -4.497215e-11 4.497215e-11 -1 1190.8312 1644.8993)" class="st5" width="19.9" height="37.7"/>
		
			<rect x="610.9" y="893.1" transform="matrix(-1 -4.497215e-11 4.497215e-11 -1 1241.7378 1823.8645)" class="st5" width="19.9" height="37.7"/>
		
			<rect x="584.2" y="893.1" transform="matrix(-1 -4.478963e-11 4.478963e-11 -1 1188.2859 1823.8645)" class="st5" width="19.9" height="37.7"/>
		
			<rect x="610.9" y="848.3" transform="matrix(-1 -4.478963e-11 4.478963e-11 -1 1241.7378 1734.382)" class="st5" width="19.9" height="37.7"/>
		
			<rect x="584.2" y="848.3" transform="matrix(-1 -4.497215e-11 4.497215e-11 -1 1188.2859 1734.382)" class="st5" width="19.9" height="37.7"/>
		
			<rect x="610.9" y="893.1" transform="matrix(-1 -4.497215e-11 4.497215e-11 -1 1241.7378 1823.8645)" class="st5" width="19.9" height="37.7"/>
		
			<rect x="584.2" y="893.1" transform="matrix(-1 -4.478963e-11 4.478963e-11 -1 1188.2859 1823.8645)" class="st5" width="19.9" height="37.7"/>
		
			<rect x="460.7" y="554.6" transform="matrix(-1 -4.490953e-11 4.490953e-11 -1 1018.2112 1531.0532)" class="st6" width="96.7" height="421.8"/>
		
			<rect x="472" y="478" transform="matrix(-1 -4.018131e-11 4.018131e-11 -1 1029.8317 1145.7572)" class="st6" width="85.8" height="189.8"/>
		
			<rect x="351.3" y="477.9" transform="matrix(-1 -4.490775e-11 4.490775e-11 -1 829.8566 1455.9518)" class="st2" width="127.3" height="500.1"/>
		
			<rect x="442.9" y="565.8" transform="matrix(-1 -4.478385e-11 4.478385e-11 -1 912.58 1184.3082)" class="st3" width="26.7" height="52.7"/>
		<polyline class="st3" points="442.9,784.7 469.7,784.7 469.7,732 		"/>
	</g>
	<path class="st2" d="M1198.5,899.8h92.9V166.5c-31,6-61.9,12-92.9,18C1198.5,423,1198.5,661.4,1198.5,899.8z"/>
	<path class="st2" d="M1266.3,899.8h-85.7c0-209.3,0-418.6,0-627.9c28.6-4,57.1-8.1,85.7-12.1V899.8z"/>
	<path class="st3" d="M1291.3,899.8h42.9c0-239.4,0-478.8,0-718.2c-14.3-5-28.6-10-42.9-15V899.8z"/>
	<path class="st3" d="M1334.2,899.8h28.6c0-207.3,0-414.7,0-622c-9.5-4-19-8-28.6-12V899.8z"/>
	<path class="st2" d="M1198.5,204.6h92.9v-78.1c-31,5-61.9,10-92.9,15C1198.5,162.5,1198.5,183.6,1198.5,204.6z"/>
	<path class="st3" d="M1291.3,204.6h42.9c0-21,0-42.1,0-63.1c-14.3-5-28.6-10-42.9-15V204.6z"/>
	<path class="st2" d="M1223.5,141.5h67.9V99.4c-22.6,4-45.2,8-67.9,12C1223.5,121.5,1223.5,131.5,1223.5,141.5z"/>
	<path class="st3" d="M1291.3,141.5h28.6c0-6.2,0-12.5,0-18.7c-9.5-7.8-19-15.6-28.6-23.4V141.5z"/>
	<path class="st2" d="M1227.2,124.8"/>
	<path class="st2" d="M1280.4,36.3c-17.9,25-39.7,50.4-57.5,75.4l67.7-11.6C1289,77,1285.2,57.4,1280.4,36.3"/>
	<path class="st3" d="M1280.3,36.3c4.8,21,7,42.4,10.3,63.8l29.7,23.1C1306.1,94.2,1294.6,65.4,1280.3,36.3"/>
	<line class="st7" x1="803.5" y1="310.1" x2="806.7" y2="310.1"/>
	<line class="st8" x1="790.4" y1="488.3" x2="790.4" y2="434.9"/>
	<path class="st0" d="M1215.3,530.1v443.6c0,7.2,5.4,13.2,12.1,13.2h146c6.6,0,12.1-5.9,12.1-13.2V530.1c0-7.2-5.4-13.2-12.1-13.2
		h-8.1v-22c0-7.2-5.4-13.2-12.1-13.2h-8.1v-22c0-7.2-5.4-13.2-12.1-13.2h-64.4c-6.6,0-12.1,5.9-12.1,13.2v22h-10.1
		c-6.6,0-12.1,5.9-12.1,13.2v22h-7C1220.8,516.9,1215.3,522.8,1215.3,530.1z"/>
	<line class="st9" x1="572.3" y1="838.5" x2="572.3" y2="838.5"/>
	<path class="st3" d="M408.8,847.9c0-98.4,82.4-178.1,184-178.1s184,79.7,184,178.1"/>
	
		<rect x="559.2" y="646" transform="matrix(-1 -4.485224e-11 4.485224e-11 -1 1186.4902 1328.1373)" class="st3" width="68.1" height="36.1"/>
	<path class="st10" d="M742.8,851.9c0-79.9-65.7-144.7-146.8-144.7S449.1,772,449.1,851.9H742.8z"/>
	<rect x="409.2" y="845.2" class="st3" width="364.2" height="144.4"/>
	<polygon class="st11" points="470.2,910.7 481.5,910.7 481.5,910.7 470.2,910.7 	"/>
	<path class="st3" d="M814.8,966.8h-53.4c-6.1,0-11.1-5-11.1-11.1V549.8h75.6v405.9C825.9,961.8,820.9,966.8,814.8,966.8z"/>
	<path class="st3" d="M748.8,522.1c0-23.3,17.8-42.1,39.7-42.1s39.7,18.9,39.7,42.1"/>
	<path class="st3" d="M827.5,565.8h-78.7c-4,0-7.3-3.3-7.3-7.3v-34.9c0-4,3.3-7.3,7.3-7.3h78.7c4,0,7.3,3.3,7.3,7.3v34.9
		C834.8,562.6,831.5,565.8,827.5,565.8z"/>
	<ellipse class="st12" cx="787.5" cy="533.1" rx="15.8" ry="16.7"/>
	<path class="st13" d="M504.2,850.5"/>
	<path class="st14" d="M797.8,850.5"/>
	<g>
		<path class="st15" d="M312.8,1027.7H1585v-58c0-9.2-7.5-16.6-16.6-16.6H333.2c-11.3,0-20.4,9.1-20.4,20.4V1027.7z"/>
	</g>
	<rect x="1346.3" y="586.2" class="st16" width="13.6" height="22.4"/>
	<rect x="1363.6" y="531" class="st16" width="13.6" height="22.4"/>
	<rect x="1309.1" y="613.9" class="st16" width="13.6" height="22.4"/>
	<rect x="1326.5" y="614.7" class="st16" width="13.6" height="22.4"/>
	<rect x="1346.3" y="613.9" class="st16" width="13.6" height="22.4"/>
	<rect x="1363.6" y="613.9" class="st16" width="13.6" height="22.4"/>
	<rect x="1309.1" y="586.2" class="st16" width="13.6" height="22.4"/>
	<rect x="1326.5" y="586.2" class="st16" width="13.6" height="22.4"/>
	<rect x="1363.6" y="586.2" class="st16" width="13.6" height="22.4"/>
	<rect x="1309.1" y="559.5" class="st16" width="13.6" height="22.4"/>
	<rect x="1326.5" y="559.5" class="st16" width="13.6" height="22.4"/>
	<rect x="1346.3" y="559.5" class="st16" width="13.6" height="22.4"/>
	<rect x="1363.6" y="558.6" class="st16" width="13.6" height="22.4"/>
	<rect x="1309.1" y="531" class="st16" width="13.6" height="22.4"/>
	<rect x="1326.5" y="531" class="st16" width="13.6" height="22.4"/>
	<rect x="1346.3" y="531" class="st16" width="13.6" height="22.4"/>
	<rect x="1258.2" y="586.2" class="st16" width="13.6" height="22.4"/>
	<rect x="1277.1" y="531" class="st16" width="13.6" height="22.4"/>
	<rect x="1222.6" y="613.9" class="st16" width="13.6" height="22.4"/>
	<rect x="1240" y="614.7" class="st16" width="13.6" height="22.4"/>
	<rect x="1258.2" y="613.9" class="st16" width="13.6" height="22.4"/>
	<rect x="1277.1" y="613.9" class="st16" width="13.6" height="22.4"/>
	<rect x="1222.6" y="586.2" class="st16" width="13.6" height="22.4"/>
	<rect x="1240" y="586.2" class="st16" width="13.6" height="22.4"/>
	<rect x="1277.1" y="586.2" class="st16" width="13.6" height="22.4"/>
	<rect x="1222.6" y="559.5" class="st16" width="13.6" height="22.4"/>
	<rect x="1240" y="559.5" class="st16" width="13.6" height="22.4"/>
	<rect x="1258.2" y="559.5" class="st16" width="13.6" height="22.4"/>
	<rect x="1277.1" y="558.6" class="st16" width="13.6" height="22.4"/>
	<rect x="1222.6" y="531" class="st16" width="13.6" height="22.4"/>
	<rect x="1240" y="531" class="st16" width="13.6" height="22.4"/>
	<rect x="1258.2" y="531" class="st16" width="13.6" height="22.4"/>
	<rect x="1346.3" y="695.1" class="st16" width="13.6" height="22.4"/>
	<rect x="1363.6" y="639.9" class="st16" width="13.6" height="22.4"/>
	<rect x="1309.1" y="722.7" class="st16" width="13.6" height="22.4"/>
	<rect x="1326.5" y="723.6" class="st16" width="13.6" height="22.4"/>
	<rect x="1346.3" y="722.7" class="st16" width="13.6" height="22.4"/>
	<rect x="1363.6" y="722.7" class="st16" width="13.6" height="22.4"/>
	<rect x="1309.1" y="695.1" class="st16" width="13.6" height="22.4"/>
	<rect x="1326.5" y="695.1" class="st16" width="13.6" height="22.4"/>
	<rect x="1363.6" y="695.1" class="st16" width="13.6" height="22.4"/>
	<rect x="1309.1" y="668.4" class="st16" width="13.6" height="22.4"/>
	<rect x="1326.5" y="668.4" class="st16" width="13.6" height="22.4"/>
	<rect x="1346.3" y="668.4" class="st16" width="13.6" height="22.4"/>
	<rect x="1363.6" y="667.5" class="st16" width="13.6" height="22.4"/>
	<rect x="1309.1" y="639.9" class="st16" width="13.6" height="22.4"/>
	<rect x="1326.5" y="639.9" class="st16" width="13.6" height="22.4"/>
	<rect x="1346.3" y="639.9" class="st16" width="13.6" height="22.4"/>
	<rect x="1258.2" y="695.1" class="st16" width="13.6" height="22.4"/>
	<rect x="1277.1" y="639.9" class="st16" width="13.6" height="22.4"/>
	<rect x="1222.6" y="722.7" class="st16" width="13.6" height="22.4"/>
	<rect x="1240" y="723.6" class="st16" width="13.6" height="22.4"/>
	<rect x="1258.2" y="722.7" class="st16" width="13.6" height="22.4"/>
	<rect x="1277.1" y="722.7" class="st16" width="13.6" height="22.4"/>
	<rect x="1222.6" y="695.1" class="st16" width="13.6" height="22.4"/>
	<rect x="1240" y="695.1" class="st16" width="13.6" height="22.4"/>
	<rect x="1277.1" y="695.1" class="st16" width="13.6" height="22.4"/>
	<rect x="1222.6" y="668.4" class="st16" width="13.6" height="22.4"/>
	<rect x="1240" y="668.4" class="st16" width="13.6" height="22.4"/>
	<rect x="1258.2" y="668.4" class="st16" width="13.6" height="22.4"/>
	<rect x="1277.1" y="667.5" class="st16" width="13.6" height="22.4"/>
	<rect x="1222.6" y="639.9" class="st16" width="13.6" height="22.4"/>
	<rect x="1240" y="639.9" class="st16" width="13.6" height="22.4"/>
	<rect x="1258.2" y="639.9" class="st16" width="13.6" height="22.4"/>
	<rect x="1346.4" y="802.4" class="st16" width="13.6" height="22.4"/>
	<rect x="1363.6" y="748.8" class="st16" width="13.6" height="22.4"/>
	<rect x="1309.2" y="830" class="st16" width="13.6" height="22.4"/>
	<rect x="1326.6" y="830.8" class="st16" width="13.6" height="22.4"/>
	<rect x="1346.4" y="830" class="st16" width="13.6" height="22.4"/>
	<rect x="1363.7" y="830" class="st16" width="13.6" height="22.4"/>
	<rect x="1309.2" y="802.4" class="st16" width="13.6" height="22.4"/>
	<rect x="1326.6" y="802.4" class="st16" width="13.6" height="22.4"/>
	<rect x="1363.7" y="802.4" class="st16" width="13.6" height="22.4"/>
	<rect x="1309.1" y="777.3" class="st16" width="13.6" height="22.4"/>
	<rect x="1326.5" y="777.3" class="st16" width="13.6" height="22.4"/>
	<rect x="1346.3" y="777.3" class="st16" width="13.6" height="22.4"/>
	<rect x="1363.6" y="776.4" class="st16" width="13.6" height="22.4"/>
	<rect x="1309.1" y="748.8" class="st16" width="13.6" height="22.4"/>
	<rect x="1326.5" y="748.8" class="st16" width="13.6" height="22.4"/>
	<rect x="1346.3" y="748.8" class="st16" width="13.6" height="22.4"/>
	<rect x="1258.3" y="800.7" class="st16" width="13.6" height="22.4"/>
	<rect x="1277.1" y="748.8" class="st16" width="13.6" height="22.4"/>
	<rect x="1222.7" y="828.3" class="st16" width="13.6" height="22.4"/>
	<rect x="1240.1" y="829.2" class="st16" width="13.6" height="22.4"/>
	<rect x="1258.3" y="828.3" class="st16" width="13.6" height="22.4"/>
	<rect x="1277.2" y="828.3" class="st16" width="13.6" height="22.4"/>
	<rect x="1222.7" y="800.7" class="st16" width="13.6" height="22.4"/>
	<rect x="1240.1" y="800.7" class="st16" width="13.6" height="22.4"/>
	<rect x="1277.2" y="800.7" class="st16" width="13.6" height="22.4"/>
	<rect x="1222.6" y="775.6" class="st16" width="13.6" height="22.4"/>
	<rect x="1240" y="775.6" class="st16" width="13.6" height="22.4"/>
	<rect x="1258.2" y="775.6" class="st16" width="13.6" height="22.4"/>
	<rect x="1277.1" y="776.4" class="st16" width="13.6" height="22.4"/>
	<rect x="1222.6" y="748.8" class="st16" width="13.6" height="22.4"/>
	<rect x="1240" y="748.8" class="st16" width="13.6" height="22.4"/>
	<rect x="1258.2" y="748.8" class="st16" width="13.6" height="22.4"/>
	<rect x="1258.3" y="909.6" class="st12" width="13.6" height="22.4"/>
	<rect x="1277.2" y="854.4" class="st16" width="13.6" height="22.4"/>
	<rect x="1222.7" y="909.6" class="st12" width="13.6" height="22.4"/>
	<rect x="1240.1" y="909.6" class="st12" width="13.6" height="22.4"/>
	<rect x="1277.2" y="909.6" class="st12" width="13.6" height="22.4"/>
	<rect x="1222.7" y="882.8" class="st16" width="13.6" height="22.4"/>
	<rect x="1240.1" y="882.8" class="st16" width="13.6" height="22.4"/>
	<rect x="1258.3" y="882.8" class="st16" width="13.6" height="22.4"/>
	<rect x="1277.2" y="882" class="st16" width="13.6" height="22.4"/>
	<rect x="1222.7" y="854.4" class="st16" width="13.6" height="22.4"/>
	<rect x="1240.1" y="854.4" class="st16" width="13.6" height="22.4"/>
	<rect x="1258.3" y="854.4" class="st16" width="13.6" height="22.4"/>
	<rect x="1346.4" y="907.9" class="st12" width="13.6" height="22.4"/>
	<rect x="1363.7" y="856" class="st16" width="13.6" height="22.4"/>
	<rect x="1309.2" y="907.9" class="st12" width="13.6" height="22.4"/>
	<rect x="1326.6" y="907.9" class="st12" width="13.6" height="22.4"/>
	<rect x="1363.7" y="907.9" class="st12" width="13.6" height="22.4"/>
	<rect x="1309.2" y="881.2" class="st16" width="13.6" height="22.4"/>
	<rect x="1326.6" y="881.2" class="st16" width="13.6" height="22.4"/>
	<rect x="1346.4" y="881.2" class="st16" width="13.6" height="22.4"/>
	<rect x="1363.7" y="882" class="st16" width="13.6" height="22.4"/>
	<rect x="1309.2" y="856" class="st16" width="13.6" height="22.4"/>
	<rect x="1326.6" y="856" class="st16" width="13.6" height="22.4"/>
	<rect x="1346.4" y="856" class="st16" width="13.6" height="22.4"/>
	
		<rect x="897.8" y="572.2" transform="matrix(-1 -4.488821e-11 4.488821e-11 -1 2079.1353 1531.0532)" class="st2" width="283.6" height="386.7"/>
	
		<rect x="917.4" y="532.2" transform="matrix(-1 -4.488733e-11 4.488733e-11 -1 2073.6316 1104.413)" class="st2" width="238.9" height="39.9"/>
	
		<rect x="943.8" y="498.7" transform="matrix(-1 -4.489576e-11 4.489576e-11 -1 2056.8857 1030.9094)" class="st2" width="169.2" height="33.6"/>
	<path class="st3" d="M1113,532.2h43.2c0-6.4,0-12.8,0-19.2c-14.4-4.8-28.8-9.6-43.2-14.4V532.2z"/>
	
		<rect x="972" y="471.5" transform="matrix(-1 -4.490287e-11 4.490287e-11 -1 2045.606 970.1891)" class="st2" width="101.5" height="27.2"/>
	<path class="st3" d="M1073.7,498.4h33.8c0-5,0-10,0-15c-11.3-3.8-22.6-7.5-33.8-11.3V498.4z"/>
	<path class="st3" d="M1179.7,958.9h55.2c0-123.6,0-247.1,0-370.7c-18.4-5.3-36.8-10.7-55.2-16V958.9z"/>
	
		<rect x="1136.4" y="591.1" transform="matrix(-1 -4.496682e-11 4.496682e-11 -1 2292.9573 1219.8571)" class="st1" width="20.1" height="37.7"/>
	
		<rect x="1109.5" y="591.1" transform="matrix(-1 -4.496682e-11 4.496682e-11 -1 2239.0645 1219.8571)" class="st1" width="20.1" height="37.7"/>
	
		<rect x="1082.6" y="591.1" transform="matrix(-1 -4.496682e-11 4.496682e-11 -1 2185.1714 1219.8571)" class="st1" width="20.1" height="37.7"/>
	
		<rect x="1055.6" y="591.1" transform="matrix(-1 -4.478563e-11 4.478563e-11 -1 2131.2786 1219.8571)" class="st1" width="20.1" height="37.7"/>
	
		<rect x="1082.6" y="635.8" transform="matrix(-1 -4.496682e-11 4.496682e-11 -1 2185.1714 1309.3396)" class="st1" width="20.1" height="37.7"/>
	
		<rect x="1055.6" y="635.8" transform="matrix(-1 -4.478563e-11 4.478563e-11 -1 2131.2786 1309.3396)" class="st1" width="20.1" height="37.7"/>
	
		<rect x="1082.6" y="680.5" transform="matrix(-1 -4.478563e-11 4.478563e-11 -1 2185.1714 1398.8223)" class="st1" width="20.1" height="37.7"/>
	
		<rect x="1055.6" y="680.5" transform="matrix(-1 -4.496682e-11 4.496682e-11 -1 2131.2786 1398.8223)" class="st1" width="20.1" height="37.7"/>
	
		<rect x="1082.6" y="725.3" transform="matrix(-1 -4.496682e-11 4.496682e-11 -1 2185.1714 1488.3048)" class="st1" width="20.1" height="37.7"/>
	
		<rect x="1055.6" y="725.3" transform="matrix(-1 -4.478563e-11 4.478563e-11 -1 2131.2786 1488.3048)" class="st1" width="20.1" height="37.7"/>
	
		<rect x="1136.4" y="635.8" transform="matrix(-1 -4.496682e-11 4.496682e-11 -1 2292.9573 1309.3396)" class="st1" width="20.1" height="37.7"/>
	
		<rect x="1109.5" y="635.8" transform="matrix(-1 -4.496682e-11 4.496682e-11 -1 2239.0645 1309.3396)" class="st1" width="20.1" height="37.7"/>
	
		<rect x="1136.4" y="680.5" transform="matrix(-1 -4.496682e-11 4.496682e-11 -1 2292.9573 1398.8223)" class="st1" width="20.1" height="37.7"/>
	
		<rect x="1109.5" y="680.5" transform="matrix(-1 -4.496682e-11 4.496682e-11 -1 2239.0645 1398.8223)" class="st1" width="20.1" height="37.7"/>
	
		<rect x="1082.6" y="770" transform="matrix(-1 -4.496682e-11 4.496682e-11 -1 2185.1714 1577.7874)" class="st1" width="20.1" height="37.7"/>
	
		<rect x="1055.6" y="770" transform="matrix(-1 -4.478563e-11 4.478563e-11 -1 2131.2786 1577.7874)" class="st1" width="20.1" height="37.7"/>
	
		<rect x="1082.7" y="814.8" transform="matrix(-1 -4.496682e-11 4.496682e-11 -1 2185.3706 1667.27)" class="st1" width="20.1" height="37.7"/>
	
		<rect x="1055.7" y="814.8" transform="matrix(-1 -4.478563e-11 4.478563e-11 -1 2131.4775 1667.27)" class="st1" width="20.1" height="37.7"/>
	
		<rect x="1135.2" y="770" transform="matrix(-1 -4.478563e-11 4.478563e-11 -1 2290.3909 1577.7874)" class="st1" width="20.1" height="37.7"/>
	
		<rect x="1108.2" y="770" transform="matrix(-1 -4.496682e-11 4.496682e-11 -1 2236.498 1577.7874)" class="st1" width="20.1" height="37.7"/>
	
		<rect x="1135.3" y="814.8" transform="matrix(-1 -4.496682e-11 4.496682e-11 -1 2290.5901 1667.27)" class="st1" width="20.1" height="37.7"/>
	
		<rect x="1108.3" y="814.8" transform="matrix(-1 -4.478563e-11 4.478563e-11 -1 2236.697 1667.27)" class="st1" width="20.1" height="37.7"/>
	
		<rect x="1135.2" y="725.3" transform="matrix(-1 -4.478563e-11 4.478563e-11 -1 2290.3909 1488.3048)" class="st1" width="20.1" height="37.7"/>
	
		<rect x="1108.2" y="725.3" transform="matrix(-1 -4.496682e-11 4.496682e-11 -1 2236.498 1488.3048)" class="st1" width="20.1" height="37.7"/>
	
		<rect x="1135.2" y="770" transform="matrix(-1 -4.478563e-11 4.478563e-11 -1 2290.3909 1577.7874)" class="st1" width="20.1" height="37.7"/>
	
		<rect x="1108.2" y="770" transform="matrix(-1 -4.496682e-11 4.496682e-11 -1 2236.498 1577.7874)" class="st1" width="20.1" height="37.7"/>
	
		<rect x="992.7" y="587.9" transform="matrix(-1 -4.496682e-11 4.496682e-11 -1 2005.5283 1213.4655)" class="st1" width="20.1" height="37.7"/>
	
		<rect x="965.8" y="587.9" transform="matrix(-1 -4.478563e-11 4.478563e-11 -1 1951.6354 1213.4655)" class="st1" width="20.1" height="37.7"/>
	
		<rect x="938.8" y="587.9" transform="matrix(-1 -4.496682e-11 4.496682e-11 -1 1897.7426 1213.4655)" class="st1" width="20.1" height="37.7"/>
	
		<rect x="911.9" y="587.9" transform="matrix(-1 -4.478563e-11 4.478563e-11 -1 1843.8496 1213.4655)" class="st1" width="20.1" height="37.7"/>
	
		<rect x="938.8" y="632.6" transform="matrix(-1 -4.496682e-11 4.496682e-11 -1 1897.7426 1302.948)" class="st1" width="20.1" height="37.7"/>
	
		<rect x="911.9" y="632.6" transform="matrix(-1 -4.478563e-11 4.478563e-11 -1 1843.8496 1302.948)" class="st1" width="20.1" height="37.7"/>
	
		<rect x="938.8" y="677.3" transform="matrix(-1 -4.478563e-11 4.478563e-11 -1 1897.7426 1392.4307)" class="st1" width="20.1" height="37.7"/>
	
		<rect x="911.9" y="677.3" transform="matrix(-1 -4.496682e-11 4.496682e-11 -1 1843.8496 1392.4307)" class="st1" width="20.1" height="37.7"/>
	
		<rect x="938.8" y="722.1" transform="matrix(-1 -4.478563e-11 4.478563e-11 -1 1897.7426 1481.9132)" class="st1" width="20.1" height="37.7"/>
	
		<rect x="911.9" y="722.1" transform="matrix(-1 -4.496682e-11 4.496682e-11 -1 1843.8496 1481.9132)" class="st1" width="20.1" height="37.7"/>
	
		<rect x="992.7" y="632.6" transform="matrix(-1 -4.496682e-11 4.496682e-11 -1 2005.5283 1302.948)" class="st1" width="20.1" height="37.7"/>
	
		<rect x="965.8" y="632.6" transform="matrix(-1 -4.478563e-11 4.478563e-11 -1 1951.6354 1302.948)" class="st1" width="20.1" height="37.7"/>
	
		<rect x="992.7" y="677.3" transform="matrix(-1 -4.478563e-11 4.478563e-11 -1 2005.5283 1392.4307)" class="st1" width="20.1" height="37.7"/>
	
		<rect x="965.8" y="677.3" transform="matrix(-1 -4.496682e-11 4.496682e-11 -1 1951.6354 1392.4307)" class="st1" width="20.1" height="37.7"/>
	
		<rect x="938.8" y="766.8" transform="matrix(-1 -4.478563e-11 4.478563e-11 -1 1897.7426 1571.3958)" class="st1" width="20.1" height="37.7"/>
	
		<rect x="911.9" y="766.8" transform="matrix(-1 -4.496682e-11 4.496682e-11 -1 1843.8496 1571.3958)" class="st1" width="20.1" height="37.7"/>
	
		<rect x="938.9" y="811.6" transform="matrix(-1 -4.496682e-11 4.496682e-11 -1 1897.9417 1660.8784)" class="st1" width="20.1" height="37.7"/>
	
		<rect x="912" y="811.6" transform="matrix(-1 -4.496682e-11 4.496682e-11 -1 1844.0487 1660.8784)" class="st1" width="20.1" height="37.7"/>
	
		<rect x="991.4" y="766.8" transform="matrix(-1 -4.496682e-11 4.496682e-11 -1 2002.962 1571.3958)" class="st1" width="20.1" height="37.7"/>
	
		<rect x="964.5" y="766.8" transform="matrix(-1 -4.496682e-11 4.496682e-11 -1 1949.0691 1571.3958)" class="st1" width="20.1" height="37.7"/>
	
		<rect x="991.5" y="811.6" transform="matrix(-1 -4.478563e-11 4.478563e-11 -1 2003.1611 1660.8784)" class="st1" width="20.1" height="37.7"/>
	
		<rect x="964.6" y="811.6" transform="matrix(-1 -4.496682e-11 4.496682e-11 -1 1949.2682 1660.8784)" class="st1" width="20.1" height="37.7"/>
	
		<rect x="991.4" y="722.1" transform="matrix(-1 -4.496682e-11 4.496682e-11 -1 2002.962 1481.9132)" class="st1" width="20.1" height="37.7"/>
	
		<rect x="964.5" y="722.1" transform="matrix(-1 -4.496682e-11 4.496682e-11 -1 1949.0691 1481.9132)" class="st1" width="20.1" height="37.7"/>
	
		<rect x="991.4" y="766.8" transform="matrix(-1 -4.496682e-11 4.496682e-11 -1 2002.962 1571.3958)" class="st1" width="20.1" height="37.7"/>
	
		<rect x="964.5" y="766.8" transform="matrix(-1 -4.496682e-11 4.496682e-11 -1 1949.0691 1571.3958)" class="st1" width="20.1" height="37.7"/>
	<path class="st0" d="M741.9,33.1l7.7,26.1v19.6l7.7,13v48.9c3.8,2.2,7.7,4.3,11.5,6.5c0,9.8,0,19.6,0,29.3h-26.8V33.1"/>
	<path class="st3" d="M1201.5,579.2l-19.8-6.6l-25.4-0.4v-39.9c15,4.8,30.1,9.6,45.1,14.4c0,8.5,0.1,30.9,0.1,30.9"/>
	<path class="st17" d="M312.8,1026.7h1271.9v13.1c0,4.7-3.8,8.5-8.5,8.5H321.3c-4.7,0-8.5-3.8-8.5-8.5V1026.7z"/>
	<path class="st13" d="M1479-558h0.7c-0.4,2.6-0.7,5.3-0.7,8V-558z"/>
	<path class="st18" d="M1607-558v8c0-2.7-0.2-5.4-0.7-8H1607z"/>
	<path class="st18" d="M1645-558h0.7c-0.4,2.6-0.7,5.3-0.7,8V-558z"/>
	<path class="st18" d="M1773-558v8c0-2.7-0.2-5.4-0.7-8H1773z"/>
	<path class="st18" d="M1813.7-527.5c-0.3,1.6-0.6,3.3-0.6,5c0,0.4,0,0.8,0,1.1v-6.1H1813.7z"/>
	<path class="st18" d="M1941-527.5v6.1c0-2.1-0.2-4.1-0.7-6.1H1941z"/>
	<path class="st18" d="M1773-550c0-2.7-0.2-5.4-0.7-8h0.7V-550z"/>
	
		<rect x="442.9" y="635.8" transform="matrix(-1 -4.478385e-11 4.478385e-11 -1 912.58 1324.3082)" class="st3" width="26.7" height="52.7"/>
	
		<rect x="442.9" y="703.8" transform="matrix(-1 -4.478385e-11 4.478385e-11 -1 912.58 1460.3082)" class="st3" width="26.7" height="52.7"/>
	
		<rect x="442.9" y="495.8" transform="matrix(-1 -4.478385e-11 4.478385e-11 -1 912.58 1044.3082)" class="st3" width="26.7" height="52.7"/>
	
		<rect x="395.9" y="565.8" transform="matrix(-1 -4.478385e-11 4.478385e-11 -1 818.58 1184.3082)" class="st3" width="26.7" height="52.7"/>
	
		<rect x="395.9" y="635.8" transform="matrix(-1 -4.478385e-11 4.478385e-11 -1 818.58 1324.3082)" class="st3" width="26.7" height="52.7"/>
	
		<rect x="395.9" y="701.8" transform="matrix(-1 -4.478385e-11 4.478385e-11 -1 818.58 1456.3082)" class="st3" width="26.7" height="52.7"/>
	
		<rect x="395.9" y="767.8" transform="matrix(-1 -4.478385e-11 4.478385e-11 -1 818.58 1588.3082)" class="st3" width="26.7" height="52.7"/>
	
		<rect x="395.9" y="833.8" transform="matrix(-1 -4.478385e-11 4.478385e-11 -1 818.58 1720.3082)" class="st3" width="26.7" height="52.7"/>
</g>
<g id="bridge">
</g>
</svg>
