<?xml version="1.0" encoding="utf-8"?>
<!-- Generator: Adobe Illustrator 23.0.3, SVG Export Plug-In . SVG Version: 6.00 Build 0)  -->
<svg version="1.1" xmlns="http://www.w3.org/2000/svg" xmlns:xlink="http://www.w3.org/1999/xlink" x="0px" y="0px"
	 viewBox="0 0 1920 1080" style="enable-background:new 0 0 1920 1080;" xml:space="preserve">
<style type="text/css">
	.st0{fill:#2E3192;}
	.st1{fill:#F14929;}
	.st2{fill:#F2F2F2;}
	.st3{fill:#BDCCD4;}
	.st4{fill:#88B535;}
	.st5{fill:#006837;}
	.st6{fill:#009245;}
	.st7{fill:#FF931E;}
	.st8{fill:#E6E6E6;}
	.st9{fill:#612736;}
	.st10{fill:#0B8500;}
	.st11{fill:#666666;}
	.st12{fill:none;stroke:#333333;stroke-miterlimit:10;}
</style>
<g id="Layer_1">
	<g id="Layer_6">
		<g>
			<rect x="1717.1" y="731.5" class="st0" width="33.4" height="59.7"/>
		</g>
	</g>
	<g id="XMLID_5_">
		<g>
			<path class="st1" d="M1720.4,736.6v59.7h32.1v-59.7H1720.4z M1780.7,770.7v132.5c-1.1,0.8-2.2,1.2-3.4,1.2h-150.8v-203h132.7
				C1768.3,721.8,1775.7,745,1780.7,770.7z M1682.5,796.2v-59.7h-32.1v59.7H1682.5z"/>
			<rect x="1720.4" y="736.6" class="st0" width="32.1" height="59.7"/>
			<rect x="1650.4" y="736.6" class="st0" width="32.1" height="59.7"/>
			<path class="st2" d="M1217.9,836.9c3.2-3,4.3-5.9,4.4-8.4c0-0.4,0-0.7,0-1c-0.2-3.5-2.2-5.9-2.2-5.9l-14.4,0.3h0h-0.2l-43.8,0.8
				l-18.2,0.3l-22-83.1c-5-6.2-7.3,0.1-7.3,0.1h-1.7v-48c12.4-22.7,30.8-42.6,52.5-57.7c10.1-7.1,20.8-13,31.8-17.8
				c3.4-1.5,6.8-2.8,10.2-4c0.1,0,0.2-0.1,0.2-0.1v27.9h154.1v198.6h-144.3c0.5-1.1,0.9-1.8,0.9-1.8h-0.2
				C1217.9,837,1217.9,836.9,1217.9,836.9z M1194.2,721.7c0.4,0.1,0.8,0.2,1.2,0.2v-0.3C1195,721.7,1194.6,721.7,1194.2,721.7
				c-0.1,0-0.3-0.1-0.4-0.1C1194,721.6,1194.1,721.6,1194.2,721.7z"/>
			<path class="st3" d="M1122.2,892.5c6.8-4.5,10.1-9.9,10.1-9.9c3.1-4,2.1-16,0.5-26.7c0-0.1,0-0.1,0-0.2c-0.1-0.7-0.2-1.3-0.3-2
				c0-0.1,0-0.1,0-0.1c-0.1-0.7-0.2-1.3-0.3-2c-0.3-1.9-0.7-3.7-1-5.4c-0.1-0.3-0.1-0.6-0.2-0.9c-0.1-0.3-0.1-0.5-0.2-0.8
				c0-0.2-0.1-0.3-0.1-0.5c-0.2-0.9-0.4-1.8-0.5-2.6c0-0.2-0.1-0.4-0.1-0.6c-0.2-0.8-0.3-1.5-0.5-2h0.1c1.6,7.1,8,37.2,2.8,44
				C1132.4,882.7,1129,888.1,1122.2,892.5z"/>
			<path class="st3" d="M1217.9,836.9l-88.7,0.3l-0.2-13.9l4.9-0.1l-19.6-83.2c0,0,2.3-6.3,7.3-0.1l22,83.1l18.2-0.3l43.8-0.8h0.2h0
				l14.4-0.1c0,0,1.9,2.3,2.2,5.7c0,0.3,0,0.7,0,1C1222.2,831,1221.1,834,1217.9,836.9z"/>
			<path class="st1" d="M519.1,743.8h0.4v1.6c-0.1,0.1-0.2,0.2-0.4,0.4V743.8z"/>
			<path class="st3" d="M1103.4,898.4c1.3,0,2.6-0.1,3.7-0.3c1.1-0.1,2.1-0.3,3.1-0.5c0.2-0.1,0.4-0.1,0.5-0.1
				c0.8-0.2,1.6-0.4,2.3-0.6c2.1-0.6,4-1.4,5.7-2.3c0.4-0.2,0.8-0.4,1.2-0.6c0.9-0.5,1.6-0.9,2.3-1.4c6.8-4.5,10.2-9.8,10.2-9.7
				c5.2-6.8-1.2-36.9-2.8-44h87.3c-1.7,3.3-4.9,9.9-4.9,10.9c0,1.3-24.1,19.3-24.1,19.3l0.4,26.5c-2.3,7.6-7.2,7.7-7.2,7.7
				s-26.3,0-48.3,0.3h-29.4L1103.4,898.4z"/>
			<path class="st4" d="M845.9,790.7c4.2-7,8.4-12.7,12.9-18v1.1c-4.3,5.1-8.3,10.6-11.7,16.4C846.8,790.6,846.3,790.8,845.9,790.7z
				"/>
			<path class="st5" d="M266.7,580.4v5.6c0-1.9,0.1-3.7,0.4-5.6H266.7z M266.5,580.2c2.7-20.4,19.6-36,39.9-36
				c7.4,0,14.5,2.1,20.4,5.8c-0.1-1.9-0.2-3.8-0.2-5.8c0-34.6,27-62.8,60.4-62.8c9,0,17.5,2,25,5.7c15.3,7.3,27.2,21.1,32.4,37.9
				c0.2-0.1,0.3-0.1,0.5-0.1c0,0.1,0.1,0.3,0.1,0.4c4.1-1.1,8.4-1.8,12.9-1.8c6.5,0,12.6,1.3,18.3,3.6c0.2,0.1,0.5,0.2,0.7,0.3
				c18.1,7.9,30.7,26.5,30.7,48.2c0,1.5-0.1,3.2-0.2,4.7c-0.1,1.4-0.2,2.9-0.6,4.3h0.7c0,0.1,0,0.2,0,0.3h70.9h165.9v-0.2
				c1.9,0.9,4,1.5,6.2,1.5h113c4.6,0,8.8-2.3,11.5-5.8h23.8v3c0,0.1,0,0.2,0,0.3c0,0.2,0,0.3,0,0.5c0,1.8,0.4,3.3,0.9,4.9
				c-18.3,20.2-35.6,39.6-38.2,44.4c-0.4,0.7-0.5,1.1-0.1,1.1h-2.4v108v30.3c-4.8,5.5-9.2,11.5-12.9,18c-0.3-0.1-0.6-0.3-0.7-0.6
				l-22.3-47.6L812.2,720c-0.2-0.4-0.5-0.6-0.9-0.6l-0.8-1.7l-18.2,38.8c-0.3,0-0.5-0.2-0.7-0.4l-18.1-24.9c-0.5-0.7,0-1.7,0.9-1.7
				h11.5c0.3,0,0.5-0.1,0.7-0.3h0.4h0.1l-0.2-0.4c0.1-0.3,0.2-0.6,0-1l-49.5-95.6c-0.2-0.3-0.5-0.5-0.8-0.6h0l-0.8-1.5l-51.9,98.6
				l1.7,0c0.2,0.2,0.4,0.2,0.7,0.2h11.5c0.4,0,0.8,0.2,0.9,0.5l-12.6,17.2c-0.3-0.1-0.6-0.3-0.8-0.6l-22.2-52.7
				c-0.1-0.3-0.4-0.5-0.6-0.6l-0.9-2l-31.8,75.6l-6.1,14.3h0l0,0.1h1.6c0.1,0.1,0.3,0.1,0.5,0.1h9l-0.1,0.1l-18.1,30.7
				c-0.3,0-0.5-0.1-0.7-0.3c-2.4-2.5-5-4.9-7.7-7.2c0.8-1.8,1.2-3.8,1.2-5.9v-24c0-4.6-1.9-8.7-5.1-11.5c-2.6-2.3-5.8-3.7-9.5-3.7
				h-6.1v-2.5c0-8.3-6.6-15.2-14.6-15.2h-45c-3.7,0-7,1.4-9.6,3.8v-4.9c0-0.2,0-0.3-0.1-0.5l-56-112l-7-14l-0.1,0.2l-0.1-0.2
				l-0.1,0.1l-0.2-0.4l-0.6,1.3H350.6c0,0-20.5,29-41.3,59.1c-0.2,0-0.3-0.1-0.5-0.1c-0.1-0.1-0.3-0.2-0.4-0.2
				c-0.1-0.1-0.2-0.1-0.4-0.2c-2-1.1-4.3-1.7-6.6-1.7h-34.8v-65.5h4.9c-3-5.9-4.9-12.8-4.9-20v6.4c-0.3-2.2-0.5-4.4-0.5-6.6
				C266.2,584,266.3,582.1,266.5,580.2z"/>
			<path class="st5" d="M791.6,756.1c0.2,0.3,0.4,0.4,0.7,0.4l-0.4,0.8l-0.7-0.9l-19.6-27.1h15c-0.2,0.2-0.4,0.3-0.7,0.3h-11.5
				c-0.9,0-1.4,1-0.9,1.7L791.6,756.1z"/>
			<path class="st5" d="M899.5,583.6c0,1.7,0.3,3.3,0.7,4.8c-0.2,0.2-0.3,0.4-0.5,0.5c0,0-0.1,0.1-0.1,0.1c0-0.1,0-0.1-0.1-0.2
				c0,0,0,0,0.1-0.1c-0.5-1.5-0.9-3.1-1-4.8c0-0.2,0-0.3,0-0.5c0-0.1,0-0.2,0-0.3v-3v-25.8c0-8.3,6.6-15.2,14.6-15.2h58.3
				c0.6,0,1.3,0.1,2,0.1h-27.6c0,0-18.6,19.6-38.3,41c-0.1,0.1-0.2,0.2-0.2,0.3h-6.8c-0.6,0-1.1,0.5-1.1,1.1V583.6z"/>
			<path class="st5" d="M845.1,790.1c0.1,0.3,0.4,0.5,0.7,0.6c-0.2,0.3-0.4,0.7-0.6,1l-23.2-49.4l-10.7-22.8c0.4,0,0.7,0.2,0.9,0.6
				l10.6,22.5L845.1,790.1z"/>
			<path class="st5" d="M615.9,811.5c0.2,0.2,0.5,0.3,0.7,0.3l-0.3,0.4c-2.6-2.7-5.4-5.4-8.3-7.9c0,0,0-0.1,0.1-0.1
				C610.9,806.6,613.5,809,615.9,811.5z"/>
			<path class="st1" d="M519.5,745.4v22.4c-0.1,0-0.2,0-0.4,0v-22.1C519.2,745.6,519.3,745.5,519.5,745.4z"/>
			<path class="st6" d="M1788.2,851.7c0,10.9-0.4,22.1-1.1,33.5c0,8.3-2.7,15.3-6.4,18V770.7
				C1785.5,795.5,1788.2,822.6,1788.2,851.7z"/>
			<path class="st0" d="M1760.1,670.3c13.4,18.1,22.5,31.1,20.5,31.1h-21.5c-23.2-51.9-58-85.5-95.2-95.1h19.5v-34.3
				C1697.7,589.9,1736,638.1,1760.1,670.3z"/>
			<path class="st1" d="M1780.7,903.2v2.6h-154.2v-1.4h150.8C1778.5,904.4,1779.6,904,1780.7,903.2z"/>
			<path class="st1" d="M1780.7,701.4v69.3c-5-25.7-12.4-48.9-21.5-69.3H1780.7z"/>
			<path class="st0" d="M1759.2,701.4h-132.7l-10.1-17.8l-45.5-80.3h41.1v0.5c0.5-0.1,1-0.3,1.3-0.3h3.2l1.9,2.9v-0.1h45.5
				C1701.2,615.9,1735.9,649.5,1759.2,701.4z"/>
			<path class="st1" d="M1683.5,572.1v34.3H1664c-7.1-1.8-14.3-2.8-21.6-2.8h-23.9v-38.4h59.4
				C1677.9,565.1,1679.9,567.7,1683.5,572.1z"/>
			<path class="st1" d="M1683.5,520.4v51.7c-3.5-4.4-5.6-7-5.6-7h-59.4v-44.7l32.6-43.7L1683.5,520.4z M1667.3,536.4
				c0-11-7.3-20-16.3-20s-16.3,8.9-16.3,20c0,11,7.3,20,16.3,20S1667.3,547.5,1667.3,536.4z"/>
			<path class="st1" d="M1664,606.4h-45.5v-2.8h23.9C1649.6,603.6,1656.8,604.5,1664,606.4z"/>
			<ellipse class="st0" cx="1651" cy="536.4" rx="16.3" ry="20"/>
			<polygon class="st7" points="1651,476.7 1618.4,519.9 1595.5,519.9 1581.7,503.9 1587.6,496 1591.3,496 1589.4,493.7 
				1602.2,476.7 			"/>
			<path class="st8" d="M1626.5,904.4v1.4h-154.2v-2.3h138.4c0.9,0.6,1.8,0.9,2.8,0.9H1626.5z"/>
			<path class="st8" d="M1626.5,701.4v203h-13c-1,0-1.9-0.3-2.8-0.9h-138.4V701.4H1626.5z M1601.7,796.2v-59.7h-32.1v59.7H1601.7z
				 M1529,796.2v-59.7h-32.1v59.7H1529z"/>
			<polygon class="st8" points="1616.4,683.6 1626.5,701.4 1472.2,701.4 1527.7,603.3 1529.5,603.3 1564.4,603.3 1570.9,603.3 			
				"/>
			<polygon class="st6" points="1618.4,606.4 1618.4,606.5 1616.5,603.6 1616.6,603.6 			"/>
			<polygon class="st8" points="1618.4,603.6 1618.4,606.4 1616.6,603.6 			"/>
			<polygon class="st8" points="1618.4,565.1 1618.4,603.6 1616.6,603.6 1591.7,565.4 1591.6,565.1 1569.7,565.1 1569.7,539 
				1612,539 1595.5,519.9 1618.4,519.9 1618.4,520.4 			"/>
			<path class="st0" d="M1591.7,565.4l24.8,38.2h-3.2c-0.4,0-0.9,0.1-1.3,0.3v-0.5h-41.1l-6.6-11.6v-26.6h5.3v0.3H1591.7z"/>
			<polygon class="st8" points="1595.5,519.9 1612,539 1569.7,539 1569.7,519.9 			"/>
			<rect x="1569.6" y="736.6" class="st3" width="32.1" height="59.7"/>
			<polygon class="st7" points="1581.7,503.9 1595.5,519.9 1569.7,519.9 			"/>
			<polygon class="st1" points="1591.6,565.1 1591.7,565.4 1569.7,565.4 1569.7,565.1 			"/>
			<polygon class="st7" points="1589.4,493.7 1591.3,496 1587.6,496 			"/>
			<polygon class="st4" points="1589.4,493.7 1587.6,496 1574.8,496 1581.7,503.9 1569.7,519.9 1569.7,539 1564.4,539 1564.4,464 
							"/>
			<polygon class="st8" points="1564.4,591.8 1570.9,603.3 1564.4,603.3 			"/>
			<polygon class="st4" points="1564.4,442.4 1570.8,453.1 1564.4,453.1 			"/>
			<path class="st0" d="M1445.3,196.7c0,0,126.4,177.4,119,177.4h-41.1l-4-6.7l-4,6.7h-129.3l-89.3-177.4H1445.3z"/>
			<polygon class="st8" points="1564.4,591.8 1564.4,603.3 1529.5,603.3 1529.5,600.2 1549.3,565.1 			"/>
			<polygon class="st0" points="1564.4,565.1 1564.4,591.8 1549.3,565.1 			"/>
			<polygon class="st1" points="1564.4,539 1564.4,565.1 1549.3,565.1 1529.5,600.2 1529.5,539 			"/>
			<path class="st4" d="M1564.4,464v75h-34.9h-20.7h-1.7c-3.5-13.4-14.2-23.3-27.1-23.3c-12.9,0-23.7,9.9-27.1,23.3h-21.4l-2.6-3
				l34.6-40h-3.3v-15.7l22.8-27.1h-15.4l47.5-79.1h8.1l41.2,68.4v10.7h-9.1L1564.4,464z M1534.6,496v-77.6h-37.2V496H1534.6z"/>
			<polygon class="st1" points="1564.4,453.1 1564.4,464 1555.2,453.1 			"/>
			<polygon class="st1" points="1564.4,374 1564.4,442.4 1523.2,374 1564.2,374 			"/>
			<rect x="1497.4" y="418.4" class="st4" width="37.2" height="77.6"/>
			<polygon class="st8" points="1529.5,600.2 1529.5,603.3 1527.7,603.3 			"/>
			<polygon class="st9" points="1529.5,539 1529.5,600.2 1527.7,603.3 1508.8,603.3 1508.8,539 			"/>
			<rect x="1496.9" y="736.6" class="st3" width="32.1" height="59.7"/>
			<polygon class="st4" points="1527.7,603.3 1472.2,701.4 1472.2,903.5 1387.2,903.5 1387.2,603.3 1451.8,603.3 1508.2,603.3 
				1508.8,603.3 			"/>
			<polygon class="st4" points="1523.2,374 1515.1,374 1519.2,367.3 			"/>
			<polygon class="st1" points="1515.1,374 1467.6,453.1 1483.1,453.1 1460.2,480.3 1460.2,418.4 1423,418.4 1423,496 1447,496 
				1460.2,496 1463.5,496 1428.9,536 1419.7,525.3 1431.8,525.3 1405.5,494.1 1416.7,494.1 1385.8,442.6 1385.8,374 			"/>
			<path class="st1" d="M1508.8,539v64.3h-0.6v-55.1c0-3.2-0.5-6.3-1.1-9.2H1508.8z"/>
			<path class="st0" d="M1508.2,548.2v55.1h-56.4v-55.1c0-3.2,0.4-6.3,1.1-9.2h54.2C1507.7,541.9,1508.2,545,1508.2,548.2z"/>
			<path class="st4" d="M1507.1,539h-54.2c3.4-13.4,14.2-23.3,27.1-23.3C1492.9,515.7,1503.6,525.6,1507.1,539z"/>
			<polygon class="st4" points="1460.2,480.3 1460.2,496 1447,496 			"/>
			<polygon class="st0" points="1460.2,418.4 1460.2,480.3 1447,496 1423,496 1423,418.4 			"/>
			<path class="st1" d="M1431.5,539h21.4c-0.7,2.9-1.1,6.1-1.1,9.2v55.1h-64.7V575l-0.2-0.4l-0.1-0.2v-17.9h59.9L1431.5,539z"/>
			<polygon class="st10" points="1431.5,539 1446.7,556.5 1386.8,556.5 1385.8,556.5 1385.8,442.6 1416.7,494.1 1405.5,494.1 
				1431.8,525.3 1419.7,525.3 1428.9,536 1426.3,539 			"/>
			<polygon class="st10" points="1431.5,539 1426.3,539 1428.9,536 			"/>
			<path class="st2" d="M1387.2,903.5v1h-283.2c3.1-0.6,23.5-0.9,42.6-1H1387.2z"/>
			<path class="st2" d="M1387.2,603.3v300.2h-240.7c18-0.1,34.8-0.1,34.8-0.1s4.9-0.1,7.2-7.7l-0.4-26.5c0,0,24.1-18.1,24.1-19.3
				c0-0.9,3.3-7.7,4.9-11h144.3V640.2v-5.8c0.1,0,0.2,0,0.2-0.1l0,0l0-0.1c0.4-1.2-4.1-8.1-11.4-18.2c-2.8-3.8-5.9-8.1-9.4-12.7
				h30.9h14.1h1H1387.2z"/>
			<polygon class="st2" points="1387.2,575 1387.2,603.3 1386.8,603.3 1386.8,574.5 1386.9,574.6 			"/>
			<polygon class="st2" points="1386.8,574.5 1386.8,603.3 1385.8,603.3 1385.8,573.3 			"/>
			<polygon class="st9" points="1386.8,556.5 1386.8,574.5 1385.8,573.3 1385.8,556.5 			"/>
			<polygon class="st2" points="1385.8,573.3 1385.8,603.3 1371.7,603.3 1371.7,556.5 1371.9,556.5 			"/>
			<polygon class="st9" points="1385.8,556.5 1385.8,573.3 1371.9,556.5 			"/>
			<polygon class="st10" points="1385.8,442.6 1385.8,556.5 1371.9,556.5 1336.5,513.8 1351.4,496 1356.1,496 1356.1,470.3 
				1379.3,431.7 			"/>
			<path class="st8" d="M1385.8,374v68.6l-6.6-10.9l-23.2,38.6v-51.9h-37.2v74.2l-52-62.7v-11.5h-9.5l-36.7-44.3l165.1-0.1
				C1385.7,374,1385.7,374,1385.8,374z"/>
			<path class="st0" d="M1296.5,196.7l89.3,177.4c-0.1,0-0.1,0-0.1,0L1296.5,196.7z"/>
			<polygon class="st8" points="1296.5,196.7 1385.7,374 1220.6,374 1212.3,364.1 			"/>
			<polygon class="st2" points="1336.5,513.8 1371.9,556.5 1371.7,556.5 1311.7,556.5 1338.8,525.3 1326.8,525.3 			"/>
			<path class="st2" d="M1371.7,556.5v46.8h-30.9c3.5,4.6,6.6,8.9,9.4,12.7c7,9.8,11.4,16.5,11.4,18.1c0,0.1,0,0.1,0,0.1l0,0.1
				c0.9-1.2-8-13.8-21.1-31.1h-82.8c-16.8,0-34,3.2-50.4,9.1V374.1l13.3,0l36.7,44.3h-27.7V496h37.2v-66.2l52,62.7v3.4h2.8
				l14.8,17.8l-9.7,11.5h12l-27.1,31.2H1371.7z M1362.9,572.5v-0.4h-0.2L1362.9,572.5z"/>
			<polygon class="st2" points="1362.9,572.1 1362.9,572.5 1362.6,572.1 			"/>
			<path class="st2" d="M1361.7,634.2c0,0,0-0.1,0-0.1c0-1.5-4.4-8.3-11.4-18.1C1357.5,626.2,1362.1,633.1,1361.7,634.2z"/>
			<path class="st2" d="M1340.5,603.2c13.1,17.3,22,30,21.1,31.1l0,0c0,0.1-0.1,0.1-0.2,0.1v5.8h-154.1v-27.9
				c16.5-5.9,33.6-9.1,50.4-9.1H1340.5z"/>
			<path class="st2" d="M1361.6,634.3L1361.6,634.3L1361.6,634.3z"/>
			<polygon class="st10" points="1356.1,470.3 1356.1,496 1351.4,496 1353,494.1 1341.7,494.1 			"/>
			<polygon class="st3" points="1356.1,418.4 1356.1,470.3 1341.7,494.1 1353,494.1 1351.4,496 1321.7,496 1318.9,492.6 
				1318.9,418.4 			"/>
			<polygon class="st8" points="1351.4,496 1336.5,513.8 1321.7,496 			"/>
			<polygon class="st2" points="1318.9,492.6 1321.7,496 1318.9,496 			"/>
			<polygon class="st2" points="1266.9,429.8 1266.9,496 1229.7,496 1229.7,418.4 1257.4,418.4 			"/>
			<polygon class="st3" points="1266.9,418.4 1266.9,429.8 1257.4,418.4 			"/>
			<path class="st2" d="M1220.7,374.1l-13.3,0v238.2c-0.1,0-0.2,0.1-0.2,0.1c-3.4,1.3-6.8,2.5-10.2,4c-11.1,4.8-21.8,10.7-31.8,17.8
				c-21.7,15.1-40.1,35-52.5,57.7v-57.6l-61.9-92.7l145.5-197.2l16.2,19.5l-5,9.9h13.2L1220.7,374.1z"/>
			<polygon class="st2" points="1212.3,364.1 1220.6,374 1207.3,374 			"/>
			<path class="st2" d="M1220.1,821.6c0,0,2,2.4,2.2,5.9c-0.2-3.4-2.2-5.7-2.2-5.7l-14.4,0.1L1220.1,821.6z"/>
			<path class="st2" d="M1217.8,837.1h0.2c0,0-0.4,0.7-0.9,1.8h-0.2C1217.4,838,1217.7,837.3,1217.8,837.1z"/>
			<path class="st3" d="M1129.2,837.2l88.7-0.3c0,0,0,0.1-0.1,0.1l-88.5,0.3c0,0,0.1,0.5,0.4,1.5h-0.1c-0.1-0.4-0.2-0.7-0.2-1
				c0-0.1,0-0.2-0.1-0.3C1129.2,837.3,1129.2,837.2,1129.2,837.2z"/>
			<path class="st3" d="M1129.3,837.3l88.5-0.3c-0.1,0.3-0.5,0.9-0.9,1.8h-87.3C1129.4,837.8,1129.3,837.3,1129.3,837.3z"/>
			<path class="st2" d="M1216.9,838.8h0.2c-1.6,3.3-4.9,10-4.9,11c0,1.3-24.1,19.3-24.1,19.3l0.4,26.5c-2.3,7.6-7.2,7.7-7.2,7.7
				s-16.8,0-34.8,0.1h-13.6c22-0.3,48.3-0.3,48.3-0.3s4.9-0.1,7.2-7.7L1188,869c0,0,24.1-18.1,24.1-19.3
				C1212,848.8,1215.3,842.1,1216.9,838.8z"/>
			<path class="st11" d="M1195.4,721.6v0.3c-0.4-0.1-0.8-0.2-1.2-0.2C1194.6,721.7,1195,721.7,1195.4,721.6z"/>
			<path class="st11" d="M1193.8,721.6c0.1,0,0.3,0.1,0.4,0.1C1194.1,721.6,1194,721.6,1193.8,721.6z"/>
			<path class="st2" d="M1132.9,903.5h13.6c-19.1,0.1-39.4,0.4-42.6,1h-0.4v-0.1C1105,904,1117.9,903.7,1132.9,903.5z"/>
			<path class="st2" d="M1114.2,740l19.6,83.2l-4.9,0.1l-14.3-61.7c-0.7-0.7-1.4-1.4-2.1-2V740H1114.2z"/>
			<path class="st3" d="M1132.8,856c1.6,10.7,2.6,22.7-0.5,26.7c0,0-3.3,5.4-10.1,9.9c-0.7,0.4-1.4,0.9-2.3,1.4
				c-0.4,0.2-0.8,0.4-1.2,0.6c-1.7,0.9-3.6,1.7-5.7,2.3c-0.8,0.2-1.5,0.4-2.3,0.6c-0.1,0-0.3,0.1-0.5,0.1c-1,0.2-2,0.4-3.1,0.5
				c-1.2,0.2-2.4,0.2-3.7,0.3l0-0.1c19.4-0.4,28.8-15.7,28.8-15.7C1135.3,878.6,1134.4,866.7,1132.8,856z"/>
			<path class="st3" d="M1132.8,856c1.6,10.7,2.5,22.7-0.6,26.6c0,0-9.4,15.2-28.8,15.7l-6.6-48h3.5c6.8,0,12.5-4.8,14.1-11.4h15.1
				c0.1,0.6,0.3,1.2,0.5,2c0,0.2,0.1,0.4,0.1,0.6c0.2,0.8,0.4,1.7,0.5,2.6c0,0.2,0.1,0.3,0.1,0.5c0,0.3,0.1,0.5,0.2,0.8
				c0.1,0.3,0.1,0.6,0.2,0.9c0.3,1.7,0.7,3.5,1,5.4c0.1,0.6,0.2,1.3,0.3,2c0,0,0,0.1,0,0.1c0.1,0.7,0.2,1.3,0.3,2
				C1132.8,855.9,1132.8,855.9,1132.8,856z"/>
			<path class="st3" d="M1103.5,903.5h29.4c-14.9,0.2-27.9,0.5-29.4,0.9L1103.5,903.5z"/>
			<path class="st3" d="M1132.5,853.8c0.1,0.7,0.2,1.3,0.3,2C1132.7,855.1,1132.6,854.5,1132.5,853.8z"/>
			<path class="st3" d="M1132.1,851.7c0.1,0.6,0.2,1.3,0.3,2C1132.3,853,1132.2,852.3,1132.1,851.7z"/>
			<path class="st3" d="M1130.9,845.4c0.1,0.3,0.1,0.6,0.2,0.9C1131.1,846,1131,845.7,1130.9,845.4z"/>
			<path class="st3" d="M1130.8,844.6c0-0.2-0.1-0.3-0.1-0.5C1130.7,844.3,1130.7,844.4,1130.8,844.6z"/>
			<path class="st2" d="M1130,840.8c0,0.2,0.1,0.4,0.1,0.6C1130.1,841.3,1130,841,1130,840.8z"/>
			<path class="st3" d="M1129.3,837.9c0.1,0.3,0.1,0.6,0.2,1h-15.1c0.4-1.3,0.5-2.5,0.5-3.8v-22.8c0-8.3-6.6-15.2-14.6-15.2h-10.7
				l-2.8-20.2h25.7v-17.3c0.7,0.6,1.4,1.3,2.1,2l14.3,61.7l0.2,13.9c0,0,0,0.1,0.1,0.4C1129.3,837.6,1129.3,837.7,1129.3,837.9z"/>
			<path class="st3" d="M1129.2,837.6c0,0.1,0,0.2,0.1,0.3C1129.3,837.7,1129.3,837.6,1129.2,837.6z"/>
			<path class="st3" d="M1118.7,894.6c0.4-0.2,0.8-0.4,1.2-0.6C1119.5,894.1,1119.1,894.4,1118.7,894.6z"/>
			<path class="st3" d="M1114.9,812.3V835c0,1.3-0.1,2.5-0.5,3.8c-1.6,6.6-7.3,11.4-14.1,11.4h-3.5l-7.2-53.1h10.7
				C1108.4,797.1,1114.9,803.9,1114.9,812.3z"/>
			<path class="st3" d="M1112.5,759.5v17.3h-25.7l-1.3-9.7C1085.5,767.1,1095.3,743.6,1112.5,759.5z"/>
			<path class="st2" d="M1112.5,740v19.6c-17.2-15.9-27,7.6-27,7.6l1.3,9.7h-5.2c-2.3-1.6-5.1-2.5-8-2.5H1025V732h73.2
				c0.1-1,0.4-1.9,0.6-2.9c2.3-11,6-21.6,10.9-31.6c0.9-1.8,1.8-3.5,2.7-5.3c0-0.1,0.1-0.1,0.1-0.2V740z"/>
			<path class="st2" d="M1112.5,634.4V692c0,0.1-0.1,0.1-0.1,0.2c-0.9,1.8-1.8,3.5-2.7,5.3c-5,10-8.6,20.6-10.9,31.6
				c-0.2,1-0.5,1.9-0.6,2.9H1025v-32.2h8.3v-41.6h-8.3v-23.8H1112.5z M1096.7,699.8v-41.6h-26.5v41.6H1096.7z"/>
			<path class="st2" d="M1050.6,541.8l61.9,92.7H1025v-55.3l18.7-28.1L1050.6,541.8z M1053,574l1.2-1.9h-1.2V574z"/>
			<path class="st3" d="M1113,896.8c-0.8,0.2-1.5,0.4-2.3,0.6C1111.5,897.3,1112.3,897.1,1113,896.8z"/>
			<path class="st3" d="M1107.1,898.1c1-0.1,2.1-0.3,3.1-0.5C1109.2,897.8,1108.2,898,1107.1,898.1z"/>
			<path class="st2" d="M1103.5,904.5L1103.5,904.5l-0.1,0.1C1103.4,904.5,1103.5,904.5,1103.5,904.5z"/>
			<path class="st3" d="M1103.5,903.5l0,0.9c-0.1,0-0.1,0-0.1,0.1l0-1H1103.5z"/>
			<path class="st3" d="M1103.4,898.4l0.1,5.2h-0.1l-0.1-5.3c0,0,0.1,0,0.1,0L1103.4,898.4z"/>
			<polygon class="st2" points="1103.4,903.5 1103.4,904.6 1025,904.6 1025,903.5 			"/>
			<path class="st2" d="M1096.8,850.2l6.6,48c0,0-0.1,0-0.1,0l0.1,5.3H1025v-53.3H1096.8z"/>
			<path class="st2" d="M1089.6,797.1l7.2,53.1H1025v-73.3h56.6c3.9,2.8,6.6,7.3,6.6,12.6v7.6H1089.6z"/>
			<rect x="1070.2" y="658.2" class="st2" width="26.5" height="41.6"/>
			<path class="st2" d="M1086.9,776.9l2.8,20.2h-1.4v-7.6c0-5.3-2.7-9.9-6.6-12.6H1086.9z"/>
			<path class="st2" d="M1081.6,776.9H1025v-2.5h48.6C1076.5,774.4,1079.3,775.2,1081.6,776.9z"/>
			<polygon class="st2" points="1054.2,572.1 1053,574 1053,572.1 			"/>
			<polygon class="st7" points="1051.5,539.4 1051.5,539.5 1050.3,541.3 1050.3,541.3 1049.1,539.5 1049.1,539.4 			"/>
			<polygon class="st1" points="1050.6,541.8 1043.8,551 1050.3,541.3 			"/>
			<path class="st7" d="M1050.3,541.3l-6.5,9.8l-17.4,23.6l-1.3,1.9v2.6l-36.9,55.3c0,0-0.9,0-2.4,0l63.4-94.9L1050.3,541.3z"/>
			<path class="st7" d="M1049.1,539.4v0.1l-63.4,94.9h-34.8v-23.8c0-4.3-0.8-8.3-1.6-11.8c0-0.1,0-0.2-0.1-0.2v0h22.3
				c8,0,14.6-6.8,14.6-15.2v-29.1c0-7.3-5-13.4-11.5-14.9c-0.4-0.1-0.7-0.1-1.1-0.1H1049.1z"/>
			<polygon class="st2" points="1043.8,551 1025,579.1 1025,576.5 1026.4,574.6 			"/>
			<rect x="1025" y="658.2" class="st2" width="8.3" height="41.6"/>
			<path class="st4" d="M1025,850.2v53.3h-74.1V800.9v-24h34.8h30.1c-0.3,0.2-0.5,0.4-0.7,0.5c-3.1,2.4-5.2,6-5.7,10.1
				c-0.1,0.6-0.1,1.3-0.1,2v7.6h-12.2c-8,0-14.6,6.8-14.6,15.2V835c0,8.3,6.6,15.2,14.6,15.2H1025z"/>
			<path class="st6" d="M1025,776.9v73.3h-28c-8,0-14.6-6.8-14.6-15.2v-22.8c0-8.3,6.6-15.2,14.6-15.2h12.2v-7.6c0-0.7,0-1.3,0.1-2
				c0.5-4.1,2.7-7.7,5.7-10.1c0.2-0.2,0.5-0.4,0.7-0.5H1025z"/>
			<path class="st6" d="M1025,774.4v2.5h-9.2c2.3-1.6,5.1-2.5,8-2.5H1025z"/>
			<path class="st4" d="M1025,732v42.3h-1.2c-2.9,0-5.7,0.9-8,2.5h-30.1V732H1025z"/>
			<path class="st1" d="M1025,699.8V732h-39.4v-97.6c1.6,0,2.4,0,2.4,0h36.9v23.8h-18.2v41.6H1025z"/>
			<rect x="1006.8" y="658.2" class="st1" width="18.2" height="41.6"/>
			<polygon class="st1" points="1025,579.1 1025,634.4 988.1,634.4 			"/>
			<path class="st6" d="M1015,777.4c-3,2.4-5.2,6-5.7,10.1C1009.8,783.4,1011.9,779.9,1015,777.4z"/>
			<path class="st6" d="M1009.3,787.6c-0.1,0.6-0.1,1.3-0.1,2C1009.2,788.9,1009.3,788.2,1009.3,787.6z"/>
			<path class="st7" d="M986.1,554.4v29.1c0,8.3-6.6,15.2-14.6,15.2h-22.3c-4.5-10.7-14.7-18.1-26.6-18.1h-15.3
				c0.1-0.1,0.2-0.2,0.2-0.3c19.7-21.4,38.3-41,38.3-41h27.6c0.4,0,0.7,0.1,1.1,0.1C981.1,541,986.1,547.1,986.1,554.4z"/>
			<rect x="950.9" y="732" class="st4" width="34.8" height="44.9"/>
			<polygon class="st8" points="985.6,634.4 985.6,732 950.9,732 950.9,699.8 959.3,699.8 959.3,658.2 950.9,658.2 950.9,634.4 			
				"/>
			<rect x="950.9" y="658.2" class="st3" width="8.4" height="41.6"/>
			<path class="st6" d="M950.9,903.7v1.1c0,0.6-0.5,1.1-1.1,1.1H808.7c8,0,14.6-6.8,14.6-15.2v-19h4.9v32H950.9z"/>
			<path class="st4" d="M950.9,903.5v0.1H828.1v-32h47.4l-6.4-9.5l-19.6-28.9h11.5l-20.9-31.9l0-0.1c0,0,0-0.1,0-0.1
				c1.1-2.3,2.2-4.4,3.4-6.6h3l-0.6-1.4h5.2c8,0,14.6-6.8,14.6-15.2v-1.3h12.4c-0.1,0.8-0.2,1.7-0.2,2.5v5.1c0,0.4,0,0.9,0,1.3
				c-3.5,0.4-6.7,1.9-9.1,4.4c-2.7,2.8-4.3,6.6-4.3,10.7c0,8.3,6.6,15.2,14.6,15.2h55.9c4,0,7.7-1.6,10.3-4.4
				c2.7-2.8,4.3-6.6,4.3-10.7h1.2V903.5z"/>
			<path class="st4" d="M950.9,776.9v24h-1.2c0-8-6-14.5-13.4-15.2c0-0.4,0-0.9,0-1.3v-5.1c0-0.9-0.1-1.7-0.2-2.5h2.6H950.9z"/>
			<path class="st4" d="M950.9,732v44.9h-12.2v-44.6c2.7-0.3,5.3-0.3,8-0.3H950.9z"/>
			<path class="st8" d="M950.9,699.8V732h-4.1c-2.7,0-5.3,0-8,0.3v-4.7c0-9.6-9-17.4-20.1-17.4c-11.1,0-20.1,7.8-20.1,17.4v15
				c-12.2,5.6-23.2,13.3-32.8,22.6v-9.9c0-5.1-2.5-9.8-6.3-12.5V635.7c0-0.6,0.5-1.1,1.1-1.1h0.3c0.3,0,0.5-0.1,0.7-0.3h89.4v23.8
				h-18.1v41.6H950.9z M906.4,699.8v-41.6h-26.5v41.6H906.4z"/>
			<rect x="932.8" y="658.2" class="st3" width="18.1" height="41.6"/>
			<path class="st7" d="M950.9,610.7v23.8h-89.4c0.1-0.1,0.3-0.3,0.3-0.5c1.7-3.9,19.3-23.7,38.1-44.2c2.3,5.2,7.5,8.9,13.3,8.9h36
				v0c0,0.1,0.1,0.2,0.1,0.2C950,602.4,950.9,606.4,950.9,610.7z"/>
			<path class="st7" d="M949.3,598.6h-36c-5.8,0-11-3.7-13.3-8.9c0,0,0.1-0.1,0.1-0.1c0.3-0.3,0.3-0.7,0.2-1c0-0.1,0-0.1,0-0.2
				c2.4-2.6,4.8-5.2,7.2-7.8h15.3C934.6,580.6,944.7,588,949.3,598.6z"/>
			<path class="st6" d="M949.7,800.9c0,4.2-1.6,8-4.3,10.7c-2.7,2.8-6.3,4.4-10.3,4.4h-55.9c-8,0-14.6-6.8-14.6-15.2
				c0-4.2,1.6-8,4.3-10.7c2.4-2.5,5.6-4,9.1-4.4c0-0.4,0-0.9,0-1.3v-5.1c0-0.9,0.1-1.7,0.2-2.5h20.5h37.5c0.1,0.8,0.2,1.7,0.2,2.5
				v5.1c0,0.4,0,0.9,0,1.3C943.7,786.4,949.7,792.9,949.7,800.9z"/>
			<path class="st4" d="M938.7,732.3v44.6h-2.6c-1.2-7.2-7.2-12.6-14.4-12.6h-23.1v-21.6C911,736.9,924.5,733.3,938.7,732.3z"/>
			<path class="st0" d="M938.7,727.6v4.7c-14.2,1-27.7,4.7-40.1,10.4v-15c0-9.6,9-17.4,20.1-17.4C929.7,710.1,938.7,718,938.7,727.6
				z"/>
			<path class="st6" d="M936.1,776.9h-37.5v-12.6h23.1C928.9,764.2,934.9,769.7,936.1,776.9z"/>
			<path class="st6" d="M900.6,580.6h6.8c-2.4,2.6-4.8,5.2-7.2,7.8c-0.5-1.5-0.7-3.1-0.7-4.8v-2C899.5,581,900,580.6,900.6,580.6z"
				/>
			<rect x="879.9" y="658.2" class="st3" width="26.5" height="41.6"/>
			<path class="st7" d="M900.3,588.6c0.1,0.4,0,0.8-0.2,1c0,0-0.1,0.1-0.1,0.1c-0.1-0.2-0.2-0.5-0.3-0.7c0,0,0.1-0.1,0.1-0.1
				c0.2-0.2,0.3-0.4,0.5-0.5C900.2,588.4,900.2,588.5,900.3,588.6z"/>
			<path class="st7" d="M899.6,589c0.1,0.2,0.2,0.5,0.3,0.7c-18.8,20.5-36.4,40.3-38.1,44.2c-0.1,0.2-0.2,0.3-0.3,0.5h-0.3
				c-0.3,0-0.3-0.4,0.1-1.1C863.9,628.5,881.3,609.1,899.6,589z"/>
			<path class="st5" d="M899.6,588.8C899.6,588.8,899.6,588.8,899.6,588.8c-0.6-1.5-0.9-3.1-1-4.8
				C898.7,585.7,899.1,587.2,899.6,588.8z"/>
			<path class="st6" d="M898.6,764.2v12.6h-20.5c1.2-7.2,7.2-12.6,14.4-12.6H898.6z"/>
			<path class="st4" d="M898.6,742.6v21.6h-6.1c-7.2,0-13.2,5.5-14.4,12.6h-12.4v-11.6C875.4,755.9,886.5,748.2,898.6,742.6z"/>
			<path class="st4" d="M878,541.8v29.1c0,3.5-1.2,6.8-3.1,9.4H744v-52.1c1.9-1,4.1-1.5,6.3-1.5h10.9c0-0.4,0-0.9,0-1.3v-19
				c0-8.3,6.6-15.2,14.6-15.2h58.3c8,0,14.6,6.8,14.6,15.2v19c0,0.4,0,0.9,0,1.3h14.6C871.4,526.6,878,533.4,878,541.8z"/>
			<path class="st10" d="M869.1,862.2l6.4,9.5h-47.4v-16.3c0-9.1,0.9-18,2.7-26.5c2-9.6,5.2-18.8,9.3-27.5l0,0.1l20.9,31.9h-11.5
				L869.1,862.2z"/>
			<path class="st5" d="M744,580.2h130.8c-2.7,3.5-6.8,5.8-11.5,5.8h-113c-2.2,0-4.3-0.5-6.2-1.5v-4.1H744V580.2z"/>
			<path class="st4" d="M865.8,776.9v1.3c0,8.3-6.6,15.2-14.6,15.2H846l-0.8-1.5c0,0,0-0.1,0.1-0.1c0.2-0.3,0.4-0.7,0.6-1
				c0.4,0.1,0.9-0.1,1.2-0.5c3.5-5.8,7.5-11.3,11.7-16.4v3.1H865.8z"/>
			<path class="st4" d="M865.8,765.3v11.6h-7v-3.1c0.2-0.2,0.3-0.4,0.5-0.6c0.2-0.2,0.3-0.4,0.3-0.7v-0.7
				C861.5,769.5,863.6,767.4,865.8,765.3z"/>
			<path class="st8" d="M865.8,755.4v9.9c-2.2,2.1-4.3,4.3-6.3,6.6v-29C863.3,745.6,865.8,750.3,865.8,755.4z"/>
			<path class="st8" d="M861.2,634.4h0.3c-0.2,0.2-0.4,0.3-0.7,0.3h-0.3c-0.6,0-1.1,0.5-1.1,1.1v107.1c-0.2-0.2-0.5-0.3-0.7-0.5
				v-108H861.2z"/>
			<path class="st4" d="M859.5,771.9v0.7c0,0.3-0.1,0.5-0.3,0.7c-0.2,0.2-0.3,0.4-0.5,0.6v-1.1C859,772.4,859.2,772.1,859.5,771.9z"
				/>
			<path class="st8" d="M859.5,742.9v29c-0.3,0.3-0.5,0.6-0.7,0.8v-30.3C859,742.5,859.3,742.7,859.5,742.9z"/>
			<path class="st10" d="M846,793.3l0.6,1.4h-3c0.2-0.5,0.5-0.9,0.7-1.4H846z"/>
			<path class="st10" d="M845.2,791.8l0.8,1.5h-1.7C844.5,792.8,844.9,792.4,845.2,791.8z"/>
			<path class="st6" d="M845.9,790.7c-0.2,0.3-0.4,0.7-0.6,1C845.5,791.3,845.7,791,845.9,790.7
				C845.9,790.7,845.9,790.7,845.9,790.7z"/>
			<path class="st5" d="M822.1,742.2l23.2,49.4c0,0,0,0.1-0.1,0.1l-0.1-0.1L822.1,742.2z"/>
			<path class="st10" d="M845.2,791.7l0.1,0.1c-0.4,0.6-0.7,1-0.9,1.5h-14.9c-8,0-14.6-6.8-14.6-15.2v-22.8c0-5.6,2.9-10.5,7.3-13.1
				L845.2,791.7z"/>
			<path class="st10" d="M829.4,793.3h14.9c-0.2,0.5-0.5,0.9-0.7,1.4h-7.8l4.3,6.6c-4.1,8.6-7.2,17.8-9.3,27.5l-2.9-0.6l-37.1-49.6
				l16.5,0.1l-15.6-21.5l0.4-0.8c0.4,0.1,0.9-0.2,1.1-0.6l16.8-35.8c0.2-0.4,0.6-0.6,1-0.6l10.7,22.8c-4.4,2.7-7.3,7.6-7.3,13.1
				v22.8C814.8,786.5,821.3,793.3,829.4,793.3z"/>
			<path class="st6" d="M835.8,794.7h7.8c-1.2,2.1-2.3,4.3-3.4,6.6c0,0,0,0.1,0,0.1L835.8,794.7z"/>
			<path class="st10" d="M828,828.2l2.9,0.6c-1.8,8.5-2.7,17.4-2.7,26.5v16.3h-4.9v-21.5c0-8.3-6.6-15.2-14.6-15.2h-38.5l1.2-1.8
				h-11.5l3.5-5.3L828,828.2z"/>
			<polygon class="st10" points="790.9,778.7 828,828.2 763.4,828 785.2,794.7 774.3,794.7 791.9,757.3 807.5,778.8 			"/>
			<path class="st5" d="M823.3,871.7v19c0,8.3-6.6,15.2-14.6,15.2h-6.8V902h10.9v-30.3H823.3z"/>
			<path class="st10" d="M823.3,850.2v21.5h-10.5h-10.9h-56.5l22.2-32.9l2.6-3.8h38.5C816.7,835,823.3,841.9,823.3,850.2z"/>
			<rect x="801.9" y="871.7" class="st9" width="10.9" height="30.3"/>
			<path class="st10" d="M810.5,717.7l0.8,1.7c-0.4,0-0.8,0.2-1,0.6l-16.8,35.8c-0.2,0.5-0.7,0.7-1.1,0.6L810.5,717.7z"/>
			<path class="st5" d="M801.9,902v3.8H653.1c-4.8,0-9.1-2.5-11.8-6.2c0.6-1.1,0.9-2.3,0.9-3.6c0.7-5.1,1.1-10.1,1.1-14.9
				c0-2.1-0.1-4.3-0.1-6.3c-0.1-1.3-0.2-2.5-0.3-3.8h11.4v29.8h16.2v-29.8h54.2l-0.1,31l20.7,0.1l0.1-30.3h56.5V902z"/>
			<path class="st4" d="M791.2,756.3l0.7,0.9l-17.6,37.4h10.9L763.4,828h-17.8v0l-15.6-0.1l-5.1,0l-21.3-0.1l-1.1-1.8h12l-26.4-45
				h11.3l-14-33.1l0.7-1c0.4,0.1,0.8-0.1,1-0.4l11.5-15.6c0.3-0.4,0.3-0.8,0.1-1.1l0.5-0.7h-0.1l0.1-0.1h-13.7
				c-0.4-0.3-0.5-0.8-0.3-1.3l50.1-95.2c0.2-0.4,0.7-0.6,1.1-0.6h0l50.2,97.2c-0.1,0.1-0.1,0.2-0.2,0.3h-15h-0.1L791.2,756.3z"/>
			<polygon class="st4" points="771.6,729.2 791.2,756.3 771.5,729.2 			"/>
			<path class="st4" d="M786.9,728.9l0.2,0.4h-0.1l-0.1-0.3C786.8,728.9,786.9,728.9,786.9,728.9z"/>
			<path class="st5" d="M786.9,727.9c0.2,0.3,0.2,0.7,0,1l-50.3-97.1c0.3,0.1,0.6,0.2,0.8,0.6L786.9,727.9z"/>
			<path class="st4" d="M786.8,729l0.1,0.3h-0.4C786.7,729.1,786.7,729.1,786.8,729z"/>
			<path class="st4" d="M736.6,631.8l50.3,97.1c0,0,0,0.1-0.1,0.1L736.6,631.8z"/>
			<polygon class="st6" points="771.4,833.3 770.2,835 745.5,835 745.5,828 763.4,828 759.8,833.3 			"/>
			<polygon class="st5" points="770.2,835 767.6,838.8 745.4,871.7 745.5,835 			"/>
			<polygon class="st9" points="745.5,827.9 745.5,828 745.5,828 730,827.8 			"/>
			<polygon class="st9" points="745.5,828 745.5,835 724.8,835 724.9,827.8 730,827.8 745.5,828 			"/>
			<polygon class="st9" points="745.5,835 745.4,871.7 745.3,902 724.6,901.9 724.7,870.9 729.7,870.9 724.8,862.6 724.8,835 			"/>
			<path class="st0" d="M639.6,281.1c23.8,25.2,110.5,117.6,104.5,117.6c0,0-0.1,0-0.1,0v-1.3H578.3v1.1l-82.8-123.8h21.8v0.1H541
				l5.8,7.6l23,30v-0.1h69.9V281.1z"/>
			<path class="st5" d="M744.2,584.5v0.2H578.3v-0.3h165.3v-0.2C743.7,584.3,744,584.5,744.2,584.5z"/>
			<path class="st5" d="M744.2,580.4v4.1c-0.2-0.1-0.4-0.2-0.6-0.3v-0.8h0.5v-3H744.2z"/>
			<rect x="743.6" y="580.4" class="st1" width="0.5" height="3"/>
			<rect x="743.6" y="580.2" class="st1" width="0.5" height="0.3"/>
			<path class="st1" d="M744,528.1v52.1h-0.5v0.3h-4.5c-2.1-2.6-3.3-6-3.3-9.6v-29.1C735.8,535.8,739.2,530.6,744,528.1z"/>
			<path class="st1" d="M744,398.7v129.4c-4.9,2.5-8.3,7.7-8.3,13.7v29.1c0,3.6,1.2,7,3.3,9.6H578.3V398.7v-0.2l0.1,0.2
				C578.4,398.7,735.6,398.7,744,398.7z M718.4,484.9v-54.2h-34.5v54.2H718.4z M638.7,484.9v-54.2h-34.5v54.2H638.7z"/>
			<path class="st1" d="M744,397.4v1.3c-8.5,0-165.6,0-165.6,0l-0.1-0.2v-1.1H744z"/>
			<path class="st6" d="M743.6,584.2v0.2H578.3v-1h164C742.7,583.8,743.1,584,743.6,584.2z"/>
			<path class="st6" d="M743.6,583.5v0.8c-0.4-0.2-0.8-0.5-1.2-0.8H743.6z"/>
			<path class="st1" d="M743.6,580.4v3h-1.2c-1.2-0.8-2.3-1.9-3.2-3H743.6z"/>
			<path class="st1" d="M742.3,583.5h-164v-3h160.8C740,581.6,741.1,582.6,742.3,583.5z"/>
			<path class="st4" d="M735.8,630.2l0.8,1.5c-0.4-0.1-0.9,0.1-1.1,0.6l-50.1,95.2c-0.3,0.5-0.1,1,0.3,1.3h-1.7L735.8,630.2z"/>
			<polygon class="st6" points="730,827.8 724.9,827.8 724.8,835 708,835 703.6,827.7 724.8,827.8 			"/>
			<polygon class="st10" points="724.8,862.6 729.7,870.9 724.7,870.9 			"/>
			<polygon class="st5" points="724.8,835 724.8,862.6 724.7,862.6 710.3,838.8 708,835 			"/>
			<path class="st10" d="M724.8,862.6l0,8.3h-54.2h-16.2H643c-0.6-6.1-1.9-11.9-3.7-17.4c-0.2-0.7-0.5-1.5-0.7-2.2v-1.1
				c0-8.3,6.6-15.2,14.6-15.2H708l2.3,3.8L724.8,862.6L724.8,862.6z"/>
			<rect x="683.9" y="430.6" class="st0" width="34.5" height="54.2"/>
			<polygon class="st10" points="688.1,780.9 714.5,825.9 702.5,825.9 703.6,827.7 642.3,827.6 679.6,778.3 663.1,778.3 
				685.5,747.8 699.4,780.9 			"/>
			<path class="st10" d="M708,835h-54.8c-8,0-14.6,6.8-14.6,15.2v1.1c-3.6-10.3-9-19.8-15.9-28.3c-0.5-0.6-1-1.2-1.5-1.8
				c-1.3-1.6-2.9-3.3-4.4-4.9c-0.5-0.5-1-1.1-1.5-1.6l1.3-2.2l0.3-0.6c0.3,0,0.6-0.2,0.7-0.5l17.6-29.9l0.2-0.4h-0.4l0.1-0.1h-0.2
				l0.1-0.1h-9.9c-0.3-0.3-0.5-0.8-0.3-1.3l5.4-12.8l30.8-73.2c0.2-0.6,0.8-0.8,1.3-0.6l23,54.9l-22.4,30.5h16.5l-37.3,49.3
				l61.3,0.1L708,835z"/>
			<path class="st4" d="M699.3,728.8l-0.1,0.1l-13.6-0.1c0,0,0,0,0,0H699.3z"/>
			<path class="st6" d="M699.3,729l-0.5,0.7c0,0,0-0.1,0-0.1L699.3,729L699.3,729z"/>
			<path class="st5" d="M699.2,729l-0.5,0.7c-0.2-0.3-0.5-0.5-0.9-0.5h-11.5c-0.3,0-0.5-0.1-0.7-0.2L699.2,729z"/>
			<path class="st4" d="M698.8,729.7c0.2,0.3,0.1,0.7-0.1,1.1l-11.5,15.6c-0.2,0.3-0.6,0.5-1,0.4L698.8,729.7z"/>
			<path class="st6" d="M686.2,746.8l-0.7,1l-23-54.9c0,0,0,0,0.1,0l23,54.7L686.2,746.8C686.1,746.8,686.1,746.8,686.2,746.8z"/>
			<path class="st5" d="M686.1,746.8l-0.6,0.9l-23-54.7c0.3,0.1,0.5,0.3,0.6,0.6l22.2,52.7C685.5,746.5,685.8,746.8,686.1,746.8z"/>
			<path class="st4" d="M685.6,728.8C685.6,728.8,685.6,728.9,685.6,728.8h-1.7H685.6z"/>
			<rect x="654.3" y="870.9" class="st9" width="16.2" height="29.8"/>
			<path class="st10" d="M661.6,691l0.8,1.9c-0.5-0.1-1.1,0.1-1.3,0.6l-30.8,73.2l-5.4,12.8c-0.2,0.5,0,1,0.3,1.3h-1.4l6-14.2
				L661.6,691z"/>
			<path class="st6" d="M653.1,905.8H519.5v-1.3h113c2.6,0,5-0.9,6.7-2.3c0.9-0.8,1.7-1.7,2.2-2.7
				C644,903.4,648.3,905.8,653.1,905.8z"/>
			<path class="st5" d="M643.3,874.7c0,2,0.1,4.2,0.1,6.3c0,4.8-0.4,9.9-1.1,14.9c0,1.3-0.3,2.6-0.9,3.6c-1.8-2.5-2.8-5.6-2.8-8.9
				v-19.7h4.4C643.1,872.2,643.2,873.4,643.3,874.7z"/>
			<path class="st10" d="M643,870.9h-4.4v-19.7c0.2,0.7,0.5,1.5,0.7,2.2C641.1,859,642.3,864.8,643,870.9z"/>
			<path class="st4" d="M641.4,899.6c-0.5,1-1.3,1.9-2.2,2.7c-1.7,1.4-4.1,2.3-6.7,2.3h-113v-91h75.3c0.1,0,0.4,0,0.6,0
				c4.8-0.2,8.9-2.8,11.4-6.7c3,2.5,5.8,5,8.4,7.7l-1.6,2.7l-5,8.6h12.2l-27.3,45h45.1v19.7C638.6,894,639.6,897.1,641.4,899.6z"/>
			<path class="st1" d="M639.6,281.1v31.1h-69.9v-37.4h63.8C633.6,274.8,635.8,277.1,639.6,281.1z"/>
			<path class="st1" d="M639.6,233.9v47.2c-3.9-4-6.1-6.3-6.1-6.3h-63.8v-40.8l34.9-39.9L639.6,233.9z M622.1,248.6
				c0-10.1-7.8-18.2-17.5-18.2c-9.7,0-17.5,8.1-17.5,18.2c0,10,7.8,18.2,17.5,18.2C614.3,266.8,622.1,258.7,622.1,248.6z"/>
			<rect x="604.2" y="430.6" class="st0" width="34.5" height="54.2"/>
			<path class="st10" d="M638.6,851.3v19.7h-45.1l27.3-45l1.9-3C629.6,831.5,635,841,638.6,851.3z"/>
			<path class="st10" d="M635.5,781.1l-0.2,0.4l-17.6,29.9c-0.2,0.3-0.4,0.5-0.7,0.5l18-30.5l0.2-0.3H635.5z"/>
			<polygon class="st6" points="635.1,780.9 635.1,781.1 634.9,781.1 634.9,780.9 			"/>
			<path class="st10" d="M635,780.8l-0.1,0.1h-9.6c-0.1,0-0.1-0.1-0.2-0.1H635z"/>
			<path class="st5" d="M634.9,780.9l-0.1,0.1h-9c-0.2,0-0.4-0.1-0.5-0.1H634.9z"/>
			<path class="st10" d="M625.3,780.9h-1.6l0-0.1h1.4C625.2,780.9,625.3,780.9,625.3,780.9z"/>
			<path class="st10" d="M621.2,821.1c0.5,0.6,1,1.2,1.5,1.8l-1.9,3h-12.2l5-8.6l1.6-2.7c0.5,0.5,1,1,1.5,1.6
				C618.3,817.8,619.8,819.5,621.2,821.1z"/>
			<ellipse class="st0" cx="604.6" cy="248.6" rx="17.5" ry="18.2"/>
			<path class="st6" d="M616.9,811.8l-0.3,0.6l-1.3,2.2c-2.6-2.7-5.5-5.3-8.4-7.7c0.5-0.8,1-1.6,1.3-2.5c2.9,2.5,5.7,5.1,8.3,7.9
				l0.3-0.4C616.8,811.8,616.8,811.8,616.9,811.8z"/>
			<path class="st6" d="M609.4,774.4v24c0,2.1-0.4,4.1-1.2,5.9c-7.7-6.6-16.3-12.4-25.8-17.4c-1-0.5-2-1.1-3-1.6
				c-3.4-1.7-6.8-3.3-10.4-4.8c-10.8-4.6-22.5-8.1-34.5-10.4c-4.3-0.9-8.6-1.5-13-2.1c-0.5-0.1-1.1-0.2-1.7-0.2
				c-0.2-0.2-0.3-0.5-0.3-0.7v-21.8c2.6-2.3,5.9-3.8,9.6-3.8h45c8,0,14.6,6.8,14.6,15.2v2.5h6.1c3.6,0,6.9,1.4,9.5,3.7
				C607.4,765.6,609.4,769.8,609.4,774.4z"/>
			<path class="st6" d="M608.2,804.3c0,0.1,0,0.1-0.1,0.1c-7.7-6.6-16.3-12.5-25.7-17.5C591.9,791.8,600.5,797.7,608.2,804.3z"/>
			<path class="st6" d="M608.2,804.4c-0.4,0.9-0.8,1.7-1.3,2.5c-10.8-9.1-23.5-16.6-37.4-22.4c-10.9-4.6-22.5-8.1-34.5-10.4
				c-4.4-0.9-8.6-1.6-13-2.1c-0.9-0.1-1.7-0.1-2.4-0.3v-3.9c0.1,0,0.3,0,0.4,0c0.2,0.2,0.4,0.3,0.7,0.3c0.5,0,1,0.1,1.4,0.1
				c4.4,0.5,8.6,1.3,13,2.1c12,2.3,23.6,5.8,34.5,10.4c3.4,1.4,6.7,2.9,9.9,4.5c1,0.5,2,1,3,1.6
				C591.9,791.9,600.5,797.8,608.2,804.4z"/>
			<path class="st4" d="M606.8,806.9c-2.5,3.8-6.7,6.4-11.4,6.7c-0.2,0-0.5,0-0.6,0h-75.3v-41.8c0.7,0.1,1.6,0.1,2.4,0.3
				c4.4,0.5,8.6,1.3,13,2.1c12,2.3,23.6,5.8,34.5,10.4C583.3,790.3,596,797.8,606.8,806.9z"/>
			<polygon class="st7" points="604.6,194 569.8,233.4 517.3,233.4 552.3,194 			"/>
			<path class="st5" d="M578.3,584.5v0.3h-70.9c0-0.1,0-0.2,0-0.3H578.3z"/>
			<path class="st6" d="M578.3,583.5v1h-70.8c0.2-1.3,0.4-2.6,0.6-4h70.2V583.5z"/>
			<path class="st8" d="M578.3,398.7v181.8H508c0.1-1.5,0.2-3,0.2-4.7c0-22-12.9-40.7-31.3-48.5c-0.2-0.1-0.5-0.2-0.7-0.3
				c-5.8-2.5-12.2-3.8-18.9-3.8c-4.2,0-8.4,0.6-12.4,1.6c-5.3-16.6-17.1-30.3-32.3-37.5v-88.6H578.3z M551.7,484.9v-54.2h-34.5v54.2
				H551.7z M473.6,484.9v-54.2h-34.5v54.2H473.6z"/>
			<polygon class="st8" points="495.4,274.5 578.3,398.7 412.6,398.7 412.5,398.7 			"/>
			<path class="st6" d="M579.4,785.3c-3.2-1.6-6.5-3.1-9.9-4.5c-10.9-4.6-22.5-8.1-34.5-10.4c-4.4-0.9-8.6-1.6-13-2.1
				c-0.5-0.1-1-0.1-1.4-0.1c-0.3,0-0.5-0.2-0.7-0.3c0.6,0,1.1,0.1,1.7,0.2c4.4,0.6,8.8,1.3,13,2.1c12,2.3,23.7,5.8,34.5,10.4
				C572.6,782,576,783.6,579.4,785.3z"/>
			<polygon class="st8" points="569.8,274.8 569.8,312.2 546.8,282.4 541.1,274.9 541,274.7 540.9,274.7 540.8,274.5 517.3,274.5 
				517.3,233.4 569.8,233.4 569.8,233.9 			"/>
			<rect x="517.1" y="430.6" class="st3" width="34.5" height="54.2"/>
			<polygon class="st8" points="546.8,282.4 541,274.8 540.9,274.7 541,274.7 541.1,274.9 			"/>
			<polygon class="st1" points="540.9,274.7 541,274.8 517.3,274.8 517.3,274.7 			"/>
			<polygon class="st1" points="540.8,274.5 540.9,274.7 517.3,274.7 517.3,274.5 			"/>
			<path class="st6" d="M519.9,767.8c-0.1,0-0.3,0-0.4,0v-22.4c0,0,0.1-0.1,0.1-0.1v21.8C519.6,767.3,519.7,767.6,519.9,767.8z"/>
			<path class="st5" d="M519.6,740.3v4.9c0,0-0.1,0.1-0.1,0.1v-1.6l-0.4-0.7v-3.2l-56-112c0.1,0,0.2,0,0.2,0l-7-13.8l0.1-0.2l7,14
				l56,112C519.5,740,519.6,740.2,519.6,740.3z"/>
			<rect x="393.2" y="905.8" class="st1" width="126.3" height="0.1"/>
			<path class="st1" d="M519.5,904.6v1.3H393.2v-1.3V744.9v-0.8l0.2-0.3h125.7v2c-2.8,2.8-4.5,6.6-4.5,10.9v2.5h-7.3
				c-4.3,0-8.3,2-10.9,5.2c-1.1,1.1-1.8,2.5-2.4,3.9c-0.3,0.7-0.5,1.5-0.7,2.3h-23.5c-5.5,0-9.8,3.9-9.8,8.6V896
				c0,4.7,4.5,8.6,9.8,8.6H519.5z M440.5,831.9v-55.2h-26.3v55.2H440.5z"/>
			<path class="st1" d="M519.5,813.5v91h-49.7c-5.3,0-9.8-3.9-9.8-8.6V779.2c0-4.7,4.4-8.6,9.8-8.6h23.5c-0.3,1.2-0.5,2.5-0.5,3.8
				v2.3h-15.3v55.2h26.3V813c1.2,0.3,2.4,0.5,3.6,0.5H519.5z"/>
			<path class="st1" d="M519.5,771.7v41.8h-12.2c-1.3,0-2.5-0.2-3.6-0.5v-36.4h-10.9v-2.3c0-1.3,0.2-2.6,0.5-3.8h5.3
				C505.6,770.6,512.5,770.9,519.5,771.7z"/>
			<path class="st1" d="M519.5,767.8v3.9c-6.9-0.8-13.9-1.1-20.9-1.1h-5.3c0.2-0.8,0.4-1.5,0.7-2.3c0.6-1.4,1.3-2.8,2.4-3.9
				c2.7-3.2,6.7-5.2,10.9-5.2h7.3v-2.5c0-4.3,1.7-8.2,4.5-10.9v22.1C519.2,767.8,519.3,767.8,519.5,767.8z"/>
			<polygon class="st1" points="519.1,743 519.5,743.8 519.1,743.8 			"/>
			<path class="st1" d="M519.1,743v0.7H393.4l0.2-0.5L450.8,629l0.7-1.3c2.1,0.3,4.2,0.5,6.4,0.5c1.2,0,2.4,0,3.7-0.1l1.8,3.6
				L519.1,743z"/>
			<path class="st6" d="M519.1,739.8v3.2l-55.8-111.4l-1.8-3.6c0.5,0,1-0.1,1.6-0.2L519.1,739.8z"/>
			<path class="st0" d="M503.7,813v18.8h-26.3v-55.2h15.3v21.7c0,2.1,0.5,4.2,1.2,6.1C495.8,808.6,499.3,811.9,503.7,813z"/>
			<path class="st0" d="M503.7,776.6V813c-4.4-1.2-7.9-4.4-9.7-8.6c-0.7-1.9-1.2-3.9-1.2-6.1v-21.7H503.7z"/>
			<rect x="439.1" y="430.6" class="st3" width="34.5" height="54.2"/>
			<path class="st7" d="M456.3,614.1l7,13.8c-0.1,0-0.2,0-0.2,0l-0.1-0.3l-5.7-11.3l-1.1-2.1L456.3,614.1z"/>
			<path class="st6" d="M462.9,627.6l0.1,0.3c-0.5,0.1-1.1,0.1-1.6,0.2l-5.1-10.2l0.7-1.4l0.2-0.1L462.9,627.6z"/>
			<path class="st1" d="M456.4,617.8l5.1,10.2c-1.2,0.1-2.4,0.1-3.7,0.1c-2.2,0-4.3-0.2-6.4-0.5L456.4,617.8z"/>
			<path class="st5" d="M476.2,527c-5.7-2.3-11.8-3.6-18.3-3.6c-4.5,0-8.8,0.6-12.9,1.8c0-0.1-0.1-0.3-0.1-0.4
				c4-1.1,8.2-1.6,12.4-1.6C464,523.2,470.4,524.5,476.2,527z"/>
			<path class="st6" d="M456.2,614.2l1.1,2.1l-0.2,0.1l-31.1,0c-0.5-0.4-1-0.8-1.5-1.3h31h0.2L456.2,614.2z"/>
			<path class="st7" d="M457.1,616.4l-0.7,1.4l-0.1-0.2l-0.6,1.3l-4.3,8.8c-0.4,0-0.8-0.1-1.3-0.2c-0.2,0-0.4-0.1-0.6-0.1
				c-8.8-1.5-16.8-5.5-23.4-11L457.1,616.4z"/>
			<path class="st1" d="M456.3,617.6l0.1,0.2l-4.9,9.8c0,0-0.1,0-0.1,0l4.3-8.8L456.3,617.6z"/>
			<polygon class="st7" points="456.3,614.1 456.2,614.2 456.1,613.9 456.1,613.8 			"/>
			<polygon class="st7" points="456.2,614.2 455.8,615.1 455.5,615.1 456.1,613.9 			"/>
			<path class="st7" d="M451.5,627.6l-0.7,1.3l-57.2,114.3l-0.2,0.5h-0.2l56.4-112.6l1.7-3.5C451.4,627.6,451.4,627.7,451.5,627.6z"
				/>
			<path class="st7" d="M451.3,627.6l-1.7,3.5l-56.4,112.6v0.3l-0.2,0.5c0,0-42,0-78,0h-48.3v-5.4c1.3-2.3,3-5.1,5.1-8.4
				c0.6-1,1.3-2,2-3.1h8.8c8,0,14.6-6.8,14.6-15.2v-19.9c3.6-5.3,7.3-10.7,11-16.1c0.6-0.9,1.2-1.8,1.8-2.6c0.1-0.1,0.3-0.2,0.4-0.3
				c18.1-26.3,36-51.6,40-57.3l75.7,0.1c6.6,5.5,14.6,9.5,23.4,11c0.2,0,0.4,0.1,0.6,0.1C450.5,627.5,450.9,627.6,451.3,627.6z"/>
			<rect x="414.2" y="776.6" class="st0" width="26.3" height="55.2"/>
			<path class="st6" d="M426,616.4l-75.7-0.1c0.2-0.3,0.4-0.5,0.5-0.7c0.2-0.3,0.5-0.4,0.9-0.4h72.8
				C425,615.5,425.5,615.9,426,616.4z"/>
			<polygon class="st7" points="393.4,743.8 393.2,744.1 393.2,743.8 			"/>
			<rect x="346.9" y="904.6" class="st6" width="46.3" height="1.3"/>
			<path class="st8" d="M393.2,744.9v159.7h-46.3v-43.7c0-9-9-16.2-20.2-16.3c-11.2,0-20.2,7.3-20.2,16.3v43.7h-39.6V744.9H393.2z
				 M366.8,831.9v-55.2h-26.3v55.2H366.8z M314.2,831.9v-55.2h-26.3v55.2H314.2z"/>
			<path class="st6" d="M393.2,744.1v0.8H266.9v159.7h39.6v1.3h-38.8c-0.6,0-1.1-0.5-1.1-1.1V744.6H315c36,0,78,0,78,0L393.2,744.1z
				"/>
			<rect x="340.6" y="776.6" class="st3" width="26.3" height="55.2"/>
			<path class="st7" d="M350.2,616.3L350.2,616.3c-3.9,5.7-21.8,30.9-39.9,57.3c-0.1,0.2-0.2,0.3-0.4,0.3
				C330.4,644.1,350.2,616.3,350.2,616.3z"/>
			<rect x="306.5" y="905.8" class="st0" width="40.3" height="1.3"/>
			<rect x="306.5" y="904.6" class="st0" width="40.3" height="1.3"/>
			<path class="st0" d="M346.9,860.8v43.7h-40.3v-43.7c0-9,9-16.3,20.2-16.3C337.9,844.6,346.9,851.8,346.9,860.8z"/>
			<rect x="287.9" y="776.6" class="st3" width="26.3" height="55.2"/>
			<path class="st6" d="M309.9,673.9c-0.6,0.9-1.2,1.8-1.8,2.6c-3.7,5.4-7.4,10.8-11,16.1V672h4.9c2.2,0,4.2,0.5,6.1,1.5
				c0.1,0.1,0.3,0.1,0.4,0.2c0.3,0.2,0.5,0.3,0.8,0.5c0-0.1,0.1-0.1,0.1-0.1C309.5,674,309.7,674,309.9,673.9z"/>
			<path class="st7" d="M309.3,674c0,0.1-0.1,0.1-0.1,0.1c-0.3-0.2-0.5-0.3-0.8-0.5c0.1,0.1,0.3,0.2,0.4,0.2
				C309,673.9,309.1,674,309.3,674z"/>
			<path class="st7" d="M297.1,692.6v19.9c0,8.3-6.6,15.2-14.6,15.2h-8.8c5.6-8.8,13.3-20.1,21.5-32.3
				C295.8,694.4,296.4,693.5,297.1,692.6z"/>
			<path class="st4" d="M297.1,672v20.6c-0.6,0.9-1.2,1.8-1.8,2.7c-8.2,12.2-15.9,23.6-21.5,32.3h-7V673c0-0.6,0.5-1.1,1.1-1.1
				H297.1z"/>
			<path class="st6" d="M266.7,727.6h7c-0.7,1.1-1.3,2.1-2,3.1c-2.1,3.3-3.8,6.2-5.1,8.4V727.6z"/>
			<path class="st5" d="M271.5,606.2h-4.9V606h4.4c-2.2-4.1-3.7-8.6-4.4-13.3v-6.4C266.7,593.5,268.5,600.3,271.5,606.2z"/>
			<path class="st6" d="M271,606h-4.4v-13.3C267.4,597.4,268.9,601.9,271,606z"/>
			<path class="st4" d="M266.7,672h1.1c-0.6,0-1.1,0.5-1.1,1.1V672z"/>
			<path class="st5" d="M266.7,580.4h0.4c-0.2,1.8-0.4,3.6-0.4,5.6V580.4z"/>
			<path class="st7" d="M266.7,739.1v5.4h-0.3v-5C266.5,739.5,266.6,739.3,266.7,739.1z"/>
			<rect x="266.4" y="671.7" class="st5" width="0.3" height="0.3"/>
			<path class="st5" d="M266.7,606.2v65.5h-0.3v-7.9c0-1.3-0.1-2.6-0.2-3.9v-53.8H266.7z"/>
			<rect x="266.2" y="606" class="st5" width="0.5" height="0.3"/>
			<path class="st4" d="M266.4,744.6V890c0,3.7-0.6,7.3-1.8,10.1c-0.2,0.4-0.4,1-0.6,1.4c-0.2,0.4-0.5,1-0.8,1.4
				c-1.5,2.3-3.3,3.7-5.4,3.7H75.7c-4.7,0-8.5-7.5-8.5-16.6c0-66.7,14-127.3,36.6-171.4c7.6-14.8,16.2-27.7,25.5-38.4
				c-0.1,0.2-0.1,0.4-0.2,0.6c18.8-5.8,38.9-8.8,59.4-8.8h77.9v67.6c-1.3,2.4-2.1,4.1-2.1,4.7c0,0.1,0.1,0.3,0.3,0.3H266.4z"/>
			<path class="st7" d="M266.4,739.6v5h-1.8c-0.1,0-0.3-0.1-0.3-0.3C264.3,743.7,265.1,742,266.4,739.6z"/>
			<path class="st4" d="M266.4,671.7v0.3h-77.9c-20.5,0-40.6,3-59.4,8.8c0.1-0.2,0.1-0.4,0.2-0.6c8.7-9.9,18-17.8,27.8-23.4
				c11-6.2,22.6-9.7,34.7-9.7h66.1c1.6,0,3.2,1,4.5,2.6c1.9,2.4,3.2,6,3.7,10.2v11.7H266.4z"/>
			<path class="st4" d="M266.4,663.9v7.9h-0.2V660C266.3,661.2,266.4,662.5,266.4,663.9z"/>
			<path class="st5" d="M266.2,606.2V660c-0.5-4.3-1.9-7.9-3.7-10.2c-1.3-1.7-2.9-2.6-4.5-2.6h-66.1c-12.1,0-23.7,3.5-34.7,9.7
				c-9.8,5.6-19.1,13.5-27.8,23.4c5-16.3,13.8-30.9,25.1-42.8c18.5-19.2,44-31.2,72.1-31.2H266.2z"/>
		</g>
		<g>
			<polygon class="st12" points="1386.8,574.5 1386.9,574.6 1387.2,575 1387.2,603.3 1387.2,903.5 1387.2,904.6 1103.9,904.6 
				1103.5,904.6 1103.4,904.6 1025,904.6 1025,903.5 1025,850.2 1025,776.9 1025,774.4 1025,732 1025,699.8 1025,658.2 1025,634.4 
				1025,579.1 1025,576.5 1026.4,574.6 1043.8,551 1050.6,541.8 1196.1,344.6 1212.3,364.1 1220.6,374 1220.7,374.1 1257.4,418.4 
				1266.9,429.8 1318.9,492.6 1321.7,496 1336.5,513.8 1371.9,556.5 1385.8,573.3 			"/>
			<path class="st12" d="M1130,840.8c0,0.2,0.1,0.4,0.1,0.6"/>
			<path class="st12" d="M1217.9,836.9c0,0,0,0.1-0.1,0.1c-0.1,0.3-0.5,0.9-0.9,1.8c-1.7,3.3-4.9,9.9-4.9,10.9
				c0,1.3-24.1,19.3-24.1,19.3l0.4,26.5c-2.3,7.6-7.2,7.7-7.2,7.7s-26.3,0-48.3,0.3c-14.9,0.2-27.9,0.5-29.4,0.9
				c-0.1,0-0.1,0-0.1,0.1l0-1l-0.1-5.3c0,0,0.1,0,0.1,0c19.4-0.4,28.8-15.7,28.8-15.7c3.1-3.9,2.2-15.9,0.6-26.6c0-0.1,0-0.1,0-0.2
				c-0.1-0.7-0.2-1.3-0.3-2c0-0.1,0-0.1,0-0.1c-0.1-0.7-0.2-1.3-0.3-2c-0.3-1.9-0.7-3.7-1-5.4c-0.1-0.3-0.1-0.6-0.2-0.9
				c-0.1-0.3-0.1-0.5-0.2-0.8c0-0.2-0.1-0.3-0.1-0.5c-0.2-0.9-0.4-1.8-0.5-2.6c0-0.2-0.1-0.4-0.1-0.6c-0.2-0.8-0.3-1.5-0.5-2
				c-0.1-0.4-0.2-0.7-0.2-1c0-0.1,0-0.2-0.1-0.3c0-0.3-0.1-0.4-0.1-0.4"/>
			<path class="st12" d="M1222.3,828.5c-0.1,2.5-1.1,5.4-4.4,8.4l-88.7,0.3"/>
			<path class="st12" d="M1205.7,821.9l14.4-0.1c0,0,1.9,2.3,2.2,5.7"/>
			<path class="st12" d="M1244.5,868.7L1244.5,868.7C1244.5,868.8,1244.5,868.8,1244.5,868.7"/>
			<path class="st12" d="M1128.9,823.3l4.9-0.1l-19.6-83.2c0,0,2.3-6.3,7.3-0.1l22,83.1l18.2-0.3l43.8-0.8h0.2h0l14.4-0.3
				c0,0,2,2.4,2.2,5.9c0,0.3,0,0.7,0,1c-0.1,2.5-1.2,5.3-4.4,8.3"/>
			<path class="st12" d="M1110.2,897.6c-1,0.2-2,0.4-3.1,0.5"/>
			<path class="st12" d="M1113,896.8c-0.8,0.2-1.5,0.4-2.3,0.6"/>
			<path class="st12" d="M1119.9,893.9c-0.4,0.2-0.8,0.4-1.2,0.6"/>
			<path class="st12" d="M1103.4,898.4l0.1,5.2l0,0.9v0.1v0.1c0-0.1,0.2-0.1,0.4-0.1c3.1-0.6,23.5-0.9,42.6-1
				c18-0.1,34.8-0.1,34.8-0.1s4.9-0.1,7.2-7.7l-0.4-26.5c0,0,24.1-18.1,24.1-19.3c0-0.9,3.3-7.7,4.9-11c0.5-1.1,0.9-1.8,0.9-1.8
				h-0.2l-88.5,0.3c0,0,0.1,0.5,0.4,1.5c1.6,7.1,8,37.2,2.8,44c-0.1-0.1-3.4,5.3-10.2,9.7"/>
			<path class="st12" d="M1103.4,898.2l-6.6-48l-7.2-53.1l-2.8-20.2l-1.3-9.7c0,0,9.8-23.5,27-7.6c0.7,0.6,1.4,1.3,2.1,2l14.3,61.7
				l0.2,13.9"/>
			<path class="st12" d="M1283,706.1C1283,706.1,1283,706.1,1283,706.1v0.1"/>
		</g>
	</g>
	<path class="st4" d="M263.9,740.8c-3.1-31.2-6.1-62.3-9.2-93.5h72.6C306.2,678.4,285.1,709.6,263.9,740.8z"/>
	<path class="st4" d="M1795,913.7H57.5v18c0,4.7,3.8,8.5,8.5,8.5h1720.4c4.7,0,8.5-3.8,8.5-8.5V913.7z"/>
	<path class="st10" d="M1786.5,887.1H66.1c-4.7,0-8.5,3.8-8.5,8.5v18H1795v-18C1795,890.9,1791.2,887.1,1786.5,887.1z"/>
	<path class="st11" d="M1190.8,734.3h14.6c0,0,8.1,62.5,26.4,62.5l-7.3,3.7c-7.7-3.3-8.5-8.9-13.5-18.3c-13.1-11.5-22.6-16.3-6.8-36
		c1.7-2.2,2.9,15.5,1.2,21.1c-3.4,11-15.3,23.7-23.9,27.9c14.6,3.7,44.4-3.6,57.7,5.1l-5.9,69.8l12.9,5.9l3.9,9.3l-25.6-7.9
		l-0.3-14.9c0,0-5.3-36.3-1.7-43.6c0,0-35.8,3.4-57.7,3.4c0,0-21.7-7.3-10.7-36.6L1190.8,734.3z"/>
	<path class="st11" d="M1191.8,734.3v-7.2c0,0-18-7.4,4.5-25.7c0,0,9-7.3,18,0c0,0,22.4,21.9-9,29.3v11L1191.8,734.3z"/>
</g>
<g id="TH_Background">
</g>
<g id="TH_buildings">
</g>
<g id="TH_Details">
</g>
<g id="Toilet_person">
</g>
</svg>
