<?xml version="1.0" encoding="utf-8"?>
<!-- Generator: Adobe Illustrator 23.0.3, SVG Export Plug-In . SVG Version: 6.00 Build 0)  -->
<svg version="1.1" xmlns="http://www.w3.org/2000/svg" xmlns:xlink="http://www.w3.org/1999/xlink" x="0px" y="0px"
	 viewBox="0 0 1678 1080" style="enable-background:new 0 0 1678 1080;" xml:space="preserve">
<style type="text/css">
	.st0{fill:#3282FF;}
	.st1{clip-path:url(#SVGID_2_);fill:#61A814;}
	.st2{clip-path:url(#SVGID_2_);fill:#70B526;}
	.st3{clip-path:url(#SVGID_2_);fill:#76BF28;}
	.st4{opacity:0.7;}
	.st5{fill:#0071BC;}
</style>
<g id="Layer_4">
	<path class="st0" d="M1679,57.3l-0.5,254.7L0.7,293.1V109.1l0,0c0,0,1162.9-96.4,1683.3-51.7"/>
</g>
<g id="Layer_1">
	<g>
		<defs>
			<rect id="SVGID_1_" y="-0.4" width="1678" height="1080.4"/>
		</defs>
		<clipPath id="SVGID_2_">
			<use xlink:href="#SVGID_1_"  style="overflow:visible;"/>
		</clipPath>
		<path class="st1" d="M0,239.1c19.9,3.7,44.9,7.5,74,10c16.3,1.4,44.6,3.3,84,2.7c35.6-0.6,66.1-3,140.1-12
			c74.5-9,111.7-13.5,146.1-19.3c70.7-11.9,94.3-20.3,175.4-37.9c44.3-9.6,108.3-22.6,187.4-35.3c40.4-3.8,139-12.6,236.8-16.6
			c22.1-0.9,59-2.4,108-2.7c30.5-0.1,56.2,0.2,75.4,0.7c149.8-6.2,299.7-12.4,449.5-18.6l2.7-2.7V1080H0V239.1z"/>
		<rect x="4" y="388.1" class="st2" width="1675.3" height="396.5"/>
		<path class="st2" d="M679.4,402.8H10.2c-6.3,0-11.5-5.2-11.5-11.5v-7.6c0-6.3,5.2-11.5,11.5-11.5h669.3c6.3,0,11.5,5.2,11.5,11.5
			v7.6C690.9,397.6,685.8,402.8,679.4,402.8z"/>
		<path class="st2" d="M634.1,372.2H8.8c-6.3,0-11.5-5.2-11.5-11.5v-7.6c0-6.3,5.2-11.5,11.5-11.5h625.3c6.3,0,11.5,5.2,11.5,11.5
			v7.6C645.6,367,640.4,372.2,634.1,372.2z"/>
		<path class="st2" d="M943.5,369.5H693.1c-6.3,0-11.5-5.2-11.5-11.5v-7.6c0-6.3,5.2-11.5,11.5-11.5h250.4c6.3,0,11.5,5.2,11.5,11.5
			v7.6C955,364.3,949.9,369.5,943.5,369.5z"/>
		<path class="st2" d="M1670.5,393.5h-669.3c-6.3,0-11.5-5.2-11.5-11.5v-7.6c0-6.3,5.2-11.5,11.5-11.5h669.3
			c6.3,0,11.5,5.2,11.5,11.5v7.6C1682,388.3,1676.8,393.5,1670.5,393.5z"/>
		<path class="st2" d="M684.8,329.6h-42.4c-6.3,0-11.5-5.2-11.5-11.5v-7.6c0-6.3,5.2-11.5,11.5-11.5h42.4c6.3,0,11.5,5.2,11.5,11.5
			v7.6C696.3,324.4,691.1,329.6,684.8,329.6z"/>
		<path class="st2" d="M1678.5,316.3h-250.4c-6.3,0-11.5-5.2-11.5-11.5v-7.6c0-6.3,5.2-11.5,11.5-11.5h250.4
			c6.3,0,11.5,5.2,11.5,11.5v7.6C1690,311.1,1684.8,316.3,1678.5,316.3z"/>
		<path class="st2" d="M1389,315h-42.4c-6.3,0-11.5-5.2-11.5-11.5v-7.6c0-6.3,5.2-11.5,11.5-11.5h42.4c6.3,0,11.5,5.2,11.5,11.5v7.6
			C1400.5,309.8,1395.4,315,1389,315z"/>
		<path class="st2" d="M1066.3,332.3H931.9c-6.3,0-11.5-5.2-11.5-11.5v-7.6c0-6.3,5.2-11.5,11.5-11.5h134.4
			c6.3,0,11.5,5.2,11.5,11.5v7.6C1077.8,327.1,1072.6,332.3,1066.3,332.3z"/>
		<path class="st2" d="M1543.8,364.2h-387.8c-6.3,0-11.5-5.2-11.5-11.5v-7.6c0-6.3,5.2-11.5,11.5-11.5h387.8
			c6.3,0,11.5,5.2,11.5,11.5v7.6C1555.3,359,1550.1,364.2,1543.8,364.2z"/>
		<path class="st2" d="M402,341.6H14.2c-6.3,0-11.5-5.2-11.5-11.5v-7.6c0-6.3,5.2-11.5,11.5-11.5H402c6.3,0,11.5,5.2,11.5,11.5v7.6
			C413.5,336.4,408.3,341.6,402,341.6z"/>
		<path class="st2" d="M1078.3,416.1H690.4c-6.3,0-11.5-5.2-11.5-11.5V397c0-6.3,5.2-11.5,11.5-11.5h387.8c6.3,0,11.5,5.2,11.5,11.5
			v7.6C1089.8,410.9,1084.6,416.1,1078.3,416.1z"/>
		<path class="st1" d="M684.8,436H296.9c-6.3,0-11.5-5.2-11.5-11.5v-7.6c0-6.3,5.2-11.5,11.5-11.5h387.8c6.3,0,11.5,5.2,11.5,11.5
			v7.6C696.3,430.9,691.1,436,684.8,436z"/>
		<path class="st1" d="M1674.5,490.6h-445.2c-6.3,0-11.5-5.2-11.5-11.5v-10.3c0-6.3,5.2-11.5,11.5-11.5h445.2
			c6.3,0,11.5,5.2,11.5,11.5v10.3C1686,485.4,1680.8,490.6,1674.5,490.6z"/>
		<path class="st1" d="M1565.1,444h-445.2c-6.3,0-11.5-5.2-11.5-11.5v-10.3c0-6.3,5.2-11.5,11.5-11.5h445.2
			c6.3,0,11.5,5.2,11.5,11.5v10.3C1576.6,438.8,1571.4,444,1565.1,444z"/>
		<path class="st1" d="M149.9,486.6H10.2c-6.3,0-11.5-5.2-11.5-11.5v-7.6c0-6.3,5.2-11.5,11.5-11.5h139.7c6.3,0,11.5,5.2,11.5,11.5
			v7.6C161.4,481.4,156.2,486.6,149.9,486.6z"/>
		<path class="st1" d="M253.9,434.7h-46.4c-6.3,0-11.5-5.2-11.5-11.5v-7.6c0-6.3,5.2-11.5,11.5-11.5h46.4c6.3,0,11.5,5.2,11.5,11.5
			v7.6C265.4,429.5,260.3,434.7,253.9,434.7z"/>
		<path class="st1" d="M1194.3,486.6h-46.4c-6.3,0-11.5-5.2-11.5-11.5v-7.6c0-6.3,5.2-11.5,11.5-11.5h46.4c6.3,0,11.5,5.2,11.5,11.5
			v7.6C1205.8,481.4,1200.6,486.6,1194.3,486.6z"/>
		<path class="st1" d="M800.8,518.5H671.8c-6.3,0-11.5-5.2-11.5-11.5v-7.6c0-6.3,5.2-11.5,11.5-11.5h129.1c6.3,0,11.5,5.2,11.5,11.5
			v7.6C812.3,513.4,807.1,518.5,800.8,518.5z"/>
		<path class="st1" d="M879.5,519.9h-46.4c-6.3,0-11.5-5.2-11.5-11.5v-7.6c0-6.3,5.2-11.5,11.5-11.5h46.4c6.3,0,11.5,5.2,11.5,11.5
			v7.6C891,514.7,885.8,519.9,879.5,519.9z"/>
		<path class="st1" d="M639.4,518.5h-46.4c-6.3,0-11.5-5.2-11.5-11.5v-7.6c0-6.3,5.2-11.5,11.5-11.5h46.4c6.3,0,11.5,5.2,11.5,11.5
			v7.6C650.9,513.4,645.7,518.5,639.4,518.5z"/>
		<rect x="-1.3" y="734.1" class="st3" width="1679.3" height="347.3"/>
		<path class="st2" d="M1674.5,762h-387.8c-6.3,0-11.5-5.2-11.5-11.5v-7.6c0-6.3,5.2-11.5,11.5-11.5h387.8c6.3,0,11.5,5.2,11.5,11.5
			v7.6C1686,756.8,1680.8,762,1674.5,762z"/>
		<path class="st2" d="M390,760.7H2.2c-6.3,0-11.5-5.2-11.5-11.5v-7.6c0-6.3,5.2-11.5,11.5-11.5H390c6.3,0,11.5,5.2,11.5,11.5v7.6
			C401.5,755.5,396.3,760.7,390,760.7z"/>
		<path class="st2" d="M598.1,811.2H210.2c-6.3,0-11.5-5.2-11.5-11.5v-7.6c0-6.3,5.2-11.5,11.5-11.5h387.8c6.3,0,11.5,5.2,11.5,11.5
			v7.6C609.6,806.1,604.4,811.2,598.1,811.2z"/>
		<path class="st3" d="M466,707.5H78.2c-6.3,0-11.5-5.2-11.5-11.5v-7.6c0-6.3,5.2-11.5,11.5-11.5H466c6.3,0,11.5,5.2,11.5,11.5v7.6
			C477.5,702.3,472.3,707.5,466,707.5z"/>
		<path class="st2" d="M1185,763.3H518.4c-6.3,0-11.5-5.2-11.5-11.5v-7.6c0-6.3,5.2-11.5,11.5-11.5H1185c6.3,0,11.5,5.2,11.5,11.5
			v7.6C1196.5,758.2,1191.3,763.3,1185,763.3z"/>
		<path class="st2" d="M1128.9,809.9H878.5c-6.3,0-11.5-5.2-11.5-11.5v-7.6c0-6.3,5.2-11.5,11.5-11.5h250.4
			c6.3,0,11.5,5.2,11.5,11.5v7.6C1140.4,804.7,1135.3,809.9,1128.9,809.9z"/>
		<path class="st2" d="M1213,807.2h-42.4c-6.3,0-11.5-5.2-11.5-11.5v-7.6c0-6.3,5.2-11.5,11.5-11.5h42.4c6.3,0,11.5,5.2,11.5,11.5
			v7.6C1224.5,802.1,1219.3,807.2,1213,807.2z"/>
		<path class="st2" d="M875.5,845.8h-42.4c-6.3,0-11.5-5.2-11.5-11.5v-7.6c0-6.3,5.2-11.5,11.5-11.5h42.4c6.3,0,11.5,5.2,11.5,11.5
			v7.6C887,840.7,881.8,845.8,875.5,845.8z"/>
		<path class="st2" d="M171.2,809.9h-42.4c-6.3,0-11.5-5.2-11.5-11.5v-7.6c0-6.3,5.2-11.5,11.5-11.5h42.4c6.3,0,11.5,5.2,11.5,11.5
			v7.6C182.7,804.7,177.6,809.9,171.2,809.9z"/>
		<path class="st2" d="M1586.5,861.8h-459.9c-6.3,0-11.5-5.2-11.5-11.5v-7.6c0-6.3,5.2-11.5,11.5-11.5h459.9
			c6.3,0,11.5,5.2,11.5,11.5v7.6C1598,856.6,1592.8,861.8,1586.5,861.8z"/>
		<path class="st3" d="M744.8,660.9H357c-6.3,0-11.5-5.2-11.5-11.5v-7.6c0-6.3,5.2-11.5,11.5-11.5h387.8c6.3,0,11.5,5.2,11.5,11.5
			v7.6C756.3,655.7,751.1,660.9,744.8,660.9z"/>
		<path class="st3" d="M720.8,734.1H567.7c-6.3,0-11.5-5.2-11.5-11.5V715c0-6.3,5.2-11.5,11.5-11.5h153.1c6.3,0,11.5,5.2,11.5,11.5
			v7.6C732.3,728.9,727.1,734.1,720.8,734.1z"/>
		<path class="st3" d="M1665.2,691.5h-338.5c-6.3,0-11.5-5.2-11.5-11.5v-7.6c0-6.3,5.2-11.5,11.5-11.5h338.5
			c6.3,0,11.5,5.2,11.5,11.5v7.6C1676.7,686.3,1671.5,691.5,1665.2,691.5z"/>
		<path class="st3" d="M1266.3,690.2h-234.4c-6.3,0-11.5-5.2-11.5-11.5v-7.6c0-6.3,5.2-11.5,11.5-11.5h234.4
			c6.3,0,11.5,5.2,11.5,11.5v7.6C1277.8,685,1272.7,690.2,1266.3,690.2z"/>
		<path class="st3" d="M986.2,688.8h-35.7c-6.3,0-11.5-5.2-11.5-11.5v-7.6c0-6.3,5.2-11.5,11.5-11.5h35.7c6.3,0,11.5,5.2,11.5,11.5
			v7.6C997.7,683.7,992.5,688.8,986.2,688.8z"/>
		<path class="st3" d="M798.2,732.7h-35.7c-6.3,0-11.5-5.2-11.5-11.5v-7.6c0-6.3,5.2-11.5,11.5-11.5h35.7c6.3,0,11.5,5.2,11.5,11.5
			v7.6C809.7,727.6,804.5,732.7,798.2,732.7z"/>
		<path class="st3" d="M322,659.6h-35.7c-6.3,0-11.5-5.2-11.5-11.5v-7.6c0-6.3,5.2-11.5,11.5-11.5H322c6.3,0,11.5,5.2,11.5,11.5v7.6
			C333.5,654.4,328.3,659.6,322,659.6z"/>
		<path class="st3" d="M1369,732.7h-35.7c-6.3,0-11.5-5.2-11.5-11.5v-7.6c0-6.3,5.2-11.5,11.5-11.5h35.7c6.3,0,11.5,5.2,11.5,11.5
			v7.6C1380.5,727.6,1375.4,732.7,1369,732.7z"/>
		<path class="st3" d="M1658.5,646.3h-35.7c-6.3,0-11.5-5.2-11.5-11.5v-7.6c0-6.3,5.2-11.5,11.5-11.5h35.7c6.3,0,11.5,5.2,11.5,11.5
			v7.6C1670,641.1,1664.8,646.3,1658.5,646.3z"/>
	</g>
	<g>
		<path class="st0" d="M1284.2,181.5c5.8,10.6,15.9,14.2,22.3,24.5c25.1,41.6,13.4,98.7,34.6,145.4c9.6,21.1,27.3,38.3,42.4,56.8
			c92,113,83.1,276.3,188.8,379.2c3.2,3,13.3,13.4,25.5,28.4c22,27.3,33,48.8,52.4,87.4c0,0,9.5,19,26,76.4c0.2,1,0.8,2.9,0.9,5.3v1
			c0,1.2-0.2,2.5-0.6,3.9c-1.1,4.2-3.6,6.8-4.2,7.6c-3.3,3.8-6.9,13.1-7.8,37.1c2.5,8.1,4.4,18.2,3.8,29.6
			c-0.2,4.7-0.6,10.9-2.6,17.9h-157.6c-1.4-14.4,1.8-18.6,4.9-20c3.8-1.6,7.2,1.7,15.7,2.5c9.6,0.9,16.7-2.2,25.1-5.8
			c8.8-3.8,17.8-7.6,23.3-16.1c3.5-5.2,1.3-5.9,5.3-22.9c3.7-16,6.1-18,5.2-25.6c-0.8-7.6-3.4-8.5-6.5-18.1
			c-3.7-12.1-0.5-13.9-2.4-30.9c-1.6-14.8-4.1-15.2-6.9-34.9c-1.6-11-1.1-12.8-2.1-21.9c-2.1-17.6-6.5-30.8-10.1-41.4
			c-11.5-34.5-31.4-65-39.4-76.8c-46.3-74.1-62.6-128.8-68.6-166.1c-3.3-20.6-10.6-80.6-55.3-143.5c-22.4-29.9-39.1-48.2-51.9-64.5
			c-12.7-16.3-21.5-30.8-27.8-52.9c-11.4-39.7,0.9-82.8-16.2-120.8c-6.2-13.8-20.7-32.1-22.3-34.6c-17.4-24.5-34.1-42.5-54.4-59.2
			l337.1-13.5c-0.5,0.4-8.9,12-9.4,19.2c-0.4,7.6,5,14.7,10.5,20.6c13.3,14.5,28.6,27.5,45.6,38.5c19,12.3,40.9,23.1,52.1,41.4
			c7.8,12.7,9.5,27.5,11.8,41.8c1.5,9.6,3.4,19.2,5.6,28.7v116.1c-8.2-23-15.2-46.4-21.6-69.7c-9.1-33-17.2-66.2-24.5-99.6
			c-1.7-7.7-3.3-15.6-7.6-22.4c-4.4-7.2-11.3-13-18-18.6c-24.7-20.6-49.2-41-73.9-61.6c-3.8-3.1-7.7-6.3-12.2-8.4
			c-17.1-7.9-36.3,2-54.4,6.7c-34.2,8.9-72.1-1.7-107.3,4.3c-24,4.1-46.5,9.8-71.7,6C1273.1,159.6,1278.3,171,1284.2,181.5z"/>
	</g>
	<g>
		<path class="st0" d="M1216.6,1079.8c-14.1-34.6-28.6-61.8-40-80.9c-27.3-45.7-37.1-47.3-81.2-106.4c0,0-20.3-27.2-42.4-43.6
			c-10.1-7.6-17.8-11.7-22.7-14.5c-32-18.3-54.8-45-71.9-65c-35.8-41.8-26.4-49.3-67.6-100.9c-12.3-15.5-22.7-33-34.9-48.7
			c-8.8-11.1-19.9-21.5-20.4-36.6c-0.3-9.9-0.7-19.5,2.9-28.5c9.4-24.1,19.5-49.2,37.1-65.8c7.6-7.2,16.7-12.9,21.6-22.8
			c9.7-19.6-3.2-46.1-21-55c-17.8-8.8-37.9-5-56.8-1.2c-31.8,6.5-63.8,13.1-95.6,19.6c-6.2,1.3-14.2,1.6-17-5
			c-1.6-3.7-0.8-8.2,0.1-12.3c7.8-33.8,22.5-65.4,42.7-91.2c4.8-6.2,10.2-12.5,11.9-20.7c5.6-25.7-24.1-41.5-18.3-67.2
			c0.3-1.3,4.2-8,11.9-21.3c10.1-17.2,15.2-26.3,22.5-36.9c6.2-9.1,15.4-13.6,27.8-27.5c-9.7,0.4-19.5,3.9-29.2,4.3
			c-4.2,12.6-10.9,17.2-21.2,33.8c-14.2,22.7-30.2,38.6-42.7,49.1c-15.5-2.3-33.9,0.8-49.5,3.3c-8.5,1.5-17.9,4.2-26.3,0.8
			c-6.8-2.8-9.8-11.1-8.1-20.6c-5,4.9-16,13.3-21.1,16.2c-7.3,4.2-30.6,3.3-34.7,3.7c-3.3,0.4,1.1-9.3,6.1-14.5
			c5.3-5.4-20.2,8-22.8,9.3c-7.7,4.1-18.3,1.1-26.5,0.4c-13-1.1-29.6,4.4-38.5,0.4c12.1,6.5,43.1,5.6,55.6,11.9
			c51.8,26.4,103.6,2.3,155.9,13.5c10.1,2.1,20.6,6.4,25.7,17c7.4,15.1,6.2,34.2-3.7,47.1c-14.2,18.4-33.4,30.8-47.2,49.6
			c-13.9,18.8-21.2,48.8-8,68.2c9.9,14.5,27.6,17.5,43.4,16.2c49.6-4.5,98.5-42.6,145.9-24.5c1.3,19.9-11.8,37.3-26.1,47.7
			c-14.3,10.5-30.8,17-43.8,29.7c-11.7,11.5-19.8,27.3-30.8,39.8c-13.4,15.1-30.5,24.5-47.2,33.4c-24.9,13.3-50.3,26.1-76.8,33.8
			c-29,8.5-59.1,10.5-88.8,15.6c-65.8,11.5-128.9,38.6-189.6,70.5c32.2-9.5,64.4-19.1,96.7-28.8c24-7.2,48.1-14.3,72.7-16.7
			c22.5-2.3,45.2-0.4,67.8-2c39.8-2.8,83-16,118.2-38.7c21.5-13.9,42-31.8,62.3-17c18.2,13.3,17.1,48.9,3.7,68.7s-33.3,20.4-50.7,35
			c-31.7,26.5-72.9,32.4-105,39c-19.2,4-30.6,4.9-49.7,9.8c-14.9,4-29.3,6.1-43.8,11.8c-27.1,10.6-58.2,21.3-83.1,37.5
			c-13.8,9-26.8,15-39.8,25.6c-29.8,24.5-54.8,57.7-91.5,79.3c-7.7,4.5-12.6,8.2-16.7,12.1c0,0-10.5,9.3-19.6,23.1
			c-10.7,16.2-33.2,67.2-56.8,139c68.7,0.4,137.5,0.9,206.2,1.3c-36.3-35.9-47.2-52.9-48.3-61c-0.1-1.1-0.7-6.4-2.4-13.3
			c-1.3-5.7-2.5-8.1-4.8-15.9c0,0-1.7-6.1-3.4-12.9c-2.7-11.1-1.3-38.2,15.2-65.2c10.6-17.1,22-27.6,35.7-40.8
			c13.8-13.3,27.1-29,43.4-39.3c16.3-10.1,35.5-14.3,52.9-18.6c12.3-2.9,24.8-10.5,37.1-13.4c15.1-3.6,30-10.3,44.7-15.9
			c23.2-8.8,47.9-14.6,71.9-23.6c20.6-7.8,40.4-18.2,58.1-31.2c24.4-17.8,38.7-20.8,67.4-31.3c3-1.2,2.9-0.4,5.6-0.8
			c22.1-4.1,25.2-14.5,33.3-13.4c14.3,1.7,13.9,34.5,41.9,59.5c2.9,2.7,3.4,2.7,6.4,5.4c11.9,11.7,14.6,21.1,26,41.1
			c8.2,14.7,18.4,28.4,38.9,55.7c36.3,48.7,61.4,63.4,86.1,92.8c22.3,26.5,49.2,69.4,61.3,140.6L1216.6,1079.8z"/>
	</g>
	<g class="st4">
		<path class="st5" d="M90.1,325.5c1.9-1.6,4.5-4.1,7-7.8c2.8-4.2,4-7.8,4.5-9.4c3-8.4,8.2-11.7,26.6-38.3c4.9-7.1,4.9-7.1,9.8-17.2
			l-13.6-4.9c-3.6,13.1-8.6,20.9-16.8,30.2c-5.3,6.1-10.6,12.1-16,18.1c-3.6,4.1-7.3,8.2-9.8,13.3c-9,18.1-6.2,39.9-4.1,52.1
			c3.2,18.9,7.1,17.7,8.3,33.3c1.3,17-3.6,16.8-2.4,37c0.5,9,2.5,18.2,2.1,34.6c-0.1,4.4-0.3,8.7-1.2,12.8
			c-1.5,6.7-4.6,12.5-7.9,18.2c-7,12-14.7,23.5-23,34.5l1.7-3.4c-9.9,11.5-20,23.1-31.7,31.8c-15.1,11-13.8,6.3-29.6,16.2v179.5
			c11.2-11,16.9-26,20.6-42.6c2.5-10.8,3-21.9,3.8-33.1c1.2-15.4,2.9-30.8,5.2-45.9c1.3-9.2,6-13.7,6.6-24.2
			c0.7-9.8-1.6-12-0.8-18.9c1.1-9.2,6.5-16.4,19.8-28.6c20.8-19.1,24.3-17.2,32.8-26.5c16.1-17.8,18.6-42.2,20.9-63
			c0.5-5.5,1.7-18.9-2.9-59.5c-2.1-18.1-5.4-42.6-11-71.8C89.5,336.6,89.9,331,90.1,325.5z"/>
	</g>
</g>
<g id="Layer_3">
</g>
</svg>
