<?xml version="1.0" encoding="utf-8"?>
<!-- Generator: Adobe Illustrator 24.0.0, SVG Export Plug-In . SVG Version: 6.00 Build 0)  -->
<svg version="1.1" xmlns="http://www.w3.org/2000/svg" xmlns:xlink="http://www.w3.org/1999/xlink" x="0px" y="0px"
	 viewBox="0 0 1691 818" style="enable-background:new 0 0 1691 818;" xml:space="preserve">
<g id="Behind_corn">
	<g>
		<rect x="217.4" y="414.9" style="fill:#CCCCCC;" width="10.2" height="99.1"/>
		<path style="fill:#CCCCCC;" d="M230.6,374.6v26.2c0,4.2-3.5,7.7-7.7,7.7c0,0-0.1,0-0.1,0v-41.7c0,0,0.1,0,0.1,0
			c2.1,0,4.1,0.9,5.5,2.3C229.7,370.5,230.6,372.5,230.6,374.6z"/>
		<path style="fill:#CCCCCC;" d="M217.2,411.5c0,1.5,0.2,3,0.5,4.4c0,0.1,0.1,0.3,0.1,0.4h9.2l0.1-0.1l18.6-22.6
			c-2.6-1.3-5.5-2-8.6-2c-3.6,0-7,1-10,2.7c-4.7,2.7-8.2,7.3-9.4,12.8C217.4,408.5,217.2,410,217.2,411.5z"/>
		<path style="fill:#CCCCCC;" d="M223,366.9v41.7c-4.2-0.1-7.6-3.5-7.6-7.7v-26.2C215.4,370.4,218.8,366.9,223,366.9z"/>
		<path style="fill:#CCCCCC;" d="M227.8,411.9c0,1.5-0.2,3-0.5,4.4c0,0.1-0.1,0.3-0.1,0.4h-9.1l-0.1-0.1l-18.4-22.4
			c2.6-1.2,5.5-1.9,8.5-1.9c3.6,0,7,1,9.9,2.7c4.6,2.7,8.1,7.2,9.3,12.6C227.6,408.9,227.8,410.4,227.8,411.9z"/>
		<path style="fill:#CCCCCC;" d="M217.5,455.5c0,1.5,0.2,3,0.5,4.4c0,0.1,0.1,0.3,0.1,0.4h9.2l0.1-0.1l18.6-22.6
			c-2.6-1.3-5.5-2-8.6-2c-3.6,0-7,1-10,2.7c-4.7,2.7-8.2,7.3-9.4,12.8C217.7,452.5,217.5,454,217.5,455.5z"/>
		<path style="fill:#CCCCCC;" d="M227.6,493.1c0,1.5-0.2,3-0.5,4.4c0,0.1-0.1,0.3-0.1,0.4h-9.2l-0.1-0.1l-18.6-22.6
			c2.6-1.3,5.5-2,8.6-2c3.6,0,7,1,10,2.7c4.7,2.7,8.2,7.3,9.4,12.8C227.5,490.1,227.6,491.6,227.6,493.1z"/>
	</g>
	<g>
		<rect x="276.4" y="404.9" style="fill:#CCCCCC;" width="10.2" height="99.1"/>
		<path style="fill:#CCCCCC;" d="M289.6,364.6v26.2c0,4.2-3.5,7.7-7.7,7.7c0,0-0.1,0-0.1,0v-41.7c0,0,0.1,0,0.1,0
			c2.1,0,4.1,0.9,5.5,2.3C288.7,360.5,289.6,362.5,289.6,364.6z"/>
		<path style="fill:#CCCCCC;" d="M276.2,401.5c0,1.5,0.2,3,0.5,4.4c0,0.1,0.1,0.3,0.1,0.4h9.2l0.1-0.1l18.6-22.6
			c-2.6-1.3-5.5-2-8.6-2c-3.6,0-7,1-10,2.7c-4.7,2.7-8.2,7.3-9.4,12.8C276.4,398.5,276.2,400,276.2,401.5z"/>
		<path style="fill:#CCCCCC;" d="M282,356.9v41.7c-4.2-0.1-7.6-3.5-7.6-7.7v-26.2C274.4,360.4,277.8,356.9,282,356.9z"/>
		<path style="fill:#CCCCCC;" d="M286.8,401.9c0,1.5-0.2,3-0.5,4.4c0,0.1-0.1,0.3-0.1,0.4h-9.1l-0.1-0.1l-18.4-22.4
			c2.6-1.2,5.5-1.9,8.5-1.9c3.6,0,7,1,9.9,2.7c4.6,2.7,8.1,7.2,9.3,12.6C286.6,398.9,286.8,400.4,286.8,401.9z"/>
		<path style="fill:#CCCCCC;" d="M276.5,445.5c0,1.5,0.2,3,0.5,4.4c0,0.1,0.1,0.3,0.1,0.4h9.2l0.1-0.1l18.6-22.6
			c-2.6-1.3-5.5-2-8.6-2c-3.6,0-7,1-10,2.7c-4.7,2.7-8.2,7.3-9.4,12.8C276.7,442.5,276.5,444,276.5,445.5z"/>
		<path style="fill:#CCCCCC;" d="M286.6,483.1c0,1.5-0.2,3-0.5,4.4c0,0.1-0.1,0.3-0.1,0.4h-9.2l-0.1-0.1l-18.6-22.6
			c2.6-1.3,5.5-2,8.6-2c3.6,0,7,1,10,2.7c4.7,2.7,8.2,7.3,9.4,12.8C286.5,480.1,286.6,481.6,286.6,483.1z"/>
	</g>
	<g>
		<rect x="338.4" y="396.9" style="fill:#CCCCCC;" width="10.2" height="99.1"/>
		<path style="fill:#CCCCCC;" d="M351.6,356.6v26.2c0,4.2-3.5,7.7-7.7,7.7c0,0-0.1,0-0.1,0v-41.7c0,0,0.1,0,0.1,0
			c2.1,0,4.1,0.9,5.5,2.3C350.7,352.5,351.6,354.5,351.6,356.6z"/>
		<path style="fill:#CCCCCC;" d="M338.2,393.5c0,1.5,0.2,3,0.5,4.4c0,0.1,0.1,0.3,0.1,0.4h9.2l0.1-0.1l18.6-22.6
			c-2.6-1.3-5.5-2-8.6-2c-3.6,0-7,1-10,2.7c-4.7,2.7-8.2,7.3-9.4,12.8C338.4,390.5,338.2,392,338.2,393.5z"/>
		<path style="fill:#CCCCCC;" d="M344,348.9v41.7c-4.2-0.1-7.6-3.5-7.6-7.7v-26.2C336.4,352.4,339.8,348.9,344,348.9z"/>
		<path style="fill:#CCCCCC;" d="M348.8,393.9c0,1.5-0.2,3-0.5,4.4c0,0.1-0.1,0.3-0.1,0.4h-9.1l-0.1-0.1l-18.4-22.4
			c2.6-1.2,5.5-1.9,8.5-1.9c3.6,0,7,1,9.9,2.7c4.6,2.7,8.1,7.2,9.3,12.6C348.6,390.9,348.8,392.4,348.8,393.9z"/>
		<path style="fill:#CCCCCC;" d="M338.5,437.5c0,1.5,0.2,3,0.5,4.4c0,0.1,0.1,0.3,0.1,0.4h9.2l0.1-0.1l18.6-22.6
			c-2.6-1.3-5.5-2-8.6-2c-3.6,0-7,1-10,2.7c-4.7,2.7-8.2,7.3-9.4,12.8C338.7,434.5,338.5,436,338.5,437.5z"/>
		<path style="fill:#CCCCCC;" d="M348.6,475.1c0,1.5-0.2,3-0.5,4.4c0,0.1-0.1,0.3-0.1,0.4h-9.2l-0.1-0.1l-18.6-22.6
			c2.6-1.3,5.5-2,8.6-2c3.6,0,7,1,10,2.7c4.7,2.7,8.2,7.3,9.4,12.8C348.5,472.1,348.6,473.6,348.6,475.1z"/>
	</g>
	<g>
		<rect x="402.4" y="391.9" style="fill:#CCCCCC;" width="10.2" height="99.1"/>
		<path style="fill:#CCCCCC;" d="M415.6,351.6v26.2c0,4.2-3.5,7.7-7.7,7.7c0,0-0.1,0-0.1,0v-41.7c0,0,0.1,0,0.1,0
			c2.1,0,4.1,0.9,5.5,2.3C414.7,347.5,415.6,349.5,415.6,351.6z"/>
		<path style="fill:#CCCCCC;" d="M402.2,388.5c0,1.5,0.2,3,0.5,4.4c0,0.1,0.1,0.3,0.1,0.4h9.2l0.1-0.1l18.6-22.6
			c-2.6-1.3-5.5-2-8.6-2c-3.6,0-7,1-10,2.7c-4.7,2.7-8.2,7.3-9.4,12.8C402.4,385.5,402.2,387,402.2,388.5z"/>
		<path style="fill:#CCCCCC;" d="M408,343.9v41.7c-4.2-0.1-7.6-3.5-7.6-7.7v-26.2C400.4,347.4,403.8,343.9,408,343.9z"/>
		<path style="fill:#CCCCCC;" d="M412.8,388.9c0,1.5-0.2,3-0.5,4.4c0,0.1-0.1,0.3-0.1,0.4h-9.1l-0.1-0.1l-18.4-22.4
			c2.6-1.2,5.5-1.9,8.5-1.9c3.6,0,7,1,9.9,2.7c4.6,2.7,8.1,7.2,9.3,12.6C412.6,385.9,412.8,387.4,412.8,388.9z"/>
		<path style="fill:#CCCCCC;" d="M402.5,432.5c0,1.5,0.2,3,0.5,4.4c0,0.1,0.1,0.3,0.1,0.4h9.2l0.1-0.1l18.6-22.6
			c-2.6-1.3-5.5-2-8.6-2c-3.6,0-7,1-10,2.7c-4.7,2.7-8.2,7.3-9.4,12.8C402.7,429.5,402.5,431,402.5,432.5z"/>
		<path style="fill:#CCCCCC;" d="M412.6,470.1c0,1.5-0.2,3-0.5,4.4c0,0.1-0.1,0.3-0.1,0.4h-9.2l-0.1-0.1l-18.6-22.6
			c2.6-1.3,5.5-2,8.6-2c3.6,0,7,1,10,2.7c4.7,2.7,8.2,7.3,9.4,12.8C412.5,467.1,412.6,468.6,412.6,470.1z"/>
	</g>
	<g>
		<rect x="466.4" y="388.9" style="fill:#CCCCCC;" width="10.2" height="99.1"/>
		<path style="fill:#CCCCCC;" d="M479.6,348.6v26.2c0,4.2-3.5,7.7-7.7,7.7c0,0-0.1,0-0.1,0v-41.7c0,0,0.1,0,0.1,0
			c2.1,0,4.1,0.9,5.5,2.3C478.7,344.5,479.6,346.5,479.6,348.6z"/>
		<path style="fill:#CCCCCC;" d="M466.2,385.5c0,1.5,0.2,3,0.5,4.4c0,0.1,0.1,0.3,0.1,0.4h9.2l0.1-0.1l18.6-22.6
			c-2.6-1.3-5.5-2-8.6-2c-3.6,0-7,1-10,2.7c-4.7,2.7-8.2,7.3-9.4,12.8C466.4,382.5,466.2,384,466.2,385.5z"/>
		<path style="fill:#CCCCCC;" d="M472,340.9v41.7c-4.2-0.1-7.6-3.5-7.6-7.7v-26.2C464.4,344.4,467.8,340.9,472,340.9z"/>
		<path style="fill:#CCCCCC;" d="M476.8,385.9c0,1.5-0.2,3-0.5,4.4c0,0.1-0.1,0.3-0.1,0.4h-9.1l-0.1-0.1l-18.4-22.4
			c2.6-1.2,5.5-1.9,8.5-1.9c3.6,0,7,1,9.9,2.7c4.6,2.7,8.1,7.2,9.3,12.6C476.6,382.9,476.8,384.4,476.8,385.9z"/>
		<path style="fill:#CCCCCC;" d="M466.5,429.5c0,1.5,0.2,3,0.5,4.4c0,0.1,0.1,0.3,0.1,0.4h9.2l0.1-0.1l18.6-22.6
			c-2.6-1.3-5.5-2-8.6-2c-3.6,0-7,1-10,2.7c-4.7,2.7-8.2,7.3-9.4,12.8C466.7,426.5,466.5,428,466.5,429.5z"/>
		<path style="fill:#CCCCCC;" d="M476.6,467.1c0,1.5-0.2,3-0.5,4.4c0,0.1-0.1,0.3-0.1,0.4h-9.2l-0.1-0.1l-18.6-22.6
			c2.6-1.3,5.5-2,8.6-2c3.6,0,7,1,10,2.7c4.7,2.7,8.2,7.3,9.4,12.8C476.5,464.1,476.6,465.6,476.6,467.1z"/>
	</g>
	<g>
		<rect x="529.4" y="389.9" style="fill:#CCCCCC;" width="10.2" height="99.1"/>
		<path style="fill:#CCCCCC;" d="M542.6,349.6v26.2c0,4.2-3.5,7.7-7.7,7.7c0,0-0.1,0-0.1,0v-41.7c0,0,0.1,0,0.1,0
			c2.1,0,4.1,0.9,5.5,2.3C541.7,345.5,542.6,347.5,542.6,349.6z"/>
		<path style="fill:#CCCCCC;" d="M529.2,386.5c0,1.5,0.2,3,0.5,4.4c0,0.1,0.1,0.3,0.1,0.4h9.2l0.1-0.1l18.6-22.6
			c-2.6-1.3-5.5-2-8.6-2c-3.6,0-7,1-10,2.7c-4.7,2.7-8.2,7.3-9.4,12.8C529.4,383.5,529.2,385,529.2,386.5z"/>
		<path style="fill:#CCCCCC;" d="M535,341.9v41.7c-4.2-0.1-7.6-3.5-7.6-7.7v-26.2C527.4,345.4,530.8,341.9,535,341.9z"/>
		<path style="fill:#CCCCCC;" d="M539.8,386.9c0,1.5-0.2,3-0.5,4.4c0,0.1-0.1,0.3-0.1,0.4h-9.1l-0.1-0.1l-18.4-22.4
			c2.6-1.2,5.5-1.9,8.5-1.9c3.6,0,7,1,9.9,2.7c4.6,2.7,8.1,7.2,9.3,12.6C539.6,383.9,539.8,385.4,539.8,386.9z"/>
		<path style="fill:#CCCCCC;" d="M529.5,430.5c0,1.5,0.2,3,0.5,4.4c0,0.1,0.1,0.3,0.1,0.4h9.2l0.1-0.1l18.6-22.6
			c-2.6-1.3-5.5-2-8.6-2c-3.6,0-7,1-10,2.7c-4.7,2.7-8.2,7.3-9.4,12.8C529.7,427.5,529.5,429,529.5,430.5z"/>
		<path style="fill:#CCCCCC;" d="M539.6,468.1c0,1.5-0.2,3-0.5,4.4c0,0.1-0.1,0.3-0.1,0.4h-9.2l-0.1-0.1l-18.6-22.6
			c2.6-1.3,5.5-2,8.6-2c3.6,0,7,1,10,2.7c4.7,2.7,8.2,7.3,9.4,12.8C539.5,465.1,539.6,466.6,539.6,468.1z"/>
	</g>
	<g>
		<rect x="590.4" y="392.9" style="fill:#CCCCCC;" width="10.2" height="99.1"/>
		<path style="fill:#CCCCCC;" d="M603.6,352.6v26.2c0,4.2-3.5,7.7-7.7,7.7c0,0-0.1,0-0.1,0v-41.7c0,0,0.1,0,0.1,0
			c2.1,0,4.1,0.9,5.5,2.3C602.7,348.5,603.6,350.5,603.6,352.6z"/>
		<path style="fill:#CCCCCC;" d="M590.2,389.5c0,1.5,0.2,3,0.5,4.4c0,0.1,0.1,0.3,0.1,0.4h9.2l0.1-0.1l18.6-22.6
			c-2.6-1.3-5.5-2-8.6-2c-3.6,0-7,1-10,2.7c-4.7,2.7-8.2,7.3-9.4,12.8C590.4,386.5,590.2,388,590.2,389.5z"/>
		<path style="fill:#CCCCCC;" d="M596,344.9v41.7c-4.2-0.1-7.6-3.5-7.6-7.7v-26.2C588.4,348.4,591.8,344.9,596,344.9z"/>
		<path style="fill:#CCCCCC;" d="M600.8,389.9c0,1.5-0.2,3-0.5,4.4c0,0.1-0.1,0.3-0.1,0.4h-9.1l-0.1-0.1l-18.4-22.4
			c2.6-1.2,5.5-1.9,8.5-1.9c3.6,0,7,1,9.9,2.7c4.6,2.7,8.1,7.2,9.3,12.6C600.6,386.9,600.8,388.4,600.8,389.9z"/>
		<path style="fill:#CCCCCC;" d="M590.5,433.5c0,1.5,0.2,3,0.5,4.4c0,0.1,0.1,0.3,0.1,0.4h9.2l0.1-0.1l18.6-22.6
			c-2.6-1.3-5.5-2-8.6-2c-3.6,0-7,1-10,2.7c-4.7,2.7-8.2,7.3-9.4,12.8C590.7,430.5,590.5,432,590.5,433.5z"/>
		<path style="fill:#CCCCCC;" d="M600.6,471.1c0,1.5-0.2,3-0.5,4.4c0,0.1-0.1,0.3-0.1,0.4h-9.2l-0.1-0.1l-18.6-22.6
			c2.6-1.3,5.5-2,8.6-2c3.6,0,7,1,10,2.7c4.7,2.7,8.2,7.3,9.4,12.8C600.5,468.1,600.6,469.6,600.6,471.1z"/>
	</g>
</g>
<g id="Layer_7">
	<path style="fill:#9AAE47;" d="M632.3,496.7c7.2,0,134.1-158.2,466.8-127.9c0,0,438.1,33.7,541.9,260.8S648.4,675,648.4,675
		L632.3,496.7"/>
	<path style="fill:#BCC96D;" d="M24.2,657.3c2.1-15.5,9.7-53.1,43.9-88.6c28.6-29.8,62-43.7,78.9-49.5
		c74.1-18.5,170.5-36.1,284.2-40.5c153.7-6,281.7,14.2,371,34.8c18.3,1.9,93.5,11.5,144.7,67.3C971,607,981,634,985.5,651.3
		C665.1,653.3,344.7,655.3,24.2,657.3z"/>
</g>
<g id="background_crops">
	<path style="fill:#003E51;" d="M228.2,976.9"/>
	<path style="fill:#9AAE47;" d="M1671.3,720.1H20.7v-81.5c0-9.2,7.5-16.7,16.7-16.7h1617.2c9.2,0,16.7,7.5,16.7,16.7V720.1z"/>
	<path style="fill:#9AAE47;" d="M1671.3,720.1v81.5c0,4.9-2.1,9.3-5.4,12.3c-3,2.7-6.9,4.4-11.3,4.4H37.4c-5.3,0-10.1-2.5-13.2-6.4
		c-2.2-2.8-3.6-6.4-3.6-10.3v-81.5H1671.3z"/>
	<path style="fill:#009245;" d="M491.8,272.8"/>
	<path style="fill:none;stroke:#FF931E;stroke-width:5;stroke-miterlimit:10;" d="M1053.1,620.1"/>
	<path style="fill:none;stroke:#FF931E;stroke-width:5;stroke-miterlimit:10;" d="M834.9,427"/>
	<path style="fill:none;stroke:#FF931E;stroke-width:5;stroke-miterlimit:10;" d="M1132.1,2.8"/>
	<path style="fill:#FFDF5C;" d="M1683.3,745.8H9.7c-4.8,0-8.7-3.9-8.7-8.7v-30.6c0-6,4.8-10.8,10.8-10.8h1670.3c4.9,0,8.9,4,8.9,8.9
		v33.4C1691,742.4,1687.6,745.8,1683.3,745.8z"/>
	<path style="fill:#BCC96D;" d="M388.3,809h-148c-3.6,0-6.5-2.9-6.5-6.5l0,0c0-3.6,2.9-6.5,6.5-6.5h148c3.6,0,6.5,2.9,6.5,6.5l0,0
		C394.8,806.1,391.9,809,388.3,809z"/>
	<path style="fill:#BCC96D;" d="M714.8,793.4H428.2c-3.3,0-6-2.7-6-6l0,0c0-3.3,2.7-6,6-6h286.7c3.3,0,6,2.7,6,6l0,0
		C720.8,790.7,718.1,793.4,714.8,793.4z"/>
	<path style="fill:#BCC96D;" d="M117.9,782.5c0,1.8-0.7,3.4-1.9,4.6c-1.2,1.2-2.8,1.9-4.6,1.9H20.7v-13h90.8
		C115,776,117.9,778.9,117.9,782.5z"/>
	<path style="fill:#BCC96D;" d="M206.1,788.6h-67.5c-3.6,0-6.5-2.9-6.5-6.5l0,0c0-3.6,2.9-6.5,6.5-6.5h67.5c3.6,0,6.5,2.9,6.5,6.5
		l0,0C212.6,785.7,209.7,788.6,206.1,788.6z"/>
	<path style="fill:#BCC96D;" d="M424.5,772H307.4c-3.6,0-6.5-2.9-6.5-6.5l0,0c0-3.6,2.9-6.5,6.5-6.5h117.1c3.6,0,6.5,2.9,6.5,6.5
		l0,0C431,769.1,428.1,772,424.5,772z"/>
	<path style="fill:#BCC96D;" d="M683.5,765H459.6c-3.3,0-6-2.7-6-6l0,0c0-3.3,2.7-6,6-6h223.8c3.3,0,6,2.7,6,6l0,0
		C689.5,762.3,686.8,765,683.5,765z"/>
	<path style="fill:#BCC96D;" d="M86.8,805.5c0,1.8-0.7,3.4-1.9,4.6c-1.2,1.2-2.8,1.9-4.6,1.9h-56c-2.2-2.8-3.6-6.4-3.6-10.3V799
		h59.6C83.9,799,86.8,801.9,86.8,805.5z"/>
	<path style="fill:#BCC96D;" d="M858.5,809H741.4c-3.6,0-6.5-2.9-6.5-6.5l0,0c0-3.6,2.9-6.5,6.5-6.5h117.1c3.6,0,6.5,2.9,6.5,6.5
		l0,0C865,806.1,862.1,809,858.5,809z"/>
	<path style="fill:#BCC96D;" d="M883.1,764.6h-67.5c-3.6,0-6.5-2.9-6.5-6.5l0,0c0-3.6,2.9-6.5,6.5-6.5h67.5c3.6,0,6.5,2.9,6.5,6.5
		l0,0C889.6,761.7,886.7,764.6,883.1,764.6z"/>
	<path style="fill:#BCC96D;" d="M1181.8,794.4H895.2c-3.3,0-6-2.7-6-6l0,0c0-3.3,2.7-6,6-6h286.7c3.3,0,6,2.7,6,6l0,0
		C1187.8,791.7,1185.1,794.4,1181.8,794.4z"/>
	<path style="fill:#BCC96D;" d="M1045.5,774H928.4c-3.6,0-6.5-2.9-6.5-6.5l0,0c0-3.6,2.9-6.5,6.5-6.5h117.1c3.6,0,6.5,2.9,6.5,6.5
		l0,0C1052,771.1,1049.1,774,1045.5,774z"/>
	<path style="fill:#BCC96D;" d="M1372.2,773h-148c-3.6,0-6.5-2.9-6.5-6.5l0,0c0-3.6,2.9-6.5,6.5-6.5h148c3.6,0,6.5,2.9,6.5,6.5l0,0
		C1378.7,770.1,1375.8,773,1372.2,773z"/>
	<path style="fill:#BCC96D;" d="M1283.1,809.6h-67.5c-3.6,0-6.5-2.9-6.5-6.5l0,0c0-3.6,2.9-6.5,6.5-6.5h67.5c3.6,0,6.5,2.9,6.5,6.5
		l0,0C1289.6,806.7,1286.7,809.6,1283.1,809.6z"/>
	<path style="fill:#BCC96D;" d="M1609,796h-223.8c-3.3,0-6-2.7-6-6l0,0c0-3.3,2.7-6,6-6H1609c3.3,0,6,2.7,6,6l0,0
		C1615,793.3,1612.3,796,1609,796z"/>
	<path style="fill:#BCC96D;" d="M1493.1,772.6h-67.5c-3.6,0-6.5-2.9-6.5-6.5l0,0c0-3.6,2.9-6.5,6.5-6.5h67.5c3.6,0,6.5,2.9,6.5,6.5
		l0,0C1499.6,769.7,1496.7,772.6,1493.1,772.6z"/>
	<path style="fill:#BCC96D;" d="M1671.3,801v0.7c0,4.9-2.1,9.3-5.4,12.3H1619c-3.6,0-6.5-2.9-6.5-6.5c0-1.8,0.7-3.4,1.9-4.6
		c1.2-1.2,2.8-1.9,4.6-1.9H1671.3z"/>
	<path style="fill:#BCC96D;" d="M1671.3,753v13H1552c-3.6,0-6.5-2.9-6.5-6.5c0-1.8,0.7-3.4,1.9-4.6c1.2-1.2,2.8-1.9,4.6-1.9H1671.3z
		"/>
</g>
<g id="front_corn">
	<g>
		<g>
			<rect x="247.5" y="487.6" style="fill:#6B932E;" width="15.6" height="151.2"/>
			<path style="fill:#F14929;" d="M209.7,510v1.2h-0.3C209.6,510.8,209.7,510.4,209.7,510z"/>
			<path style="fill:#EAAD00;" d="M267.5,426v40c0,6.5-5.3,11.8-11.8,11.8c-0.1,0-0.1,0-0.2,0v-63.6c0.1,0,0.1,0,0.2,0
				c3.2,0,6.2,1.3,8.3,3.5C266.2,419.9,267.5,422.8,267.5,426z"/>
			<path style="fill:#699628;" d="M247.1,482.4c0,2.3,0.3,4.6,0.8,6.7c0.1,0.2,0.1,0.5,0.2,0.7h14l0.2-0.2l28.4-34.5
				c-4-1.9-8.5-3-13.2-3c-5.6,0-10.8,1.5-15.2,4.1c-7.2,4.2-12.5,11.2-14.3,19.5C247.4,477.8,247.1,480.1,247.1,482.4z"/>
			<path style="fill:#FDD625;" d="M256,414.3v63.6c-6.4-0.1-11.6-5.4-11.6-11.8v-40C244.4,419.6,249.6,414.4,256,414.3z"/>
			<path style="fill:#BCC96D;" d="M263.3,482.9c0,2.3-0.3,4.5-0.7,6.7c0,0.2-0.1,0.4-0.2,0.7h-13.9l-0.2-0.2l-28.1-34.2
				c3.9-1.9,8.4-3,13-3c5.5,0,10.6,1.5,15.1,4.1c7.1,4.1,12.3,11.1,14.2,19.3C263.1,478.4,263.3,480.6,263.3,482.9z"/>
			<path style="fill:#699628;" d="M247.6,549.5c0,2.3,0.3,4.6,0.8,6.7c0.1,0.2,0.1,0.5,0.2,0.7h14l0.2-0.2l28.4-34.5
				c-4-1.9-8.5-3-13.2-3c-5.6,0-10.8,1.5-15.2,4.1c-7.2,4.2-12.5,11.2-14.3,19.5C247.9,545,247.6,547.2,247.6,549.5z"/>
			<path style="fill:#699628;" d="M263.1,606.9c0,2.3-0.3,4.6-0.8,6.7c-0.1,0.2-0.1,0.5-0.2,0.7h-14l-0.2-0.2l-28.4-34.5
				c4-1.9,8.5-3,13.2-3c5.6,0,10.8,1.5,15.2,4.1c7.2,4.2,12.5,11.2,14.3,19.5C262.8,602.3,263.1,604.6,263.1,606.9z"/>
		</g>
		<g>
			<rect x="157.5" y="487.6" style="fill:#6B932E;" width="15.6" height="151.2"/>
			<path style="fill:#F14929;" d="M119.7,510v1.2h-0.3C119.6,510.8,119.7,510.4,119.7,510z"/>
			<path style="fill:#EAAD00;" d="M177.5,426v40c0,6.5-5.3,11.8-11.8,11.8c-0.1,0-0.1,0-0.2,0v-63.6c0.1,0,0.1,0,0.2,0
				c3.2,0,6.2,1.3,8.3,3.5C176.2,419.9,177.5,422.8,177.5,426z"/>
			<path style="fill:#699628;" d="M157.1,482.4c0,2.3,0.3,4.6,0.8,6.7c0.1,0.2,0.1,0.5,0.2,0.7h14l0.2-0.2l28.4-34.5
				c-4-1.9-8.5-3-13.2-3c-5.6,0-10.8,1.5-15.2,4.1c-7.2,4.2-12.5,11.2-14.3,19.5C157.4,477.8,157.1,480.1,157.1,482.4z"/>
			<path style="fill:#FDD625;" d="M166,414.3v63.6c-6.4-0.1-11.6-5.4-11.6-11.8v-40C154.4,419.6,159.6,414.4,166,414.3z"/>
			<path style="fill:#BCC96D;" d="M173.3,482.9c0,2.3-0.3,4.5-0.7,6.7c0,0.2-0.1,0.4-0.2,0.7h-13.9l-0.2-0.2l-28.1-34.2
				c3.9-1.9,8.4-3,13-3c5.5,0,10.6,1.5,15.1,4.1c7.1,4.1,12.3,11.1,14.2,19.3C173.1,478.4,173.3,480.6,173.3,482.9z"/>
			<path style="fill:#699628;" d="M157.6,549.5c0,2.3,0.3,4.6,0.8,6.7c0.1,0.2,0.1,0.5,0.2,0.7h14l0.2-0.2l28.4-34.5
				c-4-1.9-8.5-3-13.2-3c-5.6,0-10.8,1.5-15.2,4.1c-7.2,4.2-12.5,11.2-14.3,19.5C157.9,545,157.6,547.2,157.6,549.5z"/>
			<path style="fill:#699628;" d="M173.1,606.9c0,2.3-0.3,4.6-0.8,6.7c-0.1,0.2-0.1,0.5-0.2,0.7h-14l-0.2-0.2l-28.4-34.5
				c4-1.9,8.5-3,13.2-3c5.6,0,10.8,1.5,15.2,4.1c7.2,4.2,12.5,11.2,14.3,19.5C172.8,602.3,173.1,604.6,173.1,606.9z"/>
		</g>
		<g>
			<rect x="335.5" y="488.6" style="fill:#6B932E;" width="15.6" height="151.2"/>
			<path style="fill:#F14929;" d="M297.7,511v1.2h-0.3C297.6,511.8,297.7,511.4,297.7,511z"/>
			<path style="fill:#EAAD00;" d="M355.5,427v40c0,6.5-5.3,11.8-11.8,11.8c-0.1,0-0.1,0-0.2,0v-63.6c0.1,0,0.1,0,0.2,0
				c3.2,0,6.2,1.3,8.3,3.5C354.2,420.9,355.5,423.8,355.5,427z"/>
			<path style="fill:#699628;" d="M335.1,483.4c0,2.3,0.3,4.6,0.8,6.7c0.1,0.2,0.1,0.5,0.2,0.7h14l0.2-0.2l28.4-34.5
				c-4-1.9-8.5-3-13.2-3c-5.6,0-10.8,1.5-15.2,4.1c-7.2,4.2-12.5,11.2-14.3,19.5C335.4,478.8,335.1,481.1,335.1,483.4z"/>
			<path style="fill:#FDD625;" d="M344,415.3v63.6c-6.4-0.1-11.6-5.4-11.6-11.8v-40C332.4,420.6,337.6,415.4,344,415.3z"/>
			<path style="fill:#BCC96D;" d="M351.3,483.9c0,2.3-0.3,4.5-0.7,6.7c0,0.2-0.1,0.4-0.2,0.7h-13.9l-0.2-0.2l-28.1-34.2
				c3.9-1.9,8.4-3,13-3c5.5,0,10.6,1.5,15.1,4.1c7.1,4.1,12.3,11.1,14.2,19.3C351.1,479.4,351.3,481.6,351.3,483.9z"/>
			<path style="fill:#699628;" d="M335.6,550.5c0,2.3,0.3,4.6,0.8,6.7c0.1,0.2,0.1,0.5,0.2,0.7h14l0.2-0.2l28.4-34.5
				c-4-1.9-8.5-3-13.2-3c-5.6,0-10.8,1.5-15.2,4.1c-7.2,4.2-12.5,11.2-14.3,19.5C335.9,546,335.6,548.2,335.6,550.5z"/>
			<path style="fill:#699628;" d="M351.1,607.9c0,2.3-0.3,4.6-0.8,6.7c-0.1,0.2-0.1,0.5-0.2,0.7h-14l-0.2-0.2l-28.4-34.5
				c4-1.9,8.5-3,13.2-3c5.6,0,10.8,1.5,15.2,4.1c7.2,4.2,12.5,11.2,14.3,19.5C350.8,603.3,351.1,605.6,351.1,607.9z"/>
		</g>
		<g>
			<rect x="425.5" y="488.6" style="fill:#6B932E;" width="15.6" height="151.2"/>
			<path style="fill:#F14929;" d="M387.7,511v1.2h-0.3C387.6,511.8,387.7,511.4,387.7,511z"/>
			<path style="fill:#EAAD00;" d="M445.5,427v40c0,6.5-5.3,11.8-11.8,11.8c-0.1,0-0.1,0-0.2,0v-63.6c0.1,0,0.1,0,0.2,0
				c3.2,0,6.2,1.3,8.3,3.5C444.2,420.9,445.5,423.8,445.5,427z"/>
			<path style="fill:#699628;" d="M425.1,483.4c0,2.3,0.3,4.6,0.8,6.7c0.1,0.2,0.1,0.5,0.2,0.7h14l0.2-0.2l28.4-34.5
				c-4-1.9-8.5-3-13.2-3c-5.6,0-10.8,1.5-15.2,4.1c-7.2,4.2-12.5,11.2-14.3,19.5C425.4,478.8,425.1,481.1,425.1,483.4z"/>
			<path style="fill:#FDD625;" d="M434,415.3v63.6c-6.4-0.1-11.6-5.4-11.6-11.8v-40C422.4,420.6,427.6,415.4,434,415.3z"/>
			<path style="fill:#BCC96D;" d="M441.3,483.9c0,2.3-0.3,4.5-0.7,6.7c0,0.2-0.1,0.4-0.2,0.7h-13.9l-0.2-0.2l-28.1-34.2
				c3.9-1.9,8.4-3,13-3c5.5,0,10.6,1.5,15.1,4.1c7.1,4.1,12.3,11.1,14.2,19.3C441.1,479.4,441.3,481.6,441.3,483.9z"/>
			<path style="fill:#699628;" d="M425.6,550.5c0,2.3,0.3,4.6,0.8,6.7c0.1,0.2,0.1,0.5,0.2,0.7h14l0.2-0.2l28.4-34.5
				c-4-1.9-8.5-3-13.2-3c-5.6,0-10.8,1.5-15.2,4.1c-7.2,4.2-12.5,11.2-14.3,19.5C425.9,546,425.6,548.2,425.6,550.5z"/>
			<path style="fill:#699628;" d="M441.1,607.9c0,2.3-0.3,4.6-0.8,6.7c-0.1,0.2-0.1,0.5-0.2,0.7h-14l-0.2-0.2l-28.4-34.5
				c4-1.9,8.5-3,13.2-3c5.6,0,10.8,1.5,15.2,4.1c7.2,4.2,12.5,11.2,14.3,19.5C440.8,603.3,441.1,605.6,441.1,607.9z"/>
		</g>
		<g>
			<rect x="515.5" y="488.6" style="fill:#6B932E;" width="15.6" height="151.2"/>
			<path style="fill:#F14929;" d="M477.7,511v1.2h-0.3C477.6,511.8,477.7,511.4,477.7,511z"/>
			<path style="fill:#EAAD00;" d="M535.5,427v40c0,6.5-5.3,11.8-11.8,11.8c-0.1,0-0.1,0-0.2,0v-63.6c0.1,0,0.1,0,0.2,0
				c3.2,0,6.2,1.3,8.3,3.5C534.2,420.9,535.5,423.8,535.5,427z"/>
			<path style="fill:#699628;" d="M515.1,483.4c0,2.3,0.3,4.6,0.8,6.7c0.1,0.2,0.1,0.5,0.2,0.7h14l0.2-0.2l28.4-34.5
				c-4-1.9-8.5-3-13.2-3c-5.6,0-10.8,1.5-15.2,4.1c-7.2,4.2-12.5,11.2-14.3,19.5C515.4,478.8,515.1,481.1,515.1,483.4z"/>
			<path style="fill:#FDD625;" d="M524,415.3v63.6c-6.4-0.1-11.6-5.4-11.6-11.8v-40C512.4,420.6,517.6,415.4,524,415.3z"/>
			<path style="fill:#BCC96D;" d="M531.3,483.9c0,2.3-0.3,4.5-0.7,6.7c0,0.2-0.1,0.4-0.2,0.7h-13.9l-0.2-0.2l-28.1-34.2
				c3.9-1.9,8.4-3,13-3c5.5,0,10.6,1.5,15.1,4.1c7.1,4.1,12.3,11.1,14.2,19.3C531.1,479.4,531.3,481.6,531.3,483.9z"/>
			<path style="fill:#699628;" d="M515.6,550.5c0,2.3,0.3,4.6,0.8,6.7c0.1,0.2,0.1,0.5,0.2,0.7h14l0.2-0.2l28.4-34.5
				c-4-1.9-8.5-3-13.2-3c-5.6,0-10.8,1.5-15.2,4.1c-7.2,4.2-12.5,11.2-14.3,19.5C515.9,546,515.6,548.2,515.6,550.5z"/>
			<path style="fill:#699628;" d="M531.1,607.9c0,2.3-0.3,4.6-0.8,6.7c-0.1,0.2-0.1,0.5-0.2,0.7h-14l-0.2-0.2l-28.4-34.5
				c4-1.9,8.5-3,13.2-3c5.6,0,10.8,1.5,15.2,4.1c7.2,4.2,12.5,11.2,14.3,19.5C530.8,603.3,531.1,605.6,531.1,607.9z"/>
		</g>
		<g>
			<rect x="605.5" y="488.6" style="fill:#6B932E;" width="15.6" height="151.2"/>
			<path style="fill:#F14929;" d="M567.7,511v1.2h-0.3C567.6,511.8,567.7,511.4,567.7,511z"/>
			<path style="fill:#EAAD00;" d="M625.5,427v40c0,6.5-5.3,11.8-11.8,11.8c-0.1,0-0.1,0-0.2,0v-63.6c0.1,0,0.1,0,0.2,0
				c3.2,0,6.2,1.3,8.3,3.5C624.2,420.9,625.5,423.8,625.5,427z"/>
			<path style="fill:#699628;" d="M605.1,483.4c0,2.3,0.3,4.6,0.8,6.7c0.1,0.2,0.1,0.5,0.2,0.7h14l0.2-0.2l28.4-34.5
				c-4-1.9-8.5-3-13.2-3c-5.6,0-10.8,1.5-15.2,4.1c-7.2,4.2-12.5,11.2-14.3,19.5C605.4,478.8,605.1,481.1,605.1,483.4z"/>
			<path style="fill:#FDD625;" d="M614,415.3v63.6c-6.4-0.1-11.6-5.4-11.6-11.8v-40C602.4,420.6,607.6,415.4,614,415.3z"/>
			<path style="fill:#BCC96D;" d="M621.3,483.9c0,2.3-0.3,4.5-0.7,6.7c0,0.2-0.1,0.4-0.2,0.7h-13.9l-0.2-0.2l-28.1-34.2
				c3.9-1.9,8.4-3,13-3c5.5,0,10.6,1.5,15.1,4.1c7.1,4.1,12.3,11.1,14.2,19.3C621.1,479.4,621.3,481.6,621.3,483.9z"/>
			<path style="fill:#699628;" d="M605.6,550.5c0,2.3,0.3,4.6,0.8,6.7c0.1,0.2,0.1,0.5,0.2,0.7h14l0.2-0.2l28.4-34.5
				c-4-1.9-8.5-3-13.2-3c-5.6,0-10.8,1.5-15.2,4.1c-7.2,4.2-12.5,11.2-14.3,19.5C605.9,546,605.6,548.2,605.6,550.5z"/>
			<path style="fill:#699628;" d="M621.1,607.9c0,2.3-0.3,4.6-0.8,6.7c-0.1,0.2-0.1,0.5-0.2,0.7h-14l-0.2-0.2l-28.4-34.5
				c4-1.9,8.5-3,13.2-3c5.6,0,10.8,1.5,15.2,4.1c7.2,4.2,12.5,11.2,14.3,19.5C620.8,603.3,621.1,605.6,621.1,607.9z"/>
		</g>
	</g>
</g>
<g id="silos">
	<path style="fill:#999999;" d="M1219.1,84.7L1219.1,84.7l0,537.1h-173.9V84.7h0c0-0.5,0-1,0-1.5c0-44.9,38.9-81.3,87-81.3
		s87,36.4,87,81.3C1219.1,83.7,1219.1,84.3,1219.1,84.7z"/>
	<path style="fill:#CCCCCC;" d="M1412,84.7L1412,84.7l0,537.1h-173.9V84.7h0c0-0.5,0-1,0-1.5c0-44.9,38.9-81.3,87-81.3
		s87,36.4,87,81.3C1412,83.7,1412,84.3,1412,84.7z"/>
	<path style="fill:#808080;" d="M1134.8,6v615.8l85.8,0.6v-538c-0.2-5.3-2.2-36.2-28.6-58.8C1168.2,5.3,1141,5.8,1134.8,6z"/>
	<path style="fill:#999999;" d="M1322.6,2.5v621.2l89.4,0.6V81.5c-0.3-5.3-2.3-36.5-29.8-59.3C1357.4,1.7,1329,2.2,1322.6,2.5z"/>
	<rect x="1045.4" y="128.9" style="fill:#808080;" width="110.9" height="8.9"/>
	<rect x="1045.4" y="218.3" style="fill:#808080;" width="110.9" height="8.9"/>
	<rect x="1045.4" y="307.7" style="fill:#808080;" width="110.9" height="8.9"/>
	<rect x="1045.4" y="397.1" style="fill:#808080;" width="110.9" height="8.9"/>
	<rect x="1045.4" y="486.5" style="fill:#808080;" width="110.9" height="8.9"/>
	<rect x="1238.5" y="127.1" style="fill:#999999;" width="110.9" height="8.9"/>
	<rect x="1238.5" y="216.5" style="fill:#999999;" width="110.9" height="8.9"/>
	<rect x="1238.5" y="305.9" style="fill:#999999;" width="110.9" height="8.9"/>
	<rect x="1238.5" y="395.3" style="fill:#999999;" width="110.9" height="8.9"/>
	<rect x="1238.5" y="484.7" style="fill:#999999;" width="110.9" height="8.9"/>
	<path style="fill:#CCCCCC;" d="M1045.4,84.1h175.3c-0.6-8.6-3.3-30.2-19.7-50.1c-25.1-30.5-62.1-32-68-32.2
		c-5.1-0.3-38.7-1.5-64.4,25C1046.4,49.9,1045.5,78,1045.4,84.1z"/>
	<path style="fill:#E6E6E6;" d="M1238.5,82.4h175.3c-0.6-8.6-3.3-30.2-19.7-50.1c-25.1-30.5-62.1-32-68-32.2
		c-5.1-0.3-38.7-1.5-64.4,25C1239.5,48.1,1238.6,76.2,1238.5,82.4z"/>
	<path style="fill:#CCCCCC;" d="M1322.6,82.4V0.1c7.5,0,34.7,1,59,21.5c27.4,23.1,31.5,54.2,32.2,60.8
		C1383.4,82.4,1353,82.4,1322.6,82.4z"/>
	<path style="fill:#B3B3B3;" d="M1134,84V1.7c7.2,0,33.3,1,56.7,21.5c26.4,23.1,30.2,54.2,30.9,60.8C1192.4,84,1163.2,84,1134,84z"
		/>
	<path style="fill:none;stroke:#FFFFFF;stroke-width:10;stroke-linecap:round;stroke-miterlimit:10;" d="M1058,77.5
		c0-34.5,28-62.5,62.5-62.5"/>
	<path style="fill:none;stroke:#FFFFFF;stroke-width:10;stroke-linecap:round;stroke-miterlimit:10;" d="M1251,76.5
		c0-34.5,28-62.5,62.5-62.5"/>
</g>
<g id="crops">
</g>
<g id="barn">
	<g>
		<g>
			<path style="fill:#FF931E;" d="M1073.3,398.5"/>
			<polygon style="fill:#2E3192;" points="984.9,387.1 1241.3,387.1 1157.9,335.9 886.4,335.9 			"/>
			<polygon style="fill:#1B1464;" points="985.4,387.5 1029.3,454.4 1273.8,454.4 1241.7,387.5 			"/>
			<rect x="1029.3" y="454.4" style="fill:#C1272D;" width="231.8" height="166.6"/>
			<g>
				<polygon style="fill:#D54123;" points="1029.3,453.7 1029.3,621 745.1,621 745.1,453.7 745.8,452.7 758,434 762.4,427.3
					774.6,408.7 779,401.9 788.6,387.3 788.7,387.3 796.4,383.3 807.7,377.4 843.4,358.8 856.4,352 887.2,335.9 918.1,352
					931,358.8 966.7,377.4 978.1,383.3 985.8,387.3 985.9,387.3 995.4,401.9 999.9,408.7 1012,427.3 1016.5,434 1028.6,452.7
					"/>
				<polygon style="fill:#F14929;" points="918.1,352 856.4,352 887.2,335.9 				"/>
				<polygon style="fill:#F14929;" points="966.7,377.4 807.7,377.4 843.4,358.8 931,358.8 				"/>
				<polygon style="fill:#F14929;" points="995.4,401.9 779,401.9 788.6,387.3 788.7,387.3 796.4,383.3 978.1,383.3 985.8,387.3
					985.9,387.3 				"/>
				<polygon style="fill:#F14929;" points="1012,427.3 762.4,427.3 774.6,408.7 999.9,408.7 				"/>
				<polygon style="fill:#F14929;" points="1028.6,452.7 745.8,452.7 758,434 1016.5,434 				"/>
				<rect x="745.1" y="459.4" style="fill:#F14929;" width="284.2" height="18.6"/>
				<rect x="745.1" y="484.8" style="fill:#F14929;" width="284.2" height="18.6"/>
				<rect x="745.1" y="510.2" style="fill:#F14929;" width="284.2" height="18.6"/>
				<rect x="745.1" y="535.6" style="fill:#F14929;" width="284.2" height="18.6"/>
				<rect x="745.1" y="560.9" style="fill:#F14929;" width="284.2" height="18.6"/>
				<rect x="745.1" y="586.3" style="fill:#F14929;" width="284.2" height="18.6"/>
				<rect x="745.1" y="611.7" style="fill:#F14929;" width="284.2" height="9.3"/>
			</g>
			<rect x="1029.3" y="455.2" style="fill:#F14929;" width="231.8" height="7.6"/>
			<rect x="1029.3" y="480.6" style="fill:#F14929;" width="231.8" height="7.6"/>
			<rect x="1029.3" y="506" style="fill:#F14929;" width="231.8" height="7.6"/>
			<rect x="1029.3" y="531.3" style="fill:#F14929;" width="231.8" height="7.6"/>
			<rect x="1029.3" y="556.7" style="fill:#F14929;" width="231.8" height="7.6"/>
			<rect x="1029.3" y="582.1" style="fill:#F14929;" width="231.8" height="7.6"/>
			<rect x="1029.3" y="607.5" style="fill:#F14929;" width="231.8" height="7.6"/>
			<polygon style="fill:#FF931E;" points="1037.1,455.2 1024.7,455.2 1017.4,444 1012.9,437.2 1000.6,418.3 996.1,411.5
				986.4,396.7 986.3,396.7 978.5,392.6 967,386.6 930.8,367.7 917.6,360.9 886.4,344.6 855.2,360.9 842,367.7 805.8,386.6
				794.3,392.6 786.5,396.7 786.4,396.7 776.7,411.5 772.2,418.3 759.9,437.2 755.4,444 748.1,455.2 734.8,455.2 735.4,454.3
				748.3,434.5 753,427.3 766,407.5 770.7,400.3 780.9,384.7 781,384.7 789.2,380.4 801.3,374.1 839.3,354.3 853.1,347.1 885.9,330
				918.8,347.1 932.6,354.3 970.6,374.1 982.7,380.4 990.9,384.7 991,384.7 1001.2,400.3 1005.9,407.5 1018.8,427.3 1023.6,434.5
				1036.5,454.3 			"/>
			<rect x="819.6" y="496.6" style="fill:#FF931E;" width="121" height="124.4"/>
			<circle style="fill:#FF931E;" cx="880" cy="428.6" r="30.9"/>
			<rect x="824.6" y="502.6" style="fill:#1B1464;" width="110.8" height="118.4"/>
			<circle style="fill:#1B1464;" cx="880.5" cy="429" r="26.2"/>
			<rect x="1072.5" y="488.2" style="fill:#FF931E;" width="30.5" height="61.8"/>
			<rect x="1141" y="488.2" style="fill:#FF931E;" width="30.5" height="61.8"/>
			<rect x="1204.5" y="488.2" style="fill:#FF931E;" width="30.5" height="61.8"/>
			<rect x="1143.5" y="490.7" style="fill:#1B1464;" width="25.4" height="56.7"/>
			<rect x="1075" y="490.7" style="fill:#1B1464;" width="25.4" height="56.7"/>
			<rect x="1207" y="490.7" style="fill:#1B1464;" width="25.4" height="56.7"/>
		</g>
		<polygon style="fill:#FF931E;" points="1277,462 1028,462 1023,452 1277,452 		"/>
	</g>
</g>
<g id="fence">
	<rect x="967" y="571" style="fill:#FF931E;" width="12" height="61"/>
	<rect x="949" y="583" style="fill:#FF931E;" width="320" height="11"/>
	<rect x="997" y="571" style="fill:#FF931E;" width="12" height="61"/>
	<rect x="1027" y="571" style="fill:#FF931E;" width="12" height="61"/>
	<rect x="1057" y="571" style="fill:#FF931E;" width="12" height="61"/>
	<rect x="1087" y="571" style="fill:#FF931E;" width="12" height="61"/>
	<rect x="1117" y="571" style="fill:#FF931E;" width="12" height="61"/>
	<rect x="1147" y="571" style="fill:#FF931E;" width="12" height="61"/>
	<rect x="1177" y="571" style="fill:#FF931E;" width="12" height="61"/>
	<rect x="1207" y="571" style="fill:#FF931E;" width="12" height="61"/>
	<rect x="1237" y="571" style="fill:#FF931E;" width="12" height="61"/>
	<rect x="1267" y="571" style="fill:#FF931E;" width="12" height="61"/>
	<rect x="710" y="572" style="fill:#FF931E;" width="12" height="61"/>
	<rect x="680" y="572" style="fill:#FF931E;" width="12" height="61"/>
	<rect x="740" y="572" style="fill:#FF931E;" width="12" height="61"/>
	<rect x="770" y="572" style="fill:#FF931E;" width="12" height="61"/>
	<rect x="686.1" y="588.6" style="fill:#FF931E;" width="103" height="12"/>
</g>
<g id="tractor">
	<path style="fill:#2E3192;" d="M1463.1,569.7c0,0,3.5-48.6,7-48.6s87.1,0,87.1,0v67.2l-59.2,3.7l-17.4,26.1h10.5
		c0,0,0,29.9-3.5,26.1c-3.5-3.7-66.2,0-66.2,0s-3.5-29.9-52.3-26.1l3.5-41.1L1463.1,569.7z"/>
	<path style="fill:#1B1464;" d="M1473.5,640.7c0-33,25-59.8,55.8-59.8s55.8,26.8,55.8,59.8"/>
	<path style="fill:#1B1464;" d="M1351.6,648.2c0-22.7,17.2-41.1,38.3-41.1s38.3,18.4,38.3,41.1"/>
	<ellipse style="fill:#333333;" cx="1529.3" cy="640.7" rx="45.3" ry="48.6"/>
	<ellipse style="fill:#333333;" cx="1389.9" cy="651.9" rx="27.9" ry="29.9"/>
	<ellipse style="fill:#999999;" cx="1389" cy="651.9" rx="20.5" ry="23"/>
	<ellipse style="fill:#999999;" cx="1529.6" cy="638.8" rx="35" ry="39.2"/>
	<rect x="1463.1" y="506.2" style="fill:#1B1464;" width="104.5" height="14.9"/>
	<path style="fill:#E6E6E6;" d="M1472.5,521.2h15v45c0,0-21,3.2-21,0S1472.5,521.2,1472.5,521.2z"/>
	<rect x="1494.4" y="521.2" style="fill:#E6E6E6;" width="52.3" height="44.8"/>
	<path style="fill:none;stroke:#000000;stroke-width:3;stroke-miterlimit:10;" d="M1433.8,572.4c0-16.9-8.5-30.5-19-30.5"/>
</g>
<g id="Haybales">
	<circle style="fill:#F0B031;" cx="1090.1" cy="622.4" r="44.7"/>
	<path style="fill:#E59400;" d="M1157.3,622.4c0.1-4.5-0.3-13.6-5.3-23.2c-7.2-13.9-19.1-19.7-23-21.5c-14.7,0-29.5,0-44.2,0
		c3.3,0.1,19.3,1,31.9,14.3c14.5,15.3,12.7,34.8,12.4,37.6c-0.6,4.5-2.3,13.3-8.8,21.5c-12.7,16-32.5,16.1-35.4,16.1
		c14.7,0,29.5,0,44.2,0c2.3-0.7,19.8-5.9,26.5-23.2C1159.1,634.7,1158.1,626.4,1157.3,622.4z"/>
	<path style="fill:none;stroke:#E59400;stroke-width:5;stroke-linecap:round;stroke-miterlimit:10;" d="M1115.1,615.7
		c5.8,14.2-1.1,30.4-15.3,36.1c-14.2,5.8-30.4-1.1-36.1-15.3"/>
	<path style="fill:none;stroke:#E59400;stroke-width:3;stroke-linecap:round;stroke-miterlimit:10;" d="M1103.8,620.6
		c3.2,7.8-0.6,16.7-8.4,19.8c-7.8,3.2-16.7-0.6-19.8-8.4"/>
	<circle style="fill:#F0B031;" cx="233.5" cy="735.1" r="44.7"/>
	<path style="fill:#E59400;" d="M300.7,735.1c0.1-4.5-0.3-13.6-5.3-23.2c-7.2-13.9-19.1-19.7-23-21.5c-14.7,0-29.5,0-44.2,0
		c3.3,0.1,19.3,1,31.9,14.3c14.5,15.3,12.7,34.8,12.4,37.6c-0.6,4.5-2.3,13.3-8.8,21.5c-12.7,16-32.5,16.1-35.4,16.1
		c14.7,0,29.5,0,44.2,0c2.3-0.7,19.8-5.9,26.5-23.2C302.5,747.4,301.5,739.1,300.7,735.1z"/>
	<path style="fill:none;stroke:#E59400;stroke-width:5;stroke-linecap:round;stroke-miterlimit:10;" d="M258.4,728.4
		c5.8,14.2-1.1,30.4-15.3,36.1c-14.2,5.8-30.4-1.1-36.1-15.3"/>
	<path style="fill:none;stroke:#E59400;stroke-width:3;stroke-linecap:round;stroke-miterlimit:10;" d="M247.1,733.2
		c3.2,7.8-0.6,16.7-8.4,19.8c-7.8,3.2-16.7-0.6-19.8-8.4"/>
</g>
<g id="cows">
	<g>
		<path style="fill:#4D4D4D;" d="M370,621.2L370,621.2c1.1,0,1.9-0.9,1.9-1.9v-66.7c0-1.1-0.9-1.9-1.9-1.9l0,0
			c-1.1,0-1.9,0.9-1.9,1.9v66.7C368.1,620.3,369,621.2,370,621.2z"/>
		<path style="fill:#4D4D4D;" d="M396.9,679.6h6.1c0.1,0,0.8,0,1.3-0.6c0.5-0.5,0.6-1.2,0.6-1.3c-0.5-5.8-0.6-14.7,2.2-24.8
			c3.8-14,11.1-23.4,15.4-28.3c0-0.1,0-0.8-0.6-1.3c-0.3-0.3-0.8-0.6-1.3-0.6l-23.1-14c-1.1,0-1.9,0.9-1.9,1.9l-0.6,67.2
			C395.7,678.4,396.3,679,396.9,679.6z"/>
		<ellipse style="fill:#999999;" cx="402" cy="624.9" rx="19.3" ry="16.3"/>
		<path style="fill:#4D4D4D;" d="M467.3,679.6h6.1c0.1,0,0.8,0,1.3-0.6c0.5-0.5,0.6-1.2,0.6-1.3c-0.5-5.8-0.6-14.7,2.2-24.8
			c3.8-14,11.1-23.4,15.4-28.3c0-0.1,0-0.8-0.6-1.3c-0.3-0.3-0.8-0.6-1.3-0.6l-23.1-14c-1.1,0-1.9,0.9-1.9,1.9l-0.6,67.2
			C466.1,678.4,466.7,679,467.3,679.6z"/>
		<path style="fill:#FFFFFF;" d="M370,554.3c0.2,3.3,0.6,8.8,1,15.6c0.5,8.1,0.8,13.7,1,17.5c0.2,4,0.3,6.2,0.3,7.6
			c0.1,3.5,0.2,8.5,0.3,14.5c0,1.3,0,2.7,0,4.1c0.2,0.7,1.2-4.1,1.6-3.2c0.2,0.4,0.4,0.8,0.6,1.2c1.4,2.8,2.6,5.5,3.5,8.1
			c1.3,0.7,2.9,1.4,4.8,2.2c3.3,1.4,7.5,3,12.4,4.4c0.6,0.2,1.1,0.3,1.7,0.5c6.1,1.6,13.2,2.7,21.1,3c0.7,0,1.4,0,2.1,0
			c0.5,0,1,0,1.5,0c10.1-0.1,18.9-1.8,26-3.8c6.7-2,11.9-4.3,15.3-6c0.2,0.1,0.7,0.2,1.4,0.4c0.4,0.1,0.8,0.2,1.3,0.3
			c1,0.2,2.1,0.4,3.5,0.5h0c3.5,0.3,8.1,0.2,12.7-1.6c0.8-0.3,1.6-0.6,2.3-1c0.7-0.4,1.4-0.8,2.2-1.2c2.6-1.7,4.7-3.7,6.4-6.1
			c3.4-4.8,4.9-10.8,3.9-16.7V562c0-0.1,0-0.1,0-0.2v0c-0.1-7.2-6.6-13.1-14.5-13.1H376.1c-2,0-3.8,0.9-4.9,2.3
			C370.4,551.9,370,553.1,370,554.3z"/>
		<path style="fill:#FFFFFF;" d="M371.6,677.7l1.9,1.9h6.1c0.1,0,0.8,0,1.4-0.6c0.5-0.5,0.6-1.2,0.6-1.3c-0.5-5.8-0.6-14.7,2.2-24.8
			c1.6-5.9,3.8-11,6.2-15.3c1.9-3.4,3.8-6.2,5.6-8.6c0.6-0.8,1.2-1.5,1.8-2.2c0.7-0.8,1.3-1.6,1.9-2.3c0-0.1,0-0.8-0.6-1.4
			c-0.3-0.3-0.8-0.6-1.4-0.6l-1.7-1l-1.8-1.1l-5.2-3.2l-2.5-1.5l-11.9-7.2c-0.7,0-1.3,0.4-1.6,0.9c-0.2,0.3-0.3,0.6-0.3,1l-0.2,17.8
			l-0.1,9.7L371.6,677.7z"/>
		<path style="fill:#FFFFFF;" d="M449.8,679.6h6.1c0.1,0,0.8,0,1.3-0.6c0.5-0.5,0.6-1.2,0.6-1.3c-0.5-5.8-0.6-14.7,2.2-24.8
			c3.8-14,11.1-23.4,15.4-28.3c0-0.1,0-0.8-0.6-1.3c-0.3-0.3-0.8-0.6-1.3-0.6l-23.7-8c-1.1,0-1.9,0.9-1.9,1.9v61.2
			C448.5,678.4,449.2,679,449.8,679.6z"/>
		<polygon style="fill:#FFFFFF;" points="464.6,598.4 464.6,623.2 465.9,623.6 474.4,625.7 489,629.4 494.9,630.9 503.6,633.1
			518.8,610.4 518,608.6 503.1,575.5 498.7,565.8 496.9,561.9 495.2,558 470.4,590.9 		"/>
		<path style="fill:#FFFFFF;" d="M493.8,613.2c0,0.1,0,0.1,0,0.2c0.1,1.7,1.5,28.8,3.5,38.2c0.4,1.8,0.8,3,1.2,3.1
			c0.1,0,0.2,0.1,0.3,0.1c2.2,1.1,6.8,3,12.7,2.8c4.1-0.2,7.4-1.4,9.5-2.3c0.7-0.3,1.1-0.9,1.3-1.6c0.1-0.6,0.3-1.2,0.4-1.9
			c1.4-7.3,2.2-13.5,2.7-18c0,0,0.3-3.4,1.4-20.4c0-1.3-0.5-2.5-1.4-3.3c-0.9-0.9-2-1.4-3.3-1.4h-23.5
			C495.9,608.6,493.8,610.7,493.8,613.2z"/>
		<path style="fill:#4D4D4D;" d="M475.6,614.7c0,0,4.8,5.8,10.7,5.8c5.9,0,10.7-5.8,10.7-5.8s-4.8-5.8-10.7-5.8
			C480.4,608.9,475.6,614.7,475.6,614.7z"/>
		<path style="fill:#FFFFFF;" d="M523.1,614.8c0,0,5.1,6.2,11.5,6.2s11.5-6.2,11.5-6.2s-5.1-6.2-11.5-6.2S523.1,614.8,523.1,614.8z"
			/>
		<path style="fill:#4D4D4D;" d="M525.1,614.8c0,0,4.2,5.1,9.4,5.1s9.4-5.1,9.4-5.1s-4.2-5.1-9.4-5.1S525.1,614.8,525.1,614.8z"/>
		<path style="fill:#999999;" d="M497.2,651.6c0.4,1.8,0.8,3,1.2,3.1c0.1,0,0.2,0.1,0.3,0.1c2.2,1.1,6.8,3,12.7,2.8
			c4.1-0.2,7.4-1.4,9.5-2.3c0.7-0.3,1.1-0.9,1.3-1.6c0.1-0.6,0.3-1.2,0.4-1.9c-2.7-3.8-7.4-6.3-12.8-6.3
			C504.6,645.6,500,648,497.2,651.6z"/>
	</g>
	<path d="M455.3,603.5h7.6c4.1,0,7.4-3.3,7.4-7.4l0,0c0-4.1-3.3-7.4-7.4-7.4h-7.6c-4.1,0-7.4,3.3-7.4,7.4l0,0
		C447.9,600.2,451.2,603.5,455.3,603.5z"/>
	<path d="M453.9,590.3h4.6c1.9,0,3.4-1.5,3.4-3.4l0,0c0-1.9-1.5-3.4-3.4-3.4h-4.6c-1.9,0-3.4,1.5-3.4,3.4l0,0
		C450.5,588.8,452.1,590.3,453.9,590.3z"/>
	<path d="M461.8,607.6h2.7c1.6,0,3-1.3,3-3l0,0c0-1.6-1.3-3-3-3h-2.7c-1.6,0-3,1.3-3,3l0,0C458.8,606.3,460.2,607.6,461.8,607.6z"/>
	<path d="M394.4,548.7v8c0,1.1,0.9,1.9,1.9,1.9h18.6c1.1,0,1.9-0.9,1.9-1.9v-8H394.4z"/>
	<path d="M408.3,562.7h2.7c1.6,0,3-1.3,3-3v0c0-1.6-1.3-3-3-3h-2.7c-1.6,0-3,1.3-3,3v0C405.3,561.3,406.7,562.7,408.3,562.7z"/>
	<path d="M406.1,614.6h-11c-5.9,0-10.7-4.8-10.7-10.7l0,0c0-5.9,4.8-10.7,10.7-10.7h11c5.9,0,10.7,4.8,10.7,10.7l0,0
		C416.8,609.8,412,614.6,406.1,614.6z"/>
	<path d="M408.1,595.6h-6.7c-2.7,0-4.9-2.2-4.9-4.9l0,0c0-2.7,2.2-4.9,4.9-4.9h6.7c2.7,0,4.9,2.2,4.9,4.9l0,0
		C413,593.4,410.8,595.6,408.1,595.6z"/>
	<path d="M396.7,620.5h-3.8c-2.4,0-4.3-1.9-4.3-4.3l0,0c0-2.4,1.9-4.3,4.3-4.3h3.8c2.4,0,4.3,1.9,4.3,4.3l0,0
		C401,618.6,399.1,620.5,396.7,620.5z"/>
	<path d="M372,638.1h6.3c1.1,0,1.9-0.9,1.9-1.9v-5.9c0-1.1-0.9-1.9-1.9-1.9h-6.2L372,638.1z"/>
	<path d="M491.1,567.7v5.9c0,1.1,0.9,1.9,1.9,1.9h10.1l-4.4-9.7H493C492,565.8,491.1,566.6,491.1,567.7z"/>
	<path d="M445.7,548.7v7.3c0,1.7,1.4,3,3,3h15.8c1.7,0,3-1.4,3-3v-7.3H445.7z"/>
	<path d="M446.1,571.8L446.1,571.8c2.5,0,4.5-2,4.5-4.5v0c0-2.5-2-4.5-4.5-4.5h0c-2.5,0-4.5,2-4.5,4.5v0
		C441.5,569.8,443.6,571.8,446.1,571.8z"/>
</g>
</svg>
