<?xml version="1.0" encoding="utf-8"?>
<!-- Generator: Adobe Illustrator 23.0.4, SVG Export Plug-In . SVG Version: 6.00 Build 0)  -->
<svg version="1.1" id="Layer_1" xmlns="http://www.w3.org/2000/svg" xmlns:xlink="http://www.w3.org/1999/xlink" x="0px" y="0px"
	 viewBox="0 0 1690 818.4" style="enable-background:new 0 0 1690 818.4;" xml:space="preserve">
<g id="Layer_7">
	<path style="fill:#E59400;" d="M631.3,496.7c7.2,0,134.1-158.2,466.8-127.9c0,0,438.1,33.7,541.9,260.8S647.4,675,647.4,675
		L631.3,496.7"/>
	<path style="fill:#FFDF5C;" d="M23.2,657.3c2.1-15.5,9.7-53.1,43.9-88.6c28.6-29.8,62-43.7,78.9-49.5
		c74.1-18.5,170.5-36.1,284.2-40.5c153.7-6,281.7,14.2,371,34.8c18.3,1.9,93.5,11.5,144.7,67.3c24.1,26.3,34.1,53.2,38.6,70.6
		C664.1,653.3,343.7,655.3,23.2,657.3z"/>
</g>
<g id="background_crops">
	<path style="fill:#003E51;" d="M227.2,976.9"/>
	<path style="fill:#88B535;" d="M1670.3,720.1H19.7v-81.5c0-9.2,7.5-16.7,16.7-16.7h1617.2c9.2,0,16.7,7.5,16.7,16.7L1670.3,720.1
		L1670.3,720.1z"/>
	<path style="fill:#0B8500;" d="M1653.6,818.4H36.4c-9.2,0-16.7-7.5-16.7-16.7v-81.5h1650.7v81.5
		C1670.3,810.9,1662.8,818.4,1653.6,818.4z"/>
	<path style="fill:#009245;" d="M490.8,272.8"/>
	<path style="fill:none;stroke:#FF931E;stroke-width:5;stroke-miterlimit:10;" d="M1052.1,620.1"/>
	<path style="fill:none;stroke:#FF931E;stroke-width:5;stroke-miterlimit:10;" d="M833.9,427"/>
	<path style="fill:none;stroke:#FF931E;stroke-width:5;stroke-miterlimit:10;" d="M1131.1,2.8"/>
	<path style="fill:#FFDF5C;" d="M1682.3,745.8H8.7c-4.8,0-8.7-3.9-8.7-8.7v-30.6c0-6,4.8-10.8,10.8-10.8h1670.3c4.9,0,8.9,4,8.9,8.9
		V738C1690,742.4,1686.6,745.8,1682.3,745.8z"/>
	<circle style="fill:#F0B031;" cx="232.5" cy="735.1" r="44.7"/>
	<path style="fill:#E59400;" d="M299.7,735.1c0.1-4.5-0.3-13.6-5.3-23.2c-7.2-13.9-19.1-19.7-23-21.5c-14.7,0-29.5,0-44.2,0
		c3.3,0.1,19.3,1,31.9,14.3c14.5,15.3,12.7,34.8,12.4,37.6c-0.6,4.5-2.3,13.3-8.8,21.5c-12.7,16-32.5,16.1-35.4,16.1
		c14.7,0,29.5,0,44.2,0c2.3-0.7,19.8-5.9,26.5-23.2C301.5,747.4,300.5,739.1,299.7,735.1z"/>
	<path style="fill:none;stroke:#E59400;stroke-width:5;stroke-linecap:round;stroke-miterlimit:10;" d="M257.4,728.4
		c5.8,14.2-1.1,30.4-15.3,36.1c-14.2,5.8-30.4-1.1-36.1-15.3"/>
	<path style="fill:none;stroke:#E59400;stroke-width:3;stroke-linecap:round;stroke-miterlimit:10;" d="M246.1,733.2
		c3.2,7.8-0.6,16.7-8.4,19.8c-7.8,3.2-16.7-0.6-19.8-8.4"/>
	<path style="fill:#FFDF5C;" d="M639.1,783.4h-148c-3.6,0-6.5-2.9-6.5-6.5v-10.2c0-3.6,2.9-6.5,6.5-6.5h148c3.6,0,6.5,2.9,6.5,6.5
		v10.2C645.6,780.5,642.7,783.4,639.1,783.4z"/>
	<path style="fill:#FFDF5C;" d="M975.8,783.4H689.2c-3.3,0-6-2.7-6-6v-9.5c0-3.3,2.7-6,6-6h286.7c3.3,0,6,2.7,6,6v9.5
		C981.8,780.7,979.1,783.4,975.8,783.4z"/>
	<path style="fill:#FFDF5C;" d="M1341.1,812h-178.6c-3,0-5.5-2.5-5.5-5.5v-8.7c0-3,2.5-5.5,5.5-5.5h178.6c3,0,5.5,2.5,5.5,5.5v8.7
		C1346.6,809.5,1344.2,812,1341.1,812z"/>
	<path style="fill:#FFDF5C;" d="M1361.6,790.5h131.1c3.3,0,6-2.7,6-6V775c0-3.3-2.7-6-6-6h-131.1c-3.3,0-6,2.7-6,6v9.5
		C1355.6,787.8,1358.3,790.5,1361.6,790.5z"/>
	<path style="fill:#FFDF5C;" d="M204.5,801.3h-148c-3.6,0-6.5-2.9-6.5-6.5v-10.2c0-3.6,2.9-6.5,6.5-6.5h148c3.6,0,6.5,2.9,6.5,6.5
		v10.2C211,798.3,208.1,801.3,204.5,801.3z"/>
	<path style="fill:#FFDF5C;" d="M419.1,806.6h-67.5c-3.6,0-6.5-2.9-6.5-6.5v-10.2c0-3.6,2.9-6.5,6.5-6.5h67.5c3.6,0,6.5,2.9,6.5,6.5
		v10.2C425.6,803.7,422.7,806.6,419.1,806.6z"/>
	<path style="fill:#FFDF5C;" d="M1597.7,792.3h-67.5c-3.6,0-6.5-2.9-6.5-6.5v-10.2c0-3.6,2.9-6.5,6.5-6.5h67.5
		c3.6,0,6.5,2.9,6.5,6.5v10.2C1604.2,789.4,1601.2,792.3,1597.7,792.3z"/>
</g>
<g id="silos">
	<path style="fill:#999999;" d="M1218.1,84.7L1218.1,84.7v537.1h-173.9V84.7l0,0c0-0.5,0-1,0-1.5c0-44.9,38.9-81.3,87-81.3
		s87,36.4,87,81.3C1218.1,83.7,1218.1,84.3,1218.1,84.7z"/>
	<path style="fill:#CCCCCC;" d="M1411,84.7L1411,84.7v537.1h-173.9V84.7l0,0c0-0.5,0-1,0-1.5c0-44.9,38.9-81.3,87-81.3
		s87,36.4,87,81.3C1411,83.7,1411,84.3,1411,84.7z"/>
	<path style="fill:#808080;" d="M1133.8,6v615.8l85.8,0.6v-538c-0.2-5.3-2.2-36.2-28.6-58.8C1167.2,5.3,1140,5.8,1133.8,6z"/>
	<path style="fill:#999999;" d="M1321.6,2.5v621.2l89.4,0.6V81.5c-0.3-5.3-2.3-36.5-29.8-59.3C1356.4,1.7,1328,2.2,1321.6,2.5z"/>
	<rect x="1044.4" y="128.9" style="fill:#808080;" width="110.9" height="8.9"/>
	<rect x="1044.4" y="218.3" style="fill:#808080;" width="110.9" height="8.9"/>
	<rect x="1044.4" y="307.7" style="fill:#808080;" width="110.9" height="8.9"/>
	<rect x="1044.4" y="397.1" style="fill:#808080;" width="110.9" height="8.9"/>
	<rect x="1044.4" y="486.5" style="fill:#808080;" width="110.9" height="8.9"/>
	<rect x="1237.5" y="127.1" style="fill:#999999;" width="110.9" height="8.9"/>
	<rect x="1237.5" y="216.5" style="fill:#999999;" width="110.9" height="8.9"/>
	<rect x="1237.5" y="305.9" style="fill:#999999;" width="110.9" height="8.9"/>
	<rect x="1237.5" y="395.3" style="fill:#999999;" width="110.9" height="8.9"/>
	<rect x="1237.5" y="484.7" style="fill:#999999;" width="110.9" height="8.9"/>
	<path style="fill:#CCCCCC;" d="M1044.4,84.1h175.3c-0.6-8.6-3.3-30.2-19.7-50.1c-25.1-30.5-62.1-32-68-32.2
		c-5.1-0.3-38.7-1.5-64.4,25C1045.4,49.9,1044.5,78,1044.4,84.1z"/>
	<path style="fill:#E6E6E6;" d="M1237.5,82.4h175.3c-0.6-8.6-3.3-30.2-19.7-50.1c-25.1-30.5-62.1-32-68-32.2
		c-5.1-0.3-38.7-1.5-64.4,25C1238.5,48.1,1237.6,76.2,1237.5,82.4z"/>
	<path style="fill:#CCCCCC;" d="M1321.6,82.4V0.1c7.5,0,34.7,1,59,21.5c27.4,23.1,31.5,54.2,32.2,60.8
		C1382.4,82.4,1352,82.4,1321.6,82.4z"/>
	<path style="fill:#B3B3B3;" d="M1132,84.1V1.8c7.2,0,33.3,1,56.7,21.5c26.4,23.1,30.2,54.2,30.9,60.8
		C1190.5,84.1,1161.2,84.1,1132,84.1z"/>
</g>
<g id="crops">
	<path style="fill:#8C6239;" d="M411.8,625.2H130.3v-61.9c0-7,5.7-12.7,12.7-12.7h256.1c7,0,12.7,5.7,12.7,12.7L411.8,625.2
		L411.8,625.2z"/>
	<path style="fill:#8C6239;" d="M762.8,621.8H481.3V560c0-7,5.7-12.7,12.7-12.7h256.1c7,0,12.7,5.7,12.7,12.7V621.8z"/>
	<path style="fill:#009245;" d="M344.3,564.2h-10.5c-0.6,0-1.1-0.5-1.1-1.1v-208c0-0.6,0.5-1.1,1.1-1.1h10.5c0.6,0,1.1,0.5,1.1,1.1
		v208C345.4,563.7,344.9,564.2,344.3,564.2z"/>
	<path style="fill:#88B535;" d="M538,570c0,0,15.5-44.6-39.9-66.8C498.1,503.2,505.2,585,538,570z"/>
	<path style="fill:#88B535;" d="M537.2,575.3c0,0,39.3-22.1,11.9-78.3C549.1,497,503.5,563,537.2,575.3z"/>
	<path style="fill:#88B535;" d="M699.4,569.4c0,0,15.5-44.6-39.9-66.8C659.5,502.5,666.6,584.3,699.4,569.4z"/>
	<path style="fill:#88B535;" d="M699.4,572.9c0,0,39.3-22.1,11.9-78.3C711.3,494.6,665.7,560.5,699.4,572.9z"/>
	<path style="fill:#009245;" d="M335.6,489.7c-2.1-15.1,2.7-29.3,12.6-36.1c5.4-3.7,11.1-4.5,14.8-4.5c0.8,6,2.1,12.9,4.2,20.3
		c1.9,6.9,4.1,12.9,6.3,18.1c-1.5-0.6-3.7-1.7-6.1-3.4c-2.2-1.6-9.1-6.6-10.8-14.7c-1.1-5.2,0.6-8.8,0-9c-0.7-0.3-3.7,5.6-12.6,29.4
		C341.3,489.7,338.5,489.7,335.6,489.7z"/>
	<path style="fill:#009245;" d="M378.9,444.5"/>
	<path style="fill:#009245;" d="M343.6,452.4c2.1-15.1-2.7-29.3-12.6-36.1c-5.4-3.7-11.1-4.5-14.8-4.5c-0.8,6-2.1,12.9-4.2,20.3
		c-1.9,6.9-4.1,12.9-6.3,18.1c1.5-0.6,3.7-1.7,6.1-3.4c2.2-1.6,9.1-6.6,10.8-14.7c1.1-5.2-0.6-8.8,0-9c0.7-0.3,3.7,5.6,12.6,29.4
		C338,452.4,340.8,452.4,343.6,452.4z"/>
	<path style="fill:#009245;" d="M300.4,407.2"/>
	<path style="fill:#009245;" d="M335.6,405c-2.1-15.1,2.7-29.3,12.6-36.1c5.4-3.7,11.1-4.5,14.8-4.5c0.8,6,2.1,12.9,4.2,20.3
		c1.9,6.9,4.1,12.9,6.3,18.1c-1.5-0.6-3.7-1.7-6.1-3.4c-2.2-1.6-9.1-6.6-10.8-14.7c-1.1-5.2,0.6-8.8,0-9c-0.7-0.3-3.7,5.6-12.6,29.4
		C341.3,405,338.5,405,335.6,405z"/>
	<path style="fill:#009245;" d="M345.1,371.5c2.1-15.1-2.7-29.3-12.6-36.1c-5.4-3.7-11.1-4.5-14.8-4.5c-0.8,6-2.1,12.9-4.2,20.3
		c-1.9,6.9-4.1,12.9-6.3,18.1c1.5-0.6,3.7-1.7,6.1-3.4c2.2-1.6,9.1-6.6,10.8-14.7c1.1-5.2-0.6-8.8,0-9c0.7-0.3,3.7,5.6,12.6,29.4
		C339.5,371.5,342.3,371.5,345.1,371.5z"/>
	<path style="fill:#009245;" d="M341.9,527c2.1-15.1-2.7-29.3-12.6-36.1c-5.4-3.7-11.1-4.5-14.8-4.5c-0.8,6-2.1,12.9-4.2,20.3
		c-1.9,6.9-4.1,12.9-6.3,18.1c1.5-0.6,3.7-1.7,6.1-3.4c2.2-1.6,9.1-6.6,10.8-14.7c1.1-5.2-0.6-8.8,0-9c0.7-0.3,3.7,5.6,12.6,29.4
		C336.3,527,339.1,527,341.9,527z"/>
	<path style="fill:#FCEE21;" d="M342.2,473.6c0,0,28.4-10.1,26.7-35.1C367.2,413.5,342.2,473.6,342.2,473.6z"/>
	<path style="fill:#009245;" d="M342.4,474.7c13.8-3.5,25.5-11,29.7-19.3c2.3-4.5,1.9-8.2,1.2-10.4c-5.5,1.4-13.1,11.5-32.6,24.6
		C341.3,471.2,341.8,472.9,342.4,474.7z"/>
	<path style="fill:#FCEE21;" d="M337.5,422.7c0,0-30.7-10.1-28.9-35.3C310.4,362.2,337.5,422.7,337.5,422.7z"/>
	<path style="fill:#009245;" d="M337.3,423.8c-15-3.6-27.6-11.1-32.2-19.4c-2.5-4.5-2-8.2-1.3-10.5c6,1.4,14.2,11.6,35.2,24.8
		C338.5,420.4,337.9,422.1,337.3,423.8z"/>
	<path style="fill:#009245;" d="M215.1,564.2h-11.2c-0.6,0-1.2-0.5-1.2-1.2V355.3c0-0.6,0.5-1.2,1.2-1.2h11.2c0.6,0,1.2,0.5,1.2,1.2
		v207.8C216.2,563.7,215.7,564.2,215.1,564.2z"/>
	<path style="fill:#009245;" d="M205.8,489.7c-2.3-15.1,2.9-29.3,13.6-36.1c5.8-3.7,11.9-4.5,15.8-4.5c0.9,6,2.3,12.9,4.5,20.3
		c2.1,6.9,4.4,12.9,6.8,18.1c-1.6-0.6-3.9-1.7-6.5-3.4c-2.4-1.6-9.8-6.6-11.6-14.7c-1.1-5.2,0.6-8.8,0-9c-0.8-0.3-3.9,5.6-13.6,29.4
		C211.8,489.7,208.8,489.7,205.8,489.7z"/>
	<path style="fill:#009245;" d="M214.3,452.4c2.3-15.1-2.9-29.3-13.6-36.1c-5.8-3.7-11.9-4.5-15.8-4.5c-0.9,6-2.3,12.9-4.5,20.3
		c-2.1,6.9-4.4,12.9-6.8,18.1c1.6-0.6,3.9-1.7,6.5-3.4c2.4-1.6,9.8-6.6,11.6-14.7c1.1-5.2-0.6-8.8,0-9c0.8-0.3,3.9,5.6,13.6,29.4
		C208.3,452.4,211.3,452.4,214.3,452.4z"/>
	<path style="fill:#009245;" d="M241.4,424"/>
	<path style="fill:#009245;" d="M205.8,405c-2.3-15.1,2.9-29.3,13.6-36.1c5.8-3.7,11.9-4.5,15.8-4.5c0.9,6,2.3,12.9,4.5,20.3
		c2.1,6.9,4.4,12.9,6.8,18.1c-1.6-0.6-3.9-1.7-6.5-3.4c-2.4-1.6-9.8-6.6-11.6-14.7c-1.1-5.2,0.6-8.8,0-9c-0.8-0.3-3.9,5.6-13.6,29.4
		C211.8,405,208.8,405,205.8,405z"/>
	<path style="fill:#009245;" d="M215.9,371.5c2.3-15.1-2.9-29.3-13.6-36.1c-5.8-3.7-11.9-4.5-15.8-4.5c-0.9,6-2.3,12.9-4.5,20.3
		c-2.1,6.9-4.4,12.9-6.8,18.1c1.6-0.6,3.9-1.7,6.5-3.4c2.4-1.6,9.8-6.6,11.6-14.7c1.1-5.2-0.6-8.8,0-9c0.8-0.3,3.9,5.6,13.6,29.4
		C209.9,371.5,212.9,371.5,215.9,371.5z"/>
	<path style="fill:#009245;" d="M212.5,527c2.3-15.1-2.9-29.3-13.6-36.1c-5.8-3.7-11.9-4.5-15.8-4.5c-0.9,6-2.3,12.9-4.5,20.3
		c-2.1,6.9-4.4,12.9-6.8,18.1c1.6-0.6,3.9-1.7,6.5-3.4c2.4-1.6,9.8-6.6,11.6-14.7c1.1-5.2-0.6-8.8,0-9c0.8-0.3,3.9,5.6,13.6,29.4
		C206.5,527,209.5,527,212.5,527z"/>
	<path style="fill:#FCEE21;" d="M212.8,473.6c0,0,30.4-10.1,28.6-35.1S212.8,473.6,212.8,473.6z"/>
	<path style="fill:#009245;" d="M213,474.7c14.8-3.5,27.3-11,31.9-19.3c2.5-4.5,2-8.2,1.3-10.4c-5.9,1.4-14,11.5-34.9,24.6
		C211.8,471.2,212.4,472.9,213,474.7z"/>
	<path style="fill:#FCEE21;" d="M207.8,422.7c0,0-32.9-10.1-30.9-35.3C178.8,362.2,207.8,422.7,207.8,422.7z"/>
	<path style="fill:#009245;" d="M207.6,423.8c-16-3.6-29.6-11.1-34.5-19.4c-2.7-4.5-2.2-8.2-1.4-10.5c6.4,1.4,15.2,11.6,37.8,24.8
		C208.8,420.4,208.2,422.1,207.6,423.8z"/>
	<path style="fill:#009245;" d="M274.7,564.2h-10.5c-0.6,0-1.1-0.5-1.1-1.1v-208c0-0.6,0.5-1.1,1.1-1.1h10.5c0.6,0,1.1,0.5,1.1,1.1
		v208C275.8,563.7,275.3,564.2,274.7,564.2z"/>
	<path style="fill:#009245;" d="M266.1,489.7c-2.1-15.1,2.7-29.3,12.6-36.1c5.4-3.7,11.1-4.5,14.8-4.5c0.8,6,2.1,12.9,4.2,20.3
		c1.9,6.9,4.1,12.9,6.3,18.1c-1.5-0.6-3.7-1.7-6.1-3.4c-2.2-1.6-9.1-6.6-10.8-14.7c-1.1-5.2,0.6-8.8,0-9c-0.7-0.3-3.7,5.6-12.6,29.4
		C271.7,489.7,268.9,489.7,266.1,489.7z"/>
	<path style="fill:#009245;" d="M274,452.4c2.1-15.1-2.7-29.3-12.6-36.1c-5.4-3.7-11.1-4.5-14.8-4.5c-0.8,6-2.1,12.9-4.2,20.3
		c-1.9,6.9-4.1,12.9-6.3,18.1c1.5-0.6,3.7-1.7,6.1-3.4c2.2-1.6,9.1-6.6,10.8-14.7c1.1-5.2-0.6-8.8,0-9c0.7-0.3,3.7,5.6,12.6,29.4
		C268.4,452.4,271.2,452.4,274,452.4z"/>
	<path style="fill:#009245;" d="M234,414"/>
	<path style="fill:#009245;" d="M266.1,405c-2.1-15.1,2.7-29.3,12.6-36.1c5.4-3.7,11.1-4.5,14.8-4.5c0.8,6,2.1,12.9,4.2,20.3
		c1.9,6.9,4.1,12.9,6.3,18.1c-1.5-0.6-3.7-1.7-6.1-3.4c-2.2-1.6-9.1-6.6-10.8-14.7c-1.1-5.2,0.6-8.8,0-9c-0.7-0.3-3.7,5.6-12.6,29.4
		C271.7,405,268.9,405,266.1,405z"/>
	<path style="fill:#009245;" d="M275.5,371.5c2.1-15.1-2.7-29.3-12.6-36.1c-5.4-3.7-11.1-4.5-14.8-4.5c-0.8,6-2.1,12.9-4.2,20.3
		c-1.9,6.9-4.1,12.9-6.3,18.1c1.5-0.6,3.7-1.7,6.1-3.4c2.2-1.6,9.1-6.6,10.8-14.7c1.1-5.2-0.6-8.8,0-9c0.7-0.3,3.7,5.6,12.6,29.4
		C269.9,371.5,272.7,371.5,275.5,371.5z"/>
	<path style="fill:#009245;" d="M272.3,527c2.1-15.1-2.7-29.3-12.6-36.1c-5.4-3.7-11.1-4.5-14.8-4.5c-0.8,6-2.1,12.9-4.2,20.3
		c-1.9,6.9-4.1,12.9-6.3,18.1c1.5-0.6,3.7-1.7,6.1-3.4c2.2-1.6,9.1-6.6,10.8-14.7c1.1-5.2-0.6-8.8,0-9c0.7-0.3,3.7,5.6,12.6,29.4
		C266.7,527,269.5,527,272.3,527z"/>
	<path style="fill:#FCEE21;" d="M272.6,473.6c0,0,28.4-10.1,26.7-35.1S272.6,473.6,272.6,473.6z"/>
	<path style="fill:#009245;" d="M272.8,474.7c13.8-3.5,25.5-11,29.7-19.3c2.3-4.5,1.9-8.2,1.2-10.4c-5.5,1.4-13.1,11.5-32.6,24.6
		C271.7,471.2,272.3,472.9,272.8,474.7z"/>
	<path style="fill:#FCEE21;" d="M267.9,422.7c0,0-30.7-10.1-28.9-35.3C240.9,362.2,267.9,422.7,267.9,422.7z"/>
	<path style="fill:#009245;" d="M267.7,423.8c-15-3.6-27.6-11.1-32.2-19.4c-2.5-4.5-2-8.2-1.3-10.5c6,1.4,14.2,11.6,35.2,24.8
		C268.9,420.4,268.3,422.1,267.7,423.8z"/>
	<path style="fill:#88B535;" d="M623.3,565.7c0,0,15.5-44.6-39.9-66.8C583.4,498.8,590.5,580.6,623.3,565.7z"/>
	<path style="fill:#88B535;" d="M620.2,570.9c0,0,39.3-22.1,11.9-78.3C632.1,492.6,586.5,558.6,620.2,570.9z"/>
</g>
<g id="barn">
	<polygon style="fill:#C1272D;" points="734.4,397.3 817.5,238.7 912.4,195 1011.1,244 1101.1,412.3 1100.3,624.3 737.6,622.6 	"/>
	<g id="Layer_6_1_">
		<polygon style="fill:#F14929;" points="1087.3,379.2 744,379.2 756.5,352.4 1076.6,352.4 		"/>
		<polygon style="fill:#F14929;" points="1033.7,277.3 797.6,277.3 813.7,250.5 1017.6,250.5 		"/>
		<polygon style="fill:#F14929;" points="1011,243.3 813.7,243.3 863,216.5 956.6,216.5 		"/>
		<rect x="735" y="388.2" style="fill:#F14929;" width="98.4" height="26.8"/>
		<rect x="735" y="386.4" style="fill:#F14929;" width="363" height="26.8"/>
		<rect x="735" y="422.1" style="fill:#F14929;" width="366.6" height="26.8"/>
		<rect x="735" y="456.1" style="fill:#F14929;" width="366.6" height="26.8"/>
		<rect x="735" y="490.1" style="fill:#F14929;" width="366.6" height="26.8"/>
		<rect x="736.8" y="524.1" style="fill:#F14929;" width="363" height="26.8"/>
		<rect x="736.8" y="558.1" style="fill:#F14929;" width="364.8" height="26.8"/>
		<rect x="736.8" y="592" style="fill:#F14929;" width="363" height="26.8"/>
		<polygon style="fill:#F14929;" points="1053.3,311.3 779.7,311.3 798.4,284.4 1034.7,284.4 		"/>
		<polygon style="fill:#F14929;" points="1073,345.2 758.3,345.2 779.7,318.4 1051.6,318.4 		"/>
		<polygon style="fill:#F14929;" points="882.4,211.1 940.2,211.1 912.4,195 		"/>
	</g>
	
		<rect x="832.5" y="398.6" style="fill:#C1272D;stroke:#FF931E;stroke-width:5;stroke-miterlimit:10;" width="167.4" height="223.7"/>
	<rect x="848.6" y="285.3" style="fill:#2B0912;stroke:#FF931E;stroke-width:5;stroke-miterlimit:10;" width="62.6" height="84.1"/>
	<rect x="916.5" y="285.3" style="fill:#2B0912;stroke:#FF931E;stroke-width:5;stroke-miterlimit:10;" width="62.6" height="84.1"/>
	
		<polyline style="fill:none;stroke:#FF931E;stroke-width:5;stroke-linecap:round;stroke-linejoin:bevel;stroke-miterlimit:10;" points="
		832.5,398 916.5,482.1 1000.6,398 	"/>
	
		<polyline style="fill:none;stroke:#FF931E;stroke-width:5;stroke-linecap:round;stroke-linejoin:bevel;stroke-miterlimit:10;" points="
		1000.6,621.5 916.5,482.1 832.5,621.5 	"/>
	
		<polyline style="fill:none;stroke:#FF931E;stroke-width:5;stroke-linecap:round;stroke-linejoin:bevel;stroke-miterlimit:10;" points="
		834.3,482.1 915.6,621.8 915.6,398.6 1000,482.9 833.9,482.9 914.7,398 	"/>
	
		<line style="fill:none;stroke:#FF931E;stroke-width:5;stroke-linecap:round;stroke-linejoin:bevel;stroke-miterlimit:10;" x1="1000.6" y1="482.1" x2="914.7" y2="621.5"/>
</g>
<g id="tractor">
	<path style="fill:#2E3192;" d="M1462.1,569.7c0,0,3.5-48.6,7-48.6s87.1,0,87.1,0v67.2L1497,592l-17.4,26.1h10.5
		c0,0,0,29.9-3.5,26.1c-3.5-3.7-66.2,0-66.2,0s-3.5-29.9-52.3-26.1l3.5-41.1L1462.1,569.7z"/>
	<path style="fill:#1B1464;" d="M1472.5,640.7c0-33,25-59.8,55.8-59.8s55.8,26.8,55.8,59.8"/>
	<path style="fill:#1B1464;" d="M1350.6,648.2c0-22.7,17.2-41.1,38.3-41.1s38.3,18.4,38.3,41.1"/>
	<ellipse style="fill:#333333;" cx="1528.3" cy="640.7" rx="45.3" ry="48.6"/>
	<ellipse style="fill:#333333;" cx="1388.9" cy="651.9" rx="27.9" ry="29.9"/>
	<ellipse style="fill:#999999;" cx="1388" cy="651.9" rx="20.5" ry="23"/>
	<ellipse style="fill:#999999;" cx="1528.6" cy="638.8" rx="35" ry="39.2"/>
	<rect x="1462.1" y="506.2" style="fill:#1B1464;" width="104.5" height="14.9"/>
	<path style="fill:#E6E6E6;" d="M1471.5,521.2h15v45c0,0-21,3.2-21,0S1471.5,521.2,1471.5,521.2z"/>
	<rect x="1493.4" y="521.2" style="fill:#E6E6E6;" width="52.3" height="44.8"/>
	<path style="fill:none;stroke:#000000;stroke-width:3;stroke-miterlimit:10;" d="M1432.8,572.4c0-16.9-8.5-30.5-19-30.5"/>
	<circle style="fill:#F0B031;" cx="1089.1" cy="622.4" r="44.7"/>
	<path style="fill:#E59400;" d="M1156.3,622.4c0.1-4.5-0.3-13.6-5.3-23.2c-7.2-13.9-19.1-19.7-23-21.5c-14.7,0-29.5,0-44.2,0
		c3.3,0.1,19.3,1,31.9,14.3c14.5,15.3,12.7,34.8,12.4,37.6c-0.6,4.5-2.3,13.3-8.8,21.5c-12.7,16-32.5,16.1-35.4,16.1
		c14.7,0,29.5,0,44.2,0c2.3-0.7,19.8-5.9,26.5-23.2C1158.1,634.7,1157.1,626.4,1156.3,622.4z"/>
	<path style="fill:none;stroke:#E59400;stroke-width:5;stroke-linecap:round;stroke-miterlimit:10;" d="M1114.1,615.7
		c5.8,14.2-1.1,30.4-15.3,36.1c-14.2,5.8-30.4-1.1-36.1-15.3"/>
	<path style="fill:none;stroke:#E59400;stroke-width:3;stroke-linecap:round;stroke-miterlimit:10;" d="M1102.8,620.6
		c3.2,7.8-0.6,16.7-8.4,19.8c-7.8,3.2-16.7-0.6-19.8-8.4"/>
	<path style="fill:#FF931E;" d="M905.7,203.3l-68.5,30.5L715.6,424.3c-2.4,3.7-7.3,4.8-11,2.4l-1.4-0.9c-3.7-2.4-4.8-7.3-2.4-11
		l122-191.1c1.5-2.4,4.2-3.7,6.9-3.7l75.7-33.7c0.4-0.2,0.8,0,0.9,0.4l3.1,7C911,197.3,909.4,201.7,905.7,203.3z"/>
	<path style="fill:#FF931E;" d="M907.2,203.4l75.3,30.5l133.7,190.5c2.6,3.7,8.1,4.8,12.2,2.4l1.5-0.9c4.1-2.4,5.3-7.3,2.7-11
		L998.4,223.8c-1.7-2.4-4.7-3.7-7.6-3.7l-83.2-33.7c-0.4-0.2-0.9,0-1,0.4l-3.4,7C901.3,197.4,903.2,201.7,907.2,203.4z"/>
</g>
</svg>
