<?xml version="1.0" encoding="utf-8"?>
<!-- Generator: Adobe Illustrator 23.0.3, SVG Export Plug-In . SVG Version: 6.00 Build 0)  -->
<svg version="1.1" xmlns="http://www.w3.org/2000/svg" xmlns:xlink="http://www.w3.org/1999/xlink" x="0px" y="0px"
	 viewBox="0 0 1920 1080" style="enable-background:new 0 0 1920 1080;" xml:space="preserve">
<style type="text/css">
	.st0{fill:#E59400;}
	.st1{fill:#FFDF5C;}
	.st2{fill:#003E51;}
	.st3{fill:#88B535;}
	.st4{fill:#0B8500;}
	.st5{fill:#009245;}
	.st6{fill:none;stroke:#FF931E;stroke-width:5;stroke-miterlimit:10;}
	.st7{fill:#F0B031;}
	.st8{fill:none;stroke:#E59400;stroke-width:5;stroke-linecap:round;stroke-miterlimit:10;}
	.st9{fill:none;stroke:#E59400;stroke-width:3;stroke-linecap:round;stroke-miterlimit:10;}
	.st10{fill:#999999;}
	.st11{fill:#CCCCCC;}
	.st12{fill:#808080;}
	.st13{fill:#E6E6E6;}
	.st14{fill:#B3B3B3;}
	.st15{fill:#8C6239;}
	.st16{fill:#FCEE21;}
	.st17{fill:#C1272D;}
	.st18{fill:#F14929;}
	.st19{fill:#C1272D;stroke:#FF931E;stroke-width:5;stroke-miterlimit:10;}
	.st20{fill:#2B0912;stroke:#FF931E;stroke-width:5;stroke-miterlimit:10;}
	.st21{fill:none;stroke:#FF931E;stroke-width:5;stroke-linecap:round;stroke-linejoin:bevel;stroke-miterlimit:10;}
	.st22{fill:#2E3192;}
	.st23{fill:#1B1464;}
	.st24{fill:#333333;}
	.st25{fill:none;stroke:#000000;stroke-width:3;stroke-miterlimit:10;}
	.st26{fill:#FF931E;}
</style>
<g id="Layer_7">
	<path class="st0" d="M706.3,643.7c7.2,0,134.1-158.2,466.8-127.9c0,0,438.1,33.7,541.9,260.8S722.4,822,722.4,822L706.3,643.7"/>
	<path class="st1" d="M98.2,804.3c2.1-15.5,9.7-53.1,43.9-88.6c28.6-29.8,62-43.7,78.9-49.5c74.1-18.5,170.5-36.1,284.2-40.5
		c153.7-6,281.7,14.2,371,34.8c18.3,1.9,93.5,11.5,144.7,67.3c24.1,26.3,34.1,53.2,38.6,70.6C739.1,800.3,418.7,802.3,98.2,804.3z"
		/>
</g>
<g id="background_crops">
	<path class="st2" d="M302.2,1123.9"/>
	<path class="st3" d="M1745.3,867.1H94.7v-81.5c0-9.2,7.5-16.7,16.7-16.7h1617.2c9.2,0,16.7,7.5,16.7,16.7V867.1z"/>
	<path class="st4" d="M1728.6,965.4H111.4c-9.2,0-16.7-7.5-16.7-16.7v-81.5h1650.7v81.5C1745.3,957.9,1737.8,965.4,1728.6,965.4z"/>
	<path class="st5" d="M565.8,419.8"/>
	<path class="st6" d="M1127.1,767.1"/>
	<path class="st6" d="M908.9,574"/>
	<path class="st6" d="M1206.1,149.8"/>
	<path class="st1" d="M1757.3,892.8H83.7c-4.8,0-8.7-3.9-8.7-8.7v-30.6c0-6,4.8-10.8,10.8-10.8h1670.3c4.9,0,8.9,4,8.9,8.9v33.4
		C1765,889.4,1761.6,892.8,1757.3,892.8z"/>
	<circle class="st7" cx="307.5" cy="882.1" r="44.7"/>
	<path class="st0" d="M374.7,882.1c0.1-4.5-0.3-13.6-5.3-23.2c-7.2-13.9-19.1-19.7-23-21.5c-14.7,0-29.5,0-44.2,0
		c3.3,0.1,19.3,1,31.9,14.3c14.5,15.3,12.7,34.8,12.4,37.6c-0.6,4.5-2.3,13.3-8.8,21.5c-12.7,16-32.5,16.1-35.4,16.1
		c14.7,0,29.5,0,44.2,0c2.3-0.7,19.8-5.9,26.5-23.2C376.5,894.4,375.5,886.1,374.7,882.1z"/>
	<path class="st8" d="M332.4,875.4c5.8,14.2-1.1,30.4-15.3,36.1c-14.2,5.8-30.4-1.1-36.1-15.3"/>
	<path class="st9" d="M321.1,880.2c3.2,7.8-0.6,16.7-8.4,19.8c-7.8,3.2-16.7-0.6-19.8-8.4"/>
	<path class="st1" d="M714.1,930.4h-148c-3.6,0-6.5-2.9-6.5-6.5v-10.2c0-3.6,2.9-6.5,6.5-6.5h148c3.6,0,6.5,2.9,6.5,6.5v10.2
		C720.6,927.5,717.7,930.4,714.1,930.4z"/>
	<path class="st1" d="M1050.8,930.4H764.2c-3.3,0-6-2.7-6-6v-9.5c0-3.3,2.7-6,6-6h286.7c3.3,0,6,2.7,6,6v9.5
		C1056.8,927.7,1054.1,930.4,1050.8,930.4z"/>
	<path class="st1" d="M1416.1,959h-178.6c-3,0-5.5-2.5-5.5-5.5v-8.7c0-3,2.5-5.5,5.5-5.5h178.6c3,0,5.5,2.5,5.5,5.5v8.7
		C1421.6,956.5,1419.2,959,1416.1,959z"/>
	<path class="st1" d="M1436.6,937.5h131.1c3.3,0,6-2.7,6-6v-9.5c0-3.3-2.7-6-6-6h-131.1c-3.3,0-6,2.7-6,6v9.5
		C1430.6,934.8,1433.3,937.5,1436.6,937.5z"/>
	<path class="st1" d="M279.5,948.3h-148c-3.6,0-6.5-2.9-6.5-6.5v-10.2c0-3.6,2.9-6.5,6.5-6.5h148c3.6,0,6.5,2.9,6.5,6.5v10.2
		C286,945.3,283.1,948.3,279.5,948.3z"/>
	<path class="st1" d="M494.1,953.6h-67.5c-3.6,0-6.5-2.9-6.5-6.5v-10.2c0-3.6,2.9-6.5,6.5-6.5h67.5c3.6,0,6.5,2.9,6.5,6.5v10.2
		C500.6,950.7,497.7,953.6,494.1,953.6z"/>
	<path class="st1" d="M1672.7,939.3h-67.5c-3.6,0-6.5-2.9-6.5-6.5v-10.2c0-3.6,2.9-6.5,6.5-6.5h67.5c3.6,0,6.5,2.9,6.5,6.5v10.2
		C1679.2,936.4,1676.2,939.3,1672.7,939.3z"/>
</g>
<g id="silos">
	<path class="st10" d="M1293.1,231.7L1293.1,231.7l0,537.1h-173.9V231.7h0c0-0.5,0-1,0-1.5c0-44.9,38.9-81.3,87-81.3
		s87,36.4,87,81.3C1293.1,230.7,1293.1,231.3,1293.1,231.7z"/>
	<path class="st11" d="M1486,231.7L1486,231.7l0,537.1h-173.9V231.7h0c0-0.5,0-1,0-1.5c0-44.9,38.9-81.3,87-81.3s87,36.4,87,81.3
		C1486,230.7,1486,231.3,1486,231.7z"/>
	<path class="st12" d="M1208.8,153v615.8l85.8,0.6v-538c-0.2-5.3-2.2-36.2-28.6-58.8C1242.2,152.3,1215,152.8,1208.8,153z"/>
	<path class="st10" d="M1396.6,149.5v621.2l89.4,0.6V228.5c-0.3-5.3-2.3-36.5-29.8-59.3C1431.4,148.7,1403,149.2,1396.6,149.5z"/>
	<rect x="1119.4" y="275.9" class="st12" width="110.9" height="8.9"/>
	<rect x="1119.4" y="365.3" class="st12" width="110.9" height="8.9"/>
	<rect x="1119.4" y="454.7" class="st12" width="110.9" height="8.9"/>
	<rect x="1119.4" y="544.1" class="st12" width="110.9" height="8.9"/>
	<rect x="1119.4" y="633.5" class="st12" width="110.9" height="8.9"/>
	<rect x="1312.5" y="274.1" class="st10" width="110.9" height="8.9"/>
	<rect x="1312.5" y="363.5" class="st10" width="110.9" height="8.9"/>
	<rect x="1312.5" y="452.9" class="st10" width="110.9" height="8.9"/>
	<rect x="1312.5" y="542.3" class="st10" width="110.9" height="8.9"/>
	<rect x="1312.5" y="631.7" class="st10" width="110.9" height="8.9"/>
	<path class="st11" d="M1119.4,231.1h175.3c-0.6-8.6-3.3-30.2-19.7-50.1c-25.1-30.5-62.1-32-68-32.2c-5.1-0.3-38.7-1.5-64.4,25
		C1120.4,196.9,1119.5,225,1119.4,231.1z"/>
	<path class="st13" d="M1312.5,229.4h175.3c-0.6-8.6-3.3-30.2-19.7-50.1c-25.1-30.5-62.1-32-68-32.2c-5.1-0.3-38.7-1.5-64.4,25
		C1313.5,195.1,1312.6,223.2,1312.5,229.4z"/>
	<path class="st11" d="M1396.6,229.4v-82.3c7.5,0,34.7,1,59,21.5c27.4,23.1,31.5,54.2,32.2,60.8
		C1457.4,229.4,1427,229.4,1396.6,229.4z"/>
	<path class="st14" d="M1207,231.1v-82.3c7.2,0,33.3,1,56.7,21.5c26.4,23.1,30.2,54.2,30.9,60.8
		C1265.5,231.1,1236.2,231.1,1207,231.1z"/>
</g>
<g id="crops">
	<path class="st15" d="M486.8,772.2H205.3v-61.9c0-7,5.7-12.7,12.7-12.7h256.1c7,0,12.7,5.7,12.7,12.7V772.2z"/>
	<path class="st15" d="M837.8,768.8H556.3V707c0-7,5.7-12.7,12.7-12.7h256.1c7,0,12.7,5.7,12.7,12.7V768.8z"/>
	<path class="st5" d="M419.3,711.2h-10.5c-0.6,0-1.1-0.5-1.1-1.1v-208c0-0.6,0.5-1.1,1.1-1.1h10.5c0.6,0,1.1,0.5,1.1,1.1v208
		C420.4,710.7,419.9,711.2,419.3,711.2z"/>
	<path class="st3" d="M613,717c0,0,15.5-44.6-39.9-66.8C573.1,650.2,580.2,732,613,717z"/>
	<path class="st3" d="M612.2,722.3c0,0,39.3-22.1,11.9-78.3C624.1,644,578.5,710,612.2,722.3z"/>
	<path class="st3" d="M774.4,716.4c0,0,15.5-44.6-39.9-66.8C734.5,649.5,741.6,731.3,774.4,716.4z"/>
	<path class="st3" d="M774.4,719.9c0,0,39.3-22.1,11.9-78.3C786.3,641.6,740.7,707.5,774.4,719.9z"/>
	<path class="st5" d="M410.6,636.7c-2.1-15.1,2.7-29.3,12.6-36.1c5.4-3.7,11.1-4.5,14.8-4.5c0.8,6,2.1,12.9,4.2,20.3
		c1.9,6.9,4.1,12.9,6.3,18.1c-1.5-0.6-3.7-1.7-6.1-3.4c-2.2-1.6-9.1-6.6-10.8-14.7c-1.1-5.2,0.6-8.8,0-9c-0.7-0.3-3.7,5.6-12.6,29.4
		C416.3,636.7,413.5,636.7,410.6,636.7z"/>
	<path class="st5" d="M453.9,591.5"/>
	<path class="st5" d="M418.6,599.4c2.1-15.1-2.7-29.3-12.6-36.1c-5.4-3.7-11.1-4.5-14.8-4.5c-0.8,6-2.1,12.9-4.2,20.3
		c-1.9,6.9-4.1,12.9-6.3,18.1c1.5-0.6,3.7-1.7,6.1-3.4c2.2-1.6,9.1-6.6,10.8-14.7c1.1-5.2-0.6-8.8,0-9c0.7-0.3,3.7,5.6,12.6,29.4
		C413,599.4,415.8,599.4,418.6,599.4z"/>
	<path class="st5" d="M375.4,554.2"/>
	<path class="st5" d="M410.6,552c-2.1-15.1,2.7-29.3,12.6-36.1c5.4-3.7,11.1-4.5,14.8-4.5c0.8,6,2.1,12.9,4.2,20.3
		c1.9,6.9,4.1,12.9,6.3,18.1c-1.5-0.6-3.7-1.7-6.1-3.4c-2.2-1.6-9.1-6.6-10.8-14.7c-1.1-5.2,0.6-8.8,0-9c-0.7-0.3-3.7,5.6-12.6,29.4
		C416.3,552,413.5,552,410.6,552z"/>
	<path class="st5" d="M420.1,518.5c2.1-15.1-2.7-29.3-12.6-36.1c-5.4-3.7-11.1-4.5-14.8-4.5c-0.8,6-2.1,12.9-4.2,20.3
		c-1.9,6.9-4.1,12.9-6.3,18.1c1.5-0.6,3.7-1.7,6.1-3.4c2.2-1.6,9.1-6.6,10.8-14.7c1.1-5.2-0.6-8.8,0-9c0.7-0.3,3.7,5.6,12.6,29.4
		C414.5,518.5,417.3,518.5,420.1,518.5z"/>
	<path class="st5" d="M416.9,674c2.1-15.1-2.7-29.3-12.6-36.1c-5.4-3.7-11.1-4.5-14.8-4.5c-0.8,6-2.1,12.9-4.2,20.3
		c-1.9,6.9-4.1,12.9-6.3,18.1c1.5-0.6,3.7-1.7,6.1-3.4c2.2-1.6,9.1-6.6,10.8-14.7c1.1-5.2-0.6-8.8,0-9c0.7-0.3,3.7,5.6,12.6,29.4
		C411.3,674,414.1,674,416.9,674z"/>
	<path class="st16" d="M417.2,620.6c0,0,28.4-10.1,26.7-35.1C442.2,560.5,417.2,620.6,417.2,620.6z"/>
	<path class="st5" d="M417.4,621.7c13.8-3.5,25.5-11,29.7-19.3c2.3-4.5,1.9-8.2,1.2-10.4c-5.5,1.4-13.1,11.5-32.6,24.6
		C416.3,618.2,416.8,619.9,417.4,621.7z"/>
	<path class="st16" d="M412.5,569.7c0,0-30.7-10.1-28.9-35.3C385.4,509.2,412.5,569.7,412.5,569.7z"/>
	<path class="st5" d="M412.3,570.8c-15-3.6-27.6-11.1-32.2-19.4c-2.5-4.5-2-8.2-1.3-10.5c6,1.4,14.2,11.6,35.2,24.8
		C413.5,567.4,412.9,569.1,412.3,570.8z"/>
	<path class="st5" d="M290.1,711.2h-11.2c-0.6,0-1.2-0.5-1.2-1.2V502.3c0-0.6,0.5-1.2,1.2-1.2h11.2c0.6,0,1.2,0.5,1.2,1.2v207.8
		C291.2,710.7,290.7,711.2,290.1,711.2z"/>
	<path class="st5" d="M280.8,636.7c-2.3-15.1,2.9-29.3,13.6-36.1c5.8-3.7,11.9-4.5,15.8-4.5c0.9,6,2.3,12.9,4.5,20.3
		c2.1,6.9,4.4,12.9,6.8,18.1c-1.6-0.6-3.9-1.7-6.5-3.4c-2.4-1.6-9.8-6.6-11.6-14.7c-1.1-5.2,0.6-8.8,0-9c-0.8-0.3-3.9,5.6-13.6,29.4
		C286.8,636.7,283.8,636.7,280.8,636.7z"/>
	<path class="st5" d="M289.3,599.4c2.3-15.1-2.9-29.3-13.6-36.1c-5.8-3.7-11.9-4.5-15.8-4.5c-0.9,6-2.3,12.9-4.5,20.3
		c-2.1,6.9-4.4,12.9-6.8,18.1c1.6-0.6,3.9-1.7,6.5-3.4c2.4-1.6,9.8-6.6,11.6-14.7c1.1-5.2-0.6-8.8,0-9c0.8-0.3,3.9,5.6,13.6,29.4
		C283.3,599.4,286.3,599.4,289.3,599.4z"/>
	<path class="st5" d="M316.4,571"/>
	<path class="st5" d="M280.8,552c-2.3-15.1,2.9-29.3,13.6-36.1c5.8-3.7,11.9-4.5,15.8-4.5c0.9,6,2.3,12.9,4.5,20.3
		c2.1,6.9,4.4,12.9,6.8,18.1c-1.6-0.6-3.9-1.7-6.5-3.4c-2.4-1.6-9.8-6.6-11.6-14.7c-1.1-5.2,0.6-8.8,0-9c-0.8-0.3-3.9,5.6-13.6,29.4
		C286.8,552,283.8,552,280.8,552z"/>
	<path class="st5" d="M290.9,518.5c2.3-15.1-2.9-29.3-13.6-36.1c-5.8-3.7-11.9-4.5-15.8-4.5c-0.9,6-2.3,12.9-4.5,20.3
		c-2.1,6.9-4.4,12.9-6.8,18.1c1.6-0.6,3.9-1.7,6.5-3.4c2.4-1.6,9.8-6.6,11.6-14.7c1.1-5.2-0.6-8.8,0-9c0.8-0.3,3.9,5.6,13.6,29.4
		C284.9,518.5,287.9,518.5,290.9,518.5z"/>
	<path class="st5" d="M287.5,674c2.3-15.1-2.9-29.3-13.6-36.1c-5.8-3.7-11.9-4.5-15.8-4.5c-0.9,6-2.3,12.9-4.5,20.3
		c-2.1,6.9-4.4,12.9-6.8,18.1c1.6-0.6,3.9-1.7,6.5-3.4c2.4-1.6,9.8-6.6,11.6-14.7c1.1-5.2-0.6-8.8,0-9c0.8-0.3,3.9,5.6,13.6,29.4
		C281.5,674,284.5,674,287.5,674z"/>
	<path class="st16" d="M287.8,620.6c0,0,30.4-10.1,28.6-35.1C314.6,560.5,287.8,620.6,287.8,620.6z"/>
	<path class="st5" d="M288,621.7c14.8-3.5,27.3-11,31.9-19.3c2.5-4.5,2-8.2,1.3-10.4c-5.9,1.4-14,11.5-34.9,24.6
		C286.8,618.2,287.4,619.9,288,621.7z"/>
	<path class="st16" d="M282.8,569.7c0,0-32.9-10.1-30.9-35.3C253.8,509.2,282.8,569.7,282.8,569.7z"/>
	<path class="st5" d="M282.6,570.8c-16-3.6-29.6-11.1-34.5-19.4c-2.7-4.5-2.2-8.2-1.4-10.5c6.4,1.4,15.2,11.6,37.8,24.8
		C283.8,567.4,283.2,569.1,282.6,570.8z"/>
	<path class="st5" d="M349.7,711.2h-10.5c-0.6,0-1.1-0.5-1.1-1.1v-208c0-0.6,0.5-1.1,1.1-1.1h10.5c0.6,0,1.1,0.5,1.1,1.1v208
		C350.8,710.7,350.3,711.2,349.7,711.2z"/>
	<path class="st5" d="M341.1,636.7c-2.1-15.1,2.7-29.3,12.6-36.1c5.4-3.7,11.1-4.5,14.8-4.5c0.8,6,2.1,12.9,4.2,20.3
		c1.9,6.9,4.1,12.9,6.3,18.1c-1.5-0.6-3.7-1.7-6.1-3.4c-2.2-1.6-9.1-6.6-10.8-14.7c-1.1-5.2,0.6-8.8,0-9c-0.7-0.3-3.7,5.6-12.6,29.4
		C346.7,636.7,343.9,636.7,341.1,636.7z"/>
	<path class="st5" d="M349,599.4c2.1-15.1-2.7-29.3-12.6-36.1c-5.4-3.7-11.1-4.5-14.8-4.5c-0.8,6-2.1,12.9-4.2,20.3
		c-1.9,6.9-4.1,12.9-6.3,18.1c1.5-0.6,3.7-1.7,6.1-3.4c2.2-1.6,9.1-6.6,10.8-14.7c1.1-5.2-0.6-8.8,0-9c0.7-0.3,3.7,5.6,12.6,29.4
		C343.4,599.4,346.2,599.4,349,599.4z"/>
	<path class="st5" d="M309,561"/>
	<path class="st5" d="M341.1,552c-2.1-15.1,2.7-29.3,12.6-36.1c5.4-3.7,11.1-4.5,14.8-4.5c0.8,6,2.1,12.9,4.2,20.3
		c1.9,6.9,4.1,12.9,6.3,18.1c-1.5-0.6-3.7-1.7-6.1-3.4c-2.2-1.6-9.1-6.6-10.8-14.7c-1.1-5.2,0.6-8.8,0-9c-0.7-0.3-3.7,5.6-12.6,29.4
		C346.7,552,343.9,552,341.1,552z"/>
	<path class="st5" d="M350.5,518.5c2.1-15.1-2.7-29.3-12.6-36.1c-5.4-3.7-11.1-4.5-14.8-4.5c-0.8,6-2.1,12.9-4.2,20.3
		c-1.9,6.9-4.1,12.9-6.3,18.1c1.5-0.6,3.7-1.7,6.1-3.4c2.2-1.6,9.1-6.6,10.8-14.7c1.1-5.2-0.6-8.8,0-9c0.7-0.3,3.7,5.6,12.6,29.4
		C344.9,518.5,347.7,518.5,350.5,518.5z"/>
	<path class="st5" d="M347.3,674c2.1-15.1-2.7-29.3-12.6-36.1c-5.4-3.7-11.1-4.5-14.8-4.5c-0.8,6-2.1,12.9-4.2,20.3
		c-1.9,6.9-4.1,12.9-6.3,18.1c1.5-0.6,3.7-1.7,6.1-3.4c2.2-1.6,9.1-6.6,10.8-14.7c1.1-5.2-0.6-8.8,0-9c0.7-0.3,3.7,5.6,12.6,29.4
		C341.7,674,344.5,674,347.3,674z"/>
	<path class="st16" d="M347.6,620.6c0,0,28.4-10.1,26.7-35.1S347.6,620.6,347.6,620.6z"/>
	<path class="st5" d="M347.8,621.7c13.8-3.5,25.5-11,29.7-19.3c2.3-4.5,1.9-8.2,1.2-10.4c-5.5,1.4-13.1,11.5-32.6,24.6
		C346.7,618.2,347.3,619.9,347.8,621.7z"/>
	<path class="st16" d="M342.9,569.7c0,0-30.7-10.1-28.9-35.3C315.9,509.2,342.9,569.7,342.9,569.7z"/>
	<path class="st5" d="M342.7,570.8c-15-3.6-27.6-11.1-32.2-19.4c-2.5-4.5-2-8.2-1.3-10.5c6,1.4,14.2,11.6,35.2,24.8
		C343.9,567.4,343.3,569.1,342.7,570.8z"/>
	<path class="st3" d="M698.3,712.7c0,0,15.5-44.6-39.9-66.8C658.4,645.8,665.5,727.6,698.3,712.7z"/>
	<path class="st3" d="M695.2,717.9c0,0,39.3-22.1,11.9-78.3C707.1,639.6,661.5,705.6,695.2,717.9z"/>
</g>
<g id="barn">
	<polygon class="st17" points="809.4,544.3 892.5,385.7 987.4,342 1086.1,391 1176.1,559.3 1175.3,771.3 812.6,769.6 	"/>
	<g id="Layer_6_1_">
		<polygon class="st18" points="1162.3,526.2 819,526.2 831.5,499.4 1151.6,499.4 		"/>
		<polygon class="st18" points="1108.7,424.3 872.6,424.3 888.7,397.5 1092.6,397.5 		"/>
		<polygon class="st18" points="1086,390.3 888.7,390.3 938,363.5 1031.6,363.5 		"/>
		<rect x="810" y="535.2" class="st18" width="98.4" height="26.8"/>
		<rect x="810" y="533.4" class="st18" width="363" height="26.8"/>
		<rect x="810" y="569.1" class="st18" width="366.6" height="26.8"/>
		<rect x="810" y="603.1" class="st18" width="366.6" height="26.8"/>
		<rect x="810" y="637.1" class="st18" width="366.6" height="26.8"/>
		<rect x="811.8" y="671.1" class="st18" width="363" height="26.8"/>
		<rect x="811.8" y="705.1" class="st18" width="364.8" height="26.8"/>
		<rect x="811.8" y="739" class="st18" width="363" height="26.8"/>
		<polygon class="st18" points="1128.3,458.3 854.7,458.3 873.4,431.4 1109.7,431.4 		"/>
		<polygon class="st18" points="1148,492.2 833.3,492.2 854.7,465.4 1126.6,465.4 		"/>
		<polygon class="st18" points="957.4,358.1 1015.2,358.1 987.4,342 		"/>
	</g>
	<rect x="907.5" y="545.6" class="st19" width="167.4" height="223.7"/>
	<rect x="923.6" y="432.3" class="st20" width="62.6" height="84.1"/>
	<rect x="991.5" y="432.3" class="st20" width="62.6" height="84.1"/>
	<polyline class="st21" points="907.5,545 991.5,629.1 1075.6,545 	"/>
	<polyline class="st21" points="1075.6,768.5 991.5,629.1 907.5,768.5 	"/>
	<polyline class="st21" points="909.3,629.1 990.6,768.8 990.6,545.6 1075,629.9 908.9,629.9 989.7,545 	"/>
	<line class="st21" x1="1075.6" y1="629.1" x2="989.7" y2="768.5"/>
</g>
<g id="tractor">
	<path class="st22" d="M1537.1,716.7c0,0,3.5-48.6,7-48.6s87.1,0,87.1,0v67.2l-59.2,3.7l-17.4,26.1h10.5c0,0,0,29.9-3.5,26.1
		c-3.5-3.7-66.2,0-66.2,0s-3.5-29.9-52.3-26.1l3.5-41.1L1537.1,716.7z"/>
	<path class="st23" d="M1547.5,787.7c0-33,25-59.8,55.8-59.8s55.8,26.8,55.8,59.8"/>
	<path class="st23" d="M1425.6,795.2c0-22.7,17.2-41.1,38.3-41.1s38.3,18.4,38.3,41.1"/>
	<ellipse class="st24" cx="1603.3" cy="787.7" rx="45.3" ry="48.6"/>
	<ellipse class="st24" cx="1463.9" cy="798.9" rx="27.9" ry="29.9"/>
	<ellipse class="st10" cx="1463" cy="798.9" rx="20.5" ry="23"/>
	<ellipse class="st10" cx="1603.6" cy="785.8" rx="35" ry="39.2"/>
	<rect x="1537.1" y="653.2" class="st23" width="104.5" height="14.9"/>
	<path class="st13" d="M1546.5,668.2h15v45c0,0-21,3.2-21,0S1546.5,668.2,1546.5,668.2z"/>
	<rect x="1568.4" y="668.2" class="st13" width="52.3" height="44.8"/>
	<path class="st25" d="M1507.8,719.4c0-16.9-8.5-30.5-19-30.5"/>
	<circle class="st7" cx="1164.1" cy="769.4" r="44.7"/>
	<path class="st0" d="M1231.3,769.4c0.1-4.5-0.3-13.6-5.3-23.2c-7.2-13.9-19.1-19.7-23-21.5c-14.7,0-29.5,0-44.2,0
		c3.3,0.1,19.3,1,31.9,14.3c14.5,15.3,12.7,34.8,12.4,37.6c-0.6,4.5-2.3,13.3-8.8,21.5c-12.7,16-32.5,16.1-35.4,16.1
		c14.7,0,29.5,0,44.2,0c2.3-0.7,19.8-5.9,26.5-23.2C1233.1,781.7,1232.1,773.4,1231.3,769.4z"/>
	<path class="st8" d="M1189.1,762.7c5.8,14.2-1.1,30.4-15.3,36.1c-14.2,5.8-30.4-1.1-36.1-15.3"/>
	<path class="st9" d="M1177.8,767.6c3.2,7.8-0.6,16.7-8.4,19.8c-7.8,3.2-16.7-0.6-19.8-8.4"/>
	<path class="st26" d="M980.7,350.3l-68.5,30.5L790.6,571.3c-2.4,3.7-7.3,4.8-11,2.4l-1.4-0.9c-3.7-2.4-4.8-7.3-2.4-11l122-191.1
		c1.5-2.4,4.2-3.7,6.9-3.7l75.7-33.7c0.4-0.2,0.8,0,0.9,0.4l3.1,7C986,344.3,984.4,348.7,980.7,350.3z"/>
	<path class="st26" d="M982.2,350.4l75.3,30.5l133.7,190.5c2.6,3.7,8.1,4.8,12.2,2.4l1.5-0.9c4.1-2.4,5.3-7.3,2.7-11l-134.2-191.1
		c-1.7-2.4-4.7-3.7-7.6-3.7l-83.2-33.7c-0.4-0.2-0.9,0-1,0.4l-3.4,7C976.3,344.4,978.2,348.7,982.2,350.4z"/>
</g>
</svg>
