<?xml version="1.0" encoding="utf-8"?>
<!-- Generator: Adobe Illustrator 23.0.4, SVG Export Plug-In . SVG Version: 6.00 Build 0)  -->
<svg version="1.1" id="Layer_1" xmlns="http://www.w3.org/2000/svg" xmlns:xlink="http://www.w3.org/1999/xlink" x="0px" y="0px"
	 viewBox="0 0 1834 569" style="enable-background:new 0 0 1834 569;" xml:space="preserve">
<g id="Layer_3">
</g>
<g id="transport">
	<path style="fill:#F2F2F2;" d="M64.1,530.7c0,2.7-3.7,4.9-8.2,4.9c-1.9,0-3.6-0.4-4.9-1v-3.1c1.5-1.5,2.7-3.7,4.4-5.7
		c0.2,0,0.3,0,0.5,0C60.5,525.8,64.1,528,64.1,530.7z"/>
</g>
<g id="buildings">
	<path style="fill:#666666;" d="M1456-803.3h0.7c-0.4,2.6-0.7,5.3-0.7,8V-803.3z"/>
	<path style="fill:#97B4BB;" d="M1584-803.3v8c0-2.7-0.2-5.4-0.7-8H1584z"/>
	<path style="fill:#97B4BB;" d="M1622-803.3h0.7c-0.4,2.6-0.7,5.3-0.7,8V-803.3z"/>
	<path style="fill:#97B4BB;" d="M1750-803.3v8c0-2.7-0.2-5.4-0.7-8H1750z"/>
	<path style="fill:#97B4BB;" d="M1790.7-772.8c-0.3,1.6-0.6,3.3-0.6,5c0,0.4,0,0.8,0,1.1v-6.1H1790.7z"/>
	<path style="fill:#97B4BB;" d="M1918-772.8v6.1c0-2.1-0.2-4.1-0.7-6.1H1918z"/>
	<path style="fill:#97B4BB;" d="M1750-795.3c0-2.7-0.2-5.4-0.7-8h0.7V-795.3z"/>
</g>
<g id="bridge">
	<g>
		<path d="M1492.2,181.7v0.3h-3.1C1490.2,182,1491.2,181.9,1492.2,181.7z"/>
		<g>
			<path style="fill:#999999;" d="M1476.3,240.4v329.3h-64V427.1c0-3.2-0.3-6.4-1-9.5c-6.9-32.2-48.5-57-98.9-57
				c-50.3,0-92,24.8-98.9,57c-0.7,3.1-1,6.3-1,9.5v142.6h-64V427.1c0-3.2-0.3-6.4-1-9.5c-6.8-31.9-47.7-56.5-97.3-57l0,0H788l0,0
				c-0.5,0-1,0-1.6,0c-50.3,0-92,24.8-98.9,57c-0.7,3.1-1,6.3-1,9.5v142.6h-59.3V427.1c0-3.2-0.3-6.4-1-9.5
				c-6.9-32.2-48.5-57-98.9-57c-50.3,0-92,24.8-98.9,57c-0.7,3.1-1,6.3-1,9.5v142.6h-67.1V240.4H1476.3z"/>
			<path style="fill:#999999;" d="M1050.2,360.6L1050.2,360.6c-0.5,0-1,0-1.6,0H1050.2z"/>
			<rect x="429" y="282.5" style="fill:#808080;" width="198.2" height="57.7"/>
			<rect x="688.1" y="282.5" style="fill:#808080;" width="198.2" height="57.7"/>
			<rect x="686.6" y="282.5" style="fill:#808080;" width="465.1" height="57.7"/>
			<rect x="1211" y="282.5" style="fill:#808080;" width="202.9" height="57.7"/>
			<rect x="627.3" y="240.4" style="fill:#B3B3B3;" width="59.3" height="329.3"/>
			<rect x="1151.7" y="240.4" style="fill:#B3B3B3;" width="59.3" height="329.3"/>
			<rect x="1413.9" y="240.4" style="fill:#B3B3B3;" width="59.3" height="329.3"/>
			<rect x="376" y="263.8" style="fill:#B3B3B3;" width="1097.2" height="18.7"/>
			<rect x="376" y="330.9" style="fill:#B3B3B3;" width="1097.2" height="18.7"/>
			<path style="fill:#97B4BB;" d="M931.6-0.3c-44.7,0-96.8,0-160.8,22.2C747,30.2,682,53.5,624.1,109.3
				c-21.9,21.1-32.8,37.3-76.5,79.6c-23.2,22.5-43,40.1-56.2,51.5c44.2,0.4,88.5,0.9,132.7,1.3C625.4,136.5,762.8,51.5,932,51.5
				c21.2,0,42,1.3,62,3.9v-7.7h1c-0.5,2.5-0.9,5.1-1,7.7c139.5,17.8,244.7,94.3,245.8,186.3c44.5-0.4,88.9-0.9,133.4-1.3
				c-23.8-26.5-58.8-63.1-104.6-103c-65.7-57.3-99.5-86.8-154.5-109.2C1044.8-0.3,983.7-0.3,931.6-0.3z M930,12.5
				c0-4.2-0.3-8.4-1-12.5h1V12.5z"/>
			<rect x="725.6" y="70.3" style="fill:#97B4BB;" width="15.6" height="170.1"/>
			<rect x="788" y="70.3" style="fill:#97B4BB;" width="15.6" height="170.1"/>
			<rect x="850.4" y="48.4" style="fill:#97B4BB;" width="15.6" height="192"/>
			<rect x="912.9" y="48.4" style="fill:#97B4BB;" width="15.6" height="192"/>
			<rect x="975.3" y="48.4" style="fill:#97B4BB;" width="15.6" height="192"/>
			<rect x="1037.7" y="48.4" style="fill:#97B4BB;" width="15.6" height="192"/>
			<rect x="1100.1" y="48.4" style="fill:#97B4BB;" width="15.6" height="192"/>
			<rect x="1162.6" y="104.6" style="fill:#97B4BB;" width="15.6" height="135.8"/>
			<rect x="669.4" y="120.2" style="fill:#97B4BB;" width="17.2" height="120.2"/>
			<rect x="360.4" y="242" style="fill:#B3B3B3;" width="65.5" height="329.3"/>
		</g>
		<path style="fill:#999999;" d="M1636.6,569V466.4c0-2.4-0.3-4.7-0.7-7c-5.1-23.7-35.7-41.9-72.7-41.9s-67.6,18.2-72.7,41.9
			c-0.5,2.3-0.8,4.6-0.8,7V569h-13.4V240.9L1834,569H1636.6z"/>
		<polygon style="fill:#B3B3B3;" points="1475.8,240.4 1476.3,240.9 1476.3,569 1473.6,569 1473.6,238.4 		"/>
		<path style="fill:#999999;" d="M360.4,243v328.2h-11.5V466.4c0-2.4-0.3-4.7-0.7-7c-5.1-23.7-35.7-41.9-72.7-41.9
			s-67.6,18.2-72.7,41.9c-0.5,2.3-0.8,4.6-0.8,7v104.9H0L360.4,243z"/>
	</g>
</g>
</svg>
