<?xml version="1.0" encoding="utf-8"?>
<!-- Generator: Adobe Illustrator 23.0.4, SVG Export Plug-In . SVG Version: 6.00 Build 0)  -->
<svg version="1.1" id="Layer_1" xmlns="http://www.w3.org/2000/svg" xmlns:xlink="http://www.w3.org/1999/xlink" x="0px" y="0px"
	 viewBox="0 0 1404 681.9" style="enable-background:new 0 0 1404 681.9;" xml:space="preserve">

<g id="car">
	<path style="fill:#1F4370;" d="M1404,375.2v145.2h-121.2c-17.4-23.2-42.9-40-72.5-46c-7.7-1.6-16-2.4-24.2-2.4
		c-39.5,0-74.7,19-96.5,48.4H383.1C362.8,491,328.9,472,290.5,472s-72.3,19-92.6,48.4H6c-3.9-12.7-6-26.3-6-40.3v-1.6
		c13.4,6,30.2,9.7,48.4,9.7c44.5,0,80.7-21.6,80.7-48.4S93,391.4,48.4,391.4c-1.6,0-3.4,0-5,0.2c10.2-12.3,21.9-23.7,37.3-32.4
		c82.3-47.3,160.9-70.5,209.8-74.6c11-4.2,66.5-11,126.4-16.1c17.6-64.7,59.5-155.4,164.1-215.9C676.7-2.8,763.7-1.7,831.1,1
		c47.4,1.9,196.6-7.7,282.4,35.4c125.6,62.9,172.8,170.1,193.8,242.1c26.6,0,50.7,11,68.3,28.4C1393,324.3,1404,348.5,1404,375.2z"
		/>
	<path d="M387.3,585c0,9.7-1.4,19-4,27.7c-11.9,40-48.8,69.2-92.8,69.2s-80.9-29.2-92.8-69.2c-2.6-8.7-4-18-4-27.7
		c0-53.5,43.3-96.8,96.8-96.8S387.3,531.4,387.3,585z"/>
	<path d="M1291,585c0,9.7-1.5,19-4.3,27.7c-12.9,40-52.9,69.2-100.6,69.2s-87.7-29.2-100.6-69.2c-2.8-8.7-4.3-18-4.3-27.7
		c0-53.5,46.9-96.8,104.9-96.8C1244.1,488.1,1291,531.4,1291,585z"/>
	<path d="M44.8,667.7L44.8,667.7l-1.6,0.1C43.7,667.8,44.2,667.8,44.8,667.7z"/>
	<path style="fill:#72B8A1;" d="M791.9,84.7v193.7H484.1v-29.2c0-90.5,82.3-164.5,183-164.5H791.9L791.9,84.7z"/>
	<path style="fill:#72B8A1;" d="M1145.8,255.5v22.8H853.4V84.7h102.3C1060.2,84.7,1145.8,161.6,1145.8,255.5z"/>
	<path style="fill:#808080;" d="M355,585c0,6.5-0.9,12.6-2.7,18.4c-7.9,26.7-32.6,46.1-61.9,46.1s-53.9-19.5-61.9-46.1
		c-1.8-5.8-2.7-12-2.7-18.4c0-35.7,28.9-64.6,64.6-64.6S355,549.3,355,585z"/>
	<path style="fill:#808080;" d="M1258.8,585c0,6.5-1,12.6-3,18.4c-8.9,26.7-36.6,46.1-69.6,46.1s-60.7-19.5-69.6-46.1
		c-2-5.8-3-12-3-18.4c0-35.7,32.5-64.6,72.6-64.6S1258.8,549.3,1258.8,585z"/>
	<path style="fill:#F2F2F2;" d="M129.1,439.7c0,26.8-36.1,48.4-80.7,48.4c-18.2,0-35-3.7-48.4-9.7v-30.7
		c15-14.4,26.8-36.3,43.4-56.3c1.6-0.2,3.4-0.2,5-0.2C93,391.3,129.1,412.9,129.1,439.7z"/>
	<path style="fill:#467BBD;" d="M177.5,585c0,11.3,1.6,22.1,4.7,32.3h-45c-61.5,0-113.8-40.8-131.2-96.8h191.9
		C184.9,538.6,177.5,560.9,177.5,585z"/>
	<path style="fill:#467BBD;" d="M1065.1,593c0,8.2,0.8,16.5,2.4,24.2H403.4v-32.3c0-24-7.4-46.3-20.3-64.6h706.5
		C1074.1,540.6,1065.1,565.8,1065.1,593z"/>
	<path style="fill:#467BBD;" d="M1404,520.4c0,47.8-35,87.8-80.7,95.4c-5.3,1-10.6,1.5-16.1,1.5c-0.8,0-1.6,0-2.4-0.2
		c1.6-7.7,2.4-15.8,2.4-24c0-27.4-9-52.6-24.4-72.6H1404V520.4z"/>
	<rect x="693.9" y="326.8" width="80.7" height="32.3"/>
	<rect x="1065.1" y="326.8" width="80.7" height="32.3"/>
</g>

</svg>
