<?xml version="1.0" encoding="utf-8"?>
<!-- Generator: Adobe Illustrator 23.0.4, SVG Export Plug-In . SVG Version: 6.00 Build 0)  -->
<svg version="1.1" id="Layer_1" xmlns="http://www.w3.org/2000/svg" xmlns:xlink="http://www.w3.org/1999/xlink" x="0px" y="0px"
	 viewBox="0 0 823.8 121.4" style="enable-background:new 0 0 823.8 121.4;" xml:space="preserve">
<style type="text/css">
	.st0{fill:#5ABA50;}
</style>
<g>
	<path class="st0" d="M6,61.1c0-13.3,8.3-24.8,24.2-24.8c6,0,10.8,1.8,15.8,6.1c1.9,1.7,2.1,4.8,0.2,6.7c-1.9,1.7-4.7,1.4-6.3-0.2
		c-2.8-3-5.7-3.8-9.7-3.8c-10.6,0-15.7,7.5-15.7,15.9c0,8.6,5,16.4,15.7,16.4c3.9,0,7.6-1.6,10.8-4.4c2.1-1.7,5.1-0.8,6.3,0.8
		c1.1,1.5,1.7,4.1-0.8,6.5c-4.8,4.5-10.6,5.4-16.4,5.4C13.5,85.8,6,74.4,6,61.1z"/>
	<path class="st0" d="M56.8,41.7c0-5.7,9.1-5.9,9.1,0v39.4c0,5.7-9.1,5.9-9.1,0V41.7z"/>
	<path class="st0" d="M89.1,46.2H77c-6,0-6-8.8,0-8.8h32.6c6.1,0,6.1,8.8,0,8.8H98.2V81c0,6-9.1,6.1-9.1,0V46.2z"/>
	<path class="st0" d="M119.5,44c-3.7-4.6,4.1-9.9,7.7-4.9L140,58l12.9-18.9c3.7-5,11.2,0,7.6,4.6l-16.1,23v14.2c0.6,6-9.1,6-9.1,0
		V66.7L119.5,44z"/>
	<path class="st0" d="M215.2,68.8l10.3-28.4c2.1-5.6,10.4-3,8.3,3l-13.7,37.1c-1.2,3.9-2.4,5.1-4.8,5.1c-2.5,0-3.2-1.5-4.6-4
		l-12-27.3l-11.5,26.8c-1.2,2.9-2.4,4.6-4.9,4.6c-2.4,0-3.7-1.7-4.8-4.7l-13.4-37.6c-2.1-6.2,6.7-8.5,8.5-3L183,68.8l12.2-28.4
		c1.7-4.2,6-4.4,7.8-0.2L215.2,68.8z"/>
	<path class="st0" d="M240.9,41.7c0-5.7,9.1-5.9,9.1,0v39.4c0,5.7-9.1,5.9-9.1,0V41.7z"/>
	<path class="st0" d="M265,85.3c-2.3,0-4.8-1.2-4.8-4.3V41.8c0-2.5,2.5-4.3,4.8-4.3h15.8c31.5,0,30.8,47.7,0.6,47.7H265z
		 M269.3,45.9v30.9h11.5c18.6,0,19.5-30.9,0-30.9H269.3z"/>
	<path class="st0" d="M316.5,85.3c-2.4,0-4.3-1.9-4.3-4.3V41.8c0-2.5,1.9-4.3,4.3-4.3h24.8c6.3,0,6.2,9,0,9h-19.9v10.4h17.4
		c6.1,0,6.1,9,0,9h-17.4v10.4h21c6.3,0,6.8,9,0,9H316.5z"/>
	<path class="st0" d="M379.7,85.3c-2.3,0-4.8-1.2-4.8-4.3V41.8c0-2.5,2.5-4.3,4.8-4.3h15.8c31.5,0,30.8,47.7,0.6,47.7H379.7z
		 M384,45.9v30.9h11.5c18.6,0,19.5-30.9,0-30.9H384z"/>
	<path class="st0" d="M426,85.3c-2.2-1.2-3.6-3.7-2.2-6.6l19.8-38.7c1.9-3.7,6.8-3.8,8.6,0l19.5,38.7c2.8,5.4-5.5,9.7-8,4.3l-3-6.1
		h-25.5l-3,6.1C431.1,85.3,428.5,85.8,426,85.3z M455.7,67.8l-7.8-17l-8.5,17H455.7z"/>
	<path class="st0" d="M477.1,47.9c1.6-13.4,21.8-15.8,31.3-8.5c4.7,3.8-0.3,9.8-4.4,6.8c-5.1-3.2-16.7-4.8-18.1,2.4
		c-1.9,11.3,28.2,4.8,27.7,23.2c-0.5,17.5-25.9,17.9-35.4,10.1c-2.3-1.9-2.2-4.9-1-6.8c1.8-1.8,3.8-2.4,6.1-0.5
		c5.7,3.9,20.2,6.8,21.3-3C503.7,61.3,474.9,67.5,477.1,47.9z"/>
	<path class="st0" d="M521.5,81V41.8c0-2.5,1.8-4.3,4.9-4.3c2.4,0,4.2,1.8,4.2,4.3v15h22.5v-15c0-2.5,2.2-4.3,4.7-4.3
		c2.4,0,4.3,1.8,4.3,4.3V81c0,2.4-1.9,4.3-4.3,4.3c-2.5,0-4.7-1.9-4.7-4.3V65.9h-22.5V81c0,2.4-1.8,4.3-4.2,4.3
		C523.3,85.3,521.5,83.4,521.5,81z"/>
	<path class="st0" d="M575.8,85.3c-2.5,0-4.2-1.9-4.2-4.3V41.8c0-2.5,1.7-4.3,4.2-4.3h19.4c9,0,13.9,6.1,13.9,13.2
		c0,3.1-0.9,6.1-3.8,8.7c5.5,2.1,7.9,6.3,7.9,11.5c0,7.9-5.4,14.4-15.7,14.4H575.8z M595.2,45.9h-14.6v10.3h14.6
		c3,0,4.8-1.9,4.8-5.5C600,48.4,598.2,45.9,595.2,45.9z M580.7,76.9h16.8c8,0,8-12.2,0-12.2c-5.2,0-11.4,0-16.8,0V76.9z"/>
	<path class="st0" d="M645.7,86c-12.8,0.6-26-7.9-26-24.8c0-17,13.2-25.3,26-25.3c12.1,0.6,24.7,9,24.7,25.3S657.7,86,645.7,86z
		 M644.9,44.8c-7.7,0-16.1,5.5-16.1,16.4c0,10.8,8.4,16.4,16.1,16.4c7.9,0,16.4-5.5,16.4-16.4C661.3,50.2,652.8,44.8,644.9,44.8z"/>
	<path class="st0" d="M677.8,85.3c-2.2-1.2-3.6-3.7-2.2-6.6l19.8-38.7c1.9-3.7,6.8-3.8,8.6,0l19.5,38.7c2.8,5.4-5.5,9.7-8,4.3
		l-3-6.1h-25.5l-3,6.1C682.8,85.3,680.3,85.8,677.8,85.3z M707.5,67.8l-7.8-17l-8.5,17H707.5z"/>
	<path class="st0" d="M738.9,80.8c0,6-9.2,6.2-9.2,0.1V41.7c0-2.4,1.9-4.2,4.1-4.2h18.4c17.5,0,21.1,23.5,6.5,29.3l9.2,11.2
		c3.6,5.3-3.6,10.4-7.7,5.2l-10.4-14.9h-10.8V80.8z M738.9,60.4h13.3c9,0,9.5-14.5,0-14.5h-13.3V60.4z"/>
	<path class="st0" d="M781.1,85.3c-2.3,0-4.8-1.2-4.8-4.3V41.8c0-2.5,2.5-4.3,4.8-4.3h15.8c31.5,0,30.8,47.7,0.6,47.7H781.1z
		 M785.4,45.9v30.9h11.5c18.6,0,19.5-30.9,0-30.9H785.4z"/>
</g>
</svg>
