<?xml version="1.0" encoding="utf-8"?>
<!-- Generator: Adobe Illustrator 23.0.3, SVG Export Plug-In . SVG Version: 6.00 Build 0)  -->
<svg version="1.1" xmlns="http://www.w3.org/2000/svg" xmlns:xlink="http://www.w3.org/1999/xlink" x="0px" y="0px"
	 viewBox="0 0 1920 1080" style="enable-background:new 0 0 1920 1080;" xml:space="preserve">
<style type="text/css">
	.clecrib_st0{fill:#F2F2F2;stroke:#F14929;stroke-width:2;stroke-miterlimit:10;}
	.clecrib_st1{fill:#F14929;}
	.clecrib_st2{fill:#BDCCD4;}
	.clecrib_st3{fill:#2E3192;stroke:#F2F2F2;stroke-miterlimit:10;}
	.clecrib_st4{fill:none;stroke:#F2F2F2;stroke-miterlimit:10;}
	.clecrib_st5{fill:none;stroke:#F14929;stroke-miterlimit:10;}
	.clecrib_st6{fill:none;stroke:#BDCCD4;stroke-miterlimit:10;}
	.clecrib_st7{fill:none;stroke:#BDCCD4;stroke-width:3;stroke-miterlimit:10;}
	.clecrib_st8{fill:none;stroke:#F14929;stroke-width:2;stroke-miterlimit:10;}
	.clecrib_st9{fill:#39B0D8;}
	.clecrib_st10{fill:#81CEEA;}
</style>
<g id="island_background">
</g>
<g id="Layer_1">
	<path class="clecrib_st0" d="M1121.8,804c-71.7,0-143.5,0-215.2,0c1-88,2-175.9,3.1-263.9c71.7,5.5,143.5,11,215.2,16.5
		C1123.8,639.1,1122.8,721.6,1121.8,804z"/>
	<path class="clecrib_st0" d="M906.6,812.3c-74.8,0-149.6,0-224.4,0V560.7c74.8-6.9,149.6-13.7,224.4-20.6
		C906.6,630.8,906.6,721.6,906.6,812.3z"/>
	<path class="clecrib_st0" d="M906.6,511.3c-30.7,6.9-61.5,13.7-92.2,20.6c1-16.5,2-33,3.1-49.5c30.7-4.1,61.5-8.2,92.2-12.4
		C908.6,483.8,907.6,497.5,906.6,511.3z"/>
	<path class="clecrib_st1" d="M565.3,700.9l3.1,173.2l-12.3,4.1l3.1,53.6c108.6-0.9,217.3-2.3,325.9-4.1c124-2.1,248-4.9,372-8.2
		c-1-22-2-44-3.1-66h-12.3l-3.1-169.1C1238.6,684.4,814.3,626.7,565.3,700.9z"/>
	<path class="clecrib_st2" d="M682.1,556.6c17-8.9,36.5-17.6,58.4-24.7c31-10.1,59.2-14.7,83-16.5c28.7-2.7,57.4-5.5,86.1-8.2l73.8,4.1
		c31.1,4.7,65.2,12.4,101.5,24.7c15,5.1,29.4,10.7,43,16.5c-73.8-4.1-147.6-8.2-221.4-12.4C831.8,545.6,756.9,551.1,682.1,556.6z"/>
	<path class="clecrib_st3" d="M1088,527.8c-56.9-2.1-113.8-4.1-170.7-6.2c-13.8-32.3-27.6-64.6-41.4-96.9c52.5,0.7,105,1.4,157.4,2.1
		C1051.5,460.4,1069.7,494.1,1088,527.8z"/>
	<line class="clecrib_st4" x1="895.8" y1="476.2" x2="1061.8" y2="480.3"/>
	<line class="clecrib_st4" x1="920.4" y1="426.7" x2="966.5" y2="525.7"/>
	<line class="clecrib_st4" x1="960.4" y1="426.7" x2="1012.6" y2="525.7"/>
	<line class="clecrib_st4" x1="1000.3" y1="426.7" x2="1052.6" y2="525.7"/>
	<line class="clecrib_st5" x1="828.2" y1="443.2" x2="828.2" y2="480.3"/>
	<line class="clecrib_st5" x1="852.8" y1="439.1" x2="852.8" y2="476.2"/>
	<line class="clecrib_st6" x1="877.4" y1="439.1" x2="877.4" y2="476.2"/>
	<line class="clecrib_st7" x1="914.3" y1="422.6" x2="908.1" y2="35"/>
	<line class="clecrib_st8" x1="980.8" y1="548.4" x2="980.8" y2="688.6"/>
	<line class="clecrib_st8" x1="906.6" y1="610.2" x2="1121" y2="622.6"/>
	<line class="clecrib_st8" x1="1059.1" y1="552.5" x2="1059.1" y2="692.7"/>
	<line class="clecrib_st8" x1="746.2" y1="556.6" x2="746.2" y2="705.1"/>
	<line class="clecrib_st8" x1="683.9" y1="630.8" x2="902.4" y2="610.2"/>
	<line class="clecrib_st0" x1="824.4" y1="551.1" x2="824.4" y2="663.6"/>
	<path class="clecrib_st9" d="M1307.7,979.6h-280.6c-2.8,0-5.1-2.3-5.1-5.1v-81.4c0-2.8,2.3-5.1,5.1-5.1h280.6c2.8,0,5.1,2.3,5.1,5.1v81.4
		C1312.8,977.4,1310.5,979.6,1307.7,979.6z"/>
	<path class="clecrib_st10" d="M1111.5,1031.4H689.7c-3.4,0-6.2-2.8-6.2-6.2v-99.1c0-3.4,2.8-6.2,6.2-6.2h421.7c3.4,0,6.2,2.8,6.2,6.2v99.1
		C1117.7,1028.6,1114.9,1031.4,1111.5,1031.4z"/>
	<path class="clecrib_st9" d="M774.9,979.6H528.4c-2.3,0-4.2-1.9-4.2-4.2v-67.3c0-2.3,1.9-4.2,4.2-4.2h246.5c2.3,0,4.2,1.9,4.2,4.2v67.3
		C779.1,977.8,777.2,979.6,774.9,979.6z"/>
</g>
<g id="WT_Storage">
</g>
<g id="WT_towers">
</g>
<g id="buildings">
</g>
<g id="WT_pools">
</g>
<g id="Crib">
</g>
</svg>
