<?xml version="1.0" encoding="utf-8"?>
<!-- Generator: Adobe Illustrator 23.0.4, SVG Export Plug-In . SVG Version: 6.00 Build 0)  -->
<svg version="1.1" id="Layer_1" xmlns="http://www.w3.org/2000/svg" xmlns:xlink="http://www.w3.org/1999/xlink" x="0px" y="0px"
	 viewBox="0 0 788.6 996.4" style="enable-background:new 0 0 788.6 996.4;" xml:space="preserve">

<g id="crib">
	<path style="fill:#F2F2F2;stroke:#F14929;stroke-width:2;stroke-miterlimit:10;" d="M597.6,769c-71.7,0-143.5,0-215.2,0
		c1-88,2-175.9,3.1-263.9c71.7,5.5,143.5,11,215.2,16.5C599.6,604.1,598.6,686.6,597.6,769z"/>
	<path style="fill:#F2F2F2;stroke:#F14929;stroke-width:2;stroke-miterlimit:10;" d="M384.4,777.3c-74.8,0-149.6,0-224.4,0V525.7
		c74.8-6.9,149.6-13.7,224.4-20.6C384.4,595.8,384.4,686.6,384.4,777.3z"/>
	<path style="fill:#F2F2F2;stroke:#F14929;stroke-width:2;stroke-miterlimit:10;" d="M382.4,476.3c-30.7,6.9-61.5,13.7-92.2,20.6
		c1-16.5,2-33,3.1-49.5c30.7-4.1,61.5-8.2,92.2-12.4C384.4,448.8,383.4,462.5,382.4,476.3z"/>
	<path style="fill:#F14929;" d="M41.1,665.9l3.1,173.2l-12.3,4.1l3.1,53.6c108.6-0.9,217.3-2.3,325.9-4.1c124-2.1,248-4.9,372-8.2
		c-1-22-2-44-3.1-66h-12.3l-3.1-169.1C714.4,649.4,290.1,591.7,41.1,665.9z"/>
	<path style="fill:#BDCCD4;" d="M157.9,525.6c17-8.9,36.5-21.6,58.4-28.7c31-10.1,59.2-14.7,83-16.5c28.7-2.7,57.4-5.5,86.1-8.2
		l73.8,4.1c31.1,4.7,65.2,12.4,101.5,24.7c15,5.1,27.4,13.7,41,19.5c-73.8-4.1-144.6-12.2-218.4-16.4
		C308.6,509.6,232.7,520.1,157.9,525.6z"/>
	<path style="fill:#2E3192;stroke:#F2F2F2;stroke-miterlimit:10;" d="M563.8,492.8c-56.9-2.1-113.8-4.1-170.7-6.2
		c-13.8-32.3-27.6-64.6-41.4-96.9c52.5,0.7,105,1.4,157.4,2.1C527.3,425.4,545.5,459.1,563.8,492.8z"/>
	<line style="fill:none;stroke:#F2F2F2;stroke-miterlimit:10;" x1="371.6" y1="441.2" x2="537.6" y2="445.3"/>
	<line style="fill:none;stroke:#F2F2F2;stroke-miterlimit:10;" x1="396.2" y1="391.7" x2="442.3" y2="490.7"/>
	<line style="fill:none;stroke:#F2F2F2;stroke-miterlimit:10;" x1="436.2" y1="391.7" x2="488.4" y2="490.7"/>
	<line style="fill:none;stroke:#F2F2F2;stroke-miterlimit:10;" x1="476.1" y1="391.7" x2="528.4" y2="490.7"/>
	<line style="fill:none;stroke:#F14929;stroke-width:3;stroke-miterlimit:10;" x1="304" y1="408.2" x2="304" y2="445.3"/>
	<line style="fill:none;stroke:#F14929;stroke-width:3;stroke-miterlimit:10;" x1="328.6" y1="404.1" x2="328.6" y2="443.2"/>
	<line style="fill:#F2F2F2;stroke:#F14929;stroke-width:3;stroke-miterlimit:10;" x1="353.2" y1="402.1" x2="353.2" y2="439.2"/>
	<line style="fill:none;stroke:#BDCCD4;stroke-width:3;stroke-miterlimit:10;" x1="390.1" y1="387.6" x2="383.9" y2="0"/>
	<line style="fill:none;stroke:#F14929;stroke-width:4;stroke-miterlimit:10;" x1="456.6" y1="510.4" x2="456.6" y2="653.6"/>
	<line style="fill:none;stroke:#F14929;stroke-width:4;stroke-miterlimit:10;" x1="382.4" y1="575.2" x2="599.8" y2="587.6"/>
	<line style="fill:none;stroke:#F14929;stroke-width:4;stroke-miterlimit:10;" x1="534.9" y1="517.5" x2="534.9" y2="657.7"/>
	<line style="fill:none;stroke:#F14929;stroke-width:4;stroke-miterlimit:10;" x1="222" y1="520.6" x2="222" y2="670.1"/>
	<line style="fill:none;stroke:#F14929;stroke-width:4;stroke-miterlimit:10;" x1="159.7" y1="595.8" x2="384.2" y2="575.2"/>
	<line style="fill:none;stroke:#F14929;stroke-width:4;stroke-miterlimit:10;" x1="300.2" y1="513.4" x2="300.2" y2="631.6"/>
	<path style="fill:#39B0D8;" d="M783.5,944.6H502.9c-2.8,0-5.1-2.3-5.1-5.1v-81.4c0-2.8,2.3-5.1,5.1-5.1h280.6
		c2.8,0,5.1,2.3,5.1,5.1v81.4C788.6,942.4,786.3,944.6,783.5,944.6z"/>
	<path style="fill:#81CEEA;" d="M587.3,996.4H165.5c-3.4,0-6.2-2.8-6.2-6.2v-99.1c0-3.4,2.8-6.2,6.2-6.2h421.7
		c3.4,0,6.2,2.8,6.2,6.2v99.1C593.5,993.6,590.7,996.4,587.3,996.4z"/>
	<path style="fill:#39B0D8;" d="M250.7,944.6H4.2c-2.3,0-4.2-1.9-4.2-4.2v-67.3c0-2.3,1.9-4.2,4.2-4.2h246.5c2.3,0,4.2,1.9,4.2,4.2
		v67.3C254.9,942.8,253,944.6,250.7,944.6z"/>
</g>

</svg>
