<?xml version="1.0" encoding="utf-8"?>
<!-- Generator: Adobe Illustrator 23.0.4, SVG Export Plug-In . SVG Version: 6.00 Build 0)  -->
<svg version="1.1" id="Layer_1" xmlns="http://www.w3.org/2000/svg" xmlns:xlink="http://www.w3.org/1999/xlink" x="0px" y="0px"
	 viewBox="0 0 1225.8 1009.1" style="enable-background:new 0 0 1225.8 1009.1;" xml:space="preserve">

<g id="buildings">
	<path style="fill:#BDCCD4;" d="M392.9,634.9h97.8c0-124.9,0-249.9,0-374.8c-32.6,0-65.2,0-97.8,0V634.9z"/>
	<path style="fill:#2E3192;" d="M363.6,638.1H406v-378c-14.1,6.5-28.2,13-42.4,19.6C363.6,399.1,363.6,518.6,363.6,638.1z"/>
	<rect x="405.9" y="198.1" style="fill:#BDCCD4;" width="75" height="75"/>
	<polygon style="fill:#2E3192;" points="406,207.9 395.1,214.5 373.4,227.5 373.4,277 406,260.1 	"/>
	<path style="fill:#BDCCD4;" d="M480.9,207.9"/>
	<rect x="415.8" y="123.2" style="fill:#BDCCD4;" width="32.6" height="91.3"/>
	<path style="fill:#2E3192;" d="M396.2,185.1"/>
	<path style="fill:#2E3192;" d="M373.4,227.5l32.6-19.6v-84.7c-5.4,2.2-10.9,4.3-16.3,6.5c0,21.7,0,43.5,0,65.2l-16.3,13V227.5z"/>
	<path style="fill:#2E3192;" d="M428.8-3.2l-6.5,26.1v19.6l-6.5,13v48.9c-3.3,2.2-6.5,4.3-9.8,6.5c0,9.8,0,19.6,0,29.3h22.8V-3.2"/>
	<rect x="405.9" y="123.2" style="fill:#2E3192;" width="9.8" height="75"/>
	<path style="fill:#BDCCD4;" d="M457.5,107.6c1.3,14.1,2.6,28.2,3.9,42.4c-6.5-16.3-13-32.6-19.6-48.9L457.5,107.6z"/>
	<path style="fill:#BDCCD4;" d="M334.3,104.4"/>
	<rect x="415.8" y="123.2" style="fill:#BDCCD4;" width="52.1" height="78.2"/>
	<path style="fill:#F14929;" d="M267,748h79.9V248.3c-26.6,17.5-53.3,35-79.9,52.5C267,449.8,267,598.9,267,748z"/>
	<path style="fill:#FF931E;" d="M423.6,748.4H347V248.6c23.3,17.5,50,35,76.6,52.5C423.6,450.2,423.6,599.3,423.6,748.4z"/>
	<rect x="544.5" y="396.5" style="fill:#BDCCD4;" width="96.4" height="537.2"/>
	<rect x="410.8" y="396.5" style="fill:#343363;" width="133.7" height="537.2"/>
	<polygon style="fill:#2E3192;" points="512.6,371.2 512.6,396.6 592.7,396.6 592.7,357.8 566,357.8 566,345.7 549.3,345.7 
		549.3,357.8 539.3,357.8 539.3,371.2 	"/>
	<rect x="507.3" y="649.4" style="fill:#2E3192;" width="17.1" height="41.4"/>
	<rect x="507.3" y="698.5" style="fill:#2E3192;" width="17.1" height="41.4"/>
	<rect x="510.7" y="747.6" style="fill:#2E3192;" width="17.1" height="41.4"/>
	<rect x="484.3" y="651.2" style="fill:#2E3192;" width="17.1" height="41.4"/>
	<rect x="461.3" y="651.2" style="fill:#2E3192;" width="17.1" height="41.4"/>
	<rect x="438.2" y="651.2" style="fill:#2E3192;" width="17.1" height="41.4"/>
	<rect x="415.2" y="651.2" style="fill:#2E3192;" width="17.1" height="41.4"/>
	<rect x="438.2" y="700.3" style="fill:#2E3192;" width="17.1" height="41.4"/>
	<rect x="415.2" y="700.3" style="fill:#2E3192;" width="17.1" height="41.4"/>
	<rect x="441.6" y="749.4" style="fill:#2E3192;" width="17.1" height="41.4"/>
	<rect x="418.6" y="749.4" style="fill:#2E3192;" width="17.1" height="41.4"/>
	<rect x="1040.3" y="628.3" style="fill:#2E3192;" width="25" height="37.7"/>
	<rect x="1006.8" y="628.3" style="fill:#2E3192;" width="25" height="37.7"/>
	<rect x="484.3" y="700.3" style="fill:#2E3192;" width="17.1" height="41.4"/>
	<rect x="461.3" y="700.3" style="fill:#2E3192;" width="17.1" height="41.4"/>
	<rect x="487.7" y="749.4" style="fill:#2E3192;" width="17.1" height="41.4"/>
	<rect x="464.7" y="749.4" style="fill:#2E3192;" width="17.1" height="41.4"/>
	<rect x="1040.3" y="673" style="fill:#2E3192;" width="25" height="37.7"/>
	<rect x="1006.8" y="673" style="fill:#2E3192;" width="25" height="37.7"/>
	<rect x="1072.4" y="673" style="fill:#2E3192;" width="25" height="37.7"/>
	<rect x="1072.4" y="628.3" style="fill:#2E3192;" width="25" height="37.7"/>
	<rect x="439.3" y="403.9" style="fill:#2E3192;" width="17.1" height="41.4"/>
	<rect x="416.3" y="403.9" style="fill:#2E3192;" width="17.1" height="41.4"/>
	<rect x="439.3" y="453" style="fill:#2E3192;" width="17.1" height="41.4"/>
	<rect x="416.3" y="453" style="fill:#2E3192;" width="17.1" height="41.4"/>
	<rect x="439.3" y="502.1" style="fill:#2E3192;" width="17.1" height="41.4"/>
	<rect x="416.3" y="502.1" style="fill:#2E3192;" width="17.1" height="41.4"/>
	<rect x="485.4" y="403.9" style="fill:#2E3192;" width="17.1" height="41.4"/>
	<rect x="462.3" y="403.9" style="fill:#2E3192;" width="17.1" height="41.4"/>
	<rect x="485.4" y="453" style="fill:#2E3192;" width="17.1" height="41.4"/>
	<rect x="462.3" y="453" style="fill:#2E3192;" width="17.1" height="41.4"/>
	<rect x="439.3" y="551.2" style="fill:#2E3192;" width="17.1" height="41.4"/>
	<rect x="416.3" y="551.2" style="fill:#2E3192;" width="17.1" height="41.4"/>
	<rect x="439.3" y="600.3" style="fill:#2E3192;" width="17.1" height="41.4"/>
	<rect x="416.3" y="600.3" style="fill:#2E3192;" width="17.1" height="41.4"/>
	<rect x="484.3" y="551.2" style="fill:#2E3192;" width="17.1" height="41.4"/>
	<rect x="461.3" y="551.2" style="fill:#2E3192;" width="17.1" height="41.4"/>
	<rect x="484.3" y="600.3" style="fill:#2E3192;" width="17.1" height="41.4"/>
	<rect x="461.3" y="600.3" style="fill:#2E3192;" width="17.1" height="41.4"/>
	<rect x="484.3" y="502.1" style="fill:#2E3192;" width="17.1" height="41.4"/>
	<rect x="461.3" y="502.1" style="fill:#2E3192;" width="17.1" height="41.4"/>
	<rect x="484.3" y="551.2" style="fill:#2E3192;" width="17.1" height="41.4"/>
	<rect x="461.3" y="551.2" style="fill:#2E3192;" width="17.1" height="41.4"/>
	<rect x="619" y="405.9" style="fill:#E6E6E6;" width="17.1" height="37.5"/>
	<rect x="596" y="405.9" style="fill:#E6E6E6;" width="17.1" height="37.5"/>
	<rect x="573" y="405.9" style="fill:#E6E6E6;" width="17.1" height="37.5"/>
	<rect x="550" y="405.9" style="fill:#E6E6E6;" width="17.1" height="37.5"/>
	<rect x="573" y="400.4" style="fill:#E6E6E6;" width="17.1" height="41.4"/>
	<rect x="550" y="400.4" style="fill:#E6E6E6;" width="17.1" height="41.4"/>
	<rect x="573" y="449.5" style="fill:#E6E6E6;" width="17.1" height="41.4"/>
	<rect x="550" y="449.5" style="fill:#E6E6E6;" width="17.1" height="41.4"/>
	<rect x="573" y="498.6" style="fill:#E6E6E6;" width="17.1" height="41.4"/>
	<rect x="550" y="498.6" style="fill:#E6E6E6;" width="17.1" height="41.4"/>
	<rect x="619" y="400.4" style="fill:#E6E6E6;" width="17.1" height="41.4"/>
	<rect x="596" y="400.4" style="fill:#E6E6E6;" width="17.1" height="41.4"/>
	<rect x="619" y="449.5" style="fill:#E6E6E6;" width="17.1" height="41.4"/>
	<rect x="596" y="449.5" style="fill:#E6E6E6;" width="17.1" height="41.4"/>
	<rect x="573" y="547.7" style="fill:#E6E6E6;" width="17.1" height="41.4"/>
	<rect x="550" y="547.7" style="fill:#E6E6E6;" width="17.1" height="41.4"/>
	<rect x="573" y="596.8" style="fill:#E6E6E6;" width="17.1" height="41.4"/>
	<rect x="550" y="596.8" style="fill:#E6E6E6;" width="17.1" height="41.4"/>
	<rect x="617.9" y="547.7" style="fill:#E6E6E6;" width="17.1" height="41.4"/>
	<rect x="594.9" y="547.7" style="fill:#E6E6E6;" width="17.1" height="41.4"/>
	<rect x="617.9" y="596.8" style="fill:#E6E6E6;" width="17.1" height="41.4"/>
	<rect x="594.9" y="596.8" style="fill:#E6E6E6;" width="17.1" height="41.4"/>
	<rect x="617.9" y="498.6" style="fill:#E6E6E6;" width="17.1" height="41.4"/>
	<rect x="594.9" y="498.6" style="fill:#E6E6E6;" width="17.1" height="41.4"/>
	<rect x="617.9" y="547.7" style="fill:#E6E6E6;" width="17.1" height="41.4"/>
	<rect x="594.9" y="547.7" style="fill:#E6E6E6;" width="17.1" height="41.4"/>
	<rect x="617.9" y="644.2" style="fill:#E6E6E6;" width="17.1" height="41.4"/>
	<rect x="594.9" y="644.2" style="fill:#E6E6E6;" width="17.1" height="41.4"/>
	<rect x="571.9" y="644.2" style="fill:#E6E6E6;" width="17.1" height="41.4"/>
	<rect x="548.9" y="644.2" style="fill:#E6E6E6;" width="17.1" height="41.4"/>
	<rect x="571.9" y="693.3" style="fill:#E6E6E6;" width="17.1" height="41.4"/>
	<rect x="548.9" y="693.3" style="fill:#E6E6E6;" width="17.1" height="41.4"/>
	<rect x="572" y="742.3" style="fill:#E6E6E6;" width="17.1" height="41.4"/>
	<rect x="549" y="742.3" style="fill:#E6E6E6;" width="17.1" height="41.4"/>
	<rect x="617.9" y="693.3" style="fill:#E6E6E6;" width="17.1" height="41.4"/>
	<rect x="594.9" y="693.3" style="fill:#E6E6E6;" width="17.1" height="41.4"/>
	<rect x="621.3" y="742.3" style="fill:#E6E6E6;" width="17.1" height="41.4"/>
	<rect x="598.3" y="742.3" style="fill:#E6E6E6;" width="17.1" height="41.4"/>
	<rect x="507.3" y="407.5" style="fill:#2E3192;" width="17.1" height="37.5"/>
	<rect x="507.3" y="402.1" style="fill:#2E3192;" width="17.1" height="41.4"/>
	<rect x="507.3" y="451.2" style="fill:#2E3192;" width="17.1" height="41.4"/>
	<rect x="507.3" y="500.4" style="fill:#2E3192;" width="17.1" height="41.4"/>
	<rect x="507.3" y="549.5" style="fill:#2E3192;" width="17.1" height="41.4"/>
	<rect x="507.3" y="598.6" style="fill:#2E3192;" width="17.1" height="41.4"/>
	<path style="fill:#F14929;" d="M1021.2,925.3h79.9V345.7c-26.6,20.3-53.3,40.6-79.9,60.9C1021.2,579.5,1021.2,752.4,1021.2,925.3z"
		/>
	<path style="fill:#FF931E;" d="M1181,924.1h-79.9V344.5c26.6,20.3,53.3,40.6,79.9,60.9C1181,578.3,1181,751.2,1181,924.1z"/>
	<g>
		<rect x="214.1" y="401.6" style="fill:#BDCCD4;" width="112" height="540.1"/>
		<rect x="300.6" y="411" style="fill:#E6E6E6;" width="19.9" height="37.7"/>
		<rect x="274" y="411" style="fill:#E6E6E6;" width="19.9" height="37.7"/>
		<rect x="300.6" y="455.7" style="fill:#E6E6E6;" width="19.9" height="37.7"/>
		<rect x="274" y="455.7" style="fill:#E6E6E6;" width="19.9" height="37.7"/>
		<rect x="300.6" y="500.5" style="fill:#E6E6E6;" width="19.9" height="37.7"/>
		<rect x="274" y="500.5" style="fill:#E6E6E6;" width="19.9" height="37.7"/>
		<rect x="299.4" y="590" style="fill:#E6E6E6;" width="19.9" height="37.7"/>
		<rect x="272.6" y="590" style="fill:#E6E6E6;" width="19.9" height="37.7"/>
		<rect x="299.4" y="634.6" style="fill:#E6E6E6;" width="19.9" height="37.7"/>
		<rect x="272.6" y="634.6" style="fill:#E6E6E6;" width="19.9" height="37.7"/>
		<rect x="299.4" y="545.2" style="fill:#E6E6E6;" width="19.9" height="37.7"/>
		<rect x="272.6" y="545.2" style="fill:#E6E6E6;" width="19.9" height="37.7"/>
		<rect x="299.4" y="590" style="fill:#E6E6E6;" width="19.9" height="37.7"/>
		<rect x="272.6" y="590" style="fill:#E6E6E6;" width="19.9" height="37.7"/>
		<rect x="299.4" y="677.8" style="fill:#E6E6E6;" width="19.9" height="37.7"/>
		<rect x="272.6" y="677.8" style="fill:#E6E6E6;" width="19.9" height="37.7"/>
		<rect x="299.4" y="722.6" style="fill:#E6E6E6;" width="19.9" height="37.7"/>
		<rect x="272.6" y="722.6" style="fill:#E6E6E6;" width="19.9" height="37.7"/>
		<rect x="299.4" y="767.3" style="fill:#E6E6E6;" width="19.9" height="37.7"/>
		<rect x="272.6" y="767.3" style="fill:#E6E6E6;" width="19.9" height="37.7"/>
		<rect x="298.1" y="856.8" style="fill:#E6E6E6;" width="19.9" height="37.7"/>
		<rect x="271.4" y="856.8" style="fill:#E6E6E6;" width="19.9" height="37.7"/>
		<rect x="298.1" y="812.1" style="fill:#E6E6E6;" width="19.9" height="37.7"/>
		<rect x="271.4" y="812.1" style="fill:#E6E6E6;" width="19.9" height="37.7"/>
		<rect x="298.1" y="856.8" style="fill:#E6E6E6;" width="19.9" height="37.7"/>
		<rect x="271.4" y="856.8" style="fill:#E6E6E6;" width="19.9" height="37.7"/>
		<rect x="148" y="518.4" style="fill:#E86110;" width="96.7" height="421.8"/>
		<rect x="159.2" y="441.7" style="fill:#E86110;" width="85.8" height="189.8"/>
		<rect x="38.5" y="441.7" style="fill:#F14929;" width="127.3" height="500.1"/>
		<rect x="130.2" y="529.5" style="fill:#FF931E;" width="26.7" height="52.7"/>
		<polyline style="fill:#FF931E;" points="130.1,748.4 156.9,748.4 156.9,695.7 		"/>
	</g>
	<path style="fill:#F14929;" d="M885.7,863.5h92.9V130.2c-31,6-61.9,12-92.9,18C885.7,386.7,885.7,625.1,885.7,863.5z"/>
	<path style="fill:#F14929;" d="M953.5,863.5h-85.7c0-209.3,0-418.6,0-627.9c28.6-4,57.1-8.1,85.7-12.1V863.5z"/>
	<path style="fill:#FF931E;" d="M978.5,863.5h42.9c0-239.4,0-478.8,0-718.2c-14.3-5-28.6-10-42.9-15V863.5z"/>
	<path style="fill:#FF931E;" d="M1021.4,863.5h28.6c0-207.3,0-414.7,0-622c-9.5-4-19-8-28.6-12V863.5z"/>
	<path style="fill:#F14929;" d="M885.7,168.3h92.9V90.2c-31,5-61.9,10-92.9,15C885.7,126.2,885.7,147.3,885.7,168.3z"/>
	<path style="fill:#FF931E;" d="M978.5,168.3h42.9c0-21,0-42.1,0-63.1c-14.3-5-28.6-10-42.9-15V168.3z"/>
	<path style="fill:#F14929;" d="M910.7,105.2h67.9V63.1c-22.6,4-45.2,8-67.9,12C910.7,85.2,910.7,95.2,910.7,105.2z"/>
	<path style="fill:#FF931E;" d="M978.5,105.2h28.6c0-6.2,0-12.5,0-18.7c-9.5-7.8-19-15.6-28.6-23.4V105.2z"/>
	<path style="fill:#F14929;" d="M914.4,88.5"/>
	<path style="fill:#F14929;" d="M967.6,0c-17.9,25-39.7,50.4-57.5,75.4l67.7-11.6C976.2,40.7,972.4,21.1,967.6,0"/>
	<path style="fill:#FF931E;" d="M967.5,0c4.8,21,7,42.4,10.3,63.8l29.7,23.1C993.3,57.9,981.8,29.1,967.5,0"/>
	<line style="fill:none;" x1="490.7" y1="273.8" x2="493.9" y2="273.8"/>
	<line style="fill:none;stroke:#FF931E;stroke-width:5;stroke-miterlimit:10;" x1="477.6" y1="452" x2="477.6" y2="398.6"/>
	<path style="fill:#BDCCD4;" d="M902.5,493.8v443.6c0,7.2,5.4,13.2,12.1,13.2h146c6.6,0,12.1-5.9,12.1-13.2V493.8
		c0-7.2-5.4-13.2-12.1-13.2h-8.1v-22c0-7.2-5.4-13.2-12.1-13.2h-8.1v-22c0-7.2-5.4-13.2-12.1-13.2h-64.4c-6.6,0-12.1,5.9-12.1,13.2
		v22h-10.1c-6.6,0-12.1,5.9-12.1,13.2v22h-7C908,480.6,902.5,486.5,902.5,493.8z"/>
	<line style="fill:none;" x1="259.5" y1="802.2" x2="259.5" y2="802.2"/>
	<path style="fill:#FF931E;" d="M96,811.6c0-98.4,82.4-178.1,184-178.1s184,79.7,184,178.1"/>
	<rect x="246.4" y="609.7" style="fill:#FF931E;" width="68.1" height="36.1"/>
	<path style="fill:#F6F6D6;" d="M430,815.6c0-79.9-65.7-144.7-146.8-144.7s-146.9,64.8-146.9,144.7H430z"/>
	<rect x="96.4" y="808.9" style="fill:#FF931E;" width="364.2" height="144.4"/>
	<polygon style="fill:#8B7648;" points="157.4,874.4 168.7,874.4 168.7,874.4 	"/>
	<path style="fill:#FF931E;" d="M502,930.5h-53.4c-6.1,0-11.1-5-11.1-11.1V513.5h75.6v405.9C513.1,925.5,508.1,930.5,502,930.5z"/>
	<path style="fill:#FF931E;" d="M436,485.8c0-23.3,17.8-42.1,39.7-42.1s39.7,18.9,39.7,42.1"/>
	<path style="fill:#FF931E;" d="M514.7,529.5H436c-4,0-7.3-3.3-7.3-7.3v-34.9c0-4,3.3-7.3,7.3-7.3h78.7c4,0,7.3,3.3,7.3,7.3v34.9
		C522,526.3,518.7,529.5,514.7,529.5z"/>
	<ellipse style="fill:#F2F2F2;" cx="474.7" cy="496.8" rx="15.8" ry="16.7"/>
	<path style="fill:#666666;" d="M191.4,814.2"/>
	<path style="fill:#DBDB53;" d="M485,814.2"/>
	<g>
		<path style="fill:#999999;" d="M0,991.4h1225.8v-58c0-9.2-7.2-16.6-16-16.6H19.7C8.8,916.8,0,925.9,0,937.2L0,991.4L0,991.4z"/>
	</g>
	<rect x="1033.5" y="549.9" style="fill:#FCFCF0;" width="13.6" height="22.4"/>
	<rect x="1050.8" y="494.7" style="fill:#FCFCF0;" width="13.6" height="22.4"/>
	<rect x="996.3" y="577.6" style="fill:#FCFCF0;" width="13.6" height="22.4"/>
	<rect x="1013.7" y="578.4" style="fill:#FCFCF0;" width="13.6" height="22.4"/>
	<rect x="1033.5" y="577.6" style="fill:#FCFCF0;" width="13.6" height="22.4"/>
	<rect x="1050.8" y="577.6" style="fill:#FCFCF0;" width="13.6" height="22.4"/>
	<rect x="996.3" y="549.9" style="fill:#FCFCF0;" width="13.6" height="22.4"/>
	<rect x="1013.7" y="549.9" style="fill:#FCFCF0;" width="13.6" height="22.4"/>
	<rect x="1050.8" y="549.9" style="fill:#FCFCF0;" width="13.6" height="22.4"/>
	<rect x="996.3" y="523.2" style="fill:#FCFCF0;" width="13.6" height="22.4"/>
	<rect x="1013.7" y="523.2" style="fill:#FCFCF0;" width="13.6" height="22.4"/>
	<rect x="1033.5" y="523.2" style="fill:#FCFCF0;" width="13.6" height="22.4"/>
	<rect x="1050.8" y="522.3" style="fill:#FCFCF0;" width="13.6" height="22.4"/>
	<rect x="996.3" y="494.7" style="fill:#FCFCF0;" width="13.6" height="22.4"/>
	<rect x="1013.7" y="494.7" style="fill:#FCFCF0;" width="13.6" height="22.4"/>
	<rect x="1033.5" y="494.7" style="fill:#FCFCF0;" width="13.6" height="22.4"/>
	<rect x="945.4" y="549.9" style="fill:#FCFCF0;" width="13.6" height="22.4"/>
	<rect x="964.3" y="494.7" style="fill:#FCFCF0;" width="13.6" height="22.4"/>
	<rect x="909.8" y="577.6" style="fill:#FCFCF0;" width="13.6" height="22.4"/>
	<rect x="927.2" y="578.4" style="fill:#FCFCF0;" width="13.6" height="22.4"/>
	<rect x="945.4" y="577.6" style="fill:#FCFCF0;" width="13.6" height="22.4"/>
	<rect x="964.3" y="577.6" style="fill:#FCFCF0;" width="13.6" height="22.4"/>
	<rect x="909.8" y="549.9" style="fill:#FCFCF0;" width="13.6" height="22.4"/>
	<rect x="927.2" y="549.9" style="fill:#FCFCF0;" width="13.6" height="22.4"/>
	<rect x="964.3" y="549.9" style="fill:#FCFCF0;" width="13.6" height="22.4"/>
	<rect x="909.8" y="523.2" style="fill:#FCFCF0;" width="13.6" height="22.4"/>
	<rect x="927.2" y="523.2" style="fill:#FCFCF0;" width="13.6" height="22.4"/>
	<rect x="945.4" y="523.2" style="fill:#FCFCF0;" width="13.6" height="22.4"/>
	<rect x="964.3" y="522.3" style="fill:#FCFCF0;" width="13.6" height="22.4"/>
	<rect x="909.8" y="494.7" style="fill:#FCFCF0;" width="13.6" height="22.4"/>
	<rect x="927.2" y="494.7" style="fill:#FCFCF0;" width="13.6" height="22.4"/>
	<rect x="945.4" y="494.7" style="fill:#FCFCF0;" width="13.6" height="22.4"/>
	<rect x="1033.5" y="658.8" style="fill:#FCFCF0;" width="13.6" height="22.4"/>
	<rect x="1050.8" y="603.6" style="fill:#FCFCF0;" width="13.6" height="22.4"/>
	<rect x="996.3" y="686.4" style="fill:#FCFCF0;" width="13.6" height="22.4"/>
	<rect x="1013.7" y="687.3" style="fill:#FCFCF0;" width="13.6" height="22.4"/>
	<rect x="1033.5" y="686.4" style="fill:#FCFCF0;" width="13.6" height="22.4"/>
	<rect x="1050.8" y="686.4" style="fill:#FCFCF0;" width="13.6" height="22.4"/>
	<rect x="996.3" y="658.8" style="fill:#FCFCF0;" width="13.6" height="22.4"/>
	<rect x="1013.7" y="658.8" style="fill:#FCFCF0;" width="13.6" height="22.4"/>
	<rect x="1050.8" y="658.8" style="fill:#FCFCF0;" width="13.6" height="22.4"/>
	<rect x="996.3" y="632.1" style="fill:#FCFCF0;" width="13.6" height="22.4"/>
	<rect x="1013.7" y="632.1" style="fill:#FCFCF0;" width="13.6" height="22.4"/>
	<rect x="1033.5" y="632.1" style="fill:#FCFCF0;" width="13.6" height="22.4"/>
	<rect x="1050.8" y="631.2" style="fill:#FCFCF0;" width="13.6" height="22.4"/>
	<rect x="996.3" y="603.6" style="fill:#FCFCF0;" width="13.6" height="22.4"/>
	<rect x="1013.7" y="603.6" style="fill:#FCFCF0;" width="13.6" height="22.4"/>
	<rect x="1033.5" y="603.6" style="fill:#FCFCF0;" width="13.6" height="22.4"/>
	<rect x="945.4" y="658.8" style="fill:#FCFCF0;" width="13.6" height="22.4"/>
	<rect x="964.3" y="603.6" style="fill:#FCFCF0;" width="13.6" height="22.4"/>
	<rect x="909.8" y="686.4" style="fill:#FCFCF0;" width="13.6" height="22.4"/>
	<rect x="927.2" y="687.3" style="fill:#FCFCF0;" width="13.6" height="22.4"/>
	<rect x="945.4" y="686.4" style="fill:#FCFCF0;" width="13.6" height="22.4"/>
	<rect x="964.3" y="686.4" style="fill:#FCFCF0;" width="13.6" height="22.4"/>
	<rect x="909.8" y="658.8" style="fill:#FCFCF0;" width="13.6" height="22.4"/>
	<rect x="927.2" y="658.8" style="fill:#FCFCF0;" width="13.6" height="22.4"/>
	<rect x="964.3" y="658.8" style="fill:#FCFCF0;" width="13.6" height="22.4"/>
	<rect x="909.8" y="632.1" style="fill:#FCFCF0;" width="13.6" height="22.4"/>
	<rect x="927.2" y="632.1" style="fill:#FCFCF0;" width="13.6" height="22.4"/>
	<rect x="945.4" y="632.1" style="fill:#FCFCF0;" width="13.6" height="22.4"/>
	<rect x="964.3" y="631.2" style="fill:#FCFCF0;" width="13.6" height="22.4"/>
	<rect x="909.8" y="603.6" style="fill:#FCFCF0;" width="13.6" height="22.4"/>
	<rect x="927.2" y="603.6" style="fill:#FCFCF0;" width="13.6" height="22.4"/>
	<rect x="945.4" y="603.6" style="fill:#FCFCF0;" width="13.6" height="22.4"/>
	<rect x="1033.6" y="766.1" style="fill:#FCFCF0;" width="13.6" height="22.4"/>
	<rect x="1050.8" y="712.5" style="fill:#FCFCF0;" width="13.6" height="22.4"/>
	<rect x="996.4" y="793.7" style="fill:#FCFCF0;" width="13.6" height="22.4"/>
	<rect x="1013.8" y="794.5" style="fill:#FCFCF0;" width="13.6" height="22.4"/>
	<rect x="1033.6" y="793.7" style="fill:#FCFCF0;" width="13.6" height="22.4"/>
	<rect x="1050.9" y="793.7" style="fill:#FCFCF0;" width="13.6" height="22.4"/>
	<rect x="996.4" y="766.1" style="fill:#FCFCF0;" width="13.6" height="22.4"/>
	<rect x="1013.8" y="766.1" style="fill:#FCFCF0;" width="13.6" height="22.4"/>
	<rect x="1050.9" y="766.1" style="fill:#FCFCF0;" width="13.6" height="22.4"/>
	<rect x="996.3" y="741" style="fill:#FCFCF0;" width="13.6" height="22.4"/>
	<rect x="1013.7" y="741" style="fill:#FCFCF0;" width="13.6" height="22.4"/>
	<rect x="1033.5" y="741" style="fill:#FCFCF0;" width="13.6" height="22.4"/>
	<rect x="1050.8" y="740.1" style="fill:#FCFCF0;" width="13.6" height="22.4"/>
	<rect x="996.3" y="712.5" style="fill:#FCFCF0;" width="13.6" height="22.4"/>
	<rect x="1013.7" y="712.5" style="fill:#FCFCF0;" width="13.6" height="22.4"/>
	<rect x="1033.5" y="712.5" style="fill:#FCFCF0;" width="13.6" height="22.4"/>
	<rect x="945.5" y="764.4" style="fill:#FCFCF0;" width="13.6" height="22.4"/>
	<rect x="964.3" y="712.5" style="fill:#FCFCF0;" width="13.6" height="22.4"/>
	<rect x="909.9" y="792" style="fill:#FCFCF0;" width="13.6" height="22.4"/>
	<rect x="927.3" y="792.9" style="fill:#FCFCF0;" width="13.6" height="22.4"/>
	<rect x="945.5" y="792" style="fill:#FCFCF0;" width="13.6" height="22.4"/>
	<rect x="964.4" y="792" style="fill:#FCFCF0;" width="13.6" height="22.4"/>
	<rect x="909.9" y="764.4" style="fill:#FCFCF0;" width="13.6" height="22.4"/>
	<rect x="927.3" y="764.4" style="fill:#FCFCF0;" width="13.6" height="22.4"/>
	<rect x="964.4" y="764.4" style="fill:#FCFCF0;" width="13.6" height="22.4"/>
	<rect x="909.8" y="739.3" style="fill:#FCFCF0;" width="13.6" height="22.4"/>
	<rect x="927.2" y="739.3" style="fill:#FCFCF0;" width="13.6" height="22.4"/>
	<rect x="945.4" y="739.3" style="fill:#FCFCF0;" width="13.6" height="22.4"/>
	<rect x="964.3" y="740.1" style="fill:#FCFCF0;" width="13.6" height="22.4"/>
	<rect x="909.8" y="712.5" style="fill:#FCFCF0;" width="13.6" height="22.4"/>
	<rect x="927.2" y="712.5" style="fill:#FCFCF0;" width="13.6" height="22.4"/>
	<rect x="945.4" y="712.5" style="fill:#FCFCF0;" width="13.6" height="22.4"/>
	<rect x="945.5" y="873.3" style="fill:#F2F2F2;" width="13.6" height="22.4"/>
	<rect x="964.4" y="818.1" style="fill:#FCFCF0;" width="13.6" height="22.4"/>
	<rect x="909.9" y="873.3" style="fill:#F2F2F2;" width="13.6" height="22.4"/>
	<rect x="927.3" y="873.3" style="fill:#F2F2F2;" width="13.6" height="22.4"/>
	<rect x="964.4" y="873.3" style="fill:#F2F2F2;" width="13.6" height="22.4"/>
	<rect x="909.9" y="846.5" style="fill:#FCFCF0;" width="13.6" height="22.4"/>
	<rect x="927.3" y="846.5" style="fill:#FCFCF0;" width="13.6" height="22.4"/>
	<rect x="945.5" y="846.5" style="fill:#FCFCF0;" width="13.6" height="22.4"/>
	<rect x="964.4" y="845.7" style="fill:#FCFCF0;" width="13.6" height="22.4"/>
	<rect x="909.9" y="818.1" style="fill:#FCFCF0;" width="13.6" height="22.4"/>
	<rect x="927.3" y="818.1" style="fill:#FCFCF0;" width="13.6" height="22.4"/>
	<rect x="945.5" y="818.1" style="fill:#FCFCF0;" width="13.6" height="22.4"/>
	<rect x="1033.6" y="871.6" style="fill:#F2F2F2;" width="13.6" height="22.4"/>
	<rect x="1050.9" y="819.7" style="fill:#FCFCF0;" width="13.6" height="22.4"/>
	<rect x="996.4" y="871.6" style="fill:#F2F2F2;" width="13.6" height="22.4"/>
	<rect x="1013.8" y="871.6" style="fill:#F2F2F2;" width="13.6" height="22.4"/>
	<rect x="1050.9" y="871.6" style="fill:#F2F2F2;" width="13.6" height="22.4"/>
	<rect x="996.4" y="844.9" style="fill:#FCFCF0;" width="13.6" height="22.4"/>
	<rect x="1013.8" y="844.9" style="fill:#FCFCF0;" width="13.6" height="22.4"/>
	<rect x="1033.6" y="844.9" style="fill:#FCFCF0;" width="13.6" height="22.4"/>
	<rect x="1050.9" y="845.7" style="fill:#FCFCF0;" width="13.6" height="22.4"/>
	<rect x="996.4" y="819.7" style="fill:#FCFCF0;" width="13.6" height="22.4"/>
	<rect x="1013.8" y="819.7" style="fill:#FCFCF0;" width="13.6" height="22.4"/>
	<rect x="1033.6" y="819.7" style="fill:#FCFCF0;" width="13.6" height="22.4"/>
	<rect x="584.9" y="535.9" style="fill:#F14929;" width="283.6" height="386.7"/>
	<rect x="604.5" y="496" style="fill:#F14929;" width="238.9" height="39.9"/>
	<rect x="631.1" y="462.3" style="fill:#F14929;" width="169.2" height="33.6"/>
	<path style="fill:#FF931E;" d="M800.2,495.9h43.2c0-6.4,0-12.8,0-19.2c-14.4-4.8-28.8-9.6-43.2-14.4V495.9z"/>
	<rect x="659.3" y="435.2" style="fill:#F14929;" width="101.5" height="27.2"/>
	<path style="fill:#FF931E;" d="M760.9,462.1h33.8c0-5,0-10,0-15c-11.3-3.8-22.6-7.5-33.8-11.3V462.1z"/>
	<path style="fill:#FF931E;" d="M866.9,922.6h55.2c0-123.6,0-247.1,0-370.7c-18.4-5.3-36.8-10.7-55.2-16V922.6z"/>
	<rect x="823.7" y="554.8" style="fill:#2E3192;" width="20.1" height="37.7"/>
	<rect x="796.7" y="554.8" style="fill:#2E3192;" width="20.1" height="37.7"/>
	<rect x="769.7" y="554.8" style="fill:#2E3192;" width="20.1" height="37.7"/>
	<rect x="742.8" y="554.8" style="fill:#2E3192;" width="20.1" height="37.7"/>
	<rect x="769.7" y="599.5" style="fill:#2E3192;" width="20.1" height="37.7"/>
	<rect x="742.8" y="599.5" style="fill:#2E3192;" width="20.1" height="37.7"/>
	<rect x="769.7" y="644.3" style="fill:#2E3192;" width="20.1" height="37.7"/>
	<rect x="742.8" y="644.3" style="fill:#2E3192;" width="20.1" height="37.7"/>
	<rect x="769.7" y="689" style="fill:#2E3192;" width="20.1" height="37.7"/>
	<rect x="742.8" y="689" style="fill:#2E3192;" width="20.1" height="37.7"/>
	<rect x="823.7" y="599.5" style="fill:#2E3192;" width="20.1" height="37.7"/>
	<rect x="796.7" y="599.5" style="fill:#2E3192;" width="20.1" height="37.7"/>
	<rect x="823.7" y="644.3" style="fill:#2E3192;" width="20.1" height="37.7"/>
	<rect x="796.7" y="644.3" style="fill:#2E3192;" width="20.1" height="37.7"/>
	<rect x="769.7" y="733.8" style="fill:#2E3192;" width="20.1" height="37.7"/>
	<rect x="742.8" y="733.8" style="fill:#2E3192;" width="20.1" height="37.7"/>
	<rect x="769.8" y="778.5" style="fill:#2E3192;" width="20.1" height="37.7"/>
	<rect x="742.9" y="778.5" style="fill:#2E3192;" width="20.1" height="37.7"/>
	<rect x="822.3" y="733.8" style="fill:#2E3192;" width="20.1" height="37.7"/>
	<rect x="795.4" y="733.8" style="fill:#2E3192;" width="20.1" height="37.7"/>
	<rect x="822.4" y="778.5" style="fill:#2E3192;" width="20.1" height="37.7"/>
	<rect x="795.5" y="778.5" style="fill:#2E3192;" width="20.1" height="37.7"/>
	<rect x="822.3" y="689" style="fill:#2E3192;" width="20.1" height="37.7"/>
	<rect x="795.4" y="689" style="fill:#2E3192;" width="20.1" height="37.7"/>
	<rect x="822.3" y="733.8" style="fill:#2E3192;" width="20.1" height="37.7"/>
	<rect x="795.4" y="733.8" style="fill:#2E3192;" width="20.1" height="37.7"/>
	<rect x="679.9" y="551.6" style="fill:#2E3192;" width="20.1" height="37.7"/>
	<rect x="652.9" y="551.6" style="fill:#2E3192;" width="20.1" height="37.7"/>
	<rect x="626" y="551.6" style="fill:#2E3192;" width="20.1" height="37.7"/>
	<rect x="599" y="551.6" style="fill:#2E3192;" width="20.1" height="37.7"/>
	<rect x="626" y="596.3" style="fill:#2E3192;" width="20.1" height="37.7"/>
	<rect x="599" y="596.3" style="fill:#2E3192;" width="20.1" height="37.7"/>
	<rect x="626" y="641.1" style="fill:#2E3192;" width="20.1" height="37.7"/>
	<rect x="599" y="641.1" style="fill:#2E3192;" width="20.1" height="37.7"/>
	<rect x="626" y="685.8" style="fill:#2E3192;" width="20.1" height="37.7"/>
	<rect x="599" y="685.8" style="fill:#2E3192;" width="20.1" height="37.7"/>
	<rect x="679.9" y="596.3" style="fill:#2E3192;" width="20.1" height="37.7"/>
	<rect x="652.9" y="596.3" style="fill:#2E3192;" width="20.1" height="37.7"/>
	<rect x="679.9" y="641.1" style="fill:#2E3192;" width="20.1" height="37.7"/>
	<rect x="652.9" y="641.1" style="fill:#2E3192;" width="20.1" height="37.7"/>
	<rect x="626" y="730.6" style="fill:#2E3192;" width="20.1" height="37.7"/>
	<rect x="599" y="730.6" style="fill:#2E3192;" width="20.1" height="37.7"/>
	<rect x="626.1" y="775.3" style="fill:#2E3192;" width="20.1" height="37.7"/>
	<rect x="599.1" y="775.3" style="fill:#2E3192;" width="20.1" height="37.7"/>
	<rect x="678.7" y="730.6" style="fill:#2E3192;" width="20.1" height="37.7"/>
	<rect x="651.7" y="730.6" style="fill:#2E3192;" width="20.1" height="37.7"/>
	<rect x="678.8" y="775.3" style="fill:#2E3192;" width="20.1" height="37.7"/>
	<rect x="651.8" y="775.3" style="fill:#2E3192;" width="20.1" height="37.7"/>
	<rect x="678.7" y="685.8" style="fill:#2E3192;" width="20.1" height="37.7"/>
	<rect x="651.7" y="685.8" style="fill:#2E3192;" width="20.1" height="37.7"/>
	<rect x="678.7" y="730.6" style="fill:#2E3192;" width="20.1" height="37.7"/>
	<rect x="651.7" y="730.6" style="fill:#2E3192;" width="20.1" height="37.7"/>
	<path style="fill:#BDCCD4;" d="M429.1-3.2l7.7,26.1v19.6l7.7,13v48.9c3.8,2.2,7.7,4.3,11.5,6.5c0,9.8,0,19.6,0,29.3h-26.8V-3.2"/>
	<path style="fill:#FF931E;" d="M888.7,542.9l-19.8-6.6l-25.4-0.4V496c15,4.8,30.1,9.6,45.1,14.4c0,8.5,0.1,30.9,0.1,30.9"/>
	<path style="fill:#88B535;" d="M0,990h1225.8v11.6c0,4.2-3.7,7.5-8.2,7.5H8.2c-4.5,0-8.2-3.4-8.2-7.5V990z"/>
	<path style="fill:#666666;" d="M1166.2-594.3h0.7c-0.4,2.6-0.7,5.3-0.7,8V-594.3z"/>
	<path style="fill:#97B4BB;" d="M1294.2-594.3v8c0-2.7-0.2-5.4-0.7-8H1294.2z"/>
	<path style="fill:#97B4BB;" d="M1332.2-594.3h0.7c-0.4,2.6-0.7,5.3-0.7,8V-594.3z"/>
	<path style="fill:#97B4BB;" d="M1460.2-594.3v8c0-2.7-0.2-5.4-0.7-8H1460.2z"/>
	<path style="fill:#97B4BB;" d="M1500.9-563.8c-0.3,1.6-0.6,3.3-0.6,5c0,0.4,0,0.8,0,1.1v-6.1H1500.9z"/>
	<path style="fill:#97B4BB;" d="M1628.2-563.8v6.1c0-2.1-0.2-4.1-0.7-6.1H1628.2z"/>
	<path style="fill:#97B4BB;" d="M1460.2-586.3c0-2.7-0.2-5.4-0.7-8h0.7V-586.3z"/>
	<rect x="130.2" y="599.5" style="fill:#FF931E;" width="26.7" height="52.7"/>
	<rect x="130.2" y="667.5" style="fill:#FF931E;" width="26.7" height="52.7"/>
	<rect x="130.2" y="459.5" style="fill:#FF931E;" width="26.7" height="52.7"/>
	<rect x="83.2" y="529.5" style="fill:#FF931E;" width="26.7" height="52.7"/>
	<rect x="83.2" y="599.5" style="fill:#FF931E;" width="26.7" height="52.7"/>
	<rect x="83.2" y="665.5" style="fill:#FF931E;" width="26.7" height="52.7"/>
	<rect x="83.2" y="731.5" style="fill:#FF931E;" width="26.7" height="52.7"/>
	<rect x="83.2" y="797.5" style="fill:#FF931E;" width="26.7" height="52.7"/>
</g>

</svg>
