<?xml version="1.0" encoding="utf-8"?>
<!-- Generator: Adobe Illustrator 24.0.0, SVG Export Plug-In . SVG Version: 6.00 Build 0)  -->
<svg version="1.1" id="Layer_1" xmlns="http://www.w3.org/2000/svg" xmlns:xlink="http://www.w3.org/1999/xlink" x="0px" y="0px"
	 viewBox="0 0 1324 993.4" style="enable-background:new 0 0 1324 993.4;" xml:space="preserve">
<g id="bg">
</g>
<g id="foundation__x28_back_x29_">
	<polygon style="fill:#CE242B;" points="412.4,407.2 412.4,895.2 150.1,895.2 150.1,407.2 167.7,407.2 167.7,309.6 279.1,197.2
		393.7,309.6 393.7,407.2 	"/>
	<polygon style="fill:#CE242B;" points="759.4,519.9 759.4,893.5 492.5,893.5 492.5,519.9 515.3,519.9 515.3,488.3 536.1,488.3
		536.1,457.2 560.6,457.2 560.6,424.6 686.2,424.6 686.2,457.2 709.5,457.2 709.5,488.3 734.5,488.3 734.5,519.9 	"/>
	<rect x="412.2" y="486" style="fill:#2E3192;" width="91.3" height="251.4"/>
	<rect x="870.5" y="434.7" style="fill:#2E3192;" width="91.3" height="251.4"/>
	<rect x="111.4" y="643.4" style="fill:#2E3192;" width="91.3" height="251.4"/>
</g>
<g id="fore__x28_back_x29_">
	<rect x="167.7" y="309.6" style="fill:#ED1C24;" width="178.7" height="103"/>
	<rect x="150.1" y="408.1" style="fill:#ED1C24;" width="225" height="488.2"/>
	<polygon style="fill:#ED1C24;" points="279.1,197.2 347.6,309.6 167.7,309.6 	"/>
	<rect x="492.5" y="519.9" style="fill:#ED1C24;" width="231.3" height="374.7"/>
	<rect x="515.3" y="488.3" style="fill:#ED1C24;" width="181.9" height="35.7"/>
	<rect x="536.1" y="457.2" style="fill:#ED1C24;" width="140.6" height="34.5"/>
	<rect x="560.6" y="425.9" style="fill:#ED1C24;" width="93.4" height="31.6"/>
	<rect x="276.2" y="88.3" style="fill:#ED1C24;" width="7.1" height="126.4"/>
</g>
<g id="windows__x28_back_x29_">
	<rect x="178.6" y="310.7" style="fill:#FFFFFF;" width="10.1" height="42"/>
	<rect x="207.5" y="310.7" style="fill:#FFFFFF;" width="10.1" height="42"/>
	<rect x="236.5" y="310.7" style="fill:#FFFFFF;" width="10.1" height="42"/>
	<rect x="265.4" y="310.7" style="fill:#FFFFFF;" width="10.1" height="42"/>
	<rect x="294.3" y="310.7" style="fill:#FFFFFF;" width="10.1" height="42"/>
	<rect x="323.2" y="310.7" style="fill:#FFFFFF;" width="10.1" height="42"/>
	<rect x="178.6" y="363.3" style="fill:#FFFFFF;" width="10.1" height="42"/>
	<rect x="207.5" y="363.3" style="fill:#FFFFFF;" width="10.1" height="42"/>
	<rect x="236.5" y="363.3" style="fill:#FFFFFF;" width="10.1" height="42"/>
	<rect x="265.4" y="363.3" style="fill:#FFFFFF;" width="10.1" height="42"/>
	<rect x="294.3" y="363.3" style="fill:#FFFFFF;" width="10.1" height="42"/>
	<rect x="323.2" y="363.3" style="fill:#FFFFFF;" width="10.1" height="42"/>
	<rect x="356.6" y="310.3" style="fill:#ABADB0;" width="10.1" height="42"/>
	<rect x="356.6" y="362.9" style="fill:#ABADB0;" width="10.1" height="42"/>
	<rect x="377.6" y="310.3" style="fill:#ABADB0;" width="10.1" height="42"/>
	<rect x="377.6" y="362.9" style="fill:#ABADB0;" width="10.1" height="42"/>
	<rect x="166.8" y="431.6" style="fill:#FFFFFF;" width="10.1" height="42"/>
	<rect x="195.7" y="431.6" style="fill:#FFFFFF;" width="10.1" height="42"/>
	<rect x="224.6" y="431.6" style="fill:#FFFFFF;" width="10.1" height="42"/>
	<rect x="253.5" y="431.6" style="fill:#FFFFFF;" width="10.1" height="42"/>
	<rect x="282.5" y="431.6" style="fill:#FFFFFF;" width="10.1" height="42"/>
	<rect x="311.4" y="431.6" style="fill:#FFFFFF;" width="10.1" height="42"/>
	<rect x="166.8" y="486.8" style="fill:#FFFFFF;" width="10.1" height="42"/>
	<rect x="195.7" y="486.8" style="fill:#FFFFFF;" width="10.1" height="42"/>
	<rect x="224.6" y="486.8" style="fill:#FFFFFF;" width="10.1" height="42"/>
	<rect x="253.5" y="486.8" style="fill:#FFFFFF;" width="10.1" height="42"/>
	<rect x="282.5" y="486.8" style="fill:#FFFFFF;" width="10.1" height="42"/>
	<rect x="311.4" y="486.8" style="fill:#FFFFFF;" width="10.1" height="42"/>
	<rect x="166.8" y="542" style="fill:#FFFFFF;" width="10.1" height="42"/>
	<rect x="195.7" y="542" style="fill:#FFFFFF;" width="10.1" height="42"/>
	<rect x="224.6" y="542" style="fill:#FFFFFF;" width="10.1" height="42"/>
	<rect x="253.5" y="542" style="fill:#FFFFFF;" width="10.1" height="42"/>
	<rect x="282.5" y="542" style="fill:#FFFFFF;" width="10.1" height="42"/>
	<rect x="311.4" y="542" style="fill:#FFFFFF;" width="10.1" height="42"/>
	<rect x="166.8" y="597.2" style="fill:#FFFFFF;" width="10.1" height="42"/>
	<rect x="195.7" y="597.2" style="fill:#FFFFFF;" width="10.1" height="42"/>
	<rect x="224.6" y="597.2" style="fill:#FFFFFF;" width="10.1" height="42"/>
	<rect x="253.5" y="597.2" style="fill:#FFFFFF;" width="10.1" height="42"/>
	<rect x="282.5" y="597.2" style="fill:#FFFFFF;" width="10.1" height="42"/>
	<rect x="311.4" y="597.2" style="fill:#FFFFFF;" width="10.1" height="42"/>
	<rect x="166.8" y="652.4" style="fill:#FFFFFF;" width="10.1" height="42"/>
	<rect x="195.7" y="652.4" style="fill:#FFFFFF;" width="10.1" height="42"/>
	<rect x="224.6" y="652.4" style="fill:#FFFFFF;" width="10.1" height="42"/>
	<rect x="253.5" y="652.4" style="fill:#FFFFFF;" width="10.1" height="42"/>
	<rect x="282.5" y="652.4" style="fill:#FFFFFF;" width="10.1" height="42"/>
	<rect x="311.4" y="652.4" style="fill:#FFFFFF;" width="10.1" height="42"/>
	<rect x="166.8" y="707.6" style="fill:#FFFFFF;" width="10.1" height="42"/>
	<rect x="195.7" y="707.6" style="fill:#FFFFFF;" width="10.1" height="42"/>
	<rect x="224.6" y="707.6" style="fill:#FFFFFF;" width="10.1" height="42"/>
	<rect x="253.5" y="707.6" style="fill:#FFFFFF;" width="10.1" height="42"/>
	<rect x="282.5" y="707.6" style="fill:#FFFFFF;" width="10.1" height="42"/>
	<rect x="311.4" y="707.6" style="fill:#FFFFFF;" width="10.1" height="42"/>
	<rect x="166.8" y="762.8" style="fill:#FFFFFF;" width="10.1" height="42"/>
	<rect x="195.7" y="762.8" style="fill:#FFFFFF;" width="10.1" height="42"/>
	<rect x="224.6" y="762.8" style="fill:#FFFFFF;" width="10.1" height="42"/>
	<rect x="253.5" y="762.8" style="fill:#FFFFFF;" width="10.1" height="42"/>
	<rect x="282.5" y="762.8" style="fill:#FFFFFF;" width="10.1" height="42"/>
	<rect x="311.4" y="762.8" style="fill:#FFFFFF;" width="10.1" height="42"/>
	<rect x="166.8" y="818" style="fill:#FFFFFF;" width="10.1" height="42"/>
	<rect x="195.7" y="818" style="fill:#FFFFFF;" width="10.1" height="42"/>
	<rect x="224.6" y="818" style="fill:#FFFFFF;" width="10.1" height="42"/>
	<rect x="253.5" y="818" style="fill:#FFFFFF;" width="10.1" height="42"/>
	<rect x="282.5" y="818" style="fill:#FFFFFF;" width="10.1" height="42"/>
	<rect x="311.4" y="818" style="fill:#FFFFFF;" width="10.1" height="42"/>
	<rect x="340.3" y="431.6" style="fill:#FFFFFF;" width="10.1" height="42"/>
	<rect x="340.3" y="486.8" style="fill:#FFFFFF;" width="10.1" height="42"/>
	<rect x="340.3" y="542" style="fill:#FFFFFF;" width="10.1" height="42"/>
	<rect x="340.3" y="597.2" style="fill:#FFFFFF;" width="10.1" height="42"/>
	<rect x="340.3" y="652.4" style="fill:#FFFFFF;" width="10.1" height="42"/>
	<rect x="340.3" y="707.6" style="fill:#FFFFFF;" width="10.1" height="42"/>
	<rect x="340.3" y="762.8" style="fill:#FFFFFF;" width="10.1" height="42"/>
	<rect x="340.3" y="818" style="fill:#FFFFFF;" width="10.1" height="42"/>
	<rect x="379.8" y="434.1" style="fill:#ABADB0;" width="10.1" height="42"/>
	<rect x="379.8" y="486.7" style="fill:#ABADB0;" width="10.1" height="42"/>
	<rect x="396.9" y="434.1" style="fill:#ABADB0;" width="10.1" height="42"/>
	<rect x="396.9" y="486.7" style="fill:#ABADB0;" width="10.1" height="42"/>
	<rect x="379.8" y="539.3" style="fill:#ABADB0;" width="10.1" height="42"/>
	<rect x="396.9" y="539.3" style="fill:#ABADB0;" width="10.1" height="39.1"/>
	<g>
		<rect x="339.6" y="577.7" style="fill:#F14929;" width="183.1" height="317.5"/>
		<rect x="339.6" y="577.9" style="fill:#FF931E;" width="137.9" height="316.5"/>
		<rect x="346.6" y="600.3" style="fill:#FFFFFF;" width="20.2" height="23.5"/>
		<rect x="380.5" y="600.3" style="fill:#FFFFFF;" width="20.2" height="23.5"/>
		<rect x="414.4" y="600.3" style="fill:#FFFFFF;" width="20.2" height="23.5"/>
		<rect x="448.3" y="600.3" style="fill:#FFFFFF;" width="20.2" height="23.5"/>
		<rect x="346.6" y="639.7" style="fill:#FFFFFF;" width="20.2" height="23.5"/>
		<rect x="380.5" y="639.7" style="fill:#FFFFFF;" width="20.2" height="23.5"/>
		<rect x="414.4" y="639.7" style="fill:#FFFFFF;" width="20.2" height="23.5"/>
		<rect x="448.3" y="639.7" style="fill:#FFFFFF;" width="20.2" height="23.5"/>
		<rect x="346.6" y="679.1" style="fill:#FFFFFF;" width="20.2" height="23.5"/>
		<rect x="380.5" y="679.1" style="fill:#FFFFFF;" width="20.2" height="23.5"/>
		<rect x="414.4" y="679.1" style="fill:#FFFFFF;" width="20.2" height="23.5"/>
		<rect x="448.3" y="679.1" style="fill:#FFFFFF;" width="20.2" height="23.5"/>
		<rect x="346.6" y="718.6" style="fill:#FFFFFF;" width="20.2" height="23.5"/>
		<rect x="380.5" y="718.6" style="fill:#FFFFFF;" width="20.2" height="23.5"/>
		<rect x="414.4" y="718.6" style="fill:#FFFFFF;" width="20.2" height="23.5"/>
		<rect x="448.3" y="718.6" style="fill:#FFFFFF;" width="20.2" height="23.5"/>
		<rect x="346.6" y="758" style="fill:#FFFFFF;" width="20.2" height="23.5"/>
		<rect x="380.5" y="758" style="fill:#FFFFFF;" width="20.2" height="23.5"/>
		<rect x="414.4" y="758" style="fill:#FFFFFF;" width="20.2" height="23.5"/>
		<rect x="448.3" y="758" style="fill:#FFFFFF;" width="20.2" height="23.5"/>
		<rect x="346.6" y="797.4" style="fill:#FFFFFF;" width="20.2" height="23.5"/>
		<rect x="380.5" y="797.4" style="fill:#FFFFFF;" width="20.2" height="23.5"/>
		<rect x="414.4" y="797.4" style="fill:#FFFFFF;" width="20.2" height="23.5"/>
		<rect x="448.3" y="797.4" style="fill:#FFFFFF;" width="20.2" height="23.5"/>
		<rect x="346.6" y="836.8" style="fill:#FFFFFF;" width="20.2" height="23.5"/>
		<rect x="380.5" y="836.8" style="fill:#FFFFFF;" width="20.2" height="23.5"/>
		<rect x="414.4" y="836.8" style="fill:#FFFFFF;" width="20.2" height="23.5"/>
		<rect x="448.3" y="836.8" style="fill:#FFFFFF;" width="20.2" height="23.5"/>
	</g>
	<rect x="546.3" y="466" style="fill:#FFFFFF;" width="9.2" height="44.1"/>
	<rect x="568.5" y="466" style="fill:#FFFFFF;" width="9.2" height="44.1"/>
	<rect x="592.3" y="466" style="fill:#FFFFFF;" width="9.2" height="44.1"/>
	<rect x="614.5" y="466" style="fill:#FFFFFF;" width="9.2" height="44.1"/>
	<rect x="637" y="466" style="fill:#FFFFFF;" width="9.2" height="44.1"/>
	<rect x="659.2" y="466" style="fill:#FFFFFF;" width="9.2" height="44.1"/>
	<rect x="582.3" y="531.4" style="fill:#FFFFFF;" width="50" height="16.2"/>
	<rect x="582.3" y="557.7" style="fill:#FFFFFF;" width="50" height="16.2"/>
	<rect x="582.3" y="584" style="fill:#FFFFFF;" width="50" height="16.2"/>
	<rect x="582.3" y="610.3" style="fill:#FFFFFF;" width="50" height="16.2"/>
	<rect x="582.3" y="636.6" style="fill:#FFFFFF;" width="50" height="16.2"/>
	<rect x="582.3" y="662.8" style="fill:#FFFFFF;" width="50" height="16.2"/>
	<rect x="582.3" y="689.1" style="fill:#FFFFFF;" width="50" height="16.2"/>
	<rect x="582.3" y="715.4" style="fill:#FFFFFF;" width="50" height="16.2"/>
	<rect x="582.3" y="741.7" style="fill:#FFFFFF;" width="50" height="16.2"/>
	<rect x="582.3" y="768" style="fill:#FFFFFF;" width="50" height="16.2"/>
	<rect x="582.3" y="794.3" style="fill:#FFFFFF;" width="50" height="16.2"/>
	<rect x="582.3" y="820.6" style="fill:#FFFFFF;" width="50" height="16.2"/>
	<rect x="582.3" y="846.8" style="fill:#FFFFFF;" width="50" height="16.2"/>
	<rect x="582.3" y="873.1" style="fill:#FFFFFF;" width="50" height="16.2"/>
	<rect x="503.4" y="531.4" style="fill:#FFFFFF;" width="50" height="16.2"/>
	<rect x="503.4" y="557.7" style="fill:#FFFFFF;" width="50" height="16.2"/>
	<rect x="503.4" y="584" style="fill:#FFFFFF;" width="50" height="16.2"/>
	<rect x="503.4" y="610.3" style="fill:#FFFFFF;" width="50" height="16.2"/>
	<rect x="503.4" y="636.6" style="fill:#FFFFFF;" width="50" height="16.2"/>
	<rect x="503.4" y="662.8" style="fill:#FFFFFF;" width="50" height="16.2"/>
	<rect x="503.4" y="689.1" style="fill:#FFFFFF;" width="50" height="16.2"/>
	<rect x="503.4" y="715.4" style="fill:#FFFFFF;" width="50" height="16.2"/>
	<rect x="503.4" y="741.7" style="fill:#FFFFFF;" width="50" height="16.2"/>
	<rect x="503.4" y="768" style="fill:#FFFFFF;" width="50" height="16.2"/>
	<rect x="503.4" y="794.3" style="fill:#FFFFFF;" width="50" height="16.2"/>
	<rect x="503.4" y="820.6" style="fill:#FFFFFF;" width="50" height="16.2"/>
	<rect x="503.4" y="846.8" style="fill:#FFFFFF;" width="50" height="16.2"/>
	<rect x="503.4" y="873.1" style="fill:#FFFFFF;" width="50" height="16.2"/>
	<rect x="661.2" y="531.4" style="fill:#FFFFFF;" width="50" height="16.2"/>
	<rect x="661.2" y="557.7" style="fill:#FFFFFF;" width="50" height="16.2"/>
	<rect x="661.2" y="584" style="fill:#FFFFFF;" width="50" height="16.2"/>

		<rect x="734.3" y="526.8" transform="matrix(2.762410e-03 -1 1 2.762410e-03 200.8017 1280.3772)" style="fill:#ABADB0;" width="16.2" height="25.5"/>

		<rect x="734.2" y="553.1" transform="matrix(2.762410e-03 -1 1 2.762410e-03 174.4021 1306.5045)" style="fill:#ABADB0;" width="16.2" height="25.5"/>

		<rect x="734.1" y="579.3" transform="matrix(2.762410e-03 -1 1 2.762410e-03 148.1025 1332.5326)" style="fill:#ABADB0;" width="16.2" height="25.5"/>
	<rect x="661.2" y="610.3" style="fill:#FFFFFF;" width="50" height="16.2"/>
	<rect x="661.2" y="636.6" style="fill:#FFFFFF;" width="50" height="16.2"/>
	<rect x="661.2" y="662.8" style="fill:#FFFFFF;" width="50" height="16.2"/>
	<rect x="661.2" y="689.1" style="fill:#FFFFFF;" width="50" height="16.2"/>
	<rect x="661.2" y="715.4" style="fill:#FFFFFF;" width="50" height="16.2"/>
	<rect x="661.2" y="741.7" style="fill:#FFFFFF;" width="50" height="16.2"/>
	<rect x="661.2" y="768" style="fill:#FFFFFF;" width="50" height="16.2"/>
	<rect x="661.2" y="794.3" style="fill:#FFFFFF;" width="50" height="16.2"/>
	<rect x="661.2" y="820.6" style="fill:#FFFFFF;" width="50" height="16.2"/>
	<rect x="661.2" y="846.8" style="fill:#FFFFFF;" width="50" height="16.2"/>
	<rect x="661.2" y="873.1" style="fill:#FFFFFF;" width="50" height="16.2"/>
	<g>
		<polygon style="fill:#F14929;" points="943.9,602.9 943.9,894.9 708.9,894.9 708.9,602.9 741.2,602.9 741.2,492.4 765.9,492.4
			765.9,355 828.9,285.5 892.2,355 892.2,492.4 914.2,492.4 914.2,602.9 		"/>
		<rect x="705.6" y="602.8" style="fill:#FF931E;" width="199.7" height="291.6"/>
		<rect x="741.2" y="492.4" style="fill:#FF931E;" width="135.9" height="148.7"/>
		<rect x="765.9" y="355" style="fill:#FF931E;" width="88.5" height="156.6"/>
		<polygon style="fill:#FF931E;" points="828.9,285.5 854.4,355 765.9,355 		"/>
		<rect x="825.6" y="214" style="fill:#FF931E;" width="6.5" height="86"/>
		<rect x="782.9" y="497.2" style="fill:#FFFFFF;" width="20.6" height="23.5"/>
		<rect x="817.5" y="497.2" style="fill:#FFFFFF;" width="20.6" height="23.5"/>
		<rect x="782.9" y="536.7" style="fill:#FFFFFF;" width="20.6" height="23.5"/>
		<rect x="748.4" y="536.7" style="fill:#FFFFFF;" width="20.6" height="23.5"/>
		<rect x="817.5" y="536.7" style="fill:#FFFFFF;" width="20.6" height="23.5"/>
		<rect x="850.9" y="536.7" style="fill:#FFFFFF;" width="20.6" height="23.5"/>
		<rect x="782.9" y="576.1" style="fill:#FFFFFF;" width="20.6" height="23.5"/>
		<rect x="748.4" y="576.1" style="fill:#FFFFFF;" width="20.6" height="23.5"/>
		<rect x="817.5" y="576.1" style="fill:#FFFFFF;" width="20.6" height="23.5"/>
		<rect x="850.9" y="576.1" style="fill:#FFFFFF;" width="20.6" height="23.5"/>
		<rect x="775.8" y="370" style="fill:#FFFFFF;" width="7.6" height="106.6"/>
		<rect x="788.1" y="370" style="fill:#FFFFFF;" width="7.6" height="106.6"/>
		<rect x="800.4" y="370" style="fill:#FFFFFF;" width="7.6" height="106.6"/>
		<rect x="812.8" y="370" style="fill:#FFFFFF;" width="7.6" height="106.6"/>
		<rect x="825.1" y="370" style="fill:#FFFFFF;" width="7.6" height="106.6"/>
		<rect x="837.4" y="370" style="fill:#FFFFFF;" width="7.6" height="106.6"/>
		<rect x="858.2" y="369.4" style="fill:#ABADB0;" width="7.6" height="106.6"/>
		<rect x="870.5" y="369.4" style="fill:#ABADB0;" width="7.6" height="106.6"/>
		<rect x="882.8" y="369.4" style="fill:#ABADB0;" width="7.6" height="106.6"/>
		<rect x="716.3" y="635" style="fill:#FFFFFF;" width="18.9" height="29.1"/>
		<rect x="716.3" y="674.4" style="fill:#FFFFFF;" width="18.9" height="29.1"/>
		<rect x="716.3" y="713.9" style="fill:#FFFFFF;" width="18.9" height="29.1"/>
		<rect x="716.3" y="753.3" style="fill:#FFFFFF;" width="18.9" height="29.1"/>
		<rect x="716.3" y="792.7" style="fill:#FFFFFF;" width="18.9" height="29.1"/>
		<rect x="716.3" y="832.2" style="fill:#FFFFFF;" width="18.9" height="29.1"/>
		<rect x="716.3" y="871.6" style="fill:#FFFFFF;" width="18.9" height="29.1"/>
		<rect x="876.5" y="635" style="fill:#FFFFFF;" width="18.9" height="29.1"/>
		<rect x="876.5" y="674.4" style="fill:#FFFFFF;" width="18.9" height="29.1"/>
		<rect x="876.5" y="713.9" style="fill:#FFFFFF;" width="18.9" height="29.1"/>
		<rect x="876.5" y="753.3" style="fill:#FFFFFF;" width="18.9" height="29.1"/>
		<rect x="876.5" y="792.7" style="fill:#FFFFFF;" width="18.9" height="29.1"/>
		<rect x="876.5" y="832.2" style="fill:#FFFFFF;" width="18.9" height="29.1"/>
		<rect x="876.5" y="871.6" style="fill:#FFFFFF;" width="18.9" height="29.1"/>
	</g>
	<rect x="975.3" y="484.5" style="fill:#2E3192;" width="316.4" height="408.7"/>
	<rect x="909" y="569.5" style="fill:#CE242B;" width="244.6" height="323.7"/>
	<path style="fill:#2E3192;" d="M1291.7,484.5H975.3l-26.3-40c91.2-10.9,194.2-14.2,306-2.2c21.1,2.3,41.7,5,61.8,8.1
		C1308.5,461.7,1300.1,473.1,1291.7,484.5z"/>
	<rect x="901.7" y="519.3" style="fill:#BDCCD4;" width="129.5" height="373.7"/>
	<rect x="976.2" y="484.8" style="fill:#BDCCD4;" width="268.1" height="408.2"/>
	<path style="fill:#BDCCD4;" d="M1245.5,487.2H975.3L949,444.4c44.6-6.5,96-11.2,152.8-11.6c63.8-0.5,121,4.5,169.9,11.6
		C1263,458.7,1254.2,473,1245.5,487.2z"/>
	<polygon style="fill:#2E3192;" points="1043.9,510.3 1043.9,894.1 1031.2,894.1 1031.2,519.5 975.3,519.5 975.3,510.3 	"/>
	<rect x="1163.5" y="489" style="fill:#FFFFFF;" width="14" height="93.9"/>
	<rect x="1183.2" y="489" style="fill:#FFFFFF;" width="14" height="93.9"/>
	<rect x="1202.9" y="489" style="fill:#FFFFFF;" width="14" height="93.9"/>
	<rect x="1104.4" y="489" style="fill:#FFFFFF;" width="14" height="93.9"/>
	<rect x="1124.1" y="489" style="fill:#FFFFFF;" width="14" height="93.9"/>
	<rect x="1143.8" y="489" style="fill:#FFFFFF;" width="14" height="93.9"/>
	<rect x="1045.2" y="489" style="fill:#FFFFFF;" width="14" height="93.9"/>
	<rect x="1064.9" y="489" style="fill:#FFFFFF;" width="14" height="93.9"/>
	<rect x="1084.6" y="489" style="fill:#FFFFFF;" width="14" height="93.9"/>
	<rect x="986.1" y="489" style="fill:#FFFFFF;" width="14" height="21.3"/>
	<rect x="1005.8" y="489" style="fill:#FFFFFF;" width="14" height="21.3"/>
	<rect x="1025.5" y="489" style="fill:#FFFFFF;" width="14" height="21.3"/>
	<rect x="1043.5" y="599.4" style="fill:#FFFFFF;" width="175.6" height="10.8"/>
	<rect x="1043.5" y="619.1" style="fill:#FFFFFF;" width="175.6" height="10.8"/>
	<rect x="1043.5" y="638.8" style="fill:#FFFFFF;" width="175.6" height="10.8"/>
	<rect x="1043.5" y="658.5" style="fill:#FFFFFF;" width="175.6" height="10.8"/>
	<rect x="1043.5" y="678.2" style="fill:#FFFFFF;" width="175.6" height="10.8"/>
	<rect x="1043.5" y="697.9" style="fill:#FFFFFF;" width="175.6" height="10.8"/>
	<rect x="1043.5" y="717.6" style="fill:#FFFFFF;" width="175.6" height="10.8"/>
	<polygon style="fill:#ABADB0;" points="907,498.9 907,519.3 901.7,519.3 901.7,522.4 886.4,522.4 886.4,498.9 	"/>
	<rect x="886.4" y="537" style="fill:#ABADB0;" width="15.3" height="23.5"/>
	<rect x="886.4" y="576.5" style="fill:#ABADB0;" width="15.3" height="23.5"/>
	<rect x="1043.5" y="737.4" style="fill:#FFFFFF;" width="175.6" height="10.8"/>
	<rect x="1043.5" y="757.1" style="fill:#FFFFFF;" width="175.6" height="10.8"/>
	<rect x="1043.5" y="776.8" style="fill:#FFFFFF;" width="175.6" height="10.8"/>
	<rect x="1043.5" y="796.5" style="fill:#FFFFFF;" width="175.6" height="10.8"/>
	<rect x="1043.5" y="816.2" style="fill:#FFFFFF;" width="175.6" height="10.8"/>
	<rect x="1253.8" y="599.4" style="fill:#ABADB0;" width="37.9" height="10.8"/>
	<rect x="1253.8" y="619.1" style="fill:#ABADB0;" width="37.9" height="10.8"/>
	<rect x="1253.8" y="638.8" style="fill:#ABADB0;" width="37.9" height="10.8"/>
	<rect x="1253.8" y="658.5" style="fill:#ABADB0;" width="37.9" height="10.8"/>
	<rect x="1253.8" y="678.2" style="fill:#ABADB0;" width="37.9" height="10.8"/>
	<rect x="1253.8" y="697.9" style="fill:#ABADB0;" width="37.9" height="10.8"/>
	<rect x="1253.8" y="717.6" style="fill:#ABADB0;" width="37.9" height="10.8"/>
	<rect x="1253.8" y="737.4" style="fill:#ABADB0;" width="37.9" height="10.8"/>
	<rect x="1253.8" y="757.1" style="fill:#ABADB0;" width="37.9" height="10.8"/>
	<rect x="1253.8" y="776.8" style="fill:#ABADB0;" width="37.9" height="10.8"/>
	<rect x="1253.8" y="796.5" style="fill:#ABADB0;" width="37.9" height="10.8"/>
	<rect x="1253.8" y="816.2" style="fill:#ABADB0;" width="37.9" height="10.8"/>
	<rect x="915" y="533.9" style="fill:#FFFFFF;" width="23.5" height="21.4"/>
	<rect x="954.4" y="533.9" style="fill:#FFFFFF;" width="23.5" height="21.4"/>
	<rect x="993.8" y="533.9" style="fill:#FFFFFF;" width="23.5" height="21.4"/>
	<rect x="915" y="569.9" style="fill:#FFFFFF;" width="23.5" height="21.4"/>
	<rect x="954.4" y="569.9" style="fill:#FFFFFF;" width="23.5" height="21.4"/>
	<rect x="993.8" y="569.9" style="fill:#FFFFFF;" width="23.5" height="21.4"/>
	<rect x="915" y="605.8" style="fill:#FFFFFF;" width="23.5" height="21.4"/>
	<rect x="954.4" y="605.8" style="fill:#FFFFFF;" width="23.5" height="21.4"/>
	<rect x="993.8" y="605.8" style="fill:#FFFFFF;" width="23.5" height="21.4"/>
	<rect x="915" y="641.7" style="fill:#FFFFFF;" width="23.5" height="21.4"/>
	<rect x="954.4" y="641.7" style="fill:#FFFFFF;" width="23.5" height="21.4"/>
	<rect x="993.8" y="641.7" style="fill:#FFFFFF;" width="23.5" height="21.4"/>
	<rect x="915" y="678.5" style="fill:#FFFFFF;" width="23.5" height="21.4"/>
	<rect x="954.4" y="678.5" style="fill:#FFFFFF;" width="23.5" height="21.4"/>
	<rect x="993.8" y="678.5" style="fill:#FFFFFF;" width="23.5" height="21.4"/>
	<rect x="915" y="714.4" style="fill:#FFFFFF;" width="23.5" height="21.4"/>
	<rect x="954.4" y="714.4" style="fill:#FFFFFF;" width="23.5" height="21.4"/>
	<rect x="993.8" y="714.4" style="fill:#FFFFFF;" width="23.5" height="21.4"/>
	<rect x="915" y="750.4" style="fill:#FFFFFF;" width="23.5" height="21.4"/>
	<rect x="954.4" y="750.4" style="fill:#FFFFFF;" width="23.5" height="21.4"/>
	<rect x="993.8" y="750.4" style="fill:#FFFFFF;" width="23.5" height="21.4"/>
	<rect x="915" y="786.3" style="fill:#FFFFFF;" width="23.5" height="21.4"/>
	<rect x="954.4" y="786.3" style="fill:#FFFFFF;" width="23.5" height="21.4"/>
	<rect x="993.8" y="786.3" style="fill:#FFFFFF;" width="23.5" height="21.4"/>
	<rect x="915" y="820" style="fill:#FFFFFF;" width="23.5" height="21.4"/>
	<rect x="954.4" y="820" style="fill:#FFFFFF;" width="23.5" height="21.4"/>
	<rect x="993.8" y="820" style="fill:#FFFFFF;" width="23.5" height="21.4"/>
	<rect x="915" y="855.9" style="fill:#FFFFFF;" width="23.5" height="21.4"/>
	<rect x="954.4" y="855.9" style="fill:#FFFFFF;" width="23.5" height="21.4"/>
	<rect x="993.8" y="855.9" style="fill:#FFFFFF;" width="23.5" height="21.4"/>
</g>
<g id="island_base">
	<path style="fill:#818991;" d="M1322.5,940.9H1.1c-0.5,0-0.9-0.4-0.9-0.9v-31.6c0-9.3,7.7-16.8,17.2-16.8h1288.3
		c9.8,0,17.8,7.8,17.8,17.4v31C1323.5,940.5,1323,940.9,1322.5,940.9z"/>
	<path style="fill:#BDCCD4;" d="M1282.5,992.2H41c-22.5,0-40.9-17.9-40.9-39.9v-12.6h1323.3v12.6
		C1323.5,974.3,1305.1,992.2,1282.5,992.2z"/>
	<g id="bridge_1_">
	</g>
</g>
<g id="Foundation__x28_front_x29_">
	<ellipse style="fill:#CE242B;" cx="197.2" cy="764.2" rx="153.4" ry="81.1"/>
	<rect x="0.2" y="821.2" style="fill:#ED1C24;" width="396.5" height="70.4"/>
</g>
<g id="fore__x28_front">
	<path style="fill:#FF931E;" d="M337.9,756.2c0,23.9-34,44.4-83,53.6c34.4-8.1,57.7-23.5,57.7-41.2c0-26.1-50.9-47.3-113.7-47.3
		S85.1,742.5,85.1,768.6c0,20.2,30.6,37.5,73.6,44.3C98.9,806,55.1,783.3,55.1,756.2c0-32.5,63.3-58.8,141.4-58.8
		S337.9,723.8,337.9,756.2z"/>
	<rect x="249.1" y="763.6" style="fill:#ED1C24;" width="60.7" height="129.4"/>
	<rect x="86" y="762.3" style="fill:#ED1C24;" width="60.7" height="129.4"/>
	<rect x="92.4" y="769.3" style="fill:#FF931E;" width="48.7" height="122.4"/>
	<rect x="255.4" y="770.4" style="fill:#FF931E;" width="48.7" height="122.4"/>
	<rect x="129.7" y="787.7" style="fill:#FF931E;" width="142.7" height="12.6"/>
</g>
<g id="windows__x28_front">
	<path style="fill:#FF931E;" d="M181.7,840.7v50h-28.1v-50h0.1c0-6,6.3-10.8,14-10.8C175.5,829.9,181.7,834.7,181.7,840.7z"/>
	<path style="fill:#FF931E;" d="M212.8,840.7v50h-28.1v-50h0.1c0-6,6.3-10.8,14-10.8C206.4,829.9,212.8,834.7,212.8,840.7z"/>
	<path style="fill:#FF931E;" d="M243.8,840.7v50h-28.1v-50h0.1c0-6,6.3-10.8,14-10.8S243.8,834.7,243.8,840.7z"/>
	<rect x="8" y="831.1" style="fill:#FFFFFF;" width="11.2" height="11.2"/>
	<rect x="26.8" y="831.1" style="fill:#FFFFFF;" width="11.2" height="11.2"/>
	<rect x="8" y="849.9" style="fill:#FFFFFF;" width="11.2" height="11.2"/>
	<rect x="26.8" y="849.9" style="fill:#FFFFFF;" width="11.2" height="11.2"/>
	<rect x="8" y="868.7" style="fill:#FFFFFF;" width="11.2" height="11.2"/>
	<rect x="26.8" y="868.7" style="fill:#FFFFFF;" width="11.2" height="11.2"/>
	<rect x="48" y="831.1" style="fill:#FFFFFF;" width="11.2" height="11.2"/>
	<rect x="66.7" y="831.1" style="fill:#FFFFFF;" width="11.2" height="11.2"/>
	<rect x="377.4" y="831.1" style="fill:#FFFFFF;" width="11.2" height="11.2"/>
	<rect x="48" y="849.9" style="fill:#FFFFFF;" width="11.2" height="11.2"/>
	<rect x="66.7" y="849.9" style="fill:#FFFFFF;" width="11.2" height="11.2"/>
	<rect x="48" y="868.7" style="fill:#FFFFFF;" width="11.2" height="11.2"/>
	<rect x="66.7" y="868.7" style="fill:#FFFFFF;" width="11.2" height="11.2"/>
	<rect x="318.9" y="831.1" style="fill:#FFFFFF;" width="11.2" height="11.2"/>
	<rect x="337.7" y="831.1" style="fill:#FFFFFF;" width="11.2" height="11.2"/>
	<rect x="318.9" y="849.9" style="fill:#FFFFFF;" width="11.2" height="11.2"/>
	<rect x="337.7" y="849.9" style="fill:#FFFFFF;" width="11.2" height="11.2"/>
	<rect x="318.9" y="868.7" style="fill:#FFFFFF;" width="11.2" height="11.2"/>
	<rect x="337.7" y="868.7" style="fill:#FFFFFF;" width="11.2" height="11.2"/>
	<rect x="358.9" y="831.1" style="fill:#FFFFFF;" width="11.2" height="11.2"/>
	<rect x="358.9" y="849.9" style="fill:#FFFFFF;" width="11.2" height="11.2"/>
	<rect x="377.7" y="849.9" style="fill:#FFFFFF;" width="11.2" height="11.2"/>
	<rect x="358.9" y="868.7" style="fill:#FFFFFF;" width="11.2" height="11.2"/>
	<rect x="377.7" y="868.7" style="fill:#FFFFFF;" width="11.2" height="11.2"/>
</g>
</svg>
