<?xml version="1.0" encoding="utf-8"?>
<!-- Generator: Adobe Illustrator 23.0.4, SVG Export Plug-In . SVG Version: 6.00 Build 0)  -->
<svg version="1.1" id="Layer_1" xmlns="http://www.w3.org/2000/svg" xmlns:xlink="http://www.w3.org/1999/xlink" x="0px" y="0px"
	 viewBox="0 0 637.8 117.4" style="enable-background:new 0 0 637.8 117.4;" xml:space="preserve">
<style type="text/css">
	.st0{fill:#FFFFFF;stroke:#000000;stroke-width:2;stroke-miterlimit:10;}
</style>
<g>
	<path class="st0" d="M18.3,54c0-14.5,9.1-26.9,26.3-26.9c6.5,0,11.7,2,17.2,6.7c2,1.9,2.2,5.2,0.2,7.3c-2,1.8-5.1,1.6-6.9-0.2
		c-3.1-3.2-6.2-4.1-10.5-4.1c-11.5,0-17.1,8.2-17.1,17.3c0,9.3,5.5,17.8,17.1,17.8c4.3,0,8.2-1.7,11.7-4.8c2.3-1.8,5.5-0.9,6.9,0.9
		c1.2,1.6,1.8,4.4-0.8,7c-5.2,4.9-11.5,5.8-17.8,5.8C26.5,80.8,18.3,68.4,18.3,54z"/>
	<path class="st0" d="M73,32.9c0-2.5,2.1-4.6,4.7-4.6c2.4,0,4.4,2.1,4.4,4.6v37.6h20.4c7.3,0,7.5,9.8,0,9.8H77.7
		c-2.6,0-4.7-1.9-4.7-4.6V32.9z"/>
	<path class="st0" d="M120.4,80.3c-2.6,0-4.6-2-4.6-4.6V33c0-2.7,2-4.6,4.6-4.6h26.9c6.9,0,6.7,9.7,0,9.7h-21.6v11.2h18.9
		c6.7,0,6.7,9.8,0,9.8h-18.9v11.2h22.9c6.8,0,7.3,9.8,0,9.8H120.4z"/>
	<path class="st0" d="M178.9,76.9l-19.8-41.5c-2.9-5.9,5.9-10.8,9.2-4.6l6.7,15.1l8.6,19.8l8.5-19.8l6.7-15.1
		c3-5.7,11.7-2.1,9.1,4.1l-19.1,41.9C187,81.6,181.7,82.8,178.9,76.9z"/>
	<path class="st0" d="M220,80.3c-2.6,0-4.6-2-4.6-4.6V33c0-2.7,2-4.6,4.6-4.6h26.9c6.9,0,6.7,9.7,0,9.7h-21.6v11.2h18.9
		c6.7,0,6.7,9.8,0,9.8h-18.9v11.2h22.9c6.8,0,7.3,9.8,0,9.8H220z"/>
	<path class="st0" d="M261.5,32.9c0-2.5,2.1-4.6,4.7-4.6c2.4,0,4.4,2.1,4.4,4.6v37.6h20.4c7.3,0,7.5,9.8,0,9.8h-24.8
		c-2.6,0-4.7-1.9-4.7-4.6V32.9z"/>
	<path class="st0" d="M303.3,80.3c-2.4-1.4-3.9-4-2.4-7.2L322.4,31c2-4,7.4-4.1,9.3,0l21.1,42.1c3.1,5.8-6,10.5-8.7,4.6l-3.3-6.6
		h-27.7l-3.2,6.6C308.8,80.3,306,80.8,303.3,80.3z M335.5,61.2l-8.5-18.5l-9.2,18.5H335.5z"/>
	<path class="st0" d="M359.8,33.6c0-2.7,0.6-5.3,4.5-5.3c2.7,0,3.3,0.7,5.3,2.6l24.8,31V32.9c0-2.5,2.2-5.2,4.7-5.2
		c2.7,0,5.3,2.7,5.3,5.2v42.2c0,3.3-2,4.6-4,5.2c-2.6,0-3.9-0.6-6.1-2.6l-24.8-31.5v28.9c0,3.3-2,5.2-4.7,5.2
		c-2.7,0-5.1-1.9-5.1-5.2V33.6z"/>
	<path class="st0" d="M420.1,80.3c-2.5,0-5.2-1.4-5.2-4.6V33c0-2.7,2.7-4.6,5.2-4.6h17.2c34.3,0,33.5,51.9,0.7,51.9H420.1z
		 M424.8,37.5v33.6h12.4c20.2,0,21.1-33.6,0-33.6H424.8z"/>
	<path class="st0" d="M492.4,80.3c-2.4-1.4-3.9-4-2.4-7.2L511.5,31c2-4,7.4-4.1,9.3,0l21.1,42.1c3.1,5.8-6,10.5-8.7,4.6l-3.3-6.6
		h-27.7l-3.2,6.6C497.8,80.3,495.1,80.8,492.4,80.3z M524.6,61.2l-8.5-18.5l-9.2,18.5H524.6z"/>
	<path class="st0" d="M549.3,32.9c0-6.1,9.9-6.4,9.9,0v42.8c0,6.2-9.9,6.4-9.9,0V32.9z"/>
	<path class="st0" d="M580.3,75.4c0,6.5-10,6.8-10,0.2V33c0-2.6,2-4.6,4.5-4.6h19.9c19,0,22.9,25.5,7,31.9l10,12.1
		c3.9,5.8-3.9,11.3-8.4,5.6L592,61.8h-11.8V75.4z M580.3,53.2h14.5c9.7,0,10.3-15.7,0-15.7h-14.5V53.2z"/>
</g>
</svg>
