<?xml version="1.0" encoding="utf-8"?>
<!-- Generator: Adobe Illustrator 23.0.4, SVG Export Plug-In . SVG Version: 6.00 Build 0)  -->
<svg version="1.1" id="Layer_1" xmlns="http://www.w3.org/2000/svg" xmlns:xlink="http://www.w3.org/1999/xlink" x="0px" y="0px"
	 viewBox="0 0 1189 274" style="enable-background:new 0 0 1189 274;" xml:space="preserve">
<title>CloudsLowTransparency</title>
<g style="opacity:0.3;">
	<path style="fill:#FFFFFF;" d="M103.5,67h734C894.7,67,941,113.3,941,170.5l0,0c0,57.2-46.3,103.5-103.5,103.5h-734
		C46.3,274,0,227.7,0,170.5l0,0C0,113.3,46.3,67,103.5,67z"/>
</g>
<g style="opacity:0.3;">
	<path style="fill:#FFFFFF;" d="M321,0h795c40.3,0,73,32.7,73,73l0,0c0,40.3-32.7,73-73,73H321c-40.3,0-73-32.7-73-73l0,0
		C248,32.7,280.7,0,321,0z"/>
</g>
</svg>
