<?xml version="1.0" encoding="utf-8"?>
<!-- Generator: Adobe Illustrator 24.0.0, SVG Export Plug-In . SVG Version: 6.00 Build 0)  -->
<svg version="1.1" id="Layer_1" xmlns="http://www.w3.org/2000/svg" xmlns:xlink="http://www.w3.org/1999/xlink" x="0px" y="0px"
	 viewBox="0 0 462.8 267.9" style="enable-background:new 0 0 462.8 267.9;" xml:space="preserve">
<title>CWDairbuttonalt</title>
<path style="fill:#B1B3B6;" d="M130.8,142.5h19.4c1.9-26.5,25-46.4,51.5-44.5c3.3,0.2,6.7,0.8,9.9,1.8c3.2-42.6,40.3-74.5,82.9-71.2
	c33.4,2.5,61.4,26.2,69.3,58.8c22.7-7,46.8,5.6,53.8,28.3c2.7,8.8,2.6,18.3-0.5,27c25,2.1,44.3,23,44.3,48.1l0,0
	c0,26.7-21.6,48.3-48.3,48.3l0,0H130.8c-26.7,0-48.3-21.6-48.3-48.3l0,0l0,0C82.5,164.1,104.1,142.5,130.8,142.5L130.8,142.5z"/>
<rect x="108.8" y="0.1" style="fill:#8CC63F;stroke:#000000;stroke-miterlimit:10;" width="61.1" height="44.7"/>
<rect x="108.7" y="44.8" style="fill:#FCEE21;stroke:#000000;stroke-miterlimit:10;" width="61" height="44.6"/>
<rect x="108.7" y="89.8" style="fill:#EA5E2F;stroke:#000000;stroke-miterlimit:10;" width="61" height="44.6"/>
<rect x="108.7" y="133.5" style="fill:#EA3A00;stroke:#000000;stroke-miterlimit:10;" width="61" height="44.6"/>
<rect x="108.5" y="183.6" style="fill:#9E005D;stroke:#000000;stroke-miterlimit:10;" width="61.5" height="45"/>
<rect x="108.7" y="222.8" style="fill:#510833;stroke:#000000;stroke-miterlimit:10;" width="61" height="44.6"/>
<path style="fill:#939598;" d="M16.2,214.7c-9,0.1-16.3-7.2-16.4-16.2c0-7.4,5-14,12.2-15.8l0.6-0.1l-0.2-0.5
	c-2.2-5.4-3.3-11.3-3.3-17.1c0-24.1,18.7-43.8,41.6-43.8c18.9,0,35.4,13.4,40.2,32.6l0.2,0.6l0.6-0.3c10.8-6.2,24.7-2.4,30.9,8.4
	c0.7,1.1,1.2,2.3,1.6,3.6l0.2,0.4l0.4-0.1c1.5-0.4,3-0.6,4.5-0.6c2.3,0,4.6,0.5,6.7,1.5l0.4,0.2l0.2-0.4
	c7.5-13.6,24.6-18.4,38.1-10.9c8.9,4.9,14.4,14.3,14.5,24.5c0,0.4,0,0.8,0,1.2v0.5h6.9c9,0.2,16.1,7.7,15.9,16.7
	c-0.2,8.7-7.2,15.6-15.9,15.9L16.2,214.7z"/>
<path style="fill:#C7C8CA;" d="M164.2,266.8c-13.7,0-24.8-11.1-24.8-24.8s11.1-24.8,24.8-24.8l0,0h10.2v-0.5c0-0.6,0-1.2,0-1.8
	c0-23.5,19.1-42.6,42.7-42.6c15.5,0,29.8,8.4,37.3,22l0.2,0.4l0.4-0.2c3.2-1.5,6.7-2.2,10.2-2.2c2.3,0,4.7,0.3,6.9,1l0.4,0.1
	l0.2-0.4c6.4-17.9,26.2-27.2,44.1-20.8c1.9,0.7,3.7,1.5,5.4,2.5l0.6,0.3l0.2-0.6c7.3-29.1,32.4-49.4,61-49.4
	c34.8,0,63.1,29.8,63.1,66.4c0,8.9-1.7,17.7-5,26l-0.2,0.5l0.5,0.1c13.2,3.5,21.2,17.1,17.7,30.3c-2.9,10.9-12.7,18.5-24,18.5H164.2
	z"/>
</svg>
