<svg id="Layer_1" data-name="Layer 1"
    xmlns="http://www.w3.org/2000/svg"
    xmlns:xlink="http://www.w3.org/1999/xlink" viewBox="0 0 1288.91 352.36">
    <defs>
        <linearGradient id="New_Gradient_Swatch_2" x1="425.76" y1="13.34" x2="276.03" y2="361.23" gradientUnits="userSpaceOnUse">
            <stop offset="0.14" stop-color="#fff"/>
            <stop offset="0.88" stop-color="#e7e7e7"/>
        </linearGradient>
        <linearGradient id="New_Gradient_Swatch_2-2" x1="329.45" y1="180.75" x2="97.19" y2="402.45" xlink:href="#New_Gradient_Swatch_2"/>
        <linearGradient id="New_Gradient_Swatch_2-3" x1="1412.95" y1="170.68" x2="1259.6" y2="317.23" gradientTransform="matrix(-1, 0, 0, 1, 1559.17, 0)" xlink:href="#New_Gradient_Swatch_2"/>
    </defs>
    <path id="background" d="M216,205.59a34.59,34.59,0,0,1-34.54-34.54V48.13c0-19.37,16.05-34.54,36.54-34.54H1336c17.33,0,32.54,16.14,32.54,34.54V171.05A34.59,34.59,0,0,1,1334,205.59Z" transform="translate(-81.09 0.57)" fill="#fff"/>
    <path d="M1336,15.09c16.53,0,31,15.44,31,33V171.05a33.08,33.08,0,0,1-33,33H216a33.08,33.08,0,0,1-33-33V48.13c0-18.53,15.39-33,35-33H1336m0-3H218c-21.82,0-38,16.22-38,36V171.05a36.15,36.15,0,0,0,36,36H1334a36.15,36.15,0,0,0,36-36V48.13c0-19.82-16.22-36-34-36Z" transform="translate(-81.09 0.57)"/>
    <path d="M208.55,141.93h19.37a48.09,48.09,0,0,1,61.35-42.68A77.27,77.27,0,0,1,441.4,86.78a43,43,0,0,1,53.32,55.33A48.28,48.28,0,0,1,539,190.22h0a48.29,48.29,0,0,1-48.29,48.29H208.55a48.29,48.29,0,0,1-48.29-48.29h0A48.29,48.29,0,0,1,208.55,141.93Z" transform="translate(-81.09 0.57)" stroke="#000" stroke-miterlimit="10" fill="url(#New_Gradient_Swatch_2)"/>
    <path d="M130.76,266.25a24.81,24.81,0,1,1,0-49.62H141l0-.52c0-.59,0-1.18,0-1.77a42.64,42.64,0,0,1,79.93-20.66l.22.41.42-.19a24.2,24.2,0,0,1,10.19-2.23,24.45,24.45,0,0,1,6.9,1l.45.13.16-.44a34.45,34.45,0,0,1,49.49-18.26l.57.33.16-.64c7.3-29.07,32.38-49.37,61-49.37,34.78,0,63.07,29.78,63.07,66.4a69,69,0,0,1-5,26l-.22.53.55.14a24.81,24.81,0,0,1-6.36,48.8Z" transform="translate(-81.09 0.57)" fill="url(#New_Gradient_Swatch_2-2)"/>
    <path d="M350.36,124.92c34.5,0,62.57,29.56,62.57,65.9a68.4,68.4,0,0,1-5,25.77l-.42,1.06,1.09.29a24.31,24.31,0,0,1-6.23,47.81H130.76a24.31,24.31,0,1,1,0-48.62h10.71l0-1c0-.53,0-1.14,0-1.75a42.13,42.13,0,0,1,79-20.41l.45.81.84-.39a23.88,23.88,0,0,1,16.74-1.2l.91.26.31-.88a33.93,33.93,0,0,1,48.77-18l1.14.65.32-1.28c7.25-28.85,32.13-49,60.5-49m0-1c-29.48,0-54.27,21.11-61.47,49.75a34.93,34.93,0,0,0-50.2,18.52,24.9,24.9,0,0,0-17.44,1.25,43.13,43.13,0,0,0-80.86,20.9c0,.6,0,1.19,0,1.79h-9.67a25.31,25.31,0,1,0,0,50.62H402.4A25.31,25.31,0,0,0,408.89,217a69.63,69.63,0,0,0,5-26.15c0-36.95-28.46-66.9-63.57-66.9Z" transform="translate(-81.09 0.57)"/>
    <rect x="223.83" y="-0.07" width="58.65" height="58.65" transform="translate(425.22 59.08) rotate(180)" fill="#8cc63f" stroke="#000" stroke-miterlimit="10"/>
    <rect x="223.65" y="58.77" width="58.65" height="58.65" transform="translate(424.85 176.75) rotate(180)" fill="#fcee21" stroke="#000" stroke-miterlimit="10"/>
    <rect x="223.65" y="117.78" width="58.65" height="58.65" transform="translate(424.85 294.78) rotate(180)" fill="#ea5e2f" stroke="#000" stroke-miterlimit="10"/>
    <rect x="223.65" y="175.34" width="58.65" height="58.65" transform="translate(424.85 409.9) rotate(180)" fill="#ea3a00" stroke="#000" stroke-miterlimit="10"/>
    <rect x="223.65" y="233.99" width="58.65" height="58.65" transform="translate(424.85 527.21) rotate(180)" fill="#9e005d" stroke="#000" stroke-miterlimit="10"/>
    <rect x="223.65" y="292.65" width="58.65" height="58.65" transform="translate(424.85 644.51) rotate(180)" fill="#510833" stroke="#000" stroke-miterlimit="10"/>
    <path d="M97.85,227.07a16.26,16.26,0,0,1-4.17-32l.55-.14-.21-.53a45.48,45.48,0,0,1-3.3-17.12c0-24.15,18.65-43.79,41.58-43.79,18.85,0,35.39,13.39,40.2,32.56l.16.64.58-.33a22.62,22.62,0,0,1,32.51,12l.16.45.45-.14a16.09,16.09,0,0,1,4.52-.65,15.86,15.86,0,0,1,6.68,1.46l.42.19.22-.4a28.06,28.06,0,0,1,52.6,13.59c0,.39,0,.78,0,1.16l0,.52h6.92a16.26,16.26,0,0,1,0,32.51Z" transform="translate(-81.09 0.57)" fill="url(#New_Gradient_Swatch_2-3)"/>
    <path d="M132.3,134c18.63,0,35,13.23,39.72,32.18l.32,1.28,1.15-.65a22.11,22.11,0,0,1,31.79,11.72l.32.89.9-.26a15.45,15.45,0,0,1,10.85.77l.84.39.45-.81a27.56,27.56,0,0,1,51.66,13.35c0,.38,0,.76,0,1.14l0,1h7.45a15.76,15.76,0,0,1,0,31.51H97.85a15.75,15.75,0,0,1-4-31l1.1-.29-.43-1.05a45,45,0,0,1-3.26-16.94c0-23.87,18.43-43.29,41.08-43.29m0-1c-23.24,0-42.08,19.83-42.08,44.29a46.31,46.31,0,0,0,3.33,17.31,16.75,16.75,0,0,0,4.3,32.95H277.67a16.76,16.76,0,0,0,0-33.51h-6.4c0-.39,0-.78,0-1.18a28.56,28.56,0,0,0-53.54-13.83,16.38,16.38,0,0,0-11.54-.83A23.11,23.11,0,0,0,173,166C168.22,147,151.82,133,132.3,133Z" transform="translate(-81.09 0.57)"/>
    <path d="M703.55,138.73c-2.65-1.49-4.31-4.48-2.65-8l23.81-46.56c2.25-4.4,8.22-4.57,10.3,0l23.4,46.56c3.4,6.47-6.64,11.62-9.63,5.14l-3.65-7.3H714.51l-3.57,7.3C709.61,138.73,706.54,139.32,703.55,138.73Zm35.69-21.08-9.38-20.5-10.21,20.5Z" transform="translate(-81.09 0.57)"/>
    <path d="M772.61,86.28c0-6.8,10.95-7,10.95,0v47.39c0,6.89-10.95,7.06-10.95,0Z" transform="translate(-81.09 0.57)"/>
    <path d="M812.94,133.34c0,7.22-11,7.47-11,.17V86.37a5,5,0,0,1,5-5.07H829c21.08,0,25.4,28.22,7.8,35.27l11,13.45c4.32,6.39-4.32,12.53-9.3,6.22L826,118.32h-13Zm0-24.57h16c10.79,0,11.45-17.42,0-17.42h-16Z" transform="translate(-81.09 0.57)"/>
</svg>
