<?xml version="1.0" encoding="utf-8"?>
<!-- Generator: Adobe Illustrator 23.0.6, SVG Export Plug-In . SVG Version: 6.00 Build 0)  -->
<svg version="1.1" id="Layer_1" xmlns="http://www.w3.org/2000/svg" xmlns:xlink="http://www.w3.org/1999/xlink" x="0px" y="0px"
	 viewBox="0 0 1288.9 352.4" style="enable-background:new 0 0 1288.9 352.4;" xml:space="preserve">
<style type="text/css">
	.st0{fill:#FFFFFF;}
	.st1{fill:url(#SVGID_1_);stroke:#000000;stroke-miterlimit:10;}
	.st2{fill:url(#SVGID_2_);}
	.st3{fill:#8CC63F;stroke:#000000;stroke-miterlimit:10;}
	.st4{fill:#FCEE21;stroke:#000000;stroke-miterlimit:10;}
	.st5{fill:#EA5E2F;stroke:#000000;stroke-miterlimit:10;}
	.st6{fill:#EA3A00;stroke:#000000;stroke-miterlimit:10;}
	.st7{fill:#9E005D;stroke:#000000;stroke-miterlimit:10;}
	.st8{fill:#510833;stroke:#000000;stroke-miterlimit:10;}
	.st9{fill:url(#SVGID_3_);}
</style>
<title>CWDairbuttonalt</title>
<path class="st0" d="M134.9,206.2c-19.1,0-34.5-15.5-34.5-34.5V48.7c0-19.4,16.1-34.5,36.5-34.5h1118c17.3,0,32.5,16.1,32.5,34.5
	v122.9c0,19.1-15.5,34.5-34.5,34.5H134.9z"/>
<path d="M1254.9,15.7c16.5,0,31,15.4,31,33v123c0,18.2-14.8,33-33,33h-1118c-18.2,0-33-14.8-33-33V48.7c0-18.5,15.4-33,35-33
	L1254.9,15.7 M1254.9,12.7h-1118c-21.8,0-38,16.2-38,36v122.9c0.1,19.8,16.2,35.9,36,36h1118c19.8-0.1,35.9-16.2,36-36V48.7
	C1288.9,28.9,1272.7,12.7,1254.9,12.7z"/>
<linearGradient id="SVGID_1_" gradientUnits="userSpaceOnUse" x1="425.7585" y1="340.6606" x2="276.0285" y2="-7.2293" gradientTransform="matrix(1 0 0 -1 -81.09 354.57)">
	<stop  offset="0.14" style="stop-color:#FFFFFF"/>
	<stop  offset="0.88" style="stop-color:#E7E7E7"/>
</linearGradient>
<path class="st1" d="M127.5,142.5h19.4c1.9-26.5,25-46.4,51.5-44.5c3.3,0.2,6.7,0.8,9.9,1.8c3.2-42.6,40.3-74.5,82.9-71.2
	c33.4,2.5,61.4,26.2,69.3,58.8c22.7-7,46.8,5.6,53.8,28.3c2.7,8.8,2.6,18.3-0.5,27c25,2.1,44.3,23,44.3,48.1l0,0
	c0,26.7-21.6,48.3-48.3,48.3c0,0,0,0,0,0H127.5c-26.7,0-48.3-21.6-48.3-48.3l0,0l0,0C79.2,164.1,100.8,142.5,127.5,142.5
	L127.5,142.5z"/>
<linearGradient id="SVGID_2_" gradientUnits="userSpaceOnUse" x1="329.525" y1="173.1715" x2="97.265" y2="-48.5286" gradientTransform="matrix(1 0 0 -1 -81.09 354.57)">
	<stop  offset="0.14" style="stop-color:#FFFFFF"/>
	<stop  offset="0.88" style="stop-color:#E7E7E7"/>
</linearGradient>
<path class="st2" d="M49.7,266.8c-13.7,0-24.8-11.1-24.8-24.8c0-13.7,11.1-24.8,24.8-24.8c0,0,0,0,0,0h10.2v-0.5c0-0.6,0-1.2,0-1.8
	c0-23.5,19.1-42.6,42.7-42.6c15.5,0,29.8,8.4,37.3,22l0.2,0.4l0.4-0.2c3.2-1.5,6.7-2.2,10.2-2.2c2.3,0,4.7,0.3,6.9,1l0.4,0.1
	l0.2-0.4c6.4-17.9,26.2-27.2,44.1-20.8c1.9,0.7,3.7,1.5,5.4,2.5l0.6,0.3l0.2-0.6c7.3-29.1,32.4-49.4,61-49.4
	c34.8,0,63.1,29.8,63.1,66.4c0,8.9-1.7,17.7-5,26l-0.2,0.5l0.5,0.1c13.2,3.5,21.2,17.1,17.7,30.3c-2.9,10.9-12.7,18.5-24,18.5
	L49.7,266.8z"/>
<path d="M269.3,125.5c34.5,0,62.6,29.6,62.6,65.9c0,8.8-1.7,17.6-5,25.8l-0.4,1.1l1.1,0.3c13,3.4,20.7,16.7,17.3,29.7
	c-2.8,10.7-12.5,18.1-23.5,18.1H49.7c-13.4,0-24.3-10.9-24.3-24.3c0-13.4,10.9-24.3,24.3-24.3c0,0,0,0,0,0h10.7v-1
	c0-0.5,0-1.1,0-1.8c0-23.3,18.8-42.1,42.1-42.2c15.3,0,29.5,8.3,36.9,21.7l0.4,0.8l0.8-0.4c5.3-2.4,11.2-2.8,16.7-1.2l0.9,0.3
	l0.3-0.9c6.3-17.6,25.8-26.8,43.4-20.5c1.9,0.7,3.7,1.5,5.4,2.5l1.1,0.6l0.3-1.3C216.1,145.7,241,125.5,269.3,125.5 M269.4,124.5
	c-29.5,0-54.3,21.1-61.5,49.8c-16.8-9.6-38.1-3.7-47.7,13c-1,1.8-1.9,3.6-2.5,5.5c-5.8-1.7-12-1.3-17.4,1.2
	c-11.5-20.8-37.8-28.4-58.6-16.8c-13.7,7.6-22.2,22-22.2,37.7c0,0.6,0,1.2,0,1.8h-9.7c-14,0-25.3,11.3-25.3,25.3
	c0,14,11.3,25.3,25.3,25.3h271.6c14,0,25.3-11.3,25.3-25.3c0-11.5-7.7-21.5-18.8-24.4c3.3-8.3,5-17.2,5-26.1
	c0-36.9-28.5-66.9-63.6-66.9L269.4,124.5z"/>
<rect x="142.7" y="0.5" class="st3" width="58.7" height="58.7"/>
<rect x="142.6" y="59.3" class="st4" width="58.6" height="58.6"/>
<rect x="142.6" y="118.4" class="st5" width="58.6" height="58.6"/>
<rect x="142.6" y="175.9" class="st6" width="58.6" height="58.6"/>
<rect x="142.6" y="234.6" class="st7" width="58.6" height="58.7"/>
<rect x="142.6" y="293.2" class="st8" width="58.6" height="58.6"/>
<linearGradient id="SVGID_3_" gradientUnits="userSpaceOnUse" x1="782.9693" y1="183.2998" x2="629.6193" y2="36.7497" gradientTransform="matrix(-1 0 0 -1 848.0801 354.57)">
	<stop  offset="0.14" style="stop-color:#FFFFFF"/>
	<stop  offset="0.88" style="stop-color:#E7E7E7"/>
</linearGradient>
<path class="st9" d="M16.8,227.6c-9,0.1-16.3-7.2-16.4-16.2c0-7.4,5-14,12.2-15.8l0.6-0.1l-0.2-0.5c-2.2-5.4-3.3-11.3-3.3-17.1
	c0-24.1,18.7-43.8,41.6-43.8c18.9,0,35.4,13.4,40.2,32.6l0.2,0.6l0.6-0.3c10.8-6.2,24.7-2.4,30.9,8.4c0.7,1.1,1.2,2.3,1.6,3.6
	l0.2,0.4l0.4-0.1c1.5-0.4,3-0.6,4.5-0.6c2.3,0,4.6,0.5,6.7,1.5l0.4,0.2l0.2-0.4c7.5-13.6,24.6-18.4,38.1-10.9
	c8.9,4.9,14.4,14.3,14.5,24.5c0,0.4,0,0.8,0,1.2v0.5h6.9c9,0.2,16.1,7.7,15.9,16.7c-0.2,8.7-7.2,15.6-15.9,15.9L16.8,227.6z"/>
<path d="M51.2,134.6c18.6,0,35,13.2,39.7,32.2l0.3,1.3l1.1-0.6c10.6-6.1,24.1-2.4,30.2,8.2c0.6,1.1,1.2,2.3,1.6,3.5l0.3,0.9l0.9-0.3
	c3.6-1.1,7.4-0.8,10.9,0.8l0.8,0.4l0.4-0.8c7.4-13.3,24.2-18.1,37.5-10.7c8.8,4.9,14.2,14.1,14.2,24.1c0,0.4,0,0.8,0,1.1v1h7.5
	c8.7,0.2,15.6,7.5,15.4,16.2c-0.2,8.4-7,15.1-15.4,15.4H16.8c-8.7,0-15.8-7-15.8-15.7c0-7.2,4.8-13.5,11.8-15.3l1.1-0.3l-0.4-1.1
	c-2.2-5.4-3.3-11.1-3.3-16.9C10.2,153.9,28.6,134.5,51.2,134.6 M51.2,133.5c-23.2,0-42.1,19.8-42.1,44.3c0,5.9,1.1,11.8,3.3,17.3
	c-8.9,2.4-14.3,11.5-11.9,20.5c1.9,7.4,8.6,12.5,16.2,12.5h179.8c9.3-0.2,16.6-7.9,16.3-17.2c-0.2-8.9-7.4-16.1-16.3-16.3h-6.4
	c0-0.4,0-0.8,0-1.2c0-15.8-12.8-28.6-28.6-28.5c-10.4,0-19.9,5.6-25,14.7c-3.6-1.7-7.7-2-11.5-0.8c-4.4-12-17.6-18.2-29.6-13.8
	c-1.2,0.4-2.4,1-3.6,1.7C87.1,147.6,70.7,133.6,51.2,133.5L51.2,133.5z"/>
<path d="M590.6,160.1c-5-2.8-8.2-8.5-5-15.2l45.2-88.3c4.3-8.3,15.6-8.7,19.5,0l44.4,88.3c6.4,12.3-12.6,22-18.3,9.7l-6.9-13.8
	h-58.1l-6.8,13.8C602.1,160.1,596.3,161.2,590.6,160.1z M658.3,120.1l-17.8-38.9l-19.4,38.9H658.3z"/>
<path d="M721.6,60.6c0-12.9,20.8-13.3,20.8,0v89.9c0,13.1-20.8,13.4-20.8,0V60.6z"/>
<path d="M798.1,149.9c0,13.7-20.9,14.2-20.9,0.3V60.8c-0.1-5.2,4.1-9.5,9.4-9.6c0,0,0.1,0,0.1,0h41.8c40,0,48.2,53.5,14.8,66.9
	l20.9,25.5c8.2,12.1-8.2,23.8-17.6,11.8l-23.7-34h-24.7L798.1,149.9z M798.1,103.3h30.3c20.5,0,21.7-33,0-33h-30.3V103.3z"/>
</svg>
