<?xml version="1.0" encoding="utf-8"?>
<!-- Generator: Adobe Illustrator 23.0.6, SVG Export Plug-In . SVG Version: 6.00 Build 0)  -->
<svg version="1.1" id="Layer_1" xmlns="http://www.w3.org/2000/svg" xmlns:xlink="http://www.w3.org/1999/xlink" x="0px" y="0px"
	 viewBox="0 0 1288.9 352.4" style="enable-background:new 0 0 1288.9 352.4;" xml:space="preserve">
<title>CWDairbuttonalt</title>
<path style="fill:#007DC5;" d="M134.9,204.3c-19.1,0-34.5-15.3-34.5-34.2V48.4c0-19.2,16.1-34.2,36.5-34.2h1118
	c17.3,0,32.5,15.9,32.5,34.2V170c0,18.9-15.5,34.2-34.5,34.2L134.9,204.3L134.9,204.3z"/>
<path d="M1254.9,15.7c16.5,0,31,15.4,31,33v123c0,18.2-14.8,33-33,33h-1118c-18.2,0-33-14.8-33-33v-123c0-18.5,15.4-33,35-33
	L1254.9,15.7 M1254.9,12.7h-1118c-21.8,0-38,16.2-38,36v122.9c0.1,19.8,16.2,35.9,36,36h1118c19.8-0.1,35.9-16.2,36-36V48.7
	C1288.9,28.9,1272.7,12.7,1254.9,12.7z"/>
<path style="fill:#B1B3B6;stroke:#000000;stroke-width:3;stroke-miterlimit:10;" d="M127.5,142.5h19.4c1.9-26.5,25-46.4,51.5-44.5
	c3.3,0.2,6.7,0.8,9.9,1.8c3.2-42.6,40.3-74.5,82.9-71.2c33.4,2.5,61.4,26.2,69.3,58.8c22.7-7,46.8,5.6,53.8,28.3
	c2.7,8.8,2.6,18.3-0.5,27c25,2.1,44.3,23,44.3,48.1l0,0c0,26.7-21.6,48.3-48.3,48.3l0,0H127.5c-26.7,0-48.3-21.6-48.3-48.3l0,0l0,0
	C79.2,164.1,100.8,142.5,127.5,142.5L127.5,142.5z"/>
<path style="fill:#C7C8CA;stroke:#000000;stroke-width:3;stroke-miterlimit:10;" d="M49.7,266.8c-13.7,0-24.8-11.1-24.8-24.8
	s11.1-24.8,24.8-24.8l0,0h10.2v-0.5c0-0.6,0-1.2,0-1.8c0-23.5,19.1-42.6,42.7-42.6c15.5,0,29.8,8.4,37.3,22l0.2,0.4l0.4-0.2
	c3.2-1.5,6.7-2.2,10.2-2.2c2.3,0,4.7,0.3,6.9,1l0.4,0.1l0.2-0.4c6.4-17.9,26.2-27.2,44.1-20.8c1.9,0.7,3.7,1.5,5.4,2.5l0.6,0.3
	l0.2-0.6c7.3-29.1,32.4-49.4,61-49.4c34.8,0,63.1,29.8,63.1,66.4c0,8.9-1.7,17.7-5,26l-0.2,0.5l0.5,0.1
	c13.2,3.5,21.2,17.1,17.7,30.3c-2.9,10.9-12.7,18.5-24,18.5H49.7z"/>
<path d="M269.3,125.5c34.5,0,62.6,29.6,62.6,65.9c0,8.8-1.7,17.6-5,25.8l-0.4,1.1l1.1,0.3c13,3.4,20.7,16.7,17.3,29.7
	c-2.8,10.7-12.5,18.1-23.5,18.1H49.7c-13.4,0-24.3-10.9-24.3-24.3c0-13.4,10.9-24.3,24.3-24.3l0,0h10.7v-1c0-0.5,0-1.1,0-1.8
	c0-23.3,18.8-42.1,42.1-42.2c15.3,0,29.5,8.3,36.9,21.7l0.4,0.8l0.8-0.4c5.3-2.4,11.2-2.8,16.7-1.2l0.9,0.3l0.3-0.9
	c6.3-17.6,25.8-26.8,43.4-20.5c1.9,0.7,3.7,1.5,5.4,2.5l1.1,0.6l0.3-1.3C216.1,145.7,241,125.5,269.3,125.5 M269.4,124.5
	c-29.5,0-54.3,21.1-61.5,49.8c-16.8-9.6-38.1-3.7-47.7,13c-1,1.8-1.9,3.6-2.5,5.5c-5.8-1.7-12-1.3-17.4,1.2
	c-11.5-20.8-37.8-28.4-58.6-16.8c-13.7,7.6-22.2,22-22.2,37.7c0,0.6,0,1.2,0,1.8h-9.7c-14,0-25.3,11.3-25.3,25.3
	s11.3,25.3,25.3,25.3h271.6c14,0,25.3-11.3,25.3-25.3c0-11.5-7.7-21.5-18.8-24.4c3.3-8.3,5-17.2,5-26.1
	C332.9,154.6,304.4,124.6,269.4,124.5L269.4,124.5z"/>
<rect x="142.7" y="0.5" style="fill:#8CC63F;stroke:#000000;stroke-miterlimit:10;" width="58.7" height="58.7"/>
<rect x="142.6" y="59.3" style="fill:#FCEE21;stroke:#000000;stroke-miterlimit:10;" width="58.6" height="58.6"/>
<rect x="142.6" y="118.4" style="fill:#EA5E2F;stroke:#000000;stroke-miterlimit:10;" width="58.6" height="58.6"/>
<rect x="142.6" y="175.9" style="fill:#EA3A00;stroke:#000000;stroke-miterlimit:10;" width="58.6" height="58.6"/>
<rect x="142.6" y="234.6" style="fill:#9E005D;stroke:#000000;stroke-miterlimit:10;" width="58.6" height="58.7"/>
<rect x="142.6" y="293.2" style="fill:#510833;stroke:#000000;stroke-miterlimit:10;" width="58.6" height="58.6"/>
<path style="fill:#939598;stroke:#000000;stroke-width:3;stroke-miterlimit:10;" d="M16.8,227.6c-9,0.1-16.3-7.2-16.4-16.2
	c0-7.4,5-14,12.2-15.8l0.6-0.1L13,195c-2.2-5.4-3.3-11.3-3.3-17.1c0-24.1,18.7-43.8,41.6-43.8c18.9,0,35.4,13.4,40.2,32.6l0.2,0.6
	l0.6-0.3c10.8-6.2,24.7-2.4,30.9,8.4c0.7,1.1,1.2,2.3,1.6,3.6l0.2,0.4l0.4-0.1c1.5-0.4,3-0.6,4.5-0.6c2.3,0,4.6,0.5,6.7,1.5l0.4,0.2
	l0.2-0.4c7.5-13.6,24.6-18.4,38.1-10.9c8.9,4.9,14.4,14.3,14.5,24.5c0,0.4,0,0.8,0,1.2v0.5h6.9c9,0.2,16.1,7.7,15.9,16.7
	c-0.2,8.7-7.2,15.6-15.9,15.9L16.8,227.6z"/>
<path d="M51.2,134.6c18.6,0,35,13.2,39.7,32.2l0.3,1.3l1.1-0.6c10.6-6.1,24.1-2.4,30.2,8.2c0.6,1.1,1.2,2.3,1.6,3.5l0.3,0.9l0.9-0.3
	c3.6-1.1,7.4-0.8,10.9,0.8l0.8,0.4l0.4-0.8c7.4-13.3,24.2-18.1,37.5-10.7c8.8,4.9,14.2,14.1,14.2,24.1c0,0.4,0,0.8,0,1.1v1h7.5
	c8.7,0.2,15.6,7.5,15.4,16.2c-0.2,8.4-7,15.1-15.4,15.4H16.8c-8.7,0-15.8-7-15.8-15.7c0-7.2,4.8-13.5,11.8-15.3l1.1-0.3l-0.4-1.1
	c-2.2-5.4-3.3-11.1-3.3-16.9C10.2,153.9,28.6,134.5,51.2,134.6 M51.2,133.5c-23.2,0-42.1,19.8-42.1,44.3c0,5.9,1.1,11.8,3.3,17.3
	c-8.9,2.4-14.3,11.5-11.9,20.5c1.9,7.4,8.6,12.5,16.2,12.5h179.8c9.3-0.2,16.6-7.9,16.3-17.2c-0.2-8.9-7.4-16.1-16.3-16.3h-6.4
	c0-0.4,0-0.8,0-1.2c0-15.8-12.8-28.6-28.6-28.5c-10.4,0-19.9,5.6-25,14.7c-3.6-1.7-7.7-2-11.5-0.8c-4.4-12-17.6-18.2-29.6-13.8
	c-1.2,0.4-2.4,1-3.6,1.7C87.1,147.6,70.7,133.6,51.2,133.5L51.2,133.5z"/>
<path d="M558.5,190.1c-7.7-4.3-12.6-13.1-7.7-23.4l69.5-135.7c6.6-12.8,24-13.4,30,0l68.2,135.7c9.8,18.9-19.4,33.8-28.1,14.9
	l-10.6-21.2h-89.3L580,181.6C576.2,190.1,567.3,191.8,558.5,190.1z M662.5,128.6l-27.4-59.8l-29.8,59.8H662.5z"/>
<path d="M759.8,37.2c0-19.8,32-20.4,32,0v138.1c0,20.1-32,20.6-32,0V37.2z"/>
<path d="M877.3,174.4c0,21.1-32.1,21.8-32.1,0.5V37.5c-0.2-8,6.3-14.6,14.4-14.8h0.2H924c61.5,0,74.1,82.2,22.7,102.8l32.1,39.2
	c12.6,18.6-12.6,36.6-27,18.1l-36.4-52.2h-38L877.3,174.4z M877.3,102.8h46.6c31.5,0,33.3-50.7,0-50.7h-46.6V102.8z"/>
</svg>
