<svg id="Layer_1" data-name="Layer 1" 
  xmlns="http://www.w3.org/2000/svg" 
  xmlns:xlink="http://www.w3.org/1999/xlink" viewBox="0 0 1268.91 352.36">
  <defs>
    <linearGradient id="linear-gradient" x1="445.76" y1="109.25" x2="296.03" y2="457.14" gradientUnits="userSpaceOnUse">
      <stop offset="0.06" stop-color="#fff"/>
      <stop offset="0.33" stop-color="#e7e7e7"/>
    </linearGradient>
    <linearGradient id="linear-gradient-2" x1="349.45" y1="276.66" x2="117.19" y2="498.36" gradientUnits="userSpaceOnUse">
      <stop offset="0" stop-color="#fff"/>
      <stop offset="0.88" stop-color="#e7e7e7"/>
    </linearGradient>
    <linearGradient id="linear-gradient-3" x1="1392.97" y1="266.61" x2="1239.49" y2="413.1" gradientTransform="matrix(-1, 0, 0, 1, 1559.17, 0)" xlink:href="#linear-gradient-2"/>
  </defs>
  <title>CWDairbutton</title>
  <path id="background" d="M216,373.5A34.59,34.59,0,0,1,181.5,339V216c0-19.37,16.05-34.54,36.54-34.54H1336c17.33,0,32.54,16.14,32.54,34.54V339A34.59,34.59,0,0,1,1334,373.5Z" transform="translate(-101.09 -99.34)" fill="#fff"/>
  <path d="M228.55,237.84h19.37a48.09,48.09,0,0,1,61.35-42.68A77.27,77.27,0,0,1,461.4,182.69,43,43,0,0,1,514.72,238,48.28,48.28,0,0,1,559,286.13h0a48.29,48.29,0,0,1-48.29,48.29H228.55a48.29,48.29,0,0,1-48.29-48.29h0A48.29,48.29,0,0,1,228.55,237.84Z" transform="translate(-101.09 -99.34)" stroke="#000" stroke-miterlimit="10" fill="url(#linear-gradient)"/>
  <path d="M150.76,362.16a24.81,24.81,0,1,1,0-49.62H161l0-.52c0-.59,0-1.18,0-1.77a42.64,42.64,0,0,1,79.93-20.66l.22.41.42-.19a24.2,24.2,0,0,1,10.19-2.23,24.45,24.45,0,0,1,6.9,1l.45.13.16-.44A34.45,34.45,0,0,1,308.65,270l.57.33.16-.64c7.3-29.07,32.38-49.37,61-49.37,34.78,0,63.07,29.78,63.07,66.4a69,69,0,0,1-5,26l-.22.53.55.14a24.81,24.81,0,0,1-6.36,48.8Z" transform="translate(-101.09 -99.34)" fill="url(#linear-gradient-2)"/>
  <path d="M370.36,220.83c34.5,0,62.57,29.56,62.57,65.9a68.4,68.4,0,0,1-5,25.77l-.42,1.06,1.09.29a24.31,24.31,0,0,1-6.23,47.81H150.76a24.31,24.31,0,1,1,0-48.62h10.71l0-1c0-.53,0-1.14,0-1.75a42.13,42.13,0,0,1,79-20.41l.45.81.84-.39a23.88,23.88,0,0,1,16.74-1.2l.91.26.31-.88a33.93,33.93,0,0,1,48.77-18l1.14.65.32-1.28c7.25-28.85,32.13-49,60.5-49m0-1c-29.48,0-54.27,21.11-61.47,49.75a34.93,34.93,0,0,0-50.2,18.52,24.9,24.9,0,0,0-17.44,1.25,43.13,43.13,0,0,0-80.86,20.9c0,.6,0,1.19,0,1.79h-9.67a25.31,25.31,0,1,0,0,50.62H422.4a25.31,25.31,0,0,0,6.49-49.78,69.63,69.63,0,0,0,5-26.15c0-37-28.46-66.9-63.57-66.9Z" transform="translate(-101.09 -99.34)"/>
  <rect x="207.83" y="99.84" width="58.65" height="58.65" transform="translate(373.22 158.99) rotate(180)" fill="#8cc63f" stroke="#000" stroke-miterlimit="10"/>
  <rect x="207.65" y="158.68" width="58.65" height="58.65" transform="translate(372.85 276.66) rotate(180)" fill="#fcee21" stroke="#000" stroke-miterlimit="10"/>
  <rect x="207.65" y="217.69" width="58.65" height="58.65" transform="translate(372.85 394.69) rotate(180)" fill="#ea5e2f" stroke="#000" stroke-miterlimit="10"/>
  <rect x="207.65" y="275.25" width="58.65" height="58.65" transform="translate(372.85 509.81) rotate(180)" fill="#ea3a00" stroke="#000" stroke-miterlimit="10"/>
  <rect x="207.65" y="333.9" width="58.65" height="58.65" transform="translate(372.85 627.12) rotate(180)" fill="#9e005d" stroke="#000" stroke-miterlimit="10"/>
  <rect x="207.65" y="392.56" width="58.65" height="58.65" transform="translate(372.85 744.42) rotate(180)" fill="#510833" stroke="#000" stroke-miterlimit="10"/>
  <path d="M117.85,323a16.26,16.26,0,0,1-4.17-32l.55-.14-.21-.53a45.48,45.48,0,0,1-3.3-17.12c0-24.15,18.65-43.79,41.58-43.79,18.85,0,35.39,13.39,40.2,32.56l.16.64.58-.33a22.62,22.62,0,0,1,32.51,12l.16.45.45-.14a16.09,16.09,0,0,1,4.52-.65,15.86,15.86,0,0,1,6.68,1.46l.42.19.22-.4a28.06,28.06,0,0,1,52.6,13.59c0,.39,0,.78,0,1.16l0,.52h6.92a16.26,16.26,0,0,1,0,32.51Z" transform="translate(-101.09 -99.34)" fill="url(#linear-gradient-3)"/>
  <path d="M152.3,229.93c18.63,0,35,13.23,39.72,32.18l.32,1.28,1.15-.65a22.11,22.11,0,0,1,31.79,11.72l.32.89.9-.26a15.45,15.45,0,0,1,10.85.77l.84.39.45-.81a27.56,27.56,0,0,1,51.66,13.35c0,.38,0,.76,0,1.14l0,1h7.45a15.76,15.76,0,0,1,0,31.51H117.85a15.75,15.75,0,0,1-4-31l1.1-.29-.43-1a45,45,0,0,1-3.26-16.94c0-23.87,18.43-43.29,41.08-43.29m0-1c-23.24,0-42.08,19.83-42.08,44.29a46.31,46.31,0,0,0,3.33,17.31,16.75,16.75,0,0,0,4.3,33H297.67a16.76,16.76,0,0,0,0-33.51h-6.4c0-.39,0-.78,0-1.18A28.56,28.56,0,0,0,237.76,275a16.38,16.38,0,0,0-11.54-.83A23.11,23.11,0,0,0,193,261.87c-4.77-19-21.17-32.94-40.69-32.94Z" transform="translate(-101.09 -99.34)"/>
  <path d="M784.55,304.64c-2.65-1.49-4.31-4.48-2.65-8l23.81-46.56c2.25-4.4,8.22-4.57,10.3,0l23.4,46.56c3.4,6.47-6.64,11.62-9.63,5.14l-3.65-7.3H795.51l-3.57,7.3C790.61,304.64,787.54,305.23,784.55,304.64Zm35.69-21.08-9.38-20.5-10.21,20.5Z" transform="translate(-101.09 -99.34)"/>
  <path d="M853.61,252.19c0-6.8,10.95-7.05,10.95,0v47.39c0,6.89-10.95,7.06-10.95,0Z" transform="translate(-101.09 -99.34)"/>
  <path d="M893.94,299.25c0,7.22-11,7.47-11,.17V252.28a5,5,0,0,1,5-5.07H910c21.08,0,25.4,28.22,7.8,35.27l11,13.45c4.32,6.39-4.32,12.53-9.3,6.22L907,284.23h-13Zm0-24.57h16c10.79,0,11.45-17.42,0-17.42h-16Z" transform="translate(-101.09 -99.34)"/>
</svg>