<?xml version="1.0" encoding="utf-8"?>
<!-- Generator: Adobe Illustrator 23.0.4, SVG Export Plug-In . SVG Version: 6.00 Build 0)  -->
<svg version="1.1" id="Layer_1" xmlns="http://www.w3.org/2000/svg" xmlns:xlink="http://www.w3.org/1999/xlink" x="0px" y="0px"
	 viewBox="0 0 1103 1080" style="enable-background:new 0 0 1103 1080;" xml:space="preserve">
<style type="text/css">
	.st0{fill:#5AB850;}
	.st1{fill:#7FC977;}
	.st2{fill:#8BCE84;}
	.st3{fill:#8ACD83;}
	.st4{fill:#AFDDAA;}
	.st5{fill:#5BB951;}
</style>
<g id="mVPYMe.tif">
	<g>
		<path class="st0" d="M617.8,376.1c0-1.8-0.5-3.1-1.9-4.2c-9.9-8.8-19.8-17.7-29.8-26.5c-13-11.5-26.1-23-39.1-34.6
			c-11-9.7-21.9-19.4-32.8-29.2c-1.2-1-2.1-0.9-3.1,0c-3.7,3.4-7.5,6.6-11.1,10.1c-3.5,3.3-7.1,6.4-10.6,9.5
			c-6.1,5.5-12.4,10.8-18.4,16.4c-0.1,0.1-0.2,0.2-0.4,0.4c-0.7,0.7-1.5,1.4-2.2,2.1c-19.3,17.1-38.5,34.2-57.8,51.3
			c-1.6,1.4-2.2,2.7-2.2,4.8c0.1,23.6,0.1,47.2,0,70.9c0,2.3,0.5,3,2.9,3c5.3,0,10.7,0,16,0c-1.2,0.4-2.2,1-3.2,1.9
			c-2.3,2.1-4.5,4.3-6.5,6.6c-0.7,0.8-1.6,1.5-1,2.7c0.1,0.2,0.2,0.4,0.4,0.5c-21.7,0-43.3,0-65-0.1c-2.7,0-3.2,0.8-3.2,3.3
			c0.1,43,0.1,86.1,0.1,129.2c0,1-0.1,1.9-0.1,2.9c0,0.1,0,0.3,0,0.4c0,1,0.1,2,0.1,3.1c0,11.3,0,22.7,0,34c0,1.5,0.3,2.5,1.8,3.5
			c9.5,5.8,18.8,11.8,28.2,17.6c14.3,8.9,28.6,17.7,43,26.6c11.1,6.9,22.3,13.7,33.4,20.6c2.2,1.4,4.8,2.4,5.4,5.3
			c0,10.2-0.1,20.3,0,30.5c0,0.8-0.6,2,1,2.1c6.5-6.6,13-13.2,19.6-19.7c1.8-1.8,2.5-3.5,2.5-6c-0.1-83.2,0-166.3,0-249.5
			c0-1.2,0-2.4,0.1-3.6c-1.1-0.9-2.5-0.6-3.7-0.6c-19.7,0-39.3,0-59,0c-0.7,0-1.4,0-2.1,0c-0.5,0-1.1,0.1-1.4-0.4
			c-0.2-0.6,0.3-0.9,0.7-1.3c2.1-2.1,4.4-4.2,6.3-6.4c1.8-2,3.8-2.8,6.5-2.7c19.8,0.1,39.7,0,59.5,0c3.4,1.4,4.6,3.2,4.6,7.3
			c0,81.9,0,163.8,0,245.7c0,1-0.2,2,0.5,3.4c0.8-1,1.4-1.7,2-2.4c16.1-16.1,32.2-32.2,48.3-48.3c4-4,6.6-4,10.6,0
			c15.3,15.3,30.6,30.6,46,45.9c0.7,0.7,1.3,2.1,2.3,1.6c0.9-0.4,0.4-1.9,0.4-2.9c0-10,0-19.9,0-29.9c0-4-0.1-7.9,0-11.9
			c0.1-3.8,2.1-5.8,5.9-5.9c1.1,0,2.2-0.1,3.4,0c2.5,0.4,3.1-0.7,3.1-3.2C617.7,558.6,617.7,467.3,617.8,376.1z M724,222.6
			c0-0.9,0-1.7,0.1-2.6c-0.2-0.1-0.3-0.2-0.5-0.3c0,0,0,0,0,0c-0.9-0.4-1.8-0.3-2.7-0.3c-29.5,0-58.9,0-88.4,0
			c-1.1,0-2.2-0.1-3.3,0.5c0,1.2,0,2.4,0,3.6v425.3c0,0.8,0.1,1.6,0,2.3c-0.2,1.5,0.5,1.9,1.9,1.9c2.4-0.1,4.8,0,7.2,0
			c4.4,0,5.8,1,7.4,5c0,28.3,0,56.6,0,84.9c0,0.6,0.1,1.2,0.2,1.8c0,0,0,0,0,0c0,0.2,0.1,0.5,0.1,0.7c8.6,8.7,17.1,17.4,25.8,25.9
			c2.3,2.2,3.2,4.7,3.1,7.7c0,4.9,0.1,9.8,0,14.7c0,1.8,0.5,2.3,2.3,2.3c6.1-0.1,12.2,0,18.3,0c0-0.1,0.1-0.1,0.1-0.2
			c0.5-0.9,0.5-1.8,0.5-2.8c0-42.8,0-85.5,0-128.3c0-3.1,1-4.5,4-5.4c6.9,0,13.9,0,20.8,0c0.7,0,1.5,0,2.2-0.2
			c0.3,0,0.5-0.2,0.8-0.4c0-0.8,0-1.7,0-2.6V222.6z M724,222.6c0-0.9,0-1.7,0.1-2.6c-0.2-0.1-0.3-0.2-0.5-0.3c0,0,0,0,0,0
			c-0.9-0.4-1.8-0.3-2.7-0.3c-29.5,0-58.9,0-88.4,0c-1.1,0-2.2-0.1-3.3,0.5c0,1.2,0,2.4,0,3.6v425.3c0,0.8,0.1,1.6,0,2.3
			c-0.2,1.5,0.5,1.9,1.9,1.9c2.4-0.1,4.8,0,7.2,0c4.4,0,5.8,1,7.4,5c0,28.3,0,56.6,0,84.9c0,0.6,0.1,1.2,0.2,1.8c0,0,0,0,0,0
			c0,0.2,0.1,0.5,0.1,0.7c8.6,8.7,17.1,17.4,25.8,25.9c2.3,2.2,3.2,4.7,3.1,7.7c0,4.9,0.1,9.8,0,14.7c0,1.8,0.5,2.3,2.3,2.3
			c6.1-0.1,12.2,0,18.3,0c0-0.1,0.1-0.1,0.1-0.2c0.5-0.9,0.5-1.8,0.5-2.8c0-42.8,0-85.5,0-128.3c0-3.1,1-4.5,4-5.4
			c6.9,0,13.9,0,20.8,0c0.7,0,1.5,0,2.2-0.2c0.3,0,0.5-0.2,0.8-0.4c0-0.8,0-1.7,0-2.6V222.6z M617.8,376.1c0-1.8-0.5-3.1-1.9-4.2
			c-9.9-8.8-19.8-17.7-29.8-26.5c-13-11.5-26.1-23-39.1-34.6c-11-9.7-21.9-19.4-32.8-29.2c-1.2-1-2.1-0.9-3.1,0
			c-3.7,3.4-7.5,6.6-11.1,10.1c-3.5,3.3-7.1,6.4-10.6,9.5c-6.1,5.5-12.4,10.8-18.4,16.4c-0.1,0.1-0.2,0.2-0.4,0.4
			c-0.7,0.7-1.5,1.4-2.2,2.1c-19.3,17.1-38.5,34.2-57.8,51.3c-1.6,1.4-2.2,2.7-2.2,4.8c0.1,23.6,0.1,47.2,0,70.9c0,2.3,0.5,3,2.9,3
			c5.3,0,10.7,0,16,0c-1.2,0.4-2.2,1-3.2,1.9c-2.3,2.1-4.5,4.3-6.5,6.6c-0.7,0.8-1.6,1.5-1,2.7c0.1,0.2,0.2,0.4,0.4,0.5
			c-21.7,0-43.3,0-65-0.1c-2.7,0-3.2,0.8-3.2,3.3c0.1,43,0.1,86.1,0.1,129.2c0,1-0.1,1.9-0.1,2.9c0,0.1,0,0.3,0,0.4
			c0,1,0.1,2,0.1,3.1c0,11.3,0,22.7,0,34c0,1.5,0.3,2.5,1.8,3.5c9.5,5.8,18.8,11.8,28.2,17.6c14.3,8.9,28.6,17.7,43,26.6
			c11.1,6.9,22.3,13.7,33.4,20.6c2.2,1.4,4.8,2.4,5.4,5.3c0,10.2-0.1,20.3,0,30.5c0,0.8-0.6,2,1,2.1c6.5-6.6,13-13.2,19.6-19.7
			c1.8-1.8,2.5-3.5,2.5-6c-0.1-83.2,0-166.3,0-249.5c0-1.2,0-2.4,0.1-3.6c-1.1-0.9-2.5-0.6-3.7-0.6c-19.7,0-39.3,0-59,0
			c-0.7,0-1.4,0-2.1,0c-0.5,0-1.1,0.1-1.4-0.4c-0.2-0.6,0.3-0.9,0.7-1.3c2.1-2.1,4.4-4.2,6.3-6.4c1.8-2,3.8-2.8,6.5-2.7
			c19.8,0.1,39.7,0,59.5,0c3.4,1.4,4.6,3.2,4.6,7.3c0,81.9,0,163.8,0,245.7c0,1-0.2,2,0.5,3.4c0.8-1,1.4-1.7,2-2.4
			c16.1-16.1,32.2-32.2,48.3-48.3c4-4,6.6-4,10.6,0c15.3,15.3,30.6,30.6,46,45.9c0.7,0.7,1.3,2.1,2.3,1.6c0.9-0.4,0.4-1.9,0.4-2.9
			c0-10,0-19.9,0-29.9c0-4-0.1-7.9,0-11.9c0.1-3.8,2.1-5.8,5.9-5.9c1.1,0,2.2-0.1,3.4,0c2.5,0.4,3.1-0.7,3.1-3.2
			C617.7,558.6,617.7,467.3,617.8,376.1z M617.8,376.1c0-1.8-0.5-3.1-1.9-4.2c-9.9-8.8-19.8-17.7-29.8-26.5
			c-13-11.5-26.1-23-39.1-34.6c-11-9.7-21.9-19.4-32.8-29.2c-1.2-1-2.1-0.9-3.1,0c-3.7,3.4-7.5,6.6-11.1,10.1
			c-3.5,3.3-7.1,6.4-10.6,9.5c-6.1,5.5-12.4,10.8-18.4,16.4c-0.1,0.1-0.2,0.2-0.4,0.4c-0.7,0.7-1.5,1.4-2.2,2.1
			c-19.3,17.1-38.5,34.2-57.8,51.3c-1.6,1.4-2.2,2.7-2.2,4.8c0.1,23.6,0.1,47.2,0,70.9c0,2.3,0.5,3,2.9,3c5.3,0,10.7,0,16,0
			c-1.2,0.4-2.2,1-3.2,1.9c-2.3,2.1-4.5,4.3-6.5,6.6c-0.7,0.8-1.6,1.5-1,2.7c0.1,0.2,0.2,0.4,0.4,0.5c-21.7,0-43.3,0-65-0.1
			c-2.7,0-3.2,0.8-3.2,3.3c0.1,43,0.1,86.1,0.1,129.2c0,1-0.1,1.9-0.1,2.9c0,0.1,0,0.3,0,0.4c0,1,0.1,2,0.1,3.1c0,11.3,0,22.7,0,34
			c0,1.5,0.3,2.5,1.8,3.5c9.5,5.8,18.8,11.8,28.2,17.6c14.3,8.9,28.6,17.7,43,26.6c11.1,6.9,22.3,13.7,33.4,20.6
			c2.2,1.4,4.8,2.4,5.4,5.3c0,10.2-0.1,20.3,0,30.5c0,0.8-0.6,2,1,2.1c6.5-6.6,13-13.2,19.6-19.7c1.8-1.8,2.5-3.5,2.5-6
			c-0.1-83.2,0-166.3,0-249.5c0-1.2,0-2.4,0.1-3.6c-1.1-0.9-2.5-0.6-3.7-0.6c-19.7,0-39.3,0-59,0c-0.7,0-1.4,0-2.1,0
			c-0.5,0-1.1,0.1-1.4-0.4c-0.2-0.6,0.3-0.9,0.7-1.3c2.1-2.1,4.4-4.2,6.3-6.4c1.8-2,3.8-2.8,6.5-2.7c19.8,0.1,39.7,0,59.5,0
			c3.4,1.4,4.6,3.2,4.6,7.3c0,81.9,0,163.8,0,245.7c0,1-0.2,2,0.5,3.4c0.8-1,1.4-1.7,2-2.4c16.1-16.1,32.2-32.2,48.3-48.3
			c4-4,6.6-4,10.6,0c15.3,15.3,30.6,30.6,46,45.9c0.7,0.7,1.3,2.1,2.3,1.6c0.9-0.4,0.4-1.9,0.4-2.9c0-10,0-19.9,0-29.9
			c0-4-0.1-7.9,0-11.9c0.1-3.8,2.1-5.8,5.9-5.9c1.1,0,2.2-0.1,3.4,0c2.5,0.4,3.1-0.7,3.1-3.2C617.7,558.6,617.7,467.3,617.8,376.1z
			 M724,222.6c0-0.9,0-1.7,0.1-2.6c-0.2-0.1-0.3-0.2-0.5-0.3c0,0,0,0,0,0c-0.9-0.4-1.8-0.3-2.7-0.3c-29.5,0-58.9,0-88.4,0
			c-1.1,0-2.2-0.1-3.3,0.5c0,1.2,0,2.4,0,3.6v425.3c0,0.8,0.1,1.6,0,2.3c-0.2,1.5,0.5,1.9,1.9,1.9c2.4-0.1,4.8,0,7.2,0
			c4.4,0,5.8,1,7.4,5c0,28.3,0,56.6,0,84.9c0,0.6,0.1,1.2,0.2,1.8c0,0,0,0,0,0c0,0.2,0.1,0.5,0.1,0.7c8.6,8.7,17.1,17.4,25.8,25.9
			c2.3,2.2,3.2,4.7,3.1,7.7c0,4.9,0.1,9.8,0,14.7c0,1.8,0.5,2.3,2.3,2.3c6.1-0.1,12.2,0,18.3,0c0-0.1,0.1-0.1,0.1-0.2
			c0.5-0.9,0.5-1.8,0.5-2.8c0-42.8,0-85.5,0-128.3c0-3.1,1-4.5,4-5.4c6.9,0,13.9,0,20.8,0c0.7,0,1.5,0,2.2-0.2
			c0.3,0,0.5-0.2,0.8-0.4c0-0.8,0-1.7,0-2.6V222.6z M724,222.6c0-0.9,0-1.7,0.1-2.6c-0.2-0.1-0.3-0.2-0.5-0.3c0,0,0,0,0,0
			c-0.9-0.4-1.8-0.3-2.7-0.3c-29.5,0-58.9,0-88.4,0c-1.1,0-2.2-0.1-3.3,0.5c0,1.2,0,2.4,0,3.6v425.3c0,0.8,0.1,1.6,0,2.3
			c-0.2,1.5,0.5,1.9,1.9,1.9c2.4-0.1,4.8,0,7.2,0c4.4,0,5.8,1,7.4,5c0,28.3,0,56.6,0,84.9c0,0.6,0.1,1.2,0.2,1.8c0,0,0,0,0,0
			c0,0.2,0.1,0.5,0.1,0.7c8.6,8.7,17.1,17.4,25.8,25.9c2.3,2.2,3.2,4.7,3.1,7.7c0,4.9,0.1,9.8,0,14.7c0,1.8,0.5,2.3,2.3,2.3
			c6.1-0.1,12.2,0,18.3,0c0-0.1,0.1-0.1,0.1-0.2c0.5-0.9,0.5-1.8,0.5-2.8c0-42.8,0-85.5,0-128.3c0-3.1,1-4.5,4-5.4
			c6.9,0,13.9,0,20.8,0c0.7,0,1.5,0,2.2-0.2c0.3,0,0.5-0.2,0.8-0.4c0-0.8,0-1.7,0-2.6V222.6z M617.8,376.1c0-1.8-0.5-3.1-1.9-4.2
			c-9.9-8.8-19.8-17.7-29.8-26.5c-13-11.5-26.1-23-39.1-34.6c-11-9.7-21.9-19.4-32.8-29.2c-1.2-1-2.1-0.9-3.1,0
			c-3.7,3.4-7.5,6.6-11.1,10.1c-3.5,3.3-7.1,6.4-10.6,9.5c-6.1,5.5-12.4,10.8-18.4,16.4c-0.1,0.1-0.2,0.2-0.4,0.4
			c-0.7,0.7-1.5,1.4-2.2,2.1c-19.3,17.1-38.5,34.2-57.8,51.3c-1.6,1.4-2.2,2.7-2.2,4.8c0.1,23.6,0.1,47.2,0,70.9c0,2.3,0.5,3,2.9,3
			c5.3,0,10.7,0,16,0c-1.2,0.4-2.2,1-3.2,1.9c-2.3,2.1-4.5,4.3-6.5,6.6c-0.7,0.8-1.6,1.5-1,2.7c0.1,0.2,0.2,0.4,0.4,0.5
			c-21.7,0-43.3,0-65-0.1c-2.7,0-3.2,0.8-3.2,3.3c0.1,43,0.1,86.1,0.1,129.2c0,1-0.1,1.9-0.1,2.9c0,0.1,0,0.3,0,0.4
			c0,1,0.1,2,0.1,3.1c0,11.3,0,22.7,0,34c0,1.5,0.3,2.5,1.8,3.5c9.5,5.8,18.8,11.8,28.2,17.6c14.3,8.9,28.6,17.7,43,26.6
			c11.1,6.9,22.3,13.7,33.4,20.6c2.2,1.4,4.8,2.4,5.4,5.3c0,10.2-0.1,20.3,0,30.5c0,0.8-0.6,2,1,2.1c6.5-6.6,13-13.2,19.6-19.7
			c1.8-1.8,2.5-3.5,2.5-6c-0.1-83.2,0-166.3,0-249.5c0-1.2,0-2.4,0.1-3.6c-1.1-0.9-2.5-0.6-3.7-0.6c-19.7,0-39.3,0-59,0
			c-0.7,0-1.4,0-2.1,0c-0.5,0-1.1,0.1-1.4-0.4c-0.2-0.6,0.3-0.9,0.7-1.3c2.1-2.1,4.4-4.2,6.3-6.4c1.8-2,3.8-2.8,6.5-2.7
			c19.8,0.1,39.7,0,59.5,0c3.4,1.4,4.6,3.2,4.6,7.3c0,81.9,0,163.8,0,245.7c0,1-0.2,2,0.5,3.4c0.8-1,1.4-1.7,2-2.4
			c16.1-16.1,32.2-32.2,48.3-48.3c4-4,6.6-4,10.6,0c15.3,15.3,30.6,30.6,46,45.9c0.7,0.7,1.3,2.1,2.3,1.6c0.9-0.4,0.4-1.9,0.4-2.9
			c0-10,0-19.9,0-29.9c0-4-0.1-7.9,0-11.9c0.1-3.8,2.1-5.8,5.9-5.9c1.1,0,2.2-0.1,3.4,0c2.5,0.4,3.1-0.7,3.1-3.2
			C617.7,558.6,617.7,467.3,617.8,376.1z M1020.6,526.2c-0.6-2.1-0.1-4.2-0.3-6.2c0,0,0,0,0,0v-7c0-0.1,0-0.1,0-0.2
			c0.1-4.4-0.2-8.8-0.3-13.2c-0.1-4.5-0.3-9-0.6-13.5c-1-13.1-3-26.1-5.4-39c-7.9-42.3-21.4-82.8-40.4-121.4
			c-6.6-13.5-14-26.6-21.9-39.4c-18.4-29.7-40-56.9-64.3-82c-6.4-6.6-13.2-12.8-20-19c-15-13.8-31-26.4-47.7-38.1
			c-28.8-20.1-59.5-36.7-92.1-49.8c-24.8-10-50.2-17.8-76.3-23.5c-17.7-3.9-35.6-6.7-53.7-8.3c-10.8-1-21.6-1-32.4-1.1
			c-14.3-0.2-28.6,0.1-43,0.4c-13.9,0.3-27.6,1.7-41.2,3.7c-27.2,4-53.8,10.5-79.8,19.3c-23.5,7.9-46.2,17.7-68.1,29.2
			c-23.3,12.3-45.4,26.4-66.4,42.4c-11.6,8.8-22.7,18.1-33.4,28c-8,7.4-15.8,15-23.3,23c-10.7,11.4-21,23.2-30.5,35.6
			c-22.5,29.1-41.4,60.3-56.5,93.8c-11.2,24.9-20.2,50.5-27.1,77c-6,23.2-10.1,46.7-12.4,70.5c-1.1,11.1-1,22.4-1.1,33.6
			c-0.1,13.9,0.1,27.8,0.4,41.6c0.3,12,1.2,23.9,2.8,35.7c3.1,23,8,45.7,14.6,68c7.5,25.7,17.2,50.6,29,74.6
			c6.8,13.8,14.3,27.2,22.4,40.3c17.9,28.9,38.8,55.4,62.3,80c7,7.3,14.5,14.2,21.9,21c15,13.8,31,26.4,47.7,38
			c28.8,20,59.5,36.7,92.1,49.8c24.8,10,50.2,17.8,76.3,23.5c26,5.6,52.2,9.2,78.9,9h2.7c1.5,0.1,3.1-0.3,4.6,0.3h27.3
			c1.5-0.5,3.1-0.1,4.6-0.3h2.6c3.1,0,6.2-0.1,9.4-0.2c11.9-0.2,23.8-1.1,35.6-2.8c25.5-3.6,50.5-9.2,75.1-16.9
			c26.7-8.4,52.5-19,77.2-32.1c12.2-6.5,24.3-13.3,35.9-20.8c31.7-20.6,60.8-44.4,86.9-72c10.9-11.5,21.2-23.4,30.9-35.9
			c26.7-34.3,48.2-71.7,64.5-112c9.8-24.4,17.5-49.4,23.2-75c5.8-26.4,9.5-53.1,9.3-80.2v-7.2c0.2-2.1-0.3-4.1,0.3-6.2V526.2z
			 M990.1,556.1c-0.7,1.6-0.4,3.2-0.4,4.8c0,1.1-0.1,2.3-0.1,3.4c-0.6,1.2-0.4,2.6-0.4,3.9c0,1-0.1,1.9-0.1,2.8
			c-0.5,1.1-0.4,2.2-0.4,3.3c0,0.8-0.1,1.6-0.1,2.4c-0.5,0.9-0.4,1.9-0.4,2.8c-0.6,5-1.1,10.1-2,15.2c-0.7,4.5-1.4,9.1-2.1,13.6
			c-0.9,5.6-1.8,11.2-3.1,16.7c-1.6,6.9-3.3,13.9-5,20.8c-2,8.2-4.5,16.2-7.1,24.2c-10.4,0-20.7,0-31.1,0c-2.6-0.1-3.8-1.6-4.4-3.9
			c0-40,0-80,0.1-120c0-1-0.2-1.6-0.5-2.1c0,0,0,0,0,0c-0.1-0.1-0.2-0.2-0.3-0.3c0,0,0,0,0,0c-0.5-0.4-1.2-0.5-2.2-0.5
			c-10,0.1-20.1,0-30.1,0c-0.6,0-1.2,0-1.8,0.2c0,0,0,0,0,0c-0.4,0-0.8,0.1-1.1,0.6c0,0.8,0.1,1.5,0.1,2.3c0,38.9,0,77.8,0,116.6
			c0,4-1.3,6-4.7,7.2c-20.4,0-40.8,0-61.3,0c-2.7-0.3-4.6-2.1-4.9-4.7c0-0.4,0-0.9,0-1.3c0-40.1,0-80.3,0-120.4
			c-0.1-0.1-0.2-0.1-0.3-0.2c0,0,0,0-0.1,0c-0.8-0.4-1.7-0.4-2.6-0.4h-29.6c-0.8,0-1.6,0-2.3,0.3c0,0,0,0,0,0
			c-0.2,0-0.5,0.1-0.7,0.4c0,12.7,0,25.4,0.1,38.2c0,27,0,54,0,80.9c0,4.1-1.2,5.9-4.6,7.2c-25.4,0-50.8,0-76.2,0
			c-0.9,0-1.9,0-2.8,0.5c0,40.7,0,81.4-0.1,122.1c0,2.7,0.8,3.2,3.3,3.2c17.2-0.1,34.4-0.1,51.5,0c2.1,0,2.6-0.6,2.5-2.6
			c-0.1-6.4,0-12.9,0-19.3c0-3.5,1.5-5.2,5-6c49.5,0,99,0,148.5,0c3.7,0.4,4.1,1.2,2.1,4.1c-2.6,4-5.3,8-8.6,11.9v-4.6
			c-1.2-0.7-2.5-0.5-3.8-0.5c-13.2,0-26.5,0-39.7,0h-88.2c-3.9,0-4,0-4,4.1c0,6.4,0,12.9,0.1,19.3c-1.6,4.2-2.9,5-7.4,5
			c-30.2,0-60.5,0-90.8-0.1c-2.5,0-3.1,0.7-3.1,3.1c0.1,47.4,0,94.7,0.1,142.1c0,2-0.3,3.1-2.6,3.4c-2.5,0.4-4.9,1.3-7.4,2.1
			c-1.2,0.4-1.8,0.1-1.6-1.2c0.1-0.8,0-1.5,0-2.3c0-57.4,0-114.8,0-172.2c0-2.4-0.7-4-2.4-5.6c-8.2-8.1-16.3-16.2-24.5-24.4
			c-0.9-0.9-2-1.7-2-3.2c0-27.2,0-54.4,0-81.6c0-0.8,0-1.6-0.3-2.3c0-0.1-0.1-0.2-0.2-0.4c-0.1-0.1-0.1-0.2-0.2-0.3
			c-4.6,0-9.3,0-13.9,0c-4,0-3.5-0.5-3.5,3.4c0,16.1,0,32.1,0,48.2c0,2.5,0.1,5.1-2.5,6.7c-2.9,1.7-5.4,1.5-7.8-0.9
			c-7.2-7.2-14.3-14.3-21.5-21.5c-10.6-10.6-21.3-21.2-31.9-31.9c-1.5-1.5-2.2-1.3-3.6,0c-36,36.1-72,72.1-108.1,108.1
			c-1.3,1.3-1.9,2.6-1.8,4.5c0,57.8,0,115.7,0,173.5c0,3.7-0.1,3.8-3.8,2.8c-2.5-0.7-6-0.6-7.3-2.5c-1.2-1.8-0.4-5-0.4-7.5
			c0-56.5,0-112.9,0-169.4c0-2.8,0.8-4.9,2.8-6.8c6.2-6,12.2-12.1,18.3-18.1c0.2-0.2,0.3-0.4,0.3-0.6c0,0,0,0,0,0
			c0.3-0.8,0.3-1.7,0.3-2.6v-34.2c0-0.9,0.1-1.9-0.3-2.7c0-0.2-0.1-0.4-0.3-0.5c-24.4-15.1-48.8-30.3-73.3-45.4
			c-18.7-11.6-37.4-23.2-56.1-34.8c-1.2-0.8-2.5-1.5-2.7-3.2c-0.9-1.3-0.6-2.8-0.6-4.2c0-25.1,0-50.2,0-75.3c0-1.9-0.4-3.5-1.5-5
			c-6.9-9.7-13.8-19.5-20.7-29.3c-0.5-0.7-1-1.3-1.5-2c-1,0.4-1.3,1.3-1.8,2c-7,9.8-13.8,19.7-20.8,29.5c-1.1,1.5-1.5,3-1.5,4.8
			c0,25.3,0,50.5,0.1,75.8c0,3.5-1.3,5.7-4.3,7.5c-38.5,23.4-76.8,46.8-115.2,70.3c-1.9,1.2-2.6,1.2-3.6-1.1
			c-13.9-33.6-23.5-68.5-28.7-104.5c-4.7-32.2-6-64.5-3.4-96.9c7.8-97.1,43.4-182.7,107.5-255.9c60.6-69.3,136-115,225.4-137.4
			C487.4,97,528.9,93.1,571,95c14.1,0.6,28.1,1.9,42.1,3.8c0.4,0.1,0.8,0.2,1.2,0.4c10.4,1.6,20.7,3.4,30.9,5.6
			c13.8,3,27.5,6.7,40.9,11c12.6,4,25.1,8.7,37.3,14c9.9,4.3,19.7,8.7,29.3,13.7c19.8,10.3,38.8,21.9,56.8,35.1
			c10.5,7.7,20.7,15.9,30.6,24.4c8.7,7.5,16.9,15.4,25,23.5c9.1,9.2,17.7,18.9,25.9,28.9c10.8,13,20.6,26.5,29.7,40.7
			c6.3,9.8,12.3,19.8,17.8,30.1c6.5,12.1,12.5,24.5,17.8,37.2c5.4,12.8,10.1,26,14.3,39.2c3.5,11,6.4,22.1,8.9,33.3
			c1.6,7.2,3.2,14.3,4.5,21.5c0.9,4.9,1.8,9.9,2.2,14.9c0.2,2.1,0.7,4.3,1,6.4c0,0.9-0.1,1.9,0.4,2.7c0.2,2.1,0.4,4.3,0.6,6.4
			c0,1-0.1,1.9,0.4,2.8c0,0.8,0.1,1.6,0.1,2.4c0,1.1-0.2,2.2,0.4,3.3c0,1,0.1,1.9,0.1,2.8c0,1.3-0.2,2.6,0.4,3.9
			c0.1,1.3,0.4,2.5,0.1,3.8c0,1.5-0.3,3,0.4,4.4c0,2,0.1,3.9,0.1,5.9c0.1,3.4-0.5,6.8,0.4,10.1v12.9c-0.9,3.3-0.2,6.7-0.4,10.1
			C990.2,552.2,990.1,554.2,990.1,556.1z M724.1,220c-0.2-0.1-0.3-0.2-0.5-0.3c0,0,0,0,0,0c-0.9-0.4-1.8-0.3-2.7-0.3
			c-29.5,0-58.9,0-88.4,0c-1.1,0-2.2-0.1-3.3,0.5c0,1.2,0,2.4,0,3.6v425.3c0,0.8,0.1,1.6,0,2.3c-0.2,1.5,0.5,1.9,1.9,1.9
			c2.4-0.1,4.8,0,7.2,0c4.4,0,5.8,1,7.4,5c0,28.3,0,56.6,0,84.9c0,0.6,0.1,1.2,0.2,1.8c0,0,0,0,0,0c0,0.2,0.1,0.5,0.1,0.7
			c8.6,8.7,17.1,17.4,25.8,25.9c2.3,2.2,3.2,4.7,3.1,7.7c0,4.9,0.1,9.8,0,14.7c0,1.8,0.5,2.3,2.3,2.3c6.1-0.1,12.2,0,18.3,0
			c0-0.1,0.1-0.1,0.1-0.2c0.5-0.9,0.5-1.8,0.5-2.8c0-42.8,0-85.5,0-128.3c0-3.1,1-4.5,4-5.4c6.9,0,13.9,0,20.8,0
			c0.7,0,1.5,0,2.2-0.2c0.3,0,0.5-0.2,0.8-0.4c0-0.8,0-1.7,0-2.6V222.6C724,221.7,724.1,220.9,724.1,220z M617.8,376.1
			c0-1.8-0.5-3.1-1.9-4.2c-9.9-8.8-19.8-17.7-29.8-26.5c-13-11.5-26.1-23-39.1-34.6c-11-9.7-21.9-19.4-32.8-29.2
			c-1.2-1-2.1-0.9-3.1,0c-3.7,3.4-7.5,6.6-11.1,10.1c-3.5,3.3-7.1,6.4-10.6,9.5c-6.1,5.5-12.4,10.8-18.4,16.4
			c-0.1,0.1-0.2,0.2-0.4,0.4c-0.7,0.7-1.5,1.4-2.2,2.1c-19.3,17.1-38.5,34.2-57.8,51.3c-1.6,1.4-2.2,2.7-2.2,4.8
			c0.1,23.6,0.1,47.2,0,70.9c0,2.3,0.5,3,2.9,3c5.3,0,10.7,0,16,0c-1.2,0.4-2.2,1-3.2,1.9c-2.3,2.1-4.5,4.3-6.5,6.6
			c-0.7,0.8-1.6,1.5-1,2.7c0.1,0.2,0.2,0.4,0.4,0.5c-21.7,0-43.3,0-65-0.1c-2.7,0-3.2,0.8-3.2,3.3c0.1,43,0.1,86.1,0.1,129.2
			c0,1-0.1,1.9-0.1,2.9c0,0.1,0,0.3,0,0.4c0,1,0.1,2,0.1,3.1c0,11.3,0,22.7,0,34c0,1.5,0.3,2.5,1.8,3.5c9.5,5.8,18.8,11.8,28.2,17.6
			c14.3,8.9,28.6,17.7,43,26.6c11.1,6.9,22.3,13.7,33.4,20.6c2.2,1.4,4.8,2.4,5.4,5.3c0,10.2-0.1,20.3,0,30.5c0,0.8-0.6,2,1,2.1
			c6.5-6.6,13-13.2,19.6-19.7c1.8-1.8,2.5-3.5,2.5-6c-0.1-83.2,0-166.3,0-249.5c0-1.2,0-2.4,0.1-3.6c-1.1-0.9-2.5-0.6-3.7-0.6
			c-19.7,0-39.3,0-59,0c-0.7,0-1.4,0-2.1,0c-0.5,0-1.1,0.1-1.4-0.4c-0.2-0.6,0.3-0.9,0.7-1.3c2.1-2.1,4.4-4.2,6.3-6.4
			c1.8-2,3.8-2.8,6.5-2.7c19.8,0.1,39.7,0,59.5,0c3.4,1.4,4.6,3.2,4.6,7.3c0,81.9,0,163.8,0,245.7c0,1-0.2,2,0.5,3.4
			c0.8-1,1.4-1.7,2-2.4c16.1-16.1,32.2-32.2,48.3-48.3c4-4,6.6-4,10.6,0c15.3,15.3,30.6,30.6,46,45.9c0.7,0.7,1.3,2.1,2.3,1.6
			c0.9-0.4,0.4-1.9,0.4-2.9c0-10,0-19.9,0-29.9c0-4-0.1-7.9,0-11.9c0.1-3.8,2.1-5.8,5.9-5.9c1.1,0,2.2-0.1,3.4,0
			c2.5,0.4,3.1-0.7,3.1-3.2C617.7,558.6,617.7,467.3,617.8,376.1z M617.8,376.1c0-1.8-0.5-3.1-1.9-4.2c-9.9-8.8-19.8-17.7-29.8-26.5
			c-13-11.5-26.1-23-39.1-34.6c-11-9.7-21.9-19.4-32.8-29.2c-1.2-1-2.1-0.9-3.1,0c-3.7,3.4-7.5,6.6-11.1,10.1
			c-3.5,3.3-7.1,6.4-10.6,9.5c-6.1,5.5-12.4,10.8-18.4,16.4c-0.1,0.1-0.2,0.2-0.4,0.4c-0.7,0.7-1.5,1.4-2.2,2.1
			c-19.3,17.1-38.5,34.2-57.8,51.3c-1.6,1.4-2.2,2.7-2.2,4.8c0.1,23.6,0.1,47.2,0,70.9c0,2.3,0.5,3,2.9,3c5.3,0,10.7,0,16,0
			c-1.2,0.4-2.2,1-3.2,1.9c-2.3,2.1-4.5,4.3-6.5,6.6c-0.7,0.8-1.6,1.5-1,2.7c0.1,0.2,0.2,0.4,0.4,0.5c-21.7,0-43.3,0-65-0.1
			c-2.7,0-3.2,0.8-3.2,3.3c0.1,43,0.1,86.1,0.1,129.2c0,1-0.1,1.9-0.1,2.9c0,0.1,0,0.3,0,0.4c0,1,0.1,2,0.1,3.1c0,11.3,0,22.7,0,34
			c0,1.5,0.3,2.5,1.8,3.5c9.5,5.8,18.8,11.8,28.2,17.6c14.3,8.9,28.6,17.7,43,26.6c11.1,6.9,22.3,13.7,33.4,20.6
			c2.2,1.4,4.8,2.4,5.4,5.3c0,10.2-0.1,20.3,0,30.5c0,0.8-0.6,2,1,2.1c6.5-6.6,13-13.2,19.6-19.7c1.8-1.8,2.5-3.5,2.5-6
			c-0.1-83.2,0-166.3,0-249.5c0-1.2,0-2.4,0.1-3.6c-1.1-0.9-2.5-0.6-3.7-0.6c-19.7,0-39.3,0-59,0c-0.7,0-1.4,0-2.1,0
			c-0.5,0-1.1,0.1-1.4-0.4c-0.2-0.6,0.3-0.9,0.7-1.3c2.1-2.1,4.4-4.2,6.3-6.4c1.8-2,3.8-2.8,6.5-2.7c19.8,0.1,39.7,0,59.5,0
			c3.4,1.4,4.6,3.2,4.6,7.3c0,81.9,0,163.8,0,245.7c0,1-0.2,2,0.5,3.4c0.8-1,1.4-1.7,2-2.4c16.1-16.1,32.2-32.2,48.3-48.3
			c4-4,6.6-4,10.6,0c15.3,15.3,30.6,30.6,46,45.9c0.7,0.7,1.3,2.1,2.3,1.6c0.9-0.4,0.4-1.9,0.4-2.9c0-10,0-19.9,0-29.9
			c0-4-0.1-7.9,0-11.9c0.1-3.8,2.1-5.8,5.9-5.9c1.1,0,2.2-0.1,3.4,0c2.5,0.4,3.1-0.7,3.1-3.2C617.7,558.6,617.7,467.3,617.8,376.1z
			 M724,222.6c0-0.9,0-1.7,0.1-2.6c-0.2-0.1-0.3-0.2-0.5-0.3c0,0,0,0,0,0c-0.9-0.4-1.8-0.3-2.7-0.3c-29.5,0-58.9,0-88.4,0
			c-1.1,0-2.2-0.1-3.3,0.5c0,1.2,0,2.4,0,3.6v425.3c0,0.8,0.1,1.6,0,2.3c-0.2,1.5,0.5,1.9,1.9,1.9c2.4-0.1,4.8,0,7.2,0
			c4.4,0,5.8,1,7.4,5c0,28.3,0,56.6,0,84.9c0,0.6,0.1,1.2,0.2,1.8c0,0,0,0,0,0c0,0.2,0.1,0.5,0.1,0.7c8.6,8.7,17.1,17.4,25.8,25.9
			c2.3,2.2,3.2,4.7,3.1,7.7c0,4.9,0.1,9.8,0,14.7c0,1.8,0.5,2.3,2.3,2.3c6.1-0.1,12.2,0,18.3,0c0-0.1,0.1-0.1,0.1-0.2
			c0.5-0.9,0.5-1.8,0.5-2.8c0-42.8,0-85.5,0-128.3c0-3.1,1-4.5,4-5.4c6.9,0,13.9,0,20.8,0c0.7,0,1.5,0,2.2-0.2
			c0.3,0,0.5-0.2,0.8-0.4c0-0.8,0-1.7,0-2.6V222.6z M724,222.6c0-0.9,0-1.7,0.1-2.6c-0.2-0.1-0.3-0.2-0.5-0.3c0,0,0,0,0,0
			c-0.9-0.4-1.8-0.3-2.7-0.3c-29.5,0-58.9,0-88.4,0c-1.1,0-2.2-0.1-3.3,0.5c0,1.2,0,2.4,0,3.6v425.3c0,0.8,0.1,1.6,0,2.3
			c-0.2,1.5,0.5,1.9,1.9,1.9c2.4-0.1,4.8,0,7.2,0c4.4,0,5.8,1,7.4,5c0,28.3,0,56.6,0,84.9c0,0.6,0.1,1.2,0.2,1.8c0,0,0,0,0,0
			c0,0.2,0.1,0.5,0.1,0.7c8.6,8.7,17.1,17.4,25.8,25.9c2.3,2.2,3.2,4.7,3.1,7.7c0,4.9,0.1,9.8,0,14.7c0,1.8,0.5,2.3,2.3,2.3
			c6.1-0.1,12.2,0,18.3,0c0-0.1,0.1-0.1,0.1-0.2c0.5-0.9,0.5-1.8,0.5-2.8c0-42.8,0-85.5,0-128.3c0-3.1,1-4.5,4-5.4
			c6.9,0,13.9,0,20.8,0c0.7,0,1.5,0,2.2-0.2c0.3,0,0.5-0.2,0.8-0.4c0-0.8,0-1.7,0-2.6V222.6z M617.8,376.1c0-1.8-0.5-3.1-1.9-4.2
			c-9.9-8.8-19.8-17.7-29.8-26.5c-13-11.5-26.1-23-39.1-34.6c-11-9.7-21.9-19.4-32.8-29.2c-1.2-1-2.1-0.9-3.1,0
			c-3.7,3.4-7.5,6.6-11.1,10.1c-3.5,3.3-7.1,6.4-10.6,9.5c-6.1,5.5-12.4,10.8-18.4,16.4c-0.1,0.1-0.2,0.2-0.4,0.4
			c-0.7,0.7-1.5,1.4-2.2,2.1c-19.3,17.1-38.5,34.2-57.8,51.3c-1.6,1.4-2.2,2.7-2.2,4.8c0.1,23.6,0.1,47.2,0,70.9c0,2.3,0.5,3,2.9,3
			c5.3,0,10.7,0,16,0c-1.2,0.4-2.2,1-3.2,1.9c-2.3,2.1-4.5,4.3-6.5,6.6c-0.7,0.8-1.6,1.5-1,2.7c0.1,0.2,0.2,0.4,0.4,0.5
			c-21.7,0-43.3,0-65-0.1c-2.7,0-3.2,0.8-3.2,3.3c0.1,43,0.1,86.1,0.1,129.2c0,1-0.1,1.9-0.1,2.9c0,0.1,0,0.3,0,0.4
			c0,1,0.1,2,0.1,3.1c0,11.3,0,22.7,0,34c0,1.5,0.3,2.5,1.8,3.5c9.5,5.8,18.8,11.8,28.2,17.6c14.3,8.9,28.6,17.7,43,26.6
			c11.1,6.9,22.3,13.7,33.4,20.6c2.2,1.4,4.8,2.4,5.4,5.3c0,10.2-0.1,20.3,0,30.5c0,0.8-0.6,2,1,2.1c6.5-6.6,13-13.2,19.6-19.7
			c1.8-1.8,2.5-3.5,2.5-6c-0.1-83.2,0-166.3,0-249.5c0-1.2,0-2.4,0.1-3.6c-1.1-0.9-2.5-0.6-3.7-0.6c-19.7,0-39.3,0-59,0
			c-0.7,0-1.4,0-2.1,0c-0.5,0-1.1,0.1-1.4-0.4c-0.2-0.6,0.3-0.9,0.7-1.3c2.1-2.1,4.4-4.2,6.3-6.4c1.8-2,3.8-2.8,6.5-2.7
			c19.8,0.1,39.7,0,59.5,0c3.4,1.4,4.6,3.2,4.6,7.3c0,81.9,0,163.8,0,245.7c0,1-0.2,2,0.5,3.4c0.8-1,1.4-1.7,2-2.4
			c16.1-16.1,32.2-32.2,48.3-48.3c4-4,6.6-4,10.6,0c15.3,15.3,30.6,30.6,46,45.9c0.7,0.7,1.3,2.1,2.3,1.6c0.9-0.4,0.4-1.9,0.4-2.9
			c0-10,0-19.9,0-29.9c0-4-0.1-7.9,0-11.9c0.1-3.8,2.1-5.8,5.9-5.9c1.1,0,2.2-0.1,3.4,0c2.5,0.4,3.1-0.7,3.1-3.2
			C617.7,558.6,617.7,467.3,617.8,376.1z"/>
		<path class="st1" d="M1020.6,526.2c-0.8-2-0.5-4.2-0.4-6.3c0.2-0.3,0.3-0.3,0.4,0.1C1020.6,522.1,1020.6,524.1,1020.6,526.2z"/>
		<path class="st1" d="M1020.2,547.4c-0.1-2.1-0.4-4.2,0.4-6.3c0,2.1,0,4.1,0,6.2C1020.5,547.7,1020.4,547.7,1020.2,547.4z"/>
		<path class="st2" d="M565.3,1002.7c1.5-0.7,3.1-0.5,4.7-0.5c0.4,0.2,0.3,0.3,0,0.5C568.4,1002.7,566.8,1002.7,565.3,1002.7z"/>
		<path class="st3" d="M533.2,1002.2c1.6-0.1,3.2-0.3,4.7,0.4c-1.5,0-3.1,0-4.6,0C532.9,1002.6,532.9,1002.5,533.2,1002.2z"/>
		<path class="st4" d="M1020.6,520c-0.1-0.1-0.3-0.1-0.4-0.1c0-1.5,0-3.1,0-4.6c0.2-0.4,0.3-0.4,0.4,0
			C1020.6,516.9,1020.6,518.5,1020.6,520z"/>
		<path class="st4" d="M1020.2,547.4c0.1,0,0.3,0,0.4-0.1c0,1.5,0,3.1,0,4.6c-0.1,0.4-0.3,0.4-0.4,0
			C1020.2,550.5,1020.2,549,1020.2,547.4z"/>
		<path class="st5" d="M617.8,649.8c0,2.4-0.6,3.5-3.1,3.2c-1.1-0.2-2.2-0.1-3.4,0c-3.8,0.2-5.8,2.1-5.9,5.9c-0.1,3.9,0,7.9,0,11.9
			c0,10,0,19.9,0,29.9c0,1,0.5,2.4-0.4,2.9c-1,0.5-1.6-0.9-2.3-1.6c-15.3-15.3-30.6-30.6-46-45.9c-4-4-6.5-4-10.6,0
			c-16.1,16.1-32.2,32.2-48.3,48.3c-0.7,0.7-1.2,1.4-2,2.4c-0.7-1.4-0.5-2.5-0.5-3.4c0-81.9,0-163.8,0-245.7c0-4-1.2-5.9-4.6-7.3
			c-1.1-0.6-2.4-0.3-3.5-0.3c-19.9,0-39.8,0-59.8,0c-5.3,0-10.7,0-16,0c-2.4,0-2.9-0.7-2.9-3c0.1-23.6,0.1-47.2,0-70.9
			c0-2.1,0.6-3.5,2.2-4.8c19.3-17.1,38.6-34.2,57.8-51.3c0.8-0.7,1.5-1.4,2.2-2.1c0.1-0.1,0.2-0.2,0.4-0.4
			c6.1-5.6,12.3-10.9,18.4-16.4c3.5-3.1,7.2-6.2,10.6-9.5c3.6-3.4,7.4-6.7,11.1-10.1c1-1,2-1,3.1,0c10.9,9.8,21.9,19.5,32.8,29.2
			c13,11.5,26.1,23,39.1,34.6c9.9,8.8,19.8,17.7,29.8,26.5c1.3,1.2,1.9,2.4,1.9,4.2C617.7,467.3,617.7,558.6,617.8,649.8z"/>
		<path class="st5" d="M724,656c0,0.9,0,1.7,0,2.6c-0.2,0.3-0.5,0.4-0.8,0.4c-0.5,0.1-1.1-0.1-1.6-0.1c-6.3,0-12.5,0-18.8,0
			c-0.8,0-1.7-0.2-2.5,0.2c-3,0.9-4,2.3-4,5.4c-0.1,0.1-0.1,0.3-0.1,0.5c0,0.2-0.1,0.4-0.1,0.6c0,0.1,0,0.2,0,0.3c0,0.4,0,0.8,0,1.2
			c0,0.3,0,0.7,0,1c0,41.4,0,82.8,0,124.1v0.6c0,0.2,0,0.4,0,0.6c0.1,0.7,0.1,1.5-0.2,2.2c0,0.1-0.1,0.1-0.1,0.2
			c-6.1,0-12.2-0.1-18.3,0c-1.8,0-2.4-0.5-2.3-2.3c0.1-4.9,0-9.8,0-14.7c0-3-0.9-5.4-3.1-7.7c-8.7-8.5-17.2-17.2-25.8-25.9
			c0-0.2-0.1-0.5-0.1-0.7c0,0,0,0,0,0c-0.1-0.7,0-1.4,0-2.1c0-27.2,0-54.3,0-81.5c0-1,0.2-2.1-0.2-3c-1.6-4-3-5-7.4-5
			c-2.4,0-4.8-0.1-7.2,0c-1.4,0-2.1-0.3-1.9-1.9c0.1-0.8,0-1.5,0-2.3V223.5c0-1.2,0-2.4,0-3.6c0.9-0.5,1.9-0.2,2.8-0.2
			c29.8,0,59.6,0,89.4,0c0.7,0,1.5-0.2,2.2,0.1c0,0,0,0,0,0c0.2,0.1,0.3,0.2,0.5,0.3c0,0.9-0.1,1.7-0.1,2.6V656z"/>
		<path class="st5" d="M483.7,465.5c0,83.2,0,166.3,0,249.5c0,2.5-0.8,4.3-2.5,6c-6.6,6.5-13.1,13.1-19.6,19.7
			c-1.5-0.4-0.7-1.5-0.7-2.3c-0.1-9.2,0-18.4-0.1-27.5c0-0.9,0.2-1.9-0.2-2.8c-0.6-3-3.2-4-5.4-5.3c-11.1-6.9-22.3-13.7-33.4-20.6
			c-14.3-8.8-28.7-17.7-43-26.6c-9.4-5.9-18.8-11.9-28.2-17.6c-1.5-0.9-1.8-1.9-1.8-3.5c0-11.3,0-22.7,0-34c0-1-0.1-2-0.1-3.1
			c0-0.1,0-0.3,0-0.4c0-1,0.1-1.9,0.1-2.9c0-43.1,0-86.1-0.1-129.2c0-2.5,0.5-3.3,3.2-3.3c21.7,0,43.3,0.1,65,0.1
			c21.2,0,42.5,0,63.7,0c1,0,2,0.1,3.1,0.2C483.7,463.1,483.7,464.3,483.7,465.5z"/>
	</g>
</g>
</svg>
