<?xml version="1.0" encoding="utf-8"?>
<!-- Generator: Adobe Illustrator 24.1.0, SVG Export Plug-In . SVG Version: 6.00 Build 0)  -->
<svg version="1.1" id="Layer_1" xmlns="http://www.w3.org/2000/svg" xmlns:xlink="http://www.w3.org/1999/xlink" x="0px" y="0px"
	 viewBox="0 0 437.6 263.7" style="enable-background:new 0 0 437.6 263.7;" xml:space="preserve">
<style type="text/css">
	.st0{fill:#999889;}
	.st1{fill:#FED500;}
	.st2{fill:#55C6E5;}
	.st3{fill:#25B6E8;}
	.st4{fill:#E2DEDE;}
	.st5{fill:#0097C6;}
</style>
<rect x="138.9" y="130.7" class="st0" width="58.9" height="58.9"/>
<ellipse class="st1" cx="205.8" cy="95" rx="97.7" ry="93.9"/>
<path class="st2" d="M366.9,161.3H24.5C11,161.3,0,150.3,0,136.8v-2.6c0-13.5,11-24.5,24.5-24.5H367c13.5,0,24.5,11,24.5,24.5v2.6
	C391.4,150.3,380.4,161.3,366.9,161.3z"/>
<path class="st3" d="M413,212.7H70.3c-13.5,0-24.5-11-24.5-24.5v-2.6c0-13.5,11-24.5,24.5-24.5h342.8c13.5,0,24.5,11,24.5,24.5v2.6
	C437.5,201.7,426.5,212.7,413,212.7z"/>
<g>
	<path class="st4" d="M342.3,218.2h-84v-19.7h86.6c4.7,0,8.5,3.8,8.5,8.5l0,0C353.4,213.2,348.4,218.2,342.3,218.2z"/>
	<path class="st4" d="M258.3,218.2v-19.7h-17.4c-2,0-3,2.5-1.4,3.8L258.3,218.2z"/>
	<path class="st4" d="M302.9,113.4v74.7c0,4-3.2,7.2-7.2,7.2h-37.5L302.9,113.4z"/>
	<path class="st4" d="M338.5,195.3h-28.8c-2.3,0-4.2-1.9-4.2-4.2v-67L338.5,195.3z"/>
</g>
<path class="st5" d="M333,263.4H24.1c-13.5,0-24.5-11-24.5-24.5v-2.6c0-13.5,11-24.5,24.5-24.5H333c13.5,0,24.5,11,24.5,24.5v2.6
	C357.5,252.4,346.5,263.4,333,263.4z"/>
</svg>
