<svg id="Layer_1" data-name="Layer 1" 
    xmlns="http://www.w3.org/2000/svg" 
    xmlns:xlink="http://www.w3.org/1999/xlink" viewBox="0 0 1379.83 219.18">
    <defs>
        <radialGradient id="radial-gradient" cx="302.96" cy="94.42" r="95.85" gradientUnits="userSpaceOnUse">
            <stop offset="0.18" stop-color="#ff0"/>
            <stop offset="0.49" stop-color="#fffd01"/>
            <stop offset="0.62" stop-color="#fef602"/>
            <stop offset="0.71" stop-color="#fdea06"/>
            <stop offset="0.79" stop-color="#fcd80b"/>
            <stop offset="0.85" stop-color="#fac211"/>
            <stop offset="0.91" stop-color="#f8a619"/>
            <stop offset="0.94" stop-color="#f7931e"/>
        </radialGradient>
        <linearGradient id="linear-gradient" x1="0.5" y1="149.15" x2="620.16" y2="149.15" gradientUnits="userSpaceOnUse">
            <stop offset="0.07" stop-color="#002c68"/>
            <stop offset="0.49" stop-color="#124eb4"/>
            <stop offset="0.9" stop-color="#001c68"/>
        </linearGradient>
    </defs>
    <path id="background" d="M225.87,217.68a34.59,34.59,0,0,1-34.54-34.54V60.22c0-19.37,16-34.54,36.54-34.54H1345.79c17.33,0,32.54,16.14,32.54,34.54V183.14a34.59,34.59,0,0,1-34.54,34.54Z" fill="#fff"/>
    <path d="M1345.79,27.18c16.53,0,31,15.44,31,33V183.13a33.08,33.08,0,0,1-33,33.05H225.87a33.08,33.08,0,0,1-33-33.05V60.22c0-18.53,15.39-33,35-33H1345.79m0-3H227.87c-21.82,0-38,16.22-38,36V183.13a36.15,36.15,0,0,0,36,36.05H1343.79a36.15,36.15,0,0,0,36-36.05V60.22c0-19.82-16.22-36-34-36Z"/>
    <rect x="243.8" y="106.73" width="58.94" height="58.94" fill="#999889"/>
    <ellipse cx="302.96" cy="94.42" rx="97.73" ry="93.92" stroke="#000" stroke-miterlimit="10" fill="url(#radial-gradient)"/>
    <path d="M246.87,204.36A29.37,29.37,0,0,1,220,186.89l-.13-.3H29.83a29.33,29.33,0,1,1,0-58.66H70.94l-.19-.64A25.85,25.85,0,0,1,95.51,94H541.65a25.85,25.85,0,0,1,6.92,50.77l-3.54,1h45.8a29.33,29.33,0,0,1,0,58.66Z" fill="url(#linear-gradient)"/>
    <path d="M541.65,94.45a25.36,25.36,0,0,1,6.79,49.79l-7.08,2h49.47a28.83,28.83,0,0,1,0,57.66h-344a28.86,28.86,0,0,1-26.37-17.18l-.26-.59H29.83a28.83,28.83,0,1,1,0-57.66H71.62l-.39-1.29A25.34,25.34,0,0,1,95.51,94.45H541.65m0-1H95.51a26.37,26.37,0,0,0-26.37,26.37h0a26.19,26.19,0,0,0,1.13,7.61H29.83a29.83,29.83,0,1,0,0,59.66H219.59a29.83,29.83,0,0,0,27.28,17.77h344a29.83,29.83,0,0,0,0-59.66H548.7A26.37,26.37,0,0,0,568,119.82h0a26.37,26.37,0,0,0-26.37-26.37Z"/>
    <path d="M746.35,96.75a5.17,5.17,0,0,1,5.23-5.06,5.05,5.05,0,0,1,4.9,5.06v41.58h22.57c8.13,0,8.3,10.87,0,10.87H751.58a5,5,0,0,1-5.23-5.06Z"/>
    <path d="M794.66,149.2c-2.66-1.49-4.32-4.48-2.66-8l23.82-46.55c2.24-4.4,8.22-4.57,10.29,0l23.4,46.55c3.41,6.48-6.64,11.62-9.62,5.15l-3.65-7.3H805.61l-3.57,7.3C800.71,149.2,797.64,149.78,794.66,149.2Zm35.68-21.08L821,107.62l-10.2,20.5Z"/>
    <path d="M878,123.81l-7.89,8.71v11.62c0,6.89-11,7-11,0V96.75c0-7,11-7.3,11,0v21.08l24-24.73c2.9-2.74,5.81-2.08,7.88,0a4.78,4.78,0,0,1,0,7.38c-4.9,5.81-10.62,11-15.93,16.77l19.42,23.49c5,6.89-5.65,11.86-9,6.55Z"/>
    <path d="M921.64,149.2a5.06,5.06,0,0,1-5.14-5.14V96.92a5,5,0,0,1,5.14-5.15h29.8c7.63,0,7.47,10.79,0,10.79h-23.9V115h20.91c7.39,0,7.39,10.87,0,10.87H927.54v12.45h25.31c7.55,0,8.13,10.87,0,10.87Z"/>
</svg>