<?xml version="1.0" encoding="utf-8"?>
<!-- Generator: Adobe Illustrator 23.0.6, SVG Export Plug-In . SVG Version: 6.00 Build 0)  -->
<svg version="1.1" id="Layer_1" xmlns="http://www.w3.org/2000/svg" xmlns:xlink="http://www.w3.org/1999/xlink" x="0px" y="0px"
	 viewBox="0 0 1379.8 219.2" style="enable-background:new 0 0 1379.8 219.2;" xml:space="preserve">
<title>CWDLakeButton</title>
<path style="fill:#FFFFFF;" d="M225.9,217.7c-19,0-34.5-15.5-34.5-34.5v-123c0-19.4,16-34.5,36.5-34.5h1117.9
	c17.3,0,32.5,16.1,32.5,34.5v123c0,19.1-15.5,34.5-34.5,34.5H225.9z"/>
<path d="M1345.8,27.2c16.5,0,31,15.4,31,33v123c0,18.2-14.8,33-33,33H225.9c-18.2,0-33-14.8-33-33v-123c0-18.5,15.4-33,35-33
	L1345.8,27.2 M1345.8,24.2H227.9c-21.8,0-38,16.2-38,36v123c0.1,19.8,16.2,35.9,36,36h1117.9c19.8-0.1,35.9-16.2,36-36v-123
	C1379.8,40.4,1363.6,24.2,1345.8,24.2z"/>
<rect x="243.8" y="106.7" style="fill:#999889;" width="58.9" height="58.9"/>
<ellipse style="fill:#FFCB05;stroke:#000000;stroke-miterlimit:10;" cx="303" cy="94.4" rx="97.7" ry="93.9"/>
<path style="fill:#2C28B2;" d="M246.9,204.4c-11.6,0-22.2-6.8-26.9-17.5l-0.1-0.3h-190c-16.2,0-29.3-13.1-29.3-29.3
	S13.7,128,29.9,128H71l-0.2-0.6c-4.1-13.7,3.6-28.1,17.3-32.2c2.4-0.7,5-1.1,7.5-1.1h446.1c14.3,0,25.9,11.5,25.9,25.8
	c0,11.6-7.7,21.9-19,25l-3.5,1h45.8c16.2,0,29.3,13.1,29.3,29.3s-13.1,29.3-29.3,29.3L246.9,204.4z"/>
<path d="M541.7,94.4c14,0,25.4,11.4,25.3,25.4c0,11.4-7.6,21.4-18.6,24.4l-7.1,2h49.5c15.9,0,28.8,12.9,28.8,28.8
	s-12.9,28.8-28.8,28.8h-344c-11.4,0-21.7-6.8-26.3-17.2l-0.3-0.6H29.8C13.9,186.1,1,173.2,1,157.3s12.9-28.8,28.8-28.8h41.8
	l-0.4-1.2c-4.1-13.4,3.5-27.6,16.9-31.6c2.4-0.7,4.9-1.1,7.4-1.1L541.7,94.4 M541.7,93.5H95.5c-14.6,0-26.4,11.8-26.4,26.4l0,0l0,0
	c0,2.6,0.4,5.1,1.1,7.6H29.8C13.4,127.5,0,140.8,0,157.3s13.4,29.8,29.8,29.8h189.8c4.8,10.8,15.5,17.8,27.3,17.8h344
	c16.5,0,29.8-13.4,29.8-29.8c0-16.5-13.4-29.8-29.8-29.8h-42.2c11.4-3.2,19.3-13.6,19.3-25.4l0,0C568,105.3,556.2,93.5,541.7,93.5
	L541.7,93.5z"/>
<path d="M691.2,68.9c0.2-5.2,4.4-9.5,9.6-9.5c5,0.2,9.1,4.3,9.1,9.5V146h41.9c15,0,15.4,20.2,0,20.2h-51c-5.2,0.2-9.5-3.7-9.6-8.9
	c0-0.2,0-0.4,0-0.6V68.9z"/>
<path d="M780.9,166.1c-5-2.8-8-8.3-5-14.8L820,64.9c4.1-8.2,15.2-8.5,19.1,0l43.4,86.4c6.3,12-12.2,21.5-17.8,9.5l-6.9-13.5h-56.7
	l-6.7,13.7C792,166.1,786.3,167.2,780.9,166.1z M846.9,127l-17.2-38l-18.9,38H846.9z"/>
<path d="M935.3,119l-14.6,16.1v21.7c0,12.8-20.4,13-20.4,0V68.9c0-13,20.4-13.5,20.4,0V108l44.5-45.8c5.4-5,10.8-3.9,14.6,0
	c3.7,3.2,4.3,8.7,1.1,12.4c-0.4,0.4-0.7,0.9-1.1,1.1c-9.1,10.8-19.6,20.4-29.5,31.1l36,43.6c9.3,12.8-10.6,22.1-16.7,12.2L935.3,119
	z"/>
<path d="M1016.1,166.1c-5.2,0-9.5-4.1-9.5-9.3c0-0.2,0-0.2,0-0.4V69.1c-0.2-5.2,3.9-9.5,8.9-9.5c0.2,0,0.4,0,0.6,0h55.2
	c14.1,0,13.9,20,0,20H1027v23h38.7c13.7,0,13.7,20.2,0,20.2H1027V146h46.9c13.9,0,15,20.2,0,20.2L1016.1,166.1z"/>
</svg>
