<svg id="Layer_1" data-name="Layer 1" 
    xmlns="http://www.w3.org/2000/svg" viewBox="0 0 1319.72 261.04">
    <path id="background" d="M165.77,205.68a34.59,34.59,0,0,1-34.55-34.54V48.22c0-19.37,16.05-34.54,36.55-34.54H1285.68c17.34,0,32.54,16.14,32.54,34.54V171.14a34.58,34.58,0,0,1-34.54,34.54Z" transform="translate(0 -0.36)" fill="#fff"/>
    <path d="M1285.68,15.18c16.54,0,31,15.44,31,33V171.14a33.08,33.08,0,0,1-33,33H165.77a33.08,33.08,0,0,1-33.05-33V48.22c0-18.53,15.4-33,35.05-33H1285.68m0-3H167.77c-21.83,0-38.05,16.22-38.05,36V171.14a36.15,36.15,0,0,0,36.05,36H1283.68a36.15,36.15,0,0,0,36-36V48.22c0-19.82-16.22-36-34-36Z" transform="translate(0 -0.36)"/>
    <path d="M208.31,135.68" transform="translate(0 -0.36)" fill="none" stroke="#fff" stroke-linecap="round" stroke-miterlimit="10" stroke-width="16" opacity="0.9" style="isolation:isolate"/>
    <path d="M194.27,154.12" transform="translate(0 -0.36)" fill="none" stroke="#fff" stroke-linecap="round" stroke-miterlimit="10" stroke-width="16" opacity="0.9" style="isolation:isolate"/>
    <path d="M185.92,175.46" transform="translate(0 -0.36)" fill="none" stroke="#fff" stroke-linecap="round" stroke-miterlimit="10" stroke-width="16" opacity="0.9" style="isolation:isolate"/>
    <path d="M68.15,256.93h0c-3.22,0-5.85-2.79-5.85-6.71V93.8a5.94,5.94,0,0,1,5.85-5.68h0A6.06,6.06,0,0,1,74,94.32V250.73A6.06,6.06,0,0,1,68.15,256.93Z" transform="translate(0 -0.36)" fill="#ff931e" stroke="#000" stroke-miterlimit="10"/>
    <path d="M62.78,1.31V75.72h9.54S78.5,12.2,62.78,1.31Z" transform="translate(0 -0.36)" fill="#ff931e" stroke="#000" stroke-miterlimit="10"/>
    <path d="M62.78,1.31V75.72h9.54S78.5,12.2,62.78,1.31Z" transform="translate(0 -0.36)" fill="#ff931e" stroke="#000" stroke-miterlimit="10"/>
    <path d="M.66,120,65.58,91.53,61.93,82.2S4.14,100.47.66,120Z" transform="translate(0 -0.36)" fill="#ff931e" stroke="#000" stroke-miterlimit="10"/>
    <path d="M136.34,120,71.42,91.53l3.65-9.33S132.85,100.47,136.34,120Z" transform="translate(0 -0.36)" fill="#ff931e" stroke="#000" stroke-miterlimit="10"/>
    <ellipse cx="68.15" cy="82.08" rx="10.74" ry="11.37" fill="#ff931e" stroke="#000" stroke-miterlimit="10"/>
    <path d="M24.56,206.38H92.88a.6.6,0,0,1,.6.6v49.79a.6.6,0,0,1-.6.6h-72a.6.6,0,0,1-.6-.6V210.66A4.27,4.27,0,0,1,24.56,206.38Z" fill="#2e3192" stroke="#000" stroke-miterlimit="10"/>
    <path d="M334.14,228.08h78.42a3.36,3.36,0,0,1,3.36,3.36v25.74a3.36,3.36,0,0,1-3.36,3.36H334.14a0,0,0,0,1,0,0V228.08a0,0,0,0,1,0,0Z" fill="#f14929" stroke="#000" stroke-miterlimit="10"/>
    <path d="M81.86,162.21H331.16a5.18,5.18,0,0,1,5.18,5.18v92.71a0,0,0,0,1,0,0H81.86a5.18,5.18,0,0,1-5.18-5.18V167.38A5.18,5.18,0,0,1,81.86,162.21Z" fill="#bdccd4" stroke="#000" stroke-miterlimit="10"/>
    <path d="M288.1,191.67c0-39.69,29.19-71.87,65.21-71.87s65.22,32.18,65.22,71.87" transform="translate(0 -0.36)" fill="#2e3192" stroke="#000" stroke-miterlimit="10"/>
    <rect x="336.34" y="186.94" width="81.74" height="48.94" fill="#2e3192" stroke="#000" stroke-miterlimit="10"/>
    <polygon points="241.42 154.21 241.42 161.98 206.28 161.98 206.28 154.08 220.4 132.84 238.05 133.4 241.4 154.08 241.42 154.21" fill="#2e3192" stroke="#000" stroke-miterlimit="10"/>
    <polygon points="287.27 151.91 287.27 152.08 287.25 151.91 287.27 151.91" fill="#888db1" stroke="#000" stroke-miterlimit="10"/>
    <polygon points="280.32 152.08 280.32 162.21 234.53 162.21 234.53 151.91 252.93 124.23 275.93 124.97 280.3 151.91 280.32 152.08" fill="#e6e6e6" stroke="#000" stroke-miterlimit="10"/>
    <polygon points="287.49 153.37 287.27 153.37 287.27 152.08 287.49 153.37" fill="#888db1" stroke="#000" stroke-miterlimit="10"/>
    <polygon points="241.42 154.08 241.42 154.21 241.4 154.08 241.42 154.08" fill="#888db1" stroke="#000" stroke-miterlimit="10"/>
    <polygon points="241.58 155.2 241.42 155.19 241.42 154.21 241.58 155.2" fill="#888db1" stroke="#000" stroke-miterlimit="10"/>
    <path d="M66.48,174.16H77a1.38,1.38,0,0,1,1.38,1.38V242a.07.07,0,0,1-.07.07H65.11a0,0,0,0,1,0,0V175.54A1.38,1.38,0,0,1,66.48,174.16Z" fill="#2e3192" stroke="#000" stroke-miterlimit="10"/>
    <polyline points="85.97 162.72 85.69 156.2 114.04 159.29 143.48 158.26 143.48 162.04" fill="none" stroke="#000" stroke-miterlimit="10" stroke-width="2"/>
    <polyline points="113.77 163.32 114.04 158.51 114.04 144.43 112.14 131.38" fill="none" stroke="#000" stroke-miterlimit="10" stroke-width="2"/>
    <path d="M114,143.85l-28.35,12.7c0-1.37,26.45-25.76,26.45-25.76l1.9,13.06,26.17,14.08" transform="translate(0 -0.36)" fill="none" stroke="#000" stroke-miterlimit="10" stroke-width="2"/>
    <line x1="143.48" y1="158.26" x2="112.14" y2="130.44" fill="none" stroke="#000" stroke-miterlimit="10" stroke-width="2"/>
    <path d="M81.87,192.09H153.3a5.18,5.18,0,0,1,5.18,5.18V258.8a.77.77,0,0,1-.77.77h-81a0,0,0,0,1,0,0V197.26A5.18,5.18,0,0,1,81.87,192.09Z" fill="#ff931e" stroke="#000" stroke-miterlimit="10"/>
    <rect x="227.1" y="165.29" width="24.44" height="19.45" fill="#e6e6e6" stroke="#000" stroke-miterlimit="10"/>
    <rect x="255.26" y="165.72" width="24.44" height="19.45" fill="#e6e6e6" stroke="#000" stroke-miterlimit="10"/>
    <rect x="157.54" y="182.3" width="6.13" height="8.76" fill="#7379a3" stroke="#000" stroke-miterlimit="10"/>
    <rect x="157.54" y="182.3" width="6.13" height="8.76" fill="#7379a3" stroke="#000" stroke-miterlimit="10"/>
    <rect x="169.93" y="182.3" width="6.13" height="8.76" fill="#7379a3" stroke="#000" stroke-miterlimit="10"/>
    <rect x="213" y="204.46" width="4.72" height="5.67" fill="#7379a3" stroke="#000" stroke-miterlimit="10"/>
    <rect x="218.84" y="204.46" width="4.72" height="5.67" fill="#7379a3" stroke="#000" stroke-miterlimit="10"/>
    <rect x="213" y="211.82" width="4.72" height="5.67" fill="#7379a3" stroke="#000" stroke-miterlimit="10"/>
    <rect x="218.84" y="211.82" width="4.72" height="5.67" fill="#7379a3" stroke="#000" stroke-miterlimit="10"/>
    <rect x="218.84" y="219.18" width="4.72" height="5.67" fill="#7379a3" stroke="#000" stroke-miterlimit="10"/>
    <rect x="218.84" y="226.54" width="4.72" height="5.67" fill="#7379a3" stroke="#000" stroke-miterlimit="10"/>
    <rect x="213" y="219.18" width="4.72" height="5.67" fill="#7379a3" stroke="#000" stroke-miterlimit="10"/>
    <rect x="213" y="226.54" width="4.72" height="5.67" fill="#7379a3" stroke="#000" stroke-miterlimit="10"/>
    <rect x="198.16" y="205.73" width="3.23" height="4.39" fill="#7379a3" stroke="#000" stroke-miterlimit="10"/>
    <rect x="202.16" y="205.73" width="3.23" height="4.39" fill="#7379a3" stroke="#000" stroke-miterlimit="10"/>
    <rect x="198.16" y="211.42" width="3.23" height="4.39" fill="#7379a3" stroke="#000" stroke-miterlimit="10"/>
    <rect x="202.16" y="211.42" width="3.23" height="4.39" fill="#7379a3" stroke="#000" stroke-miterlimit="10"/>
    <rect x="202.16" y="217.12" width="3.23" height="4.39" fill="#7379a3" stroke="#000" stroke-miterlimit="10"/>
    <rect x="202.16" y="222.82" width="3.23" height="4.39" fill="#7379a3" stroke="#000" stroke-miterlimit="10"/>
    <rect x="198.16" y="217.12" width="3.23" height="4.39" fill="#7379a3" stroke="#000" stroke-miterlimit="10"/>
    <rect x="198.16" y="222.82" width="3.23" height="4.39" fill="#7379a3" stroke="#000" stroke-miterlimit="10"/>
    <rect x="227.57" y="205.54" width="10.07" height="6.21" fill="#7379a3" stroke="#000" stroke-miterlimit="10"/>
    <rect x="227.57" y="212.9" width="10.07" height="6.21" fill="#7379a3" stroke="#000" stroke-miterlimit="10"/>
    <rect x="227.57" y="220.26" width="10.07" height="6.21" fill="#7379a3" stroke="#000" stroke-miterlimit="10"/>
    <rect x="240.23" y="205.54" width="10.07" height="6.21" fill="#7379a3" stroke="#000" stroke-miterlimit="10"/>
    <rect x="240.23" y="212.9" width="10.07" height="6.21" fill="#7379a3" stroke="#000" stroke-miterlimit="10"/>
    <rect x="240.23" y="220.26" width="10.07" height="6.21" fill="#7379a3" stroke="#000" stroke-miterlimit="10"/>
    <rect x="240.23" y="227.62" width="10.07" height="6.21" fill="#7379a3" stroke="#000" stroke-miterlimit="10"/>
    <rect x="227.57" y="227.62" width="10.07" height="6.21" fill="#7379a3" stroke="#000" stroke-miterlimit="10"/>
    <rect x="227.57" y="234.98" width="10.07" height="6.21" fill="#7379a3" stroke="#000" stroke-miterlimit="10"/>
    <rect x="240.23" y="234.98" width="10.07" height="6.21" fill="#7379a3" stroke="#000" stroke-miterlimit="10"/>
    <rect x="240.23" y="247.25" width="10.07" height="6.21" fill="#7379a3" stroke="#000" stroke-miterlimit="10"/>
    <rect x="227.57" y="247.25" width="10.07" height="6.21" fill="#7379a3" stroke="#000" stroke-miterlimit="10"/>
    <rect x="255.22" y="205.52" width="10.07" height="6.21" fill="#7379a3" stroke="#000" stroke-miterlimit="10"/>
    <rect x="255.22" y="212.88" width="10.07" height="6.21" fill="#7379a3" stroke="#000" stroke-miterlimit="10"/>
    <rect x="255.22" y="220.24" width="10.07" height="6.21" fill="#7379a3" stroke="#000" stroke-miterlimit="10"/>
    <rect x="267.88" y="205.52" width="10.07" height="6.21" fill="#7379a3" stroke="#000" stroke-miterlimit="10"/>
    <rect x="267.88" y="212.88" width="10.07" height="6.21" fill="#7379a3" stroke="#000" stroke-miterlimit="10"/>
    <rect x="267.88" y="220.24" width="10.07" height="6.21" fill="#7379a3" stroke="#000" stroke-miterlimit="10"/>
    <rect x="267.88" y="227.6" width="10.07" height="6.21" fill="#7379a3" stroke="#000" stroke-miterlimit="10"/>
    <rect x="255.22" y="227.6" width="10.07" height="6.21" fill="#7379a3" stroke="#000" stroke-miterlimit="10"/>
    <rect x="255.22" y="234.96" width="10.07" height="6.21" fill="#7379a3" stroke="#000" stroke-miterlimit="10"/>
    <rect x="267.88" y="234.96" width="10.07" height="6.21" fill="#7379a3" stroke="#000" stroke-miterlimit="10"/>
    <rect x="267.88" y="247.22" width="10.07" height="6.21" fill="#7379a3" stroke="#000" stroke-miterlimit="10"/>
    <rect x="255.22" y="247.22" width="10.07" height="6.21" fill="#7379a3" stroke="#000" stroke-miterlimit="10"/>
    <path d="M437.41,94c1.91-16.11,26.23-19,37.68-10.21,5.65,4.56-.33,11.78-5.31,8.13C463.64,88,449.7,86.15,448,94.79c-2.24,13.61,33.86,5.8,33.28,27.88-.58,21.08-31.12,21.58-42.57,12.12a6.14,6.14,0,0,1-1.16-8.14c2.15-2.15,4.56-2.9,7.38-.58,6.81,4.65,24.32,8.14,25.56-3.65C469.37,110.14,434.84,117.52,437.41,94Z" transform="translate(0 -0.36)"/>
    <path d="M491.61,109.81c0-16,10-29.8,29.13-29.8,7.22,0,13,2.16,19,7.39a5.38,5.38,0,1,1-7.39,7.8c-3.4-3.57-6.89-4.56-11.62-4.56-12.78,0-18.92,9-18.92,19.17,0,10.29,6.06,19.75,18.92,19.75a19.35,19.35,0,0,0,13-5.31,5.59,5.59,0,0,1,7.63,1c1.33,1.83,2,4.9-.91,7.8-5.81,5.4-12.78,6.48-19.67,6.48C500.66,139.52,491.61,125.82,491.61,109.81Z" transform="translate(0 -0.36)"/>
    <path d="M555.6,86.49c0-6.81,11-7.06,11,0v47.38c0,6.89-11,7.06-11,0Z" transform="translate(0 -0.36)"/>
    <path d="M586.81,138.94a5.07,5.07,0,0,1-5.14-5.15V86.65a5,5,0,0,1,5.14-5.14h29.8c7.63,0,7.46,10.79,0,10.79H592.7v12.44h20.92c7.38,0,7.38,10.88,0,10.88H592.7v12.44H618c7.55,0,8.13,10.88,0,10.88Z" transform="translate(0 -0.36)"/>
    <path d="M635.78,87.32c0-3,.66-5.9,5-5.9,3,0,3.65.75,5.89,2.91l27.47,34.36V86.49c0-2.74,2.41-5.73,5.23-5.73a6.32,6.32,0,0,1,5.89,5.73v46.72c0,3.65-2.24,5.06-4.39,5.73-2.91,0-4.32-.67-6.73-2.91l-27.47-34.85v32c0,3.65-2.24,5.73-5.23,5.73a5.47,5.47,0,0,1-5.64-5.73Z" transform="translate(0 -0.36)"/>
    <path d="M697.62,109.81c0-16,10-29.8,29.13-29.8,7.22,0,12.94,2.16,19,7.39a5.38,5.38,0,1,1-7.38,7.8c-3.41-3.57-6.89-4.56-11.62-4.56-12.79,0-18.93,9-18.93,19.17,0,10.29,6.06,19.75,18.93,19.75a19.31,19.31,0,0,0,12.94-5.31,5.6,5.6,0,0,1,7.64,1c1.33,1.83,2,4.9-.91,7.8-5.81,5.4-12.79,6.48-19.67,6.48C706.66,139.52,697.62,125.82,697.62,109.81Z" transform="translate(0 -0.36)"/>
    <path d="M766.09,138.94a5.07,5.07,0,0,1-5.15-5.15V86.65a5,5,0,0,1,5.15-5.14h29.79c7.64,0,7.47,10.79,0,10.79H772v12.44H792.9c7.38,0,7.38,10.88,0,10.88H772v12.44h25.31c7.56,0,8.14,10.88,0,10.88Z" transform="translate(0 -0.36)"/>
    <path d="M840,109.81c0-16,10-29.8,29.13-29.8,7.22,0,13,2.16,19,7.39a5.38,5.38,0,1,1-7.39,7.8c-3.4-3.57-6.89-4.56-11.62-4.56-12.78,0-18.92,9-18.92,19.17,0,10.29,6.06,19.75,18.92,19.75a19.35,19.35,0,0,0,13-5.31,5.59,5.59,0,0,1,7.63,1c1.33,1.83,2,4.9-.91,7.8-5.81,5.4-12.78,6.48-19.67,6.48C849.09,139.52,840,125.82,840,109.81Z" transform="translate(0 -0.36)"/>
    <path d="M908.52,138.94a5.07,5.07,0,0,1-5.15-5.15V86.65a5,5,0,0,1,5.15-5.14h29.79c7.64,0,7.47,10.79,0,10.79h-23.9v12.44h20.91c7.39,0,7.39,10.88,0,10.88H914.41v12.44h25.31c7.55,0,8.13,10.88,0,10.88Z" transform="translate(0 -0.36)"/>
    <path d="M957.49,87.32c0-3,.66-5.9,5-5.9,3,0,3.66.75,5.9,2.91l27.47,34.36V86.49c0-2.74,2.4-5.73,5.23-5.73a6.32,6.32,0,0,1,5.89,5.73v46.72c0,3.65-2.24,5.06-4.4,5.73-2.9,0-4.32-.67-6.72-2.91l-27.47-34.85v32c0,3.65-2.24,5.73-5.23,5.73a5.47,5.47,0,0,1-5.64-5.73Z" transform="translate(0 -0.36)"/>
    <path d="M1037,91.88h-14.53c-7.22,0-7.22-10.62,0-10.62h39.26a5.31,5.31,0,1,1,0,10.62H1048v41.91c0,7.22-11,7.39-11,0Z" transform="translate(0 -0.36)"/>
    <path d="M1083.15,138.94a5.07,5.07,0,0,1-5.15-5.15V86.65a5,5,0,0,1,5.15-5.14h29.79c7.64,0,7.47,10.79,0,10.79H1089v12.44H1110c7.39,0,7.39,10.88,0,10.88H1089v12.44h25.31c7.55,0,8.13,10.88,0,10.88Z" transform="translate(0 -0.36)"/>
    <path d="M1143.07,133.54c0,7.22-11,7.47-11,.17V86.57a5,5,0,0,1,5-5.06h22.08c21.08,0,25.39,28.21,7.8,35.27l11,13.44c4.31,6.39-4.32,12.53-9.3,6.23l-12.53-17.93h-13Zm0-24.56h16c10.79,0,11.45-17.43,0-17.43h-16Z" transform="translate(0 -0.36)"/>
</svg>