<?xml version="1.0" encoding="utf-8"?>
<!-- Generator: Adobe Illustrator 23.0.6, SVG Export Plug-In . SVG Version: 6.00 Build 0)  -->
<svg version="1.1" id="Layer_1" xmlns="http://www.w3.org/2000/svg" xmlns:xlink="http://www.w3.org/1999/xlink" x="0px" y="0px"
	 viewBox="0 0 1319.7 261" style="enable-background:new 0 0 1319.7 261;" xml:space="preserve">
<title>CWDsciencecenterButtonalt</title>
<path style="fill:#F15A22;" d="M164.8,205.3c-19.1,0-34.5-15.5-34.6-34.5V47.9c0-19.4,16.1-34.5,36.6-34.5h1117.9
	c17.3,0,32.5,16.1,32.5,34.5v122.9c0,19.1-15.5,34.5-34.5,34.5H164.8z"/>
<path d="M1285.7,14.8c16.5,0,31,15.4,31,33v123c0,18.2-14.8,33-33,33H165.8c-18.2,0-33-14.8-33.1-33V47.9c0-18.5,15.4-33,35.1-33
	L1285.7,14.8 M1285.7,11.9H167.8c-21.8,0-38.1,16.2-38.1,36v122.9c0.1,19.9,16.2,35.9,36.1,36h1117.9c19.8-0.1,35.9-16.2,36-36V47.9
	C1319.7,28,1303.5,11.9,1285.7,11.9z"/>
<path style="opacity:0.9;fill:none;stroke:#FFFFFF;stroke-width:16;stroke-linecap:round;stroke-miterlimit:10;enable-background:new    ;" d="
	M208.3,135.3"/>
<path style="opacity:0.9;fill:none;stroke:#FFFFFF;stroke-width:16;stroke-linecap:round;stroke-miterlimit:10;enable-background:new    ;" d="
	M194.3,153.8"/>
<path style="opacity:0.9;fill:none;stroke:#FFFFFF;stroke-width:16;stroke-linecap:round;stroke-miterlimit:10;enable-background:new    ;" d="
	M185.9,175.1"/>
<path style="fill:#FF931E;stroke:#000000;stroke-miterlimit:10;" d="M68.2,256.6L68.2,256.6c-3.2,0-5.8-2.8-5.8-6.7V93.4
	c0.1-3.1,2.7-5.6,5.8-5.7l0,0c3.3,0.1,5.9,2.9,5.8,6.2v156.4C74.1,253.7,71.5,256.5,68.2,256.6z"/>
<path style="fill:#FF931E;stroke:#000000;stroke-miterlimit:10;" d="M62.8,0.9v74.4h9.5C72.3,75.4,78.5,11.8,62.8,0.9z"/>
<path style="fill:#FF931E;stroke:#000000;stroke-miterlimit:10;" d="M62.8,0.9v74.4h9.5C72.3,75.4,78.5,11.8,62.8,0.9z"/>
<path style="fill:#FF931E;stroke:#000000;stroke-miterlimit:10;" d="M0.7,119.6l64.9-28.5l-3.7-9.3C61.9,81.8,4.1,100.1,0.7,119.6z"
	/>
<path style="fill:#FF931E;stroke:#000000;stroke-miterlimit:10;" d="M136.3,119.6L71.4,91.2l3.7-9.3
	C75.1,81.8,132.9,100.1,136.3,119.6z"/>
<ellipse style="fill:#FF931E;stroke:#000000;stroke-miterlimit:10;" cx="68.2" cy="82.1" rx="10.7" ry="11.4"/>
<path style="fill:#F14929;stroke:#000000;stroke-miterlimit:10;" d="M324.1,231.1h78.4c1.9,0,3.4,1.5,3.4,3.4v25.7
	c0,1.9-1.5,3.4-3.4,3.4h-78.4l0,0V231.1L324.1,231.1z"/>
<path style="fill:#BDCCD4;stroke:#000000;stroke-miterlimit:10;" d="M81.9,162.2h249.3c2.9,0,5.2,2.3,5.2,5.2v92.7l0,0H81.9
	c-2.9,0-5.2-2.3-5.2-5.2v-87.5C76.7,164.5,79,162.2,81.9,162.2z"/>
<path style="fill:#2E3192;stroke:#000000;stroke-miterlimit:10;" d="M404.5,186.3H404v44.6h-81.7v-44.6h-48.2
	c0-39.7,29.2-71.9,65.2-71.9S404.5,146.6,404.5,186.3z"/>
<polygon style="fill:#2E3192;stroke:#000000;stroke-miterlimit:10;" points="226.4,154.2 226.4,162 191.3,162 191.3,154.1
	205.4,132.8 223.1,133.4 226.4,154.1 "/>
<polygon style="fill:#888DB1;stroke:#000000;stroke-miterlimit:10;" points="287.3,151.9 287.3,152.1 287.2,151.9 "/>
<polygon style="fill:#E6E6E6;stroke:#000000;stroke-miterlimit:10;" points="265.3,152.1 265.3,162.2 219.5,162.2 219.5,151.9
	237.9,124.2 260.9,125 265.3,151.9 "/>
<polygon style="fill:#888DB1;stroke:#000000;stroke-miterlimit:10;" points="287.5,153.4 287.3,153.4 287.3,152.1 "/>
<path style="fill:#888DB1;stroke:#000000;stroke-miterlimit:10;" d="M241.4,154.1L241.4,154.1L241.4,154.1z"/>
<polygon style="fill:#888DB1;stroke:#000000;stroke-miterlimit:10;" points="241.6,155.2 241.4,155.2 241.4,154.2 "/>
<path style="fill:#2E3192;stroke:#000000;stroke-miterlimit:10;" d="M93.5,207v52.4c0,0.3-0.3,0.6-0.6,0.6h-72
	c-0.3,0-0.6-0.3-0.6-0.6v-48.5c0-2.5,1.9-4.5,4.3-4.5l0,0h40.5v-30.8c0-0.8,0.6-1.4,1.4-1.4H77c0.8,0,1.4,0.6,1.4,1.4v30.8h14.5
	C93.2,206.4,93.5,206.7,93.5,207z"/>
<polyline style="fill:none;stroke:#000000;stroke-width:2;stroke-miterlimit:10;" points="86,162.7 85.7,156.2 114,159.3
	143.5,158.3 143.5,162 "/>
<polyline style="fill:none;stroke:#000000;stroke-width:2;stroke-miterlimit:10;" points="113.8,163.3 114,158.5 114,144.4
	112.1,131.4 "/>
<path style="fill:none;stroke:#000000;stroke-width:2;stroke-miterlimit:10;" d="M114,143.5l-28.3,12.7c0-1.4,26.5-25.8,26.5-25.8
	L114,143.5l26.2,14.1"/>
<line style="fill:none;stroke:#000000;stroke-width:2;stroke-miterlimit:10;" x1="143.5" y1="158.3" x2="112.1" y2="130.4"/>
<path style="fill:#FF931E;stroke:#000000;stroke-miterlimit:10;" d="M81.9,192.1h71.4c2.9,0,5.2,2.3,5.2,5.2v61.5
	c0,0.4-0.3,0.8-0.8,0.8h-81l0,0v-62.3C76.7,194.4,79,192.1,81.9,192.1z"/>
<rect x="212.1" y="165.3" style="fill:#E6E6E6;stroke:#000000;stroke-miterlimit:10;" width="24.4" height="19.4"/>
<rect x="240.3" y="165.7" style="fill:#E6E6E6;stroke:#000000;stroke-miterlimit:10;" width="24.4" height="19.4"/>
<rect x="157.5" y="182.3" style="fill:#7379A3;stroke:#000000;stroke-miterlimit:10;" width="6.1" height="8.8"/>
<rect x="157.5" y="182.3" style="fill:#7379A3;stroke:#000000;stroke-miterlimit:10;" width="6.1" height="8.8"/>
<rect x="169.9" y="182.3" style="fill:#7379A3;stroke:#000000;stroke-miterlimit:10;" width="6.1" height="8.8"/>
<rect x="213" y="204.5" style="fill:#7379A3;stroke:#000000;stroke-miterlimit:10;" width="4.7" height="5.7"/>
<rect x="218.8" y="204.5" style="fill:#7379A3;stroke:#000000;stroke-miterlimit:10;" width="4.7" height="5.7"/>
<rect x="213" y="211.8" style="fill:#7379A3;stroke:#000000;stroke-miterlimit:10;" width="4.7" height="5.7"/>
<rect x="218.8" y="211.8" style="fill:#7379A3;stroke:#000000;stroke-miterlimit:10;" width="4.7" height="5.7"/>
<rect x="218.8" y="219.2" style="fill:#7379A3;stroke:#000000;stroke-miterlimit:10;" width="4.7" height="5.7"/>
<rect x="218.8" y="226.5" style="fill:#7379A3;stroke:#000000;stroke-miterlimit:10;" width="4.7" height="5.7"/>
<rect x="213" y="219.2" style="fill:#7379A3;stroke:#000000;stroke-miterlimit:10;" width="4.7" height="5.7"/>
<rect x="213" y="226.5" style="fill:#7379A3;stroke:#000000;stroke-miterlimit:10;" width="4.7" height="5.7"/>
<rect x="198.2" y="205.7" style="fill:#7379A3;stroke:#000000;stroke-miterlimit:10;" width="3.2" height="4.4"/>
<rect x="202.2" y="205.7" style="fill:#7379A3;stroke:#000000;stroke-miterlimit:10;" width="3.2" height="4.4"/>
<rect x="198.2" y="211.4" style="fill:#7379A3;stroke:#000000;stroke-miterlimit:10;" width="3.2" height="4.4"/>
<rect x="202.2" y="211.4" style="fill:#7379A3;stroke:#000000;stroke-miterlimit:10;" width="3.2" height="4.4"/>
<rect x="202.2" y="217.1" style="fill:#7379A3;stroke:#000000;stroke-miterlimit:10;" width="3.2" height="4.4"/>
<rect x="202.2" y="222.8" style="fill:#7379A3;stroke:#000000;stroke-miterlimit:10;" width="3.2" height="4.4"/>
<rect x="198.2" y="217.1" style="fill:#7379A3;stroke:#000000;stroke-miterlimit:10;" width="3.2" height="4.4"/>
<rect x="198.2" y="222.8" style="fill:#7379A3;stroke:#000000;stroke-miterlimit:10;" width="3.2" height="4.4"/>
<rect x="227.6" y="205.5" style="fill:#7379A3;stroke:#000000;stroke-miterlimit:10;" width="10.1" height="6.2"/>
<rect x="227.6" y="212.9" style="fill:#7379A3;stroke:#000000;stroke-miterlimit:10;" width="10.1" height="6.2"/>
<rect x="227.6" y="220.3" style="fill:#7379A3;stroke:#000000;stroke-miterlimit:10;" width="10.1" height="6.2"/>
<rect x="240.2" y="205.5" style="fill:#7379A3;stroke:#000000;stroke-miterlimit:10;" width="10.1" height="6.2"/>
<rect x="240.2" y="212.9" style="fill:#7379A3;stroke:#000000;stroke-miterlimit:10;" width="10.1" height="6.2"/>
<rect x="240.2" y="220.3" style="fill:#7379A3;stroke:#000000;stroke-miterlimit:10;" width="10.1" height="6.2"/>
<rect x="240.2" y="227.6" style="fill:#7379A3;stroke:#000000;stroke-miterlimit:10;" width="10.1" height="6.2"/>
<rect x="227.6" y="227.6" style="fill:#7379A3;stroke:#000000;stroke-miterlimit:10;" width="10.1" height="6.2"/>
<rect x="227.6" y="235" style="fill:#7379A3;stroke:#000000;stroke-miterlimit:10;" width="10.1" height="6.2"/>
<rect x="240.2" y="235" style="fill:#7379A3;stroke:#000000;stroke-miterlimit:10;" width="10.1" height="6.2"/>
<rect x="240.2" y="247.2" style="fill:#7379A3;stroke:#000000;stroke-miterlimit:10;" width="10.1" height="6.2"/>
<rect x="227.6" y="247.2" style="fill:#7379A3;stroke:#000000;stroke-miterlimit:10;" width="10.1" height="6.2"/>
<rect x="255.2" y="205.5" style="fill:#7379A3;stroke:#000000;stroke-miterlimit:10;" width="10.1" height="6.2"/>
<rect x="255.2" y="212.9" style="fill:#7379A3;stroke:#000000;stroke-miterlimit:10;" width="10.1" height="6.2"/>
<rect x="255.2" y="220.2" style="fill:#7379A3;stroke:#000000;stroke-miterlimit:10;" width="10.1" height="6.2"/>
<rect x="267.9" y="205.5" style="fill:#7379A3;stroke:#000000;stroke-miterlimit:10;" width="10.1" height="6.2"/>
<rect x="267.9" y="212.9" style="fill:#7379A3;stroke:#000000;stroke-miterlimit:10;" width="10.1" height="6.2"/>
<rect x="267.9" y="220.2" style="fill:#7379A3;stroke:#000000;stroke-miterlimit:10;" width="10.1" height="6.2"/>
<rect x="267.9" y="227.6" style="fill:#7379A3;stroke:#000000;stroke-miterlimit:10;" width="10.1" height="6.2"/>
<rect x="255.2" y="227.6" style="fill:#7379A3;stroke:#000000;stroke-miterlimit:10;" width="10.1" height="6.2"/>
<rect x="255.2" y="235" style="fill:#7379A3;stroke:#000000;stroke-miterlimit:10;" width="10.1" height="6.2"/>
<rect x="267.9" y="235" style="fill:#7379A3;stroke:#000000;stroke-miterlimit:10;" width="10.1" height="6.2"/>
<rect x="267.9" y="247.2" style="fill:#7379A3;stroke:#000000;stroke-miterlimit:10;" width="10.1" height="6.2"/>
<rect x="255.2" y="247.2" style="fill:#7379A3;stroke:#000000;stroke-miterlimit:10;" width="10.1" height="6.2"/>
<g>
	<path d="M162.7,76.5c3-24.5,40.1-29,57.6-15.5c8.6,6.9-0.5,18-8.1,12.5c-9.4-6-30.7-8.9-33.3,4.4c-3.5,20.8,51.7,8.9,50.9,42.5
		c-0.9,32.2-47.5,33-65,18.5c-3.7-3.1-4.5-8.5-1.8-12.5c3.3-3.3,6.9-4.4,11.3-0.9c10.4,7.1,37.1,12.5,39.1-5.5
		C211.5,101.1,158.7,112.3,162.7,76.5z"/>
	<path d="M245.4,100.6c0-24.4,15.3-45.5,44.5-45.5c11,0,19.9,3.3,29,11.3c3.5,3,3.9,8.1,0.9,11.6s-8.1,3.9-11.6,0.9
		c-0.3-0.1-0.4-0.4-0.6-0.6c-5.1-5.4-10.5-6.9-17.7-6.9c-19.5,0-28.9,13.7-28.9,29.3c0,15.7,9.3,30.2,28.9,30.2
		c7.5-0.1,14.5-3,19.9-8.1c3.7-2.7,8.7-2.1,11.7,1.5c2.1,2.8,3.1,7.5-1.4,11.9c-8.9,8.2-19.5,9.9-30.1,9.9
		C259.3,146,245.4,125,245.4,100.6z"/>
	<path d="M343.2,64.9c0-10.4,16.8-10.8,16.8,0v72.3c0,10.5-16.8,10.8-16.8,0V64.9z"/>
	<path d="M390.9,145.1c-4.2,0-7.8-3.3-7.8-7.6c0-0.1,0-0.1,0-0.3v-72c-0.1-4.2,3.2-7.7,7.5-7.8c0.1,0,0.3,0,0.4,0h45.5
		c11.7,0,11.4,16.4,0,16.4h-36.5v18.9h32c11.3,0,11.3,16.6,0,16.6h-32v19h38.7c11.6,0,12.5,16.6,0,16.6h-47.7V145.1z"/>
	<path d="M465.7,66.2c0-4.6,1-9,7.6-9c4.6,0,5.5,1.2,9,4.5l42,52.4V64.9c0-4.2,3.7-8.7,8-8.7c4.8,0.3,8.6,4,9,8.7v71.3
		c0,5.5-3.5,7.7-6.7,8.7c-4.5,0-6.6-1-10.3-4.5l-42-53.2v48.8c0,5.5-3.5,8.7-8,8.7c-4.6,0.1-8.5-3.5-8.6-8.1c0-0.3,0-0.4,0-0.6V66.2
		z"/>
	<path d="M560.1,100.6c0-24.4,15.3-45.5,44.5-45.5c11,0,19.8,3.3,29,11.3c3.5,3,4,8.1,1,11.6c-3,3.5-8.1,4-11.6,1
		c-0.3-0.3-0.5-0.5-0.8-0.8c-5.3-5.4-10.5-6.9-17.7-6.9c-19.5,0-28.9,13.7-28.9,29.3c0,15.7,9.3,30.2,28.9,30.2
		c7.3-0.1,14.4-3.1,19.8-8.1c3.7-2.7,8.9-2.1,11.7,1.5c2.1,2.8,3.1,7.5-1.4,11.9c-8.9,8.2-19.5,9.9-30.1,9.9
		C573.8,146,560.1,125,560.1,100.6z"/>
	<path d="M664.5,145.1c-4.2,0.1-7.8-3.3-7.8-7.6c0-0.1,0-0.1,0-0.3v-72c-0.1-4.2,3.2-7.7,7.5-7.8c0.1,0,0.3,0,0.4,0H710
		c11.7,0,11.4,16.4,0,16.4h-36.5v18.9h31.9c11.3,0,11.3,16.6,0,16.6h-31.9v19h38.7c11.6,0,12.5,16.6,0,16.6h-47.7V145.1z"/>
	<path d="M777.5,100.6c0-24.4,15.3-45.5,44.5-45.5c11,0,19.9,3.3,29,11.3c3.5,3,3.9,8.1,0.9,11.6c-3,3.5-8.1,3.9-11.6,0.9
		c-0.3-0.1-0.4-0.4-0.6-0.6c-5.1-5.4-10.5-6.9-17.7-6.9c-19.5,0-28.9,13.7-28.9,29.3c0,15.7,9.3,30.2,28.9,30.2
		c7.5-0.1,14.5-3,19.9-8.1c3.7-2.7,8.7-2.1,11.7,1.5c2.1,2.8,3.1,7.5-1.4,11.9c-8.9,8.2-19.5,9.9-30.1,9.9
		C791.4,146,777.5,125,777.5,100.6z"/>
	<path d="M882.1,145.1c-4.2,0.1-7.8-3.3-7.8-7.6c0-0.1,0-0.1,0-0.3v-72c-0.1-4.2,3.2-7.7,7.5-7.8c0.1,0,0.3,0,0.4,0h45.5
		c11.7,0,11.4,16.4,0,16.4h-36.5v18.9h32c11.3,0,11.3,16.6,0,16.6h-32v19h38.7c11.6,0,12.5,16.6,0,16.6h-47.7V145.1z"/>
	<path d="M957,66.2c0-4.6,1-9,7.6-9c4.6,0,5.7,1.2,9,4.5l42,52.4V64.9c0-4.2,3.7-8.7,8-8.7c4.8,0.3,8.6,4,9,8.7v71.3
		c0,5.5-3.5,7.7-6.7,8.7c-4.4,0-6.6-1-10.3-4.5l-42-53.2v48.8c0,5.5-3.5,8.7-8,8.7c-4.6,0.1-8.5-3.5-8.6-8.1c0-0.3,0-0.4,0-0.6
		L957,66.2z"/>
	<path d="M1078.4,73.3h-22.2c-11,0-11-16.2,0-16.2h60c4.5,0,8.1,3.6,8.1,8.1c0,4.5-3.6,8.1-8.1,8.1h-20.9v64c0,11-16.8,11.3-16.8,0
		L1078.4,73.3L1078.4,73.3z"/>
	<path d="M1148.8,145.1c-4.2,0.1-7.8-3.3-7.8-7.6c0-0.1,0-0.1,0-0.3v-72c-0.1-4.2,3.2-7.7,7.5-7.8c0.1,0,0.3,0,0.4,0h45.5
		c11.7,0,11.4,16.4,0,16.4h-36.6v18.9h32.1c11.3,0,11.3,16.6,0,16.6h-32.1v19h38.7c11.6,0,12.5,16.6,0,16.6h-47.5L1148.8,145.1
		L1148.8,145.1z"/>
	<path d="M1240.3,136.9c0,11-16.8,11.4-16.8,0.3v-72c0-4.2,3.3-7.7,7.6-7.7c0,0,0,0,0.1,0h33.7c32.2,0,38.8,43,11.9,53.8l16.8,20.6
		c6.6,9.8-6.6,19.1-14.3,9.5l-19.1-27.4h-19.9V136.9z M1240.3,99.3h24.4c16.4,0,17.5-26.6,0-26.6h-24.4V99.3z"/>
</g>
</svg>
