<?xml version="1.0" encoding="utf-8"?>
<!-- Generator: Adobe Illustrator 24.1.0, SVG Export Plug-In . SVG Version: 6.00 Build 0)  -->
<svg version="1.1" id="Layer_1" xmlns="http://www.w3.org/2000/svg" xmlns:xlink="http://www.w3.org/1999/xlink" x="0px" y="0px"
	 viewBox="0 0 415.7 263" style="enable-background:new 0 0 415.7 263;" xml:space="preserve">
<style type="text/css">
	.st0{fill:none;}
	.st1{opacity:0.9;fill:none;stroke:#FFFFFF;stroke-width:16;stroke-linecap:round;stroke-miterlimit:10;enable-background:new    ;}
	.st2{fill:#FF931E;}
	.st3{fill:#F14929;}
	.st4{fill:#BDCCD4;}
	.st5{fill:#2E3192;}
	.st6{fill:#888DB1;}
	.st7{fill:#E6E6E6;}
	.st8{fill:none;stroke:#E6E6E6;stroke-miterlimit:10;}
	.st9{fill:#7379A3;stroke:#000000;stroke-miterlimit:10;}
	.st10{fill:#7379A3;}
</style>
<path class="st0" d="M210.9,136.4"/>
<path class="st0" d="M196.7,155.1"/>
<path class="st1" d="M188.2,176.6"/>
<path class="st2" d="M69.1,258.9L69.1,258.9c-3.2,0-5.9-2.8-5.9-6.8v-158c0.1-3.1,2.7-5.7,5.9-5.8l0,0c3.3,0.1,6,2.9,5.9,6.3v157.9
	C75,256,72.4,258.8,69.1,258.9z"/>
<path class="st2" d="M63.6,0.7v75.1h9.6C73.2,75.9,79.5,11.7,63.6,0.7z"/>
<path class="st2" d="M63.6,0.7v75.1h9.6C73.2,75.9,79.5,11.7,63.6,0.7z"/>
<path class="st2" d="M0.7,118.6l65.7-28.8l-3.7-9.4C62.7,80.4,4.1,98.9,0.7,118.6z"/>
<path class="st2" d="M138,117.6L72.3,88.9l3.7-9.4C76,79.4,134.6,97.9,138,117.6z"/>
<ellipse class="st2" cx="69.1" cy="82.7" rx="10.8" ry="11.5"/>
<path class="st3" d="M327.5,230.4h79.4c1.9,0,3.4,1.5,3.4,3.4v26c0,1.9-1.5,3.4-3.4,3.4h-79.4l0,0V230.4L327.5,230.4z"/>
<path class="st4" d="M82.9,163.6h252.4c2.9,0,5.3,2.3,5.3,5.3v93.6l0,0H82.9c-2.9,0-5.3-2.3-5.3-5.3v-88.4
	C77.7,165.9,80,163.6,82.9,163.6z"/>
<path class="st5" d="M415.7,187.9h-0.5v45h-86.6v-45h-51.1c0-40.1,30.9-72.6,69.1-72.6S415.7,147.8,415.7,187.9z"/>
<polygon class="st5" points="229.2,155.5 229.2,163.4 193.7,163.4 193.7,155.4 208,133.9 225.9,134.5 229.2,155.4 "/>
<polygon class="st6" points="290.9,153.2 290.9,153.4 290.8,153.2 "/>
<polygon class="st7" points="268.6,153.4 268.6,163.6 222.3,163.6 222.3,153.2 240.9,125.2 264.2,126 268.6,153.2 "/>
<polygon class="st6" points="291.1,154.7 290.9,154.7 290.9,153.4 "/>
<path class="st6" d="M244.4,155.4L244.4,155.4L244.4,155.4z"/>
<polygon class="st6" points="244.6,156.5 244.4,156.5 244.4,155.5 "/>
<path class="st5" d="M94.7,209.8v52.9c0,0.3-0.3,0.6-0.6,0.6H21.2c-0.3,0-0.6-0.3-0.6-0.6v-49c0-2.5,1.9-4.5,4.4-4.5l0,0h41v-31.1
	c0-0.8,0.6-1.4,1.4-1.4H78c0.8,0,1.4,0.6,1.4,1.4v31.1h14.7C94.4,209.2,94.7,209.5,94.7,209.8z"/>
<polyline class="st8" points="87.1,164.1 86.8,157.5 115.4,160.7 145.3,159.7 145.3,163.4 "/>
<polyline class="st8" points="115.2,164.7 115.4,159.9 115.4,145.6 113.5,132.5 "/>
<path class="st8" d="M115.4,144.7l-28.7,12.8c0-1.4,26.8-26.1,26.8-26.1L115.4,144.7l26.5,14.2"/>
<line class="st8" x1="145.3" y1="159.7" x2="113.5" y2="131.5"/>
<path class="st2" d="M82.9,194.8h72.3c2.9,0,5.3,2.3,5.3,5.3v62.1c0,0.4-0.3,0.8-0.8,0.8h-82l0,0v-63
	C77.7,197.1,80,194.8,82.9,194.8z"/>
<rect x="214.8" y="166.7" class="st7" width="24.7" height="19.6"/>
<rect x="243.3" y="167.1" class="st7" width="24.7" height="19.6"/>
<rect x="159.5" y="183.9" class="st9" width="6.2" height="8.9"/>
<rect x="159.5" y="183.9" class="st9" width="6.2" height="8.9"/>
<rect x="172" y="183.9" class="st9" width="6.2" height="8.9"/>
<rect x="215.7" y="206.3" class="st10" width="4.8" height="5.8"/>
<rect x="221.5" y="206.3" class="st10" width="4.8" height="5.8"/>
<rect x="215.7" y="213.7" class="st10" width="4.8" height="5.8"/>
<rect x="221.5" y="213.7" class="st10" width="4.8" height="5.8"/>
<rect x="221.5" y="221.2" class="st10" width="4.8" height="5.8"/>
<rect x="221.5" y="228.5" class="st10" width="4.8" height="5.8"/>
<rect x="215.7" y="221.2" class="st10" width="4.8" height="5.8"/>
<rect x="215.7" y="228.5" class="st10" width="4.8" height="5.8"/>
<rect x="200.7" y="207.5" class="st10" width="3.2" height="4.4"/>
<rect x="204.7" y="207.5" class="st10" width="3.2" height="4.4"/>
<rect x="200.7" y="213.3" class="st10" width="3.2" height="4.4"/>
<rect x="204.7" y="213.3" class="st10" width="3.2" height="4.4"/>
<rect x="204.7" y="219" class="st10" width="3.2" height="4.4"/>
<rect x="204.7" y="224.8" class="st10" width="3.2" height="4.4"/>
<rect x="200.7" y="219" class="st10" width="3.2" height="4.4"/>
<rect x="200.7" y="224.8" class="st10" width="3.2" height="4.4"/>
<rect x="230.5" y="207.3" class="st10" width="10.2" height="6.3"/>
<rect x="230.5" y="214.8" class="st10" width="10.2" height="6.3"/>
<rect x="230.5" y="222.3" class="st10" width="10.2" height="6.3"/>
<rect x="243.2" y="207.3" class="st10" width="10.2" height="6.3"/>
<rect x="243.2" y="214.8" class="st10" width="10.2" height="6.3"/>
<rect x="243.2" y="222.3" class="st10" width="10.2" height="6.3"/>
<rect x="243.2" y="229.6" class="st10" width="10.2" height="6.3"/>
<rect x="230.5" y="229.6" class="st10" width="10.2" height="6.3"/>
<rect x="230.5" y="237.1" class="st10" width="10.2" height="6.3"/>
<rect x="243.2" y="237.1" class="st10" width="10.2" height="6.3"/>
<rect x="243.2" y="249.4" class="st10" width="10.2" height="6.3"/>
<rect x="230.5" y="249.4" class="st10" width="10.2" height="6.3"/>
<rect x="258.4" y="207.3" class="st10" width="10.2" height="6.3"/>
<rect x="258.4" y="214.8" class="st10" width="10.2" height="6.3"/>
<rect x="258.4" y="222.2" class="st10" width="10.2" height="6.3"/>
<rect x="271.3" y="207.3" class="st10" width="10.2" height="6.3"/>
<rect x="271.3" y="214.8" class="st10" width="10.2" height="6.3"/>
<rect x="271.3" y="222.2" class="st10" width="10.2" height="6.3"/>
<rect x="271.3" y="229.6" class="st10" width="10.2" height="6.3"/>
<rect x="258.4" y="229.6" class="st10" width="10.2" height="6.3"/>
<rect x="258.4" y="237.1" class="st10" width="10.2" height="6.3"/>
<rect x="271.3" y="237.1" class="st10" width="10.2" height="6.3"/>
<rect x="271.3" y="249.4" class="st10" width="10.2" height="6.3"/>
<rect x="258.4" y="249.4" class="st10" width="10.2" height="6.3"/>
</svg>
