<svg id="Layer_1" data-name="Layer 1" 
  xmlns="http://www.w3.org/2000/svg" viewBox="0 0 1319.72 342.47">
  <title>CWDsciencecenterButton2</title>
  <path d="M165.77,341a34.59,34.59,0,0,1-34.55-34.55V183.51c0-19.37,16.05-34.54,36.55-34.54H1285.68c17.34,0,32.54,16.14,32.54,34.54V306.42A34.58,34.58,0,0,1,1283.68,341Z" fill="#fff"/>
  <path d="M208.31,135.33" fill="none" stroke="#fff" stroke-linecap="round" stroke-miterlimit="10" stroke-width="16" opacity="0.9" style="isolation:isolate"/>
  <path d="M194.27,153.76" fill="none" stroke="#fff" stroke-linecap="round" stroke-miterlimit="10" stroke-width="16" opacity="0.9" style="isolation:isolate"/>
  <path d="M185.92,175.1" fill="none" stroke="#fff" stroke-linecap="round" stroke-miterlimit="10" stroke-width="16" opacity="0.9" style="isolation:isolate"/>
  <path d="M68.15,298.58h0c-3.22,0-5.85-2.79-5.85-6.72V93.44a5.94,5.94,0,0,1,5.85-5.68h0A6.06,6.06,0,0,1,74,94V292.38A6.06,6.06,0,0,1,68.15,298.58Z" fill="#ff931e" stroke="#000" stroke-miterlimit="10"/>
  <path d="M62.78,1V75.36h9.54S78.5,11.84,62.78,1Z" fill="#ff931e" stroke="#000" stroke-miterlimit="10"/>
  <path d="M62.78,1V75.36h9.54S78.5,11.84,62.78,1Z" fill="#ff931e" stroke="#000" stroke-miterlimit="10"/>
  <path d="M.66,119.65,65.58,91.18l-3.65-9.34S4.14,100.11.66,119.65Z" fill="#ff931e" stroke="#000" stroke-miterlimit="10"/>
  <path d="M136.34,119.65,71.42,91.18l3.65-9.34S132.85,100.11,136.34,119.65Z" fill="#ff931e" stroke="#000" stroke-miterlimit="10"/>
  <ellipse cx="68.15" cy="82.08" rx="10.74" ry="11.37" fill="#ff931e" stroke="#000" stroke-miterlimit="10"/>
  <path d="M22.56,252.38H90.88a.6.6,0,0,1,.6.6v49.79a.6.6,0,0,1-.6.6h-72a.6.6,0,0,1-.6-.6V256.66A4.27,4.27,0,0,1,22.56,252.38Z" fill="#2e3192" stroke="#000" stroke-miterlimit="10"/>
  <path d="M332.14,274.08h78.42a3.36,3.36,0,0,1,3.36,3.36v25.74a3.36,3.36,0,0,1-3.36,3.36H332.14a0,0,0,0,1,0,0V274.08a0,0,0,0,1,0,0Z" fill="#f14929" stroke="#000" stroke-miterlimit="10"/>
  <path d="M79.86,208.21H329.16a5.18,5.18,0,0,1,5.18,5.18v92.71a0,0,0,0,1,0,0H79.86a5.18,5.18,0,0,1-5.18-5.18V213.38A5.18,5.18,0,0,1,79.86,208.21Z" fill="#bdccd4" stroke="#000" stroke-miterlimit="10"/>
  <path d="M286.1,237.32c0-39.7,29.19-71.87,65.21-71.87s65.22,32.17,65.22,71.87" fill="#2e3192" stroke="#000" stroke-miterlimit="10"/>
  <rect x="334.34" y="232.94" width="81.74" height="48.94" fill="#2e3192" stroke="#000" stroke-miterlimit="10"/>
  <polygon points="239.42 200.21 239.42 207.98 204.28 207.98 204.28 200.08 218.4 178.84 236.05 179.4 239.4 200.08 239.42 200.21" fill="#2e3192" stroke="#000" stroke-miterlimit="10"/>
  <polygon points="285.27 197.91 285.27 198.08 285.25 197.91 285.27 197.91" fill="#888db1" stroke="#000" stroke-miterlimit="10"/>
  <polygon points="278.32 198.08 278.32 208.21 232.53 208.21 232.53 197.91 250.93 170.24 273.93 170.97 278.3 197.91 278.32 198.08" fill="#e6e6e6" stroke="#000" stroke-miterlimit="10"/>
  <polygon points="285.49 199.37 285.27 199.37 285.27 198.08 285.49 199.37" fill="#888db1" stroke="#000" stroke-miterlimit="10"/>
  <polygon points="239.42 200.08 239.42 200.21 239.4 200.08 239.42 200.08" fill="#888db1" stroke="#000" stroke-miterlimit="10"/>
  <polygon points="239.58 201.2 239.42 201.19 239.42 200.21 239.58 201.2" fill="#888db1" stroke="#000" stroke-miterlimit="10"/>
  <path d="M64.48,220.16H75a1.38,1.38,0,0,1,1.38,1.38V288a.07.07,0,0,1-.07.07H63.11a0,0,0,0,1,0,0V221.54a1.38,1.38,0,0,1,1.38-1.38Z" fill="#2e3192" stroke="#000" stroke-miterlimit="10"/>
  <polyline points="83.97 208.72 83.69 202.2 112.04 205.29 141.48 204.26 141.48 208.04" fill="none" stroke="#000" stroke-miterlimit="10" stroke-width="2"/>
  <polyline points="111.77 209.32 112.04 204.51 112.04 190.43 110.14 177.38" fill="none" stroke="#000" stroke-miterlimit="10" stroke-width="2"/>
  <path d="M112,189.49,83.69,202.2c0-1.38,26.45-25.76,26.45-25.76l1.9,13.05,26.17,14.08" fill="none" stroke="#000" stroke-miterlimit="10" stroke-width="2"/>
  <line x1="141.48" y1="204.26" x2="110.14" y2="176.44" fill="none" stroke="#000" stroke-miterlimit="10" stroke-width="2"/>
  <path d="M79.87,238.09H151.3a5.18,5.18,0,0,1,5.18,5.18V304.8a.77.77,0,0,1-.77.77h-81a0,0,0,0,1,0,0V243.26A5.18,5.18,0,0,1,79.87,238.09Z" fill="#ff931e" stroke="#000" stroke-miterlimit="10"/>
  <rect x="225.1" y="211.29" width="24.44" height="19.45" fill="#e6e6e6" stroke="#000" stroke-miterlimit="10"/>
  <rect x="253.26" y="211.72" width="24.44" height="19.45" fill="#e6e6e6" stroke="#000" stroke-miterlimit="10"/>
  <rect x="155.54" y="228.3" width="6.13" height="8.76" fill="#7379a3" stroke="#000" stroke-miterlimit="10"/>
  <rect x="155.54" y="228.3" width="6.13" height="8.76" fill="#7379a3" stroke="#000" stroke-miterlimit="10"/>
  <rect x="167.93" y="228.3" width="6.13" height="8.76" fill="#7379a3" stroke="#000" stroke-miterlimit="10"/>
  <rect x="211" y="250.46" width="4.72" height="5.67" fill="#7379a3" stroke="#000" stroke-miterlimit="10"/>
  <rect x="216.84" y="250.46" width="4.72" height="5.67" fill="#7379a3" stroke="#000" stroke-miterlimit="10"/>
  <rect x="211" y="257.82" width="4.72" height="5.67" fill="#7379a3" stroke="#000" stroke-miterlimit="10"/>
  <rect x="216.84" y="257.82" width="4.72" height="5.67" fill="#7379a3" stroke="#000" stroke-miterlimit="10"/>
  <rect x="216.84" y="265.18" width="4.72" height="5.67" fill="#7379a3" stroke="#000" stroke-miterlimit="10"/>
  <rect x="216.84" y="272.54" width="4.72" height="5.67" fill="#7379a3" stroke="#000" stroke-miterlimit="10"/>
  <rect x="211" y="265.18" width="4.72" height="5.67" fill="#7379a3" stroke="#000" stroke-miterlimit="10"/>
  <rect x="211" y="272.54" width="4.72" height="5.67" fill="#7379a3" stroke="#000" stroke-miterlimit="10"/>
  <rect x="196.16" y="251.73" width="3.23" height="4.39" fill="#7379a3" stroke="#000" stroke-miterlimit="10"/>
  <rect x="200.16" y="251.73" width="3.23" height="4.39" fill="#7379a3" stroke="#000" stroke-miterlimit="10"/>
  <rect x="196.16" y="257.42" width="3.23" height="4.39" fill="#7379a3" stroke="#000" stroke-miterlimit="10"/>
  <rect x="200.16" y="257.42" width="3.23" height="4.39" fill="#7379a3" stroke="#000" stroke-miterlimit="10"/>
  <rect x="200.16" y="263.12" width="3.23" height="4.39" fill="#7379a3" stroke="#000" stroke-miterlimit="10"/>
  <rect x="200.16" y="268.82" width="3.23" height="4.39" fill="#7379a3" stroke="#000" stroke-miterlimit="10"/>
  <rect x="196.16" y="263.12" width="3.23" height="4.39" fill="#7379a3" stroke="#000" stroke-miterlimit="10"/>
  <rect x="196.16" y="268.82" width="3.23" height="4.39" fill="#7379a3" stroke="#000" stroke-miterlimit="10"/>
  <rect x="225.57" y="251.54" width="10.07" height="6.21" fill="#7379a3" stroke="#000" stroke-miterlimit="10"/>
  <rect x="225.57" y="258.9" width="10.07" height="6.21" fill="#7379a3" stroke="#000" stroke-miterlimit="10"/>
  <rect x="225.57" y="266.26" width="10.07" height="6.21" fill="#7379a3" stroke="#000" stroke-miterlimit="10"/>
  <rect x="238.23" y="251.54" width="10.07" height="6.21" fill="#7379a3" stroke="#000" stroke-miterlimit="10"/>
  <rect x="238.23" y="258.9" width="10.07" height="6.21" fill="#7379a3" stroke="#000" stroke-miterlimit="10"/>
  <rect x="238.23" y="266.26" width="10.07" height="6.21" fill="#7379a3" stroke="#000" stroke-miterlimit="10"/>
  <rect x="238.23" y="273.62" width="10.07" height="6.21" fill="#7379a3" stroke="#000" stroke-miterlimit="10"/>
  <rect x="225.57" y="273.62" width="10.07" height="6.21" fill="#7379a3" stroke="#000" stroke-miterlimit="10"/>
  <rect x="225.57" y="280.98" width="10.07" height="6.21" fill="#7379a3" stroke="#000" stroke-miterlimit="10"/>
  <rect x="238.23" y="280.98" width="10.07" height="6.21" fill="#7379a3" stroke="#000" stroke-miterlimit="10"/>
  <rect x="238.23" y="293.25" width="10.07" height="6.21" fill="#7379a3" stroke="#000" stroke-miterlimit="10"/>
  <rect x="225.57" y="293.25" width="10.07" height="6.21" fill="#7379a3" stroke="#000" stroke-miterlimit="10"/>
  <rect x="253.22" y="251.52" width="10.07" height="6.21" fill="#7379a3" stroke="#000" stroke-miterlimit="10"/>
  <rect x="253.22" y="258.88" width="10.07" height="6.21" fill="#7379a3" stroke="#000" stroke-miterlimit="10"/>
  <rect x="253.22" y="266.24" width="10.07" height="6.21" fill="#7379a3" stroke="#000" stroke-miterlimit="10"/>
  <rect x="265.88" y="251.52" width="10.07" height="6.21" fill="#7379a3" stroke="#000" stroke-miterlimit="10"/>
  <rect x="265.88" y="258.88" width="10.07" height="6.21" fill="#7379a3" stroke="#000" stroke-miterlimit="10"/>
  <rect x="265.88" y="266.24" width="10.07" height="6.21" fill="#7379a3" stroke="#000" stroke-miterlimit="10"/>
  <rect x="265.88" y="273.6" width="10.07" height="6.21" fill="#7379a3" stroke="#000" stroke-miterlimit="10"/>
  <rect x="253.22" y="273.6" width="10.07" height="6.21" fill="#7379a3" stroke="#000" stroke-miterlimit="10"/>
  <rect x="253.22" y="280.96" width="10.07" height="6.21" fill="#7379a3" stroke="#000" stroke-miterlimit="10"/>
  <rect x="265.88" y="280.96" width="10.07" height="6.21" fill="#7379a3" stroke="#000" stroke-miterlimit="10"/>
  <rect x="265.88" y="293.22" width="10.07" height="6.21" fill="#7379a3" stroke="#000" stroke-miterlimit="10"/>
  <rect x="253.22" y="293.22" width="10.07" height="6.21" fill="#7379a3" stroke="#000" stroke-miterlimit="10"/>
  <path d="M466.41,226.6c1.91-16.1,26.23-19,37.68-10.21,5.65,4.56-.33,11.78-5.31,8.13-6.14-3.9-20.08-5.72-21.83,2.91-2.24,13.61,33.86,5.81,33.28,27.88-.58,21.08-31.12,21.58-42.57,12.12a6.13,6.13,0,0,1-1.16-8.13c2.15-2.16,4.56-2.91,7.38-.58,6.81,4.64,24.32,8.13,25.56-3.66C498.37,242.78,463.84,250.17,466.41,226.6Z"/>
  <path d="M520.61,242.45c0-16,10-29.8,29.13-29.8,7.22,0,13,2.16,19,7.39a5.38,5.38,0,1,1-7.39,7.8c-3.4-3.57-6.89-4.56-11.62-4.56-12.78,0-18.92,9-18.92,19.17,0,10.29,6.06,19.75,18.92,19.75a19.35,19.35,0,0,0,13-5.31,5.58,5.58,0,0,1,7.63,1c1.33,1.82,2,4.89-.91,7.8-5.81,5.39-12.78,6.47-19.67,6.47C529.66,272.16,520.61,258.47,520.61,242.45Z"/>
  <path d="M584.6,219.13c0-6.81,11-7.06,11,0v47.39c0,6.89-11,7.05-11,0Z"/>
  <path d="M615.81,271.58a5.07,5.07,0,0,1-5.14-5.15V219.29a5,5,0,0,1,5.14-5.14h29.8c7.63,0,7.46,10.79,0,10.79H621.7v12.45h20.92c7.38,0,7.38,10.87,0,10.87H621.7v12.45H647c7.55,0,8.13,10.87,0,10.87Z"/>
  <path d="M664.78,220c0-3,.66-5.89,5-5.89,3,0,3.65.74,5.89,2.9l27.47,34.36v-32.2c0-2.74,2.41-5.73,5.23-5.73a6.32,6.32,0,0,1,5.89,5.73v46.72c0,3.65-2.24,5.07-4.39,5.73-2.91,0-4.32-.66-6.73-2.9l-27.47-34.86v32c0,3.65-2.24,5.73-5.23,5.73a5.47,5.47,0,0,1-5.64-5.73Z"/>
  <path d="M726.62,242.45c0-16,10-29.8,29.13-29.8,7.22,0,12.94,2.16,19,7.39a5.38,5.38,0,1,1-7.38,7.8c-3.41-3.57-6.89-4.56-11.62-4.56-12.79,0-18.93,9-18.93,19.17,0,10.29,6.06,19.75,18.93,19.75a19.31,19.31,0,0,0,12.94-5.31,5.59,5.59,0,0,1,7.64,1c1.33,1.82,2,4.89-.91,7.8-5.81,5.39-12.79,6.47-19.67,6.47C735.66,272.16,726.62,258.47,726.62,242.45Z"/>
  <path d="M795.09,271.58a5.07,5.07,0,0,1-5.15-5.15V219.29a5,5,0,0,1,5.15-5.14h29.79c7.64,0,7.47,10.79,0,10.79H801v12.45H821.9c7.38,0,7.38,10.87,0,10.87H801v12.45h25.31c7.56,0,8.14,10.87,0,10.87Z"/>
  <path d="M869,242.45c0-16,10-29.8,29.13-29.8,7.22,0,13,2.16,19,7.39a5.38,5.38,0,1,1-7.39,7.8c-3.4-3.57-6.89-4.56-11.62-4.56-12.78,0-18.92,9-18.92,19.17,0,10.29,6.06,19.75,18.92,19.75a19.35,19.35,0,0,0,13-5.31,5.58,5.58,0,0,1,7.63,1c1.33,1.82,2,4.89-.91,7.8-5.81,5.39-12.78,6.47-19.67,6.47C878.09,272.16,869,258.47,869,242.45Z"/>
  <path d="M937.52,271.58a5.07,5.07,0,0,1-5.15-5.15V219.29a5,5,0,0,1,5.15-5.14h29.79c7.64,0,7.47,10.79,0,10.79h-23.9v12.45h20.91c7.39,0,7.39,10.87,0,10.87H943.41v12.45h25.31c7.55,0,8.13,10.87,0,10.87Z"/>
  <path d="M986.49,220c0-3,.66-5.89,5-5.89,3,0,3.66.74,5.9,2.9l27.47,34.36v-32.2c0-2.74,2.4-5.73,5.23-5.73a6.32,6.32,0,0,1,5.89,5.73v46.72c0,3.65-2.24,5.07-4.4,5.73-2.9,0-4.32-.66-6.72-2.9l-27.47-34.86v32c0,3.65-2.24,5.73-5.23,5.73a5.47,5.47,0,0,1-5.64-5.73Z"/>
  <path d="M1066,224.52h-14.53c-7.22,0-7.22-10.62,0-10.62h39.26a5.31,5.31,0,1,1,0,10.62H1077v41.91c0,7.22-11,7.39-11,0Z"/>
  <path d="M1112.15,271.58a5.07,5.07,0,0,1-5.15-5.15V219.29a5,5,0,0,1,5.15-5.14h29.79c7.64,0,7.47,10.79,0,10.79H1118v12.45H1139c7.39,0,7.39,10.87,0,10.87H1118v12.45h25.31c7.55,0,8.13,10.87,0,10.87Z"/>
  <path d="M1172.07,266.19c0,7.22-11,7.46-11,.16V219.21a5,5,0,0,1,5-5.06h22.08c21.08,0,25.39,28.22,7.8,35.27l11,13.45c4.31,6.39-4.32,12.53-9.3,6.22l-12.53-17.93h-13Zm0-24.57h16c10.79,0,11.45-17.43,0-17.43h-16Z"/>
</svg>