<?xml version="1.0" encoding="utf-8"?>
<!-- Generator: Adobe Illustrator 23.0.6, SVG Export Plug-In . SVG Version: 6.00 Build 0)  -->
<svg version="1.1" xmlns="http://www.w3.org/2000/svg" xmlns:xlink="http://www.w3.org/1999/xlink" x="0px" y="0px"
	 viewBox="0 0 1319.7 261" style="enable-background:new 0 0 1319.7 261;" xml:space="preserve">
<style type="text/css">
	.st0{fill:#FFFFFF;}
	.st1{opacity:0.9;fill:none;stroke:#FFFFFF;stroke-width:16;stroke-linecap:round;stroke-miterlimit:10;enable-background:new    ;}
	.st2{fill:#FF931E;stroke:#000000;stroke-miterlimit:10;}
	.st3{fill:#F14929;stroke:#000000;stroke-miterlimit:10;}
	.st4{fill:#BDCCD4;stroke:#000000;stroke-miterlimit:10;}
	.st5{fill:#2E3192;stroke:#000000;stroke-miterlimit:10;}
	.st6{fill:#888DB1;stroke:#000000;stroke-miterlimit:10;}
	.st7{fill:#E6E6E6;stroke:#000000;stroke-miterlimit:10;}
	.st8{fill:none;stroke:#000000;stroke-width:2;stroke-miterlimit:10;}
	.st9{fill:#7379A3;stroke:#000000;stroke-miterlimit:10;}
</style>
<g id="Layer_1">
	<title>CWDsciencecenterButtonalt</title>
	<path class="st0" d="M164.8,205.3c-19.1,0-34.5-15.5-34.6-34.5V47.9c0-19.4,16.1-34.5,36.6-34.5h1117.9c17.3,0,32.5,16.1,32.5,34.5
		v122.9c0,19.1-15.5,34.5-34.5,34.5H164.8z"/>
	<path d="M1285.7,14.8c16.5,0,31,15.4,31,33v123c0,18.2-14.8,33-33,33H165.8c-18.2,0-33-14.8-33.1-33V47.9c0-18.5,15.4-33,35.1-33
		L1285.7,14.8 M1285.7,11.9H167.8c-21.8,0-38.1,16.2-38.1,36v122.9c0.1,19.9,16.2,35.9,36.1,36h1117.9c19.8-0.1,35.9-16.2,36-36
		V47.9C1319.7,28,1303.5,11.9,1285.7,11.9z"/>
	<path class="st1" d="M208.3,135.3"/>
	<path class="st1" d="M194.3,153.8"/>
	<path class="st1" d="M185.9,175.1"/>
	<path class="st2" d="M68.2,256.6L68.2,256.6c-3.2,0-5.8-2.8-5.8-6.7V93.4c0.1-3.1,2.7-5.6,5.8-5.7l0,0c3.3,0.1,5.9,2.9,5.8,6.2
		v156.4C74.1,253.7,71.5,256.5,68.2,256.6z"/>
	<path class="st2" d="M62.8,0.9v74.4h9.5C72.3,75.4,78.5,11.8,62.8,0.9z"/>
	<path class="st2" d="M62.8,0.9v74.4h9.5C72.3,75.4,78.5,11.8,62.8,0.9z"/>
	<path class="st2" d="M0.7,119.6l64.9-28.5l-3.7-9.3C61.9,81.8,4.1,100.1,0.7,119.6z"/>
	<path class="st2" d="M136.3,119.6L71.4,91.2l3.7-9.3C75.1,81.8,132.9,100.1,136.3,119.6z"/>
	<ellipse class="st2" cx="68.2" cy="82.1" rx="10.7" ry="11.4"/>
	<path class="st3" d="M324.1,231.1h78.4c1.9,0,3.4,1.5,3.4,3.4v25.7c0,1.9-1.5,3.4-3.4,3.4h-78.4l0,0V231.1L324.1,231.1z"/>
	<path class="st4" d="M81.9,162.2h249.3c2.9,0,5.2,2.3,5.2,5.2v92.7l0,0H81.9c-2.9,0-5.2-2.3-5.2-5.2v-87.5
		C76.7,164.5,79,162.2,81.9,162.2z"/>
	<path class="st5" d="M404.5,186.3h-0.5v44.6h-81.7v-44.6h-48.2c0-39.7,29.2-71.9,65.2-71.9S404.5,146.6,404.5,186.3z"/>
	<polygon class="st5" points="226.4,154.2 226.4,162 191.3,162 191.3,154.1 205.4,132.8 223.1,133.4 226.4,154.1 	"/>
	<polygon class="st6" points="287.3,151.9 287.3,152.1 287.2,151.9 	"/>
	<polygon class="st7" points="265.3,152.1 265.3,162.2 219.5,162.2 219.5,151.9 237.9,124.2 260.9,125 265.3,151.9 	"/>
	<polygon class="st6" points="287.5,153.4 287.3,153.4 287.3,152.1 	"/>
	<polygon class="st6" points="241.4,154.1 241.4,154.2 241.4,154.1 	"/>
	<polygon class="st6" points="241.6,155.2 241.4,155.2 241.4,154.2 	"/>
	<path class="st5" d="M93.5,207v52.4c0,0.3-0.3,0.6-0.6,0.6h-72c-0.3,0-0.6-0.3-0.6-0.6v-48.5c0-2.5,1.9-4.5,4.3-4.5c0,0,0,0,0,0
		h40.5v-30.8c0-0.8,0.6-1.4,1.4-1.4H77c0.8,0,1.4,0.6,1.4,1.4v30.8h14.5C93.2,206.4,93.5,206.7,93.5,207z"/>
	<polyline class="st8" points="86,162.7 85.7,156.2 114,159.3 143.5,158.3 143.5,162 	"/>
	<polyline class="st8" points="113.8,163.3 114,158.5 114,144.4 112.1,131.4 	"/>
	<path class="st8" d="M114,143.5l-28.3,12.7c0-1.4,26.5-25.8,26.5-25.8L114,143.5l26.2,14.1"/>
	<line class="st8" x1="143.5" y1="158.3" x2="112.1" y2="130.4"/>
	<path class="st2" d="M81.9,192.1h71.4c2.9,0,5.2,2.3,5.2,5.2v61.5c0,0.4-0.3,0.8-0.8,0.8h-81l0,0v-62.3
		C76.7,194.4,79,192.1,81.9,192.1z"/>
	<rect x="212.1" y="165.3" class="st7" width="24.4" height="19.4"/>
	<rect x="240.3" y="165.7" class="st7" width="24.4" height="19.4"/>
	<rect x="157.5" y="182.3" class="st9" width="6.1" height="8.8"/>
	<rect x="157.5" y="182.3" class="st9" width="6.1" height="8.8"/>
	<rect x="169.9" y="182.3" class="st9" width="6.1" height="8.8"/>
	<rect x="213" y="204.5" class="st9" width="4.7" height="5.7"/>
	<rect x="218.8" y="204.5" class="st9" width="4.7" height="5.7"/>
	<rect x="213" y="211.8" class="st9" width="4.7" height="5.7"/>
	<rect x="218.8" y="211.8" class="st9" width="4.7" height="5.7"/>
	<rect x="218.8" y="219.2" class="st9" width="4.7" height="5.7"/>
	<rect x="218.8" y="226.5" class="st9" width="4.7" height="5.7"/>
	<rect x="213" y="219.2" class="st9" width="4.7" height="5.7"/>
	<rect x="213" y="226.5" class="st9" width="4.7" height="5.7"/>
	<rect x="198.2" y="205.7" class="st9" width="3.2" height="4.4"/>
	<rect x="202.2" y="205.7" class="st9" width="3.2" height="4.4"/>
	<rect x="198.2" y="211.4" class="st9" width="3.2" height="4.4"/>
	<rect x="202.2" y="211.4" class="st9" width="3.2" height="4.4"/>
	<rect x="202.2" y="217.1" class="st9" width="3.2" height="4.4"/>
	<rect x="202.2" y="222.8" class="st9" width="3.2" height="4.4"/>
	<rect x="198.2" y="217.1" class="st9" width="3.2" height="4.4"/>
	<rect x="198.2" y="222.8" class="st9" width="3.2" height="4.4"/>
	<rect x="227.6" y="205.5" class="st9" width="10.1" height="6.2"/>
	<rect x="227.6" y="212.9" class="st9" width="10.1" height="6.2"/>
	<rect x="227.6" y="220.3" class="st9" width="10.1" height="6.2"/>
	<rect x="240.2" y="205.5" class="st9" width="10.1" height="6.2"/>
	<rect x="240.2" y="212.9" class="st9" width="10.1" height="6.2"/>
	<rect x="240.2" y="220.3" class="st9" width="10.1" height="6.2"/>
	<rect x="240.2" y="227.6" class="st9" width="10.1" height="6.2"/>
	<rect x="227.6" y="227.6" class="st9" width="10.1" height="6.2"/>
	<rect x="227.6" y="235" class="st9" width="10.1" height="6.2"/>
	<rect x="240.2" y="235" class="st9" width="10.1" height="6.2"/>
	<rect x="240.2" y="247.2" class="st9" width="10.1" height="6.2"/>
	<rect x="227.6" y="247.2" class="st9" width="10.1" height="6.2"/>
	<rect x="255.2" y="205.5" class="st9" width="10.1" height="6.2"/>
	<rect x="255.2" y="212.9" class="st9" width="10.1" height="6.2"/>
	<rect x="255.2" y="220.2" class="st9" width="10.1" height="6.2"/>
	<rect x="267.9" y="205.5" class="st9" width="10.1" height="6.2"/>
	<rect x="267.9" y="212.9" class="st9" width="10.1" height="6.2"/>
	<rect x="267.9" y="220.2" class="st9" width="10.1" height="6.2"/>
	<rect x="267.9" y="227.6" class="st9" width="10.1" height="6.2"/>
	<rect x="255.2" y="227.6" class="st9" width="10.1" height="6.2"/>
	<rect x="255.2" y="235" class="st9" width="10.1" height="6.2"/>
	<rect x="267.9" y="235" class="st9" width="10.1" height="6.2"/>
	<rect x="267.9" y="247.2" class="st9" width="10.1" height="6.2"/>
	<rect x="255.2" y="247.2" class="st9" width="10.1" height="6.2"/>
</g>
<g id="Layer_2">
	<path d="M413.8,92.3c2.3-19.1,31.2-22.6,44.8-12.1c6.7,5.4-0.4,14-6.3,9.7c-7.3-4.7-23.9-6.9-25.9,3.4
		c-2.7,16.2,40.2,6.9,39.6,33.1c-0.7,25.1-37,25.7-50.6,14.4c-2.9-2.4-3.5-6.6-1.4-9.7c2.6-2.6,5.4-3.4,8.8-0.7
		c8.1,5.5,28.9,9.7,30.4-4.3C451.8,111.5,410.7,120.2,413.8,92.3z"/>
	<path d="M478.2,111.1c0-19,11.9-35.4,34.6-35.4c8.6,0,15.5,2.6,22.6,8.8c2.7,2.3,3,6.3,0.7,9c-2.3,2.7-6.3,3-9,0.7
		c-0.2-0.1-0.3-0.3-0.5-0.5c-4-4.2-8.2-5.4-13.8-5.4c-15.2,0-22.5,10.7-22.5,22.8c0,12.2,7.2,23.5,22.5,23.5
		c5.8-0.1,11.3-2.3,15.5-6.3c2.9-2.1,6.8-1.6,9.1,1.2c1.6,2.2,2.4,5.8-1.1,9.3c-6.9,6.4-15.2,7.7-23.4,7.7
		C489,146.4,478.2,130.1,478.2,111.1z"/>
	<path d="M554.3,83.3c0-8.1,13.1-8.4,13.1,0v56.3c0,8.2-13.1,8.4-13.1,0V83.3z"/>
	<path d="M591.4,145.7c-3.3,0-6.1-2.6-6.1-5.9c0-0.1,0-0.1,0-0.2v-56c-0.1-3.3,2.5-6,5.8-6.1c0.1,0,0.2,0,0.3,0h35.4
		c9.1,0,8.9,12.8,0,12.8h-28.4V105h24.9c8.8,0,8.8,12.9,0,12.9h-24.9v14.8h30.1c9,0,9.7,12.9,0,12.9H591.4z"/>
	<path d="M649.6,84.3c0-3.6,0.8-7,5.9-7c3.6,0,4.3,0.9,7,3.5l32.7,40.8V83.3c0-3.3,2.9-6.8,6.2-6.8c3.7,0.2,6.7,3.1,7,6.8v55.5
		c0,4.3-2.7,6-5.2,6.8c-3.5,0-5.1-0.8-8-3.5l-32.7-41.4v38c0,4.3-2.7,6.8-6.2,6.8c-3.6,0.1-6.6-2.7-6.7-6.3c0-0.2,0-0.3,0-0.5
		L649.6,84.3z"/>
	<path d="M723.1,111.1c0-19,11.9-35.4,34.6-35.4c8.6,0,15.4,2.6,22.6,8.8c2.7,2.3,3.1,6.3,0.8,9c-2.3,2.7-6.3,3.1-9,0.8
		c-0.2-0.2-0.4-0.4-0.6-0.6c-4.1-4.2-8.2-5.4-13.8-5.4c-15.2,0-22.5,10.7-22.5,22.8c0,12.2,7.2,23.5,22.5,23.5
		c5.7-0.1,11.2-2.4,15.4-6.3c2.9-2.1,6.9-1.6,9.1,1.2c1.6,2.2,2.4,5.8-1.1,9.3c-6.9,6.4-15.2,7.7-23.4,7.7
		C733.8,146.4,723.1,130.1,723.1,111.1z"/>
	<path d="M804.4,145.7c-3.3,0.1-6.1-2.6-6.1-5.9c0-0.1,0-0.1,0-0.2v-56c-0.1-3.3,2.5-6,5.8-6.1c0.1,0,0.2,0,0.3,0h35.4
		c9.1,0,8.9,12.8,0,12.8h-28.4V105h24.8c8.8,0,8.8,12.9,0,12.9h-24.8v14.8h30.1c9,0,9.7,12.9,0,12.9H804.4z"/>
	<path d="M892.3,111.1c0-19,11.9-35.4,34.6-35.4c8.6,0,15.5,2.6,22.6,8.8c2.7,2.3,3,6.3,0.7,9c-2.3,2.7-6.3,3-9,0.7
		c-0.2-0.1-0.3-0.3-0.5-0.5c-4-4.2-8.2-5.4-13.8-5.4c-15.2,0-22.5,10.7-22.5,22.8c0,12.2,7.2,23.5,22.5,23.5
		c5.8-0.1,11.3-2.3,15.5-6.3c2.9-2.1,6.8-1.6,9.1,1.2c1.6,2.2,2.4,5.8-1.1,9.3c-6.9,6.4-15.2,7.7-23.4,7.7
		C903.1,146.4,892.3,130.1,892.3,111.1z"/>
	<path d="M973.7,145.7c-3.3,0.1-6.1-2.6-6.1-5.9c0-0.1,0-0.1,0-0.2v-56c-0.1-3.3,2.5-6,5.8-6.1c0.1,0,0.2,0,0.3,0h35.4
		c9.1,0,8.9,12.8,0,12.8h-28.4V105h24.9c8.8,0,8.8,12.9,0,12.9h-24.9v14.8h30.1c9,0,9.7,12.9,0,12.9H973.7z"/>
	<path d="M1032,84.3c0-3.6,0.8-7,5.9-7c3.6,0,4.4,0.9,7,3.5l32.7,40.8V83.3c0-3.3,2.9-6.8,6.2-6.8c3.7,0.2,6.7,3.1,7,6.8v55.5
		c0,4.3-2.7,6-5.2,6.8c-3.4,0-5.1-0.8-8-3.5l-32.7-41.4v38c0,4.3-2.7,6.8-6.2,6.8c-3.6,0.1-6.6-2.7-6.7-6.3c0-0.2,0-0.3,0-0.5
		L1032,84.3z"/>
	<path d="M1126.5,89.8h-17.3c-8.6,0-8.6-12.6,0-12.6h46.7c3.5,0,6.3,2.8,6.3,6.3c0,3.5-2.8,6.3-6.3,6.3h-16.3v49.8
		c0,8.6-13.1,8.8-13.1,0V89.8z"/>
	<path d="M1181.3,145.7c-3.3,0.1-6.1-2.6-6.1-5.9c0-0.1,0-0.1,0-0.2v-56c-0.1-3.3,2.5-6,5.8-6.1c0.1,0,0.2,0,0.3,0h35.4
		c9.1,0,8.9,12.8,0,12.8h-28.5V105h25c8.8,0,8.8,12.9,0,12.9h-25v14.8h30.1c9,0,9.7,12.9,0,12.9H1181.3z"/>
	<path d="M1252.5,139.3c0,8.6-13.1,8.9-13.1,0.2v-56c0-3.3,2.6-6,5.9-6c0,0,0,0,0.1,0h26.2c25.1,0,30.2,33.5,9.3,41.9l13.1,16
		c5.1,7.6-5.1,14.9-11.1,7.4l-14.9-21.3h-15.5L1252.5,139.3z M1252.5,110.1h19c12.8,0,13.6-20.7,0-20.7h-19V110.1z"/>
</g>
</svg>
