<?xml version="1.0" encoding="utf-8"?>
<!-- Generator: Adobe Illustrator 23.0.4, SVG Export Plug-In . SVG Version: 6.00 Build 0)  -->
<svg version="1.1" id="Layer_1" xmlns="http://www.w3.org/2000/svg" xmlns:xlink="http://www.w3.org/1999/xlink" x="0px" y="0px"
	 viewBox="0 0 964 708.3" style="enable-background:new 0 0 964 708.3;" xml:space="preserve">
<g>
	<path style="fill:#FF931E;" d="M156.5,689.8L156.5,689.8c-7.5,0-13.6-6.5-13.6-15.6V214.3c0-6.7,6.1-13.2,13.6-13.2l0,0
		c7.5,0,13.6,6.5,13.6,14.4v459.9C170,683.4,163.9,689.8,156.5,689.8z"/>
	<path style="fill:#FF931E;" d="M144,0v172.5h22.1C166.1,172.4,180.4,25.2,144,0z"/>
	<path style="fill:#FF931E;" d="M144,0v172.5h22.1C166.1,172.4,180.4,25.2,144,0z"/>
	<path style="fill:#FF931E;" d="M0,275.1l150.5-66l-8.5-21.6C142,187.5,8.1,229.8,0,275.1z"/>
	<path style="fill:#FF931E;" d="M314.5,275.1l-150.5-66l8.5-21.6C172.5,187.5,306.4,229.8,314.5,275.1z"/>
	<ellipse style="fill:#FF931E;" cx="156.5" cy="188" rx="24.9" ry="26.3"/>
</g>
<g>
	<path style="fill:#2E3192;" d="M209.1,701H42.3c-0.8,0-1.4-0.6-1.4-1.4V592.7c0-5.5,4.4-9.9,9.9-9.9h158.4c0.8,0,1.4,0.6,1.4,1.4
		v115.4C210.5,700.4,209.9,701,209.1,701z"/>
	<path style="fill:#F14929;" d="M950.2,708.3H768.4v-75.2h181.8c4.3,0,7.8,3.5,7.8,7.8v59.7C957.9,704.8,954.4,708.3,950.2,708.3z"
		/>
	<path style="fill:#BDCCD4;" d="M773.5,707.3H183.6c-6.6,0-12-5.4-12-12V492.4c0-6.6,5.4-12,12-12h577.9c6.6,0,12,5.4,12,12V707.3z"
		/>
	<path style="fill:#2E3192;" d="M661.6,547.8c0-92,67.7-166.6,151.2-166.6S964,455.8,964,547.8"/>
	<rect x="773.5" y="537.7" style="fill:#2E3192;" width="189.5" height="113.4"/>
	<polygon style="fill:#2E3192;" points="553.5,461.8 553.5,479.8 472,479.8 472,461.5 504.7,412.3 545.6,413.6 553.4,461.5 	"/>
	<path style="fill:#888DB1;" d="M659.7,456.5v0.4V456.5z"/>
	<polygon style="fill:#E6E6E6;" points="643.6,456.9 643.6,480.4 537.5,480.4 537.5,456.5 580.1,392.3 633.4,394 643.6,456.5 	"/>
	<polygon style="fill:#888DB1;" points="660.2,459.9 659.7,459.9 659.7,456.9 	"/>
	<polygon style="fill:#888DB1;" points="553.5,461.5 553.5,461.8 553.4,461.5 	"/>
	<polygon style="fill:#888DB1;" points="553.8,464.1 553.5,464.1 553.5,461.8 	"/>
	<path style="fill:#2E3192;" d="M173.4,665.5h-30.6V511.3c0-1.8,1.4-3.2,3.2-3.2h24.4c1.8,0,3.2,1.4,3.2,3.2v154
		C173.6,665.4,173.5,665.5,173.4,665.5z"/>
	<polyline style="fill:none;stroke:#F1F1F2;stroke-width:2;stroke-miterlimit:10;" points="193.1,481.6 192.5,466.4 258.2,473.6 
		326.4,471.2 326.4,480 	"/>
	<polyline style="fill:none;stroke:#F1F1F2;stroke-width:2;stroke-miterlimit:10;" points="257.6,482.9 258.2,471.8 258.2,439.1 
		253.8,408.9 	"/>
	<path style="fill:none;stroke:#F1F1F2;stroke-width:2;stroke-miterlimit:10;" d="M258.2,437l-65.7,29.5c0-3.2,61.3-59.7,61.3-59.7
		L258.2,437l60.7,32.6"/>
	<line style="fill:none;stroke:#F1F1F2;stroke-width:2;stroke-miterlimit:10;" x1="326.4" y1="471.2" x2="253.8" y2="406.7"/>
	<path style="fill:#FF931E;" d="M359.4,706.1H171.6V561.6c0-6.6,5.4-12,12-12h165.6c6.6,0,12,5.4,12,12v142.6
		C361.2,705.3,360.4,706.1,359.4,706.1z"/>
	<rect x="520.3" y="487.5" style="fill:#E6E6E6;" width="56.6" height="45.1"/>
	<rect x="585.5" y="488.5" style="fill:#E6E6E6;" width="56.6" height="45.1"/>
	<rect x="359" y="526.9" style="fill:#7379A3;" width="14.2" height="20.3"/>
	<rect x="359" y="526.9" style="fill:#7379A3;" width="14.2" height="20.3"/>
	<rect x="387.7" y="526.9" style="fill:#7379A3;" width="14.2" height="20.3"/>
	<rect x="487.6" y="578.3" style="fill:#7379A3;" width="10.9" height="13.1"/>
	<rect x="501.1" y="578.3" style="fill:#7379A3;" width="10.9" height="13.1"/>
	<rect x="487.6" y="595.4" style="fill:#7379A3;" width="10.9" height="13.1"/>
	<rect x="501.1" y="595.4" style="fill:#7379A3;" width="10.9" height="13.1"/>
	<rect x="501.1" y="612.4" style="fill:#7379A3;" width="10.9" height="13.1"/>
	<rect x="501.1" y="629.5" style="fill:#7379A3;" width="10.9" height="13.1"/>
	<rect x="487.6" y="612.4" style="fill:#7379A3;" width="10.9" height="13.1"/>
	<rect x="487.6" y="629.5" style="fill:#7379A3;" width="10.9" height="13.1"/>
	<rect x="453.2" y="581.2" style="fill:#7379A3;" width="7.5" height="10.2"/>
	<rect x="462.5" y="581.2" style="fill:#7379A3;" width="7.5" height="10.2"/>
	<rect x="453.2" y="594.5" style="fill:#7379A3;" width="7.5" height="10.2"/>
	<rect x="462.5" y="594.5" style="fill:#7379A3;" width="7.5" height="10.2"/>
	<rect x="462.5" y="607.7" style="fill:#7379A3;" width="7.5" height="10.2"/>
	<rect x="462.5" y="620.9" style="fill:#7379A3;" width="7.5" height="10.2"/>
	<rect x="453.2" y="607.7" style="fill:#7379A3;" width="7.5" height="10.2"/>
	<rect x="453.2" y="620.9" style="fill:#7379A3;" width="7.5" height="10.2"/>
	<rect x="521.4" y="580.8" style="fill:#7379A3;" width="23.4" height="14.4"/>
	<rect x="521.4" y="597.9" style="fill:#7379A3;" width="23.4" height="14.4"/>
	<rect x="521.4" y="614.9" style="fill:#7379A3;" width="23.4" height="14.4"/>
	<rect x="550.7" y="580.8" style="fill:#7379A3;" width="23.4" height="14.4"/>
	<rect x="550.7" y="597.9" style="fill:#7379A3;" width="23.4" height="14.4"/>
	<rect x="550.7" y="614.9" style="fill:#7379A3;" width="23.4" height="14.4"/>
	<rect x="550.7" y="632" style="fill:#7379A3;" width="23.4" height="14.4"/>
	<rect x="521.4" y="632" style="fill:#7379A3;" width="23.4" height="14.4"/>
	<rect x="521.4" y="649.1" style="fill:#7379A3;" width="23.4" height="14.4"/>
	<rect x="550.7" y="649.1" style="fill:#7379A3;" width="23.4" height="14.4"/>
	<rect x="550.7" y="677.5" style="fill:#7379A3;" width="23.4" height="14.4"/>
	<rect x="521.4" y="677.5" style="fill:#7379A3;" width="23.4" height="14.4"/>
	<rect x="585.5" y="580.8" style="fill:#7379A3;" width="23.4" height="14.4"/>
	<rect x="585.5" y="597.8" style="fill:#7379A3;" width="23.4" height="14.4"/>
	<rect x="585.5" y="614.9" style="fill:#7379A3;" width="23.4" height="14.4"/>
	<rect x="614.8" y="580.8" style="fill:#7379A3;" width="23.4" height="14.4"/>
	<rect x="614.8" y="597.8" style="fill:#7379A3;" width="23.4" height="14.4"/>
	<rect x="614.8" y="614.9" style="fill:#7379A3;" width="23.4" height="14.4"/>
	<rect x="614.8" y="631.9" style="fill:#7379A3;" width="23.4" height="14.4"/>
	<rect x="585.5" y="631.9" style="fill:#7379A3;" width="23.4" height="14.4"/>
	<rect x="585.5" y="649" style="fill:#7379A3;" width="23.4" height="14.4"/>
	<rect x="614.8" y="649" style="fill:#7379A3;" width="23.4" height="14.4"/>
	<rect x="614.8" y="677.4" style="fill:#7379A3;" width="23.4" height="14.4"/>
	<rect x="585.5" y="677.4" style="fill:#7379A3;" width="23.4" height="14.4"/>
</g>
</svg>
