<?xml version="1.0" encoding="utf-8"?>
<!-- Generator: Adobe Illustrator 23.0.4, SVG Export Plug-In . SVG Version: 6.00 Build 0)  -->
<svg version="1.1" xmlns="http://www.w3.org/2000/svg" xmlns:xlink="http://www.w3.org/1999/xlink" x="0px" y="0px"
	 viewBox="0 0 1920 1080" style="enable-background:new 0 0 1920 1080;" xml:space="preserve">
<style type="text/css">
	.st0{fill:#A5B6DB;}
	.st1{fill:#3282FF;}
	.st2{clip-path:url(#SVGID_2_);fill:#61A814;}
	.st3{clip-path:url(#SVGID_4_);fill:#70B526;}
	.st4{clip-path:url(#SVGID_6_);fill:#70B526;}
	.st5{clip-path:url(#SVGID_8_);fill:#70B526;}
	.st6{clip-path:url(#SVGID_10_);fill:#70B526;}
	.st7{clip-path:url(#SVGID_12_);fill:#70B526;}
	.st8{clip-path:url(#SVGID_14_);fill:#70B526;}
	.st9{clip-path:url(#SVGID_16_);fill:#70B526;}
	.st10{clip-path:url(#SVGID_18_);fill:#70B526;}
	.st11{clip-path:url(#SVGID_20_);fill:#70B526;}
	.st12{clip-path:url(#SVGID_22_);fill:#70B526;}
	.st13{clip-path:url(#SVGID_24_);fill:#70B526;}
	.st14{clip-path:url(#SVGID_26_);fill:#70B526;}
	.st15{clip-path:url(#SVGID_28_);fill:#61A814;}
	.st16{clip-path:url(#SVGID_30_);fill:#61A814;}
	.st17{clip-path:url(#SVGID_32_);fill:#61A814;}
	.st18{clip-path:url(#SVGID_34_);fill:#61A814;}
	.st19{clip-path:url(#SVGID_36_);fill:#61A814;}
	.st20{clip-path:url(#SVGID_38_);fill:#61A814;}
	.st21{clip-path:url(#SVGID_40_);fill:#61A814;}
	.st22{clip-path:url(#SVGID_42_);fill:#61A814;}
	.st23{clip-path:url(#SVGID_44_);fill:#61A814;}
	.st24{clip-path:url(#SVGID_46_);fill:#76BF28;}
	.st25{clip-path:url(#SVGID_48_);fill:#70B526;}
	.st26{clip-path:url(#SVGID_50_);fill:#70B526;}
	.st27{clip-path:url(#SVGID_52_);fill:#70B526;}
	.st28{clip-path:url(#SVGID_54_);fill:#76BF28;}
	.st29{clip-path:url(#SVGID_56_);fill:#70B526;}
	.st30{clip-path:url(#SVGID_58_);fill:#70B526;}
	.st31{clip-path:url(#SVGID_60_);fill:#70B526;}
	.st32{clip-path:url(#SVGID_62_);fill:#70B526;}
	.st33{clip-path:url(#SVGID_64_);fill:#70B526;}
	.st34{clip-path:url(#SVGID_66_);fill:#70B526;}
	.st35{clip-path:url(#SVGID_68_);fill:#76BF28;}
	.st36{clip-path:url(#SVGID_70_);fill:#76BF28;}
	.st37{clip-path:url(#SVGID_72_);fill:#76BF28;}
	.st38{clip-path:url(#SVGID_74_);fill:#76BF28;}
	.st39{clip-path:url(#SVGID_76_);fill:#76BF28;}
	.st40{clip-path:url(#SVGID_78_);fill:#76BF28;}
	.st41{clip-path:url(#SVGID_80_);fill:#76BF28;}
	.st42{clip-path:url(#SVGID_82_);fill:#76BF28;}
	.st43{clip-path:url(#SVGID_84_);fill:#76BF28;}
</style>
<g id="Layer_2">
	<rect class="st0" width="1520" height="1080"/>
	<path class="st1" d="M1520.7,158.2l-0.5,230.8L0,371.9V205.1l0,0c0,0,1053.7-87.3,1525.2-46.9"/>
</g>
<g id="Layer_1">
	<g>
		<g>
			<g>
				<g>
					<defs>
						<rect id="SVGID_1_" y="98" width="1522" height="980"/>
					</defs>
					<clipPath id="SVGID_2_">
						<use xlink:href="#SVGID_1_"  style="overflow:visible;"/>
					</clipPath>
					<path class="st2" d="M0,315.3c18,3.4,40.7,6.8,67.1,9.1c14.8,1.3,40.5,3,76.2,2.4c32.3-0.5,60-2.7,127.1-10.9
						c67.6-8.2,101.3-12.2,132.5-17.5C467,287.6,488.4,280,562,264c40.2-8.7,98.2-20.5,170-32c36.6-3.4,126.1-11.4,214.8-15.1
						c20-0.8,53.5-2.2,98-2.4c27.7-0.1,51,0.2,68.4,0.6c135.9-5.6,271.8-11.2,407.7-16.9l2.4-2.4V1078H0V315.3z"/>
				</g>
				<g>
					<defs>
						<rect id="SVGID_3_" y="98" width="1522" height="980"/>
					</defs>
					<clipPath id="SVGID_4_">
						<use xlink:href="#SVGID_3_"  style="overflow:visible;"/>
					</clipPath>
					<rect x="3.6" y="450.4" class="st3" width="1519.6" height="359.6"/>
				</g>
				<g>
					<defs>
						<rect id="SVGID_5_" y="98" width="1522" height="980"/>
					</defs>
					<clipPath id="SVGID_6_">
						<use xlink:href="#SVGID_5_"  style="overflow:visible;"/>
					</clipPath>
					<path class="st4" d="M616.2,463.8H9.3c-5.7,0-10.4-4.7-10.4-10.4v-6.9c0-5.7,4.7-10.4,10.4-10.4h607.1
						c5.7,0,10.4,4.7,10.4,10.4v6.9C626.7,459,622,463.8,616.2,463.8z"/>
				</g>
				<g>
					<defs>
						<rect id="SVGID_7_" y="98" width="1522" height="980"/>
					</defs>
					<clipPath id="SVGID_8_">
						<use xlink:href="#SVGID_7_"  style="overflow:visible;"/>
					</clipPath>
					<path class="st5" d="M575.1,436H8c-5.7,0-10.4-4.7-10.4-10.4v-6.9c0-5.7,4.7-10.4,10.4-10.4h567.2c5.7,0,10.4,4.7,10.4,10.4
						v6.9C585.6,431.3,580.9,436,575.1,436z"/>
				</g>
				<g>
					<defs>
						<rect id="SVGID_9_" y="98" width="1522" height="980"/>
					</defs>
					<clipPath id="SVGID_10_">
						<use xlink:href="#SVGID_9_"  style="overflow:visible;"/>
					</clipPath>
					<path class="st6" d="M855.8,433.6H628.7c-5.7,0-10.4-4.7-10.4-10.4v-6.9c0-5.7,4.7-10.4,10.4-10.4h227.1
						c5.7,0,10.4,4.7,10.4,10.4v6.9C866.2,428.8,861.6,433.6,855.8,433.6z"/>
				</g>
				<g>
					<defs>
						<rect id="SVGID_11_" y="98" width="1522" height="980"/>
					</defs>
					<clipPath id="SVGID_12_">
						<use xlink:href="#SVGID_11_"  style="overflow:visible;"/>
					</clipPath>
					<path class="st7" d="M1515.2,455.3H908.1c-5.7,0-10.4-4.7-10.4-10.4V438c0-5.7,4.7-10.4,10.4-10.4h607.1
						c5.7,0,10.4,4.7,10.4,10.4v6.9C1525.6,450.6,1520.9,455.3,1515.2,455.3z"/>
				</g>
				<g>
					<defs>
						<rect id="SVGID_13_" y="98" width="1522" height="980"/>
					</defs>
					<clipPath id="SVGID_14_">
						<use xlink:href="#SVGID_13_"  style="overflow:visible;"/>
					</clipPath>
					<path class="st8" d="M621.1,397.4h-38.5c-5.7,0-10.4-4.7-10.4-10.4V380c0-5.7,4.7-10.4,10.4-10.4h38.5
						c5.7,0,10.4,4.7,10.4,10.4v6.9C631.6,392.7,626.8,397.4,621.1,397.4z"/>
				</g>
				<g>
					<defs>
						<rect id="SVGID_15_" y="98" width="1522" height="980"/>
					</defs>
					<clipPath id="SVGID_16_">
						<use xlink:href="#SVGID_15_"  style="overflow:visible;"/>
					</clipPath>
					<path class="st9" d="M1522.5,385.3h-227.1c-5.7,0-10.4-4.7-10.4-10.4V368c0-5.7,4.7-10.4,10.4-10.4h227.1
						c5.7,0,10.4,4.7,10.4,10.4v6.9C1532.9,380.6,1528.2,385.3,1522.5,385.3z"/>
				</g>
				<g>
					<defs>
						<rect id="SVGID_17_" y="98" width="1522" height="980"/>
					</defs>
					<clipPath id="SVGID_18_">
						<use xlink:href="#SVGID_17_"  style="overflow:visible;"/>
					</clipPath>
					<path class="st10" d="M1259.9,384.1h-38.5c-5.7,0-10.4-4.7-10.4-10.4v-6.9c0-5.7,4.7-10.4,10.4-10.4h38.5
						c5.7,0,10.4,4.7,10.4,10.4v6.9C1270.3,379.4,1265.7,384.1,1259.9,384.1z"/>
				</g>
				<g>
					<defs>
						<rect id="SVGID_19_" y="98" width="1522" height="980"/>
					</defs>
					<clipPath id="SVGID_20_">
						<use xlink:href="#SVGID_19_"  style="overflow:visible;"/>
					</clipPath>
					<path class="st11" d="M967.2,399.8H845.3c-5.7,0-10.4-4.7-10.4-10.4v-6.9c0-5.7,4.7-10.4,10.4-10.4h121.9
						c5.7,0,10.4,4.7,10.4,10.4v6.9C977.6,395.1,972.9,399.8,967.2,399.8z"/>
				</g>
				<g>
					<defs>
						<rect id="SVGID_21_" y="98" width="1522" height="980"/>
					</defs>
					<clipPath id="SVGID_22_">
						<use xlink:href="#SVGID_21_"  style="overflow:visible;"/>
					</clipPath>
					<path class="st12" d="M1400.3,428.8h-351.7c-5.7,0-10.4-4.7-10.4-10.4v-6.9c0-5.7,4.7-10.4,10.4-10.4h351.7
						c5.7,0,10.4,4.7,10.4,10.4v6.9C1410.7,424,1406,428.8,1400.3,428.8z"/>
				</g>
				<g>
					<defs>
						<rect id="SVGID_23_" y="98" width="1522" height="980"/>
					</defs>
					<clipPath id="SVGID_24_">
						<use xlink:href="#SVGID_23_"  style="overflow:visible;"/>
					</clipPath>
					<path class="st13" d="M364.6,408.3H12.9c-5.7,0-10.4-4.7-10.4-10.4v-6.9c0-5.7,4.7-10.4,10.4-10.4h351.7
						c5.7,0,10.4,4.7,10.4,10.4v6.9C375.1,403.5,370.3,408.3,364.6,408.3z"/>
				</g>
				<g>
					<defs>
						<rect id="SVGID_25_" y="98" width="1522" height="980"/>
					</defs>
					<clipPath id="SVGID_26_">
						<use xlink:href="#SVGID_25_"  style="overflow:visible;"/>
					</clipPath>
					<path class="st14" d="M978.1,475.8H626.2c-5.7,0-10.4-4.7-10.4-10.4v-6.9c0-5.7,4.7-10.4,10.4-10.4H978
						c5.7,0,10.4,4.7,10.4,10.4v6.9C988.5,471.1,983.8,475.8,978.1,475.8z"/>
				</g>
				<g>
					<defs>
						<rect id="SVGID_27_" y="98" width="1522" height="980"/>
					</defs>
					<clipPath id="SVGID_28_">
						<use xlink:href="#SVGID_27_"  style="overflow:visible;"/>
					</clipPath>
					<path class="st15" d="M621.1,493.9H269.3c-5.7,0-10.4-4.7-10.4-10.4v-6.9c0-5.7,4.7-10.4,10.4-10.4H621
						c5.7,0,10.4,4.7,10.4,10.4v6.9C631.6,489.3,626.8,493.9,621.1,493.9z"/>
				</g>
				<g>
					<defs>
						<rect id="SVGID_29_" y="98" width="1522" height="980"/>
					</defs>
					<clipPath id="SVGID_30_">
						<use xlink:href="#SVGID_29_"  style="overflow:visible;"/>
					</clipPath>
					<path class="st16" d="M1518.8,543.4H1115c-5.7,0-10.4-4.7-10.4-10.4v-9.3c0-5.7,4.7-10.4,10.4-10.4h403.8
						c5.7,0,10.4,4.7,10.4,10.4v9.3C1529.3,538.7,1524.5,543.4,1518.8,543.4z"/>
				</g>
				<g>
					<defs>
						<rect id="SVGID_31_" y="98" width="1522" height="980"/>
					</defs>
					<clipPath id="SVGID_32_">
						<use xlink:href="#SVGID_31_"  style="overflow:visible;"/>
					</clipPath>
					<path class="st17" d="M1419.6,501.1h-403.8c-5.7,0-10.4-4.7-10.4-10.4v-9.3c0-5.7,4.7-10.4,10.4-10.4h403.8
						c5.7,0,10.4,4.7,10.4,10.4v9.3C1430,496.4,1425.3,501.1,1419.6,501.1z"/>
				</g>
				<g>
					<defs>
						<rect id="SVGID_33_" y="98" width="1522" height="980"/>
					</defs>
					<clipPath id="SVGID_34_">
						<use xlink:href="#SVGID_33_"  style="overflow:visible;"/>
					</clipPath>
					<path class="st18" d="M136,539.8H9.3c-5.7,0-10.4-4.7-10.4-10.4v-6.9c0-5.7,4.7-10.4,10.4-10.4H136c5.7,0,10.4,4.7,10.4,10.4
						v6.9C146.4,535.1,141.7,539.8,136,539.8z"/>
				</g>
				<g>
					<defs>
						<rect id="SVGID_35_" y="98" width="1522" height="980"/>
					</defs>
					<clipPath id="SVGID_36_">
						<use xlink:href="#SVGID_35_"  style="overflow:visible;"/>
					</clipPath>
					<path class="st19" d="M230.3,492.7h-42.1c-5.7,0-10.4-4.7-10.4-10.4v-6.9c0-5.7,4.7-10.4,10.4-10.4h42.1
						c5.7,0,10.4,4.7,10.4,10.4v6.9C240.7,488,236.1,492.7,230.3,492.7z"/>
				</g>
				<g>
					<defs>
						<rect id="SVGID_37_" y="98" width="1522" height="980"/>
					</defs>
					<clipPath id="SVGID_38_">
						<use xlink:href="#SVGID_37_"  style="overflow:visible;"/>
					</clipPath>
					<path class="st20" d="M1083.3,539.8h-42.1c-5.7,0-10.4-4.7-10.4-10.4v-6.9c0-5.7,4.7-10.4,10.4-10.4h42.1
						c5.7,0,10.4,4.7,10.4,10.4v6.9C1093.7,535.1,1089,539.8,1083.3,539.8z"/>
				</g>
				<g>
					<defs>
						<rect id="SVGID_39_" y="98" width="1522" height="980"/>
					</defs>
					<clipPath id="SVGID_40_">
						<use xlink:href="#SVGID_39_"  style="overflow:visible;"/>
					</clipPath>
					<path class="st21" d="M726.4,568.7h-117c-5.7,0-10.4-4.7-10.4-10.4v-6.9c0-5.7,4.7-10.4,10.4-10.4h117.1
						c5.7,0,10.4,4.7,10.4,10.4v6.9C736.8,564.1,732.1,568.7,726.4,568.7z"/>
				</g>
				<g>
					<defs>
						<rect id="SVGID_41_" y="98" width="1522" height="980"/>
					</defs>
					<clipPath id="SVGID_42_">
						<use xlink:href="#SVGID_41_"  style="overflow:visible;"/>
					</clipPath>
					<path class="st22" d="M797.7,570h-42.1c-5.7,0-10.4-4.7-10.4-10.4v-6.9c0-5.7,4.7-10.4,10.4-10.4h42.1
						c5.7,0,10.4,4.7,10.4,10.4v6.9C808.2,565.3,803.4,570,797.7,570z"/>
				</g>
				<g>
					<defs>
						<rect id="SVGID_43_" y="98" width="1522" height="980"/>
					</defs>
					<clipPath id="SVGID_44_">
						<use xlink:href="#SVGID_43_"  style="overflow:visible;"/>
					</clipPath>
					<path class="st23" d="M580,568.7h-42.1c-5.7,0-10.4-4.7-10.4-10.4v-6.9c0-5.7,4.7-10.4,10.4-10.4H580c5.7,0,10.4,4.7,10.4,10.4
						v6.9C590.4,564.1,585.7,568.7,580,568.7z"/>
				</g>
				<g>
					<defs>
						<rect id="SVGID_45_" y="98" width="1522" height="980"/>
					</defs>
					<clipPath id="SVGID_46_">
						<use xlink:href="#SVGID_45_"  style="overflow:visible;"/>
					</clipPath>
					<rect x="-1.2" y="764.3" class="st24" width="1523.2" height="315"/>
				</g>
				<g>
					<defs>
						<rect id="SVGID_47_" y="98" width="1522" height="980"/>
					</defs>
					<clipPath id="SVGID_48_">
						<use xlink:href="#SVGID_47_"  style="overflow:visible;"/>
					</clipPath>
					<path class="st25" d="M1518.8,789.6h-351.7c-5.7,0-10.4-4.7-10.4-10.4v-6.9c0-5.7,4.7-10.4,10.4-10.4h351.7
						c5.7,0,10.4,4.7,10.4,10.4v6.9C1529.3,784.9,1524.5,789.6,1518.8,789.6z"/>
				</g>
				<g>
					<defs>
						<rect id="SVGID_49_" y="98" width="1522" height="980"/>
					</defs>
					<clipPath id="SVGID_50_">
						<use xlink:href="#SVGID_49_"  style="overflow:visible;"/>
					</clipPath>
					<path class="st26" d="M353.7,788.4H2c-5.7,0-10.4-4.7-10.4-10.4v-6.9c0-5.7,4.7-10.4,10.4-10.4h351.7c5.7,0,10.4,4.7,10.4,10.4
						v6.9C364.2,783.7,359.5,788.4,353.7,788.4z"/>
				</g>
				<g>
					<defs>
						<rect id="SVGID_51_" y="98" width="1522" height="980"/>
					</defs>
					<clipPath id="SVGID_52_">
						<use xlink:href="#SVGID_51_"  style="overflow:visible;"/>
					</clipPath>
					<path class="st27" d="M542.5,834.2H190.7c-5.7,0-10.4-4.7-10.4-10.4v-6.9c0-5.7,4.7-10.4,10.4-10.4h351.7
						c5.7,0,10.4,4.7,10.4,10.4v6.9C552.9,829.6,548.2,834.2,542.5,834.2z"/>
				</g>
				<g>
					<defs>
						<rect id="SVGID_53_" y="98" width="1522" height="980"/>
					</defs>
					<clipPath id="SVGID_54_">
						<use xlink:href="#SVGID_53_"  style="overflow:visible;"/>
					</clipPath>
					<path class="st28" d="M422.7,740.1H70.9c-5.7,0-10.4-4.7-10.4-10.4v-6.9c0-5.7,4.7-10.4,10.4-10.4h351.7
						c5.7,0,10.4,4.7,10.4,10.4v6.9C433.1,735.4,428.4,740.1,422.7,740.1z"/>
				</g>
				<g>
					<defs>
						<rect id="SVGID_55_" y="98" width="1522" height="980"/>
					</defs>
					<clipPath id="SVGID_56_">
						<use xlink:href="#SVGID_55_"  style="overflow:visible;"/>
					</clipPath>
					<path class="st29" d="M1074.8,790.7H470.2c-5.7,0-10.4-4.7-10.4-10.4v-6.9c0-5.7,4.7-10.4,10.4-10.4h604.6
						c5.7,0,10.4,4.7,10.4,10.4v6.9C1085.3,786.1,1080.5,790.7,1074.8,790.7z"/>
				</g>
				<g>
					<defs>
						<rect id="SVGID_57_" y="98" width="1522" height="980"/>
					</defs>
					<clipPath id="SVGID_58_">
						<use xlink:href="#SVGID_57_"  style="overflow:visible;"/>
					</clipPath>
					<path class="st30" d="M1023.9,833H796.8c-5.7,0-10.4-4.7-10.4-10.4v-6.9c0-5.7,4.7-10.4,10.4-10.4h227.1
						c5.7,0,10.4,4.7,10.4,10.4v6.9C1034.4,828.3,1029.8,833,1023.9,833z"/>
				</g>
				<g>
					<defs>
						<rect id="SVGID_59_" y="98" width="1522" height="980"/>
					</defs>
					<clipPath id="SVGID_60_">
						<use xlink:href="#SVGID_59_"  style="overflow:visible;"/>
					</clipPath>
					<path class="st31" d="M1100.2,830.6h-38.5c-5.7,0-10.4-4.7-10.4-10.4v-6.9c0-5.7,4.7-10.4,10.4-10.4h38.5
						c5.7,0,10.4,4.7,10.4,10.4v6.9C1110.7,825.9,1105.9,830.6,1100.2,830.6z"/>
				</g>
				<g>
					<defs>
						<rect id="SVGID_61_" y="98" width="1522" height="980"/>
					</defs>
					<clipPath id="SVGID_62_">
						<use xlink:href="#SVGID_61_"  style="overflow:visible;"/>
					</clipPath>
					<path class="st32" d="M794.1,865.6h-38.5c-5.7,0-10.4-4.7-10.4-10.4v-6.9c0-5.7,4.7-10.4,10.4-10.4h38.5
						c5.7,0,10.4,4.7,10.4,10.4v6.9C804.5,861,799.8,865.6,794.1,865.6z"/>
				</g>
				<g>
					<defs>
						<rect id="SVGID_63_" y="98" width="1522" height="980"/>
					</defs>
					<clipPath id="SVGID_64_">
						<use xlink:href="#SVGID_63_"  style="overflow:visible;"/>
					</clipPath>
					<path class="st33" d="M155.3,833h-38.5c-5.7,0-10.4-4.7-10.4-10.4v-6.9c0-5.7,4.7-10.4,10.4-10.4h38.5
						c5.7,0,10.4,4.7,10.4,10.4v6.9C165.7,828.3,161.1,833,155.3,833z"/>
				</g>
				<g>
					<defs>
						<rect id="SVGID_65_" y="98" width="1522" height="980"/>
					</defs>
					<clipPath id="SVGID_66_">
						<use xlink:href="#SVGID_65_"  style="overflow:visible;"/>
					</clipPath>
					<path class="st34" d="M1439,880.1h-417.1c-5.7,0-10.4-4.7-10.4-10.4v-6.9c0-5.7,4.7-10.4,10.4-10.4H1439
						c5.7,0,10.4,4.7,10.4,10.4v6.9C1449.4,875.4,1444.7,880.1,1439,880.1z"/>
				</g>
				<g>
					<defs>
						<rect id="SVGID_67_" y="98" width="1522" height="980"/>
					</defs>
					<clipPath id="SVGID_68_">
						<use xlink:href="#SVGID_67_"  style="overflow:visible;"/>
					</clipPath>
					<path class="st35" d="M675.6,697.9H323.8c-5.7,0-10.4-4.7-10.4-10.4v-6.9c0-5.7,4.7-10.4,10.4-10.4h351.7
						c5.7,0,10.4,4.7,10.4,10.4v6.9C686,693.2,681.3,697.9,675.6,697.9z"/>
				</g>
				<g>
					<defs>
						<rect id="SVGID_69_" y="98" width="1522" height="980"/>
					</defs>
					<clipPath id="SVGID_70_">
						<use xlink:href="#SVGID_69_"  style="overflow:visible;"/>
					</clipPath>
					<path class="st36" d="M653.8,764.3H514.9c-5.7,0-10.4-4.7-10.4-10.4v-6.9c0-5.7,4.7-10.4,10.4-10.4h138.9
						c5.7,0,10.4,4.7,10.4,10.4v6.9C664.2,759.5,659.5,764.3,653.8,764.3z"/>
				</g>
				<g>
					<defs>
						<rect id="SVGID_71_" y="98" width="1522" height="980"/>
					</defs>
					<clipPath id="SVGID_72_">
						<use xlink:href="#SVGID_71_"  style="overflow:visible;"/>
					</clipPath>
					<path class="st37" d="M1510.4,725.6h-307c-5.7,0-10.4-4.7-10.4-10.4v-6.9c0-5.7,4.7-10.4,10.4-10.4h307
						c5.7,0,10.4,4.7,10.4,10.4v6.9C1520.8,720.9,1516.1,725.6,1510.4,725.6z"/>
				</g>
				<g>
					<defs>
						<rect id="SVGID_73_" y="98" width="1522" height="980"/>
					</defs>
					<clipPath id="SVGID_74_">
						<use xlink:href="#SVGID_73_"  style="overflow:visible;"/>
					</clipPath>
					<path class="st38" d="M1148.6,724.4H936c-5.7,0-10.4-4.7-10.4-10.4v-6.9c0-5.7,4.7-10.4,10.4-10.4h212.6
						c5.7,0,10.4,4.7,10.4,10.4v6.9C1159,719.7,1154.4,724.4,1148.6,724.4z"/>
				</g>
				<g>
					<defs>
						<rect id="SVGID_75_" y="98" width="1522" height="980"/>
					</defs>
					<clipPath id="SVGID_76_">
						<use xlink:href="#SVGID_75_"  style="overflow:visible;"/>
					</clipPath>
					<path class="st39" d="M894.5,723.2h-32.4c-5.7,0-10.4-4.7-10.4-10.4v-6.9c0-5.7,4.7-10.4,10.4-10.4h32.4
						c5.7,0,10.4,4.7,10.4,10.4v6.9C904.9,718.5,900.2,723.2,894.5,723.2z"/>
				</g>
				<g>
					<defs>
						<rect id="SVGID_77_" y="98" width="1522" height="980"/>
					</defs>
					<clipPath id="SVGID_78_">
						<use xlink:href="#SVGID_77_"  style="overflow:visible;"/>
					</clipPath>
					<path class="st40" d="M724,763h-32.4c-5.7,0-10.4-4.7-10.4-10.4v-6.9c0-5.7,4.7-10.4,10.4-10.4H724c5.7,0,10.4,4.7,10.4,10.4
						v6.9C734.4,758.4,729.7,763,724,763z"/>
				</g>
				<g>
					<defs>
						<rect id="SVGID_79_" y="98" width="1522" height="980"/>
					</defs>
					<clipPath id="SVGID_80_">
						<use xlink:href="#SVGID_79_"  style="overflow:visible;"/>
					</clipPath>
					<path class="st41" d="M292.1,696.7h-32.4c-5.7,0-10.4-4.7-10.4-10.4v-6.9c0-5.7,4.7-10.4,10.4-10.4h32.4
						c5.7,0,10.4,4.7,10.4,10.4v6.9C302.5,692,297.8,696.7,292.1,696.7z"/>
				</g>
				<g>
					<defs>
						<rect id="SVGID_81_" y="98" width="1522" height="980"/>
					</defs>
					<clipPath id="SVGID_82_">
						<use xlink:href="#SVGID_81_"  style="overflow:visible;"/>
					</clipPath>
					<path class="st42" d="M1241.7,763h-32.4c-5.7,0-10.4-4.7-10.4-10.4v-6.9c0-5.7,4.7-10.4,10.4-10.4h32.4
						c5.7,0,10.4,4.7,10.4,10.4v6.9C1252.2,758.4,1247.5,763,1241.7,763z"/>
				</g>
				<g>
					<defs>
						<rect id="SVGID_83_" y="98" width="1522" height="980"/>
					</defs>
					<clipPath id="SVGID_84_">
						<use xlink:href="#SVGID_83_"  style="overflow:visible;"/>
					</clipPath>
					<path class="st43" d="M1504.3,684.6h-32.4c-5.7,0-10.4-4.7-10.4-10.4v-6.9c0-5.7,4.7-10.4,10.4-10.4h32.4
						c5.7,0,10.4,4.7,10.4,10.4v6.9C1514.7,679.9,1510,684.6,1504.3,684.6z"/>
				</g>
			</g>
		</g>
		<g id="Layer_3">
		</g>
	</g>
</g>
</svg>
