<?xml version="1.0" encoding="utf-8"?>
<!-- Generator: Adobe Illustrator 23.0.3, SVG Export Plug-In . SVG Version: 6.00 Build 0)  -->
<svg version="1.1" xmlns="http://www.w3.org/2000/svg" xmlns:xlink="http://www.w3.org/1999/xlink" x="0px" y="0px"
	 viewBox="0 0 1678 1080" style="enable-background:new 0 0 1678 1080;" xml:space="preserve">
<style type="text/css">
	.st0{clip-path:url(#SVGID_2_);fill:#61A814;}
	.st1{clip-path:url(#SVGID_2_);fill:#70B526;}
	.st2{clip-path:url(#SVGID_2_);fill:#76BF28;}
</style>
<g id="Layer_1">
	<g>
		<defs>
			<rect id="SVGID_1_" y="-0.4" width="1678" height="1080.4"/>
		</defs>
		<clipPath id="SVGID_2_">
			<use xlink:href="#SVGID_1_"  style="overflow:visible;"/>
		</clipPath>
		<path class="st0" d="M0,239.1c19.9,3.7,44.9,7.5,74,10c16.3,1.4,44.6,3.3,84,2.7c35.6-0.6,66.1-3,140.1-12
			c74.5-9,111.7-13.5,146.1-19.3c70.7-11.9,94.3-20.3,175.4-37.9c44.3-9.6,108.3-22.6,187.4-35.3c40.4-3.8,139-12.6,236.8-16.6
			c22.1-0.9,59-2.4,108-2.7c30.5-0.1,56.2,0.2,75.4,0.7c149.8-6.2,299.7-12.4,449.5-18.6l2.7-2.7V1080H0V239.1z"/>
		<rect x="4" y="388.1" class="st1" width="1675.3" height="396.5"/>
		<path class="st1" d="M679.4,402.8H10.2c-6.3,0-11.5-5.2-11.5-11.5v-7.6c0-6.3,5.2-11.5,11.5-11.5h669.3c6.3,0,11.5,5.2,11.5,11.5
			v7.6C690.9,397.6,685.8,402.8,679.4,402.8z"/>
		<path class="st1" d="M634.1,372.2H8.8c-6.3,0-11.5-5.2-11.5-11.5v-7.6c0-6.3,5.2-11.5,11.5-11.5h625.3c6.3,0,11.5,5.2,11.5,11.5
			v7.6C645.6,367,640.4,372.2,634.1,372.2z"/>
		<path class="st1" d="M943.5,369.5H693.1c-6.3,0-11.5-5.2-11.5-11.5v-7.6c0-6.3,5.2-11.5,11.5-11.5h250.4c6.3,0,11.5,5.2,11.5,11.5
			v7.6C955,364.3,949.9,369.5,943.5,369.5z"/>
		<path class="st1" d="M1670.5,393.5h-669.3c-6.3,0-11.5-5.2-11.5-11.5v-7.6c0-6.3,5.2-11.5,11.5-11.5h669.3
			c6.3,0,11.5,5.2,11.5,11.5v7.6C1682,388.3,1676.8,393.5,1670.5,393.5z"/>
		<path class="st1" d="M684.8,329.6h-42.4c-6.3,0-11.5-5.2-11.5-11.5v-7.6c0-6.3,5.2-11.5,11.5-11.5h42.4c6.3,0,11.5,5.2,11.5,11.5
			v7.6C696.3,324.4,691.1,329.6,684.8,329.6z"/>
		<path class="st1" d="M1678.5,316.3h-250.4c-6.3,0-11.5-5.2-11.5-11.5v-7.6c0-6.3,5.2-11.5,11.5-11.5h250.4
			c6.3,0,11.5,5.2,11.5,11.5v7.6C1690,311.1,1684.8,316.3,1678.5,316.3z"/>
		<path class="st1" d="M1389,315h-42.4c-6.3,0-11.5-5.2-11.5-11.5v-7.6c0-6.3,5.2-11.5,11.5-11.5h42.4c6.3,0,11.5,5.2,11.5,11.5v7.6
			C1400.5,309.8,1395.4,315,1389,315z"/>
		<path class="st1" d="M1066.3,332.3H931.9c-6.3,0-11.5-5.2-11.5-11.5v-7.6c0-6.3,5.2-11.5,11.5-11.5h134.4
			c6.3,0,11.5,5.2,11.5,11.5v7.6C1077.8,327.1,1072.6,332.3,1066.3,332.3z"/>
		<path class="st1" d="M1543.8,364.2h-387.8c-6.3,0-11.5-5.2-11.5-11.5v-7.6c0-6.3,5.2-11.5,11.5-11.5h387.8
			c6.3,0,11.5,5.2,11.5,11.5v7.6C1555.3,359,1550.1,364.2,1543.8,364.2z"/>
		<path class="st1" d="M402,341.6H14.2c-6.3,0-11.5-5.2-11.5-11.5v-7.6c0-6.3,5.2-11.5,11.5-11.5H402c6.3,0,11.5,5.2,11.5,11.5v7.6
			C413.5,336.4,408.3,341.6,402,341.6z"/>
		<path class="st1" d="M1078.3,416.1H690.4c-6.3,0-11.5-5.2-11.5-11.5V397c0-6.3,5.2-11.5,11.5-11.5h387.8c6.3,0,11.5,5.2,11.5,11.5
			v7.6C1089.8,410.9,1084.6,416.1,1078.3,416.1z"/>
		<path class="st0" d="M684.8,436H296.9c-6.3,0-11.5-5.2-11.5-11.5v-7.6c0-6.3,5.2-11.5,11.5-11.5h387.8c6.3,0,11.5,5.2,11.5,11.5
			v7.6C696.3,430.9,691.1,436,684.8,436z"/>
		<path class="st0" d="M1674.5,490.6h-445.2c-6.3,0-11.5-5.2-11.5-11.5v-10.3c0-6.3,5.2-11.5,11.5-11.5h445.2
			c6.3,0,11.5,5.2,11.5,11.5v10.3C1686,485.4,1680.8,490.6,1674.5,490.6z"/>
		<path class="st0" d="M1565.1,444h-445.2c-6.3,0-11.5-5.2-11.5-11.5v-10.3c0-6.3,5.2-11.5,11.5-11.5h445.2
			c6.3,0,11.5,5.2,11.5,11.5v10.3C1576.6,438.8,1571.4,444,1565.1,444z"/>
		<path class="st0" d="M149.9,486.6H10.2c-6.3,0-11.5-5.2-11.5-11.5v-7.6c0-6.3,5.2-11.5,11.5-11.5h139.7c6.3,0,11.5,5.2,11.5,11.5
			v7.6C161.4,481.4,156.2,486.6,149.9,486.6z"/>
		<path class="st0" d="M253.9,434.7h-46.4c-6.3,0-11.5-5.2-11.5-11.5v-7.6c0-6.3,5.2-11.5,11.5-11.5h46.4c6.3,0,11.5,5.2,11.5,11.5
			v7.6C265.4,429.5,260.3,434.7,253.9,434.7z"/>
		<path class="st0" d="M1194.3,486.6h-46.4c-6.3,0-11.5-5.2-11.5-11.5v-7.6c0-6.3,5.2-11.5,11.5-11.5h46.4c6.3,0,11.5,5.2,11.5,11.5
			v7.6C1205.8,481.4,1200.6,486.6,1194.3,486.6z"/>
		<path class="st0" d="M800.8,518.5H671.8c-6.3,0-11.5-5.2-11.5-11.5v-7.6c0-6.3,5.2-11.5,11.5-11.5h129.1c6.3,0,11.5,5.2,11.5,11.5
			v7.6C812.3,513.4,807.1,518.5,800.8,518.5z"/>
		<path class="st0" d="M879.5,519.9h-46.4c-6.3,0-11.5-5.2-11.5-11.5v-7.6c0-6.3,5.2-11.5,11.5-11.5h46.4c6.3,0,11.5,5.2,11.5,11.5
			v7.6C891,514.7,885.8,519.9,879.5,519.9z"/>
		<path class="st0" d="M639.4,518.5h-46.4c-6.3,0-11.5-5.2-11.5-11.5v-7.6c0-6.3,5.2-11.5,11.5-11.5h46.4c6.3,0,11.5,5.2,11.5,11.5
			v7.6C650.9,513.4,645.7,518.5,639.4,518.5z"/>
		<rect x="-1.3" y="734.1" class="st2" width="1679.3" height="347.3"/>
		<path class="st1" d="M1674.5,762h-387.8c-6.3,0-11.5-5.2-11.5-11.5v-7.6c0-6.3,5.2-11.5,11.5-11.5h387.8c6.3,0,11.5,5.2,11.5,11.5
			v7.6C1686,756.8,1680.8,762,1674.5,762z"/>
		<path class="st1" d="M390,760.7H2.2c-6.3,0-11.5-5.2-11.5-11.5v-7.6c0-6.3,5.2-11.5,11.5-11.5H390c6.3,0,11.5,5.2,11.5,11.5v7.6
			C401.5,755.5,396.3,760.7,390,760.7z"/>
		<path class="st1" d="M598.1,811.2H210.2c-6.3,0-11.5-5.2-11.5-11.5v-7.6c0-6.3,5.2-11.5,11.5-11.5h387.8c6.3,0,11.5,5.2,11.5,11.5
			v7.6C609.6,806.1,604.4,811.2,598.1,811.2z"/>
		<path class="st2" d="M466,707.5H78.2c-6.3,0-11.5-5.2-11.5-11.5v-7.6c0-6.3,5.2-11.5,11.5-11.5H466c6.3,0,11.5,5.2,11.5,11.5v7.6
			C477.5,702.3,472.3,707.5,466,707.5z"/>
		<path class="st1" d="M1185,763.3H518.4c-6.3,0-11.5-5.2-11.5-11.5v-7.6c0-6.3,5.2-11.5,11.5-11.5H1185c6.3,0,11.5,5.2,11.5,11.5
			v7.6C1196.5,758.2,1191.3,763.3,1185,763.3z"/>
		<path class="st1" d="M1128.9,809.9H878.5c-6.3,0-11.5-5.2-11.5-11.5v-7.6c0-6.3,5.2-11.5,11.5-11.5h250.4
			c6.3,0,11.5,5.2,11.5,11.5v7.6C1140.4,804.7,1135.3,809.9,1128.9,809.9z"/>
		<path class="st1" d="M1213,807.2h-42.4c-6.3,0-11.5-5.2-11.5-11.5v-7.6c0-6.3,5.2-11.5,11.5-11.5h42.4c6.3,0,11.5,5.2,11.5,11.5
			v7.6C1224.5,802.1,1219.3,807.2,1213,807.2z"/>
		<path class="st1" d="M875.5,845.8h-42.4c-6.3,0-11.5-5.2-11.5-11.5v-7.6c0-6.3,5.2-11.5,11.5-11.5h42.4c6.3,0,11.5,5.2,11.5,11.5
			v7.6C887,840.7,881.8,845.8,875.5,845.8z"/>
		<path class="st1" d="M171.2,809.9h-42.4c-6.3,0-11.5-5.2-11.5-11.5v-7.6c0-6.3,5.2-11.5,11.5-11.5h42.4c6.3,0,11.5,5.2,11.5,11.5
			v7.6C182.7,804.7,177.6,809.9,171.2,809.9z"/>
		<path class="st1" d="M1586.5,861.8h-459.9c-6.3,0-11.5-5.2-11.5-11.5v-7.6c0-6.3,5.2-11.5,11.5-11.5h459.9
			c6.3,0,11.5,5.2,11.5,11.5v7.6C1598,856.6,1592.8,861.8,1586.5,861.8z"/>
		<path class="st2" d="M744.8,660.9H357c-6.3,0-11.5-5.2-11.5-11.5v-7.6c0-6.3,5.2-11.5,11.5-11.5h387.8c6.3,0,11.5,5.2,11.5,11.5
			v7.6C756.3,655.7,751.1,660.9,744.8,660.9z"/>
		<path class="st2" d="M720.8,734.1H567.7c-6.3,0-11.5-5.2-11.5-11.5V715c0-6.3,5.2-11.5,11.5-11.5h153.1c6.3,0,11.5,5.2,11.5,11.5
			v7.6C732.3,728.9,727.1,734.1,720.8,734.1z"/>
		<path class="st2" d="M1665.2,691.5h-338.5c-6.3,0-11.5-5.2-11.5-11.5v-7.6c0-6.3,5.2-11.5,11.5-11.5h338.5
			c6.3,0,11.5,5.2,11.5,11.5v7.6C1676.7,686.3,1671.5,691.5,1665.2,691.5z"/>
		<path class="st2" d="M1266.3,690.2h-234.4c-6.3,0-11.5-5.2-11.5-11.5v-7.6c0-6.3,5.2-11.5,11.5-11.5h234.4
			c6.3,0,11.5,5.2,11.5,11.5v7.6C1277.8,685,1272.7,690.2,1266.3,690.2z"/>
		<path class="st2" d="M986.2,688.8h-35.7c-6.3,0-11.5-5.2-11.5-11.5v-7.6c0-6.3,5.2-11.5,11.5-11.5h35.7c6.3,0,11.5,5.2,11.5,11.5
			v7.6C997.7,683.7,992.5,688.8,986.2,688.8z"/>
		<path class="st2" d="M798.2,732.7h-35.7c-6.3,0-11.5-5.2-11.5-11.5v-7.6c0-6.3,5.2-11.5,11.5-11.5h35.7c6.3,0,11.5,5.2,11.5,11.5
			v7.6C809.7,727.6,804.5,732.7,798.2,732.7z"/>
		<path class="st2" d="M322,659.6h-35.7c-6.3,0-11.5-5.2-11.5-11.5v-7.6c0-6.3,5.2-11.5,11.5-11.5H322c6.3,0,11.5,5.2,11.5,11.5v7.6
			C333.5,654.4,328.3,659.6,322,659.6z"/>
		<path class="st2" d="M1369,732.7h-35.7c-6.3,0-11.5-5.2-11.5-11.5v-7.6c0-6.3,5.2-11.5,11.5-11.5h35.7c6.3,0,11.5,5.2,11.5,11.5
			v7.6C1380.5,727.6,1375.4,732.7,1369,732.7z"/>
		<path class="st2" d="M1658.5,646.3h-35.7c-6.3,0-11.5-5.2-11.5-11.5v-7.6c0-6.3,5.2-11.5,11.5-11.5h35.7c6.3,0,11.5,5.2,11.5,11.5
			v7.6C1670,641.1,1664.8,646.3,1658.5,646.3z"/>
	</g>
</g>
<g id="Layer_3">
</g>
</svg>
