<?xml version="1.0" encoding="utf-8"?>
<!-- Generator: Adobe Illustrator 23.0.4, SVG Export Plug-In . SVG Version: 6.00 Build 0)  -->
<svg version="1.1" id="Layer_1" xmlns="http://www.w3.org/2000/svg" xmlns:xlink="http://www.w3.org/1999/xlink" x="0px" y="0px"
	 viewBox="0 0 1737.5 746.2" style="enable-background:new 0 0 1737.5 746.2;" xml:space="preserve">
<g>
	<g id="XMLID_5_">
		<g>
			<path style="fill:#F14929;" d="M1662.9,542.6v59.7h32.1v-59.7H1662.9z M1723.2,576.7v132.5c-1.1,0.8-2.2,1.2-3.4,1.2H1569v-203
				h132.7C1710.8,527.8,1718.2,551,1723.2,576.7z M1625,602.2v-59.7h-32.1v59.7H1625z"/>
			<rect x="1662.9" y="542.6" style="fill:#2E3192;" width="32.1" height="59.7"/>
			<rect x="1592.9" y="542.6" style="fill:#2E3192;" width="32.1" height="59.7"/>
			<path style="fill:#F2F2F2;" d="M1160.4,642.9c3.2-3,4.3-5.9,4.4-8.4c0-0.4,0-0.7,0-1c-0.2-3.5-2.2-5.9-2.2-5.9l-14.4,0.3l0,0
				h-0.2l-43.8,0.8L1086,629l-22-83.1c-5-6.2-7.3,0.1-7.3,0.1h-1.7v-48c12.4-22.7,30.8-42.6,52.5-57.7c10.1-7.1,20.8-13,31.8-17.8
				c3.4-1.5,6.8-2.8,10.2-4c0.1,0,0.2-0.1,0.2-0.1v27.9h154.1v198.6h-144.3c0.5-1.1,0.9-1.8,0.9-1.8h-0.2
				C1160.4,643,1160.4,642.9,1160.4,642.9z M1136.7,527.7c0.4,0.1,0.8,0.2,1.2,0.2v-0.3C1137.5,527.7,1137.1,527.7,1136.7,527.7
				c-0.1,0-0.3-0.1-0.4-0.1C1136.5,527.6,1136.6,527.6,1136.7,527.7z"/>
			<path style="fill:#BDCCD4;" d="M1064.7,698.5c6.8-4.5,10.1-9.9,10.1-9.9c3.1-4,2.1-16,0.5-26.7c0-0.1,0-0.1,0-0.2
				c-0.1-0.7-0.2-1.3-0.3-2c0-0.1,0-0.1,0-0.1c-0.1-0.7-0.2-1.3-0.3-2c-0.3-1.9-0.7-3.7-1-5.4c-0.1-0.3-0.1-0.6-0.2-0.9
				c-0.1-0.3-0.1-0.5-0.2-0.8c0-0.2-0.1-0.3-0.1-0.5c-0.2-0.9-0.4-1.8-0.5-2.6c0-0.2-0.1-0.4-0.1-0.6c-0.2-0.8-0.3-1.5-0.5-2h0.1
				c1.6,7.1,8,37.2,2.8,44C1074.9,688.7,1071.5,694.1,1064.7,698.5z"/>
			<path style="fill:#BDCCD4;" d="M1160.4,642.9l-88.7,0.3l-0.2-13.9l4.9-0.1l-19.6-83.2c0,0,2.3-6.3,7.3-0.1l22,83.1l18.2-0.3
				l43.8-0.8h0.2l0,0l14.4-0.1c0,0,1.9,2.3,2.2,5.7c0,0.3,0,0.7,0,1C1164.7,637,1163.6,640,1160.4,642.9z"/>
			<path style="fill:#F14929;" d="M461.6,549.8h0.4v1.6c-0.1,0.1-0.2,0.2-0.4,0.4V549.8z"/>
			<path style="fill:#BDCCD4;" d="M1045.9,704.4c1.3,0,2.6-0.1,3.7-0.3c1.1-0.1,2.1-0.3,3.1-0.5c0.2-0.1,0.4-0.1,0.5-0.1
				c0.8-0.2,1.6-0.4,2.3-0.6c2.1-0.6,4-1.4,5.7-2.3c0.4-0.2,0.8-0.4,1.2-0.6c0.9-0.5,1.6-0.9,2.3-1.4c6.8-4.5,10.2-9.8,10.2-9.7
				c5.2-6.8-1.2-36.9-2.8-44h87.3c-1.7,3.3-4.9,9.9-4.9,10.9c0,1.3-24.1,19.3-24.1,19.3l0.4,26.5c-2.3,7.6-7.2,7.7-7.2,7.7
				s-26.3,0-48.3,0.3h-29.4L1045.9,704.4z"/>
			<path style="fill:#88B535;" d="M788.4,596.7c4.2-7,8.4-12.7,12.9-18v1.1c-4.3,5.1-8.3,10.6-11.7,16.4
				C789.3,596.6,788.8,596.8,788.4,596.7z"/>
			<path style="fill:#006837;" d="M209.2,386.4v5.6c0-1.9,0.1-3.7,0.4-5.6H209.2z M209,386.2c2.7-20.4,19.6-36,39.9-36
				c7.4,0,14.5,2.1,20.4,5.8c-0.1-1.9-0.2-3.8-0.2-5.8c0-34.6,27-62.8,60.4-62.8c9,0,17.5,2,25,5.7c15.3,7.3,27.2,21.1,32.4,37.9
				c0.2-0.1,0.3-0.1,0.5-0.1c0,0.1,0.1,0.3,0.1,0.4c4.1-1.1,8.4-1.8,12.9-1.8c6.5,0,12.6,1.3,18.3,3.6c0.2,0.1,0.5,0.2,0.7,0.3
				c18.1,7.9,30.7,26.5,30.7,48.2c0,1.5-0.1,3.2-0.2,4.7c-0.1,1.4-0.2,2.9-0.6,4.3h0.7c0,0.1,0,0.2,0,0.3h70.9h165.9v-0.2
				c1.9,0.9,4,1.5,6.2,1.5h113c4.6,0,8.8-2.3,11.5-5.8h23.8v3c0,0.1,0,0.2,0,0.3c0,0.2,0,0.3,0,0.5c0,1.8,0.4,3.3,0.9,4.9
				c-18.3,20.2-35.6,39.6-38.2,44.4c-0.4,0.7-0.5,1.1-0.1,1.1h-2.4v108v30.3c-4.8,5.5-9.2,11.5-12.9,18c-0.3-0.1-0.6-0.3-0.7-0.6
				l-22.3-47.6L754.7,526c-0.2-0.4-0.5-0.6-0.9-0.6l-0.8-1.7l-18.2,38.8c-0.3,0-0.5-0.2-0.7-0.4L716,537.2c-0.5-0.7,0-1.7,0.9-1.7
				h11.5c0.3,0,0.5-0.1,0.7-0.3h0.4h0.1l-0.2-0.4c0.1-0.3,0.2-0.6,0-1l-49.5-95.6c-0.2-0.3-0.5-0.5-0.8-0.6l0,0l-0.8-1.5l-51.9,98.6
				h1.7c0.2,0.2,0.4,0.2,0.7,0.2h11.5c0.4,0,0.8,0.2,0.9,0.5l-12.6,17.2c-0.3-0.1-0.6-0.3-0.8-0.6l-22.2-52.7
				c-0.1-0.3-0.4-0.5-0.6-0.6l-0.9-2l-31.8,75.6l-6.1,14.3l0,0v0.1h1.6c0.1,0.1,0.3,0.1,0.5,0.1h9l-0.1,0.1l-18.1,30.7
				c-0.3,0-0.5-0.1-0.7-0.3c-2.4-2.5-5-4.9-7.7-7.2c0.8-1.8,1.2-3.8,1.2-5.9v-24c0-4.6-1.9-8.7-5.1-11.5c-2.6-2.3-5.8-3.7-9.5-3.7
				h-6.1v-2.5c0-8.3-6.6-15.2-14.6-15.2h-45c-3.7,0-7,1.4-9.6,3.8v-4.9c0-0.2,0-0.3-0.1-0.5l-56-112l-7-14l-0.1,0.2l-0.1-0.2
				l-0.1,0.1l-0.2-0.4l-0.6,1.3H293.1c0,0-20.5,29-41.3,59.1c-0.2,0-0.3-0.1-0.5-0.1c-0.1-0.1-0.3-0.2-0.4-0.2
				c-0.1-0.1-0.2-0.1-0.4-0.2c-2-1.1-4.3-1.7-6.6-1.7h-34.8v-65.5h4.9c-3-5.9-4.9-12.8-4.9-20v6.4c-0.3-2.2-0.5-4.4-0.5-6.6
				C208.7,390,208.8,388.1,209,386.2z"/>
			<path style="fill:#006837;" d="M734.1,562.1c0.2,0.3,0.4,0.4,0.7,0.4l-0.4,0.8l-0.7-0.9l-19.6-27.1h15c-0.2,0.2-0.4,0.3-0.7,0.3
				h-11.5c-0.9,0-1.4,1-0.9,1.7L734.1,562.1z"/>
			<path style="fill:#006837;" d="M842,389.6c0,1.7,0.3,3.3,0.7,4.8c-0.2,0.2-0.3,0.4-0.5,0.5l-0.1,0.1c0-0.1,0-0.1-0.1-0.2
				c0,0,0,0,0.1-0.1c-0.5-1.5-0.9-3.1-1-4.8c0-0.2,0-0.3,0-0.5c0-0.1,0-0.2,0-0.3v-3v-25.8c0-8.3,6.6-15.2,14.6-15.2H914
				c0.6,0,1.3,0.1,2,0.1h-27.6c0,0-18.6,19.6-38.3,41c-0.1,0.1-0.2,0.2-0.2,0.3h-6.8c-0.6,0-1.1,0.5-1.1,1.1L842,389.6L842,389.6z"
				/>
			<path style="fill:#006837;" d="M787.6,596.1c0.1,0.3,0.4,0.5,0.7,0.6c-0.2,0.3-0.4,0.7-0.6,1l-23.2-49.4l-10.7-22.8
				c0.4,0,0.7,0.2,0.9,0.6l10.6,22.5L787.6,596.1z"/>
			<path style="fill:#006837;" d="M558.4,617.5c0.2,0.2,0.5,0.3,0.7,0.3l-0.3,0.4c-2.6-2.7-5.4-5.4-8.3-7.9c0,0,0-0.1,0.1-0.1
				C553.4,612.6,556,615,558.4,617.5z"/>
			<path style="fill:#F14929;" d="M462,551.4v22.4c-0.1,0-0.2,0-0.4,0v-22.1C461.7,551.6,461.8,551.5,462,551.4z"/>
			<path style="fill:#009245;" d="M1730.7,657.7c0,10.9-0.4,22.1-1.1,33.5c0,8.3-2.7,15.3-6.4,18V576.7
				C1728,601.5,1730.7,628.6,1730.7,657.7z"/>
			<path style="fill:#2E3192;" d="M1702.6,476.3c13.4,18.1,22.5,31.1,20.5,31.1h-21.5c-23.2-51.9-58-85.5-95.2-95.1h19.5V378
				C1640.2,395.9,1678.5,444.1,1702.6,476.3z"/>
			<path style="fill:#F14929;" d="M1723.2,709.2v2.6H1569v-1.4h150.8C1721,710.4,1722.1,710,1723.2,709.2z"/>
			<path style="fill:#F14929;" d="M1723.2,507.4v69.3c-5-25.7-12.4-48.9-21.5-69.3H1723.2z"/>
			<path style="fill:#2E3192;" d="M1701.7,507.4H1569l-10.1-17.8l-45.5-80.3h41.1v0.5c0.5-0.1,1-0.3,1.3-0.3h3.2l1.9,2.9v-0.1h45.5
				C1643.7,421.9,1678.4,455.5,1701.7,507.4z"/>
			<path style="fill:#F14929;" d="M1626,378.1v34.3h-19.5c-7.1-1.8-14.3-2.8-21.6-2.8H1561v-38.4h59.4
				C1620.4,371.1,1622.4,373.7,1626,378.1z"/>
			<path style="fill:#F14929;" d="M1626,326.4v51.7c-3.5-4.4-5.6-7-5.6-7H1561v-44.7l32.6-43.7L1626,326.4z M1609.8,342.4
				c0-11-7.3-20-16.3-20s-16.3,8.9-16.3,20c0,11,7.3,20,16.3,20S1609.8,353.5,1609.8,342.4z"/>
			<path style="fill:#F14929;" d="M1606.5,412.4H1561v-2.8h23.9C1592.1,409.6,1599.3,410.5,1606.5,412.4z"/>
			<ellipse style="fill:#2E3192;" cx="1593.5" cy="342.4" rx="16.3" ry="20"/>
			<polygon style="fill:#FF931E;" points="1593.5,282.7 1560.9,325.9 1538,325.9 1524.2,309.9 1530.1,302 1533.8,302 1531.9,299.7 
				1544.7,282.7 			"/>
			<path style="fill:#E6E6E6;" d="M1569,710.4v1.4h-154.2v-2.3h138.4c0.9,0.6,1.8,0.9,2.8,0.9L1569,710.4L1569,710.4z"/>
			<path style="fill:#E6E6E6;" d="M1569,507.4v203h-13c-1,0-1.9-0.3-2.8-0.9h-138.4V507.4H1569z M1544.2,602.2v-59.7h-32.1v59.7
				H1544.2z M1471.5,602.2v-59.7h-32.1v59.7H1471.5z"/>
			<polygon style="fill:#E6E6E6;" points="1558.9,489.6 1569,507.4 1414.7,507.4 1470.2,409.3 1472,409.3 1506.9,409.3 
				1513.4,409.3 			"/>
			<polygon style="fill:#009245;" points="1560.9,412.4 1560.9,412.5 1559,409.6 1559.1,409.6 			"/>
			<polygon style="fill:#E6E6E6;" points="1560.9,409.6 1560.9,412.4 1559.1,409.6 			"/>
			<polygon style="fill:#E6E6E6;" points="1560.9,371.1 1560.9,409.6 1559.1,409.6 1534.2,371.4 1534.1,371.1 1512.2,371.1 
				1512.2,345 1554.5,345 1538,325.9 1560.9,325.9 1560.9,326.4 			"/>
			<path style="fill:#2E3192;" d="M1534.2,371.4l24.8,38.2h-3.2c-0.4,0-0.9,0.1-1.3,0.3v-0.5h-41.1l-6.6-11.6v-26.6h5.3v0.3h22.1
				V371.4z"/>
			<polygon style="fill:#E6E6E6;" points="1538,325.9 1554.5,345 1512.2,345 1512.2,325.9 			"/>
			<rect x="1512.1" y="542.6" style="fill:#BDCCD4;" width="32.1" height="59.7"/>
			<polygon style="fill:#FF931E;" points="1524.2,309.9 1538,325.9 1512.2,325.9 			"/>
			<polygon style="fill:#F14929;" points="1534.1,371.1 1534.2,371.4 1512.2,371.4 1512.2,371.1 			"/>
			<polygon style="fill:#FF931E;" points="1531.9,299.7 1533.8,302 1530.1,302 			"/>
			<polygon style="fill:#88B535;" points="1531.9,299.7 1530.1,302 1517.3,302 1524.2,309.9 1512.2,325.9 1512.2,345 1506.9,345 
				1506.9,270 			"/>
			<polygon style="fill:#E6E6E6;" points="1506.9,397.8 1513.4,409.3 1506.9,409.3 			"/>
			<polygon style="fill:#88B535;" points="1506.9,248.4 1513.3,259.1 1506.9,259.1 			"/>
			<path style="fill:#2E3192;" d="M1387.8,2.7c0,0,126.4,177.4,119,177.4h-41.1l-4-6.7l-4,6.7h-129.3L1239.1,2.7L1387.8,2.7
				L1387.8,2.7z"/>
			<polygon style="fill:#E6E6E6;" points="1506.9,397.8 1506.9,409.3 1472,409.3 1472,406.2 1491.8,371.1 			"/>
			<polygon style="fill:#2E3192;" points="1506.9,371.1 1506.9,397.8 1491.8,371.1 			"/>
			<polygon style="fill:#F14929;" points="1506.9,345 1506.9,371.1 1491.8,371.1 1472,406.2 1472,345 			"/>
			<path style="fill:#88B535;" d="M1506.9,270v75H1472h-20.7h-1.7c-3.5-13.4-14.2-23.3-27.1-23.3s-23.7,9.9-27.1,23.3H1374l-2.6-3
				l34.6-40h-3.3v-15.7l22.8-27.1h-15.4l47.5-79.1h8.1l41.2,68.4v10.7h-9.1L1506.9,270z M1477.1,302v-77.6h-37.2V302H1477.1z"/>
			<polygon style="fill:#F14929;" points="1506.9,259.1 1506.9,270 1497.7,259.1 			"/>
			<polygon style="fill:#F14929;" points="1506.9,180 1506.9,248.4 1465.7,180 1506.7,180 			"/>
			<rect x="1439.9" y="224.4" style="fill:#88B535;" width="37.2" height="77.6"/>
			<polygon style="fill:#E6E6E6;" points="1472,406.2 1472,409.3 1470.2,409.3 			"/>
			<polygon style="fill:#612736;" points="1472,345 1472,406.2 1470.2,409.3 1451.3,409.3 1451.3,345 			"/>
			<rect x="1439.4" y="542.6" style="fill:#BDCCD4;" width="32.1" height="59.7"/>
			<polygon style="fill:#88B535;" points="1470.2,409.3 1414.7,507.4 1414.7,709.5 1329.7,709.5 1329.7,409.3 1394.3,409.3 
				1450.7,409.3 1451.3,409.3 			"/>
			<polygon style="fill:#88B535;" points="1465.7,180 1457.6,180 1461.7,173.3 			"/>
			<polygon style="fill:#F14929;" points="1457.6,180 1410.1,259.1 1425.6,259.1 1402.7,286.3 1402.7,224.4 1365.5,224.4 
				1365.5,302 1389.5,302 1402.7,302 1406,302 1371.4,342 1362.2,331.3 1374.3,331.3 1348,300.1 1359.2,300.1 1328.3,248.6 
				1328.3,180 			"/>
			<path style="fill:#F14929;" d="M1451.3,345v64.3h-0.6v-55.1c0-3.2-0.5-6.3-1.1-9.2H1451.3z"/>
			<path style="fill:#2E3192;" d="M1450.7,354.2v55.1h-56.4v-55.1c0-3.2,0.4-6.3,1.1-9.2h54.2C1450.2,347.9,1450.7,351,1450.7,354.2
				z"/>
			<path style="fill:#88B535;" d="M1449.6,345h-54.2c3.4-13.4,14.2-23.3,27.1-23.3S1446.1,331.6,1449.6,345z"/>
			<polygon style="fill:#88B535;" points="1402.7,286.3 1402.7,302 1389.5,302 			"/>
			<polygon style="fill:#2E3192;" points="1402.7,224.4 1402.7,286.3 1389.5,302 1365.5,302 1365.5,224.4 			"/>
			<path style="fill:#F14929;" d="M1374,345h21.4c-0.7,2.9-1.1,6.1-1.1,9.2v55.1h-64.7V381l-0.2-0.4l-0.1-0.2v-17.9h59.9L1374,345z"
				/>
			<polygon style="fill:#0B8500;" points="1374,345 1389.2,362.5 1329.3,362.5 1328.3,362.5 1328.3,248.6 1359.2,300.1 1348,300.1 
				1374.3,331.3 1362.2,331.3 1371.4,342 1368.8,345 			"/>
			<polygon style="fill:#0B8500;" points="1374,345 1368.8,345 1371.4,342 			"/>
			<path style="fill:#F2F2F2;" d="M1329.7,709.5v1h-283.2c3.1-0.6,23.5-0.9,42.6-1H1329.7z"/>
			<path style="fill:#F2F2F2;" d="M1329.7,409.3v300.2H1089c18-0.1,34.8-0.1,34.8-0.1s4.9-0.1,7.2-7.7l-0.4-26.5
				c0,0,24.1-18.1,24.1-19.3c0-0.9,3.3-7.7,4.9-11h144.3V446.2v-5.8c0.1,0,0.2,0,0.2-0.1l0,0v-0.1c0.4-1.2-4.1-8.1-11.4-18.2
				c-2.8-3.8-5.9-8.1-9.4-12.7h30.9h14.1h1L1329.7,409.3L1329.7,409.3z"/>
			<polygon style="fill:#F2F2F2;" points="1329.7,381 1329.7,409.3 1329.3,409.3 1329.3,380.5 1329.4,380.6 			"/>
			<polygon style="fill:#F2F2F2;" points="1329.3,380.5 1329.3,409.3 1328.3,409.3 1328.3,379.3 			"/>
			<polygon style="fill:#612736;" points="1329.3,362.5 1329.3,380.5 1328.3,379.3 1328.3,362.5 			"/>
			<polygon style="fill:#F2F2F2;" points="1328.3,379.3 1328.3,409.3 1314.2,409.3 1314.2,362.5 1314.4,362.5 			"/>
			<polygon style="fill:#612736;" points="1328.3,362.5 1328.3,379.3 1314.4,362.5 			"/>
			<polygon style="fill:#0B8500;" points="1328.3,248.6 1328.3,362.5 1314.4,362.5 1279,319.8 1293.9,302 1298.6,302 1298.6,276.3 
				1321.8,237.7 			"/>
			<path style="fill:#E6E6E6;" d="M1328.3,180v68.6l-6.6-10.9l-23.2,38.6v-51.9h-37.2v74.2l-52-62.7v-11.5h-9.5l-36.7-44.3
				L1328.3,180C1328.2,180,1328.2,180,1328.3,180z"/>
			<path style="fill:#2E3192;" d="M1239,2.7l89.3,177.4c-0.1,0-0.1,0-0.1,0L1239,2.7z"/>
			<polygon style="fill:#E6E6E6;" points="1239,2.7 1328.2,180 1163.1,180 1154.8,170.1 			"/>
			<polygon style="fill:#F2F2F2;" points="1279,319.8 1314.4,362.5 1314.2,362.5 1254.2,362.5 1281.3,331.3 1269.3,331.3 			"/>
			<path style="fill:#F2F2F2;" d="M1314.2,362.5v46.8h-30.9c3.5,4.6,6.6,8.9,9.4,12.7c7,9.8,11.4,16.5,11.4,18.1c0,0.1,0,0.1,0,0.1
				v0.1c0.9-1.2-8-13.8-21.1-31.1h-82.8c-16.8,0-34,3.2-50.4,9.1V180.1h13.3l36.7,44.3h-27.7V302h37.2v-66.2l52,62.7v3.4h2.8
				l14.8,17.8l-9.7,11.5h12l-27.1,31.2L1314.2,362.5L1314.2,362.5z M1305.4,378.5v-0.4h-0.2L1305.4,378.5z"/>
			<polygon style="fill:#F2F2F2;" points="1305.4,378.1 1305.4,378.5 1305.1,378.1 			"/>
			<path style="fill:#F2F2F2;" d="M1304.2,440.2L1304.2,440.2c0-1.6-4.4-8.4-11.4-18.2C1300,432.2,1304.6,439.1,1304.2,440.2z"/>
			<path style="fill:#F2F2F2;" d="M1283,409.2c13.1,17.3,22,30,21.1,31.1l0,0c0,0.1-0.1,0.1-0.2,0.1v5.8h-154.1v-27.9
				c16.5-5.9,33.6-9.1,50.4-9.1L1283,409.2L1283,409.2z"/>
			<path style="fill:#F2F2F2;" d="M1304.1,440.3L1304.1,440.3L1304.1,440.3z"/>
			<polygon style="fill:#0B8500;" points="1298.6,276.3 1298.6,302 1293.9,302 1295.5,300.1 1284.2,300.1 			"/>
			<polygon style="fill:#BDCCD4;" points="1298.6,224.4 1298.6,276.3 1284.2,300.1 1295.5,300.1 1293.9,302 1264.2,302 
				1261.4,298.6 1261.4,224.4 			"/>
			<polygon style="fill:#E6E6E6;" points="1293.9,302 1279,319.8 1264.2,302 			"/>
			<polygon style="fill:#F2F2F2;" points="1261.4,298.6 1264.2,302 1261.4,302 			"/>
			<polygon style="fill:#F2F2F2;" points="1209.4,235.8 1209.4,302 1172.2,302 1172.2,224.4 1199.9,224.4 			"/>
			<polygon style="fill:#BDCCD4;" points="1209.4,224.4 1209.4,235.8 1199.9,224.4 			"/>
			<path style="fill:#F2F2F2;" d="M1163.2,180.1h-13.3v238.2c-0.1,0-0.2,0.1-0.2,0.1c-3.4,1.3-6.8,2.5-10.2,4
				c-11.1,4.8-21.8,10.7-31.8,17.8c-21.7,15.1-40.1,35-52.5,57.7v-57.6l-61.9-92.7l145.5-197.2l16.2,19.5l-5,9.9h13.2L1163.2,180.1z
				"/>
			<polygon style="fill:#F2F2F2;" points="1154.8,170.1 1163.1,180 1149.8,180 			"/>
			<path style="fill:#F2F2F2;" d="M1162.6,627.6c0,0,2,2.4,2.2,5.9c-0.2-3.4-2.2-5.7-2.2-5.7l-14.4,0.1L1162.6,627.6z"/>
			<path style="fill:#F2F2F2;" d="M1160.3,643.1h0.2c0,0-0.4,0.7-0.9,1.8h-0.2C1159.9,644,1160.2,643.3,1160.3,643.1z"/>
			<path style="fill:#BDCCD4;" d="M1071.7,643.2l88.7-0.3c0,0,0,0.1-0.1,0.1L1071.7,643.2c0.1,0.1,0.2,0.6,0.5,1.6h-0.1
				c-0.1-0.4-0.2-0.7-0.2-1c0-0.1,0-0.2-0.1-0.3C1071.7,643.3,1071.7,643.2,1071.7,643.2z"/>
			<path style="fill:#BDCCD4;" d="M1071.8,643.3l88.5-0.3c-0.1,0.3-0.5,0.9-0.9,1.8h-87.3C1071.9,643.8,1071.8,643.3,1071.8,643.3z"
				/>
			<path style="fill:#F2F2F2;" d="M1159.4,644.8h0.2c-1.6,3.3-4.9,10-4.9,11c0,1.3-24.1,19.3-24.1,19.3l0.4,26.5
				c-2.3,7.6-7.2,7.7-7.2,7.7s-16.8,0-34.8,0.1h-13.6c22-0.3,48.3-0.3,48.3-0.3s4.9-0.1,7.2-7.7l-0.4-26.4c0,0,24.1-18.1,24.1-19.3
				C1154.5,654.8,1157.8,648.1,1159.4,644.8z"/>
			<path style="fill:#666666;" d="M1137.9,527.6v0.3c-0.4-0.1-0.8-0.2-1.2-0.2C1137.1,527.7,1137.5,527.7,1137.9,527.6z"/>
			<path style="fill:#666666;" d="M1136.3,527.6c0.1,0,0.3,0.1,0.4,0.1C1136.6,527.6,1136.5,527.6,1136.3,527.6z"/>
			<path style="fill:#F2F2F2;" d="M1075.4,709.5h13.6c-19.1,0.1-39.4,0.4-42.6,1h-0.4v-0.1C1047.5,710,1060.4,709.7,1075.4,709.5z"
				/>
			<path style="fill:#F2F2F2;" d="M1056.7,546l19.6,83.2l-4.9,0.1l-14.3-61.7c-0.7-0.7-1.4-1.4-2.1-2V546H1056.7z"/>
			<path style="fill:#BDCCD4;" d="M1075.3,662c1.6,10.7,2.6,22.7-0.5,26.7c0,0-3.3,5.4-10.1,9.9c-0.7,0.4-1.4,0.9-2.3,1.4
				c-0.4,0.2-0.8,0.4-1.2,0.6c-1.7,0.9-3.6,1.7-5.7,2.3c-0.8,0.2-1.5,0.4-2.3,0.6c-0.1,0-0.3,0.1-0.5,0.1c-1,0.2-2,0.4-3.1,0.5
				c-1.2,0.2-2.4,0.2-3.7,0.3v-0.1c19.4-0.4,28.8-15.7,28.8-15.7C1077.8,684.6,1076.9,672.7,1075.3,662z"/>
			<path style="fill:#BDCCD4;" d="M1075.3,662c1.6,10.7,2.5,22.7-0.6,26.6c0,0-9.4,15.2-28.8,15.7l-6.6-48h3.5
				c6.8,0,12.5-4.8,14.1-11.4h15.1c0.1,0.6,0.3,1.2,0.5,2c0,0.2,0.1,0.4,0.1,0.6c0.2,0.8,0.4,1.7,0.5,2.6c0,0.2,0.1,0.3,0.1,0.5
				c0,0.3,0.1,0.5,0.2,0.8s0.1,0.6,0.2,0.9c0.3,1.7,0.7,3.5,1,5.4c0.1,0.6,0.2,1.3,0.3,2v0.1c0.1,0.7,0.2,1.3,0.3,2
				C1075.3,661.9,1075.3,661.9,1075.3,662z"/>
			<path style="fill:#BDCCD4;" d="M1046,709.5h29.4c-14.9,0.2-27.9,0.5-29.4,0.9V709.5z"/>
			<path style="fill:#BDCCD4;" d="M1075,659.8c0.1,0.7,0.2,1.3,0.3,2C1075.2,661.1,1075.1,660.5,1075,659.8z"/>
			<path style="fill:#BDCCD4;" d="M1074.6,657.7c0.1,0.6,0.2,1.3,0.3,2C1074.8,659,1074.7,658.3,1074.6,657.7z"/>
			<path style="fill:#BDCCD4;" d="M1073.4,651.4c0.1,0.3,0.1,0.6,0.2,0.9C1073.6,652,1073.5,651.7,1073.4,651.4z"/>
			<path style="fill:#BDCCD4;" d="M1073.3,650.6c0-0.2-0.1-0.3-0.1-0.5C1073.2,650.3,1073.2,650.4,1073.3,650.6z"/>
			<path style="fill:#F2F2F2;" d="M1072.5,646.8c0,0.2,0.1,0.4,0.1,0.6C1072.6,647.3,1072.5,647,1072.5,646.8z"/>
			<path style="fill:#BDCCD4;" d="M1071.8,643.9c0.1,0.3,0.1,0.6,0.2,1h-15.1c0.4-1.3,0.5-2.5,0.5-3.8v-22.8
				c0-8.3-6.6-15.2-14.6-15.2h-10.7l-2.8-20.2h25.7v-17.3c0.7,0.6,1.4,1.3,2.1,2l14.3,61.7l0.2,13.9c0,0,0,0.1,0.1,0.4
				C1071.8,643.6,1071.8,643.7,1071.8,643.9z"/>
			<path style="fill:#BDCCD4;" d="M1071.7,643.6c0,0.1,0,0.2,0.1,0.3C1071.8,643.7,1071.8,643.6,1071.7,643.6z"/>
			<path style="fill:#BDCCD4;" d="M1061.2,700.6c0.4-0.2,0.8-0.4,1.2-0.6C1062,700.1,1061.6,700.4,1061.2,700.6z"/>
			<path style="fill:#BDCCD4;" d="M1057.4,618.3V641c0,1.3-0.1,2.5-0.5,3.8c-1.6,6.6-7.3,11.4-14.1,11.4h-3.5l-7.2-53.1h10.7
				C1050.9,603.1,1057.4,609.9,1057.4,618.3z"/>
			<path style="fill:#BDCCD4;" d="M1055,565.5v17.3h-25.7l-1.3-9.7C1028,573.1,1037.8,549.6,1055,565.5z"/>
			<path style="fill:#F2F2F2;" d="M1055,546v19.6c-17.2-15.9-27,7.6-27,7.6l1.3,9.7h-5.2c-2.3-1.6-5.1-2.5-8-2.5h-48.6V538h73.2
				c0.1-1,0.4-1.9,0.6-2.9c2.3-11,6-21.6,10.9-31.6c0.9-1.8,1.8-3.5,2.7-5.3c0-0.1,0.1-0.1,0.1-0.2L1055,546L1055,546z"/>
			<path style="fill:#F2F2F2;" d="M1055,440.4V498c0,0.1-0.1,0.1-0.1,0.2c-0.9,1.8-1.8,3.5-2.7,5.3c-5,10-8.6,20.6-10.9,31.6
				c-0.2,1-0.5,1.9-0.6,2.9h-73.2v-32.2h8.3v-41.6h-8.3v-23.8H1055z M1039.2,505.8v-41.6h-26.5v41.6H1039.2z"/>
			<path style="fill:#F2F2F2;" d="M993.1,347.8l61.9,92.7h-87.5v-55.3l18.7-28.1L993.1,347.8z M995.5,380l1.2-1.9h-1.2V380z"/>
			<path style="fill:#BDCCD4;" d="M1055.5,702.8c-0.8,0.2-1.5,0.4-2.3,0.6C1054,703.3,1054.8,703.1,1055.5,702.8z"/>
			<path style="fill:#BDCCD4;" d="M1049.6,704.1c1-0.1,2.1-0.3,3.1-0.5C1051.7,703.8,1050.7,704,1049.6,704.1z"/>
			<path style="fill:#F2F2F2;" d="M1046,710.5L1046,710.5L1046,710.5C1045.9,710.5,1046,710.5,1046,710.5z"/>
			<path style="fill:#BDCCD4;" d="M1046,709.5v0.9c-0.1,0-0.1,0-0.1,0.1L1046,709.5L1046,709.5z"/>
			<path style="fill:#BDCCD4;" d="M1045.9,704.4l0.1,5.2h-0.1V704.4L1045.9,704.4L1045.9,704.4z"/>
			<polygon style="fill:#F2F2F2;" points="1045.9,709.5 1045.9,710.6 967.5,710.6 967.5,709.5 			"/>
			<path style="fill:#F2F2F2;" d="M1039.3,656.2l6.6,48h-0.1l0.1,5.3h-78.4v-53.3H1039.3z"/>
			<path style="fill:#F2F2F2;" d="M1032.1,603.1l7.2,53.1h-71.8v-73.3h56.6c3.9,2.8,6.6,7.3,6.6,12.6v7.6L1032.1,603.1L1032.1,603.1
				z"/>
			<rect x="1012.7" y="464.2" style="fill:#F2F2F2;" width="26.5" height="41.6"/>
			<path style="fill:#F2F2F2;" d="M1029.4,582.9l2.8,20.2h-1.4v-7.6c0-5.3-2.7-9.9-6.6-12.6L1029.4,582.9L1029.4,582.9z"/>
			<path style="fill:#F2F2F2;" d="M1024.1,582.9h-56.6v-2.5h48.6C1019,580.4,1021.8,581.2,1024.1,582.9z"/>
			<polygon style="fill:#F2F2F2;" points="996.7,378.1 995.5,380 995.5,378.1 			"/>
			<polygon style="fill:#FF931E;" points="994,345.4 994,345.5 992.8,347.3 992.8,347.3 991.6,345.5 991.6,345.4 			"/>
			<polygon style="fill:#F14929;" points="993.1,347.8 986.3,357 992.8,347.3 			"/>
			<path style="fill:#FF931E;" d="M992.8,347.3l-6.5,9.8l-17.4,23.6l-1.3,1.9v2.6l-36.9,55.3c0,0-0.9,0-2.4,0l63.4-94.9L992.8,347.3
				z"/>
			<path style="fill:#FF931E;" d="M991.6,345.4L991.6,345.4l-63.4,95h-34.8v-23.8c0-4.3-0.8-8.3-1.6-11.8c0-0.1,0-0.2-0.1-0.2l0,0
				H914c8,0,14.6-6.8,14.6-15.2v-29.1c0-7.3-5-13.4-11.5-14.9c-0.4-0.1-0.7-0.1-1.1-0.1L991.6,345.4L991.6,345.4z"/>
			<polygon style="fill:#F2F2F2;" points="986.3,357 967.5,385.1 967.5,382.5 968.9,380.6 			"/>
			<rect x="967.5" y="464.2" style="fill:#F2F2F2;" width="8.3" height="41.6"/>
			<path style="fill:#88B535;" d="M967.5,656.2v53.3h-74.1V606.9v-24h34.8h30.1c-0.3,0.2-0.5,0.4-0.7,0.5c-3.1,2.4-5.2,6-5.7,10.1
				c-0.1,0.6-0.1,1.3-0.1,2v7.6h-12.2c-8,0-14.6,6.8-14.6,15.2V641c0,8.3,6.6,15.2,14.6,15.2H967.5z"/>
			<path style="fill:#009245;" d="M967.5,582.9v73.3h-28c-8,0-14.6-6.8-14.6-15.2v-22.8c0-8.3,6.6-15.2,14.6-15.2h12.2v-7.6
				c0-0.7,0-1.3,0.1-2c0.5-4.1,2.7-7.7,5.7-10.1c0.2-0.2,0.5-0.4,0.7-0.5L967.5,582.9L967.5,582.9z"/>
			<path style="fill:#009245;" d="M967.5,580.4v2.5h-9.2c2.3-1.6,5.1-2.5,8-2.5H967.5z"/>
			<path style="fill:#88B535;" d="M967.5,538v42.3h-1.2c-2.9,0-5.7,0.9-8,2.5h-30.1V538H967.5z"/>
			<path style="fill:#F14929;" d="M967.5,505.8V538h-39.4v-97.6c1.6,0,2.4,0,2.4,0h36.9v23.8h-18.2v41.6H967.5z"/>
			<rect x="949.3" y="464.2" style="fill:#F14929;" width="18.2" height="41.6"/>
			<polygon style="fill:#F14929;" points="967.5,385.1 967.5,440.4 930.6,440.4 			"/>
			<path style="fill:#009245;" d="M957.5,583.4c-3,2.4-5.2,6-5.7,10.1C952.3,589.4,954.4,585.9,957.5,583.4z"/>
			<path style="fill:#009245;" d="M951.8,593.6c-0.1,0.6-0.1,1.3-0.1,2C951.7,594.9,951.8,594.2,951.8,593.6z"/>
			<path style="fill:#FF931E;" d="M928.6,360.4v29.1c0,8.3-6.6,15.2-14.6,15.2h-22.3c-4.5-10.7-14.7-18.1-26.6-18.1h-15.3
				c0.1-0.1,0.2-0.2,0.2-0.3c19.7-21.4,38.3-41,38.3-41h27.6c0.4,0,0.7,0.1,1.1,0.1C923.6,347,928.6,353.1,928.6,360.4z"/>
			<rect x="893.4" y="538" style="fill:#88B535;" width="34.8" height="44.9"/>
			<polygon style="fill:#E6E6E6;" points="928.1,440.4 928.1,538 893.4,538 893.4,505.8 901.8,505.8 901.8,464.2 893.4,464.2 
				893.4,440.4 			"/>
			<rect x="893.4" y="464.2" style="fill:#BDCCD4;" width="8.4" height="41.6"/>
			<path style="fill:#009245;" d="M893.4,709.7v1.1c0,0.6-0.5,1.1-1.1,1.1H751.2c8,0,14.6-6.8,14.6-15.2v-19h4.9v32L893.4,709.7
				L893.4,709.7z"/>
			<path style="fill:#88B535;" d="M893.4,709.5L893.4,709.5l-122.8,0.1v-32H818l-6.4-9.5L792,639.2h11.5l-20.9-31.9v-0.1v-0.1
				c1.1-2.3,2.2-4.4,3.4-6.6h3l-0.6-1.4h5.2c8,0,14.6-6.8,14.6-15.2v-1.3h12.4c-0.1,0.8-0.2,1.7-0.2,2.5v5.1c0,0.4,0,0.9,0,1.3
				c-3.5,0.4-6.7,1.9-9.1,4.4c-2.7,2.8-4.3,6.6-4.3,10.7c0,8.3,6.6,15.2,14.6,15.2h55.9c4,0,7.7-1.6,10.3-4.4
				c2.7-2.8,4.3-6.6,4.3-10.7h1.2L893.4,709.5L893.4,709.5z"/>
			<path style="fill:#88B535;" d="M893.4,582.9v24h-1.2c0-8-6-14.5-13.4-15.2c0-0.4,0-0.9,0-1.3v-5.1c0-0.9-0.1-1.7-0.2-2.5h2.6
				L893.4,582.9L893.4,582.9z"/>
			<path style="fill:#88B535;" d="M893.4,538v44.9h-12.2v-44.6c2.7-0.3,5.3-0.3,8-0.3L893.4,538L893.4,538z"/>
			<path style="fill:#E6E6E6;" d="M893.4,505.8V538h-4.1c-2.7,0-5.3,0-8,0.3v-4.7c0-9.6-9-17.4-20.1-17.4s-20.1,7.8-20.1,17.4v15
				c-12.2,5.6-23.2,13.3-32.8,22.6v-9.9c0-5.1-2.5-9.8-6.3-12.5V441.7c0-0.6,0.5-1.1,1.1-1.1h0.3c0.3,0,0.5-0.1,0.7-0.3h89.4v23.8
				h-18.1v41.6L893.4,505.8L893.4,505.8z M848.9,505.8v-41.6h-26.5v41.6H848.9z"/>
			<rect x="875.3" y="464.2" style="fill:#BDCCD4;" width="18.1" height="41.6"/>
			<path style="fill:#FF931E;" d="M893.4,416.7v23.8H804c0.1-0.1,0.3-0.3,0.3-0.5c1.7-3.9,19.3-23.7,38.1-44.2
				c2.3,5.2,7.5,8.9,13.3,8.9h36l0,0c0,0.1,0.1,0.2,0.1,0.2C892.5,408.4,893.4,412.4,893.4,416.7z"/>
			<path style="fill:#FF931E;" d="M891.8,404.6h-36c-5.8,0-11-3.7-13.3-8.9l0.1-0.1c0.3-0.3,0.3-0.7,0.2-1c0-0.1,0-0.1,0-0.2
				c2.4-2.6,4.8-5.2,7.2-7.8h15.3C877.1,386.6,887.2,394,891.8,404.6z"/>
			<path style="fill:#009245;" d="M892.2,606.9c0,4.2-1.6,8-4.3,10.7c-2.7,2.8-6.3,4.4-10.3,4.4h-55.9c-8,0-14.6-6.8-14.6-15.2
				c0-4.2,1.6-8,4.3-10.7c2.4-2.5,5.6-4,9.1-4.4c0-0.4,0-0.9,0-1.3v-5.1c0-0.9,0.1-1.7,0.2-2.5h20.5h37.5c0.1,0.8,0.2,1.7,0.2,2.5
				v5.1c0,0.4,0,0.9,0,1.3C886.2,592.4,892.2,598.9,892.2,606.9z"/>
			<path style="fill:#88B535;" d="M881.2,538.3v44.6h-2.6c-1.2-7.2-7.2-12.6-14.4-12.6h-23.1v-21.6
				C853.5,542.9,867,539.3,881.2,538.3z"/>
			<path style="fill:#2E3192;" d="M881.2,533.6v4.7c-14.2,1-27.7,4.7-40.1,10.4v-15c0-9.6,9-17.4,20.1-17.4
				C872.2,516.1,881.2,524,881.2,533.6z"/>
			<path style="fill:#009245;" d="M878.6,582.9h-37.5v-12.6h23.1C871.4,570.2,877.4,575.7,878.6,582.9z"/>
			<path style="fill:#009245;" d="M843.1,386.6h6.8c-2.4,2.6-4.8,5.2-7.2,7.8c-0.5-1.5-0.7-3.1-0.7-4.8v-2
				C842,387,842.5,386.6,843.1,386.6z"/>
			<rect x="822.4" y="464.2" style="fill:#BDCCD4;" width="26.5" height="41.6"/>
			<path style="fill:#FF931E;" d="M842.8,394.6c0.1,0.4,0,0.8-0.2,1l-0.1,0.1c-0.1-0.2-0.2-0.5-0.3-0.7l0.1-0.1
				c0.2-0.2,0.3-0.4,0.5-0.5C842.7,394.4,842.7,394.5,842.8,394.6z"/>
			<path style="fill:#FF931E;" d="M842.1,395c0.1,0.2,0.2,0.5,0.3,0.7c-18.8,20.5-36.4,40.3-38.1,44.2c-0.1,0.2-0.2,0.3-0.3,0.5
				h-0.3c-0.3,0-0.3-0.4,0.1-1.1C806.4,434.5,823.8,415.1,842.1,395z"/>
			<path style="fill:#006837;" d="M842.1,394.8L842.1,394.8c-0.6-1.5-0.9-3.1-1-4.8C841.2,391.7,841.6,393.2,842.1,394.8z"/>
			<path style="fill:#009245;" d="M841.1,570.2v12.6h-20.5c1.2-7.2,7.2-12.6,14.4-12.6H841.1z"/>
			<path style="fill:#88B535;" d="M841.1,548.6v21.6H835c-7.2,0-13.2,5.5-14.4,12.6h-12.4v-11.6C817.9,561.9,829,554.2,841.1,548.6z
				"/>
			<path style="fill:#88B535;" d="M820.5,347.8v29.1c0,3.5-1.2,6.8-3.1,9.4H686.5v-52.1c1.9-1,4.1-1.5,6.3-1.5h10.9
				c0-0.4,0-0.9,0-1.3v-19c0-8.3,6.6-15.2,14.6-15.2h58.3c8,0,14.6,6.8,14.6,15.2v19c0,0.4,0,0.9,0,1.3h14.6
				C813.9,332.6,820.5,339.4,820.5,347.8z"/>
			<path style="fill:#0B8500;" d="M811.6,668.2l6.4,9.5h-47.4v-16.3c0-9.1,0.9-18,2.7-26.5c2-9.6,5.2-18.8,9.3-27.5v0.1l20.9,31.9
				H792L811.6,668.2z"/>
			<path style="fill:#006837;" d="M686.5,386.2h130.8c-2.7,3.5-6.8,5.8-11.5,5.8h-113c-2.2,0-4.3-0.5-6.2-1.5v-4.1h-0.1V386.2z"/>
			<path style="fill:#88B535;" d="M808.3,582.9v1.3c0,8.3-6.6,15.2-14.6,15.2h-5.2l-0.8-1.5c0,0,0-0.1,0.1-0.1
				c0.2-0.3,0.4-0.7,0.6-1c0.4,0.1,0.9-0.1,1.2-0.5c3.5-5.8,7.5-11.3,11.7-16.4v3.1L808.3,582.9L808.3,582.9z"/>
			<path style="fill:#88B535;" d="M808.3,571.3v11.6h-7v-3.1c0.2-0.2,0.3-0.4,0.5-0.6c0.2-0.2,0.3-0.4,0.3-0.7v-0.7
				C804,575.5,806.1,573.4,808.3,571.3z"/>
			<path style="fill:#E6E6E6;" d="M808.3,561.4v9.9c-2.2,2.1-4.3,4.3-6.3,6.6v-29C805.8,551.6,808.3,556.3,808.3,561.4z"/>
			<path style="fill:#E6E6E6;" d="M803.7,440.4h0.3c-0.2,0.2-0.4,0.3-0.7,0.3H803c-0.6,0-1.1,0.5-1.1,1.1v107.1
				c-0.2-0.2-0.5-0.3-0.7-0.5v-108L803.7,440.4L803.7,440.4z"/>
			<path style="fill:#88B535;" d="M802,577.9v0.7c0,0.3-0.1,0.5-0.3,0.7s-0.3,0.4-0.5,0.6v-1.1C801.5,578.4,801.7,578.1,802,577.9z"
				/>
			<path style="fill:#E6E6E6;" d="M802,548.9v29c-0.3,0.3-0.5,0.6-0.7,0.8v-30.3C801.5,548.5,801.8,548.7,802,548.9z"/>
			<path style="fill:#0B8500;" d="M788.5,599.3l0.6,1.4h-3c0.2-0.5,0.5-0.9,0.7-1.4H788.5z"/>
			<path style="fill:#0B8500;" d="M787.7,597.8l0.8,1.5h-1.7C787,598.8,787.4,598.4,787.7,597.8z"/>
			<path style="fill:#009245;" d="M788.4,596.7c-0.2,0.3-0.4,0.7-0.6,1C788,597.3,788.2,597,788.4,596.7L788.4,596.7z"/>
			<path style="fill:#006837;" d="M764.6,548.2l23.2,49.4c0,0,0,0.1-0.1,0.1l-0.1-0.1L764.6,548.2z"/>
			<path style="fill:#0B8500;" d="M787.7,597.7L787.7,597.7c-0.3,0.7-0.6,1.1-0.8,1.6H772c-8,0-14.6-6.8-14.6-15.2v-22.8
				c0-5.6,2.9-10.5,7.3-13.1L787.7,597.7z"/>
			<path style="fill:#0B8500;" d="M771.9,599.3h14.9c-0.2,0.5-0.5,0.9-0.7,1.4h-7.8l4.3,6.6c-4.1,8.6-7.2,17.8-9.3,27.5l-2.9-0.6
				l-37.1-49.6l16.5,0.1l-15.6-21.5l0.4-0.8c0.4,0.1,0.9-0.2,1.1-0.6l16.8-35.8c0.2-0.4,0.6-0.6,1-0.6l10.7,22.8
				c-4.4,2.7-7.3,7.6-7.3,13.1v22.8C757.3,592.5,763.8,599.3,771.9,599.3z"/>
			<path style="fill:#009245;" d="M778.3,600.7h7.8c-1.2,2.1-2.3,4.3-3.4,6.6v0.1L778.3,600.7z"/>
			<path style="fill:#0B8500;" d="M770.5,634.2l2.9,0.6c-1.8,8.5-2.7,17.4-2.7,26.5v16.3h-4.9v-21.5c0-8.3-6.6-15.2-14.6-15.2h-38.5
				l1.2-1.8h-11.5l3.5-5.3L770.5,634.2z"/>
			<polygon style="fill:#0B8500;" points="733.4,584.7 770.5,634.2 705.9,634 727.7,600.7 716.8,600.7 734.4,563.3 750,584.8 			"/>
			<path style="fill:#006837;" d="M765.8,677.7v19c0,8.3-6.6,15.2-14.6,15.2h-6.8V708h10.9v-30.3H765.8z"/>
			<path style="fill:#0B8500;" d="M765.8,656.2v21.5h-10.5h-10.9h-56.5l22.2-32.9l2.6-3.8h38.5C759.2,641,765.8,647.9,765.8,656.2z"
				/>
			<rect x="744.4" y="677.7" style="fill:#612736;" width="10.9" height="30.3"/>
			<path style="fill:#0B8500;" d="M753,523.7l0.8,1.7c-0.4,0-0.8,0.2-1,0.6L736,561.8c-0.2,0.5-0.7,0.7-1.1,0.6L753,523.7z"/>
			<path style="fill:#006837;" d="M744.4,708v3.8H595.6c-4.8,0-9.1-2.5-11.8-6.2c0.6-1.1,0.9-2.3,0.9-3.6c0.7-5.1,1.1-10.1,1.1-14.9
				c0-2.1-0.1-4.3-0.1-6.3c-0.1-1.3-0.2-2.5-0.3-3.8h11.4v29.8H613V677h54.2l-0.1,31l20.7,0.1l0.1-30.3h56.5L744.4,708L744.4,708z"
				/>
			<path style="fill:#88B535;" d="M733.7,562.3l0.7,0.9l-17.6,37.4h10.9L705.9,634h-17.8l0,0l-15.6-0.1h-5.1l-21.3-0.1L645,632h12
				l-26.4-45h11.3l-14-33.1l0.7-1c0.4,0.1,0.8-0.1,1-0.4l11.5-15.6c0.3-0.4,0.3-0.8,0.1-1.1l0.5-0.7h-0.1l0.1-0.1H628
				c-0.4-0.3-0.5-0.8-0.3-1.3l50.1-95.2c0.2-0.4,0.7-0.6,1.1-0.6l0,0l50.2,97.2c-0.1,0.1-0.1,0.2-0.2,0.3h-15h-0.1L733.7,562.3z"/>
			<polygon style="fill:#88B535;" points="714.1,535.2 733.7,562.3 714,535.2 			"/>
			<path style="fill:#88B535;" d="M729.4,534.9l0.2,0.4h-0.1l-0.1-0.3C729.3,534.9,729.4,534.9,729.4,534.9z"/>
			<path style="fill:#006837;" d="M729.4,533.9c0.2,0.3,0.2,0.7,0,1l-50.3-97.1c0.3,0.1,0.6,0.2,0.8,0.6L729.4,533.9z"/>
			<path style="fill:#88B535;" d="M729.3,535l0.1,0.3H729C729.2,535.1,729.2,535.1,729.3,535z"/>
			<path style="fill:#88B535;" d="M679.1,437.8l50.3,97.1c0,0,0,0.1-0.1,0.1L679.1,437.8z"/>
			<polygon style="fill:#009245;" points="713.9,639.3 712.7,641 688,641 688,634 705.9,634 702.3,639.3 			"/>
			<polygon style="fill:#006837;" points="712.7,641 710.1,644.8 687.9,677.7 688,641 			"/>
			<polygon style="fill:#612736;" points="688,633.9 688,634 688,634 672.5,633.8 			"/>
			<polygon style="fill:#612736;" points="688,634 688,641 667.3,641 667.4,633.8 672.5,633.8 			"/>
			<polygon style="fill:#612736;" points="688,641 687.9,677.7 687.8,708 667.1,707.9 667.2,676.9 672.2,676.9 667.3,668.6 
				667.3,641 			"/>
			<path style="fill:#2E3192;" d="M582.1,87.1c23.8,25.2,110.5,117.6,104.5,117.6h-0.1v-1.3H520.8v1.1L438,80.7h21.8v0.1h23.7
				l5.8,7.6l23,30v-0.1h69.9V87.1H582.1z"/>
			<path style="fill:#006837;" d="M686.7,390.5v0.2H520.8v-0.3h165.3v-0.2C686.2,390.3,686.5,390.5,686.7,390.5z"/>
			<path style="fill:#006837;" d="M686.7,386.4v4.1c-0.2-0.1-0.4-0.2-0.6-0.3v-0.8h0.5L686.7,386.4L686.7,386.4z"/>
			<rect x="686.1" y="386.4" style="fill:#F14929;" width="0.5" height="3"/>
			<rect x="686.1" y="386.2" style="fill:#F14929;" width="0.5" height="0.3"/>
			<path style="fill:#F14929;" d="M686.5,334.1v52.1H686v0.3h-4.5c-2.1-2.6-3.3-6-3.3-9.6v-29.1
				C678.3,341.8,681.7,336.6,686.5,334.1z"/>
			<path style="fill:#F14929;" d="M686.5,204.7v129.4c-4.9,2.5-8.3,7.7-8.3,13.7v29.1c0,3.6,1.2,7,3.3,9.6H520.8V204.7v-0.2l0.1,0.2
				C520.9,204.7,678.1,204.7,686.5,204.7z M660.9,290.9v-54.2h-34.5v54.2H660.9z M581.2,290.9v-54.2h-34.5v54.2H581.2z"/>
			<path style="fill:#F14929;" d="M686.5,203.4v1.3c-8.5,0-165.6,0-165.6,0l-0.1-0.2v-1.1L686.5,203.4L686.5,203.4z"/>
			<path style="fill:#009245;" d="M686.1,390.2v0.2H520.8v-1h164C685.2,389.8,685.6,390,686.1,390.2z"/>
			<path style="fill:#009245;" d="M686.1,389.5v0.8c-0.4-0.2-0.8-0.5-1.2-0.8H686.1z"/>
			<path style="fill:#F14929;" d="M686.1,386.4v3h-1.2c-1.2-0.8-2.3-1.9-3.2-3H686.1z"/>
			<path style="fill:#F14929;" d="M684.8,389.5h-164v-3h160.8C682.5,387.6,683.6,388.6,684.8,389.5z"/>
			<path style="fill:#88B535;" d="M678.3,436.2l0.8,1.5c-0.4-0.1-0.9,0.1-1.1,0.6l-50.1,95.2c-0.3,0.5-0.1,1,0.3,1.3h-1.7
				L678.3,436.2z"/>
			<polygon style="fill:#009245;" points="672.5,633.8 667.4,633.8 667.3,641 650.5,641 646.1,633.7 667.3,633.8 			"/>
			<polygon style="fill:#0B8500;" points="667.3,668.6 672.2,676.9 667.2,676.9 			"/>
			<polygon style="fill:#006837;" points="667.3,641 667.3,668.6 667.2,668.6 652.8,644.8 650.5,641 			"/>
			<path style="fill:#0B8500;" d="M667.3,668.6v8.3h-54.2h-16.2h-11.4c-0.6-6.1-1.9-11.9-3.7-17.4c-0.2-0.7-0.5-1.5-0.7-2.2v-1.1
				c0-8.3,6.6-15.2,14.6-15.2h54.8l2.3,3.8L667.3,668.6L667.3,668.6z"/>
			<rect x="626.4" y="236.6" style="fill:#2E3192;" width="34.5" height="54.2"/>
			<polygon style="fill:#0B8500;" points="630.6,586.9 657,631.9 645,631.9 646.1,633.7 584.8,633.6 622.1,584.3 605.6,584.3 
				628,553.8 641.9,586.9 			"/>
			<path style="fill:#0B8500;" d="M650.5,641h-54.8c-8,0-14.6,6.8-14.6,15.2v1.1c-3.6-10.3-9-19.8-15.9-28.3c-0.5-0.6-1-1.2-1.5-1.8
				c-1.3-1.6-2.9-3.3-4.4-4.9c-0.5-0.5-1-1.1-1.5-1.6l1.3-2.2l0.3-0.6c0.3,0,0.6-0.2,0.7-0.5l17.6-29.9l0.2-0.4h-0.4l0.1-0.1h-0.2
				l0.1-0.1h-9.9c-0.3-0.3-0.5-0.8-0.3-1.3l5.4-12.8l30.8-73.2c0.2-0.6,0.8-0.8,1.3-0.6l23,54.9l-22.4,30.5h16.5l-37.3,49.3
				l61.3,0.1L650.5,641z"/>
			<path style="fill:#88B535;" d="M641.8,534.8L641.8,534.8h-13.7l0,0H641.8z"/>
			<path style="fill:#009245;" d="M641.8,535l-0.5,0.7v-0.1L641.8,535L641.8,535z"/>
			<path style="fill:#006837;" d="M641.7,535l-0.5,0.7c-0.2-0.3-0.5-0.5-0.9-0.5h-11.5c-0.3,0-0.5-0.1-0.7-0.2H641.7z"/>
			<path style="fill:#88B535;" d="M641.3,535.7c0.2,0.3,0.1,0.7-0.1,1.1l-11.5,15.6c-0.2,0.3-0.6,0.5-1,0.4L641.3,535.7z"/>
			<path style="fill:#009245;" d="M628.7,552.8l-0.7,1l-23-54.9c0,0,0,0,0.1,0l23,54.7L628.7,552.8
				C628.6,552.8,628.6,552.8,628.7,552.8z"/>
			<path style="fill:#006837;" d="M628.6,552.8l-0.6,0.9L605,499c0.3,0.1,0.5,0.3,0.6,0.6l22.2,52.7
				C628,552.5,628.3,552.8,628.6,552.8z"/>
			<path style="fill:#88B535;" d="M628.1,534.8C628.1,534.8,628.1,534.9,628.1,534.8h-1.7H628.1z"/>
			<rect x="596.8" y="676.9" style="fill:#612736;" width="16.2" height="29.8"/>
			<path style="fill:#0B8500;" d="M604.1,497l0.8,1.9c-0.5-0.1-1.1,0.1-1.3,0.6l-30.8,73.2l-5.4,12.8c-0.2,0.5,0,1,0.3,1.3h-1.4
				l6-14.2L604.1,497z"/>
			<path style="fill:#009245;" d="M595.6,711.8H462v-1.3h113c2.6,0,5-0.9,6.7-2.3c0.9-0.8,1.7-1.7,2.2-2.7
				C586.5,709.4,590.8,711.8,595.6,711.8z"/>
			<path style="fill:#006837;" d="M585.8,680.7c0,2,0.1,4.2,0.1,6.3c0,4.8-0.4,9.9-1.1,14.9c0,1.3-0.3,2.6-0.9,3.6
				c-1.8-2.5-2.8-5.6-2.8-8.9v-19.7h4.4C585.6,678.2,585.7,679.4,585.8,680.7z"/>
			<path style="fill:#0B8500;" d="M585.5,676.9h-4.4v-19.7c0.2,0.7,0.5,1.5,0.7,2.2C583.6,665,584.8,670.8,585.5,676.9z"/>
			<path style="fill:#88B535;" d="M583.9,705.6c-0.5,1-1.3,1.9-2.2,2.7c-1.7,1.4-4.1,2.3-6.7,2.3H462v-91h75.3c0.1,0,0.4,0,0.6,0
				c4.8-0.2,8.9-2.8,11.4-6.7c3,2.5,5.8,5,8.4,7.7l-1.6,2.7l-5,8.6h12.2l-27.3,45h45.1v19.7C581.1,700,582.1,703.1,583.9,705.6z"/>
			<path style="fill:#F14929;" d="M582.1,87.1v31.1h-69.9V80.8H576C576.1,80.8,578.3,83.1,582.1,87.1z"/>
			<path style="fill:#F14929;" d="M582.1,39.9v47.2c-3.9-4-6.1-6.3-6.1-6.3h-63.8V40l34.9-39.9L582.1,39.9z M564.6,54.6
				c0-10.1-7.8-18.2-17.5-18.2s-17.5,8.1-17.5,18.2c0,10,7.8,18.2,17.5,18.2C556.8,72.8,564.6,64.7,564.6,54.6z"/>
			<rect x="546.7" y="236.6" style="fill:#2E3192;" width="34.5" height="54.2"/>
			<path style="fill:#0B8500;" d="M581.1,657.3V677H536l27.3-45l1.9-3C572.1,637.5,577.5,647,581.1,657.3z"/>
			<path style="fill:#0B8500;" d="M578,587.1l-0.2,0.4l-17.6,29.9c-0.2,0.3-0.4,0.5-0.7,0.5l18-30.5l0.2-0.3L578,587.1L578,587.1z"
				/>
			<polygon style="fill:#009245;" points="577.6,586.9 577.6,587.1 577.4,587.1 577.4,586.9 			"/>
			<path style="fill:#0B8500;" d="M577.5,586.8L577.5,586.8l-9.7,0.1c-0.1,0-0.1-0.1-0.2-0.1H577.5z"/>
			<path style="fill:#006837;" d="M577.4,586.9L577.4,586.9l-9.1,0.1c-0.2,0-0.4-0.1-0.5-0.1H577.4z"/>
			<path style="fill:#0B8500;" d="M567.8,586.9h-1.6v-0.1h1.4C567.7,586.9,567.8,586.9,567.8,586.9z"/>
			<path style="fill:#0B8500;" d="M563.7,627.1c0.5,0.6,1,1.2,1.5,1.8l-1.9,3h-12.2l5-8.6l1.6-2.7c0.5,0.5,1,1,1.5,1.6
				C560.8,623.8,562.3,625.5,563.7,627.1z"/>
			<ellipse style="fill:#2E3192;" cx="547.1" cy="54.6" rx="17.5" ry="18.2"/>
			<path style="fill:#009245;" d="M559.4,617.8l-0.3,0.6l-1.3,2.2c-2.6-2.7-5.5-5.3-8.4-7.7c0.5-0.8,1-1.6,1.3-2.5
				c2.9,2.5,5.7,5.1,8.3,7.9l0.3-0.4C559.3,617.8,559.3,617.8,559.4,617.8z"/>
			<path style="fill:#009245;" d="M551.9,580.4v24c0,2.1-0.4,4.1-1.2,5.9c-7.7-6.6-16.3-12.4-25.8-17.4c-1-0.5-2-1.1-3-1.6
				c-3.4-1.7-6.8-3.3-10.4-4.8c-10.8-4.6-22.5-8.1-34.5-10.4c-4.3-0.9-8.6-1.5-13-2.1c-0.5-0.1-1.1-0.2-1.7-0.2
				c-0.2-0.2-0.3-0.5-0.3-0.7v-21.8c2.6-2.3,5.9-3.8,9.6-3.8h45c8,0,14.6,6.8,14.6,15.2v2.5h6.1c3.6,0,6.9,1.4,9.5,3.7
				C549.9,571.6,551.9,575.8,551.9,580.4z"/>
			<path style="fill:#009245;" d="M550.7,610.3C550.7,610.4,550.7,610.4,550.7,610.3c-7.8-6.5-16.4-12.4-25.8-17.4
				C534.4,597.8,543,603.7,550.7,610.3z"/>
			<path style="fill:#009245;" d="M550.7,610.4c-0.4,0.9-0.8,1.7-1.3,2.5c-10.8-9.1-23.5-16.6-37.4-22.4
				c-10.9-4.6-22.5-8.1-34.5-10.4c-4.4-0.9-8.6-1.6-13-2.1c-0.9-0.1-1.7-0.1-2.4-0.3v-3.9c0.1,0,0.3,0,0.4,0
				c0.2,0.2,0.4,0.3,0.7,0.3c0.5,0,1,0.1,1.4,0.1c4.4,0.5,8.6,1.3,13,2.1c12,2.3,23.6,5.8,34.5,10.4c3.4,1.4,6.7,2.9,9.9,4.5
				c1,0.5,2,1,3,1.6C534.4,597.9,543,603.8,550.7,610.4z"/>
			<path style="fill:#88B535;" d="M549.3,612.9c-2.5,3.8-6.7,6.4-11.4,6.7c-0.2,0-0.5,0-0.6,0H462v-41.8c0.7,0.1,1.6,0.1,2.4,0.3
				c4.4,0.5,8.6,1.3,13,2.1c12,2.3,23.6,5.8,34.5,10.4C525.8,596.3,538.5,603.8,549.3,612.9z"/>
			<polygon style="fill:#FF931E;" points="547.1,0 512.3,39.4 459.8,39.4 494.8,0 			"/>
			<path style="fill:#006837;" d="M520.8,390.5v0.3h-70.9c0-0.1,0-0.2,0-0.3H520.8z"/>
			<path style="fill:#009245;" d="M520.8,389.5v1H450c0.2-1.3,0.4-2.6,0.6-4h70.2V389.5z"/>
			<path style="fill:#E6E6E6;" d="M520.8,204.7v181.8h-70.3c0.1-1.5,0.2-3,0.2-4.7c0-22-12.9-40.7-31.3-48.5
				c-0.2-0.1-0.5-0.2-0.7-0.3c-5.8-2.5-12.2-3.8-18.9-3.8c-4.2,0-8.4,0.6-12.4,1.6c-5.3-16.6-17.1-30.3-32.3-37.5v-88.6L520.8,204.7
				L520.8,204.7z M494.2,290.9v-54.2h-34.5v54.2H494.2z M416.1,290.9v-54.2h-34.5v54.2H416.1z"/>
			<polygon style="fill:#E6E6E6;" points="437.9,80.5 520.8,204.7 355.1,204.7 355,204.7 			"/>
			<path style="fill:#009245;" d="M521.9,591.3c-3.2-1.6-6.5-3.1-9.9-4.5c-10.9-4.6-22.5-8.1-34.5-10.4c-4.4-0.9-8.6-1.6-13-2.1
				c-0.5-0.1-1-0.1-1.4-0.1c-0.3,0-0.5-0.2-0.7-0.3c0.6,0,1.1,0.1,1.7,0.2c4.4,0.6,8.8,1.3,13,2.1c12,2.3,23.7,5.8,34.5,10.4
				C515.1,588,518.5,589.6,521.9,591.3z"/>
			<polygon style="fill:#E6E6E6;" points="512.3,80.8 512.3,118.2 489.3,88.4 483.6,80.9 483.5,80.7 483.4,80.7 483.3,80.5 
				459.8,80.5 459.8,39.4 512.3,39.4 512.3,39.9 			"/>
			<rect x="459.6" y="236.6" style="fill:#BDCCD4;" width="34.5" height="54.2"/>
			<polygon style="fill:#E6E6E6;" points="489.3,88.4 483.5,80.8 483.4,80.7 483.5,80.7 483.6,80.9 			"/>
			<polygon style="fill:#F14929;" points="483.4,80.7 483.5,80.8 459.8,80.8 459.8,80.7 			"/>
			<polygon style="fill:#F14929;" points="483.3,80.5 483.4,80.7 459.8,80.7 459.8,80.5 			"/>
			<path style="fill:#009245;" d="M462.4,573.8c-0.1,0-0.3,0-0.4,0v-22.4l0.1-0.1v21.8C462.1,573.3,462.2,573.6,462.4,573.8z"/>
			<path style="fill:#006837;" d="M462.1,546.3v4.9l-0.1,0.1v-1.6l-0.4-0.7v-3.2l-56-112c0.1,0,0.2,0,0.2,0l-7-13.8l0.1-0.2l7,14
				l56,112C462,546,462.1,546.2,462.1,546.3z"/>
			<rect x="335.7" y="711.8" style="fill:#F14929;" width="126.3" height="0.1"/>
			<path style="fill:#F14929;" d="M462,710.6v1.3H335.7v-1.3V550.9v-0.8l0.2-0.3h125.7v2c-2.8,2.8-4.5,6.6-4.5,10.9v2.5h-7.3
				c-4.3,0-8.3,2-10.9,5.2c-1.1,1.1-1.8,2.5-2.4,3.9c-0.3,0.7-0.5,1.5-0.7,2.3h-23.5c-5.5,0-9.8,3.9-9.8,8.6V702
				c0,4.7,4.5,8.6,9.8,8.6H462z M383,637.9v-55.2h-26.3v55.2H383z"/>
			<path style="fill:#F14929;" d="M462,619.5v91h-49.7c-5.3,0-9.8-3.9-9.8-8.6V585.2c0-4.7,4.4-8.6,9.8-8.6h23.5
				c-0.3,1.2-0.5,2.5-0.5,3.8v2.3H420v55.2h26.3V619c1.2,0.3,2.4,0.5,3.6,0.5H462z"/>
			<path style="fill:#F14929;" d="M462,577.7v41.8h-12.2c-1.3,0-2.5-0.2-3.6-0.5v-36.4h-10.9v-2.3c0-1.3,0.2-2.6,0.5-3.8h5.3
				C448.1,576.6,455,576.9,462,577.7z"/>
			<path style="fill:#F14929;" d="M462,573.8v3.9c-6.9-0.8-13.9-1.1-20.9-1.1h-5.3c0.2-0.8,0.4-1.5,0.7-2.3c0.6-1.4,1.3-2.8,2.4-3.9
				c2.7-3.2,6.7-5.2,10.9-5.2h7.3v-2.5c0-4.3,1.7-8.2,4.5-10.9v22.1C461.7,573.8,461.8,573.8,462,573.8z"/>
			<polygon style="fill:#F14929;" points="461.6,549 462,549.8 461.6,549.8 			"/>
			<path style="fill:#F14929;" d="M461.6,549v0.7H335.9l0.2-0.5L393.3,435l0.7-1.3c2.1,0.3,4.2,0.5,6.4,0.5c1.2,0,2.4,0,3.7-0.1
				l1.8,3.6L461.6,549z"/>
			<path style="fill:#009245;" d="M461.6,545.8v3.2l-55.8-111.4L404,434c0.5,0,1-0.1,1.6-0.2L461.6,545.8z"/>
			<path style="fill:#2E3192;" d="M446.2,619v18.8h-26.3v-55.2h15.3v21.7c0,2.1,0.5,4.2,1.2,6.1C438.3,614.6,441.8,617.9,446.2,619z
				"/>
			<path style="fill:#2E3192;" d="M446.2,582.6V619c-4.4-1.2-7.9-4.4-9.7-8.6c-0.7-1.9-1.2-3.9-1.2-6.1v-21.7L446.2,582.6
				L446.2,582.6z"/>
			<rect x="381.6" y="236.6" style="fill:#BDCCD4;" width="34.5" height="54.2"/>
			<path style="fill:#FF931E;" d="M398.8,420.1l7,13.8c-0.1,0-0.2,0-0.2,0l-0.1-0.3l-5.7-11.3l-1.1-2.1L398.8,420.1z"/>
			<path style="fill:#009245;" d="M405.4,433.6l0.1,0.3c-0.5,0.1-1.1,0.1-1.6,0.2l-5.1-10.2l0.7-1.4l0.2-0.1L405.4,433.6z"/>
			<path style="fill:#F14929;" d="M398.9,423.8L404,434c-1.2,0.1-2.4,0.1-3.7,0.1c-2.2,0-4.3-0.2-6.4-0.5L398.9,423.8z"/>
			<path style="fill:#006837;" d="M418.7,333c-5.7-2.3-11.8-3.6-18.3-3.6c-4.5,0-8.8,0.6-12.9,1.8c0-0.1-0.1-0.3-0.1-0.4
				c4-1.1,8.2-1.6,12.4-1.6C406.5,329.2,412.9,330.5,418.7,333z"/>
			<path style="fill:#009245;" d="M398.7,420.2l1.1,2.1l-0.2,0.1h-31.1c-0.5-0.4-1-0.8-1.5-1.3h31h0.2L398.7,420.2z"/>
			<path style="fill:#FF931E;" d="M399.6,422.4l-0.7,1.4l-0.1-0.2l-0.6,1.3l-4.3,8.8c-0.4,0-0.8-0.1-1.3-0.2c-0.2,0-0.4-0.1-0.6-0.1
				c-8.8-1.5-16.8-5.5-23.4-11H399.6z"/>
			<path style="fill:#F14929;" d="M398.8,423.6l0.1,0.2l-4.9,9.8h-0.1l4.3-8.8L398.8,423.6z"/>
			<polygon style="fill:#FF931E;" points="398.8,420.1 398.7,420.2 398.6,419.9 398.6,419.8 			"/>
			<polygon style="fill:#FF931E;" points="398.7,420.2 398.3,421.1 398,421.1 398.6,419.9 			"/>
			<path style="fill:#FF931E;" d="M394,433.6l-0.7,1.3l-57.2,114.3l-0.2,0.5h-0.2l56.4-112.6l1.7-3.5
				C393.9,433.6,393.9,433.7,394,433.6z"/>
			<path style="fill:#FF931E;" d="M393.8,433.6l-1.7,3.5l-56.4,112.6v0.3l-0.2,0.5c0,0-42,0-78,0h-48.3v-5.4c1.3-2.3,3-5.1,5.1-8.4
				c0.6-1,1.3-2,2-3.1h8.8c8,0,14.6-6.8,14.6-15.2v-19.9c3.6-5.3,7.3-10.7,11-16.1c0.6-0.9,1.2-1.8,1.8-2.6c0.1-0.1,0.3-0.2,0.4-0.3
				c18.1-26.3,36-51.6,40-57.3l75.7,0.1c6.6,5.5,14.6,9.5,23.4,11c0.2,0,0.4,0.1,0.6,0.1C393,433.5,393.4,433.6,393.8,433.6z"/>
			<rect x="356.7" y="582.6" style="fill:#2E3192;" width="26.3" height="55.2"/>
			<path style="fill:#009245;" d="M368.5,422.4l-75.7-0.1c0.2-0.3,0.4-0.5,0.5-0.7c0.2-0.3,0.5-0.4,0.9-0.4H367
				C367.5,421.5,368,421.9,368.5,422.4z"/>
			<polygon style="fill:#FF931E;" points="335.9,549.8 335.7,550.1 335.7,549.8 			"/>
			<rect x="289.4" y="710.6" style="fill:#009245;" width="46.3" height="1.3"/>
			<path style="fill:#E6E6E6;" d="M335.7,550.9v159.7h-46.3v-43.7c0-9-9-16.2-20.2-16.3c-11.2,0-20.2,7.3-20.2,16.3v43.7h-39.6
				V550.9H335.7z M309.3,637.9v-55.2H283v55.2H309.3z M256.7,637.9v-55.2h-26.3v55.2H256.7z"/>
			<path style="fill:#009245;" d="M335.7,550.1v0.8H209.4v159.7H249v1.3h-38.8c-0.6,0-1.1-0.5-1.1-1.1V550.6h48.4c36,0,78,0,78,0
				L335.7,550.1z"/>
			<rect x="283.1" y="582.6" style="fill:#BDCCD4;" width="26.3" height="55.2"/>
			<path style="fill:#FF931E;" d="M292.7,422.3L292.7,422.3c-3.9,5.7-21.8,30.9-39.9,57.3c-0.1,0.2-0.2,0.3-0.4,0.3
				C272.9,450.1,292.7,422.3,292.7,422.3z"/>
			<rect x="249" y="711.8" style="fill:#2E3192;" width="40.3" height="1.3"/>
			<rect x="249" y="710.6" style="fill:#2E3192;" width="40.3" height="1.3"/>
			<path style="fill:#2E3192;" d="M289.4,666.8v43.7h-40.3v-43.7c0-9,9-16.3,20.2-16.3C280.4,650.6,289.4,657.8,289.4,666.8z"/>
			<rect x="230.4" y="582.6" style="fill:#BDCCD4;" width="26.3" height="55.2"/>
			<path style="fill:#009245;" d="M252.4,479.9c-0.6,0.9-1.2,1.8-1.8,2.6c-3.7,5.4-7.4,10.8-11,16.1V478h4.9c2.2,0,4.2,0.5,6.1,1.5
				c0.1,0.1,0.3,0.1,0.4,0.2c0.3,0.2,0.5,0.3,0.8,0.5c0-0.1,0.1-0.1,0.1-0.1C252,480,252.2,480,252.4,479.9z"/>
			<path style="fill:#FF931E;" d="M251.8,480c0,0.1-0.1,0.1-0.1,0.1c-0.3-0.2-0.5-0.3-0.8-0.5c0.1,0.1,0.3,0.2,0.4,0.2
				C251.5,479.9,251.6,480,251.8,480z"/>
			<path style="fill:#FF931E;" d="M239.6,498.6v19.9c0,8.3-6.6,15.2-14.6,15.2h-8.8c5.6-8.8,13.3-20.1,21.5-32.3
				C238.3,500.4,238.9,499.5,239.6,498.6z"/>
			<path style="fill:#88B535;" d="M239.6,478v20.6c-0.6,0.9-1.2,1.8-1.8,2.7c-8.2,12.2-15.9,23.6-21.5,32.3h-7V479
				c0-0.6,0.5-1.1,1.1-1.1L239.6,478L239.6,478z"/>
			<path style="fill:#009245;" d="M209.2,533.6h7c-0.7,1.1-1.3,2.1-2,3.1c-2.1,3.3-3.8,6.2-5.1,8.4v-11.5H209.2z"/>
			<path style="fill:#006837;" d="M214,412.2h-4.9V412h4.4c-2.2-4.1-3.7-8.6-4.4-13.3v-6.4C209.2,399.5,211,406.3,214,412.2z"/>
			<path style="fill:#009245;" d="M213.5,412h-4.4v-13.3C209.9,403.4,211.4,407.9,213.5,412z"/>
			<path style="fill:#88B535;" d="M209.2,478h1.1c-0.6,0-1.1,0.5-1.1,1.1V478z"/>
			<path style="fill:#006837;" d="M209.2,386.4h0.4c-0.2,1.8-0.4,3.6-0.4,5.6V386.4z"/>
			<path style="fill:#FF931E;" d="M209.2,545.1v5.4h-0.3v-5C209,545.5,209.1,545.3,209.2,545.1z"/>
			<rect x="208.9" y="477.7" style="fill:#006837;" width="0.3" height="0.3"/>
			<path style="fill:#006837;" d="M209.2,412.2v65.5h-0.3v-7.9c0-1.3-0.1-2.6-0.2-3.9v-53.8h0.5V412.2z"/>
			<rect x="208.7" y="412" style="fill:#006837;" width="0.5" height="0.3"/>
			<path style="fill:#88B535;" d="M208.9,550.6V696c0,3.7-0.6,7.3-1.8,10.1c-0.2,0.4-0.4,1-0.6,1.4s-0.5,1-0.8,1.4
				c-1.5,2.3-3.3,3.7-5.4,3.7H18.2c-4.7,0-8.5-7.5-8.5-16.6c0-66.7,14-127.3,36.6-171.4c7.6-14.8,16.2-27.7,25.5-38.4
				c-0.1,0.2-0.1,0.4-0.2,0.6c18.8-5.8,38.9-8.8,59.4-8.8h77.9v67.6c-1.3,2.4-2.1,4.1-2.1,4.7c0,0.1,0.1,0.3,0.3,0.3L208.9,550.6
				L208.9,550.6z"/>
			<path style="fill:#FF931E;" d="M208.9,545.6v5h-1.8c-0.1,0-0.3-0.1-0.3-0.3C206.8,549.7,207.6,548,208.9,545.6z"/>
			<path style="fill:#88B535;" d="M208.9,477.7v0.3H131c-20.5,0-40.6,3-59.4,8.8c0.1-0.2,0.1-0.4,0.2-0.6c8.7-9.9,18-17.8,27.8-23.4
				c11-6.2,22.6-9.7,34.7-9.7h66.1c1.6,0,3.2,1,4.5,2.6c1.9,2.4,3.2,6,3.7,10.2v11.7h0.3V477.7z"/>
			<path style="fill:#88B535;" d="M208.9,469.9v7.9h-0.2V466C208.8,467.2,208.9,468.5,208.9,469.9z"/>
			<path style="fill:#006837;" d="M208.7,412.2V466c-0.5-4.3-1.9-7.9-3.7-10.2c-1.3-1.7-2.9-2.6-4.5-2.6h-66.1
				c-12.1,0-23.7,3.5-34.7,9.7c-9.8,5.6-19.1,13.5-27.8,23.4c5-16.3,13.8-30.9,25.1-42.8c18.5-19.2,44-31.2,72.1-31.2h39.6V412.2z"
				/>
		</g>
		<g>
			<polygon style="fill:none;stroke:#333333;stroke-miterlimit:10;" points="1329.3,380.5 1329.4,380.6 1329.7,381 1329.7,409.3 
				1329.7,709.5 1329.7,710.6 1046.4,710.6 1046,710.6 1045.9,710.6 967.5,710.6 967.5,709.5 967.5,656.2 967.5,582.9 967.5,580.4 
				967.5,538 967.5,505.8 967.5,464.2 967.5,440.4 967.5,385.1 967.5,382.5 968.9,380.6 986.3,357 993.1,347.8 1138.6,150.6 
				1154.8,170.1 1163.1,180 1163.2,180.1 1199.9,224.4 1209.4,235.8 1261.4,298.6 1264.2,302 1279,319.8 1314.4,362.5 1328.3,379.3 
							"/>
			<path style="fill:none;stroke:#333333;stroke-miterlimit:10;" d="M1072.5,646.8c0,0.2,0.1,0.4,0.1,0.6"/>
			<path style="fill:none;stroke:#333333;stroke-miterlimit:10;" d="M1160.4,642.9C1160.4,642.9,1160.4,643,1160.4,642.9
				c-0.2,0.4-0.6,1-1,1.9c-1.7,3.3-4.9,9.9-4.9,10.9c0,1.3-24.1,19.3-24.1,19.3l0.4,26.5c-2.3,7.6-7.2,7.7-7.2,7.7s-26.3,0-48.3,0.3
				c-14.9,0.2-27.9,0.5-29.4,0.9c-0.1,0-0.1,0-0.1,0.1v-1l-0.1-5.3h0.1c19.4-0.4,28.8-15.7,28.8-15.7c3.1-3.9,2.2-15.9,0.6-26.6
				c0-0.1,0-0.1,0-0.2c-0.1-0.7-0.2-1.3-0.3-2c0-0.1,0-0.1,0-0.1c-0.1-0.7-0.2-1.3-0.3-2c-0.3-1.9-0.7-3.7-1-5.4
				c-0.1-0.3-0.1-0.6-0.2-0.9c-0.1-0.3-0.1-0.5-0.2-0.8c0-0.2-0.1-0.3-0.1-0.5c-0.2-0.9-0.4-1.8-0.5-2.6c0-0.2-0.1-0.4-0.1-0.6
				c-0.2-0.8-0.3-1.5-0.5-2c-0.1-0.4-0.2-0.7-0.2-1c0-0.1,0-0.2-0.1-0.3c0-0.3-0.1-0.4-0.1-0.4"/>
			<path style="fill:none;stroke:#333333;stroke-miterlimit:10;" d="M1164.8,634.5c-0.1,2.5-1.1,5.4-4.4,8.4l-88.7,0.3"/>
			<path style="fill:none;stroke:#333333;stroke-miterlimit:10;" d="M1148.2,627.9l14.4-0.1c0,0,1.9,2.3,2.2,5.7"/>
			<path style="fill:none;stroke:#333333;stroke-miterlimit:10;" d="M1187,674.7L1187,674.7C1187,674.8,1187,674.8,1187,674.7"/>
			<path style="fill:none;stroke:#333333;stroke-miterlimit:10;" d="M1071.4,629.3l4.9-0.1l-19.6-83.2c0,0,2.3-6.3,7.3-0.1l22,83.1
				l18.2-0.3l43.8-0.8h0.2l0,0l14.4-0.3c0,0,2,2.4,2.2,5.9c0,0.3,0,0.7,0,1c-0.1,2.5-1.2,5.3-4.4,8.3"/>
			<path style="fill:none;stroke:#333333;stroke-miterlimit:10;" d="M1052.7,703.6c-1,0.2-2,0.4-3.1,0.5"/>
			<path style="fill:none;stroke:#333333;stroke-miterlimit:10;" d="M1055.5,702.8c-0.8,0.2-1.5,0.4-2.3,0.6"/>
			<path style="fill:none;stroke:#333333;stroke-miterlimit:10;" d="M1062.4,699.9c-0.4,0.2-0.8,0.4-1.2,0.6"/>
			<path style="fill:none;stroke:#333333;stroke-miterlimit:10;" d="M1045.9,704.4l0.1,5.2v0.9v0.1v0.1c0-0.1,0.2-0.1,0.4-0.1
				c3.1-0.6,23.5-0.9,42.6-1c18-0.1,34.8-0.1,34.8-0.1s4.9-0.1,7.2-7.7l-0.4-26.5c0,0,24.1-18.1,24.1-19.3c0-0.9,3.3-7.7,4.9-11
				c0.5-1.1,0.9-1.8,0.9-1.8h-0.2l-88.5,0.3c0,0,0.1,0.5,0.4,1.5c1.6,7.1,8,37.2,2.8,44c-0.1-0.1-3.4,5.3-10.2,9.7"/>
			<path style="fill:none;stroke:#333333;stroke-miterlimit:10;" d="M1045.9,704.2l-6.6-48l-7.2-53.1l-2.8-20.2l-1.3-9.7
				c0,0,9.8-23.5,27-7.6c0.7,0.6,1.4,1.3,2.1,2l14.3,61.7l0.2,13.9"/>
			<path style="fill:none;stroke:#333333;stroke-miterlimit:10;" d="M1225.5,512.1L1225.5,512.1L1225.5,512.1"/>
		</g>
	</g>
	<path style="fill:#88B535;" d="M206.4,546.8c-3.1-31.2-6.1-62.3-9.2-93.5h72.6C248.7,484.4,227.6,515.6,206.4,546.8z"/>
	<path style="fill:#88B535;" d="M1737.5,719.7H0v18c0,4.7,3.8,8.5,8.5,8.5h1720.4c4.7,0,8.5-3.8,8.5-8.5L1737.5,719.7L1737.5,719.7z
		"/>
	<path style="fill:#0B8500;" d="M1729,693.1H8.6c-4.7,0-8.5,3.8-8.5,8.5v18h1737.4v-18C1737.5,696.9,1733.7,693.1,1729,693.1z"/>
	<path style="fill:#666666;" d="M1133.3,540.3h14.6c0,0,8.1,62.5,26.4,62.5l-7.3,3.7c-7.7-3.3-8.5-8.9-13.5-18.3
		c-13.1-11.5-22.6-16.3-6.8-36c1.7-2.2,2.9,15.5,1.2,21.1c-3.4,11-15.3,23.7-23.9,27.9c14.6,3.7,44.4-3.6,57.7,5.1l-5.9,69.8
		l12.9,5.9l3.9,9.3l-25.6-7.9l-0.3-14.9c0,0-5.3-36.3-1.7-43.6c0,0-35.8,3.4-57.7,3.4c0,0-21.7-7.3-10.7-36.6L1133.3,540.3z"/>
	<path style="fill:#666666;" d="M1134.3,540.3v-7.2c0,0-18-7.4,4.5-25.7c0,0,9-7.3,18,0c0,0,22.4,21.9-9,29.3v11L1134.3,540.3z"/>
</g>
</svg>
