<?xml version="1.0" encoding="utf-8"?>
<!-- Generator: Adobe Illustrator 23.0.4, SVG Export Plug-In . SVG Version: 6.00 Build 0)  -->
<svg version="1.1" id="Layer_1" xmlns="http://www.w3.org/2000/svg" xmlns:xlink="http://www.w3.org/1999/xlink" x="0px" y="0px"
	 viewBox="0 0 1420.2 912.9" style="enable-background:new 0 0 1420.2 912.9;" xml:space="preserve">
<g>
	<g>
		<path style="fill:#A5BF45;" d="M1222,884.5H3.6c-2,0-3.6-1.6-3.6-3.6v-50.7c0-2,1.6-3.6,3.6-3.6H1222c2,0,3.6,1.6,3.6,3.6v50.7
			C1225.5,882.9,1223.9,884.5,1222,884.5z"/>
	</g>
	<path style="fill:#A5BF45;" d="M1178.4,912.9H40.6c-9.8,0-17.7-7.3-17.7-16.1v-15c0-8.9,7.9-16.1,23.6-25.3h1137.8
		c3.9,9.2,11.8,16.5,11.8,25.3v15C1196.1,905.6,1188.2,912.9,1178.4,912.9z"/>
	<path style="opacity:0.68;fill:#A38C7D;enable-background:new    ;" d="M1420.2,174.5c0,6.5-0.7,12.9-2,19.1v7.7
		c0,42.7-34.7,77.4-77.4,77.4h-286.6c-32.6,22.2-21.3,64.9-21.3,64.9h-37.3V174.5c0-51,41.4-92.4,92.4-92.4
		c14.5,0,28.2,3.3,40.4,9.3c18.2-30.3,51.4-50.6,89.3-50.6c35.4,0,66.6,17.6,85.5,44.6c7.8-2.2,16.1-3.3,24.6-3.3
		C1378.8,82.1,1420.2,123.4,1420.2,174.5z"/>
	<path style="opacity:0.5;fill:#F0C4A9;enable-background:new    ;" d="M1404.9,164.9c0,4.5-0.5,8.8-1.3,13.1v5.3
		c0,29.3-23.7,53-53,53h-196.2c-22.3,15.2-14.6,44.4-14.6,44.4h-25.6V164.9c0-34.9,28.3-63.2,63.2-63.2c9.9,0,19.3,2.3,27.7,6.4
		c12.5-20.7,35.2-34.6,61.2-34.6c24.2,0,45.6,12.1,58.5,30.5c5.4-1.5,11-2.3,16.8-2.3C1376.6,101.7,1404.9,130,1404.9,164.9z"/>
	<path style="fill:#BDCCD4;" d="M1151.1,606.6h-55.3c-2.1,0-3.9-1.8-3.9-3.9V284.5c0-2.1,1.8-3.9,3.9-3.9h55.3
		c2.1,0,3.9,1.8,3.9,3.9v318.2C1155,604.9,1153.2,606.6,1151.1,606.6z"/>
	<rect x="1091.9" y="335.1" style="fill:#E6E6E6;" width="63.1" height="45.1"/>
	<rect x="1091.9" y="421.2" style="fill:#E6E6E6;" width="63.1" height="45.1"/>
	<rect x="1091.9" y="504.6" style="fill:#E6E6E6;" width="63.1" height="45.1"/>
	<g>
		<path style="fill:#2E3192;" d="M454.1,726.5L454.1,726.5c-6.4,0-11.6-5.5-11.6-13.2V324c0-5.7,5.2-11.2,11.6-11.2l0,0
			c6.4,0,11.6,5.5,11.6,12.2v389.3C465.7,721,460.5,726.5,454.1,726.5z"/>
		<path style="fill:#2E3192;" d="M443.5,142.5v146h18.9C462.4,288.5,474.6,163.9,443.5,142.5z"/>
		<path style="fill:#2E3192;" d="M443.5,142.5v146h18.9C462.4,288.5,474.6,163.9,443.5,142.5z"/>
		<path style="fill:#2E3192;" d="M320.3,375.4l128.8-55.9l-7.2-18.3C441.8,301.3,327.2,337.1,320.3,375.4z"/>
		<path style="fill:#2E3192;" d="M589.4,375.4l-128.8-55.8l7.2-18.3C467.8,301.3,582.5,337.1,589.4,375.4z"/>
		<ellipse style="fill:#2E3192;" cx="454.1" cy="301.7" rx="21.3" ry="22.3"/>
	</g>
	<g>
		<path style="fill:#E6E6E6;" d="M221.4,678.1L221.4,678.1c-8.3,0-15.1-6.4-15.1-15.3V210.7c0-6.6,6.8-13,15.1-13l0,0
			c8.3,0,15.1,6.4,15.1,14.1V664C236.5,671.8,229.7,678.1,221.4,678.1z"/>
		<path style="fill:#E6E6E6;" d="M207.5,0v169.5h24.6C232.1,169.5,248.1,24.8,207.5,0z"/>
		<path style="fill:#E6E6E6;" d="M207.5,0v169.5h24.6C232.1,169.5,248.1,24.8,207.5,0z"/>
		<path style="fill:#E6E6E6;" d="M47.1,270.4l167.6-64.9l-9.4-21.3C205.3,184.3,56.1,225.9,47.1,270.4z"/>
		<path style="fill:#E6E6E6;" d="M397.4,270.4l-167.6-64.9l9.4-21.3C239.2,184.3,388.4,225.9,397.4,270.4z"/>
		<ellipse style="fill:#E6E6E6;" cx="221.4" cy="184.8" rx="27.7" ry="25.9"/>
	</g>
	<path style="fill:#F3D0BA;" d="M896.3,498.9c0,0-72.4,0-73.6,0c-1.1,0,53.2-43.1,53.2-43.1L896.3,498.9z"/>
	<path style="fill:#999999;" d="M899.8,530.3h11.1c0.4,0,0.8-0.4,0.8-0.8v-53.8c0-0.4-0.4-0.8-0.8-0.8h-11.1c-0.4,0-0.8,0.4-0.8,0.8
		v53.8C899,530,899.4,530.3,899.8,530.3z"/>
	<polygon style="fill:#2E3192;" points="948.4,455.7 896.3,498.9 822.8,498.9 876,455.7 	"/>
	<path style="fill:none;stroke:#F9FFF1;stroke-miterlimit:10;" d="M923.5,455.7c0,0-54.7,43.1-55.6,43.1"/>
	<path style="fill:none;stroke:#F9FFF1;stroke-miterlimit:10;" d="M897.9,455.7c0.1,1.7-54.8,43.1-54.8,43.1"/>
	<line style="fill:none;stroke:#E6E6E6;stroke-miterlimit:10;" x1="920.8" y1="480.3" x2="843.8" y2="480.3"/>
	<g>
		<path style="fill:#F3D0BA;" d="M785.2,501.9c0,0-85.6,0-87,0s62.9-44.5,62.9-44.5L785.2,501.9z"/>
		<path style="fill:#999999;" d="M789.3,534.3h13.2c0.5,0,0.9-0.4,0.9-0.9v-55.2c0-0.5-0.4-0.9-0.9-0.9h-13.2
			c-0.5,0-0.9,0.4-0.9,0.9v55.2C788.3,533.9,788.7,534.3,789.3,534.3z"/>
		<polygon style="fill:#2E3192;" points="846.7,457.4 785.2,501.9 698.2,501.9 761.1,457.4 		"/>
		<path style="fill:none;stroke:#F9FFF1;stroke-miterlimit:10;" d="M817.3,457.4c0,0-64.6,44.5-65.8,44.5"/>
		<path style="fill:none;stroke:#F9FFF1;stroke-miterlimit:10;" d="M787.1,457.4c0.1,1.8-64.8,44.5-64.8,44.5"/>
		<line style="fill:none;stroke:#E6E6E6;stroke-miterlimit:10;" x1="814.1" y1="482.7" x2="723.1" y2="482.7"/>
	</g>
	<path style="fill:#64A400;" d="M211.2,646.5c5.2,2.2,9.8,5.9,13.1,11c9,13.7,5.2,32.2-8.5,41.2c-6.6,4.3-14.3,5.7-21.5,4.4
		c-0.9,6.6-4.6,12.7-10.6,16.7c-11.1,7.3-26,4.2-33.2-6.9c-2.3-3.6-3.6-7.5-3.9-11.5c-8.6,2.3-17.8-0.5-22.6-7.8
		c-4.5-6.9-3.9-15.7,0.8-22.6c-2.3-1.7-4.3-3.8-6-6.2c-7.3-11.1-4.2-26,6.9-33.2c8.7-5.7,19.7-5,27.5,0.8c0.4-4.8,2.7-9.2,6.6-11.8
		c6-4,14.2-2.7,20.2,2.5c1.5-3.7,4-6.9,7.6-9.2c9.3-6.1,21.8-3.5,27.9,5.8C221.4,628.5,219.4,640.1,211.2,646.5z"/>
	<path style="fill:#64A400;" d="M282.2,641.2c2.5,3.9,4,8.5,4,13.4c0,13.5-10.9,24.4-24.4,24.4c-6.5,0-12.4-2.5-16.7-6.6
		c-3.6,4.1-8.9,6.6-14.7,6.6c-10.8,0-19.6-8.8-19.6-19.6c0-3.5,0.9-6.8,2.5-9.6c-7-2.3-11.9-8.4-11.9-15.5c0-6.7,4.4-12.5,10.7-15.1
		c-0.8-2.2-1.3-4.5-1.3-6.9c0-10.8,8.8-19.6,19.6-19.6c8.5,0,15.7,5.4,18.5,12.9c2.4-3.1,5.9-5.1,9.8-5.1c5.9,0,10.9,4.5,12.7,10.8
		c2.7-1.8,5.9-2.9,9.3-2.9c9.1,0,16.5,7.4,16.5,16.5C297.2,633.4,290.6,640.5,282.2,641.2z"/>
	<path style="fill:#64A400;" d="M439.2,650.5c3.2,4.8,5.1,10.6,5.1,16.8c0,16.8-13.6,30.5-30.5,30.5c-8.1,0-15.5-3.2-20.9-8.3
		c-4.5,5.1-11.1,8.3-18.4,8.3c-13.6,0-24.6-11-24.6-24.6c0-4.4,1.1-8.5,3.1-12c-8.7-2.9-14.9-10.5-14.9-19.4
		c0-8.4,5.5-15.6,13.4-18.8c-1-2.7-1.6-5.6-1.6-8.7c0-13.6,11-24.6,24.6-24.6c10.6,0,19.7,6.7,23.1,16.2c3-3.9,7.4-6.4,12.3-6.4
		c7.4,0,13.7,5.6,15.9,13.5c3.3-2.3,7.3-3.6,11.7-3.6c11.4,0,20.6,9.2,20.6,20.6C458,640.7,449.8,649.5,439.2,650.5z"/>
	<path style="fill:#64A400;" d="M532.4,603.3c4.5,6.8,7.1,14.9,7.1,23.6c0,23.7-19.2,42.8-42.8,42.8c-11.4,0-21.7-4.4-29.4-11.7
		c-6.3,7.2-15.6,11.7-25.9,11.7c-19.1,0-34.5-15.5-34.5-34.5c0-6.1,1.6-11.9,4.4-16.9c-12.2-4-21-14.7-21-27.3
		c0-11.8,7.7-22,18.8-26.5c-1.5-3.8-2.2-7.9-2.2-12.2c0-19.1,15.5-34.5,34.5-34.5c14.9,0,27.7,9.5,32.5,22.7
		c4.3-5.5,10.4-8.9,17.3-8.9c10.4,0,19.2,7.9,22.3,18.9c4.7-3.2,10.3-5.1,16.4-5.1c16,0,29,13,29,29
		C558.8,589.5,547.2,602,532.4,603.3z"/>
	<path style="fill:#64A400;" d="M628.7,622.8c3.5,5.2,5.5,11.5,5.5,18.3c0,18.3-14.9,33.2-33.2,33.2c-8.8,0-16.8-3.4-22.8-9.1
		c-4.9,5.5-12.1,9.1-20.1,9.1c-14.8,0-26.8-12-26.8-26.8c0-4.8,1.2-9.2,3.4-13.1c-9.5-3.1-16.3-11.4-16.3-21.2c0-9.2,6-17,14.6-20.5
		c-1.1-3-1.7-6.1-1.7-9.5c0-14.8,12-26.8,26.8-26.8c11.6,0,21.4,7.3,25.2,17.6c3.3-4.3,8.1-6.9,13.4-6.9c8,0,14.9,6.1,17.3,14.7
		c3.6-2.5,8-4,12.7-4c12.4,0,22.5,10.1,22.5,22.5C649.2,612.1,640.2,621.8,628.7,622.8z"/>
	<path style="fill:#B3B3B3;" d="M1225.5,855.5H0v-42.1c0-11.2,9.1-20.3,20.3-20.3H1196c16.3,0,29.5,13.2,29.5,29.5L1225.5,855.5
		L1225.5,855.5z"/>
</g>
<g id="island_background">
	<path style="fill:#A5BF45;" d="M545.3,794H63.6v-18.3c0-63.3,51.8-115,115-115h366.7c16.7,0,30.3,13.6,30.3,30.3v72.8
		C575.6,780.4,562,794,545.3,794z"/>
	<path style="fill:#64A400;" d="M509.7,824H259.6l0,0c0-53.2,43.5-96.8,96.8-96.8h153.3c6.6,0,12,5.4,12,12V812
		C521.7,818.6,516.3,824,509.7,824z"/>
</g>
<g id="behind_details">
	<path style="fill:#BDCCD4;" d="M1040,542.6h-57.8c-2.2,0-4.1-1.8-4.1-4.1v-191c0-2.2,1.8-4.1,4.1-4.1h57.8c2.2,0,4.1,1.8,4.1,4.1
		v191C1044,540.8,1042.2,542.6,1040,542.6z"/>
	<rect x="978.5" y="397.9" style="fill:#E6E6E6;" width="65.5" height="45.1"/>
	<rect x="978.5" y="485.2" style="fill:#E6E6E6;" width="65.5" height="33.8"/>
</g>
<g id="buildings">
	<rect x="935.3" y="531" style="fill:#F14929;" width="272.8" height="294.2"/>
	<rect x="723.7" y="531.9" style="fill:#FF931E;" width="211.7" height="294.2"/>
	<rect x="987.8" y="576.5" style="fill:#2E3192;" width="23.3" height="71.6"/>
	<rect x="955.4" y="576.5" style="fill:#2E3192;" width="23.3" height="71.6"/>
	<rect x="1077.1" y="576.5" style="fill:#2E3192;" width="23.3" height="71.6"/>
	<rect x="1044.7" y="576.5" style="fill:#2E3192;" width="23.3" height="71.6"/>
	<rect x="1163.5" y="576.5" style="fill:#2E3192;" width="23.3" height="71.6"/>
	<rect x="1131.2" y="576.5" style="fill:#2E3192;" width="23.3" height="71.6"/>
	<rect x="563.5" y="593.1" style="fill:#F14929;" width="255.3" height="230.1"/>
	<rect x="446" y="593.8" style="fill:#BDCCD4;" width="117.5" height="230.1"/>
	<polygon style="fill:#BDCCD4;" points="660.8,637.5 634.6,725.8 702.5,725.8 	"/>
	<g>
		<rect x="769.7" y="722.7" style="fill:#E1E5D0;" width="14.1" height="43.3"/>
		<rect x="769.7" y="671.1" style="fill:#E1E5D0;" width="14.1" height="43.3"/>
		<rect x="769.7" y="616" style="fill:#E1E5D0;" width="14.1" height="43.3"/>
		<rect x="789.2" y="722.7" style="fill:#E1E5D0;" width="14.1" height="43.3"/>
		<rect x="789.2" y="671.1" style="fill:#E1E5D0;" width="14.1" height="43.3"/>
		<rect x="789.2" y="616" style="fill:#E1E5D0;" width="14.1" height="43.3"/>
	</g>
	<rect x="634.6" y="725.9" style="fill:#BDCCD4;" width="68" height="100"/>
	<path style="fill:#2E3192;" d="M660.6,637.9h73.2c0,0,62.2,87.3,58.6,87.3s-89.8,1-89.8,1L660.6,637.9z"/>
	<rect x="702.5" y="725.9" style="fill:#FF931E;" width="90.3" height="100"/>
	<rect x="989.1" y="670.1" style="fill:#2E3192;" width="23.3" height="71.6"/>
	<rect x="1164.8" y="670.1" style="fill:#2E3192;" width="23.3" height="71.6"/>
	<rect x="1132.5" y="670.1" style="fill:#2E3192;" width="23.3" height="71.6"/>
	<rect x="1077.1" y="670.1" style="fill:#2E3192;" width="23.3" height="71.6"/>
	<rect x="1045" y="670.1" style="fill:#2E3192;" width="23.3" height="71.6"/>
	<rect x="956.7" y="670.1" style="fill:#2E3192;" width="23.3" height="71.6"/>
	<rect x="431.3" y="592.1" style="fill:#BDCCD4;" width="132.4" height="16"/>
</g>
<g id="in_front_details">
	<g>
		<rect x="583.8" y="721.4" style="fill:#E1E5D0;" width="14.1" height="43.3"/>
		<rect x="583.8" y="669.7" style="fill:#E1E5D0;" width="14.1" height="43.3"/>
		<rect x="583.8" y="614.7" style="fill:#E1E5D0;" width="14.1" height="43.3"/>
		<rect x="603.4" y="721.4" style="fill:#E1E5D0;" width="14.1" height="43.3"/>
		<rect x="603.4" y="669.7" style="fill:#E1E5D0;" width="14.1" height="43.3"/>
		<rect x="603.4" y="614.7" style="fill:#E1E5D0;" width="14.1" height="43.3"/>
	</g>
	<rect x="506" y="679" style="fill:#F2F2F2;" width="32.5" height="46.9"/>
	<rect x="464.5" y="679" style="fill:#F2F2F2;" width="32.5" height="46.9"/>
	<rect x="506" y="619.4" style="fill:#F2F2F2;" width="32.5" height="46.9"/>
	<rect x="464.5" y="619.4" style="fill:#F2F2F2;" width="32.5" height="46.9"/>
	<rect x="724.1" y="549.3" style="fill:#F14929;" width="211.3" height="13.4"/>
	<rect x="710.7" y="532" style="fill:#FF931E;" width="224.6" height="17.4"/>
	<rect x="480.7" y="764.6" style="fill:#F2F2F2;" width="24.1" height="58.8"/>
</g>
</svg>
