<?xml version="1.0" encoding="utf-8"?>
<!-- Generator: Adobe Illustrator 23.0.3, SVG Export Plug-In . SVG Version: 6.00 Build 0)  -->
<svg version="1.1" xmlns="http://www.w3.org/2000/svg" xmlns:xlink="http://www.w3.org/1999/xlink" x="0px" y="0px"
	 viewBox="0 0 1920 1080" style="enable-background:new 0 0 1920 1080;" xml:space="preserve">
<style type="text/css">
	.st0{fill:#A5BF45;}
	.st1{opacity:0.68;fill:#A38C7D;}
	.st2{opacity:0.5;fill:#F0C4A9;}
	.st3{fill:#BDCCD4;}
	.st4{fill:#E6E6E6;}
	.st5{fill:#2E3192;}
	.st6{fill:#F3D0BA;}
	.st7{fill:#999999;}
	.st8{fill:none;stroke:#F9FFF1;stroke-miterlimit:10;}
	.st9{fill:none;stroke:#E6E6E6;stroke-miterlimit:10;}
	.st10{fill:#64A400;}
	.st11{fill:#B3B3B3;}
	.st12{fill:#F14929;}
	.st13{fill:#FF931E;}
	.st14{fill:#E1E5D0;}
	.st15{fill:#F2F2F2;}
</style>
<g id="Layer_1">
	<g>
		<path class="st0" d="M1457.4,965.5H239c-2,0-3.6-1.6-3.6-3.6v-50.7c0-2,1.6-3.6,3.6-3.6h1218.4c2,0,3.6,1.6,3.6,3.6v50.7
			C1460.9,963.9,1459.3,965.5,1457.4,965.5z"/>
	</g>
	<path class="st0" d="M1414.1,993.9H296.9c-9.6,0-17.4-7.3-17.4-16.1v-15c0-8.9,7.8-16.1,23.2-25.3h1117.2
		c3.8,9.2,11.6,16.5,11.6,25.3v15C1431.5,986.6,1423.7,993.9,1414.1,993.9z"/>
	<path class="st1" d="M1655.6,255.5c0,6.5-0.7,12.9-2,19.1v7.7c0,42.7-34.7,77.4-77.4,77.4h-286.6c-32.6,22.2-21.3,64.9-21.3,64.9
		H1231V255.5c0-51,41.4-92.4,92.4-92.4c14.5,0,28.2,3.3,40.4,9.3c18.2-30.3,51.4-50.6,89.3-50.6c35.4,0,66.6,17.6,85.5,44.6
		c7.8-2.2,16.1-3.3,24.6-3.3C1614.2,163.1,1655.6,204.4,1655.6,255.5z"/>
	<path class="st2" d="M1640.3,245.9c0,4.5-0.5,8.8-1.3,13.1v5.3c0,29.3-23.7,53-53,53h-196.2c-22.3,15.2-14.6,44.4-14.6,44.4h-25.6
		V245.9c0-34.9,28.3-63.2,63.2-63.2c9.9,0,19.3,2.3,27.7,6.4c12.5-20.7,35.2-34.6,61.2-34.6c24.2,0,45.6,12.1,58.5,30.5
		c5.4-1.5,11-2.3,16.8-2.3C1612,182.7,1640.3,211,1640.3,245.9z"/>
	<path class="st3" d="M1386.5,687.6h-55.3c-2.1,0-3.9-1.8-3.9-3.9V365.5c0-2.1,1.8-3.9,3.9-3.9h55.3c2.1,0,3.9,1.8,3.9,3.9v318.2
		C1390.4,685.9,1388.6,687.6,1386.5,687.6z"/>
	<rect x="1327.3" y="416.1" class="st4" width="63.1" height="45.1"/>
	<rect x="1327.3" y="502.2" class="st4" width="63.1" height="45.1"/>
	<rect x="1327.3" y="585.6" class="st4" width="63.1" height="45.1"/>
	<g>
		<path class="st5" d="M689.5,807.5L689.5,807.5c-6.4,0-11.6-5.5-11.6-13.2V405c0-5.7,5.2-11.2,11.6-11.2h0
			c6.4,0,11.6,5.5,11.6,12.2v389.3C701.1,802,695.9,807.5,689.5,807.5z"/>
		<path class="st5" d="M678.9,223.5v146h18.9C697.8,369.5,710,244.9,678.9,223.5z"/>
		<path class="st5" d="M678.9,223.5v146h18.9C697.8,369.5,710,244.9,678.9,223.5z"/>
		<path class="st5" d="M555.7,456.4l128.8-55.9l-7.2-18.3C677.2,382.3,562.6,418.1,555.7,456.4z"/>
		<path class="st5" d="M824.8,456.4L696,400.6l7.2-18.3C703.2,382.3,817.9,418.1,824.8,456.4z"/>
		<ellipse class="st5" cx="689.5" cy="382.7" rx="21.3" ry="22.3"/>
	</g>
	<g>
		<path class="st4" d="M456.8,759.1L456.8,759.1c-8.3,0-15.1-6.4-15.1-15.3V291.7c0-6.6,6.8-13,15.1-13h0c8.3,0,15.1,6.4,15.1,14.1
			V745C471.9,752.8,465.1,759.1,456.8,759.1z"/>
		<path class="st4" d="M442.9,81v169.5h24.6C467.5,250.5,483.5,105.8,442.9,81z"/>
		<path class="st4" d="M442.9,81v169.5h24.6C467.5,250.5,483.5,105.8,442.9,81z"/>
		<path class="st4" d="M282.5,351.4l167.6-64.9l-9.4-21.3C440.7,265.3,291.5,306.9,282.5,351.4z"/>
		<path class="st4" d="M632.8,351.4l-167.6-64.9l9.4-21.3C474.6,265.3,623.8,306.9,632.8,351.4z"/>
		<ellipse class="st4" cx="456.8" cy="265.8" rx="27.7" ry="25.9"/>
	</g>
	<path class="st6" d="M1131.7,579.9c0,0-72.4,0-73.6,0c-1.1,0,53.2-43.1,53.2-43.1L1131.7,579.9z"/>
	<path class="st7" d="M1135.2,611.3h11.1c0.4,0,0.8-0.4,0.8-0.8v-53.8c0-0.4-0.4-0.8-0.8-0.8h-11.1c-0.4,0-0.8,0.4-0.8,0.8v53.8
		C1134.4,611,1134.8,611.3,1135.2,611.3z"/>
	<polygon class="st5" points="1183.8,536.7 1131.7,579.9 1058.2,579.9 1111.4,536.7 	"/>
	<path class="st8" d="M1158.9,536.7c0,0-54.7,43.1-55.6,43.1"/>
	<path class="st8" d="M1133.3,536.7c0.1,1.7-54.8,43.1-54.8,43.1"/>
	<line class="st9" x1="1156.2" y1="561.3" x2="1079.2" y2="561.3"/>
	<g>
		<path class="st6" d="M1020.6,582.9c0,0-85.6,0-87,0s62.9-44.5,62.9-44.5L1020.6,582.9z"/>
		<path class="st7" d="M1024.7,615.3h13.2c0.5,0,0.9-0.4,0.9-0.9v-55.2c0-0.5-0.4-0.9-0.9-0.9h-13.2c-0.5,0-0.9,0.4-0.9,0.9v55.2
			C1023.7,614.9,1024.1,615.3,1024.7,615.3z"/>
		<polygon class="st5" points="1082.1,538.4 1020.6,582.9 933.6,582.9 996.5,538.4 		"/>
		<path class="st8" d="M1052.7,538.4c0,0-64.6,44.5-65.8,44.5"/>
		<path class="st8" d="M1022.5,538.4c0.1,1.8-64.8,44.5-64.8,44.5"/>
		<line class="st9" x1="1049.5" y1="563.7" x2="958.5" y2="563.7"/>
	</g>
	<path class="st10" d="M446.6,727.5c5.2,2.2,9.8,5.9,13.1,11c9,13.7,5.2,32.2-8.5,41.2c-6.6,4.3-14.3,5.7-21.5,4.4
		c-0.9,6.6-4.6,12.7-10.6,16.7c-11.1,7.3-26,4.2-33.2-6.9c-2.3-3.6-3.6-7.5-3.9-11.5c-8.6,2.3-17.8-0.5-22.6-7.8
		c-4.5-6.9-3.9-15.7,0.8-22.6c-2.3-1.7-4.3-3.8-6-6.2c-7.3-11.1-4.2-26,6.9-33.2c8.7-5.7,19.7-5,27.5,0.8c0.4-4.8,2.7-9.2,6.6-11.8
		c6-4,14.2-2.7,20.2,2.5c1.5-3.7,4-6.9,7.6-9.2c9.3-6.1,21.8-3.5,27.9,5.8C456.8,709.5,454.8,721.1,446.6,727.5z"/>
	<path class="st10" d="M517.6,722.2c2.5,3.9,4,8.5,4,13.4c0,13.5-10.9,24.4-24.4,24.4c-6.5,0-12.4-2.5-16.7-6.6
		c-3.6,4.1-8.9,6.6-14.7,6.6c-10.8,0-19.6-8.8-19.6-19.6c0-3.5,0.9-6.8,2.5-9.6c-7-2.3-11.9-8.4-11.9-15.5c0-6.7,4.4-12.5,10.7-15.1
		c-0.8-2.2-1.3-4.5-1.3-6.9c0-10.8,8.8-19.6,19.6-19.6c8.5,0,15.7,5.4,18.5,12.9c2.4-3.1,5.9-5.1,9.8-5.1c5.9,0,10.9,4.5,12.7,10.8
		c2.7-1.8,5.9-2.9,9.3-2.9c9.1,0,16.5,7.4,16.5,16.5C532.6,714.4,526,721.5,517.6,722.2z"/>
	<path class="st10" d="M674.6,731.5c3.2,4.8,5.1,10.6,5.1,16.8c0,16.8-13.6,30.5-30.5,30.5c-8.1,0-15.5-3.2-20.9-8.3
		c-4.5,5.1-11.1,8.3-18.4,8.3c-13.6,0-24.6-11-24.6-24.6c0-4.4,1.1-8.5,3.1-12c-8.7-2.9-14.9-10.5-14.9-19.4
		c0-8.4,5.5-15.6,13.4-18.8c-1-2.7-1.6-5.6-1.6-8.7c0-13.6,11-24.6,24.6-24.6c10.6,0,19.7,6.7,23.1,16.2c3-3.9,7.4-6.4,12.3-6.4
		c7.4,0,13.7,5.6,15.9,13.5c3.3-2.3,7.3-3.6,11.7-3.6c11.4,0,20.6,9.2,20.6,20.6C693.4,721.7,685.2,730.5,674.6,731.5z"/>
	<path class="st10" d="M767.8,684.3c4.5,6.8,7.1,14.9,7.1,23.6c0,23.7-19.2,42.8-42.8,42.8c-11.4,0-21.7-4.4-29.4-11.7
		c-6.3,7.2-15.6,11.7-25.9,11.7c-19.1,0-34.5-15.5-34.5-34.5c0-6.1,1.6-11.9,4.4-16.9c-12.2-4-21-14.7-21-27.3
		c0-11.8,7.7-22,18.8-26.5c-1.5-3.8-2.2-7.9-2.2-12.2c0-19.1,15.5-34.5,34.5-34.5c14.9,0,27.7,9.5,32.5,22.7
		c4.3-5.5,10.4-8.9,17.3-8.9c10.4,0,19.2,7.9,22.3,18.9c4.7-3.2,10.3-5.1,16.4-5.1c16,0,29,13,29,29
		C794.2,670.5,782.6,683,767.8,684.3z"/>
	<path class="st10" d="M864.1,703.8c3.5,5.2,5.5,11.5,5.5,18.3c0,18.3-14.9,33.2-33.2,33.2c-8.8,0-16.8-3.4-22.8-9.1
		c-4.9,5.5-12.1,9.1-20.1,9.1c-14.8,0-26.8-12-26.8-26.8c0-4.8,1.2-9.2,3.4-13.1c-9.5-3.1-16.3-11.4-16.3-21.2c0-9.2,6-17,14.6-20.5
		c-1.1-3-1.7-6.1-1.7-9.5c0-14.8,12-26.8,26.8-26.8c11.6,0,21.4,7.3,25.2,17.6c3.3-4.3,8.1-6.9,13.4-6.9c8,0,14.9,6.1,17.3,14.7
		c3.6-2.5,8-4,12.7-4c12.4,0,22.5,10.1,22.5,22.5C884.6,693.1,875.6,702.8,864.1,703.8z"/>
	<path class="st11" d="M1460.9,936.5H235.4v-42.1c0-11.2,9.1-20.3,20.3-20.3h1175.7c16.3,0,29.5,13.2,29.5,29.5V936.5z"/>
</g>
<g id="island_background">
	<path class="st0" d="M780.7,875H299v-18.3c0-63.3,51.8-115,115-115h366.7c16.7,0,30.3,13.6,30.3,30.3v72.8
		C811,861.4,797.4,875,780.7,875z"/>
	<path class="st10" d="M745.1,905H495v0c0-53.2,43.5-96.8,96.8-96.8h153.3c6.6,0,12,5.4,12,12V893C757.1,899.6,751.7,905,745.1,905z
		"/>
</g>
<g id="behind_details">
	<path class="st3" d="M1275.4,623.6h-57.8c-2.2,0-4.1-1.8-4.1-4.1v-191c0-2.2,1.8-4.1,4.1-4.1h57.8c2.2,0,4.1,1.8,4.1,4.1v191
		C1279.4,621.8,1277.6,623.6,1275.4,623.6z"/>
	<rect x="1213.9" y="478.9" class="st4" width="65.5" height="45.1"/>
	<rect x="1213.9" y="566.2" class="st4" width="65.5" height="33.8"/>
</g>
<g id="buildings">
	<rect x="1170.7" y="612" class="st12" width="272.8" height="294.2"/>
	<rect x="959.1" y="612.9" class="st13" width="211.7" height="294.2"/>
	<rect x="1223.2" y="657.5" class="st5" width="23.3" height="71.6"/>
	<rect x="1190.8" y="657.5" class="st5" width="23.3" height="71.6"/>
	<rect x="1312.5" y="657.5" class="st5" width="23.3" height="71.6"/>
	<rect x="1280.1" y="657.5" class="st5" width="23.3" height="71.6"/>
	<rect x="1398.9" y="657.5" class="st5" width="23.3" height="71.6"/>
	<rect x="1366.6" y="657.5" class="st5" width="23.3" height="71.6"/>
	<rect x="798.9" y="674.1" class="st12" width="255.3" height="230.1"/>
	<rect x="681.4" y="674.8" class="st3" width="117.5" height="230.1"/>
	<polygon class="st3" points="896.2,718.5 870,806.8 937.9,806.8 	"/>
	<g>
		<rect x="1005.1" y="803.7" class="st14" width="14.1" height="43.3"/>
		<rect x="1005.1" y="752.1" class="st14" width="14.1" height="43.3"/>
		<rect x="1005.1" y="697" class="st14" width="14.1" height="43.3"/>
		<rect x="1024.6" y="803.7" class="st14" width="14.1" height="43.3"/>
		<rect x="1024.6" y="752.1" class="st14" width="14.1" height="43.3"/>
		<rect x="1024.6" y="697" class="st14" width="14.1" height="43.3"/>
	</g>
	<rect x="870" y="806.9" class="st3" width="68" height="100"/>
	<path class="st5" d="M896,718.9h73.2c0,0,62.2,87.3,58.6,87.3s-89.8,1-89.8,1L896,718.9z"/>
	<rect x="937.9" y="806.9" class="st13" width="90.3" height="100"/>
	<rect x="1224.5" y="751.1" class="st5" width="23.3" height="71.6"/>
	<rect x="1400.2" y="751.1" class="st5" width="23.3" height="71.6"/>
	<rect x="1367.9" y="751.1" class="st5" width="23.3" height="71.6"/>
	<rect x="1312.5" y="751.1" class="st5" width="23.3" height="71.6"/>
	<rect x="1280.4" y="751.1" class="st5" width="23.3" height="71.6"/>
	<rect x="1192.1" y="751.1" class="st5" width="23.3" height="71.6"/>
	<rect x="666.7" y="673.1" class="st3" width="132.4" height="16"/>
</g>
<g id="in_front_details">
	<g>
		<rect x="819.2" y="802.4" class="st14" width="14.1" height="43.3"/>
		<rect x="819.2" y="750.7" class="st14" width="14.1" height="43.3"/>
		<rect x="819.2" y="695.7" class="st14" width="14.1" height="43.3"/>
		<rect x="838.8" y="802.4" class="st14" width="14.1" height="43.3"/>
		<rect x="838.8" y="750.7" class="st14" width="14.1" height="43.3"/>
		<rect x="838.8" y="695.7" class="st14" width="14.1" height="43.3"/>
	</g>
	<rect x="741.4" y="760" class="st15" width="32.5" height="46.9"/>
	<rect x="699.9" y="760" class="st15" width="32.5" height="46.9"/>
	<rect x="741.4" y="700.4" class="st15" width="32.5" height="46.9"/>
	<rect x="699.9" y="700.4" class="st15" width="32.5" height="46.9"/>
	<rect x="959.5" y="630.3" class="st12" width="211.3" height="13.4"/>
	<rect x="946.1" y="613" class="st13" width="224.6" height="17.4"/>
	<rect x="716.1" y="845.6" class="st15" width="24.1" height="58.8"/>
</g>
</svg>
