<?xml version="1.0" encoding="utf-8"?>
<!-- Generator: Adobe Illustrator 23.0.4, SVG Export Plug-In . SVG Version: 6.00 Build 0)  -->
<svg version="1.1" xmlns="http://www.w3.org/2000/svg" xmlns:xlink="http://www.w3.org/1999/xlink" x="0px" y="0px"
	 viewBox="0 0 1920 1080" style="enable-background:new 0 0 1920 1080;" xml:space="preserve">
<style type="text/css">
	.st0{fill:#3282FF;}
</style>
<g id="Layer_2">
</g>
<g id="Layer_1">
	<g>
		<path class="st0" d="M1165.6,221.8c5.2,10.1,14.3,13.5,20.1,23.3c22.6,39.6,12.1,94.1,31.2,138.6c8.7,20.1,24.6,36.5,38.2,54.1
			c83,107.7,74.9,263.3,170.3,361.3c2.9,2.9,12,12.8,23,27.1c19.8,26,29.8,46.5,47.3,83.3c0,0,8.6,18.1,23.4,72.8
			c0.2,1,0.7,2.8,0.8,5.1v1c0,1.1-0.2,2.4-0.5,3.7c-1,4-3.2,6.5-3.8,7.2c-3,3.6-6.2,12.5-7,35.4c2.3,7.7,4,17.3,3.4,28.2
			c-0.2,4.5-0.5,10.4-2.3,17.1h-142.1c-1.3-13.7,1.6-17.7,4.4-19.1c3.4-1.5,6.5,1.6,14.2,2.4c8.7,0.9,15.1-2.1,22.6-5.5
			c7.9-3.6,16.1-7.2,21-15.3c3.2-5,1.2-5.6,4.8-21.8c3.3-15.2,5.5-17.2,4.7-24.4c-0.7-7.2-3.1-8.1-5.9-17.2
			c-3.3-11.5-0.5-13.2-2.2-29.4c-1.4-14.1-3.7-14.5-6.2-33.3c-1.4-10.5-1-12.2-1.9-20.9c-1.9-16.8-5.9-29.3-9.1-39.5
			c-10.4-32.9-28.3-61.9-35.5-73.2c-41.8-70.6-56.5-122.7-61.9-158.3c-3-19.6-9.6-76.8-49.9-136.7c-20.2-28.5-35.3-45.9-46.8-61.5
			c-11.5-15.5-19.4-29.3-25.1-50.4c-10.3-37.8,0.8-78.9-14.6-115.1c-5.6-13.2-18.7-30.6-20.1-33c-15.7-23.3-30.8-40.5-49.1-56.4
			l304-12.9c-0.5,0.4-8,11.4-8.5,18.3c-0.4,7.2,4.5,14,9.5,19.6c12,13.8,25.8,26.2,41.1,36.7c17.1,11.7,36.9,22,47,39.5
			c7,12.1,8.6,26.2,10.6,39.8c1.4,9.1,3.1,18.3,5.1,27.3v110.6c-7.4-21.9-13.7-44.2-19.5-66.4c-8.2-31.4-15.5-63.1-22.1-94.9
			c-1.5-7.3-3-14.9-6.9-21.3c-4-6.9-10.2-12.4-16.2-17.7c-22.3-19.6-44.4-39.1-66.7-58.7c-3.4-3-6.9-6-11-8
			c-15.4-7.5-32.7,1.9-49.1,6.4c-30.8,8.5-65-1.6-96.8,4.1c-21.6,3.9-41.9,9.3-64.7,5.7C1155.6,200.9,1160.3,211.8,1165.6,221.8z"/>
	</g>
	<g>
		<path class="st0" d="M1104.7,1077.8c-12.7-33-25.8-58.9-36.1-77.1c-24.6-43.5-33.5-45.1-73.2-101.4c0,0-18.3-25.9-38.2-41.5
			c-9.1-7.2-16.1-11.1-20.5-13.8c-28.9-17.4-49.4-42.9-64.8-61.9c-32.3-39.8-23.8-47-61-96.1c-11.1-14.8-20.5-31.4-31.5-46.4
			c-7.9-10.6-17.9-20.5-18.4-34.9c-0.3-9.4-0.6-18.6,2.6-27.2c8.5-23,17.6-46.9,33.5-62.7c6.9-6.9,15.1-12.3,19.5-21.7
			c8.7-18.7-2.9-43.9-18.9-52.4c-16.1-8.4-34.2-4.8-51.2-1.1c-28.7,6.2-57.5,12.5-86.2,18.7c-5.6,1.2-12.8,1.5-15.3-4.8
			c-1.4-3.5-0.7-7.8,0.1-11.7c7-32.2,20.3-62.3,38.5-86.9c4.3-5.9,9.2-11.9,10.7-19.7c5.1-24.5-21.7-39.5-16.5-64
			c0.3-1.2,3.8-7.6,10.7-20.3c9.1-16.4,13.7-25.1,20.3-35.2c5.6-8.7,13.9-13,25.1-26.2c-8.7,0.4-17.6,3.7-26.3,4.1
			c-3.8,12-9.8,16.4-19.1,32.2c-12.8,21.6-27.2,36.8-38.5,46.8c-14-2.2-30.6,0.8-44.6,3.1c-7.7,1.4-16.1,4-23.7,0.8
			c-6.1-2.7-8.8-10.6-7.3-19.6c-4.5,4.7-14.4,12.7-19,15.4c-6.6,4-27.6,3.1-31.3,3.5c-3,0.4,1-8.9,5.5-13.8
			c4.8-5.1-18.2,7.6-20.6,8.9c-6.9,3.9-16.5,1-23.9,0.4c-11.7-1-26.7,4.2-34.7,0.4c10.9,6.2,38.9,5.3,50.1,11.3
			c46.7,25.2,93.4,2.2,140.6,12.9c9.1,2,18.6,6.1,23.2,16.2c6.7,14.4,5.6,32.6-3.3,44.9c-12.8,17.5-30.1,29.3-42.6,47.3
			c-12.5,17.9-19.1,46.5-7.2,65c8.9,13.8,24.9,16.7,39.1,15.4c44.7-4.3,88.8-40.6,131.6-23.3c1.2,19-10.6,35.5-23.5,45.5
			c-12.9,10-27.8,16.2-39.5,28.3c-10.6,11-17.9,26-27.8,37.9c-12.1,14.4-27.5,23.3-42.6,31.8c-22.5,12.7-45.4,24.9-69.3,32.2
			c-26.2,8.1-53.3,10-80.1,14.9c-59.3,11-116.3,36.8-171,67.2c29-9.1,58.1-18.2,87.2-27.4c21.6-6.9,43.4-13.6,65.6-15.9
			c20.3-2.2,40.8-0.4,61.1-1.9c35.9-2.7,74.9-15.2,106.6-36.9c19.4-13.2,37.9-30.3,56.2-16.2c16.4,12.7,15.4,46.6,3.3,65.5
			c-12.1,18.9-30,19.4-45.7,33.4c-28.6,25.3-65.7,30.9-94.7,37.2c-17.3,3.8-27.6,4.7-44.8,9.3c-13.4,3.8-26.4,5.8-39.5,11.2
			c-24.4,10.1-52.5,20.3-74.9,35.7c-12.4,8.6-24.2,14.3-35.9,24.4c-26.9,23.3-49.4,55-82.5,75.6c-6.9,4.3-11.4,7.8-15.1,11.5
			c0,0-9.5,8.9-17.7,22c-9.7,15.4-29.9,64-51.2,132.5c62,0.4,124,0.9,186,1.2c-32.7-34.2-42.6-50.4-43.6-58.1
			c-0.1-1-0.6-6.1-2.2-12.7c-1.2-5.4-2.3-7.7-4.3-15.2c0,0-1.5-5.8-3.1-12.3c-2.4-10.6-1.2-36.4,13.7-62.1
			c9.6-16.3,19.8-26.3,32.2-38.9c12.4-12.7,24.4-27.6,39.1-37.4c14.7-9.6,32-13.6,47.7-17.7c11.1-2.8,22.4-10,33.5-12.8
			c13.6-3.4,27.1-9.8,40.3-15.2c20.9-8.4,43.2-13.9,64.8-22.5c18.6-7.4,36.4-17.3,52.4-29.7c22-17,34.9-19.8,60.8-29.8
			c2.7-1.1,2.6-0.4,5.1-0.8c19.9-3.9,22.7-13.8,30-12.8c12.9,1.6,12.5,32.9,37.8,56.7c2.6,2.6,3.1,2.6,5.8,5.1
			c10.7,11.1,13.2,20.1,23.4,39.2c7.4,14,16.6,27.1,35.1,53.1c32.7,46.4,55.4,60.4,77.7,88.4c20.1,25.3,44.4,66.1,55.3,134
			L1104.7,1077.8z"/>
	</g>
	<g>
		<path class="st0" d="M88.7,359c1.7-1.5,4.1-3.9,6.3-7.4c2.5-4,3.6-7.4,4.1-9c2.7-8,7.4-11.1,24-36.5c4.4-6.8,4.4-6.8,8.8-16.4
			l-12.3-4.7c-3.2,12.5-7.8,19.9-15.2,28.8c-4.8,5.8-9.6,11.5-14.4,17.2c-3.2,3.9-6.6,7.8-8.8,12.7c-8.1,17.2-5.6,38-3.7,49.6
			c2.9,18,6.4,16.9,7.5,31.7c1.2,16.2-3.2,16-2.2,35.3c0.5,8.6,2.3,17.3,1.9,33c-0.1,4.2-0.3,8.3-1.1,12.2
			c-1.4,6.4-4.1,11.9-7.1,17.3c-6.3,11.4-13.3,22.4-20.7,32.9l1.5-3.2c-8.9,11-18,22-28.6,30.3c-13.6,10.5-12.4,6-26.7,15.4v171
			c10.1-10.5,15.2-24.8,18.6-40.6c2.3-10.3,2.7-20.9,3.4-31.5c1.1-14.7,2.6-29.3,4.7-43.7c1.2-8.8,5.4-13.1,6-23.1
			c0.6-9.3-1.4-11.4-0.7-18c1-8.8,5.9-15.6,17.9-27.3c18.8-18.2,21.9-16.4,29.6-25.3c14.5-17,16.8-40.2,18.8-60
			c0.5-5.2,1.5-18-2.6-56.7c-1.9-17.2-4.9-40.6-9.9-68.4C88.1,369.6,88.5,364.3,88.7,359z"/>
	</g>
</g>
</svg>
