<?xml version="1.0" encoding="utf-8"?>
<!-- Generator: Adobe Illustrator 23.0.4, SVG Export Plug-In . SVG Version: 6.00 Build 0)  -->
<svg version="1.1" id="Layer_1" xmlns="http://www.w3.org/2000/svg" xmlns:xlink="http://www.w3.org/1999/xlink" x="0px" y="0px"
	 viewBox="0 0 637.8 117.4" style="enable-background:new 0 0 637.8 117.4;" xml:space="preserve">
<style type="text/css">
	.st0{fill:#FFFFFF;stroke:#000000;stroke-width:2;stroke-miterlimit:10;}
</style>
<g>
	<path class="st0" d="M28.2,28.9c0-2.5,2.1-4.6,4.7-4.6c2.4,0,4.4,2.1,4.4,4.6v37.6h20.4c7.3,0,7.5,9.8,0,9.8H32.9
		c-2.6,0-4.7-1.9-4.7-4.6V28.9z"/>
	<path class="st0" d="M69.9,76.3c-2.4-1.4-3.9-4-2.4-7.2L89.1,27c2-4,7.4-4.1,9.3,0l21.1,42.1c3.1,5.8-6,10.5-8.7,4.6l-3.3-6.6H79.8
		l-3.2,6.6C75.4,76.3,72.6,76.8,69.9,76.3z M102.2,57.2l-8.5-18.5l-9.2,18.5H102.2z"/>
	<path class="st0" d="M143.4,53.3l-7.1,7.9v10.5c0,6.2-9.9,6.3-9.9,0c0-14.4,0-28.3,0-42.8c0-6.4,9.9-6.6,9.9,0v19l21.7-22.3
		c2.6-2.5,5.2-1.9,7.1,0c2.1,2,2.1,4.6,0,6.7c-4.4,5.2-9.6,9.9-14.4,15.1l17.5,21.2c4.5,6.2-5.1,10.7-8.1,5.9L143.4,53.3z"/>
	<path class="st0" d="M181.2,76.3c-2.6,0-4.6-2-4.6-4.6V29c0-2.7,2-4.6,4.6-4.6h26.9c6.9,0,6.7,9.7,0,9.7h-21.6v11.2h18.9
		c6.7,0,6.7,9.8,0,9.8h-18.9v11.2h22.9c6.8,0,7.3,9.8,0,9.8H181.2z"/>
	<path class="st0" d="M249.3,76.3c-2.6,0-4.6-2-4.6-4.6V29c0-2.7,2-4.6,4.6-4.6h26.9c6.9,0,6.7,9.7,0,9.7h-21.6v11.2h18.9
		c6.7,0,6.7,9.8,0,9.8h-18.9v11.2h22.9c6.8,0,7.3,9.8,0,9.8H249.3z"/>
	<path class="st0" d="M300.8,71.4c0,6.5-10,6.8-10,0.2V29c0-2.6,2-4.6,4.5-4.6h19.9c19,0,22.9,25.5,7,31.9l10,12.1
		c3.9,5.8-3.9,11.3-8.4,5.6l-11.3-16.2h-11.8V71.4z M300.8,49.2h14.5c9.7,0,10.3-15.7,0-15.7h-14.5V49.2z"/>
	<path class="st0" d="M342,28.9c0-6.1,9.9-6.4,9.9,0v42.8c0,6.2-9.9,6.4-9.9,0V28.9z"/>
	<path class="st0" d="M367.6,76.3c-2.6,0-4.6-2-4.6-4.6V29c0-2.7,2-4.6,4.6-4.6h26.9c6.9,0,6.8,9.7,0,9.7h-21.6v11.2h18.9
		c6.7,0,6.7,9.8,0,9.8h-18.9v11.2h22.9c6.8,0,7.3,9.8,0,9.8H367.6z"/>
	<path class="st0" d="M429.2,50c0-14.5,9.1-26.9,26.3-26.9c6.5,0,11.7,2,17.2,6.7c2,1.9,2.2,5.2,0.2,7.3c-2,1.8-5.1,1.6-6.9-0.2
		c-3.1-3.2-6.2-4.1-10.5-4.1c-11.5,0-17.1,8.2-17.1,17.3c0,9.3,5.5,17.8,17.1,17.8c4.3,0,8.2-1.7,11.7-4.8c2.3-1.8,5.5-0.9,6.9,0.9
		c1.2,1.6,1.8,4.4-0.8,7c-5.2,4.9-11.5,5.8-17.8,5.8C437.4,76.8,429.2,64.4,429.2,50z"/>
	<path class="st0" d="M493.8,71.4c0,6.5-10,6.8-10,0.2V29c0-2.6,2-4.6,4.5-4.6h19.9c19,0,22.9,25.5,7,31.9l10,12.1
		c3.9,5.8-3.9,11.3-8.4,5.6l-11.3-16.2h-11.8V71.4z M493.8,49.2h14.5c9.7,0,10.3-15.7,0-15.7h-14.5V49.2z"/>
	<path class="st0" d="M535.1,28.9c0-6.1,9.9-6.4,9.9,0v42.8c0,6.2-9.9,6.4-9.9,0V28.9z"/>
	<path class="st0" d="M560.6,76.3c-2.7,0-4.6-2-4.6-4.6V29c0-2.7,1.9-4.6,4.6-4.6h21.1c9.8,0,15.1,6.7,15.1,14.3
		c0,3.4-1,6.7-4.1,9.4c5.9,2.3,8.5,6.9,8.5,12.4c0,8.6-5.8,15.7-17.1,15.7H560.6z M581.7,33.5h-15.8v11.2h15.8c3.2,0,5.2-2,5.2-6
		C586.9,36.2,584.9,33.5,581.7,33.5z M565.8,67.1h18.3c8.7,0,8.7-13.3,0-13.3c-5.7,0-12.4,0-18.3,0V67.1z"/>
</g>
</svg>
