<svg id="Layer_1" data-name="Layer 1" xmlns="http://www.w3.org/2000/svg" viewBox="0 0 882.59 655.76"><title>residentialisland</title><polygon points="752.9 141.34 882.59 141.34 817.75 48.06 752.9 141.34" fill="#e6e6e6"/><rect x="752.9" y="141.34" width="129.69" height="139.93" fill="#e6e6e6"/><path d="M817.75,48.06H709.67s-91.86,93.28-86.46,93.28H752.9Z" fill="#2e3192"/><rect x="623.21" y="141.34" width="129.69" height="139.93" fill="#f14929"/><rect x="839.36" y="164.67" width="27.02" height="40.81" transform="translate(1705.74 370.14) rotate(-180)" fill="#bdccd4"/><rect x="774.52" y="164.67" width="27.02" height="40.81" transform="translate(1576.05 370.14) rotate(-180)" fill="#bdccd4"/><rect x="698.87" y="164.67" width="27.02" height="40.81" transform="translate(1424.75 370.14) rotate(-180)" fill="#2e3192"/><rect x="644.83" y="164.67" width="27.02" height="40.81" transform="translate(1316.68 370.14) rotate(-180)" fill="#2e3192"/><path d="M705,232.88v48.39H664V232.88c0-9.43,9.17-17.08,20.49-17.08S705,223.45,705,232.88Z" fill="#2e3192"/><polygon points="208.92 109.34 338.61 109.34 273.76 16.06 208.92 109.34" fill="#e6e6e6"/><rect x="208.92" y="109.35" width="129.69" height="139.93" fill="#e6e6e6"/><path d="M273.76,16.06H165.69s-91.86,93.29-86.46,93.29H208.92Z" fill="#2e3192"/><rect x="79.23" y="109.35" width="129.69" height="139.93" fill="#f14929"/><rect x="295.38" y="132.67" width="27.02" height="40.81" transform="translate(617.78 306.14) rotate(-180)" fill="#bdccd4"/><rect x="230.53" y="132.67" width="27.02" height="40.81" transform="translate(488.09 306.14) rotate(-180)" fill="#bdccd4"/><rect x="154.88" y="132.67" width="27.02" height="40.81" transform="translate(336.78 306.14) rotate(-180)" fill="#2e3192"/><rect x="100.85" y="132.67" width="27.02" height="40.81" transform="translate(228.71 306.14) rotate(-180)" fill="#2e3192"/><path d="M161,200.88v48.39H120V200.88c0-9.43,9.18-17.08,20.5-17.08S161,191.45,161,200.88Z" fill="#2e3192"/><polygon points="488.71 259.63 269.84 259.63 379.27 102.19 488.71 259.63" fill="#f14929"/><rect x="269.84" y="259.62" width="218.87" height="236.15" fill="#f14929"/><path d="M707.58,259.62H488.71L379.27,102.19h60l.23.3,37.92,47.39V102.19h84.3l7.94,8.08C601.14,142.44,715.45,259.62,707.58,259.62Z" fill="#ff931e"/><rect x="488.71" y="259.62" width="218.87" height="236.15" fill="#e6e6e6"/><rect x="304.89" y="300.26" width="45.6" height="68.88" fill="#2e3192"/><rect x="407.91" y="300.26" width="45.6" height="68.88" fill="#2e3192"/><rect x="522.78" y="300.26" width="45.6" height="68.88" fill="#bdccd4"/><rect x="628.06" y="300.26" width="45.6" height="68.88" fill="#bdccd4"/><polyline points="523.49 0 569.61 50.55 569.61 149.88 477.37 149.88 477.37 50.55 523.49 0" fill="#e6e6e6"/><polygon points="477.37 49.96 477.37 149.88 439.45 102.48 439.22 102.19 408.19 102.19 408.19 49.96 477.37 49.96" fill="#f14929"/><circle cx="523.49" cy="69.18" r="23.06" fill="#2e3192"/><path d="M50.36,529.25a81.53,81.53,0,0,0,124,104.25A65.78,65.78,0,0,0,281,557.77c23.32-7.63,40-28,40-52,0-22.53-14.74-41.84-35.84-50.42a64.67,64.67,0,0,0,4.26-23.26,65.78,65.78,0,0,0-127.61-22.47c-8.16-10.47-19.89-17-32.89-17-19.73,0-36.57,15.11-42.47,36.05A54.62,54.62,0,0,0,55.26,419a55.26,55.26,0,0,0-4.9,110.3Z" fill="#64a400"/></svg>