<?xml version="1.0" encoding="utf-8"?>
<!-- Generator: Adobe Illustrator 23.0.4, SVG Export Plug-In . SVG Version: 6.00 Build 0)  -->
<svg version="1.1" id="Layer_1" xmlns="http://www.w3.org/2000/svg" xmlns:xlink="http://www.w3.org/1999/xlink" x="0px" y="0px"
	 viewBox="0 0 1920 1083" style="enable-background:new 0 0 1920 1083;" xml:space="preserve">
<g>
	<rect style="fill:#68C5EC;" width="1522" height="248"/>
</g>
<g>
	<path style="fill:#3282FF;" d="M1522.5,163.9l-0.5,229.4l-1522.4-17V210.5l0,0c0,0,1055.2-86.8,1527.3-46.6"/>
	<g>
		<g>
			<defs>
				<rect id="SVGID_1_" y="107.4" width="1521.6" height="975.2"/>
			</defs>
			<clipPath id="SVGID_2_">
				<use xlink:href="#SVGID_1_"  style="overflow:visible;"/>
			</clipPath>
			<path style="clip-path:url(#SVGID_2_);fill:#61A814;" d="M0,323.6c18,3.3,40.8,6.7,67.1,9c14.7,1.3,40.4,3,76.2,2.4
				c32.3-0.5,60-2.7,127-10.8c67.5-8.1,101.3-12.2,132.4-17.4c64.1-10.8,85.5-18.3,159.1-34.2c40.2-8.7,98.2-20.4,169.9-31.8
				c36.7-3.4,126-11.3,214.7-15c20.1-0.8,53.5-2.2,98-2.4c27.6-0.1,51,0.2,68.3,0.6c135.9-5.6,271.7-11.2,407.6-16.8l2.4-2.4v877.9
				H0V323.6z"/>
		</g>
		<g>
			<defs>
				<rect id="SVGID_3_" y="107.4" width="1521.6" height="975.2"/>
			</defs>
			<clipPath id="SVGID_4_">
				<use xlink:href="#SVGID_3_"  style="overflow:visible;"/>
			</clipPath>
			<rect x="3.6" y="458.1" style="clip-path:url(#SVGID_4_);fill:#70B526;" width="1519.2" height="357.9"/>
		</g>
		<g>
			<defs>
				<rect id="SVGID_5_" y="107.4" width="1521.6" height="975.2"/>
			</defs>
			<clipPath id="SVGID_6_">
				<use xlink:href="#SVGID_5_"  style="overflow:visible;"/>
			</clipPath>
			<path style="clip-path:url(#SVGID_6_);fill:#70B526;" d="M615,471.3H10.3c-6.3,0-11.5-5.2-11.5-11.5v-4.6
				c0-6.3,5.2-11.5,11.5-11.5H615c6.3,0,11.5,5.2,11.5,11.5v4.6C626.5,466.1,621.3,471.3,615,471.3z"/>
		</g>
		<g>
			<defs>
				<rect id="SVGID_7_" y="107.4" width="1521.6" height="975.2"/>
			</defs>
			<clipPath id="SVGID_8_">
				<use xlink:href="#SVGID_7_"  style="overflow:visible;"/>
			</clipPath>
			<path style="clip-path:url(#SVGID_8_);fill:#70B526;" d="M573.9,443.7H9c-6.3,0-11.5-5.2-11.5-11.5v-4.6
				c0-6.3,5.2-11.5,11.5-11.5h564.8c6.3,0,11.5,5.2,11.5,11.5v4.6C585.4,438.5,580.2,443.7,573.9,443.7z"/>
		</g>
		<g>
			<defs>
				<rect id="SVGID_9_" y="107.4" width="1521.6" height="975.2"/>
			</defs>
			<clipPath id="SVGID_10_">
				<use xlink:href="#SVGID_9_"  style="overflow:visible;"/>
			</clipPath>
			<path style="clip-path:url(#SVGID_10_);fill:#70B526;" d="M854.5,441.3h-225c-6.3,0-11.5-5.2-11.5-11.5v-4.6
				c0-6.3,5.2-11.5,11.5-11.5h225c6.3,0,11.5,5.2,11.5,11.5v4.6C866,436.1,860.8,441.3,854.5,441.3z"/>
		</g>
		<g>
			<defs>
				<rect id="SVGID_11_" y="107.4" width="1521.6" height="975.2"/>
			</defs>
			<clipPath id="SVGID_12_">
				<use xlink:href="#SVGID_11_"  style="overflow:visible;"/>
			</clipPath>
			<path style="clip-path:url(#SVGID_12_);fill:#70B526;" d="M1513.7,462.9H908.9c-6.3,0-11.5-5.2-11.5-11.5v-4.6
				c0-6.3,5.2-11.5,11.5-11.5h604.7c6.3,0,11.5,5.2,11.5,11.5v4.6C1525.2,457.7,1520,462.9,1513.7,462.9z"/>
		</g>
		<g>
			<defs>
				<rect id="SVGID_13_" y="107.4" width="1521.6" height="975.2"/>
			</defs>
			<clipPath id="SVGID_14_">
				<use xlink:href="#SVGID_13_"  style="overflow:visible;"/>
			</clipPath>
			<path style="clip-path:url(#SVGID_14_);fill:#70B526;" d="M619.8,405.2h-36.3c-6.3,0-11.5-5.2-11.5-11.5v-4.6
				c0-6.3,5.2-11.5,11.5-11.5h36.3c6.3,0,11.5,5.2,11.5,11.5v4.6C631.3,400.1,626.2,405.2,619.8,405.2z"/>
		</g>
		<g>
			<defs>
				<rect id="SVGID_15_" y="107.4" width="1521.6" height="975.2"/>
			</defs>
			<clipPath id="SVGID_16_">
				<use xlink:href="#SVGID_15_"  style="overflow:visible;"/>
			</clipPath>
			<path style="clip-path:url(#SVGID_16_);fill:#70B526;" d="M1520.9,393.2h-225c-6.3,0-11.5-5.2-11.5-11.5v-4.6
				c0-6.3,5.2-11.5,11.5-11.5h225c6.3,0,11.5,5.2,11.5,11.5v4.6C1532.4,388.1,1527.3,393.2,1520.9,393.2z"/>
		</g>
		<g>
			<defs>
				<rect id="SVGID_17_" y="107.4" width="1521.6" height="975.2"/>
			</defs>
			<clipPath id="SVGID_18_">
				<use xlink:href="#SVGID_17_"  style="overflow:visible;"/>
			</clipPath>
			<path style="clip-path:url(#SVGID_18_);fill:#70B526;" d="M1258.5,394h-36.3c-6.3,0-11.5-5.2-11.5-11.5v-4.6
				c0-6.3,5.2-11.5,11.5-11.5h36.3c6.3,0,11.5,5.2,11.5,11.5v4.6C1270,388.9,1264.8,394,1258.5,394z"/>
		</g>
		<g>
			<defs>
				<rect id="SVGID_19_" y="107.4" width="1521.6" height="975.2"/>
			</defs>
			<clipPath id="SVGID_20_">
				<use xlink:href="#SVGID_19_"  style="overflow:visible;"/>
			</clipPath>
			<path style="clip-path:url(#SVGID_20_);fill:#70B526;" d="M965.8,407.6H846c-6.3,0-11.5-5.2-11.5-11.5v-4.6
				c0-6.3,5.2-11.5,11.5-11.5h119.7c6.3,0,11.5,5.2,11.5,11.5v4.6C977.3,402.5,972.1,407.6,965.8,407.6z"/>
		</g>
		<g>
			<defs>
				<rect id="SVGID_21_" y="107.4" width="1521.6" height="975.2"/>
			</defs>
			<clipPath id="SVGID_22_">
				<use xlink:href="#SVGID_21_"  style="overflow:visible;"/>
			</clipPath>
			<path style="clip-path:url(#SVGID_22_);fill:#70B526;" d="M1398.8,436.5h-349.5c-6.3,0-11.5-5.2-11.5-11.5v-4.6
				c0-6.3,5.2-11.5,11.5-11.5h349.5c6.3,0,11.5,5.2,11.5,11.5v4.6C1410.3,431.3,1405.1,436.5,1398.8,436.5z"/>
		</g>
		<g>
			<defs>
				<rect id="SVGID_23_" y="107.4" width="1521.6" height="975.2"/>
			</defs>
			<clipPath id="SVGID_24_">
				<use xlink:href="#SVGID_23_"  style="overflow:visible;"/>
			</clipPath>
			<path style="clip-path:url(#SVGID_24_);fill:#70B526;" d="M363.4,416.1H13.9c-6.3-2-11.5-7.2-11.5-13.5V398
				c0-6.3,5.2-11.5,11.5-10.5h349.5c6.3-1,11.5,4.2,11.5,10.5v4.6C374.9,408.9,369.7,414.1,363.4,416.1z"/>
		</g>
		<g>
			<defs>
				<rect id="SVGID_25_" y="107.4" width="1521.6" height="975.2"/>
			</defs>
			<clipPath id="SVGID_26_">
				<use xlink:href="#SVGID_25_"  style="overflow:visible;"/>
			</clipPath>
			<path style="clip-path:url(#SVGID_26_);fill:#70B526;" d="M976.6,483.3H627.1c-6.3,0-11.5-5.2-11.5-11.5v-4.6
				c0-6.3,5.2-11.5,11.5-11.5h349.5c6.3,0,11.5,5.2,11.5,11.5v4.6C988.1,478.1,983,483.3,976.6,483.3z"/>
		</g>
		<g>
			<defs>
				<rect id="SVGID_27_" y="107.4" width="1521.6" height="975.2"/>
			</defs>
			<clipPath id="SVGID_28_">
				<use xlink:href="#SVGID_27_"  style="overflow:visible;"/>
			</clipPath>
			<path style="clip-path:url(#SVGID_28_);fill:#61A814;" d="M619.8,501.3H270.3c-6.3,0-11.5-5.2-11.5-11.5v-4.6
				c0-6.3,5.2-11.5,11.5-11.5h349.5c6.3,0,11.5,5.2,11.5,11.5v4.6C631.3,496.1,626.2,501.3,619.8,501.3z"/>
		</g>
		<g>
			<defs>
				<rect id="SVGID_29_" y="107.4" width="1521.6" height="975.2"/>
			</defs>
			<clipPath id="SVGID_30_">
				<use xlink:href="#SVGID_29_"  style="overflow:visible;"/>
			</clipPath>
			<path style="clip-path:url(#SVGID_30_);fill:#61A814;" d="M1517.3,550.6h-401.5c-6.3,0-11.5-5.2-11.5-11.5v-7
				c0-6.3,5.2-11.5,11.5-11.5h401.5c6.3,0,11.5,5.2,11.5,11.5v7C1528.8,545.4,1523.6,550.6,1517.3,550.6z"/>
		</g>
		<g>
			<defs>
				<rect id="SVGID_31_" y="107.4" width="1521.6" height="975.2"/>
			</defs>
			<clipPath id="SVGID_32_">
				<use xlink:href="#SVGID_31_"  style="overflow:visible;"/>
			</clipPath>
			<path style="clip-path:url(#SVGID_32_);fill:#61A814;" d="M1418.1,508.5h-401.5c-6.3,0-11.5-5.2-11.5-11.5v-7
				c0-6.3,5.2-11.5,11.5-11.5h401.5c6.3,0,11.5,5.2,11.5,11.5v7C1429.6,503.4,1424.4,508.5,1418.1,508.5z"/>
		</g>
		<g>
			<defs>
				<rect id="SVGID_33_" y="107.4" width="1521.6" height="975.2"/>
			</defs>
			<clipPath id="SVGID_34_">
				<use xlink:href="#SVGID_33_"  style="overflow:visible;"/>
			</clipPath>
			<path style="clip-path:url(#SVGID_34_);fill:#61A814;" d="M134.8,547H10.3c-6.3,0-11.5-5.2-11.5-11.5v-4.6
				c0-6.3,5.2-11.5,11.5-11.5h124.6c6.3,0,11.5,5.2,11.5,11.5v4.6C146.3,541.8,141.1,547,134.8,547z"/>
		</g>
		<g>
			<defs>
				<rect id="SVGID_35_" y="107.4" width="1521.6" height="975.2"/>
			</defs>
			<clipPath id="SVGID_36_">
				<use xlink:href="#SVGID_35_"  style="overflow:visible;"/>
			</clipPath>
			<path style="clip-path:url(#SVGID_36_);fill:#61A814;" d="M229.2,500.1h-39.9c-6.3,0-11.5-5.2-11.5-11.5V484
				c0-6.3,5.2-11.5,11.5-11.5h39.9c6.3,0,11.5,5.2,11.5,11.5v4.6C240.7,494.9,235.5,500.1,229.2,500.1z"/>
		</g>
		<g>
			<defs>
				<rect id="SVGID_37_" y="107.4" width="1521.6" height="975.2"/>
			</defs>
			<clipPath id="SVGID_38_">
				<use xlink:href="#SVGID_37_"  style="overflow:visible;"/>
			</clipPath>
			<path style="clip-path:url(#SVGID_38_);fill:#61A814;" d="M1081.9,547H1042c-6.3,0-11.5-5.2-11.5-11.5v-4.6
				c0-6.3,5.2-11.5,11.5-11.5h39.9c6.3,0,11.5,5.2,11.5,11.5v4.6C1093.4,541.8,1088.2,547,1081.9,547z"/>
		</g>
		<g>
			<defs>
				<rect id="SVGID_39_" y="107.4" width="1521.6" height="975.2"/>
			</defs>
			<clipPath id="SVGID_40_">
				<use xlink:href="#SVGID_39_"  style="overflow:visible;"/>
			</clipPath>
			<path style="clip-path:url(#SVGID_40_);fill:#61A814;" d="M725.1,575.8H610.2c-6.3,0-11.5-5.2-11.5-11.5v-4.6
				c0-6.3,5.2-11.5,11.5-11.5h114.9c6.3,0,11.5,5.2,11.5,11.5v4.6C736.6,570.6,731.4,575.8,725.1,575.8z"/>
		</g>
		<g>
			<defs>
				<rect id="SVGID_41_" y="107.4" width="1521.6" height="975.2"/>
			</defs>
			<clipPath id="SVGID_42_">
				<use xlink:href="#SVGID_41_"  style="overflow:visible;"/>
			</clipPath>
			<path style="clip-path:url(#SVGID_42_);fill:#61A814;" d="M796.4,577h-39.9c-6.3,0-11.5-5.2-11.5-11.5v-4.6
				c0-6.3,5.2-11.5,11.5-11.5h39.9c6.3,0,11.5,5.2,11.5,11.5v4.6C807.9,571.8,802.8,577,796.4,577z"/>
		</g>
		<g>
			<defs>
				<rect id="SVGID_43_" y="107.4" width="1521.6" height="975.2"/>
			</defs>
			<clipPath id="SVGID_44_">
				<use xlink:href="#SVGID_43_"  style="overflow:visible;"/>
			</clipPath>
			<path style="clip-path:url(#SVGID_44_);fill:#61A814;" d="M578.7,575.8h-39.9c-6.3,0-11.5-5.2-11.5-11.5v-4.6
				c0-6.3,5.2-11.5,11.5-11.5h39.9c6.3,0,11.5,5.2,11.5,11.5v4.6C590.2,570.6,585,575.8,578.7,575.8z"/>
		</g>
		<g>
			<defs>
				<rect id="SVGID_45_" y="107.4" width="1521.6" height="975.2"/>
			</defs>
			<clipPath id="SVGID_46_">
				<use xlink:href="#SVGID_45_"  style="overflow:visible;"/>
			</clipPath>
			<rect x="-1.2" y="770.3" style="clip-path:url(#SVGID_46_);fill:#76BF28;" width="1522.8" height="313.4"/>
		</g>
		<g>
			<defs>
				<rect id="SVGID_47_" y="107.4" width="1521.6" height="975.2"/>
			</defs>
			<clipPath id="SVGID_48_">
				<use xlink:href="#SVGID_47_"  style="overflow:visible;"/>
			</clipPath>
			<path style="clip-path:url(#SVGID_48_);fill:#70B526;" d="M1517.3,795.6h-349.5c-6.3,0-11.5-5.2-11.5-11.5v-4.6
				c0-6.3,5.2-11.5,11.5-11.5h349.5c6.3,0,11.5,5.2,11.5,11.5v4.6C1528.8,790.4,1523.6,795.6,1517.3,795.6z"/>
		</g>
		<g>
			<defs>
				<rect id="SVGID_49_" y="107.4" width="1521.6" height="975.2"/>
			</defs>
			<clipPath id="SVGID_50_">
				<use xlink:href="#SVGID_49_"  style="overflow:visible;"/>
			</clipPath>
			<path style="clip-path:url(#SVGID_50_);fill:#70B526;" d="M352.5,794.4H3c-6.3,0-11.5-5.2-11.5-11.5v-4.6
				c0-6.3,5.2-11.5,11.5-11.5h349.5c6.3,0,11.5,5.2,11.5,11.5v4.6C364,789.2,358.9,794.4,352.5,794.4z"/>
		</g>
		<g>
			<defs>
				<rect id="SVGID_51_" y="107.4" width="1521.6" height="975.2"/>
			</defs>
			<clipPath id="SVGID_52_">
				<use xlink:href="#SVGID_51_"  style="overflow:visible;"/>
			</clipPath>
			<path style="clip-path:url(#SVGID_52_);fill:#70B526;" d="M541.2,840H191.7c-6.3,0-11.5-5.2-11.5-11.5v-4.6
				c0-6.3,5.2-11.5,11.5-11.5h349.5c6.3,0,11.5,5.2,11.5,11.5v4.6C552.7,834.8,547.5,840,541.2,840z"/>
		</g>
		<g>
			<defs>
				<rect id="SVGID_53_" y="107.4" width="1521.6" height="975.2"/>
			</defs>
			<clipPath id="SVGID_54_">
				<use xlink:href="#SVGID_53_"  style="overflow:visible;"/>
			</clipPath>
			<path style="clip-path:url(#SVGID_54_);fill:#76BF28;" d="M421.5,746.3H71.9c-6.3,0-11.5-5.2-11.5-11.5v-4.6
				c0-6.3,5.2-11.5,11.5-11.5h349.5c6.3,0,11.5,5.2,11.5,11.5v4.6C433,741.1,427.8,746.3,421.5,746.3z"/>
		</g>
		<g>
			<defs>
				<rect id="SVGID_55_" y="107.4" width="1521.6" height="975.2"/>
			</defs>
			<clipPath id="SVGID_56_">
				<use xlink:href="#SVGID_55_"  style="overflow:visible;"/>
			</clipPath>
			<path style="clip-path:url(#SVGID_56_);fill:#70B526;" d="M1073.4,796.8H471.1c-6.3,0-11.5-5.2-11.5-11.5v-4.6
				c0-6.3,5.2-11.5,11.5-11.5h602.3c6.3,0,11.5,5.2,11.5,11.5v4.6C1084.9,791.6,1079.7,796.8,1073.4,796.8z"/>
		</g>
		<g>
			<defs>
				<rect id="SVGID_57_" y="107.4" width="1521.6" height="975.2"/>
			</defs>
			<clipPath id="SVGID_58_">
				<use xlink:href="#SVGID_57_"  style="overflow:visible;"/>
			</clipPath>
			<path style="clip-path:url(#SVGID_58_);fill:#70B526;" d="M1022.6,838.8h-225c-6.3,0-11.5-5.2-11.5-11.5v-4.6
				c0-6.3,5.2-11.5,11.5-11.5h225c6.3,0,11.5,5.2,11.5,11.5v4.6C1034.1,833.6,1028.9,838.8,1022.6,838.8z"/>
		</g>
		<g>
			<defs>
				<rect id="SVGID_59_" y="107.4" width="1521.6" height="975.2"/>
			</defs>
			<clipPath id="SVGID_60_">
				<use xlink:href="#SVGID_59_"  style="overflow:visible;"/>
			</clipPath>
			<path style="clip-path:url(#SVGID_60_);fill:#70B526;" d="M1098.8,836.4h-36.3c-6.3,0-11.5-5.2-11.5-11.5v-4.6
				c0-6.3,5.2-11.5,11.5-11.5h36.3c6.3,0,11.5,5.2,11.5,11.5v4.6C1110.3,831.2,1105.1,836.4,1098.8,836.4z"/>
		</g>
		<g>
			<defs>
				<rect id="SVGID_61_" y="107.4" width="1521.6" height="975.2"/>
			</defs>
			<clipPath id="SVGID_62_">
				<use xlink:href="#SVGID_61_"  style="overflow:visible;"/>
			</clipPath>
			<path style="clip-path:url(#SVGID_62_);fill:#70B526;" d="M792.8,871.2h-36.3c-6.3,0-11.5-5.2-11.5-11.5v-4.6
				c0-6.3,5.2-11.5,11.5-11.5h36.3c6.3,0,11.5,5.2,11.5,11.5v4.6C804.3,866,799.1,871.2,792.8,871.2z"/>
		</g>
		<g>
			<defs>
				<rect id="SVGID_63_" y="107.4" width="1521.6" height="975.2"/>
			</defs>
			<clipPath id="SVGID_64_">
				<use xlink:href="#SVGID_63_"  style="overflow:visible;"/>
			</clipPath>
			<path style="clip-path:url(#SVGID_64_);fill:#70B526;" d="M154.2,838.8h-36.3c-6.3,0-11.5-5.2-11.5-11.5v-4.6
				c0-6.3,5.2-11.5,11.5-11.5h36.3c6.3,0,11.5,5.2,11.5,11.5v4.6C165.7,833.6,160.5,838.8,154.2,838.8z"/>
		</g>
		<g>
			<defs>
				<rect id="SVGID_65_" y="107.4" width="1521.6" height="975.2"/>
			</defs>
			<clipPath id="SVGID_66_">
				<use xlink:href="#SVGID_65_"  style="overflow:visible;"/>
			</clipPath>
			<path style="clip-path:url(#SVGID_66_);fill:#70B526;" d="M1437.5,885.6h-414.8c-6.3,0-11.5-5.2-11.5-11.5v-4.6
				c0-6.3,5.2-11.5,11.5-11.5h414.8c6.3,0,11.5,5.2,11.5,11.5v4.6C1449,880.5,1443.8,885.6,1437.5,885.6z"/>
		</g>
		<g>
			<defs>
				<rect id="SVGID_67_" y="107.4" width="1521.6" height="975.2"/>
			</defs>
			<clipPath id="SVGID_68_">
				<use xlink:href="#SVGID_67_"  style="overflow:visible;"/>
			</clipPath>
			<path style="clip-path:url(#SVGID_68_);fill:#76BF28;" d="M674.3,704.3H324.7c-6.3,0-11.5-5.2-11.5-11.5v-4.6
				c0-6.3,5.2-11.5,11.5-11.5h349.5c6.3,0,11.5,5.2,11.5,11.5v4.6C685.8,699.1,680.6,704.3,674.3,704.3z"/>
		</g>
		<g>
			<defs>
				<rect id="SVGID_69_" y="107.4" width="1521.6" height="975.2"/>
			</defs>
			<clipPath id="SVGID_70_">
				<use xlink:href="#SVGID_69_"  style="overflow:visible;"/>
			</clipPath>
			<path style="clip-path:url(#SVGID_70_);fill:#76BF28;" d="M652.5,770.3H515.8c-6.3,0-11.5-5.2-11.5-11.5v-4.6
				c0-6.3,5.2-11.5,11.5-11.5h136.7c6.3,0,11.5,5.2,11.5,11.5v4.6C664,765.2,658.8,770.3,652.5,770.3z"/>
		</g>
		<g>
			<defs>
				<rect id="SVGID_71_" y="107.4" width="1521.6" height="975.2"/>
			</defs>
			<clipPath id="SVGID_72_">
				<use xlink:href="#SVGID_71_"  style="overflow:visible;"/>
			</clipPath>
			<path style="clip-path:url(#SVGID_72_);fill:#76BF28;" d="M1508.8,731.9H1204c-6.3,0-11.5-5.2-11.5-11.5v-4.6
				c0-6.3,5.2-11.5,11.5-11.5h304.8c6.3,0,11.5,5.2,11.5,11.5v4.6C1520.3,726.7,1515.2,731.9,1508.8,731.9z"/>
		</g>
		<g>
			<defs>
				<rect id="SVGID_73_" y="107.4" width="1521.6" height="975.2"/>
			</defs>
			<clipPath id="SVGID_74_">
				<use xlink:href="#SVGID_73_"  style="overflow:visible;"/>
			</clipPath>
			<path style="clip-path:url(#SVGID_74_);fill:#76BF28;" d="M1147.2,730.7H936.7c-6.3,0-11.5-5.2-11.5-11.5v-4.6
				c0-6.3,5.2-11.5,11.5-11.5h210.4c6.3,0,11.5,5.2,11.5,11.5v4.6C1158.7,725.5,1153.5,730.7,1147.2,730.7z"/>
		</g>
		<g>
			<defs>
				<rect id="SVGID_75_" y="107.4" width="1521.6" height="975.2"/>
			</defs>
			<clipPath id="SVGID_76_">
				<use xlink:href="#SVGID_75_"  style="overflow:visible;"/>
			</clipPath>
			<path style="clip-path:url(#SVGID_76_);fill:#76BF28;" d="M893.2,729.5H863c-6.3,0-11.5-5.2-11.5-11.5v-4.6
				c0-6.3,5.2-11.5,11.5-11.5h30.2c6.3,0,11.5,5.2,11.5,11.5v4.6C904.7,724.3,899.5,729.5,893.2,729.5z"/>
		</g>
		<g>
			<defs>
				<rect id="SVGID_77_" y="107.4" width="1521.6" height="975.2"/>
			</defs>
			<clipPath id="SVGID_78_">
				<use xlink:href="#SVGID_77_"  style="overflow:visible;"/>
			</clipPath>
			<path style="clip-path:url(#SVGID_78_);fill:#76BF28;" d="M722.6,769.1h-30.2c-6.3,0-11.5-5.2-11.5-11.5V753
				c0-6.3,5.2-11.5,11.5-11.5h30.2c6.3,0,11.5,5.2,11.5,11.5v4.6C734.1,764,729,769.1,722.6,769.1z"/>
		</g>
		<g>
			<defs>
				<rect id="SVGID_79_" y="107.4" width="1521.6" height="975.2"/>
			</defs>
			<clipPath id="SVGID_80_">
				<use xlink:href="#SVGID_79_"  style="overflow:visible;"/>
			</clipPath>
			<path style="clip-path:url(#SVGID_80_);fill:#76BF28;" d="M290.8,703.1h-30.2c-6.3,0-11.5-5.2-11.5-11.5V687
				c0-6.3,5.2-11.5,11.5-11.5h30.2c6.3,0,11.5,5.2,11.5,11.5v4.6C302.3,697.9,297.2,703.1,290.8,703.1z"/>
		</g>
		<g>
			<defs>
				<rect id="SVGID_81_" y="107.4" width="1521.6" height="975.2"/>
			</defs>
			<clipPath id="SVGID_82_">
				<use xlink:href="#SVGID_81_"  style="overflow:visible;"/>
			</clipPath>
			<path style="clip-path:url(#SVGID_82_);fill:#76BF28;" d="M1240.3,769.1h-30.2c-6.3,0-11.5-5.2-11.5-11.5V753
				c0-6.3,5.2-11.5,11.5-11.5h30.2c6.3,0,11.5,5.2,11.5,11.5v4.6C1251.8,764,1246.6,769.1,1240.3,769.1z"/>
		</g>
		<g>
			<defs>
				<rect id="SVGID_83_" y="107.4" width="1521.6" height="975.2"/>
			</defs>
			<clipPath id="SVGID_84_">
				<use xlink:href="#SVGID_83_"  style="overflow:visible;"/>
			</clipPath>
			<path style="clip-path:url(#SVGID_84_);fill:#76BF28;" d="M1502.8,691.1h-30.2c-6.3,0-11.5-5.2-11.5-11.5V675
				c0-6.3,5.2-11.5,11.5-11.5h30.2c6.3,0,11.5,5.2,11.5,11.5v4.6C1514.3,685.9,1509.1,691.1,1502.8,691.1z"/>
		</g>
	</g>
	<g>
		<path style="fill:#3282FF;" d="M1167.1,271.2c5.3,9.6,14.4,12.7,20.1,22.1c22.7,37.4,12.1,88.9,31.3,130.9
			c8.6,19,24.7,34.5,38.4,51.1c83.3,101.7,75.2,248.8,170.8,341.4c2.9,2.7,12,12,23,25.6c19.9,24.5,29.9,43.9,47.4,78.7
			c0,0,8.6,17.1,23.5,68.8c0.2,0.9,0.7,2.6,0.8,4.8v0.9c0,1.1-0.2,2.3-0.5,3.5c-1,3.8-3.2,6.1-3.8,6.8c-3,3.4-6.2,11.8-7.1,33.4
			c2.3,7.3,4,16.4,3.5,26.7c-0.2,4.2-0.5,9.8-2.4,16.1h-142.6c-1.3-12.9,1.6-16.8,4.5-18c3.5-1.4,6.5,1.5,14.2,2.2
			c8.6,0.8,15.1-2,22.7-5.2c7.9-3.4,16.1-6.8,21.1-14.5c3.1-4.7,1.2-5.3,4.8-20.6c3.4-14.4,5.5-16.2,4.7-23
			c-0.7-6.8-3.1-7.7-5.9-16.3c-3.4-10.9-0.5-12.5-2.2-27.9c-1.4-13.3-3.7-13.7-6.2-31.4c-1.4-9.9-1-11.6-1.9-19.7
			c-1.9-15.8-5.9-27.7-9.1-37.3c-10.4-31-28.4-58.5-35.6-69.2c-41.9-66.7-56.6-116-62-149.5c-3-18.5-9.6-72.6-50-129.2
			c-20.3-26.9-35.4-43.4-46.9-58.1s-19.4-27.7-25.2-47.7c-10.3-35.8,0.8-74.6-14.6-108.8c-5.6-12.4-18.7-28.9-20.1-31.2
			c-15.7-22.1-30.8-38.3-49.2-53.3l304.9-12.1c-0.5,0.4-8.1,10.8-8.5,17.3c-0.4,6.8,4.6,13.2,9.5,18.5c12,13.1,25.9,24.8,41.3,34.7
			c17.2,11.1,37,20.8,47.1,37.3c7.1,11.4,8.6,24.8,10.7,37.6c1.4,8.7,3.1,17.3,5.1,25.8V487c-7.4-20.7-13.7-41.8-19.5-62.8
			c-8.3-29.7-15.6-59.6-22.2-89.7c-1.6-7-3-14-6.8-20.2c-4-6.5-10.2-11.7-16.3-16.8c-22.3-18.5-44.5-36.9-66.8-55.5
			c-3.5-2.8-7-5.7-11-7.6c-15.5-7.1-32.9,1.8-49.2,6c-30.9,8-65.3-1.5-97,3.9c-21.7,3.7-42.1,8.9-64.9,5.4
			C1157.1,251.4,1161.8,261.7,1167.1,271.2z"/>
	</g>
	<g>
		<path style="fill:#3282FF;" d="M1106,1080.1c-12.7-31.2-25.9-55.6-36.2-72.8c-24.7-41.2-33.6-42.6-73.4-95.8
			c0,0-18.4-24.5-38.4-39.3c-9.1-6.8-16.1-10.5-20.5-13c-28.9-16.5-49.5-40.5-65-58.5c-32.4-37.6-23.9-44.4-61.2-90.9
			c-11.2-14-20.5-29.7-31.5-43.8c-7.9-10-18-19.3-18.5-33c-0.2-9-0.6-17.6,2.6-25.7c8.5-21.7,17.6-44.3,33.6-59.2
			c6.8-6.4,15.1-11.6,19.6-20.5c8.8-17.7-2.9-41.6-19-49.6c-16.1-7.9-34.3-4.5-51.3-1.1c-28.8,5.9-57.7,11.8-86.5,17.7
			c-5.6,1.2-12.8,1.4-15.4-4.5c-1.4-3.3-0.7-7.4,0.1-11.1c7.1-30.4,20.4-58.9,38.6-82.2c4.3-5.6,9.2-11.2,10.8-18.6
			c5-23.2-21.8-37.4-16.6-60.5c0.2-1.2,3.8-7.2,10.8-19.2c9.1-15.5,13.8-23.6,20.4-33.2c5.6-8.2,13.9-12.3,25.2-24.8
			c-8.8,0.4-17.6,3.5-26.4,3.9c-3.8,11.3-9.8,15.5-19.2,30.5c-12.8,20.4-27.4,34.7-38.6,44.2c-14-2-30.7,0.7-44.7,3
			c-7.7,1.3-16.2,3.8-23.8,0.7c-6.1-2.5-8.9-10-7.3-18.5c-4.6,4.4-14.5,11.9-19.1,14.6c-6.6,3.8-27.7,3-31.4,3.3
			c-3,0.4,1-8.4,5.5-13c4.8-4.9-18.2,7.2-20.6,8.4c-7,3.7-16.6,1-24,0.4c-11.8-1-26.8,3.9-34.8,0.4c10.9,5.9,39,5,50.3,10.7
			c46.9,23.8,93.7,2,141.1,12.2c9.1,1.9,18.6,5.7,23.3,15.3c6.7,13.6,5.6,30.8-3.4,42.4c-12.8,16.6-30.2,27.7-42.7,44.7
			c-12.6,17-19.2,43.9-7.2,61.4c9,13,25,15.8,39.2,14.6c44.9-4.1,89.1-38.3,132-22.1c1.2,17.9-10.7,33.6-23.6,43
			s-27.8,15.3-39.6,26.7c-10.6,10.4-17.9,24.6-27.8,35.8c-12.1,13.6-27.6,22.1-42.7,30.1c-22.6,11.9-45.5,23.5-69.5,30.4
			c-26.3,7.6-53.5,9.4-80.4,14.1c-59.5,10.4-116.6,34.7-171.5,63.5c29.2-8.6,58.3-17.2,87.5-25.9c21.7-6.4,43.5-12.9,65.7-15
			c20.4-2,40.9-0.4,61.3-1.8c36-2.5,75.1-14.4,106.9-34.9c19.4-12.5,38-28.7,56.4-15.3c16.4,11.9,15.5,44.1,3.4,61.9
			c-12.1,17.8-30.1,18.4-45.8,31.5c-28.7,23.9-66,29.1-95,35.1c-17.4,3.6-27.7,4.4-45,8.8c-13.4,3.6-26.5,5.5-39.6,10.6
			c-24.5,9.6-52.7,19.2-75.2,33.8c-12.5,8.1-24.2,13.5-36,23c-27,22.1-49.5,51.9-82.8,71.4c-7,4.1-11.4,7.4-15.1,10.9
			c0,0-9.5,8.4-17.8,20.8c-9.7,14.6-30,60.5-51.3,125.1c62.1,0.4,124.4,0.8,186.5,1.2c-32.9-32.4-42.7-47.6-43.7-54.9
			c-0.1-1-0.6-5.7-2.2-11.9c-1.2-5.1-2.3-7.3-4.3-14.3c0,0-1.6-5.5-3.1-11.6c-2.4-10-1.2-34.4,13.8-58.7
			c9.6-15.4,19.9-24.8,32.3-36.8c12.5-11.9,24.5-26.2,39.2-35.3c14.8-9.1,32.1-12.9,47.9-16.7c11.2-2.6,22.4-9.4,33.6-12.1
			c13.7-3.2,27.1-9.3,40.4-14.3c21-7.9,43.3-13.1,65-21.3c18.6-7,36.6-16.4,52.5-28.1c22.1-16,35-18.7,60.9-28.2
			c2.8-1.1,2.6-0.4,5-0.7c20-3.7,22.8-13,30.1-12.1c13,1.6,12.6,31,37.9,53.6c2.6,2.4,3.1,2.4,5.8,4.9c10.8,10.5,13.2,19,23.5,37
			c7.4,13.3,16.7,25.6,35.1,50.2c32.9,43.8,55.5,57.1,77.9,83.6c20.2,23.9,44.5,62.5,55.4,126.6L1106,1080.1z"/>
	</g>
	<g>
		<path style="fill:#3282FF;" d="M86.9,400.8c1.7-1.4,4.1-3.7,6.3-7c2.5-3.8,3.6-7,4.1-8.4c2.8-7.6,7.4-10.6,24-34.5
			c4.4-6.4,4.4-6.4,8.9-15.5l-12.3-4.4c-3.2,11.8-7.8,18.8-15.2,27.2c-4.8,5.5-9.6,10.9-14.5,16.3c-3.2,3.7-6.6,7.4-8.9,12
			c-8.1,16.3-5.6,35.9-3.7,47c2.9,17,6.5,15.9,7.5,30c1.2,15.3-3.2,15.1-2.2,33.3c0.5,8.1,2.3,16.4,1.9,31.1
			c-0.1,3.9-0.2,7.8-1.1,11.5c-1.3,6.1-4.2,11.3-7.2,16.4c-6.3,10.8-13.3,21.2-20.8,31l1.6-3.1c-9,10.3-18.1,20.8-28.7,28.6
			c-13.5,10-12.3,5.8-26.6,14.7v161.7c10.2-9.9,15.3-23.4,18.7-38.4c2.3-9.7,2.8-19.7,3.5-29.8c1.1-13.9,2.6-27.7,4.7-41.4
			c1.2-8.3,5.4-12.4,6-21.8c0.6-8.8-1.4-10.8-0.7-17c1-8.3,5.9-14.7,17.9-25.8c18.8-17.2,22-15.5,29.7-23.9
			c14.6-16,16.9-38,18.9-56.7c0.5-5,1.6-17-2.6-53.6C94,464.1,91,442,86,415.7C86.3,410.8,86.7,405.8,86.9,400.8z"/>
	</g>
	<path style="fill:#70B526;" d="M828.5,914.6H413.6c-6.3,0-11.5-5.2-11.5-11.5v-4.6c0-6.3,5.2-11.5,11.5-11.5h414.8
		c6.3,0,11.5,5.2,11.5,11.5v4.6C840,909.5,834.8,914.6,828.5,914.6z"/>
	<path style="fill:#70B526;" d="M236.6,886.8h-225c-6.3,0-11.5-5.2-11.5-11.5v-4.6c0-6.3,5.2-11.5,11.5-11.5h225
		c6.3,0,11.5,5.2,11.5,11.5v4.6C248.1,881.6,242.9,886.8,236.6,886.8z"/>
	<path style="fill:#76BF28;" d="M83.5,660.1H57.9c-7.6,0-13.8-6.2-13.8-13.8l0,0c0-7.6,6.2-13.8,13.8-13.8h25.6
		c7.6,0,13.8,6.2,13.8,13.8l0,0C97.3,653.9,91.1,660.1,83.5,660.1z"/>
	<path style="fill:#76BF28;" d="M1185.9,688.5h-25.6c-7.6,0-13.8-6.2-13.8-13.8l0,0c0-7.6,6.2-13.8,13.8-13.8h25.6
		c7.6,0,13.8,6.2,13.8,13.8l0,0C1199.7,682.3,1193.5,688.5,1185.9,688.5z"/>
	<path style="fill:#61A814;" d="M312.1,573.8H197.2c-6.3,0-11.5-5.2-11.5-11.5v-4.6c0-6.3,5.2-11.5,11.5-11.5h114.9
		c6.3,0,11.5,5.2,11.5,11.5v4.6C323.6,568.6,318.4,573.8,312.1,573.8z"/>
</g>
</svg>
