<?xml version="1.0" encoding="utf-8"?>
<!-- Generator: Adobe Illustrator 23.0.3, SVG Export Plug-In . SVG Version: 6.00 Build 0)  -->
<svg version="1.1" xmlns="http://www.w3.org/2000/svg" xmlns:xlink="http://www.w3.org/1999/xlink" x="0px" y="0px"
	 viewBox="0 0 1920 1080" style="enable-background:new 0 0 1920 1080;" xml:space="preserve">
<style type="text/css">
	.RTAtram_st0{fill:#666666;}
	.RTAtram_st1{fill:#808080;}
	.RTAtram_st2{fill:none;}
	.RTAtram_st3{fill:#B3B3B3;}
	.RTAtram_st4{fill:#063485;}
	.RTAtram_st5{fill:#F14929;}
	.RTAtram_st6{fill:#97B4BB;}
</style>
<g id="Layer_1">
</g>
<g id="Layer_3">
</g>
<g id="transport">
	<g>
		<path class="RTAtram_st0" d="M440.9,415.2c-6.2,0-12.2,0.3-18.2,1v-1H440.9z"/>
		<path class="RTAtram_st0" d="M1520.8,415.2h-1080c-6.2,0-12.2,0.3-18.2,1c-6.5,0.7-13,1.8-19.3,3.2c21.6,8.7,37,29.9,37,54.5v146.8
			c0,32.3-26.4,58.7-58.7,58.7H269v18.7c0,13.4,3.9,25.9,10.5,36.5c2-0.9,4.3-1.4,6.7-1.4h1301.7c1,0,2,0.1,2.9,0.2
			c4.2-5.9,7.5-12.6,9.9-19.5c0-0.1,0.1-0.2,0.1-0.3h-406.9v-88.1H1605V499.4C1605,452.9,1567.3,415.2,1520.8,415.2z M538.2,713.7
			h-44.1v-88.1h44.1V713.7z M1017.8,713.7H665.4v-88.1h352.4V713.7z M1066.7,713.7h-39.1v-88.1h39.1V713.7z"/>
		<rect x="484.3" y="415.2" width="9.8" height="318.1"/>
		<rect x="1017.8" y="415.2" width="9.8" height="318.1"/>
		<rect x="851.4" y="483.7" width="132.1" height="127.2"/>
		<path d="M440.3,473.9v146.8c0,32.3-26.4,58.7-58.7,58.7H269v-92.4c0-81.6,57.7-150.5,134.3-167.7
			C424.9,428.1,440.3,449.3,440.3,473.9z"/>
		<path d="M1590.8,733.5c-14.3,20.6-38.2,34-65.1,34H338.4c-24.8,0-46.7-13.2-58.9-32.9c2.1-0.9,4.3-1.4,6.7-1.4h1301.7
			C1588.9,733.3,1589.8,733.4,1590.8,733.5z"/>
		<path d="M464.8,760.2c0,17.6-14.2,31.8-31.8,31.8c-17.6,0-31.8-14.2-31.8-31.8H464.8z"/>
		<path d="M396.2,760.2c0,17.6-14.2,31.8-31.8,31.8c-17.6,0-31.8-14.2-31.8-31.8H396.2z"/>
		<path d="M665.4,765.1c0,17.6-14.2,31.8-31.8,31.8c-17.6,0-31.8-14.2-31.8-31.8H665.4z"/>
		<path d="M733.9,765.1c0,17.6-14.2,31.8-31.8,31.8c-17.6,0-31.8-14.2-31.8-31.8H733.9z"/>
		<path d="M910.1,765.1c0,17.6-14.2,31.8-31.8,31.8s-31.8-14.2-31.8-31.8H910.1z"/>
		<path d="M978.6,765.1c0,17.6-14.2,31.8-31.8,31.8S915,782.7,915,765.1H978.6z"/>
		<path d="M1154.8,765.1c0,17.6-14.2,31.8-31.8,31.8s-31.8-14.2-31.8-31.8H1154.8z"/>
		<path d="M1223.3,765.1c0,17.6-14.2,31.8-31.8,31.8s-31.8-14.2-31.8-31.8H1223.3z"/>
		<path d="M1448.4,765.1c0,17.6-14.2,31.8-31.8,31.8c-17.6,0-31.8-14.2-31.8-31.8H1448.4z"/>
		<path d="M1516.9,765.1c0,17.6-14.2,31.8-31.8,31.8c-17.6,0-31.8-14.2-31.8-31.8H1516.9z"/>
		<rect x="704.5" y="483.7" width="132.1" height="127.2"/>
		<path class="RTAtram_st1" d="M665.4,531.5v201.8H538.2V531.5c0-6.5,1.3-12.7,3.7-18.4c7.3-17.2,24.3-29.3,44.1-29.3h31.7
			c19.8,0,36.8,12.1,44.1,29.3C664.1,518.7,665.4,525,665.4,531.5z"/>
		<path d="M592.4,679.5h-35c-2.5,0-4.5-2-4.5-4.5V512.7c0-2.5,2-4.5,4.5-4.5h35c2.5,0,4.5,2,4.5,4.5V675
			C596.9,677.4,594.9,679.5,592.4,679.5z"/>
		<path d="M646.2,679.5h-35c-2.5,0-4.5-2-4.5-4.5V512.7c0-2.5,2-4.5,4.5-4.5h35c2.5,0,4.5,2,4.5,4.5V675
			C650.7,677.4,648.7,679.5,646.2,679.5z"/>
		<rect x="1394.6" y="478.8" width="132.1" height="127.2"/>
		<rect x="1247.8" y="478.8" width="132.1" height="127.2"/>
		<path class="RTAtram_st1" d="M1208.6,526.6"/>
		<line class="RTAtram_st2" x1="1129.1" y1="478.8" x2="1160.9" y2="478.8"/>
		<path class="RTAtram_st1" d="M1193.9,531.5v201.8h-127.3V531.5c0-8.4,2.3-16.4,6.1-23.3c8.2-14.6,23.8-24.4,41.6-24.4h31.7
			c17.8,0,33.4,9.9,41.6,24.4C1191.7,515.1,1193.9,523,1193.9,531.5z"/>
		<path d="M1120.9,679.5h-35c-2.5,0-4.5-2-4.5-4.5V512.7c0-2.5,2-4.5,4.5-4.5h35c2.5,0,4.5,2,4.5,4.5V675
			C1125.4,677.4,1123.4,679.5,1120.9,679.5z"/>
		<path d="M1174.7,679.5h-35c-2.5,0-4.5-2-4.5-4.5V512.7c0-2.5,2-4.5,4.5-4.5h35c2.5,0,4.5,2,4.5,4.5V675
			C1179.2,677.4,1177.2,679.5,1174.7,679.5z"/>
		<path class="RTAtram_st3" d="M674.4,513.1H528.6c-0.2,0-0.3-0.1-0.3-0.3v-32.9c0-3.3,2.7-6,6-6h134.3c3.6,0,6.6,3,6.6,6.6v31.8
			C675.2,512.7,674.8,513.1,674.4,513.1z"/>
		<path class="RTAtram_st3" d="M1202.9,508.2h-145.7c-0.2,0-0.3-0.1-0.3-0.3V475c0-3.3,2.7-6,6-6h134.3c3.6,0,6.6,3,6.6,6.6v31.8
			C1203.7,507.8,1203.3,508.2,1202.9,508.2z"/>
		<rect x="494.1" y="624.8" class="RTAtram_st4" width="44.1" height="24.1"/>
		<rect x="665.4" y="624.8" class="RTAtram_st4" width="352.4" height="24.1"/>
		<rect x="1027.6" y="624.8" class="RTAtram_st4" width="39.1" height="24.1"/>
		<rect x="1193.9" y="624.8" class="RTAtram_st4" width="411.1" height="24.1"/>
		<rect x="494.1" y="685" class="RTAtram_st5" width="44.1" height="29"/>
		<rect x="665.4" y="685" class="RTAtram_st5" width="352.4" height="29"/>
		<rect x="1027.6" y="685" class="RTAtram_st5" width="39.1" height="29"/>
		<path class="RTAtram_st5" d="M1605,685v2.2c0,9.4-1.5,18.4-4.2,26.8h-406.9v-29H1605z"/>
		<path class="RTAtram_st3" d="M1605,688.2v25.5h-4.2C1603.5,705.7,1605,697.1,1605,688.2z"/>
		<path class="RTAtram_st0" d="M664.6,415.2H518.9c-0.2,0-0.3-0.1-0.3-0.3V382c0-3.3,2.7-6,6-6h134.3c3.6,0,6.6,3,6.6,6.6v31.8
			C665.4,414.8,665,415.2,664.6,415.2z"/>
		<rect x="494.1" y="648.9" class="RTAtram_st0" width="44.1" height="36.1"/>
		<rect x="493.7" y="648.9" class="RTAtram_st0" width="0.4" height="36.1"/>
		<rect x="665.4" y="648.9" class="RTAtram_st0" width="352.4" height="36.1"/>
		<rect x="1027.6" y="648.9" class="RTAtram_st0" width="39.1" height="36.1"/>
		<rect x="1193.9" y="648.9" class="RTAtram_st0" width="411.1" height="36.1"/>
	</g>
</g>
<g id="buildings">
	<path class="RTAtram_st0" d="M1479-558h0.7c-0.4,2.6-0.7,5.3-0.7,8V-558z"/>
	<path class="RTAtram_st6" d="M1607-558v8c0-2.7-0.2-5.4-0.7-8H1607z"/>
	<path class="RTAtram_st6" d="M1645-558h0.7c-0.4,2.6-0.7,5.3-0.7,8V-558z"/>
	<path class="RTAtram_st6" d="M1773-558v8c0-2.7-0.2-5.4-0.7-8H1773z"/>
	<path class="RTAtram_st6" d="M1813.7-527.5c-0.3,1.6-0.6,3.3-0.6,5c0,0.4,0,0.8,0,1.1v-6.1H1813.7z"/>
	<path class="RTAtram_st6" d="M1941-527.5v6.1c0-2.1-0.2-4.1-0.7-6.1H1941z"/>
	<path class="RTAtram_st6" d="M1773-550c0-2.7-0.2-5.4-0.7-8h0.7V-550z"/>
</g>
<g id="bridge">
</g>
</svg>
