<?xml version="1.0" encoding="utf-8"?>
<!-- Generator: Adobe Illustrator 23.0.4, SVG Export Plug-In . SVG Version: 6.00 Build 0)  -->
<svg version="1.1" id="Layer_1" xmlns="http://www.w3.org/2000/svg" xmlns:xlink="http://www.w3.org/1999/xlink" x="0px" y="0px"
	 viewBox="0 0 1336 420.9" style="enable-background:new 0 0 1336 420.9;" xml:space="preserve">

<g id="transport">
	<path style="fill:#666666;" d="M171.9,39.2c-6.2,0-12.2,0.3-18.2,1v-1H171.9z"/>
	<path style="fill:#666666;" d="M1251.8,39.2h-1080c-6.2,0-12.2,0.3-18.2,1c-6.5,0.7-13,1.8-19.3,3.2c21.6,8.7,37,29.9,37,54.5
		v146.8c0,32.3-26.4,58.7-58.7,58.7H0v18.7c0,13.4,3.9,25.9,10.5,36.5c2-0.9,4.3-1.4,6.7-1.4h1301.7c1,0,2,0.1,2.9,0.2
		c4.2-5.9,7.5-12.6,9.9-19.5c0-0.1,0.1-0.2,0.1-0.3H924.9v-88.1H1336V123.4C1336,76.9,1298.3,39.2,1251.8,39.2z M269.2,337.7h-44.1
		v-88.1h44.1V337.7z M748.8,337.7H396.4v-88.1h352.4L748.8,337.7L748.8,337.7z M797.7,337.7h-39.1v-88.1h39.1V337.7z"/>
	<rect x="215.3" y="39.2" width="9.8" height="318.1"/>
	<rect x="748.8" y="39.2" width="9.8" height="318.1"/>
	<rect x="582.4" y="107.7" width="132.1" height="127.2"/>
	<path d="M171.3,97.9v146.8c0,32.3-26.4,58.7-58.7,58.7H0V211C0,129.4,57.7,60.5,134.3,43.3C155.9,52.1,171.3,73.3,171.3,97.9z"/>
	<path d="M1321.8,357.5c-14.3,20.6-38.2,34-65.1,34H69.4c-24.8,0-46.7-13.2-58.9-32.9c2.1-0.9,4.3-1.4,6.7-1.4h1301.7
		C1319.9,357.3,1320.8,357.4,1321.8,357.5z"/>
	<path d="M195.8,384.2c0,17.6-14.2,31.8-31.8,31.8c-17.6,0-31.8-14.2-31.8-31.8H195.8z"/>
	<path d="M127.2,384.2c0,17.6-14.2,31.8-31.8,31.8c-17.6,0-31.8-14.2-31.8-31.8H127.2z"/>
	<path d="M396.4,389.1c0,17.6-14.2,31.8-31.8,31.8s-31.8-14.2-31.8-31.8H396.4z"/>
	<path d="M464.9,389.1c0,17.6-14.2,31.8-31.8,31.8s-31.8-14.2-31.8-31.8H464.9z"/>
	<path d="M641.1,389.1c0,17.6-14.2,31.8-31.8,31.8s-31.8-14.2-31.8-31.8H641.1z"/>
	<path d="M709.6,389.1c0,17.6-14.2,31.8-31.8,31.8S646,406.7,646,389.1H709.6z"/>
	<path d="M885.8,389.1c0,17.6-14.2,31.8-31.8,31.8s-31.8-14.2-31.8-31.8H885.8z"/>
	<path d="M954.3,389.1c0,17.6-14.2,31.8-31.8,31.8s-31.8-14.2-31.8-31.8H954.3z"/>
	<path d="M1179.4,389.1c0,17.6-14.2,31.8-31.8,31.8c-17.6,0-31.8-14.2-31.8-31.8H1179.4z"/>
	<path d="M1247.9,389.1c0,17.6-14.2,31.8-31.8,31.8c-17.6,0-31.8-14.2-31.8-31.8H1247.9z"/>
	<rect x="435.5" y="107.7" width="132.1" height="127.2"/>
	<path style="fill:#808080;" d="M396.4,155.5v201.8H269.2V155.5c0-6.5,1.3-12.7,3.7-18.4c7.3-17.2,24.3-29.3,44.1-29.3h31.7
		c19.8,0,36.8,12.1,44.1,29.3C395.1,142.7,396.4,149,396.4,155.5z"/>
	<path d="M323.4,303.5h-35c-2.5,0-4.5-2-4.5-4.5V136.7c0-2.5,2-4.5,4.5-4.5h35c2.5,0,4.5,2,4.5,4.5V299
		C327.9,301.4,325.9,303.5,323.4,303.5z"/>
	<path d="M377.2,303.5h-35c-2.5,0-4.5-2-4.5-4.5V136.7c0-2.5,2-4.5,4.5-4.5h35c2.5,0,4.5,2,4.5,4.5V299
		C381.7,301.4,379.7,303.5,377.2,303.5z"/>
	<rect x="1125.6" y="102.8" width="132.1" height="127.2"/>
	<rect x="978.8" y="102.8" width="132.1" height="127.2"/>
	<path style="fill:#808080;" d="M939.6,150.6"/>
	<line style="fill:none;" x1="860.1" y1="102.8" x2="891.9" y2="102.8"/>
	<path style="fill:#808080;" d="M924.9,155.5v201.8H797.6V155.5c0-8.4,2.3-16.4,6.1-23.3c8.2-14.6,23.8-24.4,41.6-24.4H877
		c17.8,0,33.4,9.9,41.6,24.4C922.7,139.1,924.9,147,924.9,155.5z"/>
	<path d="M851.9,303.5h-35c-2.5,0-4.5-2-4.5-4.5V136.7c0-2.5,2-4.5,4.5-4.5h35c2.5,0,4.5,2,4.5,4.5V299
		C856.4,301.4,854.4,303.5,851.9,303.5z"/>
	<path d="M905.7,303.5h-35c-2.5,0-4.5-2-4.5-4.5V136.7c0-2.5,2-4.5,4.5-4.5h35c2.5,0,4.5,2,4.5,4.5V299
		C910.2,301.4,908.2,303.5,905.7,303.5z"/>
	<path style="fill:#B3B3B3;" d="M405.4,137.1H259.6c-0.2,0-0.3-0.1-0.3-0.3v-32.9c0-3.3,2.7-6,6-6h134.3c3.6,0,6.6,3,6.6,6.6v31.8
		C406.2,136.7,405.8,137.1,405.4,137.1z"/>
	<path style="fill:#B3B3B3;" d="M933.9,132.2H788.2c-0.2,0-0.3-0.1-0.3-0.3V99c0-3.3,2.7-6,6-6h134.3c3.6,0,6.6,3,6.6,6.6v31.8
		C934.7,131.8,934.3,132.2,933.9,132.2z"/>
	<rect x="225.1" y="248.8" style="fill:#063485;" width="44.1" height="24.1"/>
	<rect x="396.4" y="248.8" style="fill:#063485;" width="352.4" height="24.1"/>
	<rect x="758.6" y="248.8" style="fill:#063485;" width="39.1" height="24.1"/>
	<rect x="924.9" y="248.8" style="fill:#063485;" width="411.1" height="24.1"/>
	<rect x="225.1" y="309" style="fill:#F14929;" width="44.1" height="29"/>
	<rect x="396.4" y="309" style="fill:#F14929;" width="352.4" height="29"/>
	<rect x="758.6" y="309" style="fill:#F14929;" width="39.1" height="29"/>
	<path style="fill:#F14929;" d="M1336,309v2.2c0,9.4-1.5,18.4-4.2,26.8H924.9v-29H1336z"/>
	<path style="fill:#B3B3B3;" d="M1331.8,337.7c2.7-8,4.2-16.6,4.2-25.5"/>
	<path style="fill:#666666;" d="M395.6,39.2H249.9c-0.2,0-0.3-0.1-0.3-0.3V6c0-3.3,2.7-6,6-6h134.3c3.6,0,6.6,3,6.6,6.6v31.8
		C396.4,38.8,396,39.2,395.6,39.2z"/>
	<rect x="225.1" y="272.9" style="fill:#666666;" width="44.1" height="36.1"/>
	<rect x="224.7" y="272.9" style="fill:#666666;" width="0.4" height="36.1"/>
	<rect x="396.4" y="272.9" style="fill:#666666;" width="352.4" height="36.1"/>
	<rect x="758.6" y="272.9" style="fill:#666666;" width="39.1" height="36.1"/>
	<rect x="924.9" y="272.9" style="fill:#666666;" width="411.1" height="36.1"/>
</g>
</svg>
