<?xml version="1.0" encoding="utf-8"?>
<!-- Generator: Adobe Illustrator 23.0.4, SVG Export Plug-In . SVG Version: 6.00 Build 0)  -->
<svg version="1.1" id="Layer_1" xmlns="http://www.w3.org/2000/svg" xmlns:xlink="http://www.w3.org/1999/xlink" x="0px" y="0px"
	 viewBox="0 0 637.8 117.4" style="enable-background:new 0 0 637.8 117.4;" xml:space="preserve">
<style type="text/css">
	.st0{fill:#FFFFFF;stroke:#000000;stroke-width:2;stroke-miterlimit:10;}
</style>
<g>
	<path class="st0" d="M5.5,45.2c1.7-14.4,23.4-16.9,33.6-9.1c5,4.1-0.3,10.5-4.7,7.3c-5.5-3.5-17.9-5.1-19.5,2.6
		c-2,12.1,30.2,5.2,29.7,24.9C44.1,89.6,16.8,90,6.6,81.6c-2.4-2-2.4-5.3-1-7.3c1.9-1.9,4.1-2.6,6.6-0.5c6.1,4.1,21.7,7.3,22.8-3.3
		C34,59.6,3.2,66.2,5.5,45.2z"/>
	<path class="st0" d="M51.3,59.3c0-14.3,9-26.6,26-26.6c6.4,0,11.5,1.9,16.9,6.6c2,1.9,2.2,5.1,0.2,7.2c-2,1.8-5,1.6-6.8-0.2
		c-3-3.2-6.1-4.1-10.4-4.1c-11.4,0-16.9,8.1-16.9,17.1c0,9.2,5.4,17.6,16.9,17.6c4.2,0,8.1-1.7,11.5-4.7c2.3-1.8,5.5-0.9,6.8,0.9
		c1.2,1.6,1.8,4.4-0.8,7c-5.2,4.8-11.4,5.8-17.5,5.8C59.3,85.8,51.3,73.6,51.3,59.3z"/>
	<path class="st0" d="M105.7,38.5c0-6.1,9.8-6.3,9.8,0v42.3c0,6.1-9.8,6.3-9.8,0V38.5z"/>
	<path class="st0" d="M131,85.3c-2.6,0-4.6-2-4.6-4.6v-42c0-2.7,2-4.6,4.6-4.6h26.6c6.8,0,6.7,9.6,0,9.6h-21.3v11.1h18.6
		c6.6,0,6.6,9.7,0,9.7h-18.6v11.1h22.6c6.7,0,7.3,9.7,0,9.7H131z"/>
	<path class="st0" d="M172,39.2c0-2.7,0.6-5.3,4.4-5.3c2.7,0,3.3,0.7,5.3,2.6l24.5,30.6V38.5c0-2.4,2.1-5.1,4.7-5.1
		c2.7,0,5.3,2.7,5.3,5.1v41.7c0,3.3-2,4.5-3.9,5.1c-2.6,0-3.8-0.6-6-2.6l-24.5-31.1v28.6c0,3.3-2,5.1-4.7,5.1s-5-1.9-5-5.1V39.2z"/>
	<path class="st0" d="M224.6,59.3c0-14.3,9-26.6,26-26.6c6.4,0,11.5,1.9,16.9,6.6c2,1.9,2.2,5.1,0.2,7.2c-2,1.8-5,1.6-6.8-0.2
		c-3-3.2-6.1-4.1-10.4-4.1c-11.4,0-16.9,8.1-16.9,17.1c0,9.2,5.4,17.6,16.9,17.6c4.2,0,8.1-1.7,11.5-4.7c2.3-1.8,5.5-0.9,6.8,0.9
		c1.2,1.6,1.8,4.4-0.8,7c-5.2,4.8-11.4,5.8-17.5,5.8C232.6,85.8,224.6,73.6,224.6,59.3z"/>
	<path class="st0" d="M283,85.3c-2.6,0-4.6-2-4.6-4.6v-42c0-2.7,2-4.6,4.6-4.6h26.6c6.8,0,6.7,9.6,0,9.6h-21.3v11.1h18.6
		c6.6,0,6.6,9.7,0,9.7h-18.6v11.1h22.6c6.7,0,7.3,9.7,0,9.7H283z"/>
	<path class="st0" d="M343.8,59.3c0-14.3,9-26.6,26-26.6c6.4,0,11.5,1.9,16.9,6.6c2,1.9,2.2,5.1,0.2,7.2c-2,1.8-5,1.6-6.8-0.2
		c-3-3.2-6.1-4.1-10.4-4.1c-11.4,0-16.9,8.1-16.9,17.1c0,9.2,5.4,17.6,16.9,17.6c4.2,0,8.1-1.7,11.5-4.7c2.3-1.8,5.5-0.9,6.8,0.9
		c1.2,1.6,1.8,4.4-0.8,7c-5.2,4.8-11.4,5.8-17.5,5.8C351.8,85.8,343.8,73.6,343.8,59.3z"/>
	<path class="st0" d="M402.2,85.3c-2.6,0-4.6-2-4.6-4.6v-42c0-2.7,2-4.6,4.6-4.6h26.6c6.8,0,6.7,9.6,0,9.6h-21.3v11.1h18.6
		c6.6,0,6.6,9.7,0,9.7h-18.6v11.1h22.6c6.7,0,7.3,9.7,0,9.7H402.2z"/>
	<path class="st0" d="M443.3,39.2c0-2.7,0.6-5.3,4.4-5.3c2.7,0,3.3,0.7,5.3,2.6l24.5,30.6V38.5c0-2.4,2.1-5.1,4.7-5.1
		c2.7,0,5.3,2.7,5.3,5.1v41.7c0,3.3-2,4.5-3.9,5.1c-2.6,0-3.8-0.6-6-2.6L453,51.6v28.6c0,3.3-2,5.1-4.7,5.1c-2.7,0-5-1.9-5-5.1V39.2
		z"/>
	<path class="st0" d="M511.6,43.3h-13c-6.4,0-6.4-9.5,0-9.5h35c6.6,0,6.6,9.5,0,9.5h-12.3v37.4c0,6.4-9.8,6.6-9.8,0V43.3z"/>
	<path class="st0" d="M550.2,85.3c-2.6,0-4.6-2-4.6-4.6v-42c0-2.7,2-4.6,4.6-4.6h26.6c6.8,0,6.7,9.6,0,9.6h-21.3v11.1h18.6
		c6.6,0,6.6,9.7,0,9.7h-18.6v11.1H578c6.7,0,7.3,9.7,0,9.7H550.2z"/>
	<path class="st0" d="M601,80.5c0,6.4-9.8,6.7-9.8,0.1v-42c0-2.6,2-4.5,4.4-4.5h19.7c18.8,0,22.6,25.2,7,31.5l9.8,12
		c3.8,5.7-3.8,11.2-8.3,5.6l-11.2-16H601V80.5z M601,58.6h14.3c9.6,0,10.2-15.5,0-15.5H601V58.6z"/>
</g>
</svg>
