<?xml version="1.0" encoding="utf-8"?>
<!-- Generator: Adobe Illustrator 23.0.4, SVG Export Plug-In . SVG Version: 6.00 Build 0)  -->
<svg version="1.1" id="Layer_1" xmlns="http://www.w3.org/2000/svg" xmlns:xlink="http://www.w3.org/1999/xlink" x="0px" y="0px"
	 viewBox="0 0 1920 1080" style="enable-background:new 0 0 1920 1080;" xml:space="preserve">
<g>
	<path style="fill:#8CC63F;" d="M1654.9,1015.7H304c-7.2,0-13-5.8-13-13v-47.1c0-6.4,5.2-11.6,11.6-11.6h1352.7
		c5.9,0,10.7,4.8,10.7,10.7v49.9C1666,1010.7,1661,1015.7,1654.9,1015.7z"/>
	<path style="fill:#999999;" d="M291,992.9v-28.6c0-11.2,9.1-20.3,20.3-20.3h1336c10.3,0,18.7,8.4,18.7,18.7v33.6"/>
	<path style="fill:#666666;" d="M1636.3,943.9H319V872c0-21.2,17.2-38.3,38.3-38.3h1231.2c26.4,0,47.8,21.4,47.8,47.8V943.9z"/>
	<rect x="378.5" y="903.7" style="fill:#F2F2F2;" width="1196.6" height="15.7"/>
	<rect x="406.5" y="254.7" style="fill:#FF931E;" width="379.6" height="649"/>
	<rect x="786.1" y="254.7" style="fill:#BDCCD4;" width="379.6" height="649"/>
	<rect x="1165.7" y="254.7" style="fill:#F14929;" width="379.6" height="649"/>
	<polygon style="fill:#BDCCD4;" points="834.9,256.4 974.3,256.4 1125.2,256.5 975,95.5 	"/>
	<rect x="1185.8" y="225.8" style="fill:#F14929;" width="339.4" height="43.7"/>
	<rect x="1209.4" y="190" style="fill:#F14929;" width="288.6" height="43.7"/>
	<path style="fill:#F14929;" d="M1459.6,200.5h-208.2v-87.8c0-19.1,15.5-34.6,34.6-34.6h143.8c16.5,0,29.8,13.3,29.8,29.8
		L1459.6,200.5L1459.6,200.5z"/>
	<rect x="1184.9" y="282.7" style="fill:#FF931E;" width="54.2" height="22.7"/>
	<rect x="1244.4" y="317.7" style="fill:#FF931E;" width="54.2" height="22.7"/>
	<rect x="1384.4" y="405.1" style="fill:#FF931E;" width="54.2" height="22.7"/>
	<rect x="1366.9" y="457.6" style="fill:#FF931E;" width="54.2" height="22.7"/>
	<rect x="1165.7" y="483.9" style="fill:#FF931E;" width="54.2" height="22.7"/>
	<rect x="1491.1" y="317.7" style="fill:#FF931E;" width="54.2" height="22.7"/>
	<rect x="1218.2" y="602.8" style="fill:#FF931E;" width="54.2" height="22.7"/>
	<rect x="1293.4" y="602.8" style="fill:#FF931E;" width="54.2" height="22.7"/>
	<rect x="1491.1" y="660.5" style="fill:#FF931E;" width="54.2" height="22.7"/>
	<rect x="1450.8" y="611.6" style="fill:#FF931E;" width="54.2" height="22.7"/>
	<rect x="1165.7" y="769" style="fill:#FF931E;" width="54.2" height="22.7"/>
	<rect x="1188.4" y="709.5" style="fill:#FF931E;" width="54.2" height="22.7"/>
	<polygon style="fill:#FF931E;" points="786.1,251.2 406.5,251.2 408,245.9 414.6,223.2 420.5,203.1 422.8,195.2 423.8,191.7 
		430.4,169 431.4,165.5 438,142.7 439,139.2 445.7,116.5 446.7,113 747.6,113 748.6,116.5 754.9,139.2 755.9,142.7 758.1,150.7 
		763.2,169 769.5,191.7 770.5,195.2 772.1,200.9 778.3,223.2 784.6,245.9 	"/>
	<polygon style="fill:#F14929;" points="787.8,254.7 404.7,254.7 399.5,237.2 793.1,237.2 	"/>
	<polygon style="fill:#F14929;" points="750.3,98.8 440.4,98.8 436.2,113 754.6,113 	"/>
	<polygon style="fill:#FF931E;" points="1545.3,272.2 1162.2,272.2 1156.9,254.7 1550.5,254.7 	"/>
	<g>
		<rect x="1228.7" y="345.7" style="fill:#F2F2F2;" width="71.7" height="101.5"/>
		<rect x="1233.9" y="382.4" style="fill:#2B3A4D;" width="61.2" height="26.2"/>
		<rect x="1233.9" y="350.9" style="fill:#2B3A4D;" width="61.2" height="26.2"/>
		<rect x="1233.9" y="413.9" style="fill:#2B3A4D;" width="61.2" height="26.2"/>
		<rect x="1261.9" y="345.7" style="fill:#F2F2F2;" width="5.2" height="101.5"/>
	</g>
	<g>
		<rect x="1414.1" y="345.7" style="fill:#F2F2F2;" width="71.7" height="101.5"/>
		<rect x="1419.3" y="382.4" style="fill:#2B3A4D;" width="61.2" height="26.2"/>
		<rect x="1419.3" y="350.9" style="fill:#2B3A4D;" width="61.2" height="26.2"/>
		<rect x="1419.3" y="413.9" style="fill:#2B3A4D;" width="61.2" height="26.2"/>
		<rect x="1447.3" y="345.7" style="fill:#F2F2F2;" width="5.2" height="101.5"/>
	</g>
	<g>
		<rect x="1230.4" y="504.8" style="fill:#F2F2F2;" width="71.7" height="101.5"/>
		<rect x="1235.7" y="541.6" style="fill:#2B3A4D;" width="61.2" height="26.2"/>
		<rect x="1235.7" y="510.1" style="fill:#2B3A4D;" width="61.2" height="26.2"/>
		<rect x="1235.7" y="573.1" style="fill:#2B3A4D;" width="61.2" height="26.2"/>
		<rect x="1263.6" y="504.8" style="fill:#F2F2F2;" width="5.2" height="101.5"/>
	</g>
	<g>
		<rect x="1415.8" y="504.8" style="fill:#F2F2F2;" width="71.7" height="101.5"/>
		<rect x="1421.1" y="541.6" style="fill:#2B3A4D;" width="61.2" height="26.2"/>
		<rect x="1421.1" y="510.1" style="fill:#2B3A4D;" width="61.2" height="26.2"/>
		<rect x="1421.1" y="573.1" style="fill:#2B3A4D;" width="61.2" height="26.2"/>
		<rect x="1449.1" y="504.8" style="fill:#F2F2F2;" width="5.2" height="101.5"/>
	</g>
	<circle style="fill:#2B3A4D;stroke:#F2F2F2;stroke-width:3;stroke-miterlimit:10;" cx="976.8" cy="200.5" r="36.7"/>
	<line style="fill:none;stroke:#F2F2F2;stroke-miterlimit:10;" x1="976.8" y1="163.7" x2="976.8" y2="237.2"/>
	<line style="fill:none;stroke:#F2F2F2;stroke-miterlimit:10;" x1="940.9" y1="199.6" x2="1014.4" y2="199.6"/>
	<g>
		<rect x="1319.6" y="114.7" style="fill:#F2F2F2;" width="71.7" height="101.5"/>
		<rect x="1324.9" y="151.5" style="fill:#2B3A4D;" width="61.2" height="26.2"/>
		<rect x="1324.9" y="120" style="fill:#2B3A4D;" width="61.2" height="26.2"/>
		<rect x="1324.9" y="183" style="fill:#2B3A4D;" width="61.2" height="26.2"/>
		<rect x="1352.9" y="114.7" style="fill:#F2F2F2;" width="5.2" height="101.5"/>
	</g>
	<g>
		<g>
			<rect x="838.1" y="338" style="fill:#F2F2F2;" width="66.9" height="94.6"/>
			<rect x="843" y="372.3" style="fill:#2B3A4D;" width="57.1" height="24.5"/>
			<rect x="843" y="342.9" style="fill:#2B3A4D;" width="57.1" height="24.5"/>
			<rect x="843" y="401.7" style="fill:#2B3A4D;" width="57.1" height="24.5"/>
			<rect x="869.1" y="338" style="fill:#F2F2F2;" width="4.9" height="94.6"/>
		</g>
		<path style="fill:#F2F2F2;" d="M838.1,338.9c0-18.5,15-33.4,33.4-33.4s33.4,15,33.4,33.4"/>
		<path style="fill:#2B3A4D;" d="M846.2,337.2c0-14,11.3-25.3,25.3-25.3s25.3,11.3,25.3,25.3"/>
		<rect x="831.6" y="431" style="fill:#FFFFFF;" width="79.9" height="8.2"/>
	</g>
	<g>
		<g>
			<rect x="1049.1" y="338" style="fill:#F2F2F2;" width="66.9" height="94.6"/>
			<rect x="1054" y="372.3" style="fill:#2B3A4D;" width="57.1" height="24.5"/>
			<rect x="1054" y="342.9" style="fill:#2B3A4D;" width="57.1" height="24.5"/>
			<rect x="1054" y="401.7" style="fill:#2B3A4D;" width="57.1" height="24.5"/>
			<rect x="1080.1" y="338" style="fill:#F2F2F2;" width="4.9" height="94.6"/>
		</g>
		<path style="fill:#F2F2F2;" d="M1049.1,338.9c0-18.5,15-33.4,33.4-33.4s33.4,15,33.4,33.4"/>
		<path style="fill:#2B3A4D;" d="M1057.3,337.2c0-14,11.3-25.3,25.3-25.3s25.3,11.3,25.3,25.3"/>
		<rect x="1042.6" y="431" style="fill:#FFFFFF;" width="79.9" height="8.2"/>
	</g>
	<g>
		<g>
			<rect x="838.1" y="517.5" style="fill:#F2F2F2;" width="66.9" height="94.6"/>
			<rect x="843" y="551.7" style="fill:#2B3A4D;" width="57.1" height="24.5"/>
			<rect x="843" y="522.4" style="fill:#2B3A4D;" width="57.1" height="24.5"/>
			<rect x="843" y="581.1" style="fill:#2B3A4D;" width="57.1" height="24.5"/>
			<rect x="869.1" y="517.5" style="fill:#F2F2F2;" width="4.9" height="94.6"/>
		</g>
		<path style="fill:#F2F2F2;" d="M838.1,518.3c0-18.5,15-33.4,33.4-33.4s33.4,15,33.4,33.4"/>
		<path style="fill:#2B3A4D;" d="M846.2,516.7c0-14,11.3-25.3,25.3-25.3s25.3,11.3,25.3,25.3"/>
		<rect x="831.6" y="610.4" style="fill:#FFFFFF;" width="79.9" height="8.2"/>
	</g>
	<g>
		<g>
			<rect x="1047.4" y="517.5" style="fill:#F2F2F2;" width="66.9" height="94.6"/>
			<rect x="1052.3" y="551.7" style="fill:#2B3A4D;" width="57.1" height="24.5"/>
			<rect x="1052.3" y="522.4" style="fill:#2B3A4D;" width="57.1" height="24.5"/>
			<rect x="1052.3" y="581.1" style="fill:#2B3A4D;" width="57.1" height="24.5"/>
			<rect x="1078.4" y="517.5" style="fill:#F2F2F2;" width="4.9" height="94.6"/>
		</g>
		<path style="fill:#F2F2F2;" d="M1047.4,518.3c0-18.5,15-33.4,33.4-33.4s33.4,15,33.4,33.4"/>
		<path style="fill:#2B3A4D;" d="M1055.5,516.7c0-14,11.3-25.3,25.3-25.3s25.3,11.3,25.3,25.3"/>
		<rect x="1040.8" y="610.4" style="fill:#FFFFFF;" width="79.9" height="8.2"/>
	</g>
	<g>
		<g>
			<rect x="838.1" y="687.1" style="fill:#F2F2F2;" width="66.9" height="94.6"/>
			<rect x="843" y="721.4" style="fill:#2B3A4D;" width="57.1" height="24.5"/>
			<rect x="843" y="692" style="fill:#2B3A4D;" width="57.1" height="24.5"/>
			<rect x="843" y="750.7" style="fill:#2B3A4D;" width="57.1" height="24.5"/>
			<rect x="869.1" y="687.1" style="fill:#F2F2F2;" width="4.9" height="94.6"/>
		</g>
		<path style="fill:#F2F2F2;" d="M838.1,687.9c0-18.5,15-33.4,33.4-33.4s33.4,15,33.4,33.4"/>
		<path style="fill:#2B3A4D;" d="M846.2,686.3c0-14,11.3-25.3,25.3-25.3s25.3,11.3,25.3,25.3"/>
		<rect x="831.6" y="780.1" style="fill:#FFFFFF;" width="79.9" height="8.2"/>
	</g>
	<g>
		<g>
			<rect x="1047.4" y="687.1" style="fill:#F2F2F2;" width="66.9" height="94.6"/>
			<rect x="1052.3" y="721.4" style="fill:#2B3A4D;" width="57.1" height="24.5"/>
			<rect x="1052.3" y="692" style="fill:#2B3A4D;" width="57.1" height="24.5"/>
			<rect x="1052.3" y="750.7" style="fill:#2B3A4D;" width="57.1" height="24.5"/>
			<rect x="1078.4" y="687.1" style="fill:#F2F2F2;" width="4.9" height="94.6"/>
		</g>
		<path style="fill:#F2F2F2;" d="M1047.4,687.9c0-18.5,15-33.4,33.4-33.4s33.4,15,33.4,33.4"/>
		<path style="fill:#2B3A4D;" d="M1055.5,686.3c0-14,11.3-25.3,25.3-25.3s25.3,11.3,25.3,25.3"/>
		<rect x="1040.8" y="780.1" style="fill:#FFFFFF;" width="79.9" height="8.2"/>
	</g>
	
		<rect x="933" y="735.8" style="fill:#2B3A4D;stroke:#FFFFFF;stroke-width:4;stroke-linecap:round;stroke-miterlimit:10;" width="87.5" height="167.9"/>
	<g>
		<rect x="1349.4" y="730.5" style="fill:#F2F2F2;" width="71.7" height="101.5"/>
		<rect x="1354.6" y="767.2" style="fill:#2B3A4D;" width="61.2" height="26.2"/>
		<rect x="1354.6" y="735.8" style="fill:#2B3A4D;" width="61.2" height="26.2"/>
		<rect x="1354.6" y="798.7" style="fill:#2B3A4D;" width="61.2" height="26.2"/>
		<rect x="1382.6" y="730.5" style="fill:#F2F2F2;" width="5.2" height="101.5"/>
	</g>
	<g>
		<rect x="1417.6" y="730.5" style="fill:#F2F2F2;" width="71.7" height="101.5"/>
		<rect x="1422.8" y="767.2" style="fill:#2B3A4D;" width="61.2" height="26.2"/>
		<rect x="1422.8" y="735.8" style="fill:#2B3A4D;" width="61.2" height="26.2"/>
		<rect x="1422.8" y="798.7" style="fill:#2B3A4D;" width="61.2" height="26.2"/>
		<rect x="1450.8" y="730.5" style="fill:#F2F2F2;" width="5.2" height="101.5"/>
	</g>
	<g>
		<rect x="633.9" y="350.9" style="fill:#F2F2F2;" width="71.7" height="101.5"/>
		<rect x="639.1" y="356.1" style="fill:#2B3A4D;" width="61.2" height="43.7"/>
		<rect x="639.1" y="356.1" style="fill:#2B3A4D;" width="61.2" height="26.2"/>
		<rect x="639.1" y="406.9" style="fill:#2B3A4D;" width="61.2" height="38.5"/>
		<rect x="667.1" y="350.9" style="fill:#F2F2F2;" width="5.2" height="101.5"/>
		<path style="fill:#F14929;" d="M628.6,375.4c0-25.1,18.4-45.5,41.1-45.5c22.7,0,41.1,20.4,41.1,45.5"/>
	</g>
	<g>
		<rect x="432.7" y="524.1" style="fill:#F2F2F2;" width="71.7" height="101.5"/>
		<rect x="437.9" y="529.3" style="fill:#2B3A4D;" width="61.2" height="43.7"/>
		<rect x="437.9" y="529.3" style="fill:#2B3A4D;" width="61.2" height="26.2"/>
		<rect x="437.9" y="580.1" style="fill:#2B3A4D;" width="61.2" height="38.5"/>
		<rect x="465.9" y="524.1" style="fill:#F2F2F2;" width="5.2" height="101.5"/>
		<path style="fill:#F14929;" d="M427.5,548.6c0-25.1,18.4-45.5,41.1-45.5s41.1,20.4,41.1,45.5"/>
	</g>
	<g>
		<rect x="562.2" y="525.8" style="fill:#F2F2F2;" width="71.7" height="101.5"/>
		<rect x="567.4" y="531.1" style="fill:#2B3A4D;" width="61.2" height="43.7"/>
		<rect x="567.4" y="531.1" style="fill:#2B3A4D;" width="61.2" height="26.2"/>
		<rect x="567.4" y="581.8" style="fill:#2B3A4D;" width="61.2" height="38.5"/>
		<rect x="595.4" y="525.8" style="fill:#F2F2F2;" width="5.2" height="101.5"/>
		<path style="fill:#F14929;" d="M556.9,550.3c0-25.1,18.4-45.5,41.1-45.5s41.1,20.4,41.1,45.5"/>
	</g>
	<g>
		<rect x="691.6" y="525.8" style="fill:#F2F2F2;" width="71.7" height="101.5"/>
		<rect x="696.9" y="531.1" style="fill:#2B3A4D;" width="61.2" height="43.7"/>
		<rect x="696.9" y="531.1" style="fill:#2B3A4D;" width="61.2" height="26.2"/>
		<rect x="696.9" y="581.8" style="fill:#2B3A4D;" width="61.2" height="38.5"/>
		<rect x="724.8" y="525.8" style="fill:#F2F2F2;" width="5.2" height="101.5"/>
		<path style="fill:#F14929;" d="M686.4,550.3c0-25.1,18.4-45.5,41.1-45.5c22.7,0,41.1,20.4,41.1,45.5"/>
	</g>
	<g>
		<rect x="490.4" y="350.9" style="fill:#F2F2F2;" width="71.7" height="101.5"/>
		<rect x="495.7" y="356.1" style="fill:#2B3A4D;" width="61.2" height="43.7"/>
		<rect x="495.7" y="356.1" style="fill:#2B3A4D;" width="61.2" height="26.2"/>
		<rect x="495.7" y="406.9" style="fill:#2B3A4D;" width="61.2" height="38.5"/>
		<rect x="523.7" y="350.9" style="fill:#F2F2F2;" width="5.2" height="101.5"/>
		<path style="fill:#F14929;" d="M485.2,375.4c0-25.1,18.4-45.5,41.1-45.5c22.7,0,41.1,20.4,41.1,45.5"/>
	</g>
	<rect x="632.1" y="877.5" style="fill:#808080;" width="129.5" height="26.2"/>
	<rect x="653.1" y="853" style="fill:#999999;" width="90.6" height="24.5"/>
	<rect x="1198.9" y="875.7" style="fill:#808080;" width="129.5" height="26.2"/>
	<rect x="1219.9" y="851.2" style="fill:#999999;" width="90.6" height="24.5"/>
	
		<rect x="654.9" y="683.3" style="fill:#2B3A4D;stroke:#FFFFFF;stroke-width:4;stroke-linecap:round;stroke-miterlimit:10;" width="87.5" height="167.9"/>
	<g>
		<g>
			<rect x="434.4" y="739.3" style="fill:#F2F2F2;" width="89.4" height="101.5"/>
			<rect x="441" y="776" style="fill:#2B3A4D;" width="76.3" height="26.2"/>
			<rect x="441" y="744.5" style="fill:#2B3A4D;" width="76.3" height="26.2"/>
			<rect x="441" y="807.5" style="fill:#2B3A4D;" width="76.3" height="26.2"/>
			<rect x="475.9" y="739.3" style="fill:#F2F2F2;" width="6.5" height="101.5"/>
		</g>
		<g>
			<rect x="521.7" y="739.3" style="fill:#F2F2F2;" width="89.4" height="101.5"/>
			<rect x="528.2" y="776" style="fill:#2B3A4D;" width="76.3" height="26.2"/>
			<rect x="528.2" y="744.5" style="fill:#2B3A4D;" width="76.3" height="26.2"/>
			<rect x="528.2" y="807.5" style="fill:#2B3A4D;" width="76.3" height="26.2"/>
			<rect x="563.1" y="739.3" style="fill:#F2F2F2;" width="6.5" height="101.5"/>
		</g>
		<path style="fill:#F2F2F2;" d="M469.4,739.3c0-9.7,22.3-17.5,49.9-17.5c27.5,0,49.9,7.8,49.9,17.5"/>
	</g>
	
		<rect x="1221.7" y="681.5" style="fill:#2B3A4D;stroke:#FFFFFF;stroke-width:4;stroke-linecap:round;stroke-miterlimit:10;" width="87.5" height="167.9"/>
	<polygon style="fill:#F14929;" points="486.9,116.5 486.9,139.2 439,139.2 445.7,116.5 	"/>
	<rect x="492.2" y="116.5" style="fill:#F14929;" width="54.2" height="22.7"/>
	<rect x="551.7" y="116.5" style="fill:#F14929;" width="54.2" height="22.7"/>
	<rect x="611.1" y="116.5" style="fill:#F14929;" width="54.2" height="22.7"/>
	<rect x="670.6" y="116.5" style="fill:#F14929;" width="54.2" height="22.7"/>
	<polygon style="fill:#F14929;" points="754.9,139.2 730.1,139.2 730.1,116.5 748.6,116.5 	"/>
	<polygon style="fill:#F14929;" points="460.7,142.7 460.7,165.5 431.4,165.5 438,142.7 	"/>
	<rect x="465.9" y="142.7" style="fill:#F14929;" width="54.2" height="22.7"/>
	<rect x="525.4" y="142.7" style="fill:#F14929;" width="54.2" height="22.7"/>
	<rect x="584.9" y="142.7" style="fill:#F14929;" width="54.2" height="22.7"/>
	<rect x="644.4" y="142.7" style="fill:#F14929;" width="54.2" height="22.7"/>
	<polygon style="fill:#F14929;" points="758.1,150.7 758.1,165.5 703.8,165.5 703.8,142.7 755.9,142.7 	"/>
	<rect x="434.4" y="169" style="fill:#F14929;" width="54.2" height="22.7"/>
	<polygon style="fill:#F14929;" points="430.9,169 430.9,191.7 423.8,191.7 430.4,169 	"/>
	<rect x="493.9" y="169" style="fill:#F14929;" width="54.2" height="22.7"/>
	<rect x="553.4" y="169" style="fill:#F14929;" width="54.2" height="22.7"/>
	<rect x="612.9" y="169" style="fill:#F14929;" width="54.2" height="22.7"/>
	<rect x="672.4" y="169" style="fill:#F14929;" width="54.2" height="22.7"/>
	<polygon style="fill:#F14929;" points="769.5,191.7 731.8,191.7 731.8,169 763.2,169 	"/>
	<polygon style="fill:#F14929;" points="474.7,195.2 474.7,217.9 420.5,217.9 420.5,203.1 422.8,195.2 	"/>
	<rect x="479.9" y="195.2" style="fill:#F14929;" width="54.2" height="22.7"/>
	<rect x="539.4" y="195.2" style="fill:#F14929;" width="54.2" height="22.7"/>
	<rect x="598.9" y="195.2" style="fill:#F14929;" width="54.2" height="22.7"/>
	<rect x="658.4" y="195.2" style="fill:#F14929;" width="54.2" height="22.7"/>
	<polygon style="fill:#F14929;" points="772.1,200.9 772.1,217.9 717.8,217.9 717.8,195.2 770.5,195.2 	"/>
	<rect x="436.2" y="223.2" style="fill:#F14929;" width="54.2" height="22.7"/>
	<rect x="495.7" y="223.2" style="fill:#F14929;" width="54.2" height="22.7"/>
	<rect x="555.2" y="223.2" style="fill:#F14929;" width="54.2" height="22.7"/>
	<rect x="614.6" y="223.2" style="fill:#F14929;" width="54.2" height="22.7"/>
	<rect x="674.1" y="223.2" style="fill:#F14929;" width="54.2" height="22.7"/>
	<polygon style="fill:#F14929;" points="784.6,245.9 733.6,245.9 733.6,223.2 778.3,223.2 	"/>
	<polygon style="fill:#F14929;" points="430.9,223.2 430.9,245.9 408,245.9 414.6,223.2 	"/>
	<g>
		<rect x="565.7" y="135.7" style="fill:#F2F2F2;" width="71.7" height="101.5"/>
		<rect x="570.9" y="141" style="fill:#2B3A4D;" width="61.2" height="43.7"/>
		<rect x="570.9" y="141" style="fill:#2B3A4D;" width="61.2" height="26.2"/>
		<rect x="570.9" y="191.7" style="fill:#2B3A4D;" width="61.2" height="38.5"/>
		<rect x="598.9" y="135.7" style="fill:#F2F2F2;" width="5.2" height="101.5"/>
		<path style="fill:#F2F2F2;" d="M560.4,160.2c0-25.1,18.4-45.5,41.1-45.5s41.1,20.4,41.1,45.5"/>
	</g>
	<rect x="782.6" y="254.7" style="fill:#F2F2F2;" width="383.1" height="26.2"/>
</g>
<g id="TH_Background">
</g>
<g id="TH_buildings">
</g>
<g id="TH_Details">
</g>
<g id="Toilet_person">
</g>
</svg>
