<svg id="Layer_1" data-name="Layer 1" 
    xmlns="http://www.w3.org/2000/svg" viewBox="0 0 490.18 736.07">
    <path d="M125.13,436.74a.35.35,0,0,1-.11.09c0-.09,0-.2,0-.28A.77.77,0,0,1,125.13,436.74Z" fill="#08b400"/>
    <path d="M125.13,436.74a.35.35,0,0,1-.11.09c0-.09,0-.2,0-.28A.77.77,0,0,1,125.13,436.74Z" fill="#08b400"/>
    <path d="M191.38,265S173,368,209.78,426.92c0,0,22.08-114.09,22.08-125.13,0,0,11,3.68,29.44-11L224.5,478.44s-18.4,84.65,0,139.86l44.16,117.77h-73.6L187.7,401.16S165.62,261.3,158.25,257.62s11.05-18.4,11.05-18.4Z" fill="#67541d"/>
    <path d="M204.41,259.17a52.2,52.2,0,0,1-14.87,2.13,52.87,52.87,0,0,1-16.64-2.65c0,.89.08,1.77.08,2.65a40.49,40.49,0,0,1-72.91,24.26,38.62,38.62,0,0,1-57.45-50.13C18.81,233.92,0,216.44,0,195.06c0-18.81,14.54-34.6,34.26-39.12a37.14,37.14,0,0,1-8.5-23.45c0-22.37,20.61-40.48,46-40.48s46,18.11,46,40.48a37,37,0,0,1-8.17,23,53.16,53.16,0,0,1,45,12.11,53.18,53.18,0,0,1,35-13.07,51.44,51.44,0,0,1,14.61,2.07,33.79,33.79,0,0,0-1.73,10.82,35.22,35.22,0,0,0,3.05,14.35c-12.77,7.43-21.45,22.12-21.45,39C184,237.23,192.22,251.59,204.41,259.17Z" fill="#0a6e00"/>
    <path d="M415.88,253c0,24.34-20.53,44.08-45.85,44.08a47.26,47.26,0,0,1-15.51-2.6c-4.91,17-21.09,29.44-40.31,29.44a42.09,42.09,0,0,1-35.88-19.55,42.12,42.12,0,0,1-35.89,19.55c-23.12,0-41.86-18-41.86-40.25a40.38,40.38,0,0,1,1.31-10.09c.28-1,.6-2,1-3a36.46,36.46,0,0,1-4.11,1.31,47.17,47.17,0,0,1,1.16-80.59,35.51,35.51,0,0,1-3.31-14.95A33.91,33.91,0,0,1,198.47,165c4.9-14.6,19.17-25.15,36-25.15,20.93,0,37.88,16.3,37.88,36.42a35.41,35.41,0,0,1-2.92,14.11,58.72,58.72,0,0,1,22.85-4.52,61.31,61.31,0,0,1,12.84,1.34c3.95-18.29,20.81-32,41-32,23.12,0,41.86,18,41.86,40.25a38.47,38.47,0,0,1-3.35,15.72C402.8,217,415.88,233.51,415.88,253Z" fill="#008f03"/>
    <path d="M204.52,272.64c-.33,1-.63,1.91-.89,2.91-1-.52-1.95-1.07-2.9-1.66A33,33,0,0,0,204.52,272.64Z" fill="#0a6e00"/>
    <path d="M222.4,113.94a57,57,0,0,1-86.71,72.91,46,46,0,0,1-74.6-53c-16.3-5.34-28-19.62-28-36.36,0-15.75,10.31-29.26,25.07-35.26a45.26,45.26,0,0,1-3-16.27,46,46,0,0,1,89.24-15.71c5.71-7.32,13.92-11.89,23-11.89,13.8,0,25.57,10.56,29.7,25.21A38.2,38.2,0,0,1,219,36.8a38.65,38.65,0,0,1,3.42,77.14Z" fill="#0ba400"/>
    <path d="M413.74,140.18a32.74,32.74,0,0,0,5.82-18.73,33.12,33.12,0,0,0-33.12-33.12A32.76,32.76,0,0,0,368,94c-.81-21.57-17-38.75-36.77-38.75-12.51,0-23.59,6.88-30.21,17.4a44.19,44.19,0,1,0-77,43.06,36.78,36.78,0,0,0,28.78,67,51.49,51.49,0,0,0,2.83,7.43,36.8,36.8,0,1,0,47.7,46.85c4.16,12,16.74,20.68,31.61,20.68,18.29,0,33.12-13.17,33.12-29.44a25.76,25.76,0,0,0-1.69-9.24,46,46,0,0,0,47.4-78.76ZM353.87,127.6c0-.11,0-.26,0-.37a.87.87,0,0,1,.18.26A.61.61,0,0,1,353.87,127.6Z" fill="#08b400"/>
    <path d="M490.18,186.37a.33.33,0,0,1-.14.11c0-.11,0-.25,0-.37A1.22,1.22,0,0,1,490.18,186.37Z" fill="#08b400"/>
    <path d="M490.18,186.37a.33.33,0,0,1-.14.11c0-.11,0-.25,0-.37A1.22,1.22,0,0,1,490.18,186.37Z" fill="#08b400"/>
    <path d="M490.18,186.37a.33.33,0,0,1-.14.11c0-.11,0-.25,0-.37A1.22,1.22,0,0,1,490.18,186.37Z" fill="#08b400"/>
</svg>