<?xml version="1.0" encoding="utf-8"?>
<!-- Generator: Adobe Illustrator 23.0.4, SVG Export Plug-In . SVG Version: 6.00 Build 0)  -->
<svg version="1.1" id="Layer_1" xmlns="http://www.w3.org/2000/svg" xmlns:xlink="http://www.w3.org/1999/xlink" x="0px" y="0px"
	 viewBox="0 0 314.5 314.5" style="enable-background:new 0 0 314.5 314.5;" xml:space="preserve">
<style type="text/css">
	.st0{fill:#FF931E;}
</style>
<path class="st0" d="M143.4,0.1l0.8,184.9l22.1-0.1C166.3,184.7,179.9,26.9,143.4,0.1z"/>
<path class="st0" d="M143.4,0.1l0.8,184.9l22.1-0.1C166.3,184.7,179.9,26.9,143.4,0.1z"/>
<path class="st0" d="M0.7,295.5l150.2-71.4l-8.6-23.1C142.2,201,8.5,246.9,0.7,295.5z"/>
<path class="st0" d="M315.1,294.1L164.3,224l8.4-23.2C172.7,200.9,306.8,245.6,315.1,294.1z"/>
<ellipse transform="matrix(1 -4.399863e-03 4.399863e-03 1 -0.8849 0.6916)" class="st0" cx="156.7" cy="201.5" rx="24.9" ry="28.2"/>
</svg>
