<svg id="Layer_1" data-name="Layer 1" 
  xmlns="http://www.w3.org/2000/svg" viewBox="0 0 1049.33 1410.5">
  <title>largeutilitypole</title>
  <polygon points="322.54 907.29 264.99 1410 355.2 959.38 525.55 959.38 525.55 907.29 322.54 907.29" fill="none" stroke="#ccc" stroke-miterlimit="10" stroke-width="2"/>
  <line x1="264.99" y1="1410" x2="525.55" y2="959.38" fill="none" stroke="#ccc" stroke-miterlimit="10" stroke-width="2"/>
  <line x1="324.84" y1="1129.01" x2="425.55" y2="1132.03" fill="none" stroke="#ccc" stroke-miterlimit="10" stroke-width="2"/>
  <line x1="395.34" y1="959.38" x2="470.3" y2="1054.77" fill="none" stroke="#ccc" stroke-miterlimit="10" stroke-width="2"/>
  <line x1="335.49" y1="1057.79" x2="401.38" y2="1174.19" fill="none" stroke="#ccc" stroke-miterlimit="10" stroke-width="2"/>
  <line x1="310.45" y1="1185.26" x2="353.61" y2="1257.49" fill="none" stroke="#ccc" stroke-miterlimit="10" stroke-width="2"/>
  <polygon points="322.97 906.72 342.1 692.48 525.55 692.48 322.97 906.72" fill="none" stroke="#ccc" stroke-miterlimit="10" stroke-width="2"/>
  <line x1="395.34" y1="692.48" x2="453.61" y2="768.74" fill="none" stroke="#ccc" stroke-miterlimit="10" stroke-width="2"/>
  <line x1="335.49" y1="766.72" x2="377.07" y2="849.02" fill="none" stroke="#ccc" stroke-miterlimit="10" stroke-width="2"/>
  <polygon points="342.25 692.48 491.45 1 525.55 1 525.55 692.48 342.25 692.48" fill="none" stroke="#ccc" stroke-miterlimit="10" stroke-width="2"/>
  <polygon points="728.56 907.15 786.11 1409.86 696.04 959.38 525.55 959.38 525.55 907.15 728.56 907.15" fill="none" stroke="#ccc" stroke-miterlimit="10" stroke-width="2"/>
  <line x1="786.11" y1="1409.86" x2="525.55" y2="959.38" fill="none" stroke="#ccc" stroke-miterlimit="10" stroke-width="2"/>
  <line x1="726.26" y1="1129.01" x2="625.54" y2="1131.89" fill="none" stroke="#ccc" stroke-miterlimit="10" stroke-width="2"/>
  <line x1="655.9" y1="959.38" x2="580.94" y2="1054.62" fill="none" stroke="#ccc" stroke-miterlimit="10" stroke-width="2"/>
  <line x1="715.76" y1="1057.64" x2="649.86" y2="1174.04" fill="none" stroke="#ccc" stroke-miterlimit="10" stroke-width="2"/>
  <line x1="740.65" y1="1185.12" x2="697.48" y2="1257.35" fill="none" stroke="#ccc" stroke-miterlimit="10" stroke-width="2"/>
  <polygon points="728.13 906.72 709.14 692.34 525.55 692.34 728.13 906.72" fill="none" stroke="#ccc" stroke-miterlimit="10" stroke-width="2"/>
  <line x1="655.9" y1="692.34" x2="597.49" y2="768.74" fill="none" stroke="#ccc" stroke-miterlimit="10" stroke-width="2"/>
  <line x1="715.76" y1="766.72" x2="674.03" y2="848.88" fill="none" stroke="#ccc" stroke-miterlimit="10" stroke-width="2"/>
  <polygon points="708.85 692.34 559.65 1 525.55 1 525.55 692.34 708.85 692.34" fill="none" stroke="#ccc" stroke-miterlimit="10" stroke-width="2"/>
  <line x1="341.53" y1="692.91" x2="675.61" y2="525.44" fill="none" stroke="#ccc" stroke-miterlimit="10" stroke-width="2"/>
  <line x1="416.35" y1="347.17" x2="616.48" y2="267.75" fill="none" stroke="#ccc" stroke-miterlimit="10" stroke-width="2"/>
  <line x1="449.44" y1="194.8" x2="590.44" y2="141.14" fill="none" stroke="#ccc" stroke-miterlimit="10" stroke-width="2"/>
  <line x1="459.94" y1="143.3" x2="600.8" y2="191.5" fill="none" stroke="#ccc" stroke-miterlimit="10" stroke-width="2"/>
  <line x1="432.03" y1="273.07" x2="632.16" y2="339.69" fill="none" stroke="#ccc" stroke-miterlimit="10" stroke-width="2"/>
  <line x1="378.07" y1="524.29" x2="708.71" y2="692.91" fill="none" stroke="#ccc" stroke-miterlimit="10" stroke-width="2"/>
  <line x1="388.58" y1="479.25" x2="642.52" y2="383.72" fill="none" stroke="#ccc" stroke-miterlimit="10" stroke-width="2"/>
  <line x1="409.44" y1="383.72" x2="661.8" y2="478.1" fill="none" stroke="#ccc" stroke-miterlimit="10" stroke-width="2"/>
  <polygon points="162.4 207.61 524.83 207.61 524.83 124.74 463.39 125.02 162.4 207.61" fill="none" stroke="#ccc" stroke-miterlimit="10" stroke-width="2"/>
  <polygon points="586.84 125.02 527.13 124.45 525.12 207.61 889.56 207.47 586.84 125.02" fill="none" stroke="#ccc" stroke-miterlimit="10" stroke-width="2"/>
  <polygon points="7.44 466.59 523.1 466.59 523.1 348.47 439.08 348.47 7.44 466.59" fill="none" stroke="#ccc" stroke-miterlimit="10" stroke-width="2"/>
  <polygon points="613.03 348.47 526.27 348.18 523.53 466.59 1041.93 466.3 613.03 348.47" fill="none" stroke="#ccc" stroke-miterlimit="10" stroke-width="2"/>
  <line x1="171.9" y1="247.9" x2="173.62" y2="207.18" fill="none" stroke="#ccc" stroke-miterlimit="10" stroke-width="2"/>
  <line x1="874.89" y1="208.19" x2="876.61" y2="247.9" fill="none" stroke="#ccc" stroke-miterlimit="10" stroke-width="2"/>
  <line x1="44.28" y1="503.57" x2="44.28" y2="467.02" fill="none" stroke="#ccc" stroke-miterlimit="10" stroke-width="2"/>
  <line x1="1005.96" y1="503.57" x2="1005.96" y2="467.02" fill="none" stroke="#ccc" stroke-miterlimit="10" stroke-width="2"/>
</svg>