<?xml version="1.0" encoding="utf-8"?>
<!-- Generator: Adobe Illustrator 23.0.4, SVG Export Plug-In . SVG Version: 6.00 Build 0)  -->
<svg version="1.1" id="Layer_1" xmlns="http://www.w3.org/2000/svg" xmlns:xlink="http://www.w3.org/1999/xlink" x="0px" y="0px"
	 viewBox="0 0 704.1 1186.6" style="enable-background:new 0 0 704.1 1186.6;" xml:space="preserve">
<path style="fill:#B3B3B3;" d="M327.3,0C313.9,0,303,10.9,303,24.3v1144.3l0,0c0,0.1,0,0.2,0,0.4c0,10.5,20.4,19,45.5,19
	c6.2,0,12.1-0.5,17.5-1.5v-17.9v-17.2V0H327.3z"/>
<path style="fill:#999999;" d="M394,24.3C394,10.9,383.1,0,369.7,0H366v1151.5v17.2v17.9c16.4-2.9,28-9.6,28-17.5c0-0.1,0-0.2,0-0.4
	l0,0V24.3z"/>
<path style="fill:#B3B3B3;" d="M297,288.4h-86.9v219.2l0,0c0,0.2,0,0.3,0,0.5c0,10.5,19.5,19,43.5,19s43.5-8.5,43.5-19
	c0-0.2,0-0.3,0-0.5l0,0L297,288.4L297,288.4z"/>
<ellipse style="fill:#808080;" cx="253.5" cy="287.9" rx="43.5" ry="6.9"/>
<path style="fill:#736357;" d="M201,659"/>
<path style="fill:#666666;" d="M688.7,68H15.3C6.9,68,0,61.2,0,52.7v-3.5c0-8.4,6.8-15.3,15.3-15.3h673.5c8.4,0,15.3,6.8,15.3,15.3
	v3.5C704,61.2,697.2,68,688.7,68z"/>
<path style="fill:#666666;" d="M688.8,218H15.2C6.8,218,0,211.2,0,202.8v-3.5c0-8.4,6.8-15.2,15.2-15.2h673.5
	c8.4,0,15.2,6.8,15.2,15.2v3.5C704,211.2,697.2,218,688.8,218z"/>
</svg>
