<svg id="Layer_1" data-name="Layer 1" xmlns="http://www.w3.org/2000/svg" viewBox="0 0 3432.53 1288.74"><title>wastewatertreatmentisland</title><path d="M3250.7,1050l-3054.72,8a81.86,81.86,0,0,1-81.61-81.62h0c0-399.93,327.22-727.15,727.16-727.15L2718.1,241.9c263.06,0,523.42,297.09,523.42,560.15l36.73,156.11C3278.25,1003,3295.59,1050,3250.7,1050Z" fill="#8cc63f"/><path d="M224.56,763.84H3217.24a87.66,87.66,0,0,1,87.66,87.66V996.76A110.19,110.19,0,0,1,3194.7,1107H224.56A110.19,110.19,0,0,1,114.37,996.76V874A110.19,110.19,0,0,1,224.56,763.84Z" fill="#666"/><path d="M152.59,1039.57H3276.91a155.62,155.62,0,0,1,155.62,155.62v0a93.54,93.54,0,0,1-93.54,93.54H96.58A96.58,96.58,0,0,1,0,1192.16v0a152.59,152.59,0,0,1,152.59-152.59Z" fill="#8cc63f"/><rect x="731.16" width="780.18" height="584.11" fill="#e6e6e6"/><rect x="1200.9" width="310.44" height="187.9" fill="#ff931e"/><rect x="1405.14" y="187.9" width="310.44" height="404.39" fill="#f14929"/><rect x="757.48" y="78.25" width="84.8" height="90.69" fill="#bdccd4"/><rect x="882.18" y="78.25" width="84.8" height="90.69" fill="#bdccd4"/><rect x="882.18" y="209.24" width="84.8" height="90.69" fill="#bdccd4"/><rect x="757.48" y="209.24" width="84.8" height="90.69" fill="#bdccd4"/><rect x="1454.04" y="282.48" width="84.8" height="90.69" fill="#2e3192"/><rect x="1601.09" y="282.48" width="84.8" height="90.69" fill="#2e3192"/><rect x="793.23" y="363.54" width="145.12" height="214.99" fill="#bdccd4"/><rect x="1090.5" y="364.46" width="84.8" height="90.69" fill="#bdccd4"/><rect x="1213.04" y="364.46" width="84.8" height="90.69" fill="#bdccd4"/><rect x="965.8" y="364.46" width="84.8" height="90.69" fill="#bdccd4"/><rect x="89.86" y="1151.88" width="1607.89" height="85.78" fill="#999"/><line x1="1999.72" y1="408.47" x2="2351.01" y2="404.39" fill="none" stroke="#fff" stroke-linecap="round" stroke-miterlimit="10" stroke-width="7"/><path d="M2869.77,637.21l-743.42-4.47c-27,0-49-24.16-49-53.69l28.6-170c0-29.52,22.05-53.68,49-53.68h686.23c27,0,49,24.16,49,53.68l28.59,174.48C2918.78,613.05,2896.72,637.21,2869.77,637.21Z" fill="#666"/><path d="M2522.57,347.2h318.6c27,0,49,24.86,49,55.24L2918.78,582c0,30.38-22.06,55.24-49,55.24l-347.2-2.15" fill="#4d4d4d"/><ellipse cx="2489.89" cy="359.45" rx="392.13" ry="102.12" fill="#1fa5aa" stroke="#f2f2f2" stroke-miterlimit="10" stroke-width="4"/><path d="M2395.94,718.91l-743.41-4.61c-27,0-49-24.85-49-55.24l28.59-174.93c0-30.38,22.06-55.24,49-55.24h686.23c27,0,49,24.86,49,55.24L2445,663.67C2445,694.05,2422.9,718.91,2395.94,718.91Z" fill="#999"/><path d="M2048.74,433h318.61c27,0,49,24.86,49,55.24L2445,667.75c0,30.38-22.06,55.24-49,55.24l-347.2-2.15" fill="gray"/><ellipse cx="2016.06" cy="432.98" rx="392.13" ry="102.12" fill="#1fa5aa" stroke="#f2f2f2" stroke-miterlimit="10" stroke-width="4"/><line x1="2500.1" y1="361.5" x2="2851.38" y2="357.41" fill="none" stroke="#fff" stroke-linecap="round" stroke-miterlimit="10" stroke-width="7"/><line x1="2005.85" y1="435.02" x2="2357.14" y2="430.94" fill="none" stroke="#fff" stroke-linecap="round" stroke-miterlimit="10" stroke-width="7"/><path d="M1664.65,1192.73,126.54,1200.9c-20.17,0-36.68-22.06-36.68-49L388,690.31c0-27,16.51-49,36.68-49H1805.52c20.17,0,36.68,22.05,36.68,49l-140.87,453.41C1701.33,1170.67,1684.83,1192.73,1664.65,1192.73Z" fill="#ccc"/><path d="M396.8,1168.22l-235.47-4.08c-2.47,0-3.58-22.06-3.58-49l252.34-388c0-27,1.42-49,3.89-49h177.3c2.46,0,4.48,22.06,4.48,49l-198,384C397.72,1138,399.27,1168.22,396.8,1168.22Z" fill="#1fa5aa" stroke="#e6e6e6" stroke-miterlimit="10" stroke-width="3"/><path d="M666.34,1168.22H443.6c-2.49,0,0-30.22,0-57.18l195.12-384c0-27,1.43-49,3.92-49H821.4c2.49,0,4.52,22.06,4.52,49L670.86,1119.21C670.86,1146.17,668.83,1168.22,666.34,1168.22Z" fill="#1fa5aa" stroke="#e6e6e6" stroke-miterlimit="10" stroke-width="3"/><path d="M912.88,1168.22H709c-2.49,0,2.62-22,2.62-49l159.9-392.13c0-27,1.43-49,3.92-49h194.07c2.49,0,1,22.06,1,49l-153,392.13C917.41,1146.17,915.37,1168.22,912.88,1168.22Z" fill="#1fa5aa" stroke="#e6e6e6" stroke-miterlimit="10" stroke-width="3"/><path d="M1163,1168.22H959.08c-2.49,0,2.62-22,2.62-49l155.81-392.13c0-27,1.44-49,3.93-49h185.9c2.49,0,1,22.06,1,49l-140.77,392.13C1167.52,1146.17,1165.49,1168.22,1163,1168.22Z" fill="#7c6029" stroke="#e6e6e6" stroke-miterlimit="10" stroke-width="3"/><path d="M1409.54,1168.22H1205.62c-2.49,0,2.62-22,2.62-49l155.81-392.13c0-27,1.44-49,3.93-49h185.9c2.49,0,.95,22.06.95,49l-140.76,392.13C1414.07,1146.17,1412,1168.22,1409.54,1168.22Z" fill="#7c6029" stroke="#e6e6e6" stroke-miterlimit="10" stroke-width="3"/><path d="M1652.51,1168.22H1448.59c-2.49,0,2.62-22,2.62-49L1607,727.08c0-27,1.44-49,3.93-49h185.9c2.49,0,1,22.06,1,49L1657,1119.21C1657,1146.17,1655,1168.22,1652.51,1168.22Z" fill="#7c6029" stroke="#e6e6e6" stroke-miterlimit="10" stroke-width="3"/></svg>