<?xml version="1.0" encoding="utf-8"?>
<!-- Generator: Adobe Illustrator 23.0.4, SVG Export Plug-In . SVG Version: 6.00 Build 0)  -->
<svg version="1.1" id="Layer_1" xmlns="http://www.w3.org/2000/svg" xmlns:xlink="http://www.w3.org/1999/xlink" x="0px" y="0px"
	 viewBox="0 0 1705.7 1062" style="enable-background:new 0 0 1705.7 1062;" xml:space="preserve">
<g id="island_background">
	<path style="fill:#8CC63F;" d="M1641.4,952H62.5c-6.6,0-12-5.4-12-12V701.9c0-58.8,48.1-106.9,106.9-106.9h1425.7
		c38.7,0,70.3,31.6,70.3,70.3V940C1653.4,946.6,1648,952,1641.4,952z"/>
	<path style="fill:#666666;" d="M1641.4,973.7H62.5c-6.6,0-12-5.4-12-12V834.2c0-6.6,5.4-12,12-12h1581.4c5.3,0,9.5,4.3,9.5,9.5
		v129.9C1653.4,968.3,1648,973.7,1641.4,973.7z"/>
	<path style="fill:#8CC63F;" d="M1682.8,1062H23.6c-13,0-23.6-10.6-23.6-23.6v-49C0,968.9,16.8,952,37.4,952h1630.2
		c21,0,38.1,17.1,38.1,38.1v49C1705.7,1051.7,1695.4,1062,1682.8,1062z"/>
</g>
<g>
	<line style="fill:none;stroke:#E6E6E6;stroke-width:5;stroke-miterlimit:10;" x1="655.8" y1="476.7" x2="655.8" y2="407.5"/>
	<rect x="999.9" y="237.6" style="fill:#FF931E;" width="186.5" height="470.3"/>
	<ellipse style="fill:#FF931E;" cx="1093.4" cy="239.3" rx="93" ry="37"/>
	<ellipse style="fill:#F14929;" cx="1311.9" cy="365.7" rx="82.2" ry="46.6"/>
	<rect x="1229.9" y="360.6" style="fill:#F14929;" width="164.2" height="359.9"/>
	<path style="fill:#CCCCCC;" d="M1313.1,122.6H929.9c-4.7,0-8.5-3.8-8.5-8.5v-13.7c0-4.7,3.8-8.5,8.5-8.5h383.3
		c4.7,0,8.5,3.8,8.5,8.5v13.7C1321.6,118.8,1317.8,122.6,1313.1,122.6z"/>
	<g>
		<path style="fill:#B3B3B3;" d="M862.2,742.9H737.1c-10.7,0-19.5-10.7-19.5-23.9l39-491.4c0-13.1,8.8-23.9,19.5-23.9h52
			c10.7,0,19.5,10.7,19.5,23.9L881.7,719C881.7,732.1,872.9,742.9,862.2,742.9z"/>
		<path style="fill:#CCCCCC;" d="M644,612.5l298.6-172.4c3.6-2.1,4.8-6.7,2.7-10.2l-6-10.4c-2.1-3.6-6.7-4.8-10.2-2.7L630.5,589
			c-3.6,2.1-4.8,6.7-2.7,10.2l6,10.4C635.9,613.3,640.5,614.5,644,612.5z"/>
		<path style="fill:#CCCCCC;" d="M950.7,608.9L652.2,436.5c-3.6-2.1-4.8-6.7-2.7-10.2l6-10.4c2.1-3.6,6.7-4.8,10.2-2.7l298.6,172.4
			c3.6,2.1,4.8,6.7,2.7,10.2l-6,10.4C958.9,609.7,954.3,610.9,950.7,608.9z"/>
		<path style="fill:#CCCCCC;" d="M923.2,390.7L668.4,243.6c-3.6-2.1-4.8-6.7-2.7-10.2l6-10.4c2.1-3.6,6.7-4.8,10.2-2.7l254.8,147.1
			c3.6,2.1,4.8,6.7,2.7,10.2l-6,10.4C931.4,391.5,926.8,392.8,923.2,390.7z"/>
		<path style="fill:#CCCCCC;" d="M671.1,394.3l254.8-147.1c3.6-2.1,4.8-6.7,2.7-10.2l-6-10.4c-2.1-3.6-6.7-4.8-10.2-2.7l-254.8,147
			c-3.6,2.1-4.8,6.7-2.7,10.2l6,10.4C662.9,395.1,667.5,396.4,671.1,394.3z"/>
		<path style="fill:#E6E6E6;" d="M611.4,729.7l17,1.9c3.8,0.4,7.3-2.4,7.7-6.2l59.1-527.2c0.4-3.8-2.4-7.3-6.2-7.7l-17-1.9
			c-3.8-0.4-7.3,2.4-7.7,6.2L605.2,722C604.8,725.8,607.6,729.3,611.4,729.7z"/>
		<path style="fill:#E6E6E6;" d="M984.3,735.1l-16.4,1.8c-3.8,0.4-7.3-2.4-7.7-6.2l-59.1-527.2c-0.4-3.8,2.4-7.3,6.2-7.7l16.4-1.8
			c3.8-0.4,7.3,2.4,7.7,6.2l59.1,527.2C990.9,731.2,988.1,734.7,984.3,735.1z"/>
		<path style="fill:#CCCCCC;" d="M930.4,194.7c0,0,0,0-0.1-0.1c0.1,0.6,0.1,1.2,0.1,1.9c0,26.9-59.3,48.7-132.5,48.7
			s-132.5-21.8-132.5-48.7c0-0.6,0-1.2,0.1-1.8c-0.1,0-0.1,0-0.1,0V70.3l115.1,23.6l0.3-0.1l10.8,7.2l10.9-7l127.9-23.6V194.7z"/>
		<path style="fill:#CCCCCC;" d="M809.6,148l-10.9,7l-11.1-7.1c3.4-0.1,6.8-0.1,10.2-0.1C801.8,147.9,805.7,147.9,809.6,148z"/>
		<ellipse style="fill:#E6E6E6;" cx="797.9" cy="64.3" rx="132.5" ry="61.3"/>
	</g>
	
		<line style="fill:none;stroke:#FFFFFF;stroke-width:7;stroke-linecap:round;stroke-miterlimit:10;" x1="1020.5" y1="665.3" x2="1175.6" y2="663.5"/>
	<g>
		<rect x="322.7" y="485" style="fill:#E6E6E6;" width="344.4" height="257.8"/>
		<rect x="530.1" y="485" style="fill:#FF931E;" width="137" height="82.9"/>
		<rect x="620.3" y="568" style="fill:#F14929;" width="137" height="178.5"/>
		<rect x="334.4" y="519.6" style="fill:#BDCCD4;" width="37.4" height="40"/>
		<rect x="389.4" y="519.6" style="fill:#BDCCD4;" width="37.4" height="40"/>
		<rect x="389.4" y="577.4" style="fill:#BDCCD4;" width="37.4" height="40"/>
		<rect x="334.4" y="577.4" style="fill:#BDCCD4;" width="37.4" height="40"/>
		<rect x="641.8" y="609.7" style="fill:#2E3192;" width="37.4" height="40"/>
		<rect x="706.7" y="609.7" style="fill:#2E3192;" width="37.4" height="40"/>
		<rect x="350.1" y="645.5" style="fill:#BDCCD4;" width="64.1" height="94.9"/>
		<rect x="481.4" y="645.9" style="fill:#BDCCD4;" width="37.4" height="40"/>
		<rect x="535.5" y="645.9" style="fill:#BDCCD4;" width="37.4" height="40"/>
		<rect x="426.3" y="645.9" style="fill:#BDCCD4;" width="37.4" height="40"/>
	</g>
	<rect x="39.7" y="993.5" style="fill:#999999;" width="709.8" height="37.9"/>
	<path style="fill:#CCCCCC;" d="M734.8,1011.5l-679,3.6c-8.9,0-16.2-9.7-16.2-21.6l131.6-203.7c0-11.9,7.3-21.6,16.2-21.6H797
		c8.9,0,16.2,9.7,16.2,21.6L751,989.9C751,1001.8,743.7,1011.5,734.8,1011.5z"/>
	<path style="fill:#1FA5AA;stroke:#E6E6E6;stroke-width:3;stroke-miterlimit:10;" d="M175.2,1000.7l-103.9-1.8
		c-1.1,0-1.6-9.7-1.6-21.6L181,806c0-11.9,0.6-21.6,1.7-21.6H261c1.1,0,2,9.7,2,21.6l-87.4,169.5
		C175.6,987.4,176.2,1000.7,175.2,1000.7z"/>
	<path style="fill:#1FA5AA;stroke:#E6E6E6;stroke-width:3;stroke-miterlimit:10;" d="M294.1,1000.7h-98.3c-1.1,0,0-13.3,0-25.2
		L281.9,806c0-11.9,0.6-21.6,1.7-21.6h78.9c1.1,0,2,9.7,2,21.6l-68.4,173.1C296.1,991,295.2,1000.7,294.1,1000.7z"/>
	<path style="fill:#1FA5AA;stroke:#E6E6E6;stroke-width:3;stroke-miterlimit:10;" d="M403,1000.7h-90c-1.1,0,1.2-9.7,1.2-21.6
		L384.7,806c0-11.9,0.6-21.6,1.7-21.6h85.7c1.1,0,0.4,9.7,0.4,21.6L405,979.1C405,991,404.1,1000.7,403,1000.7z"/>
	<path style="fill:#7C6029;stroke:#E6E6E6;stroke-width:3;stroke-miterlimit:10;" d="M513.4,1000.7h-90c-1.1,0,1.2-9.7,1.2-21.6
		L493.3,806c0-11.9,0.6-21.6,1.7-21.6h82.1c1.1,0,0.4,9.7,0.4,21.6l-62.1,173.1C515.4,991,514.5,1000.7,513.4,1000.7z"/>
	<path style="fill:#7C6029;stroke:#E6E6E6;stroke-width:3;stroke-miterlimit:10;" d="M622.2,1000.7h-90c-1.1,0,1.2-9.7,1.2-21.6
		L602.1,806c0-11.9,0.6-21.6,1.7-21.6h82.1c1.1,0,0.4,9.7,0.4,21.6l-62.1,173.1C624.2,991,623.3,1000.7,622.2,1000.7z"/>
	<path style="fill:#7C6029;stroke:#E6E6E6;stroke-width:3;stroke-miterlimit:10;" d="M729.4,1000.7h-90c-1.1,0,1.2-9.7,1.2-21.6
		L709.4,806c0-11.9,0.6-21.6,1.7-21.6h82.1c1.1,0,0.4,9.7,0.4,21.6l-62.1,173.1C731.4,991,730.5,1000.7,729.4,1000.7z"/>
	<path style="fill:#CCCCCC;" d="M565.1,314"/>
	<path style="fill:#B3B3B3;" d="M797,245.2c70.8,0,135.2-18.6,135.2-41.6c0-0.5,0-1.1-0.1-1.6c0.1,0,0.1,0,0.1,0l-1.3-132.3
		c-11,11.8-30.6,29.5-59.8,40.6c-14.4,5.5-27.7,8-38.4,9.1c-11.6,0.6-23.3,1.2-34.9,1.8C797.5,162.6,797.2,203.9,797,245.2z"/>
	<path style="fill:#CCCCCC;" d="M797.9,4C871,4,930.4,31.4,930.4,65.3s-59.3,61.3-132.5,61.3"/>
</g>
<g id="WT_Storage">
	<path style="fill:#ED1C24;" d="M1312.6,319.1v373.2h81.5l-0.4-331.8c-3.9-6.6-15.3-24-37.9-34.3
		C1337.3,317.9,1320.4,318.4,1312.6,319.1z"/>
	<path style="fill:#CCCCCC;" d="M1316.9,335.4h-10.4c-3.6,0-6.5-2.9-6.5-6.5V100.3c0-3.6,2.9-6.5,6.5-6.5h10.4
		c3.6,0,6.5,2.9,6.5,6.5v228.6C1323.4,332.4,1320.5,335.4,1316.9,335.4z"/>
	<path style="fill:#FF842D;" d="M1092.7,207.4l-3.6,434.5l97.4,2.7v-407c-4.1-4.2-8.9-8.4-14.4-12.2
		C1142.1,204.6,1108.4,205.7,1092.7,207.4z"/>
	<path style="fill:#F7931E;" d="M444,426"/>
	<path style="fill:#CCCCCC;" d="M1095.4,218.2c-6.4,0-11.7-5.3-11.7-11.7v-97.4c0-6.4,5.3-11.7,11.7-11.7s11.7,5.3,11.7,11.7v97.4
		C1107.1,212.9,1101.8,218.2,1095.4,218.2z"/>
</g>

<g id="WT_pools">
	<path style="fill:#666666;" d="M1404.6,766.3l-328.2-2c-11.9,0-21.6-10.7-21.6-23.7l12.6-75c0-13,9.7-23.7,21.6-23.7h303
		c11.9,0,21.6,10.7,21.6,23.7l12.6,77C1426.2,755.6,1416.5,766.3,1404.6,766.3z"/>
	<path style="fill:#4D4D4D;" d="M1251.3,638.3H1392c11.9,0,21.6,11,21.6,24.4l12.6,79.2c0,13.4-9.7,24.4-21.6,24.4l-153.3-0.9"/>
	<ellipse style="fill:#1FA5AA;stroke:#F2F2F2;stroke-width:4;stroke-miterlimit:10;" cx="1236.9" cy="643.7" rx="173.1" ry="45.1"/>
	<path style="fill:#999999;" d="M1195.4,802.4l-328.2-2c-11.9,0-21.6-11-21.6-24.4l12.6-77.2c0-13.4,9.7-24.4,21.6-24.4h302.9
		c11.9,0,21.6,11,21.6,24.4l12.6,79.2C1217.1,791.4,1207.3,802.4,1195.4,802.4z"/>
	<path style="fill:#808080;" d="M1042.2,676.1h140.6c11.9,0,21.6,11,21.6,24.4l12.6,79.2c0,13.4-9.7,24.4-21.6,24.4l-153.3-0.9"/>
	<ellipse style="fill:#1FA5AA;stroke:#F2F2F2;stroke-width:4;stroke-miterlimit:10;" cx="1027.7" cy="676.1" rx="173.1" ry="45.1"/>
	
		<line style="fill:none;stroke:#FFFFFF;stroke-width:7;stroke-linecap:round;stroke-miterlimit:10;" x1="1241.4" y1="644.6" x2="1396.5" y2="642.8"/>
	
		<line style="fill:none;stroke:#FFFFFF;stroke-width:7;stroke-linecap:round;stroke-miterlimit:10;" x1="1023.2" y1="677" x2="1178.3" y2="675.2"/>
</g>
</svg>
