<?xml version="1.0" encoding="utf-8"?>
<!-- Generator: Adobe Illustrator 23.0.4, SVG Export Plug-In . SVG Version: 6.00 Build 0)  -->
<svg version="1.1" id="Layer_1" xmlns="http://www.w3.org/2000/svg" xmlns:xlink="http://www.w3.org/1999/xlink" x="0px" y="0px"
	 viewBox="0 0 595 1220.7" style="enable-background:new 0 0 595 1220.7;" xml:space="preserve">
<title>Watertower</title>
<polygon style="fill:#1E205F;" points="595,448.6 595,453.7 595,453.7 453.1,535.2 142.7,535.2 0,453.5 0,453.5 0,444.2 
	297.9,365.4 "/>
<polygon style="fill:#1E205F;" points="0,144.1 132,79 297.1,14.6 463,79 595,144.1 "/>
<path style="fill:#2E3192;" d="M595,454.2v-0.4C595,453.9,595,454.1,595,454.2z"/>
<path style="fill:#2E3192;" d="M0.1,454.2c0-0.1,0-0.2,0-0.4V454.2z"/>
<path style="fill:#2E3192;" d="M595,144.8L595,144.8v309c0,0,0-0.1,0-0.1c-0.8-11.2-133.7-20.2-297.5-20.2
	c-162.9,0-295.2,9-297.5,20.1c0,0.1,0,0.2,0,0.3v-309l0,0c0-0.1,0-0.2,0-0.4c0-11.2,133.2-20.3,297.5-20.3S595,133.2,595,144.5
	C595,144.6,595,144.7,595,144.8z"/>
<path style="fill:#2E3192;" d="M297.5,0.5c-91.4,0-165.6,4.6-165.6,10.4V79c0-5.7,74.1-10.4,165.6-10.4S463.1,73.2,463.1,79V10.9
	C463.1,5.2,388.9,0.5,297.5,0.5z"/>
<rect x="142.5" y="535" style="fill:#2E3192;" width="310.5" height="685.1"/>
<path style="opacity:0.1;stroke:#0055E8;stroke-miterlimit:10;enable-background:new    ;" d="M200.9,585v635.1H170V585
	c0-7,5.6-12.7,12.6-12.8h5.6C195.2,572.3,200.9,578,200.9,585z"/>
<path style="opacity:0.1;stroke:#0055E8;stroke-miterlimit:10;enable-background:new    ;" d="M255.5,584.6v635.6h-30.8V584.6
	c0-7,5.6-12.7,12.6-12.8h5.6C249.9,571.9,255.5,577.6,255.5,584.6z"/>
<path style="opacity:0.1;stroke:#0055E8;stroke-miterlimit:10;enable-background:new    ;" d="M313.4,584.6v635.6h-30.8V584.6
	c0-7,5.6-12.7,12.6-12.8h5.6C307.8,571.9,313.4,577.6,313.4,584.6z"/>
<path style="opacity:0.1;stroke:#0055E8;stroke-miterlimit:10;enable-background:new    ;" d="M371.3,584.6v635.6h-30.8V584.6
	c0-7,5.6-12.7,12.6-12.8h5.5C365.7,571.9,371.3,577.6,371.3,584.6z"/>
<path style="opacity:0.1;stroke:#0055E8;stroke-miterlimit:10;enable-background:new    ;" d="M425.4,585.5v634.7h-30.8V585.5
	c0-7,5.6-12.7,12.6-12.8c0,0,0,0,0,0h5.6C419.8,572.8,425.5,578.5,425.4,585.5z"/>
<path style="fill:#004B9F;" d="M-181,155.1L-181,155.1L-181,155.1z"/>
<path style="opacity:0.1;enable-background:new    ;" d="M594,143.8L594,143.8v308.9l0,0l-140,80.4v685.1H347V0
	c66.7,1.3,115,5.2,115,9.9V78c0-1.1-3-2.2-8.4-3.3L462,78l122.1,60.3l9.8,4.8l0,0c0,0.1,0,0.2,0,0.4
	C593.9,143.6,594,143.7,594,143.8z"/>
</svg>
