<svg id="Layer_1" data-name="Layer 1" 
    xmlns="http://www.w3.org/2000/svg" viewBox="0 0 1505.47 1149.82">
    <polygon points="1121.47 292.49 1121.47 295.84 1121.46 295.84 1023.96 348.94 810.63 348.94 712.56 295.72 712.54 295.7 712.54 289.61 917.3 238.23 1121.47 292.49" fill="#1e205f"/>
    <polygon points="712.54 93.95 803.23 51.48 916.73 9.5 1030.78 51.48 1121.47 93.95 712.54 93.95" fill="#1e205f"/>
    <path d="M1121.47,296.15v-.24a.67.67,0,0,1,0,.24Z" fill="#2e3192"/>
    <path d="M712.57,296.15a1,1,0,0,1,0-.24v.24Z" fill="#2e3192"/>
    <path d="M1121.43,94.43h0V295.91a.17.17,0,0,0,0-.07c-.55-7.3-91.88-13.2-204.46-13.2-111.93,0-202.86,5.83-204.44,13.08a.58.58,0,0,0,0,.19V94.43h0a1,1,0,0,1,0-.24c0-7.33,91.54-13.27,204.46-13.27s204.47,5.94,204.47,13.27A1,1,0,0,1,1121.43,94.43Z" fill="#2e3192"/>
    <path d="M917,.33c-62.83,0-113.77,3-113.77,6.76v44.4c0-3.74,50.94-6.76,113.77-6.76s113.78,3,113.78,6.76V7.09C1030.78,3.36,979.84.33,917,.33Z" fill="#2e3192"/>
    <rect x="810.47" y="348.85" width="213.4" height="446.71" fill="#2e3192"/>
    <path d="M850.59,381.46v414.1H829.41V381.46a8.5,8.5,0,0,1,8.68-8.32h3.81A8.51,8.51,0,0,1,850.59,381.46Z" stroke="#0055e8" stroke-miterlimit="10" opacity="0.1"/>
    <path d="M888.13,381.15V795.56H867V381.15a8.51,8.51,0,0,1,8.69-8.32h3.81A8.51,8.51,0,0,1,888.13,381.15Z" stroke="#0055e8" stroke-miterlimit="10" opacity="0.1"/>
    <path d="M927.93,381.15V795.56H906.75V381.15a8.51,8.51,0,0,1,8.68-8.32h3.81A8.51,8.51,0,0,1,927.93,381.15Z" stroke="#0055e8" stroke-miterlimit="10" opacity="0.1"/>
    <path d="M967.72,381.15V795.56H946.54V381.15a8.51,8.51,0,0,1,8.68-8.32H959A8.51,8.51,0,0,1,967.72,381.15Z" stroke="#0055e8" stroke-miterlimit="10" opacity="0.1"/>
    <path d="M1004.94,381.77V795.56H983.76V381.77a8.51,8.51,0,0,1,8.69-8.32h3.81A8.5,8.5,0,0,1,1004.94,381.77Z" stroke="#0055e8" stroke-miterlimit="10" opacity="0.1"/>
    <path d="M1120.75,93.78h0V295.19h0l-96.22,52.4V794.26H951V0c45.87.87,79.08,3.42,79.08,6.44V50.83c0-.74-2-1.46-5.79-2.13l5.79,2.13L1114,90.15l6.7,3.13v0a1,1,0,0,1,0,.24A2,2,0,0,1,1120.75,93.78Z" opacity="0.1"/>
    <path d="M1486.88,1149.82H18.59A18.64,18.64,0,0,1,0,1131.23V956C0,865,74.51,790.45,165.59,790.45h1231c60,0,108.9,48.95,108.9,108.89v231.89A18.65,18.65,0,0,1,1486.88,1149.82Z" fill="#8cc63f"/>
    <rect x="166.05" y="499.24" width="533.47" height="399.33" fill="#e6e6e6"/>
    <rect x="487.31" y="499.24" width="212.21" height="128.41" fill="#ff931e"/>
    <polygon points="627.03 627.81 839.24 627.81 838.78 898.88 626.57 898.88 627.03 627.81" fill="#f14929"/>
    <rect x="184.18" y="552.84" width="57.93" height="61.96" fill="#bdccd4"/>
    <rect x="269.37" y="552.84" width="57.93" height="61.96" fill="#bdccd4"/>
    <rect x="269.37" y="642.37" width="57.93" height="61.96" fill="#bdccd4"/>
    <rect x="184.18" y="642.37" width="57.93" height="61.96" fill="#bdccd4"/>
    <rect x="660.34" y="692.4" width="57.93" height="61.96" fill="#2e3192"/>
    <rect x="760.87" y="692.4" width="57.93" height="61.96" fill="#2e3192"/>
    <rect x="208.49" y="747.85" width="99.29" height="147" fill="#bdccd4"/>
    <rect x="411.88" y="748.47" width="57.93" height="61.96" fill="#bdccd4"/>
    <rect x="495.68" y="748.47" width="57.93" height="61.96" fill="#bdccd4"/>
    <rect x="326.53" y="748.47" width="57.93" height="61.96" fill="#bdccd4"/>
    <path d="M1363,970.13,854.58,967c-18.43,0-33.46-17-33.46-37.8l19.52-119.58c0-20.76,15-37.8,33.46-37.8h469.19c18.43,0,33.45,17,33.45,37.8l19.52,122.68C1396.57,953.09,1381.39,970.13,1363,970.13Z" fill="#999"/>
    <ellipse cx="1103.19" cy="774.5" rx="268.13" ry="69.86" fill="#1fa5aa" stroke="#f2f2f2" stroke-miterlimit="10" stroke-width="4"/>
</svg>