<?xml version="1.0" encoding="utf-8"?>
<!-- Generator: Adobe Illustrator 23.0.4, SVG Export Plug-In . SVG Version: 6.00 Build 0)  -->
<svg version="1.1" id="Layer_1" xmlns="http://www.w3.org/2000/svg" xmlns:xlink="http://www.w3.org/1999/xlink" x="0px" y="0px"
	 viewBox="0 0 726 726" style="enable-background:new 0 0 726 726;" xml:space="preserve">
<title>yellowelectron</title>
<path style="fill:#FFFF00;" d="M363,725.5C163.4,725.3,1.7,563.3,2,363.6C2.2,164,164.2,2.4,363.8,2.6s361.3,162.2,361,361.9
	c-0.2,145.1-87.1,276-220.8,332.5C459.5,715.9,411.5,725.6,363,725.5z"/>
<path style="fill:#FFFF00;" d="M363,1c199.3,0.3,360.6,162,360.4,361.3S561.4,723,362.1,722.7C162.8,722.4,1.4,560.7,1.7,361.4
	c0.2-144.9,87-275.6,220.4-331.9C266.7,10.6,314.6,0.9,363,1 M363,0C162.5,0,0,162.5,0,363s162.5,363,363,363s363-162.5,363-363
	S563.5,0,363,0z"/>
</svg>
