<?xml version="1.0" encoding="utf-8"?>
<!-- Generator: Adobe Illustrator 16.0.0, SVG Export Plug-In . SVG Version: 6.00 Build 0)  -->
<!DOCTYPE svg PUBLIC "-//W3C//DTD SVG 1.1//EN" "http://www.w3.org/Graphics/SVG/1.1/DTD/svg11.dtd">
<svg version="1.1" id="Layer_2" xmlns="http://www.w3.org/2000/svg" xmlns:xlink="http://www.w3.org/1999/xlink" x="0px" y="0px"
	 width="136.493px" height="146.993px" viewBox="0 0 136.493 146.993" enable-background="new 0 0 136.493 146.993"
	 xml:space="preserve">
<path fill="#FFFFFF" stroke="#000000" stroke-linecap="round" stroke-linejoin="round" d="M52.945,58.435
	c0,0-1.156-1.656-4.406-8.031C47.053,47.489,42.08,45.07,64.08,25.57s31.5-14.167,31.5-14.167s-0.166,2.167-2.332,2.167
	c0,0,6.833,0.667-1,3.5c0,0,7.166,0.5-2.834,4.833c0,0,2.667,1.333-2.666,4.167l-1.168,7l-12.916-1.542l-10.625,9l-0.125,12.25
	l-0.812,6.656"/>
<g>
	<path fill="#FEBE31" stroke="#000000" stroke-miterlimit="10" d="M8.914,83.571c0,0,2.334,2.5,22.667-3.833
		c20.333-6.334,6-7.834,6-7.834S7.58,81.071,8.914,83.571z"/>
	<path fill="#FEBE31" stroke="#000000" stroke-miterlimit="10" d="M22.414,70.654c0,0-11.334,1.416-14,12.25
		c-0.5,3,3.667-0.5,3.667-0.5s3.333-4.666,20.833-8.333S22.414,70.654,22.414,70.654z"/>
	<g id="XMLID_2_">
		<g>
			<path fill="#FFFFFF" d="M105.086,82.089c0.22,0.33,4.659,7.16-11.45-1.66c-5.21-0.66-7.73,0.65-7.73,0.65
				c-12.83,4-25.5,3.32-35,1.66c-4.67-0.82-10-4.34-10-4.34l-0.97-0.2c1.28-0.77,2.44-1.8,3.35-3.17l55.45-8.63
				c0,0-1.21-0.93-3.88-2.23l0.05-0.09c0,0,30.17-7.5,17.33,1.16c0,0,10.34,3.34,1.67,4.66c0,0,16,4-0.5,6c0,0,18,9.34-2.33,4.18
				C111.075,80.079,123.575,89.579,105.086,82.089z"/>
			<path fill="#FFFFFF" d="M98.735,66.399l-55.45,8.63c-0.909,1.37-2.069,2.4-3.35,3.17c-4.54,2.74-10.41,2.2-10.41,2.2
				s-3.62-2.82-0.79-6.16c-6.5,0.66-7.33-3.59-7.33-3.59s3.87-7.78,12.62-12.03c0,0,3.76-1.33,8.76,1.53
				c21.87-5.62,41.29,0.09,41.29,0.09c4.87,1.34,8.41,2.78,10.78,3.93C97.525,65.469,98.735,66.399,98.735,66.399z"/>
		</g>
		<g>
			<path fill="none" stroke="#000000" stroke-linecap="round" stroke-linejoin="round" d="M40.905,78.399c0,0,5.33,3.52,10,4.34
				c9.5,1.66,22.17,2.34,35-1.66"/>
			<path fill="none" stroke="#000000" stroke-linecap="round" stroke-linejoin="round" d="M85.905,81.079c0,0,2.521-1.31,7.73-0.65
				c1.21,0.14,2.58,0.4,4.1,0.81"/>
			<path fill="none" stroke="#000000" stroke-linecap="round" stroke-linejoin="round" d="M43.285,75.029
				c-0.909,1.37-2.069,2.4-3.35,3.17c-4.54,2.74-10.41,2.2-10.41,2.2s-3.62-2.82-0.79-6.16c-6.5,0.66-7.33-3.59-7.33-3.59
				s3.87-7.78,12.62-12.03c0,0,3.76-1.33,8.76,1.53c21.87-5.62,41.29,0.09,41.29,0.09c4.87,1.34,8.41,2.78,10.78,3.93
				c2.67,1.3,3.88,2.23,3.88,2.23"/>
			<path fill="none" stroke="#000000" stroke-linecap="round" stroke-linejoin="round" d="M93.636,80.429
				c-0.04-0.03-0.09-0.05-0.141-0.08"/>
			<path fill="none" stroke="#000000" stroke-miterlimit="10" d="M105.086,82.089c0.22,0.33,4.659,7.16-11.45-1.66"/>
			<path fill="none" stroke="#000000" stroke-miterlimit="10" d="M94.905,64.079c0,0,30.17-7.5,17.33,1.16c0,0,10.34,3.34,1.67,4.66
				c0,0,16,4-0.5,6c0,0,18,9.34-2.33,4.18c0,0,12.5,9.5-5.989,2.01l-0.011-0.01"/>
		</g>
	</g>
	<ellipse cx="35.269" cy="69.808" rx="1.188" ry="1.842"/>
</g>
<path fill="#C2B59C" stroke="#000000" stroke-linecap="round" stroke-linejoin="round" d="M66.039,63.654
	c12.625-0.625,18.25-3.125,18.25-3.125c10.75-7.75,3.625-7.458,3.625-7.458c4.334-1.167-0.333-3.333-0.333-3.333
	c4-1,0.833-5.5,0.833-5.5c3.167-1.833,0-3,0-3c2.5-0.667,0.167-3.833,0.167-3.833c5.167-0.667,0-7.333,0-7.333
	s-33.354,6.083-27.854,23.458"/>
<path fill="none" stroke="#000000" stroke-linecap="round" stroke-linejoin="round" d="M45.498,59.487"/>
<path fill="#FFFFFF" stroke="#000000" stroke-linecap="round" stroke-linejoin="round" d="M66.039,63.654
	c-0.25-13.75-3.625-18.75-3-19.875c6.25-12.25,48.375-12.875,48.375-12.875c6.529-0.86,0.646-2.508,2.5-2.833c9.5-1.667,2-4,2-4
	c12.916-3.5,4.167-3.667,4.167-3.667c7.5-2,5.333-3,5.333-3s-20.5-0.582-42.5,7.334c0,0-32.625,11.791-25.5,23.583
	c4.798,7.94,2.25,16.333,2.25,16.333"/>
<path fill="none" stroke="#000000" stroke-linecap="round" stroke-linejoin="round" d="M63.914,44.904"/>
</svg>
