<?xml version="1.0" encoding="utf-8"?>
<!-- Generator: Adobe Illustrator 16.0.0, SVG Export Plug-In . SVG Version: 6.00 Build 0)  -->
<!DOCTYPE svg PUBLIC "-//W3C//DTD SVG 1.1//EN" "http://www.w3.org/Graphics/SVG/1.1/DTD/svg11.dtd">
<svg version="1.1" id="Layer_6" xmlns="http://www.w3.org/2000/svg" xmlns:xlink="http://www.w3.org/1999/xlink" x="0px" y="0px"
	 width="136.493px" height="146.993px" viewBox="0 0 136.493 146.993" enable-background="new 0 0 136.493 146.993"
	 xml:space="preserve">
<g>
	<path fill="#FFFFFF" stroke="#000000" stroke-linecap="round" stroke-linejoin="round" d="M50.664,73.904c0,0-9.75,10.5,0.25,27
		c0,0,12,20.25,17,34.5c0,0,2.25-4,1.25-9.25c0,0,7.5,7.25,1.75-10c0,0,12.75,12.5,3.25-15.5"/>
	<path fill="#FEBE31" stroke="#000000" stroke-miterlimit="10" d="M8.914,83.571c0,0,2.334,2.5,22.667-3.833
		c20.333-6.334,6-7.834,6-7.834S7.58,81.071,8.914,83.571z"/>
	<path fill="#FEBE31" stroke="#000000" stroke-miterlimit="10" d="M22.414,70.654c0,0-11.334,1.416-14,12.25
		c-0.5,3,3.667-0.5,3.667-0.5s3.333-4.666,20.833-8.333S22.414,70.654,22.414,70.654z"/>
	<g id="XMLID_4_">
		<g>
			<path fill="#FFFFFF" d="M105.091,82.075c0.221,0.33,4.66,7.18-11.47-1.66c-5.2-0.66-7.71,0.65-7.71,0.65
				c-12.83,4-25.5,3.33-35,1.67c-4.67-0.82-10-4.34-10-4.34l-0.97-0.2c1.27-0.77,2.439-1.8,3.35-3.17l55.45-8.63
				c0,0-1.21-0.93-3.88-2.23l0.05-0.1c0,0,30.17-7.5,17.33,1.17c0,0,10.34,3.33,1.67,4.66c0,0,16,4-0.5,6c0,0,18,9.34-2.33,4.17
				C111.081,80.065,123.581,89.565,105.091,82.075z"/>
			<path fill="#FFFFFF" d="M98.741,66.395l-55.45,8.63c-0.91,1.37-2.08,2.4-3.35,3.17c-4.54,2.74-10.41,2.2-10.41,2.2
				s-3.62-2.83-0.79-6.16c-6.5,0.66-7.33-3.59-7.33-3.59s3.87-7.79,12.62-12.04c0,0,3.76-1.33,8.76,1.54
				c21.87-5.62,41.29,0.09,41.29,0.09c4.87,1.33,8.41,2.77,10.78,3.93C97.531,65.465,98.741,66.395,98.741,66.395z"/>
		</g>
		<g>
			<path fill="none" stroke="#000000" stroke-linecap="round" stroke-linejoin="round" d="M40.911,78.395c0,0,5.33,3.52,10,4.34
				c9.5,1.66,22.17,2.33,35-1.67"/>
			<path fill="none" stroke="#000000" stroke-linecap="round" stroke-linejoin="round" d="M85.911,81.065c0,0,2.51-1.31,7.71-0.65
				c1.22,0.15,2.6,0.41,4.12,0.82"/>
			<path fill="none" stroke="#000000" stroke-linecap="round" stroke-linejoin="round" d="M43.291,75.025
				c-0.91,1.37-2.08,2.4-3.35,3.17c-4.54,2.74-10.41,2.2-10.41,2.2s-3.62-2.83-0.79-6.16c-6.5,0.66-7.33-3.59-7.33-3.59
				s3.87-7.79,12.62-12.04c0,0,3.76-1.33,8.76,1.54c21.87-5.62,41.29,0.09,41.29,0.09c4.87,1.33,8.41,2.77,10.78,3.93
				c2.67,1.3,3.88,2.23,3.88,2.23"/>
			<path fill="none" stroke="#000000" stroke-linecap="round" stroke-linejoin="round" d="M93.621,80.415
				c-0.04-0.02-0.08-0.05-0.12-0.07"/>
			<path fill="none" stroke="#000000" stroke-miterlimit="10" d="M105.091,82.075c0.221,0.33,4.66,7.18-11.47-1.66"/>
			<path fill="none" stroke="#000000" stroke-miterlimit="10" d="M94.911,64.065c0,0,30.17-7.5,17.33,1.17c0,0,10.34,3.33,1.67,4.66
				c0,0,16,4-0.5,6c0,0,18,9.34-2.33,4.17c0,0,12.5,9.5-5.99,2.01l-0.01-0.01"/>
		</g>
	</g>
	<ellipse cx="35.269" cy="69.808" rx="1.188" ry="1.842"/>
	<path fill="#FFFFFF" stroke="#000000" stroke-linecap="round" stroke-linejoin="round" d="M66.414,63.904c0,0,0.25,5.5-4.75,7.5
		s-14,10.25,3.5,36.75s16.75,34,20.25,34.25s-0.25-8.25-0.75-9.25s4.5,6.75,0-12.5c0,0,4-2.25-1-15.75c0,0,3.25,0.25,0.75-7.25
		c0,0,5.5-4.75-6.75-22"/>
</g>
</svg>
