<?xml version="1.0" encoding="utf-8"?>
<!-- Generator: Adobe Illustrator 16.0.0, SVG Export Plug-In . SVG Version: 6.00 Build 0)  -->
<!DOCTYPE svg PUBLIC "-//W3C//DTD SVG 1.1//EN" "http://www.w3.org/Graphics/SVG/1.1/DTD/svg11.dtd">
<svg version="1.1" id="Layer_6" xmlns="http://www.w3.org/2000/svg" xmlns:xlink="http://www.w3.org/1999/xlink" x="0px" y="0px"
	 width="136.493px" height="146.993px" viewBox="0 0 136.493 146.993" enable-background="new 0 0 136.493 146.993"
	 xml:space="preserve">
<g>
	<path fill="#FEBE31" stroke="#000000" stroke-miterlimit="10" d="M8.914,83.571c0,0,2.334,2.5,22.667-3.833
		c20.333-6.334,6-7.834,6-7.834S7.58,81.071,8.914,83.571z"/>
	<path fill="#FEBE31" stroke="#000000" stroke-miterlimit="10" d="M22.414,70.654c0,0-11.334,1.416-14,12.25
		c-0.5,3,3.667-0.5,3.667-0.5s3.333-4.666,20.833-8.333S22.414,70.654,22.414,70.654z"/>
	<g id="XMLID_6_">
		<g>
			<path fill="#FFFFFF" d="M105.087,82.081c0.22,0.33,4.66,7.16-11.45-1.66c-5.21-0.66-7.729,0.65-7.729,0.65
				c-12.83,4-25.5,3.32-35,1.66c-4.671-0.81-10-4.34-10-4.34l-0.96-0.2c1.27-0.77,2.439-1.8,3.34-3.17l55.449-8.63
				c0,0-1.21-0.93-3.88-2.23l0.051-0.09c0,0,30.17-7.5,17.329,1.16c0,0,10.341,3.34,1.671,4.66c0,0,16,4-0.5,6
				c0,0,18,9.34-2.33,4.18C111.077,80.07,123.577,89.57,105.087,82.081z"/>
			<path fill="#FFFFFF" d="M98.736,66.391l-55.449,8.63c-0.9,1.37-2.07,2.4-3.34,3.17c-4.54,2.75-10.421,2.2-10.421,2.2
				s-3.619-2.82-0.79-6.16c-6.5,0.66-7.329-3.59-7.329-3.59s3.869-7.78,12.619-12.03c0,0,3.761-1.32,8.761,1.53
				c21.87-5.62,41.29,0.09,41.29,0.09c4.87,1.34,8.409,2.78,10.779,3.93C97.526,65.46,98.736,66.391,98.736,66.391z"/>
		</g>
		<g>
			<path fill="none" stroke="#000000" stroke-linecap="round" stroke-linejoin="round" d="M40.907,78.391c0,0,5.329,3.53,10,4.34
				c9.5,1.66,22.17,2.34,35-1.66"/>
			<path fill="none" stroke="#000000" stroke-linecap="round" stroke-linejoin="round" d="M85.907,81.07c0,0,2.52-1.31,7.729-0.65
				c1.21,0.14,2.58,0.4,4.1,0.81"/>
			<path fill="none" stroke="#000000" stroke-linecap="round" stroke-linejoin="round" d="M43.287,75.021
				c-0.9,1.37-2.07,2.4-3.34,3.17c-4.54,2.75-10.421,2.2-10.421,2.2s-3.619-2.82-0.79-6.16c-6.5,0.66-7.329-3.59-7.329-3.59
				s3.869-7.78,12.619-12.03c0,0,3.761-1.32,8.761,1.53c21.87-5.62,41.29,0.09,41.29,0.09c4.87,1.34,8.409,2.78,10.779,3.93
				c2.67,1.3,3.88,2.23,3.88,2.23"/>
			<path fill="none" stroke="#000000" stroke-linecap="round" stroke-linejoin="round" d="M93.637,80.42
				c-0.04-0.03-0.09-0.05-0.14-0.08"/>
			<path fill="none" stroke="#000000" stroke-miterlimit="10" d="M105.087,82.081c0.22,0.33,4.66,7.16-11.45-1.66"/>
			<path fill="none" stroke="#000000" stroke-miterlimit="10" d="M94.907,64.07c0,0,30.17-7.5,17.329,1.16
				c0,0,10.341,3.34,1.671,4.66c0,0,16,4-0.5,6c0,0,18,9.34-2.33,4.18c0,0,12.5,9.5-5.99,2.01l-0.01-0.01"/>
		</g>
	</g>
	<ellipse cx="35.269" cy="69.808" rx="1.188" ry="1.842"/>
	<path fill="#FFFFFF" stroke="#000000" stroke-linecap="round" stroke-linejoin="round" d="M56.416,66.38
		c0,0,2.628-1.406,4.33,2.577c3.522,8.246,12.864,23.427,55.3,8.712c0,0,3.314-3.411-7.271-4.171c0,0,7.555-3.249-8.228-2.262
		c0,0,9.207-4.776-6.474-1.841c0,0,11.141-4.526-10.96-4.844c0,0-2.881-7.894-14.9-3.577"/>
</g>
<g>
	<g>
		<path d="M-138.586-81.596c1.935,0,1.935-3,0-3S-140.521-81.596-138.586-81.596L-138.586-81.596z"/>
	</g>
</g>
</svg>
