<?xml version="1.0" encoding="utf-8"?>
<!-- Generator: Adobe Illustrator 16.0.0, SVG Export Plug-In . SVG Version: 6.00 Build 0)  -->
<!DOCTYPE svg PUBLIC "-//W3C//DTD SVG 1.1//EN" "http://www.w3.org/Graphics/SVG/1.1/DTD/svg11.dtd">
<svg version="1.1" id="Layer_2" xmlns="http://www.w3.org/2000/svg" xmlns:xlink="http://www.w3.org/1999/xlink" x="0px" y="0px"
	 width="136.493px" height="146.993px" viewBox="0 0 136.493 146.993" enable-background="new 0 0 136.493 146.993"
	 xml:space="preserve">
<path fill="#FFFFFF" stroke="#000000" stroke-linecap="round" stroke-linejoin="round" d="M48.999,82.25c0,0-3.25,5.5,11.25,15.25
	c0,0,23,16.25,25.5,20.5c0,0,6,0.5-5.5-20.5L69.999,72"/>
<g>
	<path fill="#FEBE31" stroke="#000000" stroke-miterlimit="10" d="M8.499,84.167c0,0,2.334,2.5,22.667-3.833
		c20.333-6.334,6-7.834,6-7.834S7.166,81.667,8.499,84.167z"/>
	<path fill="#FEBE31" stroke="#000000" stroke-miterlimit="10" d="M21.999,71.25c0,0-11.333,1.416-14,12.25
		c-0.5,3,3.667-0.5,3.667-0.5s3.333-4.666,20.833-8.333S21.999,71.25,21.999,71.25z"/>
	<g id="XMLID_3_">
		<g>
			<path fill="#FFFFFF" d="M111.817,65.824c0,0,10.34,3.34,1.67,4.66c0,0,16,4-0.5,6c0,0,18,9.34-2.33,4.18c0,0,12.5,9.5-5.989,2.01
				c0.22,0.33,4.659,7.16-11.45-1.66c-5.21-0.66-7.73,0.65-7.73,0.65c-12.83,4-25.5,3.32-35,1.66c-4.67-0.82-10-4.34-10-4.34
				l-0.97-0.2c1.28-0.77,2.45-1.8,3.35-3.17l55.45-8.63c0,0-1.21-0.93-3.88-2.23l0.05-0.09
				C94.487,64.664,124.657,57.164,111.817,65.824z"/>
			<path fill="#FFFFFF" d="M42.867,75.614c-0.899,1.37-2.069,2.4-3.35,3.17c-4.54,2.74-10.41,2.2-10.41,2.2s-3.62-2.82-0.79-6.16
				c-6.5,0.66-7.33-3.59-7.33-3.59s3.87-7.78,12.62-12.03c0,0,3.76-1.33,8.76,1.53c21.87-5.62,41.29,0.09,41.29,0.09
				c4.87,1.34,8.41,2.78,10.78,3.93c2.67,1.3,3.88,2.23,3.88,2.23L42.867,75.614z"/>
		</g>
		<g>
			<path fill="none" stroke="#000000" stroke-linecap="round" stroke-linejoin="round" d="M40.487,78.984c0,0,5.33,3.52,10,4.34
				c9.5,1.66,22.17,2.34,35-1.66"/>
			<path fill="none" stroke="#000000" stroke-linecap="round" stroke-linejoin="round" d="M85.487,81.664c0,0,2.521-1.31,7.73-0.65
				c1.22,0.14,2.58,0.4,4.1,0.81"/>
			<path fill="none" stroke="#000000" stroke-linecap="round" stroke-linejoin="round" d="M42.867,75.614
				c-0.899,1.37-2.069,2.4-3.35,3.17c-4.54,2.74-10.41,2.2-10.41,2.2s-3.62-2.82-0.79-6.16c-6.5,0.66-7.33-3.59-7.33-3.59
				s3.87-7.78,12.62-12.03c0,0,3.76-1.33,8.76,1.53c21.87-5.62,41.29,0.09,41.29,0.09c4.87,1.34,8.41,2.78,10.78,3.93
				c2.67,1.3,3.88,2.23,3.88,2.23"/>
			<path fill="none" stroke="#000000" stroke-linecap="round" stroke-linejoin="round" d="M93.218,81.014
				c-0.04-0.03-0.09-0.05-0.141-0.08"/>
			<path fill="none" stroke="#000000" stroke-miterlimit="10" d="M104.668,82.674c0.22,0.33,4.659,7.16-11.45-1.66"/>
			<path fill="none" stroke="#000000" stroke-miterlimit="10" d="M94.487,64.664c0,0,30.17-7.5,17.33,1.16c0,0,10.34,3.34,1.67,4.66
				c0,0,16,4-0.5,6c0,0,18,9.34-2.33,4.18c0,0,12.5,9.5-5.989,2.01l-0.011-0.01"/>
		</g>
	</g>
	<ellipse cx="34.854" cy="70.404" rx="1.188" ry="1.842"/>
</g>
<path fill="none" stroke="#000000" stroke-linecap="round" stroke-linejoin="round" d="M45.083,60.083"/>
<path fill="none" stroke="#000000" stroke-linecap="round" stroke-linejoin="round" d="M63.499,45.5"/>
<path fill="#FFFFFF" stroke="#000000" stroke-linecap="round" stroke-linejoin="round" d="M59.666,61.667c0,0,7.895,6.281,1.333,10
	c0,0-23.25,12.833,37.75,39.583c0,0,4.75-0.25-2.5-8c0,0,7.75,2.75-4.5-7.25c0,0,10,2.75-3.5-5.75c0,0,11.25,4.25-4.75-11
	c0,0,3.25-7.75-8.5-12.75"/>
</svg>
